<svg xmlns="http://www.w3.org/2000/svg" viewBox="45.5 -56.8 44.6 41.1" width="400" height="300" preserveAspectRatio="xMidYMid meet">
  <rect x="45.5" y="-56.8" width="44.6" height="41.1" fill="#0e0e18"/>
  <path d="M87.4,-56.7L86.6,-55.7L85.8,-55.5L85.7,-54.0L85.2,-53.4L83.2,-53.9L82.5,-51.3L81.9,-50.9L80.0,-50.4L80.9,-48.0L80.2,-47.6L80.3,-46.8L79.6,-47.0L79.1,-47.5L77.7,-47.7L76.0,-47.7L75.6,-47.6L74.2,-48.1L73.6,-47.8L73.5,-47.0L71.8,-47.5L71.2,-47.3L71.0,-46.7L70.4,-46.5L69.1,-45.5L68.6,-44.6L68.3,-44.6L68.0,-45.2L66.7,-45.3L66.5,-46.3L66.0,-46.4L66.1,-47.7L64.9,-48.7L63.2,-48.6L62.0,-48.4L61.1,-49.7L60.2,-50.2L58.7,-51.2L58.5,-51.3L55.9,-50.5L56.0,-45.4L55.5,-45.4L54.8,-46.4L54.1,-46.8L52.9,-46.5L52.5,-46.1L52.4,-46.4L52.7,-47.0L52.5,-47.4L51.3,-47.9L50.9,-49.1L50.3,-49.5L50.3,-49.9L51.3,-49.8L51.3,-50.8L52.2,-51.1L53.0,-50.9L53.2,-52.3L53.0,-53.2L52.0,-53.1L51.2,-53.5L50.0,-52.8L49.1,-52.5L48.6,-52.7L48.7,-53.5L48.1,-54.5L47.3,-54.4L46.5,-55.5L47.0,-56.6L46.8,-56.9L47.5,-58.6L48.6,-57.7L48.7,-58.9L50.8,-60.6L52.3,-60.6L54.5,-59.5L55.7,-58.9L56.8,-59.5L58.4,-59.6L59.6,-58.8L59.9,-59.2L61.3,-59.2L61.6,-59.9L60.0,-61.0L60.9,-61.8L60.7,-62.3L61.7,-62.7L61.0,-63.8L61.4,-64.4L65.2,-65.0L65.7,-65.4L68.2,-66.1L69.1,-66.8L70.9,-66.4L71.2,-64.6L72.2,-65.1L73.5,-64.5L73.4,-63.5L74.4,-63.6L76.9,-65.3L76.5,-64.7L77.8,-63.4L80.0,-59.3L80.6,-60.1L81.9,-59.2L83.4,-59.6L83.9,-59.3L84.4,-58.4L85.1,-58.1L85.5,-57.4L86.8,-57.6L87.4,-56.7Z" fill="#1e1e2e" stroke="#2a2a3a" stroke-width="0.3"/>
  <path d="M56.0,-45.4L55.9,-50.5L58.5,-51.3L58.7,-51.2L60.2,-50.2L61.1,-49.7L62.0,-48.4L63.2,-48.6L64.9,-48.7L66.1,-47.7L66.0,-46.4L66.5,-46.3L66.7,-45.3L68.0,-45.2L68.3,-44.6L68.6,-44.6L69.1,-45.5L70.4,-46.5L71.0,-46.7L71.3,-46.6L70.4,-45.7L71.2,-45.2L71.9,-45.5L73.1,-44.8L71.8,-43.9L71.0,-44.0L70.6,-44.0L70.5,-44.4L70.7,-45.0L69.3,-44.7L69.0,-43.8L68.5,-43.1L67.7,-43.2L67.4,-42.6L68.2,-42.3L68.4,-41.3L67.8,-40.1L67.1,-40.3L66.5,-40.3L66.5,-41.1L65.2,-41.7L64.2,-42.3L63.5,-42.9L62.4,-43.8L61.9,-45.1L61.5,-45.4L60.5,-45.3L60.1,-45.6L60.0,-46.7L58.6,-47.4L57.8,-46.6L56.9,-46.1L57.1,-45.5L56.0,-45.4Z" fill="#1e1e2e" stroke="#2a2a3a" stroke-width="0.3"/>
  <path d="M178.7,-102.7L180.0,-104.0L180.0,-101.9L178.9,-101.8L178.7,-102.7ZM49.1,-52.5L48.6,-51.6L47.7,-51.4L46.7,-49.9L47.6,-48.6L47.5,-47.7L48.6,-46.1L48.6,-46.1L48.0,-45.6L47.8,-45.2L47.4,-45.3L46.7,-46.1L46.4,-46.2L45.8,-46.5L45.5,-47.0L44.5,-47.3L43.9,-47.1L43.8,-47.4L42.4,-48.0L40.9,-48.2L40.1,-48.5L40.0,-48.3L38.7,-49.5L37.5,-50.0L36.7,-50.8L37.4,-51.1L38.2,-52.3L37.7,-52.8L39.1,-53.4L39.1,-53.8L38.2,-53.5L38.3,-54.2L38.8,-54.6L39.7,-54.7L39.9,-55.2L39.7,-56.0L40.1,-56.8L40.1,-57.3L38.6,-57.8L38.0,-57.8L37.4,-58.5L36.6,-58.3L35.4,-58.8L35.4,-59.1L35.0,-59.8L34.2,-59.9L34.1,-60.4L34.4,-60.7L33.8,-61.6L32.7,-61.5L32.4,-61.6L32.2,-61.2L31.8,-61.3L31.8,-61.3L31.5,-62.3L31.3,-62.9L31.5,-63.0L32.3,-63.0L32.7,-63.3L32.4,-63.8L31.7,-64.1L31.8,-64.4L31.4,-64.7L30.8,-65.8L31.0,-66.3L30.9,-67.1L29.9,-67.5L29.4,-67.3L29.2,-67.8L28.2,-68.2L27.9,-69.3L27.8,-70.2L27.3,-70.6L27.7,-71.2L27.4,-73.0L28.1,-74.1L28.0,-74.4L28.0,-74.4L29.1,-75.5L28.1,-76.5L28.1,-76.5L30.2,-79.1L31.1,-80.3L31.5,-81.5L30.0,-83.0L30.4,-84.5L29.5,-86.2L30.2,-88.3L29.1,-91.1L30.0,-93.0L28.4,-94.8L28.6,-96.8L29.4,-97.0L31.1,-98.2L31.1,-98.2L32.1,-99.2L33.8,-97.4L36.5,-96.8L40.3,-93.7L41.1,-92.4L41.1,-90.7L40.0,-89.4L38.4,-88.7L33.9,-90.6L33.2,-90.3L34.8,-88.5L34.9,-87.4L34.9,-84.9L36.2,-84.2L37.0,-83.6L37.1,-84.8L36.5,-85.8L37.2,-86.7L39.6,-85.2L40.4,-85.8L39.8,-87.5L42.1,-89.9L43.0,-89.8L43.9,-88.9L44.5,-90.6L43.7,-92.1L44.2,-93.7L43.5,-95.4L46.3,-94.5L46.8,-93.0L45.6,-92.7L45.6,-91.3L46.3,-90.4L47.9,-90.9L48.1,-92.6L50.2,-93.8L53.7,-96.2L54.5,-96.0L53.5,-94.4L54.7,-94.1L55.4,-95.0L57.3,-95.1L58.8,-96.2L59.9,-94.6L61.1,-96.4L60.0,-98.0L60.5,-99.0L63.5,-98.1L64.9,-97.2L68.5,-94.1L69.2,-95.5L68.2,-97.0L68.1,-97.6L66.9,-97.9L67.3,-99.2L66.7,-101.5L66.7,-102.5L68.5,-105.4L69.2,-108.4L69.9,-109.0L72.6,-108.1L72.8,-106.3L71.8,-103.7L72.5,-102.7L72.8,-100.6L72.6,-96.6L73.7,-94.9L73.2,-93.2L71.3,-89.5L72.4,-89.2L72.8,-90.0L73.9,-90.7L74.2,-92.0L75.1,-93.2L74.5,-94.7L74.9,-96.5L73.8,-96.8L73.6,-98.4L74.4,-101.3L73.1,-103.8L74.9,-106.0L74.7,-108.3L75.2,-108.4L75.7,-106.6L75.3,-103.5L76.4,-102.9L75.9,-105.2L77.6,-106.5L79.7,-106.6L81.5,-104.8L80.6,-107.5L80.5,-111.2L82.3,-111.9L84.7,-111.7L86.8,-112.2L86.0,-114.1L87.2,-116.6L88.3,-116.7L90.3,-118.7L92.9,-119.2L93.2,-120.4L95.9,-120.7L96.7,-119.8L98.9,-122.0L100.8,-122.0L101.0,-123.8L102.0,-125.7L104.4,-127.6L106.1,-126.1L104.7,-125.0L107.0,-124.3L107.2,-122.2L108.2,-123.2L111.1,-123.2L113.3,-121.1L114.1,-119.5L113.9,-117.5L112.8,-116.3L110.2,-114.2L109.4,-113.1L110.6,-112.6L112.1,-111.7L113.0,-112.3L113.5,-110.1L114.0,-111.0L115.6,-111.5L118.8,-111.0L119.0,-109.3L123.2,-108.8L123.3,-111.5L125.4,-110.9L127.0,-110.9L128.6,-109.0L129.1,-106.9L128.5,-105.5L129.7,-103.0L131.3,-101.8L132.3,-105.1L133.9,-103.6L135.6,-104.5L137.5,-103.5L138.2,-104.4L139.9,-103.9L139.1,-106.9L140.5,-108.4L149.5,-106.2L150.4,-104.3L153.0,-101.9L157.0,-102.5L159.0,-102.0L159.8,-100.8L159.7,-98.6L160.9,-97.8L162.3,-98.4L164.1,-98.5L165.9,-97.9L167.8,-98.2L169.6,-95.7L170.8,-96.6L170.0,-98.4L170.5,-99.7L173.6,-98.9L175.7,-99.1L178.6,-97.7L180.0,-96.5L180.0,-86.3L180.0,-86.3L178.7,-85.2L177.4,-85.4L178.3,-84.2L178.9,-82.3L179.4,-81.7L179.5,-80.8L179.2,-80.2L177.4,-80.7L174.6,-79.1L173.7,-78.8L172.2,-77.4L170.7,-76.1L170.3,-75.2L168.9,-76.6L166.3,-75.0L165.8,-75.8L164.9,-74.9L163.5,-75.2L163.2,-73.9L162.0,-72.0L162.1,-71.3L163.2,-70.8L163.1,-68.2L162.1,-68.1L161.7,-66.6L162.1,-65.9L160.4,-65.0L160.0,-63.1L158.5,-62.7L158.2,-61.0L156.8,-59.5L156.4,-60.6L156.0,-63.0L155.4,-66.8L155.9,-69.3L156.8,-70.4L156.8,-71.3L158.4,-71.7L160.2,-74.1L161.9,-76.1L163.7,-77.8L164.5,-80.8L163.3,-80.6L162.7,-78.8L160.1,-76.6L159.3,-79.1L156.7,-78.4L154.2,-75.0L155.0,-73.8L152.8,-73.3L151.3,-73.1L151.3,-74.5L149.8,-74.8L148.5,-73.8L145.5,-74.1L142.2,-73.6L139.0,-69.9L135.1,-65.7L136.7,-65.4L137.2,-64.4L138.2,-64.0L138.8,-64.8L139.9,-64.7L141.3,-62.9L141.4,-61.5L140.6,-59.9L140.5,-58.0L140.1,-55.5L138.6,-53.4L138.2,-52.4L136.9,-50.7L135.5,-49.1L134.9,-48.3L133.5,-47.5L132.9,-47.4L132.3,-48.1L130.9,-47.1L130.8,-46.7L130.8,-46.7L130.8,-46.7L130.8,-46.7L130.6,-46.9L130.6,-46.9L130.6,-47.6L131.1,-47.6L131.3,-49.3L131.0,-50.5L131.9,-51.0L133.1,-50.7L133.8,-52.1L134.1,-53.7L134.5,-54.2L135.0,-55.6L133.4,-55.1L132.5,-54.5L131.0,-54.5L130.6,-56.0L129.4,-57.0L127.7,-57.5L127.3,-59.1L126.9,-60.0L126.6,-60.7L125.9,-62.4L125.1,-63.0L123.6,-63.5L122.2,-63.5L121.0,-63.1L120.2,-62.3L120.7,-61.9L120.7,-61.0L120.2,-60.5L119.3,-58.8L119.3,-58.1L117.9,-57.2L116.7,-57.7L115.5,-57.6L115.0,-58.1L114.4,-58.3L112.9,-57.2L111.6,-56.9L110.7,-56.6L109.4,-56.8L108.5,-56.8L107.9,-57.6L106.9,-58.3L105.9,-58.5L104.6,-58.3L103.7,-58.0L102.3,-58.7L102.1,-59.9L100.9,-60.3L100.0,-60.5L98.9,-61.2L97.8,-59.5L98.2,-58.6L97.3,-57.5L95.8,-57.9L94.8,-57.9L94.1,-58.7L93.1,-58.7L92.2,-59.2L90.7,-58.4L88.8,-57.1L87.8,-56.8L87.4,-56.7L86.8,-57.6L85.5,-57.4L85.1,-58.1L84.4,-58.4L83.9,-59.3L83.4,-59.6L81.9,-59.2L80.6,-60.1L80.0,-59.3L77.8,-63.4L76.5,-64.7L76.9,-65.3L74.4,-63.6L73.4,-63.5L73.5,-64.5L72.2,-65.1L71.2,-64.6L70.9,-66.4L69.1,-66.8L68.2,-66.1L65.7,-65.4L65.2,-65.0L61.4,-64.4L61.0,-63.8L61.7,-62.7L60.7,-62.3L60.9,-61.8L60.0,-61.0L61.6,-59.9L61.3,-59.2L59.9,-59.2L59.6,-58.8L58.4,-59.6L56.8,-59.5L55.7,-58.9L54.5,-59.5L52.3,-60.6L50.8,-60.6L48.7,-58.9L48.6,-57.7L47.5,-58.6L46.8,-56.9L47.0,-56.6L46.5,-55.5L47.3,-54.4L48.1,-54.5L48.7,-53.5L48.6,-52.7L49.1,-52.5ZM93.8,-145.8L95.9,-147.3L97.9,-144.1L100.2,-138.3L99.9,-133.5L97.8,-132.8L95.0,-134.3L93.3,-136.4L92.5,-140.4L91.2,-141.6L93.8,-145.8ZM102.8,-135.6L105.4,-132.6L105.1,-130.6L99.4,-128.7L101.3,-135.3L102.1,-135.9L102.8,-135.6ZM138.8,-120.7L141.5,-120.6L145.1,-118.4L144.3,-115.5L140.6,-115.6L139.0,-114.7L137.0,-117.2L137.5,-120.0L138.8,-120.7ZM148.2,-117.5L150.7,-116.5L149.6,-115.0L148.0,-115.3L146.1,-116.8L146.4,-118.1L148.2,-117.5ZM139.9,-110.2L140.8,-111.6L142.1,-111.9L143.5,-110.6L143.6,-109.6L142.1,-109.6L140.0,-110.0L139.9,-110.2ZM44.8,-143.1L46.8,-144.2L48.3,-144.3L48.5,-142.6L49.1,-144.1L50.0,-145.1L51.5,-143.8L51.1,-142.8L49.8,-142.0L48.9,-141.6L48.8,-140.6L47.6,-139.6L46.5,-141.0L47.1,-142.9L44.8,-143.1ZM22.7,-65.0L20.9,-64.9L19.7,-65.1L19.9,-65.9L21.3,-66.5L22.3,-66.2L22.8,-65.9L22.7,-65.4L22.7,-65.0ZM53.5,-111.5L55.9,-114.8L55.6,-116.5L57.9,-118.6L61.2,-121.2L64.5,-122.0L66.2,-123.6L68.2,-124.2L68.9,-122.5L68.2,-121.1L64.6,-119.1L61.6,-117.2L58.5,-113.6L57.0,-110.1L55.4,-106.8L55.6,-104.1L57.5,-101.6L56.9,-101.3L53.7,-101.7L53.4,-103.1L51.6,-103.9L51.5,-105.6L52.5,-106.3L52.4,-108.1L54.4,-111.1L53.5,-111.5ZM142.9,-63.9L143.3,-62.3L143.2,-60.7L143.6,-59.1L144.7,-56.3L143.2,-56.8L142.6,-54.7L143.5,-53.1L143.5,-52.1L142.7,-53.0L142.1,-51.9L141.9,-53.1L142.0,-54.5L141.9,-56.2L142.1,-57.3L142.2,-59.4L141.6,-61.0L141.7,-63.2L142.6,-64.0L142.2,-64.8L142.7,-65.0L142.9,-63.9ZM-174.9,-91.8L-175.0,-90.2L-174.3,-89.6L-174.6,-91.4L-171.9,-91.0L-169.9,-88.7L-170.9,-87.6L-172.5,-87.4L-172.6,-85.1L-173.0,-84.6L-173.9,-84.6L-174.7,-85.4L-176.0,-86.1L-176.2,-87.2L-177.2,-87.6L-178.4,-87.2L-178.9,-88.1L-178.7,-89.0L-179.9,-88.4L-179.4,-87.3L-180.0,-86.3L-180.0,-96.5L-177.6,-94.4L-174.9,-91.8ZM-178.7,-102.1L-180.0,-101.9L-180.0,-104.0L-179.9,-104.2L-179.0,-104.2L-177.6,-103.3L-177.7,-102.8L-178.7,-102.1ZM33.4,-51.9L33.7,-52.2L34.4,-51.9L34.7,-51.9L34.9,-51.6L35.0,-51.5L35.0,-51.4L35.5,-51.1L36.5,-51.2L36.3,-50.7L35.2,-50.4L33.9,-49.6L33.3,-49.9L33.5,-50.5L32.5,-51.0L32.6,-51.2L33.6,-51.7L33.4,-51.9Z" fill="#1e1e2e" stroke="#2a2a3a" stroke-width="0.3"/>
  <path d="M51.6,-25.0L51.8,-25.1L51.8,-24.8L52.6,-24.9L53.4,-24.9L54.0,-24.9L54.7,-25.6L55.4,-26.3L56.1,-27.0L56.3,-26.6L56.4,-25.8L55.9,-25.7L55.8,-25.0L56.0,-24.9L55.5,-24.7L55.5,-24.2L55.2,-23.8L55.2,-23.3L55.0,-23.1L52.0,-23.6L51.6,-24.7L51.6,-25.0Z" fill="#1e1e2e" stroke="#2a2a3a" stroke-width="0.3"/>
  <path d="M50.8,-25.6L50.7,-26.4L51.0,-26.9L51.3,-27.1L51.6,-26.7L51.6,-26.1L51.4,-25.4L51.1,-25.3L50.8,-25.6Z" fill="#1e1e2e" stroke="#2a2a3a" stroke-width="0.3"/>
  <path d="M48.0,-31.4L48.2,-30.9L48.1,-30.7L48.4,-29.8L47.7,-29.8L47.5,-30.3L46.6,-30.4L47.3,-31.5L48.0,-31.4Z" fill="#1e1e2e" stroke="#2a2a3a" stroke-width="0.3"/>
  <path d="M39.2,-34.0L38.8,-35.4L41.0,-36.7L41.4,-38.2L41.3,-39.1L41.8,-39.4L42.3,-40.2L42.8,-40.4L43.9,-40.2L44.3,-39.9L44.8,-40.1L45.4,-38.6L46.1,-38.2L46.2,-37.5L45.6,-37.1L45.4,-36.2L46.1,-35.0L47.3,-34.4L47.8,-33.5L47.7,-32.6L48.0,-32.6L48.0,-32.0L48.6,-31.4L48.0,-31.4L47.3,-31.5L46.6,-30.4L44.7,-30.5L41.9,-32.9L40.4,-33.7L39.2,-34.0Z" fill="#1e1e2e" stroke="#2a2a3a" stroke-width="0.3"/>
  <path d="M55.2,-23.3L55.2,-23.8L55.5,-24.2L55.5,-24.7L56.0,-24.9L55.8,-25.0L55.9,-25.7L56.4,-25.8L56.8,-25.0L57.4,-24.6L58.1,-24.5L58.7,-24.3L59.2,-23.6L59.5,-23.3L59.8,-23.1L59.8,-22.9L59.4,-22.3L59.3,-22.0L58.9,-21.6L58.5,-20.9L58.0,-20.9L57.8,-20.7L57.7,-20.1L57.8,-19.4L57.7,-19.3L57.2,-19.3L56.6,-18.9L56.5,-18.4L56.3,-18.2L55.7,-18.2L55.3,-17.9L55.3,-17.5L54.8,-17.2L54.2,-17.3L53.6,-16.9L53.1,-16.9L52.8,-17.6L52.0,-19.4L55.0,-20.4L55.7,-22.6L55.2,-23.3ZM56.3,-26.6L56.1,-27.0L56.4,-27.4L56.5,-27.3L56.4,-26.8L56.3,-26.6Z" fill="#1e1e2e" stroke="#2a2a3a" stroke-width="0.3"/>
  <path d="M87.8,-56.8L88.8,-57.1L90.7,-58.4L92.2,-59.2L93.1,-58.7L94.1,-58.7L94.8,-57.9L95.8,-57.9L97.3,-57.5L98.2,-58.6L97.8,-59.5L98.9,-61.2L100.0,-60.5L100.9,-60.3L102.1,-59.9L102.3,-58.7L103.7,-58.0L104.6,-58.3L105.9,-58.5L106.9,-58.3L107.9,-57.6L108.5,-56.8L109.4,-56.8L110.7,-56.6L111.6,-56.9L112.9,-57.2L114.4,-58.3L115.0,-58.1L115.5,-57.6L116.7,-57.7L116.2,-56.6L115.5,-55.1L115.7,-54.5L116.3,-54.6L117.3,-54.4L118.1,-55.0L118.9,-54.5L119.8,-53.4L119.7,-52.9L118.9,-53.1L117.4,-52.9L116.7,-52.5L116.0,-51.5L114.5,-51.0L113.5,-50.2L112.4,-50.5L111.9,-50.6L111.3,-49.7L111.7,-49.2L111.8,-48.7L111.1,-48.3L110.4,-47.5L109.2,-47.1L107.7,-47.0L106.1,-46.5L105.0,-45.8L104.5,-46.2L103.3,-46.2L101.8,-47.1L100.8,-47.3L99.5,-47.1L97.5,-47.4L96.3,-47.3L95.8,-48.2L95.3,-49.4L94.7,-49.6L93.5,-50.5L92.1,-50.7L90.9,-50.9L90.6,-51.5L91.0,-53.2L90.3,-54.4L88.9,-55.0L88.0,-55.8L87.8,-56.8Z" fill="#1e1e2e" stroke="#2a2a3a" stroke-width="0.3"/>
  <path d="M97.3,-29.5L97.4,-29.1L97.1,-28.8L97.1,-28.2L96.4,-28.4L95.1,-27.6L95.2,-26.9L94.6,-26.0L94.6,-25.5L94.1,-24.6L93.3,-24.8L93.3,-23.7L93.1,-23.3L93.2,-22.9L92.7,-22.6L92.1,-24.3L91.9,-24.3L91.7,-23.6L91.2,-24.2L91.5,-24.8L91.9,-24.9L92.4,-25.8L91.8,-26.0L90.9,-26.0L89.9,-26.1L89.8,-26.9L89.4,-27.0L88.6,-27.4L88.2,-26.7L88.9,-26.1L88.3,-25.7L88.1,-25.3L88.7,-25.0L88.5,-24.3L88.9,-23.5L89.0,-22.6L88.9,-22.2L88.2,-22.2L87.0,-22.0L87.0,-21.2L86.5,-20.6L85.1,-19.9L83.9,-18.6L83.2,-18.0L82.2,-17.3L82.2,-16.8L81.7,-16.5L80.8,-16.2L80.3,-16.1L80.0,-15.3L80.2,-14.0L80.3,-13.1L79.9,-12.1L79.9,-10.4L79.3,-10.4L78.9,-9.6L79.2,-9.3L78.3,-9.0L77.9,-8.3L77.5,-8.0L76.6,-8.9L76.1,-10.4L75.7,-11.4L75.4,-11.9L74.9,-12.8L74.6,-14.1L74.4,-14.8L73.5,-16.2L73.1,-18.2L72.8,-19.6L72.8,-20.9L72.6,-21.9L71.2,-21.2L70.5,-21.4L69.2,-22.7L69.6,-23.0L69.3,-23.5L68.2,-24.4L68.8,-25.1L71.0,-25.1L70.8,-26.1L70.3,-26.6L70.2,-27.5L69.5,-28.0L70.6,-29.2L71.8,-29.1L72.8,-30.3L73.5,-31.4L74.4,-32.6L74.4,-33.4L75.3,-34.1L74.5,-34.7L74.1,-35.5L73.7,-36.6L74.2,-37.1L75.8,-36.8L76.9,-37.0L77.8,-38.0L78.9,-36.6L78.8,-35.6L79.2,-35.0L79.2,-34.4L78.5,-34.5L78.7,-33.2L79.7,-32.5L81.1,-31.7L80.5,-31.2L80.1,-30.1L81.1,-29.7L82.0,-29.1L83.3,-28.5L84.7,-28.3L85.3,-27.8L86.0,-27.6L87.2,-27.4L88.1,-27.4L88.2,-27.8L88.0,-28.6L88.1,-29.0L88.7,-29.3L88.8,-28.4L88.8,-28.2L89.7,-27.7L90.4,-27.9L91.2,-27.8L92.0,-27.9L92.1,-28.6L91.7,-28.9L92.5,-29.1L93.4,-29.9L94.6,-30.6L95.4,-30.4L96.1,-30.8L96.6,-30.1L96.2,-29.7L97.3,-29.5Z" fill="#1e1e2e" stroke="#2a2a3a" stroke-width="0.3"/>
  <path d="M92.7,-22.6L92.7,-21.8L92.3,-22.0L92.4,-21.1L92.1,-21.7L92.0,-22.2L91.8,-22.8L91.4,-23.4L90.5,-23.4L90.6,-23.0L90.3,-22.4L89.8,-22.6L89.7,-22.4L89.4,-22.5L89.0,-22.6L88.9,-23.5L88.5,-24.3L88.7,-25.0L88.1,-25.3L88.3,-25.7L88.9,-26.1L88.2,-26.7L88.6,-27.4L89.4,-27.0L89.8,-26.9L89.9,-26.1L90.9,-26.0L91.8,-26.0L92.4,-25.8L91.9,-24.9L91.5,-24.8L91.2,-24.2L91.7,-23.6L91.9,-24.3L92.1,-24.3L92.7,-22.6Z" fill="#1e1e2e" stroke="#2a2a3a" stroke-width="0.3"/>
  <path d="M91.7,-28.9L92.1,-28.6L92.0,-27.9L91.2,-27.8L90.4,-27.9L89.7,-27.7L88.8,-28.2L88.8,-28.4L89.5,-29.2L90.0,-29.5L90.7,-29.3L91.3,-29.2L91.7,-28.9Z" fill="#1e1e2e" stroke="#2a2a3a" stroke-width="0.3"/>
  <path d="M88.1,-29.0L88.0,-28.6L88.2,-27.8L88.1,-27.4L87.2,-27.4L86.0,-27.6L85.3,-27.8L84.7,-28.3L83.3,-28.5L82.0,-29.1L81.1,-29.7L80.1,-30.1L80.5,-31.2L81.1,-31.7L81.5,-32.0L82.3,-31.6L83.3,-30.9L83.9,-30.7L84.2,-30.1L85.0,-29.9L85.8,-29.4L87.0,-29.2L88.1,-29.0Z" fill="#1e1e2e" stroke="#2a2a3a" stroke-width="0.3"/>
  <path d="M77.8,-38.0L76.9,-37.0L75.8,-36.8L74.2,-37.1L73.7,-36.6L74.1,-35.5L74.5,-34.7L75.3,-34.1L74.4,-33.4L74.4,-32.6L73.5,-31.4L72.8,-30.3L71.8,-29.1L70.6,-29.2L69.5,-28.0L70.2,-27.5L70.3,-26.6L70.8,-26.1L71.0,-25.1L68.8,-25.1L68.2,-24.4L67.4,-24.7L67.1,-25.5L66.4,-26.3L64.5,-26.1L62.9,-26.1L61.5,-25.9L61.9,-27.2L63.3,-27.8L63.2,-28.3L62.8,-28.5L62.7,-29.5L61.8,-30.0L61.4,-30.7L60.9,-31.3L62.5,-30.7L63.6,-30.9L64.1,-30.7L64.4,-31.0L65.0,-30.9L66.3,-31.3L66.4,-32.3L66.9,-33.0L67.7,-33.0L67.8,-33.3L68.6,-33.5L68.9,-33.4L69.3,-33.7L69.3,-34.4L69.7,-35.1L70.3,-35.4L69.9,-36.2L70.9,-36.2L71.2,-36.6L71.1,-37.1L71.6,-37.6L71.5,-38.2L71.3,-38.7L71.8,-39.3L72.9,-39.5L74.1,-39.7L74.6,-39.9L75.2,-40.0L75.9,-39.5L76.2,-38.5L77.8,-38.0Z" fill="#1e1e2e" stroke="#2a2a3a" stroke-width="0.3"/>
  <path d="M67.8,-40.1L68.4,-41.3L68.2,-42.3L67.4,-42.6L67.7,-43.2L68.5,-43.1L69.0,-43.8L69.3,-44.7L70.7,-45.0L70.5,-44.4L70.6,-44.0L71.0,-44.0L70.6,-43.6L69.6,-43.8L69.5,-43.1L70.5,-43.2L71.8,-42.8L73.7,-43.0L73.9,-41.8L74.3,-41.9L74.9,-41.6L74.8,-41.1L75.0,-40.4L73.9,-40.4L73.3,-40.5L72.6,-39.9L72.2,-39.8L71.8,-39.5L71.4,-40.0L71.5,-41.0L71.2,-41.1L71.3,-41.5L70.8,-41.8L70.4,-41.3L70.3,-40.8L70.1,-40.6L69.5,-40.6L69.2,-40.1L68.9,-40.3L68.1,-39.9L67.8,-40.1Z" fill="#1e1e2e" stroke="#2a2a3a" stroke-width="0.3"/>
  <path d="M71.0,-46.7L71.2,-47.3L71.8,-47.5L73.5,-47.0L73.6,-47.8L74.2,-48.1L75.6,-47.6L76.0,-47.7L77.7,-47.7L79.1,-47.5L79.6,-47.0L80.3,-46.8L80.1,-46.5L78.5,-45.8L78.2,-45.3L76.9,-45.1L76.5,-44.3L75.5,-44.4L74.8,-44.2L73.8,-43.6L74.0,-43.3L73.7,-43.0L71.8,-42.8L70.5,-43.2L69.5,-43.1L69.6,-43.8L70.6,-43.6L71.0,-44.0L71.8,-43.9L73.1,-44.8L71.9,-45.5L71.2,-45.2L70.4,-45.7L71.3,-46.6L71.0,-46.7Z" fill="#1e1e2e" stroke="#2a2a3a" stroke-width="0.3"/>
  <path d="M52.5,-46.1L52.9,-46.5L54.1,-46.8L54.8,-46.4L55.5,-45.4L56.0,-45.4L57.1,-45.5L56.9,-46.1L57.8,-46.6L58.6,-47.4L60.0,-46.7L60.1,-45.6L60.5,-45.3L61.5,-45.4L61.9,-45.1L62.4,-43.8L63.5,-42.9L64.2,-42.3L65.2,-41.7L66.5,-41.1L66.5,-40.3L66.2,-40.4L65.7,-40.7L65.6,-40.3L64.7,-40.0L64.5,-39.0L64.0,-38.6L63.2,-38.5L63.0,-37.9L62.2,-37.7L61.2,-38.2L61.1,-39.2L60.4,-39.3L59.2,-40.4L58.4,-40.5L57.3,-41.2L56.6,-41.3L56.2,-41.1L55.5,-41.1L54.8,-40.4L53.9,-40.1L53.7,-41.0L53.9,-42.4L53.1,-42.8L53.4,-43.7L52.7,-43.8L52.9,-44.9L53.9,-44.5L54.7,-45.0L54.0,-45.8L53.7,-46.5L52.9,-46.2L52.8,-45.2L52.5,-46.1Z" fill="#1e1e2e" stroke="#2a2a3a" stroke-width="0.3"/>
  <path d="M48.6,-31.4L48.0,-32.0L48.0,-32.6L47.7,-32.6L47.8,-33.5L47.3,-34.4L46.1,-35.0L45.4,-36.2L45.6,-37.1L46.2,-37.5L46.1,-38.2L45.4,-38.6L44.8,-40.1L44.8,-40.1L44.2,-41.1L44.4,-41.5L44.1,-43.0L44.8,-43.3L45.0,-42.8L45.5,-42.3L46.1,-42.1L46.5,-42.1L47.7,-43.1L48.1,-43.2L48.4,-42.8L48.0,-42.2L48.6,-41.5L48.9,-41.5L49.2,-40.6L50.1,-40.3L50.8,-39.7L52.3,-39.5L53.8,-39.8L53.9,-40.1L54.8,-40.4L55.5,-41.1L56.2,-41.1L56.6,-41.3L57.3,-41.2L58.4,-40.5L59.2,-40.4L60.4,-39.3L61.1,-39.2L61.2,-38.2L60.8,-36.7L60.5,-35.8L61.0,-35.6L60.5,-35.0L60.9,-34.0L60.9,-33.3L61.7,-33.1L61.8,-32.3L60.9,-31.3L61.4,-30.7L61.8,-30.0L62.7,-29.5L62.8,-28.5L63.2,-28.3L63.3,-27.8L61.9,-27.2L61.5,-25.9L59.6,-26.3L58.5,-26.5L57.4,-26.7L57.0,-28.0L56.5,-28.2L55.7,-28.0L54.7,-27.5L53.5,-27.8L52.5,-28.7L51.5,-29.0L50.9,-30.1L50.1,-31.6L49.6,-31.5L48.9,-31.8L48.6,-31.4Z" fill="#1e1e2e" stroke="#2a2a3a" stroke-width="0.3"/>
  <path d="M46.5,-42.1L46.1,-42.1L45.7,-42.8L45.7,-43.0L45.3,-43.0L45.0,-43.4L44.8,-43.3L44.4,-43.7L43.7,-44.0L43.8,-44.7L43.6,-45.1L45.0,-45.4L45.2,-45.0L45.6,-44.8L45.4,-44.4L45.9,-44.0L45.6,-43.6L46.0,-43.2L46.5,-43.0L46.5,-42.1Z" fill="#1e1e2e" stroke="#2a2a3a" stroke-width="0.3"/>
  <path d="M109.5,-18.5L108.7,-18.8L108.6,-19.7L109.1,-20.2L110.2,-20.5L110.8,-20.5L111.0,-20.1L110.6,-19.6L110.3,-19.0L109.5,-18.5ZM80.3,-46.8L80.2,-47.6L80.9,-48.0L80.0,-50.4L81.9,-50.9L82.5,-51.3L83.2,-53.9L85.2,-53.4L85.7,-54.0L85.8,-55.5L86.6,-55.7L87.4,-56.7L87.8,-56.8L88.0,-55.8L88.9,-55.0L90.3,-54.4L91.0,-53.2L90.6,-51.5L90.9,-50.9L92.1,-50.7L93.5,-50.5L94.7,-49.6L95.3,-49.4L95.8,-48.2L96.3,-47.3L97.5,-47.4L99.5,-47.1L100.8,-47.3L101.8,-47.1L103.3,-46.2L104.5,-46.2L105.0,-45.8L106.1,-46.5L107.7,-47.0L109.2,-47.1L110.4,-47.5L111.1,-48.3L111.8,-48.7L111.7,-49.2L111.3,-49.7L111.9,-50.6L112.4,-50.5L113.5,-50.2L114.5,-51.0L116.0,-51.5L116.7,-52.5L117.4,-52.9L118.9,-53.1L119.7,-52.9L119.8,-53.4L118.9,-54.5L118.1,-55.0L117.3,-54.4L116.3,-54.6L115.7,-54.5L115.5,-55.1L116.2,-56.6L116.7,-57.7L117.9,-57.2L119.3,-58.1L119.3,-58.8L120.2,-60.5L120.7,-61.0L120.7,-61.9L120.2,-62.3L121.0,-63.1L122.2,-63.5L123.6,-63.5L125.1,-63.0L125.9,-62.4L126.6,-60.7L126.9,-60.0L127.3,-59.1L127.7,-57.5L129.4,-57.0L130.6,-56.0L131.0,-54.5L132.5,-54.5L133.4,-55.1L135.0,-55.6L134.5,-54.2L134.1,-53.7L133.8,-52.1L133.1,-50.7L131.9,-51.0L131.0,-50.5L131.3,-49.3L131.1,-47.6L130.6,-47.6L130.6,-46.9L130.0,-47.7L129.6,-46.9L128.1,-46.4L128.2,-45.6L127.3,-45.7L126.9,-46.1L126.2,-45.2L125.1,-44.5L124.3,-43.6L122.9,-43.2L122.1,-42.6L121.1,-42.3L121.6,-42.9L121.4,-43.4L122.2,-44.3L121.6,-45.0L120.8,-44.5L119.6,-43.6L119.0,-42.7L118.0,-42.7L117.5,-42.1L118.1,-41.2L118.9,-41.0L118.9,-40.4L119.7,-40.1L120.8,-41.0L121.7,-40.5L122.4,-40.4L122.5,-39.8L121.1,-39.4L120.6,-38.8L119.7,-38.2L119.2,-37.3L120.2,-36.6L120.6,-35.4L121.2,-34.4L121.9,-33.4L121.9,-32.6L121.3,-32.3L121.5,-31.6L122.1,-31.3L121.9,-30.3L121.7,-29.4L121.1,-29.3L120.4,-28.1L119.6,-26.7L118.7,-25.3L117.3,-24.3L115.9,-23.4L114.8,-23.3L114.2,-22.8L113.8,-23.2L113.2,-22.6L111.8,-22.1L110.8,-21.9L110.4,-20.8L109.9,-20.7L109.6,-21.5L109.9,-21.9L108.5,-22.3L108.1,-22.1L107.0,-22.4L106.6,-22.8L106.7,-23.4L105.8,-23.6L105.3,-24.0L104.5,-23.4L103.5,-23.3L102.7,-23.3L102.2,-23.1L101.7,-22.9L101.8,-21.7L101.3,-21.7L101.2,-22.0L101.2,-22.4L100.4,-22.1L100.0,-22.3L99.2,-22.7L99.5,-23.6L98.9,-23.8L98.7,-24.8L97.6,-24.6L97.7,-25.9L98.7,-26.9L98.7,-27.8L98.7,-28.6L98.2,-28.9L97.9,-29.6L97.3,-29.5L96.2,-29.7L96.6,-30.1L96.1,-30.8L95.4,-30.4L94.6,-30.6L93.4,-29.9L92.5,-29.1L91.7,-28.9L91.3,-29.2L90.7,-29.3L90.0,-29.5L89.5,-29.2L88.8,-28.4L88.7,-29.3L88.1,-29.0L87.0,-29.2L85.8,-29.4L85.0,-29.9L84.2,-30.1L83.9,-30.7L83.3,-30.9L82.3,-31.6L81.5,-32.0L81.1,-31.7L79.7,-32.5L78.7,-33.2L78.5,-34.5L79.2,-34.4L79.2,-35.0L78.8,-35.6L78.9,-36.6L77.8,-38.0L76.2,-38.5L75.9,-39.5L75.2,-40.0L75.0,-40.4L74.8,-41.1L74.9,-41.6L74.3,-41.9L73.9,-41.8L73.7,-43.0L74.0,-43.3L73.8,-43.6L74.8,-44.2L75.5,-44.4L76.5,-44.3L76.9,-45.1L78.2,-45.3L78.5,-45.8L80.1,-46.5L80.3,-46.8Z" fill="#1e1e2e" stroke="#2a2a3a" stroke-width="0.3"/>
  <path d="M46.4,-46.2L46.7,-46.1L47.4,-45.3L47.8,-45.2L48.0,-45.6L48.6,-46.1L49.1,-45.4L49.6,-44.5L50.1,-44.4L50.4,-44.0L49.6,-43.9L49.4,-42.9L49.2,-42.5L48.9,-42.2L48.9,-41.5L48.6,-41.5L48.0,-42.2L48.4,-42.8L48.1,-43.2L47.7,-43.1L46.5,-42.1L46.5,-43.0L46.0,-43.2L45.6,-43.6L45.9,-44.0L45.4,-44.4L45.6,-44.8L45.2,-45.0L45.0,-45.4L45.2,-45.6L46.0,-45.2L46.5,-45.1L46.6,-45.3L46.1,-46.0L46.4,-46.2ZM46.1,-42.1L45.5,-42.3L45.0,-42.8L44.8,-43.3L45.0,-43.4L45.3,-43.0L45.7,-43.0L45.7,-42.8L46.1,-42.1Z" fill="#1e1e2e" stroke="#2a2a3a" stroke-width="0.3"/>
  <path d="M40.0,-48.3L40.1,-48.5L40.9,-48.2L42.4,-48.0L43.8,-47.4L43.9,-47.1L44.5,-47.3L45.5,-47.0L45.8,-46.5L46.4,-46.2L46.1,-46.0L46.6,-45.3L46.5,-45.1L46.0,-45.2L45.2,-45.6L45.0,-45.4L43.6,-45.1L42.6,-45.8L41.6,-45.7L41.7,-46.3L41.5,-47.2L40.9,-47.7L40.3,-47.9L40.0,-48.3Z" fill="#1e1e2e" stroke="#2a2a3a" stroke-width="0.3"/>
  <path d="M52.0,-19.4L52.8,-17.6L53.1,-16.9L52.4,-16.6L52.2,-16.1L52.2,-15.8L51.2,-15.4L49.6,-14.9L48.7,-14.1L48.2,-14.1L47.9,-14.1L47.4,-13.7L46.7,-13.5L45.9,-13.5L45.6,-13.4L45.4,-13.1L45.1,-13.1L45.0,-12.8L44.5,-12.8L44.2,-12.7L43.5,-12.7L43.2,-13.3L43.3,-13.9L43.1,-14.2L42.9,-15.0L42.6,-15.4L42.8,-15.4L42.7,-15.9L42.8,-16.1L42.8,-16.6L43.2,-16.9L43.1,-17.3L43.4,-17.9L43.8,-17.6L44.1,-17.7L45.2,-17.7L45.4,-17.6L46.4,-17.5L46.7,-17.6L47.0,-17.2L47.5,-17.4L48.2,-18.5L49.1,-19.0L52.0,-19.4Z" fill="#1e1e2e" stroke="#2a2a3a" stroke-width="0.3"/>
  <path d="M35.0,-30.7L36.1,-30.5L36.5,-30.9L36.7,-31.3L37.5,-31.5L37.7,-31.9L38.0,-32.1L37.0,-33.2L39.0,-33.8L39.2,-34.0L40.4,-33.7L41.9,-32.9L44.7,-30.5L46.6,-30.4L47.5,-30.3L47.7,-29.8L48.4,-29.8L48.8,-28.8L49.3,-28.6L49.5,-28.2L50.2,-27.7L50.2,-27.2L50.1,-26.9L50.2,-26.5L50.5,-26.2L50.7,-25.8L50.8,-25.6L51.1,-25.3L51.4,-25.4L51.6,-25.0L51.6,-24.7L52.0,-23.6L55.0,-23.1L55.2,-23.3L55.7,-22.6L55.0,-20.4L52.0,-19.4L49.1,-19.0L48.2,-18.5L47.5,-17.4L47.0,-17.2L46.7,-17.6L46.4,-17.5L45.4,-17.6L45.2,-17.7L44.1,-17.7L43.8,-17.6L43.4,-17.9L43.1,-17.3L43.2,-16.9L42.8,-16.6L42.6,-17.0L42.3,-17.3L42.3,-17.8L41.8,-18.1L41.2,-19.0L40.9,-19.9L40.2,-20.6L39.8,-20.8L39.1,-21.8L39.0,-22.5L39.1,-23.2L38.5,-24.4L38.0,-24.8L37.5,-25.0L37.2,-25.7L37.2,-25.9L36.9,-26.5L36.6,-26.7L36.2,-27.6L35.6,-28.5L35.1,-29.3L34.6,-29.3L34.8,-29.9L34.8,-30.3L35.0,-30.7Z" fill="#1e1e2e" stroke="#2a2a3a" stroke-width="0.3"/>
  <path d="M66.5,-40.3L67.1,-40.3L67.8,-40.1L68.1,-39.9L68.9,-40.3L69.2,-40.1L69.5,-40.6L70.1,-40.6L70.3,-40.8L70.4,-41.3L70.8,-41.8L71.3,-41.5L71.2,-41.1L71.5,-41.0L71.4,-40.0L71.8,-39.5L72.2,-39.8L72.6,-39.9L73.3,-40.5L73.9,-40.4L75.0,-40.4L75.2,-40.0L74.6,-39.9L74.1,-39.7L72.9,-39.5L71.8,-39.3L71.3,-38.7L71.5,-38.2L71.6,-37.6L71.1,-37.1L71.2,-36.6L70.9,-36.2L69.9,-36.2L70.3,-35.4L69.7,-35.1L69.3,-34.4L69.3,-33.7L68.9,-33.4L68.6,-33.5L67.8,-33.3L67.7,-33.0L66.9,-33.0L66.4,-32.3L66.3,-31.3L65.0,-30.9L64.4,-31.0L64.1,-30.7L63.6,-30.9L62.5,-30.7L60.9,-31.3L61.8,-32.3L61.7,-33.1L60.9,-33.3L60.9,-34.0L60.5,-35.0L61.0,-35.6L60.5,-35.8L60.8,-36.7L61.2,-38.2L62.2,-37.7L63.0,-37.9L63.2,-38.5L64.0,-38.6L64.5,-39.0L64.7,-40.0L65.6,-40.3L65.7,-40.7L66.2,-40.4L66.5,-40.3Z" fill="#00e5ff" stroke="#00c4dd" stroke-width="0.4" fill-opacity="0.9"/>
</svg>