<svg xmlns="http://www.w3.org/2000/svg" viewBox="58.53 -40.49 18.63 13.17" width="300" height="300" preserveAspectRatio="xMidYMid meet">
  <path d="M66.52,-37.36L67.08,-37.36L67.83,-37.14L68.14,-37.02L68.86,-37.34L69.20,-37.15L69.52,-37.61L70.12,-37.59L70.27,-37.74L70.38,-38.14L70.81,-38.49L71.35,-38.26L71.24,-37.95L71.54,-37.91L71.45,-37.07L71.84,-36.74L72.19,-36.95L72.64,-37.05L73.26,-37.50L73.95,-37.42L74.98,-37.42L75.16,-37.13L74.58,-37.02L74.07,-36.84L72.92,-36.72L71.85,-36.51L71.26,-36.07L71.50,-35.65L71.61,-35.15L71.12,-34.73L71.16,-34.35L70.88,-33.99L69.93,-34.02L70.32,-33.36L69.69,-33.11L69.26,-32.50L69.32,-31.90L68.93,-31.62L68.56,-31.71L67.79,-31.58L67.68,-31.30L66.94,-31.30L66.38,-30.74L66.35,-29.89L65.05,-29.47L64.35,-29.56L64.15,-29.34L63.55,-29.47L62.55,-29.32L60.87,-29.83L61.78,-30.74L61.70,-31.38L60.94,-31.55L60.86,-32.18L60.54,-32.98L60.96,-33.53L60.53,-33.68L60.80,-34.40L61.21,-35.65L62.23,-35.27L62.98,-35.40L63.19,-35.86L63.98,-36.01L64.55,-36.31L64.75,-37.11L65.59,-37.31L65.75,-37.66L66.22,-37.39L66.52,-37.36Z" fill="#00e5ff" stroke="#00e5ff" stroke-width="0.5" fill-opacity="0.8"/>
</svg>