<svg xmlns="http://www.w3.org/2000/svg" viewBox="-10.68 -39.12 24.68 22.06" width="300" height="300" preserveAspectRatio="xMidYMid meet">
  <path d="M-8.68,-27.40L-8.67,-27.59L-8.67,-27.66L-8.67,-28.84L-7.06,-29.58L-6.06,-29.73L-5.24,-30.00L-4.86,-30.50L-3.69,-30.90L-3.65,-31.64L-3.07,-31.72L-2.62,-32.09L-1.31,-32.26L-1.12,-32.65L-1.39,-32.86L-1.73,-33.92L-1.79,-34.53L-2.17,-35.17L-1.21,-35.71L-0.13,-35.89L0.50,-36.30L1.47,-36.61L3.16,-36.78L4.82,-36.87L5.32,-36.72L6.26,-37.11L7.33,-37.12L7.74,-36.89L8.42,-36.95L8.22,-36.43L8.38,-35.48L8.14,-34.66L7.52,-34.10L7.61,-33.34L8.43,-32.75L8.44,-32.51L9.06,-32.10L9.48,-30.31L9.81,-29.42L9.86,-28.96L9.68,-28.14L9.76,-27.69L9.63,-27.14L9.72,-26.51L9.32,-26.09L9.91,-25.37L9.95,-24.94L10.30,-24.38L10.77,-24.56L11.56,-24.10L12.00,-23.47L8.57,-21.57L5.68,-19.60L4.27,-19.16L3.16,-19.06L3.15,-19.69L2.68,-19.86L2.06,-20.14L1.82,-20.61L-1.55,-22.79L-4.92,-24.97L-8.68,-27.40Z" fill="#00e5ff" stroke="#00e5ff" stroke-width="0.5" fill-opacity="0.8"/>
</svg>