<svg xmlns="http://www.w3.org/2000/svg" viewBox="9.64 2.44 16.44 17.49" width="300" height="300" preserveAspectRatio="xMidYMid meet">
  <path d="M13.00,4.78L12.63,4.99L12.47,5.25L12.44,5.68L12.18,5.79L11.91,5.04L12.32,4.61L12.62,4.44L13.00,4.78ZM12.32,6.10L12.74,5.97L13.02,5.98L13.38,5.86L16.33,5.88L16.57,6.62L16.86,7.22L17.09,7.55L17.47,8.07L18.13,7.99L18.46,7.85L19.02,7.99L19.17,7.74L19.42,7.16L20.04,7.12L20.09,6.94L20.60,6.94L20.51,7.30L21.73,7.29L21.75,7.92L21.95,8.31L21.80,8.91L21.88,9.52L22.21,9.89L22.16,11.08L22.40,10.99L22.84,11.02L23.46,10.87L23.91,10.93L24.02,11.24L23.90,11.72L24.08,12.19L23.93,12.57L24.02,12.91L21.93,12.90L21.89,16.08L22.56,16.90L23.22,17.52L21.38,17.93L18.96,17.79L18.26,17.31L14.21,17.35L14.06,17.42L13.46,16.97L12.81,16.94L12.22,17.11L11.73,17.30L11.64,16.67L11.78,15.79L12.12,14.88L12.18,14.45L12.50,13.55L12.74,13.14L13.31,12.48L13.63,12.04L13.74,11.30L13.69,10.73L13.39,10.37L13.12,9.77L12.88,9.17L12.93,8.96L13.24,8.56L12.93,7.60L12.73,6.93L12.23,6.29L12.32,6.10Z" fill="#00e5ff" stroke="#00e5ff" stroke-width="0.5" fill-opacity="0.8"/>
</svg>