<svg xmlns="http://www.w3.org/2000/svg" viewBox="-75.42 19.83 23.79 37.42" width="300" height="300" preserveAspectRatio="xMidYMid meet">
  <path d="M-68.63,52.64L-68.25,53.10L-67.75,53.85L-66.45,54.45L-65.05,54.70L-65.50,55.20L-66.45,55.25L-66.96,54.90L-67.56,54.87L-68.63,54.87L-68.63,52.64ZM-57.63,30.22L-57.87,31.02L-58.14,32.04L-58.13,33.04L-58.35,33.26L-58.43,33.91L-58.50,34.43L-57.23,35.29L-57.36,35.98L-56.74,36.41L-56.79,36.90L-57.75,38.18L-59.23,38.72L-61.24,38.93L-62.34,38.83L-62.13,39.42L-62.33,40.17L-62.15,40.68L-62.75,41.03L-63.77,41.17L-64.73,40.80L-65.12,41.06L-64.98,42.06L-64.30,42.36L-63.76,42.04L-63.46,42.56L-64.38,42.87L-65.18,43.50L-65.33,44.50L-65.57,45.04L-66.51,45.04L-67.29,45.55L-67.58,46.30L-66.60,47.03L-65.64,47.24L-65.99,48.13L-67.17,48.70L-67.82,49.87L-68.73,50.26L-69.14,50.73L-68.82,51.77L-68.15,52.35L-68.57,52.30L-69.50,52.14L-71.91,52.01L-72.33,51.43L-72.31,50.68L-72.98,50.74L-73.33,50.38L-73.42,49.32L-72.65,48.88L-72.33,48.24L-72.45,47.74L-71.92,46.88L-71.55,45.56L-71.66,44.97L-71.22,44.78L-71.33,44.41L-71.79,44.21L-71.46,43.79L-71.92,43.41L-72.15,42.25L-71.75,42.05L-71.92,40.83L-71.68,39.81L-71.41,38.92L-70.81,38.55L-71.12,37.58L-71.12,36.66L-70.36,36.01L-70.39,35.17L-69.82,34.19L-69.81,33.27L-70.07,33.09L-70.54,31.37L-69.92,30.34L-70.01,29.37L-69.66,28.46L-69.00,27.52L-68.30,26.90L-68.59,26.51L-68.39,26.19L-68.42,24.52L-67.33,24.03L-66.99,22.99L-67.11,22.74L-66.27,21.83L-64.96,22.08L-64.38,22.80L-63.99,21.99L-62.85,22.03L-62.69,22.25L-60.85,23.88L-60.03,24.03L-58.81,24.77L-57.78,25.16L-57.63,25.60L-58.62,27.12L-57.61,27.40L-56.49,27.55L-55.70,27.39L-54.79,26.62L-54.63,25.74L-54.13,25.55L-53.63,26.12L-53.65,26.92L-54.49,27.47L-55.16,27.88L-56.29,28.85L-57.63,30.22Z" fill="#00e5ff" stroke="#00e5ff" stroke-width="0.5" fill-opacity="0.8"/>
</svg>