<svg xmlns="http://www.w3.org/2000/svg" viewBox="-88.4 -8.6 49.8 106.1" width="400" height="300" preserveAspectRatio="xMidYMid meet">
  <rect x="-88.4" y="-8.6" width="49.8" height="106.1" fill="#0e0e18"/>
  <path d="M180.0,16.3L180.0,16.8L179.4,17.0L178.7,17.3L178.6,16.9L179.1,16.7L179.4,16.6L180.0,16.3ZM178.1,17.8L178.4,17.6L178.7,17.9L178.6,18.5L177.9,18.6L177.4,18.5L177.3,18.0L177.7,17.7L178.1,17.8ZM-179.8,16.2L-179.9,16.7L-180.0,16.8L-180.0,16.3L-179.8,16.2Z" fill="#1e1e2e" stroke="#2a2a3a" stroke-width="0.3"/>
  <path d="M-68.6,62.1L-68.6,65.9L-67.6,65.9L-67.0,66.0L-67.3,66.7L-68.1,67.2L-68.6,67.2L-69.2,67.0L-70.0,66.5L-71.0,66.2L-72.3,65.3L-73.3,64.3L-74.7,62.5L-73.8,62.8L-72.4,63.9L-71.1,64.5L-70.6,63.8L-70.3,62.6L-69.3,61.9L-68.6,62.1ZM-69.6,17.9L-69.1,18.6L-69.0,19.3L-68.4,19.8L-68.8,20.8L-68.2,22.0L-67.8,23.5L-67.1,23.4L-67.0,23.6L-67.3,24.8L-68.4,25.3L-68.4,27.1L-68.6,27.5L-68.3,27.9L-69.0,28.6L-69.7,29.7L-70.0,30.7L-69.9,31.9L-70.5,33.1L-70.1,35.1L-69.8,35.3L-69.8,36.4L-70.4,37.6L-70.4,38.6L-71.1,39.5L-71.1,40.6L-70.8,41.8L-71.4,42.3L-71.7,43.5L-71.9,44.8L-71.7,46.4L-72.1,46.7L-71.9,48.3L-71.5,48.8L-71.8,49.4L-71.3,49.7L-71.2,50.2L-71.7,50.5L-71.6,51.3L-71.9,53.2L-72.4,54.5L-72.3,55.2L-72.6,56.2L-73.4,56.9L-73.3,58.5L-73.0,59.1L-72.3,59.0L-72.3,60.2L-71.9,61.1L-69.5,61.3L-68.6,61.6L-69.5,61.6L-69.9,62.0L-70.8,62.6L-71.0,64.1L-71.4,64.2L-72.6,63.6L-73.7,62.5L-73.7,62.5L-74.9,61.5L-75.3,60.5L-75.0,59.5L-75.5,58.5L-75.6,55.9L-75.2,54.4L-74.1,53.3L-75.6,52.9L-74.7,51.6L-74.4,49.2L-73.2,49.7L-72.7,46.9L-73.4,46.5L-73.7,48.2L-74.3,48.0L-74.0,46.1L-73.7,43.6L-73.2,42.7L-73.5,41.5L-73.6,40.1L-73.2,40.0L-72.6,38.0L-71.9,36.1L-71.4,34.3L-71.7,32.5L-71.4,31.6L-71.5,30.2L-70.9,28.8L-70.7,26.6L-70.4,24.3L-70.1,21.9L-70.2,20.2L-70.4,18.7L-69.9,18.4L-69.6,17.9Z" fill="#1e1e2e" stroke="#2a2a3a" stroke-width="0.3"/>
  <path d="M-61.2,60.8L-60.0,59.9L-59.1,60.3L-58.5,59.6L-57.8,60.4L-58.0,60.9L-59.4,61.4L-59.9,60.8L-60.7,61.6L-61.2,60.8Z" fill="#1e1e2e" stroke="#2a2a3a" stroke-width="0.3"/>
  <path d="M-57.6,31.7L-57.0,31.6L-56.0,32.5L-55.6,32.5L-54.6,33.2L-53.8,33.9L-53.2,34.7L-53.7,35.2L-53.4,35.9L-53.8,36.7L-54.9,37.3L-55.7,37.1L-56.2,37.2L-57.1,36.7L-57.8,36.8L-58.4,36.1L-58.3,35.3L-58.1,35.0L-58.1,33.9L-57.9,32.7L-57.6,31.7Z" fill="#1e1e2e" stroke="#2a2a3a" stroke-width="0.3"/>
  <path d="M-53.4,35.9L-53.7,35.2L-53.2,34.7L-53.8,33.9L-54.6,33.2L-55.6,32.5L-56.0,32.5L-57.0,31.6L-57.6,31.7L-56.3,30.2L-55.2,29.1L-54.5,28.6L-53.6,28.0L-53.6,27.1L-54.1,26.4L-54.6,26.7L-54.4,26.0L-54.3,25.4L-54.3,24.8L-54.7,24.6L-55.0,24.7L-55.4,24.7L-55.5,24.3L-55.6,23.3L-55.8,22.9L-56.5,22.7L-56.9,22.9L-57.9,22.7L-57.9,21.2L-58.2,20.6L-57.9,20.4L-57.9,19.8L-57.7,19.3L-57.5,18.5L-57.7,17.8L-58.3,17.5L-58.4,17.1L-58.2,16.5L-60.2,16.5L-60.5,15.3L-60.3,15.3L-60.3,14.8L-60.5,14.5L-60.5,13.9L-61.1,13.6L-61.7,13.6L-62.1,13.3L-62.8,13.1L-63.2,12.7L-64.3,12.6L-65.4,11.6L-65.3,11.0L-65.4,10.6L-65.3,9.8L-66.6,10.0L-67.2,10.4L-68.0,10.8L-68.3,11.1L-68.8,11.1L-69.5,11.0L-70.1,11.2L-70.5,11.1L-70.5,9.5L-71.3,10.1L-72.2,10.1L-72.6,9.6L-73.2,9.5L-73.0,9.1L-73.6,8.5L-74.0,7.5L-73.7,7.4L-73.7,6.9L-73.1,6.6L-73.2,6.1L-73.0,5.8L-72.9,5.3L-71.7,4.6L-70.9,4.4L-70.8,4.3L-69.9,4.3L-69.4,1.6L-69.4,1.1L-69.6,0.6L-70.0,0.2L-70.0,-0.5L-69.5,-0.7L-69.3,-0.6L-69.2,-1.0L-69.8,-1.1L-69.8,-1.7L-67.9,-1.7L-67.5,-2.0L-67.3,-1.7L-67.1,-1.1L-66.9,-1.3L-66.3,-0.7L-65.5,-0.8L-65.4,-1.1L-64.6,-1.3L-64.2,-1.5L-64.1,-1.9L-63.4,-2.2L-63.4,-2.4L-64.3,-2.5L-64.4,-3.1L-64.4,-3.8L-64.8,-4.1L-64.6,-4.2L-63.9,-4.0L-63.1,-3.8L-62.8,-4.0L-62.1,-4.2L-61.0,-4.5L-60.6,-4.9L-60.7,-5.2L-60.2,-5.3L-60.0,-5.0L-60.1,-4.6L-59.8,-4.4L-59.5,-4.0L-59.8,-3.6L-60.0,-2.8L-59.7,-2.3L-59.6,-1.8L-59.0,-1.3L-58.5,-1.3L-58.4,-1.5L-58.1,-1.5L-57.7,-1.7L-57.3,-1.9L-56.8,-1.9L-56.5,-1.9L-56.0,-1.8L-55.9,-2.0L-56.1,-2.2L-56.0,-2.5L-55.6,-2.4L-55.1,-2.5L-54.5,-2.3L-54.1,-2.1L-53.8,-2.4L-53.6,-2.3L-53.4,-2.1L-52.9,-2.1L-52.6,-2.5L-52.2,-3.2L-51.7,-4.2L-51.3,-4.2L-51.1,-3.7L-50.5,-1.9L-50.0,-1.7L-49.9,-1.0L-50.7,-0.2L-50.4,0.1L-48.6,0.2L-48.6,1.2L-47.8,0.6L-46.6,0.9L-44.9,1.6L-44.4,2.1L-44.6,2.7L-43.4,2.4L-41.5,2.9L-40.0,2.9L-38.5,3.7L-37.2,4.8L-36.5,5.1L-35.6,5.2L-35.2,5.5L-34.9,6.8L-34.7,7.4L-35.1,9.0L-35.6,9.7L-37.0,11.1L-37.7,12.3L-38.4,13.2L-38.7,13.2L-39.0,13.9L-38.9,15.9L-39.2,17.5L-39.3,18.2L-39.6,18.6L-39.8,20.0L-40.8,21.4L-40.9,22.5L-41.8,23.0L-42.0,23.6L-43.1,23.6L-44.6,24.0L-45.4,24.5L-46.5,24.8L-47.6,25.7L-48.5,26.8L-48.6,27.6L-48.5,28.3L-48.7,29.4L-48.9,30.0L-49.6,30.6L-50.7,32.6L-51.6,33.5L-52.3,34.1L-52.7,35.2L-53.4,35.9Z" fill="#1e1e2e" stroke="#2a2a3a" stroke-width="0.3"/>
  <path d="M-69.5,11.0L-68.8,11.1L-68.3,11.1L-68.0,10.8L-67.2,10.4L-66.6,10.0L-65.3,9.8L-65.4,10.6L-65.3,11.0L-65.4,11.6L-64.3,12.6L-63.2,12.7L-62.8,13.1L-62.1,13.3L-61.7,13.6L-61.1,13.6L-60.5,13.9L-60.5,14.5L-60.3,14.8L-60.3,15.3L-60.5,15.3L-60.2,16.5L-58.2,16.5L-58.4,17.1L-58.3,17.5L-57.7,17.8L-57.5,18.5L-57.7,19.3L-57.9,19.8L-57.9,20.4L-58.2,20.6L-58.2,20.3L-59.1,19.7L-60.0,19.7L-61.8,20.0L-62.3,21.0L-62.3,21.5L-62.7,22.8L-62.8,22.6L-64.0,22.6L-64.4,23.4L-65.0,22.6L-66.3,22.4L-67.1,23.4L-67.8,23.5L-68.2,22.0L-68.8,20.8L-68.4,19.8L-69.0,19.3L-69.1,18.6L-69.6,17.9L-69.0,16.7L-69.4,15.9L-69.2,15.5L-69.3,15.1L-68.9,14.6L-68.9,13.7L-68.9,13.0L-68.7,12.7L-69.5,11.0Z" fill="#1e1e2e" stroke="#2a2a3a" stroke-width="0.3"/>
  <path d="M-69.9,4.3L-70.8,4.3L-70.9,4.4L-71.7,4.6L-72.9,5.3L-73.0,5.8L-73.2,6.1L-73.1,6.6L-73.7,6.9L-73.7,7.4L-74.0,7.5L-73.6,8.5L-73.0,9.1L-73.2,9.5L-72.6,9.6L-72.2,10.1L-71.3,10.1L-70.5,9.5L-70.5,11.1L-70.1,11.2L-69.5,11.0L-68.7,12.7L-68.9,13.0L-68.9,13.7L-68.9,14.6L-69.3,15.1L-69.2,15.5L-69.4,15.9L-69.0,16.7L-69.6,17.9L-69.9,18.4L-70.4,18.7L-71.4,18.1L-71.5,17.6L-73.4,16.6L-75.2,15.4L-76.0,14.8L-76.4,14.0L-76.3,13.7L-77.1,12.3L-78.1,10.4L-79.0,8.4L-79.4,8.0L-79.8,7.2L-80.5,6.6L-81.2,6.1L-80.9,5.7L-81.4,4.7L-81.1,4.0L-80.3,3.4L-80.2,3.8L-80.5,4.1L-80.4,4.4L-80.0,4.4L-79.6,4.5L-79.2,5.0L-78.6,4.6L-78.5,3.9L-77.8,3.0L-76.6,2.6L-75.5,1.6L-75.2,0.9L-75.4,0.2L-75.1,0.1L-74.4,0.5L-74.1,1.0L-73.7,1.3L-73.1,2.3L-72.3,2.4L-71.8,2.2L-71.4,2.3L-70.8,2.3L-70.0,2.7L-70.7,3.7L-70.4,3.8L-69.9,4.3Z" fill="#1e1e2e" stroke="#2a2a3a" stroke-width="0.3"/>
  <path d="M-66.9,-1.3L-67.1,-1.1L-67.3,-1.7L-67.5,-2.0L-67.9,-1.7L-69.8,-1.7L-69.8,-1.1L-69.2,-1.0L-69.3,-0.6L-69.5,-0.7L-70.0,-0.5L-70.0,0.2L-69.6,0.6L-69.4,1.1L-69.4,1.6L-69.9,4.3L-70.4,3.8L-70.7,3.7L-70.0,2.7L-70.8,2.3L-71.4,2.3L-71.8,2.2L-72.3,2.4L-73.1,2.3L-73.7,1.3L-74.1,1.0L-74.4,0.5L-75.1,0.1L-75.4,0.2L-75.8,-0.1L-76.3,-0.4L-76.6,-0.3L-77.4,-0.4L-77.7,-0.8L-77.9,-0.8L-78.9,-1.4L-79.0,-1.7L-78.6,-1.8L-78.7,-2.3L-78.4,-2.6L-77.9,-2.7L-77.5,-3.3L-77.1,-3.9L-77.5,-4.1L-77.3,-4.7L-77.5,-5.6L-77.3,-5.9L-77.5,-6.7L-77.9,-7.2L-77.8,-7.7L-77.4,-7.7L-77.2,-8.0L-77.5,-8.6L-77.4,-8.7L-76.8,-8.7L-76.1,-9.4L-75.7,-9.5L-75.7,-9.8L-75.5,-10.7L-74.9,-11.2L-74.3,-11.2L-74.2,-11.4L-73.4,-11.3L-72.6,-11.8L-72.2,-12.0L-71.8,-12.5L-71.4,-12.5L-71.1,-12.2L-71.3,-11.9L-72.0,-11.7L-72.2,-11.2L-72.6,-10.9L-72.9,-10.5L-73.0,-9.8L-73.3,-9.2L-72.8,-9.1L-72.7,-8.7L-72.4,-8.4L-72.4,-8.0L-72.5,-7.7L-72.4,-7.4L-72.2,-7.4L-72.0,-7.0L-70.7,-7.1L-70.1,-7.0L-69.4,-6.1L-69.0,-6.2L-68.3,-6.2L-67.7,-6.3L-67.3,-6.1L-67.5,-5.6L-67.7,-5.2L-67.8,-4.5L-67.6,-3.8L-67.3,-3.5L-67.3,-3.3L-67.8,-2.8L-67.4,-2.6L-67.2,-2.3L-66.9,-1.3Z" fill="#1e1e2e" stroke="#2a2a3a" stroke-width="0.3"/>
  <path d="M-77.4,-8.7L-77.5,-8.6L-77.2,-8.0L-77.4,-7.7L-77.8,-7.7L-77.9,-7.2L-78.2,-7.5L-78.4,-8.1L-78.2,-8.3L-78.4,-8.4L-78.6,-8.8L-79.1,-9.0L-79.6,-9.0L-79.8,-8.6L-80.2,-8.4L-80.4,-8.3L-80.5,-8.1L-80.0,-7.6L-80.3,-7.4L-80.4,-7.3L-80.9,-7.2L-81.1,-7.8L-81.2,-7.7L-81.5,-7.7L-81.7,-8.1L-82.1,-8.2L-82.4,-8.3L-82.8,-8.3L-82.9,-8.1L-83.0,-8.3L-82.9,-8.5L-82.8,-8.7L-82.9,-8.8L-82.7,-9.0L-82.9,-9.1L-82.9,-9.5L-82.5,-9.6L-82.2,-9.2L-82.2,-9.0L-81.8,-9.0L-81.7,-9.1L-81.4,-8.8L-80.9,-8.9L-80.5,-9.1L-79.9,-9.4L-79.6,-9.7L-79.0,-9.6L-79.1,-9.5L-78.5,-9.5L-78.1,-9.3L-77.7,-9.0L-77.4,-8.7Z" fill="#1e1e2e" stroke="#2a2a3a" stroke-width="0.3"/>
  <path d="M-82.5,-9.6L-82.9,-9.5L-82.9,-9.1L-82.7,-9.0L-82.9,-8.8L-82.8,-8.7L-82.9,-8.5L-83.0,-8.3L-83.5,-8.5L-83.7,-8.7L-83.6,-8.9L-83.6,-9.1L-83.9,-9.3L-84.3,-9.5L-84.6,-9.7L-84.7,-10.0L-85.0,-10.1L-84.9,-9.8L-85.1,-9.6L-85.3,-9.9L-85.7,-10.0L-85.8,-10.2L-85.8,-10.5L-85.7,-10.8L-85.9,-11.0L-85.7,-11.2L-85.6,-11.3L-84.9,-11.0L-84.7,-11.2L-84.4,-11.1L-84.2,-10.9L-83.9,-10.8L-83.7,-11.0L-83.4,-10.5L-83.0,-10.0L-82.5,-9.6Z" fill="#1e1e2e" stroke="#2a2a3a" stroke-width="0.3"/>
  <path d="M-60.7,-5.2L-60.6,-4.9L-61.0,-4.5L-62.1,-4.2L-62.8,-4.0L-63.1,-3.8L-63.9,-4.0L-64.6,-4.2L-64.8,-4.1L-64.4,-3.8L-64.4,-3.1L-64.3,-2.5L-63.4,-2.4L-63.4,-2.2L-64.1,-1.9L-64.2,-1.5L-64.6,-1.3L-65.4,-1.1L-65.5,-0.8L-66.3,-0.7L-66.9,-1.3L-67.2,-2.3L-67.4,-2.6L-67.8,-2.8L-67.3,-3.3L-67.3,-3.5L-67.6,-3.8L-67.8,-4.5L-67.7,-5.2L-67.5,-5.6L-67.3,-6.1L-67.7,-6.3L-68.3,-6.2L-69.0,-6.2L-69.4,-6.1L-70.1,-7.0L-70.7,-7.1L-72.0,-7.0L-72.2,-7.4L-72.4,-7.4L-72.5,-7.7L-72.4,-8.0L-72.4,-8.4L-72.7,-8.7L-72.8,-9.1L-73.3,-9.2L-73.0,-9.8L-72.9,-10.5L-72.6,-10.9L-72.2,-11.2L-72.0,-11.7L-71.3,-11.9L-71.4,-11.6L-71.9,-11.5L-71.6,-11.0L-71.6,-10.5L-72.1,-9.9L-71.7,-9.1L-71.3,-9.2L-71.0,-9.9L-71.4,-10.3L-71.4,-11.0L-70.2,-11.5L-70.3,-11.9L-69.9,-12.3L-69.6,-11.5L-68.9,-11.5L-68.2,-11.0L-68.2,-10.6L-67.3,-10.6L-66.2,-10.7L-65.7,-10.3L-64.9,-10.1L-64.3,-10.4L-64.3,-10.7L-63.1,-10.8L-61.9,-10.8L-62.7,-10.5L-62.4,-10.0L-61.6,-9.9L-60.8,-9.4L-60.7,-8.6L-60.2,-8.6L-59.8,-8.4L-60.6,-7.8L-60.6,-7.4L-60.3,-7.1L-60.5,-6.9L-61.2,-6.7L-61.1,-6.2L-61.4,-6.0L-60.7,-5.2Z" fill="#1e1e2e" stroke="#2a2a3a" stroke-width="0.3"/>
  <path d="M-56.5,-1.9L-56.8,-1.9L-57.3,-1.9L-57.7,-1.7L-58.1,-1.5L-58.4,-1.5L-58.5,-1.3L-59.0,-1.3L-59.6,-1.8L-59.7,-2.3L-60.0,-2.8L-59.8,-3.6L-59.5,-4.0L-59.8,-4.4L-60.1,-4.6L-60.0,-5.0L-60.2,-5.3L-60.7,-5.2L-61.4,-6.0L-61.1,-6.2L-61.2,-6.7L-60.5,-6.9L-60.3,-7.1L-60.6,-7.4L-60.6,-7.8L-59.8,-8.4L-59.1,-8.0L-58.5,-7.4L-58.5,-6.8L-58.1,-6.8L-57.5,-6.3L-57.1,-6.0L-57.3,-5.1L-57.9,-4.8L-57.9,-4.6L-58.0,-4.1L-57.6,-3.3L-57.3,-3.3L-57.2,-2.8L-56.5,-1.9Z" fill="#1e1e2e" stroke="#2a2a3a" stroke-width="0.3"/>
  <path d="M-54.5,-2.3L-55.1,-2.5L-55.6,-2.4L-56.0,-2.5L-56.1,-2.2L-55.9,-2.0L-56.0,-1.8L-56.5,-1.9L-57.2,-2.8L-57.3,-3.3L-57.6,-3.3L-58.0,-4.1L-57.9,-4.6L-57.9,-4.8L-57.3,-5.1L-57.1,-6.0L-55.9,-5.8L-55.8,-6.0L-55.0,-6.0L-54.0,-5.8L-54.5,-4.9L-54.4,-4.2L-54.0,-3.6L-54.2,-3.2L-54.3,-2.7L-54.5,-2.3Z" fill="#1e1e2e" stroke="#2a2a3a" stroke-width="0.3"/>
  <path d="M-51.7,-4.2L-52.2,-3.2L-52.6,-2.5L-52.9,-2.1L-53.4,-2.1L-53.6,-2.3L-53.8,-2.4L-54.1,-2.1L-54.5,-2.3L-54.3,-2.7L-54.2,-3.2L-54.0,-3.6L-54.4,-4.2L-54.5,-4.9L-54.0,-5.8L-53.6,-5.7L-52.9,-5.4L-51.8,-4.6L-51.7,-4.2ZM6.2,-57.1L6.7,-56.7L8.1,-56.4L7.6,-55.4L7.5,-54.3L7.2,-54.0L6.7,-54.2L6.8,-53.8L6.0,-53.0L6.0,-52.3L6.5,-52.5L6.8,-51.9L6.8,-51.5L7.1,-51.0L6.7,-50.5L7.0,-49.5L7.5,-49.3L7.4,-48.7L6.5,-47.9L4.6,-48.3L3.1,-47.8L3.0,-47.0L1.8,-46.8L0.7,-47.4L0.3,-47.1L-1.5,-47.8L-1.9,-48.3L-1.4,-49.1L-1.2,-51.9L-2.2,-53.5L-3.0,-54.2L-4.5,-54.8L-4.6,-55.9L-3.3,-56.2L-1.6,-55.8L-1.9,-57.6L-1.0,-56.9L1.3,-58.1L1.6,-59.4L2.5,-59.7L2.7,-59.2L3.1,-59.1L3.6,-58.5L4.3,-57.8L4.8,-57.9L5.7,-57.2L5.9,-57.0L6.2,-57.1ZM8.7,-47.2L9.4,-47.7L9.6,-46.6L9.2,-45.5L8.8,-45.8L8.5,-46.7L8.7,-47.2Z" fill="#1e1e2e" stroke="#2a2a3a" stroke-width="0.3"/>
  <path d="M-75.4,0.2L-75.2,0.9L-75.5,1.6L-76.6,2.6L-77.8,3.0L-78.5,3.9L-78.6,4.6L-79.2,5.0L-79.6,4.5L-80.0,4.4L-80.4,4.4L-80.5,4.1L-80.2,3.8L-80.3,3.4L-79.8,2.7L-80.0,2.2L-80.4,2.7L-81.0,2.2L-80.8,2.0L-80.9,1.1L-80.6,0.9L-80.4,0.3L-80.0,-0.4L-80.1,-0.8L-79.5,-1.0L-78.9,-1.4L-77.9,-0.8L-77.7,-0.8L-77.4,-0.4L-76.6,-0.3L-76.3,-0.4L-75.8,-0.1L-75.4,0.2Z" fill="#1e1e2e" stroke="#2a2a3a" stroke-width="0.3"/>
  <path d="M-58.2,20.6L-57.9,21.2L-57.9,22.7L-56.9,22.9L-56.5,22.7L-55.8,22.9L-55.6,23.3L-55.5,24.3L-55.4,24.7L-55.0,24.7L-54.7,24.6L-54.3,24.8L-54.3,25.4L-54.4,26.0L-54.6,26.7L-54.8,27.6L-55.7,28.5L-56.5,28.7L-57.6,28.5L-58.6,28.2L-57.6,26.5L-57.8,26.0L-58.8,25.6L-60.0,24.8L-60.8,24.6L-62.7,22.8L-62.3,21.5L-62.3,21.0L-61.8,20.0L-60.0,19.7L-59.1,19.7L-58.2,20.3L-58.2,20.6Z" fill="#1e1e2e" stroke="#2a2a3a" stroke-width="0.3"/>
  <path d="M-48.7,129.3L-48.2,129.3L-46.7,128.3L-45.2,129.3L-43.9,131.4L-43.5,134.5L-43.4,136.9L-43.3,139.7L-44.9,141.6L-46.5,143.1L-48.4,144.6L-50.5,145.8L-52.9,145.4L-54.2,143.4L-54.0,140.9L-51.9,139.3L-51.0,137.4L-50.4,135.1L-49.9,133.1L-49.3,131.3L-48.7,129.3L-48.7,129.3ZM-66.3,141.1L-64.0,141.3L-61.9,141.9L-61.1,139.5L-60.6,137.5L-59.6,139.8L-59.9,142.8L-60.2,145.7L-62.3,144.8L-64.5,145.2L-65.7,143.1L-65.7,142.8L-66.3,141.1ZM-73.9,103.3L-73.9,103.3L-73.2,102.9L-72.1,103.0L-71.8,101.5L-71.7,100.3L-71.7,98.0L-71.2,96.7L-70.3,96.2L-69.7,97.3L-69.5,98.3L-69.1,99.6L-68.7,100.9L-68.5,102.3L-68.3,103.7L-68.5,104.9L-68.8,106.1L-70.0,106.6L-71.1,107.2L-72.4,107.2L-71.9,105.9L-73.1,106.3L-74.2,106.8L-75.0,105.8L-75.0,104.5L-73.9,103.3ZM-102.3,105.2L-102.3,105.2L-101.7,104.7L-100.4,105.1L-99.0,105.4L-97.9,105.8L-96.8,105.4L-96.2,107.3L-97.0,107.0L-98.2,107.2L-99.4,107.0L-100.8,107.2L-101.8,106.6L-102.3,105.2ZM-122.6,111.2L-122.6,111.2L-122.4,110.0L-121.2,110.6L-119.9,111.2L-118.7,110.6L-119.3,111.8L-120.2,112.8L-121.6,112.5L-122.6,111.2ZM-127.3,110.5L-127.3,110.5L-126.6,109.8L-125.6,110.6L-124.0,112.0L-124.6,111.8L-125.9,111.5L-127.3,110.5ZM-163.7,132.0L-163.7,132.0L-163.1,130.2L-161.2,130.9L-160.2,132.5L-159.5,134.3L-159.2,136.8L-161.1,137.5L-162.4,135.6L-163.0,133.7L-163.1,133.4L-163.7,132.0ZM180.0,176.2L180.0,179.4L-180.0,179.4L-180.0,176.2L-179.9,176.3L-179.1,170.3L-177.3,173.5L-177.1,173.1L-176.1,169.9L-175.9,170.0L-175.8,170.1L-174.4,174.3L-173.1,170.1L-172.9,169.5L-170.0,167.9L-169.0,170.1L-168.5,171.3L-167.0,174.7L-164.2,177.4L-161.9,179.4L-158.1,179.4L-155.2,179.4L-150.9,179.4L-148.5,179.4L-145.9,179.4L-143.1,179.4L-142.9,174.7L-146.8,174.3L-150.1,171.9L-150.9,168.0L-153.6,166.0L-153.4,162.1L-153.0,158.7L-152.7,155.8L-152.9,152.7L-154.5,150.8L-155.3,148.4L-156.8,146.3L-154.4,146.7L-152.1,145.7L-150.6,147.8L-148.9,145.9L-147.2,143.6L-146.4,141.6L-146.8,139.2L-148.1,137.6L-149.5,136.0L-151.6,135.7L-153.4,135.0L-155.3,134.4L-156.0,132.5L-157.3,130.9L-158.1,129.2L-158.4,124.0L-157.9,124.4L-157.0,125.8L-155.3,125.4L-153.7,124.7L-152.9,126.7L-151.3,126.3L-150.0,125.3L-148.7,124.0L-147.6,122.6L-146.1,122.2L-146.1,120.6L-146.5,119.1L-146.2,117.7L-144.9,117.0L-144.3,118.3L-142.8,117.5L-141.6,116.5L-140.2,116.4L-138.9,116.1L-137.5,115.2L-136.4,114.3L-135.2,113.5L-134.4,113.8L-133.7,114.0L-132.3,113.5L-130.9,114.2L-129.6,114.1L-128.2,113.6L-126.9,114.0L-125.4,114.3L-124.0,114.2L-122.6,114.3L-121.1,114.3L-119.7,114.2L-118.7,113.1L-117.5,112.5L-116.2,113.3L-115.0,112.7L-113.9,111.4L-113.3,112.5L-112.9,113.8L-112.3,115.1L-111.3,114.0L-110.1,115.4L-108.7,115.8L-107.6,116.9L-106.1,116.7L-104.9,116.0L-103.4,116.1L-102.0,116.7L-100.6,117.4L-100.1,115.7L-100.8,114.4L-101.3,113.1L-102.5,112.8L-103.1,111.5L-103.3,110.2L-103.7,107.6L-102.9,108.1L-101.6,108.3L-100.3,108.1L-99.1,108.6L-98.1,109.6L-97.7,110.8L-96.3,111.1L-95.0,110.6L-93.7,109.9L-92.4,109.5L-91.4,110.3L-90.1,110.0L-89.2,107.4L-88.4,108.9L-87.3,109.5L-86.0,109.2L-85.2,110.6L-83.9,110.7L-82.7,111.1L-81.5,111.9L-80.7,110.6L-80.3,109.3L-79.3,110.7L-77.9,110.4L-76.9,111.1L-76.2,112.3L-74.9,112.0L-73.9,111.2L-72.8,110.3L-71.6,109.8L-70.2,109.4L-68.9,108.9L-68.0,108.2L-67.4,107.2L-67.1,105.7L-67.3,104.4L-67.6,103.2L-67.9,102.0L-68.2,100.8L-68.5,99.8L-68.5,98.6L-68.4,97.5L-68.0,96.4L-67.6,95.3L-67.4,94.2L-67.6,93.1L-67.7,92.1L-67.3,90.9L-66.7,90.2L-66.1,89.2L-65.4,88.5L-64.6,87.8L-64.2,86.7L-63.6,86.1L-63.0,85.5L-62.0,85.3L-61.4,84.6L-60.7,84.2L-59.9,83.9L-59.2,83.3L-58.6,82.6L-57.8,82.3L-57.2,82.9L-57.6,83.7L-58.6,84.3L-59.0,84.8L-59.8,84.5L-60.6,84.7L-61.3,85.2L-62.0,85.8L-62.5,86.5L-62.6,87.5L-62.6,88.4L-62.1,89.2L-62.8,89.8L-63.7,90.0L-64.3,90.8L-64.9,91.6L-65.5,92.7L-65.7,93.7L-65.3,94.8L-64.8,95.7L-64.0,96.3L-63.2,97.2L-62.8,98.3L-62.6,99.4L-62.3,100.6L-61.8,101.6L-61.5,102.7L-61.4,105.6L-61.1,106.8L-61.0,108.1L-60.7,109.5L-60.8,111.3L-61.4,112.8L-62.0,114.0L-63.3,114.6L-63.7,115.9L-64.4,117.2L-65.9,118.7L-67.2,119.3L-68.4,120.2L-69.8,121.1L-70.6,122.9L-72.2,123.0L-74.0,122.9L-75.6,123.2L-77.2,123.2L-76.9,124.9L-75.4,125.7L-74.3,127.0L-73.7,128.6L-74.8,130.2L-76.5,129.7L-77.9,130.9L-78.0,133.0L-78.0,135.1L-76.8,136.9L-76.6,138.9L-75.4,141.1L-73.2,142.0L-71.4,143.7L-70.0,145.7L-68.2,147.7L-65.7,148.8L-63.3,150.6L-61.6,152.7L-59.7,155.2L-58.7,158.8L-58.2,161.9L-57.0,159.0L-55.4,156.7L-53.6,154.3L-51.5,152.4L-49.8,150.5L-47.3,150.4L-44.8,151.3L-42.8,153.0L-42.2,150.0L-40.8,148.0L-38.2,147.8L-36.3,146.4L-34.4,145.1L-32.3,144.2L-30.1,143.1L-28.5,141.6L-29.3,139.5L-29.7,137.5L-29.7,135.5L-31.6,135.7L-33.7,136.5L-35.6,136.5L-35.9,134.5L-35.8,130.7L-35.3,129.7L-33.9,128.5L-32.2,127.4L-31.0,126.1L-29.8,124.7L-28.9,123.0L-27.5,122.3L-26.2,121.7L-25.5,121.3L-23.9,121.2L-22.5,120.6L-21.2,119.8L-20.0,118.8L-18.9,117.9L-17.5,116.7L-16.6,115.4L-15.7,114.3L-15.4,112.8L-16.5,112.0L-16.1,110.5L-15.4,109.4L-14.4,108.7L-13.3,107.9L-12.3,106.9L-11.5,105.6L-11.0,104.1L-10.3,103.2L-9.1,103.4L-8.6,104.5L-7.4,104.6L-7.4,103.4L-6.9,102.2L-5.8,102.5L-5.5,103.7L-4.3,103.9L-3.0,103.3L-1.8,102.9L-0.7,103.1L-0.2,104.4L0.9,103.4L1.9,102.8L3.0,102.4L4.1,102.0L5.2,101.3L6.3,100.8L7.1,100.2L7.7,99.1L8.5,99.9L9.5,99.5L10.2,100.9L10.8,101.9L12.0,101.3L12.4,100.2L13.4,99.4L14.7,99.5L15.1,100.6L15.9,99.5L17.0,99.2L18.2,99.1L19.3,99.1L20.4,99.5L21.5,99.6L21.9,100.6L22.6,101.5L23.7,101.0L24.8,100.9L26.0,100.9L27.1,100.8L28.1,100.4L29.2,100.0L30.0,99.2L31.0,98.7L32.0,98.4L32.8,97.7L33.3,96.1L33.9,95.2L34.9,95.6L35.3,96.6L36.2,97.3L37.2,97.0L37.9,98.0L38.6,98.8L39.7,98.1L40.0,96.9L40.9,96.4L42.0,95.5L42.9,95.1L44.1,94.6L44.9,94.0L45.7,93.4L46.5,92.8L47.4,93.1L48.3,92.2L49.0,91.5L49.9,91.5L50.8,90.9L50.9,90.0L51.8,89.3L52.6,88.9L53.6,88.5L54.5,88.3L55.4,88.4L56.4,88.7L57.2,89.3L57.3,90.4L58.1,91.3L58.7,92.0L59.9,92.3L60.6,93.0L61.4,93.7L62.4,93.9L63.2,93.4L64.1,92.3L65.0,92.8L66.0,93.2L66.9,93.5L67.9,93.7L68.9,93.7L69.7,96.5L69.7,97.2L69.6,98.5L68.6,99.2L67.8,100.3L67.9,101.5L69.1,101.4L68.9,102.6L68.4,103.8L67.9,105.1L68.7,106.1L69.9,106.4L71.0,105.9L71.6,104.6L71.9,103.4L72.5,102.5L73.1,101.6L73.3,100.5L73.9,99.1L74.5,98.8L75.6,98.7L76.6,98.3L77.6,97.9L78.1,96.8L78.4,95.7L79.1,94.7L80.1,94.0L80.9,93.5L81.5,92.6L82.1,92.2L82.8,91.8L83.8,92.0L84.7,91.8L85.7,91.5L86.8,91.6L87.5,90.9L88.0,89.2L88.4,89.9L88.8,91.1L89.7,91.6L90.6,91.8L91.6,91.5L92.6,91.7L93.5,91.8L94.2,91.5L95.0,91.7L95.8,92.2L96.7,91.9L97.8,91.9L98.7,91.5L99.7,91.9L100.4,91.0L100.9,90.2L101.6,89.5L102.8,87.7L103.5,88.0L104.2,88.7L104.9,89.5L106.2,91.1L107.2,91.1L108.1,91.1L109.2,90.8L110.2,90.5L111.1,89.8L111.7,89.0L112.9,89.0L113.6,88.4L114.4,88.9L114.9,89.7L115.6,90.5L116.7,90.4L117.4,91.0L118.6,91.7L119.8,91.9L120.9,91.7L121.7,90.9L122.3,90.1L123.2,89.9L124.1,90.3L125.2,90.5L126.1,90.1L127.0,90.1L127.9,90.4L128.8,90.6L129.7,90.2L130.8,89.8L131.8,89.7L132.9,89.7L133.9,89.4L134.8,89.2L135.0,88.0L135.1,87.0L135.7,87.7L135.9,88.8L136.2,89.8L136.6,90.7L137.5,91.1L138.6,91.0L139.9,90.9L140.8,90.8L142.1,90.8L143.1,90.7L144.4,90.8L145.5,91.0L146.2,91.8L146.0,92.8L146.6,93.6L147.7,94.2L148.8,94.9L150.1,95.4L151.5,95.8L152.5,96.2L153.6,96.3L154.3,95.4L155.2,96.1L155.9,97.0L156.8,97.7L158.0,97.9L159.2,98.3L159.7,99.4L160.8,100.1L161.6,101.2L162.7,101.6L163.8,101.6L164.9,101.7L166.1,101.7L167.3,101.9L168.4,102.3L169.5,103.1L170.5,103.7L171.2,104.6L171.1,105.9L170.6,107.0L170.1,108.5L169.8,109.7L169.3,111.2L168.0,111.8L167.4,113.0L166.1,113.8L165.6,115.3L165.0,116.7L164.2,118.0L163.8,119.6L163.6,121.2L163.5,123.1L163.5,124.7L164.1,126.5L164.3,128.3L164.7,130.0L166.6,130.6L167.0,132.8L165.2,133.6L163.7,134.7L161.8,135.0L160.9,138.1L160.7,140.8L160.3,143.0L159.8,145.3L161.1,147.5L161.6,150.2L162.5,152.9L163.7,155.3L165.1,157.8L166.6,160.3L168.9,162.9L169.4,167.3L172.3,169.3L172.5,170.1L173.2,173.0L176.0,170.5L178.3,173.7L180.0,176.2Z" fill="#1e1e2e" stroke="#2a2a3a" stroke-width="0.3"/>
  <path d="M-68.6,62.1L-68.3,62.9L-67.8,64.2L-66.5,65.2L-65.0,65.6L-65.5,66.5L-66.5,66.6L-67.0,66.0L-67.6,65.9L-68.6,65.9L-68.6,62.1ZM-57.6,31.7L-57.9,32.7L-58.1,33.9L-58.1,35.0L-58.3,35.3L-58.4,36.1L-58.5,36.7L-57.2,37.8L-57.4,38.6L-56.7,39.1L-56.8,39.8L-57.7,41.4L-59.2,42.1L-61.2,42.3L-62.3,42.2L-62.1,43.0L-62.3,43.9L-62.1,44.6L-62.7,45.1L-63.8,45.2L-64.7,44.8L-65.1,45.1L-65.0,46.4L-64.3,46.8L-63.8,46.4L-63.5,47.1L-64.4,47.5L-65.2,48.4L-65.3,49.8L-65.6,50.6L-66.5,50.6L-67.3,51.3L-67.6,52.4L-66.6,53.4L-65.6,53.7L-66.0,55.1L-67.2,55.9L-67.8,57.7L-68.7,58.3L-69.1,59.1L-68.8,60.7L-68.1,61.7L-68.6,61.6L-69.5,61.3L-71.9,61.1L-72.3,60.2L-72.3,59.0L-73.0,59.1L-73.3,58.5L-73.4,56.9L-72.6,56.2L-72.3,55.2L-72.4,54.5L-71.9,53.2L-71.6,51.3L-71.7,50.5L-71.2,50.2L-71.3,49.7L-71.8,49.4L-71.5,48.8L-71.9,48.3L-72.1,46.7L-71.7,46.4L-71.9,44.8L-71.7,43.5L-71.4,42.3L-70.8,41.8L-71.1,40.6L-71.1,39.5L-70.4,38.6L-70.4,37.6L-69.8,36.4L-69.8,35.3L-70.1,35.1L-70.5,33.1L-69.9,31.9L-70.0,30.7L-69.7,29.7L-69.0,28.6L-68.3,27.9L-68.6,27.5L-68.4,27.1L-68.4,25.3L-67.3,24.8L-67.0,23.6L-67.1,23.4L-66.3,22.4L-65.0,22.6L-64.4,23.4L-64.0,22.6L-62.8,22.6L-62.7,22.8L-60.8,24.6L-60.0,24.8L-58.8,25.6L-57.8,26.0L-57.6,26.5L-58.6,28.2L-57.6,28.5L-56.5,28.7L-55.7,28.5L-54.8,27.6L-54.6,26.7L-54.1,26.4L-53.6,27.1L-53.6,28.0L-54.5,28.6L-55.2,29.1L-56.3,30.2L-57.6,31.7Z" fill="#00e5ff" stroke="#00c4dd" stroke-width="0.4" fill-opacity="0.9"/>
</svg>