<svg xmlns="http://www.w3.org/2000/svg" viewBox="85.2 -15.8 96.6 90.9" width="400" height="300" preserveAspectRatio="xMidYMid meet">
  <rect x="85.2" y="-15.8" width="96.6" height="90.9" fill="#0e0e18"/>
  <path d="M180.0,16.3L180.0,16.8L179.4,17.0L178.7,17.3L178.6,16.9L179.1,16.7L179.4,16.6L180.0,16.3ZM178.1,17.8L178.4,17.6L178.7,17.9L178.6,18.5L177.9,18.6L177.4,18.5L177.3,18.0L177.7,17.7L178.1,17.8ZM-179.8,16.2L-179.9,16.7L-180.0,16.8L-180.0,16.3L-179.8,16.2Z" fill="#1e1e2e" stroke="#2a2a3a" stroke-width="0.3"/>
  <path d="M141.0,2.6L142.7,3.3L144.6,3.9L145.3,4.4L145.8,4.9L146.0,5.5L147.6,6.1L147.9,6.6L147.0,6.7L147.2,7.4L148.1,8.1L148.7,9.1L149.3,9.1L149.3,9.6L150.0,9.7L149.7,9.9L150.8,10.3L150.7,10.6L150.0,10.7L149.8,10.5L148.9,10.3L147.9,10.2L147.1,9.5L146.6,9.0L146.0,8.1L144.7,7.7L143.9,7.9L143.3,8.3L143.4,9.0L142.6,9.4L142.1,9.2L141.0,9.2L141.0,5.9L141.0,2.6ZM152.6,3.7L153.0,4.0L153.1,4.5L152.8,4.8L152.6,4.2L152.4,3.8L152.0,3.5L151.4,3.0L150.7,2.7L150.9,2.5L151.5,2.8L151.8,3.0L152.2,3.2L152.6,3.7ZM151.3,5.9L150.8,6.1L150.2,6.3L149.7,6.3L148.9,6.0L148.3,5.8L148.4,5.4L149.3,5.6L149.8,5.5L150.0,5.0L150.1,5.0L150.2,5.5L150.8,5.5L151.1,5.1L151.6,4.8L151.5,4.2L152.1,4.2L152.3,4.3L152.3,4.9L152.0,5.5L151.5,5.6L151.3,5.9ZM154.8,5.3L155.1,5.6L155.5,6.2L156.0,6.6L155.9,6.8L155.6,6.9L155.2,6.6L154.7,5.9L154.5,5.1L154.7,5.0L154.8,5.3Z" fill="#1e1e2e" stroke="#2a2a3a" stroke-width="0.3"/>
  <path d="M141.0,2.6L141.0,5.9L141.0,9.2L140.1,8.3L139.1,8.1L138.9,8.4L137.6,8.4L138.0,7.6L138.7,7.3L138.4,6.2L137.9,5.4L136.0,4.6L135.2,4.5L133.7,3.5L133.4,4.0L133.0,4.1L132.8,3.7L132.8,3.3L132.0,2.8L133.1,2.5L133.8,2.5L133.7,2.2L132.2,2.2L131.8,1.6L130.9,1.4L130.5,0.9L131.9,0.7L132.4,0.4L134.0,0.8L134.1,1.2L134.4,2.8L135.5,3.4L136.3,2.3L137.4,1.7L138.3,1.7L139.2,2.1L139.9,2.4L141.0,2.6ZM125.0,8.9L125.1,9.1L125.1,9.4L124.4,10.2L123.6,10.4L123.5,10.3L123.6,9.9L124.0,9.3L125.0,8.9ZM134.2,6.9L134.1,6.2L134.3,5.8L134.5,5.5L134.7,5.7L134.7,6.2L134.2,6.9ZM117.9,-4.1L117.3,-3.2L118.0,-2.3L117.9,-1.8L119.0,-0.9L117.8,-0.8L117.5,-0.1L117.5,0.8L116.6,1.5L116.5,2.5L116.1,4.0L116.0,3.7L114.9,4.1L114.5,3.5L113.8,3.4L113.3,3.1L112.1,3.5L111.7,3.0L111.0,3.1L110.2,2.9L110.1,1.6L109.6,1.3L109.1,0.5L109.0,-0.4L109.1,-1.3L109.7,-2.0L109.8,-1.3L110.5,-0.8L111.2,-1.0L111.8,-0.9L112.4,-1.4L112.9,-1.5L113.8,-1.2L114.6,-1.4L115.1,-2.8L115.5,-3.2L115.9,-4.3L117.0,-4.3L117.9,-4.1ZM129.4,2.8L130.5,3.1L130.8,3.9L130.0,3.4L129.2,3.4L128.6,3.4L127.9,3.4L128.1,2.8L129.4,2.8ZM126.9,3.8L126.2,3.6L126.0,3.2L127.0,3.1L127.2,3.5L126.9,3.8ZM127.9,-2.2L128.0,-1.6L128.6,-1.5L128.7,-1.1L128.6,-0.3L128.1,-0.4L128.0,0.3L128.4,0.8L128.1,0.9L127.7,0.3L127.4,-1.0L127.6,-1.8L127.9,-2.2ZM122.9,-0.9L124.1,-0.9L125.1,-1.6L125.2,-1.4L124.4,-0.4L123.7,-0.2L122.7,-0.4L121.1,-0.4L120.2,-0.2L120.0,0.5L120.9,1.4L121.5,1.0L123.3,0.6L123.3,1.1L122.8,0.9L122.4,1.5L121.5,1.9L122.5,3.2L122.3,3.5L123.2,4.7L123.2,5.3L122.6,5.6L122.2,5.3L122.7,4.5L121.7,4.9L121.5,4.6L121.6,4.2L120.9,3.6L121.0,2.6L120.3,2.9L120.4,4.1L120.4,5.5L119.8,5.7L119.4,5.4L119.7,4.5L119.5,3.5L119.1,3.5L118.8,2.8L119.2,2.1L119.3,1.4L119.8,-0.2L120.0,-0.6L120.9,-1.3L121.7,-1.0L122.9,-0.9ZM120.3,10.3L119.0,9.6L119.9,9.4L120.4,9.7L120.8,10.0L120.7,10.3L120.3,10.3ZM121.3,8.6L122.0,8.5L122.9,8.1L122.8,8.7L121.3,9.0L119.9,8.8L119.9,8.5L120.7,8.3L121.3,8.6ZM118.3,8.4L118.9,8.3L119.1,8.7L118.0,8.9L117.3,9.1L116.7,9.1L117.1,8.5L117.6,8.5L117.9,8.1L118.3,8.4ZM108.5,6.4L108.6,6.8L110.5,6.9L110.8,6.5L112.6,7.0L113.0,7.6L114.5,7.8L115.7,8.4L114.6,8.8L113.5,8.4L112.6,8.4L111.5,8.3L110.6,8.1L109.4,7.8L108.7,7.7L108.3,7.8L106.5,7.4L106.3,6.9L105.4,6.9L106.1,5.9L107.3,6.0L108.1,6.4L108.5,6.4ZM104.4,1.1L104.5,1.8L104.9,2.3L105.6,2.4L106.1,3.1L105.9,4.3L105.8,5.9L104.7,5.9L103.9,5.0L102.6,4.2L102.2,3.6L101.4,2.8L100.9,2.1L100.1,0.7L99.3,-0.2L99.0,-1.0L98.6,-1.8L97.7,-2.5L97.2,-3.3L96.4,-3.9L95.4,-5.0L95.3,-5.5L95.9,-5.4L97.5,-5.3L98.4,-4.3L99.1,-3.6L99.7,-3.2L100.6,-2.1L101.7,-2.1L102.5,-1.4L103.1,-0.6L103.8,-0.1L103.4,0.7L104.0,1.1L104.4,1.1Z" fill="#1e1e2e" stroke="#2a2a3a" stroke-width="0.3"/>
  <path d="M125.0,8.9L125.1,8.7L125.9,8.5L126.6,8.4L127.0,8.3L127.3,8.4L127.0,8.7L125.9,9.1L125.1,9.4L125.1,9.1L125.0,8.9Z" fill="#1e1e2e" stroke="#2a2a3a" stroke-width="0.3"/>
  <path d="M167.2,16.1L167.8,16.7L167.5,16.8L167.2,16.4L167.2,16.1ZM166.8,15.9L166.6,15.6L166.6,14.8L167.1,15.1L167.3,15.9L167.0,15.8L166.8,15.9Z" fill="#1e1e2e" stroke="#2a2a3a" stroke-width="0.3"/>
  <path d="M102.6,-12.3L102.3,-13.5L103.0,-14.4L104.3,-14.6L105.2,-14.4L106.0,-14.0L106.5,-14.7L107.4,-14.4L107.6,-13.7L107.5,-12.4L105.8,-11.6L106.2,-11.0L105.2,-11.0L104.3,-10.5L103.5,-10.7L103.1,-11.2L102.6,-12.3Z" fill="#1e1e2e" stroke="#2a2a3a" stroke-width="0.3"/>
  <path d="M105.2,-14.4L104.3,-14.6L103.0,-14.4L102.3,-13.5L102.6,-12.3L101.7,-12.7L100.8,-12.7L101.0,-13.5L100.1,-13.5L100.0,-12.4L99.5,-10.9L99.2,-10.0L99.2,-9.3L99.9,-9.2L100.3,-8.3L100.5,-7.5L101.0,-6.9L101.6,-6.8L102.1,-6.2L101.8,-5.8L101.2,-5.7L101.1,-6.2L100.3,-6.7L100.1,-6.5L99.7,-6.9L99.5,-7.4L99.0,-7.9L98.5,-8.4L98.3,-7.8L98.2,-8.4L98.3,-9.0L98.6,-10.0L99.0,-11.0L99.6,-12.0L99.2,-12.9L99.2,-13.4L99.1,-14.0L98.4,-14.8L98.2,-15.3L98.5,-15.5L98.9,-16.4L98.5,-17.1L97.9,-17.8L97.4,-18.8L97.8,-19.0L98.3,-20.1L99.0,-20.2L99.5,-20.6L100.1,-20.9L100.5,-20.5L100.6,-19.9L101.3,-19.8L101.0,-18.7L101.1,-17.8L102.1,-18.4L102.4,-18.2L103.0,-18.3L103.2,-18.6L104.0,-18.6L104.7,-17.7L104.8,-16.7L105.6,-15.8L105.5,-14.9L105.2,-14.4Z" fill="#1e1e2e" stroke="#2a2a3a" stroke-width="0.3"/>
  <path d="M107.4,-14.4L106.5,-14.7L106.0,-14.0L105.2,-14.4L105.5,-14.9L105.6,-15.8L104.8,-16.7L104.7,-17.7L104.0,-18.6L103.2,-18.6L103.0,-18.3L102.4,-18.2L102.1,-18.4L101.1,-17.8L101.0,-18.7L101.3,-19.8L100.6,-19.9L100.5,-20.5L100.1,-20.9L100.3,-21.3L101.2,-22.0L101.3,-21.7L101.8,-21.7L101.7,-22.9L102.2,-23.1L102.8,-22.2L103.2,-21.2L104.4,-21.2L104.8,-20.3L104.2,-20.0L103.9,-19.6L105.1,-19.0L105.9,-17.8L106.6,-16.8L107.3,-16.1L107.6,-15.4L107.4,-14.4Z" fill="#1e1e2e" stroke="#2a2a3a" stroke-width="0.3"/>
  <path d="M100.1,-20.9L99.5,-20.6L99.0,-20.2L98.3,-20.1L97.8,-19.0L97.4,-18.8L97.9,-17.8L98.5,-17.1L98.9,-16.4L98.5,-15.5L98.2,-15.3L98.4,-14.8L99.1,-14.0L99.2,-13.4L99.2,-12.9L99.6,-12.0L99.0,-11.0L98.6,-10.0L98.5,-10.7L98.8,-11.5L98.4,-12.1L98.5,-13.2L98.1,-13.8L97.8,-15.0L97.6,-16.3L97.2,-17.2L96.5,-16.7L95.4,-15.9L94.8,-16.0L94.2,-16.3L94.5,-17.5L94.3,-18.5L93.5,-19.7L93.7,-20.1L93.1,-20.3L92.4,-21.1L92.3,-22.0L92.7,-21.8L92.7,-22.6L93.2,-22.9L93.1,-23.3L93.3,-23.7L93.3,-24.8L94.1,-24.6L94.6,-25.5L94.6,-26.0L95.2,-26.9L95.1,-27.6L96.4,-28.4L97.1,-28.2L97.1,-28.8L97.4,-29.1L97.3,-29.5L97.9,-29.6L98.2,-28.9L98.7,-28.6L98.7,-27.8L98.7,-26.9L97.7,-25.9L97.6,-24.6L98.7,-24.8L98.9,-23.8L99.5,-23.6L99.2,-22.7L100.0,-22.3L100.4,-22.1L101.2,-22.4L101.2,-22.0L100.3,-21.3L100.1,-20.9Z" fill="#1e1e2e" stroke="#2a2a3a" stroke-width="0.3"/>
  <path d="M104.3,-10.5L105.2,-11.0L106.2,-11.0L105.8,-11.6L107.5,-12.4L107.6,-13.7L107.4,-14.4L107.6,-15.4L107.3,-16.1L106.6,-16.8L105.9,-17.8L105.1,-19.0L103.9,-19.6L104.2,-20.0L104.8,-20.3L104.4,-21.2L103.2,-21.2L102.8,-22.2L102.2,-23.1L102.7,-23.3L103.5,-23.3L104.5,-23.4L105.3,-24.0L105.8,-23.6L106.7,-23.4L106.6,-22.8L107.0,-22.4L108.1,-22.1L106.7,-21.2L105.9,-20.2L105.7,-19.4L106.4,-18.3L107.4,-16.9L108.3,-16.3L108.9,-15.5L109.3,-13.6L109.2,-11.7L108.4,-11.1L107.2,-10.4L106.4,-9.6L105.2,-8.6L104.8,-9.3L105.1,-10.0L104.3,-10.5Z" fill="#1e1e2e" stroke="#2a2a3a" stroke-width="0.3"/>
  <path d="M97.3,-29.5L97.4,-29.1L97.1,-28.8L97.1,-28.2L96.4,-28.4L95.1,-27.6L95.2,-26.9L94.6,-26.0L94.6,-25.5L94.1,-24.6L93.3,-24.8L93.3,-23.7L93.1,-23.3L93.2,-22.9L92.7,-22.6L92.1,-24.3L91.9,-24.3L91.7,-23.6L91.2,-24.2L91.5,-24.8L91.9,-24.9L92.4,-25.8L91.8,-26.0L90.9,-26.0L89.9,-26.1L89.8,-26.9L89.4,-27.0L88.6,-27.4L88.2,-26.7L88.9,-26.1L88.3,-25.7L88.1,-25.3L88.7,-25.0L88.5,-24.3L88.9,-23.5L89.0,-22.6L88.9,-22.2L88.2,-22.2L87.0,-22.0L87.0,-21.2L86.5,-20.6L85.1,-19.9L83.9,-18.6L83.2,-18.0L82.2,-17.3L82.2,-16.8L81.7,-16.5L80.8,-16.2L80.3,-16.1L80.0,-15.3L80.2,-14.0L80.3,-13.1L79.9,-12.1L79.9,-10.4L79.3,-10.4L78.9,-9.6L79.2,-9.3L78.3,-9.0L77.9,-8.3L77.5,-8.0L76.6,-8.9L76.1,-10.4L75.7,-11.4L75.4,-11.9L74.9,-12.8L74.6,-14.1L74.4,-14.8L73.5,-16.2L73.1,-18.2L72.8,-19.6L72.8,-20.9L72.6,-21.9L71.2,-21.2L70.5,-21.4L69.2,-22.7L69.6,-23.0L69.3,-23.5L68.2,-24.4L68.8,-25.1L71.0,-25.1L70.8,-26.1L70.3,-26.6L70.2,-27.5L69.5,-28.0L70.6,-29.2L71.8,-29.1L72.8,-30.3L73.5,-31.4L74.4,-32.6L74.4,-33.4L75.3,-34.1L74.5,-34.7L74.1,-35.5L73.7,-36.6L74.2,-37.1L75.8,-36.8L76.9,-37.0L77.8,-38.0L78.9,-36.6L78.8,-35.6L79.2,-35.0L79.2,-34.4L78.5,-34.5L78.7,-33.2L79.7,-32.5L81.1,-31.7L80.5,-31.2L80.1,-30.1L81.1,-29.7L82.0,-29.1L83.3,-28.5L84.7,-28.3L85.3,-27.8L86.0,-27.6L87.2,-27.4L88.1,-27.4L88.2,-27.8L88.0,-28.6L88.1,-29.0L88.7,-29.3L88.8,-28.4L88.8,-28.2L89.7,-27.7L90.4,-27.9L91.2,-27.8L92.0,-27.9L92.1,-28.6L91.7,-28.9L92.5,-29.1L93.4,-29.9L94.6,-30.6L95.4,-30.4L96.1,-30.8L96.6,-30.1L96.2,-29.7L97.3,-29.5Z" fill="#1e1e2e" stroke="#2a2a3a" stroke-width="0.3"/>
  <path d="M165.8,21.6L166.6,22.2L167.1,22.7L166.7,23.0L166.2,22.7L165.5,22.2L164.8,21.6L164.2,20.9L164.0,20.5L164.5,20.5L165.0,20.9L165.5,21.3L165.8,21.6Z" fill="#1e1e2e" stroke="#2a2a3a" stroke-width="0.3"/>
  <path d="M162.1,10.5L162.4,10.9L161.7,10.9L161.3,10.3L161.9,10.5L162.1,10.5ZM161.7,9.6L161.5,9.8L160.8,9.0L160.6,8.3L160.9,8.3L161.3,9.2L161.7,9.6ZM160.9,9.9L160.5,9.9L159.8,9.8L159.6,9.7L159.7,9.3L160.4,9.4L160.7,9.7L160.9,9.9ZM159.6,8.0L159.9,8.4L159.9,8.6L159.1,8.1L158.6,7.8L158.2,7.4L158.4,7.3L158.8,7.6L159.6,8.0ZM157.1,7.0L157.5,7.4L157.3,7.4L156.9,7.2L156.5,6.8L156.5,6.6L157.1,7.0Z" fill="#1e1e2e" stroke="#2a2a3a" stroke-width="0.3"/>
  <path d="M176.9,43.8L176.5,44.5L176.0,45.4L175.2,45.9L175.1,45.6L174.7,45.4L175.2,44.3L174.9,43.6L173.8,43.1L173.9,42.6L174.6,42.2L174.7,41.2L174.7,40.4L174.3,39.5L174.3,39.3L173.8,38.8L173.1,37.7L172.6,36.8L173.0,36.7L173.6,37.4L174.3,37.7L174.6,38.8L175.3,40.1L175.4,39.3L175.8,39.6L176.0,40.6L176.8,41.0L177.4,41.1L178.0,40.6L178.5,40.8L178.3,41.9L178.0,42.6L177.2,42.6L176.9,43.0L177.0,43.6L176.9,43.8ZM169.7,48.5L170.5,47.8L171.1,47.1L171.6,46.0L171.9,45.7L172.1,45.0L172.8,44.4L173.0,44.9L173.2,45.5L174.0,44.9L174.2,45.5L174.2,46.1L173.9,46.7L173.2,47.7L172.7,48.2L173.1,48.9L172.3,48.9L171.5,49.4L171.2,50.4L170.6,51.8L169.8,52.4L169.3,52.9L168.4,52.8L167.8,52.3L166.7,52.2L166.5,51.7L167.0,50.7L168.3,49.3L168.9,49.0L169.7,48.5Z" fill="#1e1e2e" stroke="#2a2a3a" stroke-width="0.3"/>
  <path d="M120.8,-12.8L120.3,-13.6L121.2,-13.6L121.5,-13.2L121.3,-12.3L120.8,-12.8ZM122.6,-10.0L122.8,-10.3L122.9,-10.9L123.5,-11.0L123.3,-10.3L124.1,-11.3L124.0,-10.3L123.6,-10.0L123.3,-9.4L123.0,-9.1L122.4,-9.8L122.6,-10.0ZM126.4,-8.4L126.5,-7.8L126.5,-7.2L126.2,-6.3L125.8,-7.3L125.4,-6.8L125.7,-6.1L125.4,-5.6L124.2,-6.2L123.9,-6.9L124.2,-7.4L123.6,-7.9L123.3,-7.4L122.8,-7.5L122.1,-6.9L121.9,-7.2L122.3,-8.1L122.9,-8.3L123.5,-8.7L123.8,-8.3L124.6,-8.5L124.8,-9.0L125.5,-9.0L125.4,-9.8L126.2,-9.3L126.3,-8.8L126.4,-8.4ZM118.5,-9.4L117.2,-8.4L117.7,-9.1L118.4,-9.7L119.0,-10.4L119.5,-11.4L119.7,-10.6L119.0,-10.1L118.5,-9.4ZM122.3,-18.5L122.2,-18.1L122.5,-17.4L122.3,-16.5L121.7,-16.1L121.5,-15.3L121.7,-14.5L122.3,-14.4L122.7,-14.5L124.0,-13.9L123.9,-13.4L124.2,-13.1L124.1,-12.6L123.3,-13.1L122.9,-13.7L122.7,-13.3L122.0,-13.9L121.1,-13.8L120.6,-14.0L120.7,-14.4L121.0,-14.7L120.7,-14.9L120.6,-14.6L120.1,-15.1L119.9,-15.6L119.9,-16.6L120.3,-16.2L120.4,-17.9L120.7,-18.8L121.3,-18.8L121.9,-18.5L122.2,-18.8L122.3,-18.5ZM122.0,-11.5L121.9,-12.0L122.5,-11.7L123.1,-11.7L123.1,-11.2L122.6,-10.8L122.0,-10.5L122.0,-11.0L122.0,-11.5ZM125.5,-12.3L125.8,-11.1L125.0,-11.4L125.0,-11.0L125.3,-10.4L124.8,-10.2L124.8,-10.9L124.5,-11.0L124.3,-11.6L124.9,-11.5L124.9,-11.9L124.3,-12.7L125.2,-12.6L125.5,-12.3Z" fill="#1e1e2e" stroke="#2a2a3a" stroke-width="0.3"/>
  <path d="M100.1,-6.5L100.3,-6.7L101.1,-6.2L101.2,-5.7L101.8,-5.8L102.1,-6.2L102.4,-6.1L103.0,-5.5L103.4,-4.9L103.4,-4.2L103.3,-3.7L103.4,-3.4L103.5,-2.8L103.9,-2.5L104.2,-1.6L104.2,-1.3L103.5,-1.2L102.6,-2.0L101.4,-2.8L101.3,-3.3L100.7,-3.9L100.6,-4.8L100.2,-5.3L100.3,-6.1L100.1,-6.5ZM117.9,-4.1L117.0,-4.3L115.9,-4.3L115.5,-3.2L115.1,-2.8L114.6,-1.4L113.8,-1.2L112.9,-1.5L112.4,-1.4L111.8,-0.9L111.2,-1.0L110.5,-0.8L109.8,-1.3L109.7,-2.0L110.4,-1.7L111.2,-1.9L111.4,-2.7L111.8,-2.9L113.0,-3.1L113.7,-3.9L114.2,-4.5L114.7,-4.0L114.9,-4.4L115.3,-4.3L115.4,-5.0L115.5,-5.5L116.2,-6.2L116.7,-6.9L117.1,-6.9L117.6,-6.4L117.7,-6.0L118.3,-5.7L119.2,-5.4L119.1,-5.0L118.4,-5.0L118.6,-4.5L117.9,-4.1Z" fill="#1e1e2e" stroke="#2a2a3a" stroke-width="0.3"/>
  <path d="M115.5,-5.5L115.4,-5.0L115.3,-4.3L114.9,-4.4L114.7,-4.0L114.2,-4.5L114.6,-4.9L115.5,-5.5Z" fill="#1e1e2e" stroke="#2a2a3a" stroke-width="0.3"/>
  <path d="M147.7,44.8L148.3,44.9L148.4,46.4L148.0,46.9L147.9,48.0L147.6,47.6L146.9,48.6L146.7,48.5L146.0,48.5L145.4,47.3L145.3,46.4L144.7,45.2L144.7,44.6L145.4,44.8L146.4,45.2L146.9,45.0L147.7,44.8ZM126.1,34.1L125.1,34.7L124.2,34.9L124.0,35.6L123.7,36.1L122.8,36.1L122.2,36.2L121.3,36.0L120.6,36.1L119.9,36.2L119.3,36.8L119.0,36.8L118.5,37.1L118.0,37.5L117.3,37.4L116.6,37.4L115.6,36.7L115.0,36.4L115.0,35.7L115.5,35.6L115.7,35.3L115.7,34.9L115.8,34.0L115.7,33.4L115.2,32.2L115.0,31.5L115.0,30.9L114.6,30.1L114.6,29.8L114.2,29.3L114.0,28.4L113.5,27.5L113.3,27.1L113.8,27.6L113.4,26.5L113.9,26.8L114.2,27.3L114.2,26.7L113.7,25.8L113.6,25.5L113.4,25.2L113.5,24.5L113.7,24.3L113.8,23.7L113.7,23.1L114.1,22.3L114.2,23.1L114.6,22.4L115.5,22.0L115.9,21.6L116.7,21.2L117.2,21.1L117.4,21.2L118.2,20.8L118.8,20.7L119.0,20.5L119.3,20.4L119.8,20.4L120.9,20.1L121.4,19.6L121.7,19.0L122.2,18.5L122.3,18.1L122.3,17.5L123.0,16.6L123.4,17.5L123.9,17.3L123.5,16.8L123.8,16.3L124.3,16.6L124.4,15.8L124.9,15.3L125.2,14.8L125.7,14.7L125.7,14.4L126.1,14.5L126.1,14.2L126.6,14.1L127.1,14.0L127.8,14.4L128.4,15.0L129.0,15.0L129.6,15.1L129.4,14.6L129.9,13.7L130.3,13.5L130.2,13.2L130.6,12.6L131.2,12.3L131.7,12.4L132.6,12.2L132.6,11.7L131.8,11.3L132.4,11.2L133.0,11.5L133.6,11.9L134.4,12.1L134.7,12.0L135.3,12.3L135.9,12.1L136.3,12.1L136.5,11.9L137.0,12.4L136.7,13.0L136.3,13.4L136.0,13.4L136.1,13.9L135.8,14.4L135.4,14.9L135.5,15.2L136.3,15.7L137.1,16.1L137.6,16.4L138.3,17.1L138.6,17.1L139.1,17.3L139.3,17.6L140.2,18.0L140.9,17.6L141.1,17.1L141.3,16.6L141.4,16.0L141.7,15.2L141.6,14.7L141.6,14.4L141.5,13.8L141.7,13.1L141.8,12.8L141.7,12.5L141.9,12.0L142.1,11.4L142.1,11.1L142.5,10.7L142.8,11.2L142.9,11.9L143.1,12.0L143.2,12.4L143.5,12.9L143.6,13.5L143.6,13.9L143.9,14.7L144.6,14.3L144.9,14.8L145.4,15.2L145.3,15.6L145.5,16.5L145.6,17.0L145.9,17.2L146.2,18.1L146.1,18.6L146.4,19.3L147.5,19.9L148.2,20.4L148.8,20.8L148.7,21.1L149.3,21.8L149.7,22.9L150.1,22.7L150.5,23.2L150.7,23.0L150.9,24.1L151.6,24.8L152.1,25.2L152.9,26.1L153.1,27.0L153.2,27.7L153.1,28.4L153.6,29.3L153.5,30.3L153.3,30.8L153.1,31.9L153.1,32.5L152.9,33.4L152.5,34.5L151.7,35.0L151.3,36.0L151.0,36.6L150.7,37.6L150.3,38.2L150.1,39.2L149.9,40.0L150.0,40.4L149.4,40.8L148.3,40.9L147.4,41.4L146.9,41.9L146.3,42.5L145.5,41.9L144.9,41.7L145.0,41.0L144.5,41.2L143.6,42.2L142.7,41.8L142.2,41.6L141.6,41.5L140.6,41.2L140.0,40.4L139.8,39.4L139.6,38.8L139.1,38.3L138.1,38.2L138.4,37.6L138.2,36.7L137.7,37.5L136.8,37.7L137.4,37.0L137.5,36.3L137.9,35.8L137.8,34.9L137.0,35.9L136.4,36.3L136.0,37.3L135.2,36.8L135.2,36.1L134.6,35.3L134.1,34.8L134.3,34.5L133.0,33.8L132.3,33.8L131.3,33.2L129.5,33.3L128.2,33.7L127.1,34.1L126.1,34.1Z" fill="#00e5ff" stroke="#00c4dd" stroke-width="0.4" fill-opacity="0.9"/>
</svg>