<svg xmlns="http://www.w3.org/2000/svg" viewBox="7.48 -51.04 11.50 6.61" width="300" height="300" preserveAspectRatio="xMidYMid meet">
  <path d="M16.98,-48.12L16.90,-47.71L16.34,-47.71L16.53,-47.50L16.20,-46.85L16.01,-46.68L15.14,-46.66L14.63,-46.43L13.81,-46.51L12.38,-46.77L12.15,-47.12L11.16,-46.94L11.05,-46.75L10.44,-46.89L9.93,-46.92L9.48,-47.10L9.63,-47.35L9.59,-47.53L9.90,-47.58L10.40,-47.30L10.54,-47.57L11.43,-47.52L12.14,-47.70L12.62,-47.67L12.93,-47.47L13.03,-47.64L12.88,-48.29L13.24,-48.42L13.60,-48.88L14.34,-48.56L14.90,-48.96L15.25,-49.04L16.03,-48.73L16.50,-48.79L16.96,-48.60L16.88,-48.47L16.98,-48.12Z" fill="#00e5ff" stroke="#00e5ff" stroke-width="0.5" fill-opacity="0.8"/>
</svg>