<svg xmlns="http://www.w3.org/2000/svg" viewBox="111.34 8.67 44.23 36.96" width="300" height="300" preserveAspectRatio="xMidYMid meet">
  <path d="M147.69,40.81L148.29,40.88L148.36,42.06L148.02,42.41L147.91,43.21L147.56,42.94L146.87,43.63L146.66,43.58L146.05,43.55L145.43,42.69L145.30,42.03L144.72,41.16L144.74,40.70L145.40,40.79L146.36,41.14L146.91,41.00L147.69,40.81ZM126.15,32.22L125.09,32.73L124.22,32.96L124.03,33.48L123.66,33.89L122.81,33.91L122.18,34.00L121.30,33.82L120.58,33.93L119.89,33.98L119.30,34.51L119.01,34.46L118.51,34.75L118.02,35.06L117.30,35.03L116.63,35.03L115.56,34.39L115.03,34.20L115.05,33.62L115.55,33.49L115.71,33.26L115.68,32.90L115.80,32.21L115.69,31.61L115.16,30.60L115.00,30.03L115.04,29.46L114.64,28.81L114.62,28.52L114.17,28.12L114.05,27.33L113.48,26.54L113.34,26.12L113.78,26.55L113.44,25.62L113.94,25.91L114.23,26.30L114.22,25.79L113.72,25.00L113.63,24.68L113.39,24.38L113.50,23.81L113.71,23.56L113.84,23.06L113.74,22.48L114.15,21.76L114.23,22.52L114.65,21.83L115.46,21.50L115.95,21.07L116.71,20.70L117.17,20.62L117.44,20.75L118.23,20.37L118.84,20.26L118.99,20.04L119.25,19.95L119.81,19.98L120.86,19.68L121.40,19.24L121.66,18.71L122.24,18.20L122.29,17.80L122.31,17.25L123.01,16.41L123.43,17.27L123.86,17.07L123.50,16.60L123.82,16.11L124.26,16.33L124.38,15.57L124.93,15.08L125.17,14.68L125.67,14.51L125.69,14.23L126.13,14.35L126.14,14.10L126.58,13.95L127.07,13.82L127.80,14.28L128.36,14.87L128.99,14.88L129.62,14.97L129.41,14.42L129.89,13.62L130.34,13.36L130.18,13.11L130.62,12.54L131.22,12.18L131.74,12.30L132.58,12.11L132.56,11.60L131.82,11.27L132.36,11.13L133.02,11.38L133.55,11.79L134.39,12.04L134.68,11.94L135.30,12.25L135.88,11.96L136.26,12.05L136.49,11.86L136.95,12.35L136.69,12.89L136.31,13.29L135.96,13.32L136.08,13.72L135.78,14.22L135.43,14.72L135.50,15.00L136.30,15.55L137.07,15.87L137.58,16.22L138.30,16.81L138.59,16.81L139.11,17.06L139.26,17.37L140.22,17.71L140.88,17.37L141.07,16.83L141.27,16.39L141.40,15.84L141.70,15.04L141.56,14.56L141.64,14.27L141.52,13.70L141.65,12.94L141.84,12.74L141.69,12.41L141.93,11.88L142.12,11.33L142.14,11.04L142.52,10.67L142.80,11.16L142.87,11.78L143.12,11.91L143.16,12.33L143.52,12.83L143.60,13.40L143.56,13.76L143.92,14.55L144.56,14.17L144.89,14.59L145.37,14.98L145.27,15.43L145.49,16.29L145.64,16.78L145.89,16.91L146.16,17.76L146.06,18.28L146.39,18.96L147.47,19.48L148.18,19.96L148.85,20.39L148.72,20.63L149.29,21.26L149.68,22.34L150.08,22.12L150.48,22.56L150.73,22.40L150.90,23.46L151.61,24.08L152.07,24.46L152.86,25.27L153.14,26.07L153.16,26.64L153.09,27.26L153.57,28.11L153.51,29.00L153.34,29.46L153.07,30.35L153.09,30.92L152.89,31.64L152.45,32.55L151.71,33.04L151.34,33.82L151.01,34.31L150.71,35.17L150.33,35.67L150.08,36.42L149.95,37.11L150.00,37.43L149.42,37.77L148.30,37.81L147.38,38.22L146.92,38.61L146.32,39.04L145.49,38.59L144.88,38.42L145.03,37.90L144.49,38.09L143.61,38.81L142.75,38.54L142.18,38.38L141.61,38.31L140.64,38.02L139.99,37.40L139.81,36.64L139.57,36.14L139.08,35.73L138.12,35.61L138.45,35.13L138.21,34.38L137.72,35.08L136.83,35.26L137.35,34.71L137.50,34.13L137.89,33.64L137.81,32.90L137.00,33.75L136.37,34.09L135.99,34.89L135.21,34.48L135.24,33.95L134.61,33.22L134.09,32.85L134.27,32.62L132.99,32.01L132.29,31.98L131.33,31.50L129.54,31.59L128.24,31.95L127.10,32.28L126.15,32.22Z" fill="#00e5ff" stroke="#00e5ff" stroke-width="0.5" fill-opacity="0.8"/>
</svg>