<svg xmlns="http://www.w3.org/2000/svg" viewBox="29.8 -61.2 35.6 34.7" width="400" height="300" preserveAspectRatio="xMidYMid meet">
  <rect x="29.8" y="-61.2" width="35.6" height="34.7" fill="#0e0e18"/>
  <path d="M87.4,-56.7L86.6,-55.7L85.8,-55.5L85.7,-54.0L85.2,-53.4L83.2,-53.9L82.5,-51.3L81.9,-50.9L80.0,-50.4L80.9,-48.0L80.2,-47.6L80.3,-46.8L79.6,-47.0L79.1,-47.5L77.7,-47.7L76.0,-47.7L75.6,-47.6L74.2,-48.1L73.6,-47.8L73.5,-47.0L71.8,-47.5L71.2,-47.3L71.0,-46.7L70.4,-46.5L69.1,-45.5L68.6,-44.6L68.3,-44.6L68.0,-45.2L66.7,-45.3L66.5,-46.3L66.0,-46.4L66.1,-47.7L64.9,-48.7L63.2,-48.6L62.0,-48.4L61.1,-49.7L60.2,-50.2L58.7,-51.2L58.5,-51.3L55.9,-50.5L56.0,-45.4L55.5,-45.4L54.8,-46.4L54.1,-46.8L52.9,-46.5L52.5,-46.1L52.4,-46.4L52.7,-47.0L52.5,-47.4L51.3,-47.9L50.9,-49.1L50.3,-49.5L50.3,-49.9L51.3,-49.8L51.3,-50.8L52.2,-51.1L53.0,-50.9L53.2,-52.3L53.0,-53.2L52.0,-53.1L51.2,-53.5L50.0,-52.8L49.1,-52.5L48.6,-52.7L48.7,-53.5L48.1,-54.5L47.3,-54.4L46.5,-55.5L47.0,-56.6L46.8,-56.9L47.5,-58.6L48.6,-57.7L48.7,-58.9L50.8,-60.6L52.3,-60.6L54.5,-59.5L55.7,-58.9L56.8,-59.5L58.4,-59.6L59.6,-58.8L59.9,-59.2L61.3,-59.2L61.6,-59.9L60.0,-61.0L60.9,-61.8L60.7,-62.3L61.7,-62.7L61.0,-63.8L61.4,-64.4L65.2,-65.0L65.7,-65.4L68.2,-66.1L69.1,-66.8L70.9,-66.4L71.2,-64.6L72.2,-65.1L73.5,-64.5L73.4,-63.5L74.4,-63.6L76.9,-65.3L76.5,-64.7L77.8,-63.4L80.0,-59.3L80.6,-60.1L81.9,-59.2L83.4,-59.6L83.9,-59.3L84.4,-58.4L85.1,-58.1L85.5,-57.4L86.8,-57.6L87.4,-56.7Z" fill="#1e1e2e" stroke="#2a2a3a" stroke-width="0.3"/>
  <path d="M56.0,-45.4L55.9,-50.5L58.5,-51.3L58.7,-51.2L60.2,-50.2L61.1,-49.7L62.0,-48.4L63.2,-48.6L64.9,-48.7L66.1,-47.7L66.0,-46.4L66.5,-46.3L66.7,-45.3L68.0,-45.2L68.3,-44.6L68.6,-44.6L69.1,-45.5L70.4,-46.5L71.0,-46.7L71.3,-46.6L70.4,-45.7L71.2,-45.2L71.9,-45.5L73.1,-44.8L71.8,-43.9L71.0,-44.0L70.6,-44.0L70.5,-44.4L70.7,-45.0L69.3,-44.7L69.0,-43.8L68.5,-43.1L67.7,-43.2L67.4,-42.6L68.2,-42.3L68.4,-41.3L67.8,-40.1L67.1,-40.3L66.5,-40.3L66.5,-41.1L65.2,-41.7L64.2,-42.3L63.5,-42.9L62.4,-43.8L61.9,-45.1L61.5,-45.4L60.5,-45.3L60.1,-45.6L60.0,-46.7L58.6,-47.4L57.8,-46.6L56.9,-46.1L57.1,-45.5L56.0,-45.4Z" fill="#1e1e2e" stroke="#2a2a3a" stroke-width="0.3"/>
  <path d="M178.7,-102.7L180.0,-104.0L180.0,-101.9L178.9,-101.8L178.7,-102.7ZM49.1,-52.5L48.6,-51.6L47.7,-51.4L46.7,-49.9L47.6,-48.6L47.5,-47.7L48.6,-46.1L48.6,-46.1L48.0,-45.6L47.8,-45.2L47.4,-45.3L46.7,-46.1L46.4,-46.2L45.8,-46.5L45.5,-47.0L44.5,-47.3L43.9,-47.1L43.8,-47.4L42.4,-48.0L40.9,-48.2L40.1,-48.5L40.0,-48.3L38.7,-49.5L37.5,-50.0L36.7,-50.8L37.4,-51.1L38.2,-52.3L37.7,-52.8L39.1,-53.4L39.1,-53.8L38.2,-53.5L38.3,-54.2L38.8,-54.6L39.7,-54.7L39.9,-55.2L39.7,-56.0L40.1,-56.8L40.1,-57.3L38.6,-57.8L38.0,-57.8L37.4,-58.5L36.6,-58.3L35.4,-58.8L35.4,-59.1L35.0,-59.8L34.2,-59.9L34.1,-60.4L34.4,-60.7L33.8,-61.6L32.7,-61.5L32.4,-61.6L32.2,-61.2L31.8,-61.3L31.8,-61.3L31.5,-62.3L31.3,-62.9L31.5,-63.0L32.3,-63.0L32.7,-63.3L32.4,-63.8L31.7,-64.1L31.8,-64.4L31.4,-64.7L30.8,-65.8L31.0,-66.3L30.9,-67.1L29.9,-67.5L29.4,-67.3L29.2,-67.8L28.2,-68.2L27.9,-69.3L27.8,-70.2L27.3,-70.6L27.7,-71.2L27.4,-73.0L28.1,-74.1L28.0,-74.4L28.0,-74.4L29.1,-75.5L28.1,-76.5L28.1,-76.5L30.2,-79.1L31.1,-80.3L31.5,-81.5L30.0,-83.0L30.4,-84.5L29.5,-86.2L30.2,-88.3L29.1,-91.1L30.0,-93.0L28.4,-94.8L28.6,-96.8L29.4,-97.0L31.1,-98.2L31.1,-98.2L32.1,-99.2L33.8,-97.4L36.5,-96.8L40.3,-93.7L41.1,-92.4L41.1,-90.7L40.0,-89.4L38.4,-88.7L33.9,-90.6L33.2,-90.3L34.8,-88.5L34.9,-87.4L34.9,-84.9L36.2,-84.2L37.0,-83.6L37.1,-84.8L36.5,-85.8L37.2,-86.7L39.6,-85.2L40.4,-85.8L39.8,-87.5L42.1,-89.9L43.0,-89.8L43.9,-88.9L44.5,-90.6L43.7,-92.1L44.2,-93.7L43.5,-95.4L46.3,-94.5L46.8,-93.0L45.6,-92.7L45.6,-91.3L46.3,-90.4L47.9,-90.9L48.1,-92.6L50.2,-93.8L53.7,-96.2L54.5,-96.0L53.5,-94.4L54.7,-94.1L55.4,-95.0L57.3,-95.1L58.8,-96.2L59.9,-94.6L61.1,-96.4L60.0,-98.0L60.5,-99.0L63.5,-98.1L64.9,-97.2L68.5,-94.1L69.2,-95.5L68.2,-97.0L68.1,-97.6L66.9,-97.9L67.3,-99.2L66.7,-101.5L66.7,-102.5L68.5,-105.4L69.2,-108.4L69.9,-109.0L72.6,-108.1L72.8,-106.3L71.8,-103.7L72.5,-102.7L72.8,-100.6L72.6,-96.6L73.7,-94.9L73.2,-93.2L71.3,-89.5L72.4,-89.2L72.8,-90.0L73.9,-90.7L74.2,-92.0L75.1,-93.2L74.5,-94.7L74.9,-96.5L73.8,-96.8L73.6,-98.4L74.4,-101.3L73.1,-103.8L74.9,-106.0L74.7,-108.3L75.2,-108.4L75.7,-106.6L75.3,-103.5L76.4,-102.9L75.9,-105.2L77.6,-106.5L79.7,-106.6L81.5,-104.8L80.6,-107.5L80.5,-111.2L82.3,-111.9L84.7,-111.7L86.8,-112.2L86.0,-114.1L87.2,-116.6L88.3,-116.7L90.3,-118.7L92.9,-119.2L93.2,-120.4L95.9,-120.7L96.7,-119.8L98.9,-122.0L100.8,-122.0L101.0,-123.8L102.0,-125.7L104.4,-127.6L106.1,-126.1L104.7,-125.0L107.0,-124.3L107.2,-122.2L108.2,-123.2L111.1,-123.2L113.3,-121.1L114.1,-119.5L113.9,-117.5L112.8,-116.3L110.2,-114.2L109.4,-113.1L110.6,-112.6L112.1,-111.7L113.0,-112.3L113.5,-110.1L114.0,-111.0L115.6,-111.5L118.8,-111.0L119.0,-109.3L123.2,-108.8L123.3,-111.5L125.4,-110.9L127.0,-110.9L128.6,-109.0L129.1,-106.9L128.5,-105.5L129.7,-103.0L131.3,-101.8L132.3,-105.1L133.9,-103.6L135.6,-104.5L137.5,-103.5L138.2,-104.4L139.9,-103.9L139.1,-106.9L140.5,-108.4L149.5,-106.2L150.4,-104.3L153.0,-101.9L157.0,-102.5L159.0,-102.0L159.8,-100.8L159.7,-98.6L160.9,-97.8L162.3,-98.4L164.1,-98.5L165.9,-97.9L167.8,-98.2L169.6,-95.7L170.8,-96.6L170.0,-98.4L170.5,-99.7L173.6,-98.9L175.7,-99.1L178.6,-97.7L180.0,-96.5L180.0,-86.3L180.0,-86.3L178.7,-85.2L177.4,-85.4L178.3,-84.2L178.9,-82.3L179.4,-81.7L179.5,-80.8L179.2,-80.2L177.4,-80.7L174.6,-79.1L173.7,-78.8L172.2,-77.4L170.7,-76.1L170.3,-75.2L168.9,-76.6L166.3,-75.0L165.8,-75.8L164.9,-74.9L163.5,-75.2L163.2,-73.9L162.0,-72.0L162.1,-71.3L163.2,-70.8L163.1,-68.2L162.1,-68.1L161.7,-66.6L162.1,-65.9L160.4,-65.0L160.0,-63.1L158.5,-62.7L158.2,-61.0L156.8,-59.5L156.4,-60.6L156.0,-63.0L155.4,-66.8L155.9,-69.3L156.8,-70.4L156.8,-71.3L158.4,-71.7L160.2,-74.1L161.9,-76.1L163.7,-77.8L164.5,-80.8L163.3,-80.6L162.7,-78.8L160.1,-76.6L159.3,-79.1L156.7,-78.4L154.2,-75.0L155.0,-73.8L152.8,-73.3L151.3,-73.1L151.3,-74.5L149.8,-74.8L148.5,-73.8L145.5,-74.1L142.2,-73.6L139.0,-69.9L135.1,-65.7L136.7,-65.4L137.2,-64.4L138.2,-64.0L138.8,-64.8L139.9,-64.7L141.3,-62.9L141.4,-61.5L140.6,-59.9L140.5,-58.0L140.1,-55.5L138.6,-53.4L138.2,-52.4L136.9,-50.7L135.5,-49.1L134.9,-48.3L133.5,-47.5L132.9,-47.4L132.3,-48.1L130.9,-47.1L130.8,-46.7L130.8,-46.7L130.8,-46.7L130.8,-46.7L130.6,-46.9L130.6,-46.9L130.6,-47.6L131.1,-47.6L131.3,-49.3L131.0,-50.5L131.9,-51.0L133.1,-50.7L133.8,-52.1L134.1,-53.7L134.5,-54.2L135.0,-55.6L133.4,-55.1L132.5,-54.5L131.0,-54.5L130.6,-56.0L129.4,-57.0L127.7,-57.5L127.3,-59.1L126.9,-60.0L126.6,-60.7L125.9,-62.4L125.1,-63.0L123.6,-63.5L122.2,-63.5L121.0,-63.1L120.2,-62.3L120.7,-61.9L120.7,-61.0L120.2,-60.5L119.3,-58.8L119.3,-58.1L117.9,-57.2L116.7,-57.7L115.5,-57.6L115.0,-58.1L114.4,-58.3L112.9,-57.2L111.6,-56.9L110.7,-56.6L109.4,-56.8L108.5,-56.8L107.9,-57.6L106.9,-58.3L105.9,-58.5L104.6,-58.3L103.7,-58.0L102.3,-58.7L102.1,-59.9L100.9,-60.3L100.0,-60.5L98.9,-61.2L97.8,-59.5L98.2,-58.6L97.3,-57.5L95.8,-57.9L94.8,-57.9L94.1,-58.7L93.1,-58.7L92.2,-59.2L90.7,-58.4L88.8,-57.1L87.8,-56.8L87.4,-56.7L86.8,-57.6L85.5,-57.4L85.1,-58.1L84.4,-58.4L83.9,-59.3L83.4,-59.6L81.9,-59.2L80.6,-60.1L80.0,-59.3L77.8,-63.4L76.5,-64.7L76.9,-65.3L74.4,-63.6L73.4,-63.5L73.5,-64.5L72.2,-65.1L71.2,-64.6L70.9,-66.4L69.1,-66.8L68.2,-66.1L65.7,-65.4L65.2,-65.0L61.4,-64.4L61.0,-63.8L61.7,-62.7L60.7,-62.3L60.9,-61.8L60.0,-61.0L61.6,-59.9L61.3,-59.2L59.9,-59.2L59.6,-58.8L58.4,-59.6L56.8,-59.5L55.7,-58.9L54.5,-59.5L52.3,-60.6L50.8,-60.6L48.7,-58.9L48.6,-57.7L47.5,-58.6L46.8,-56.9L47.0,-56.6L46.5,-55.5L47.3,-54.4L48.1,-54.5L48.7,-53.5L48.6,-52.7L49.1,-52.5ZM93.8,-145.8L95.9,-147.3L97.9,-144.1L100.2,-138.3L99.9,-133.5L97.8,-132.8L95.0,-134.3L93.3,-136.4L92.5,-140.4L91.2,-141.6L93.8,-145.8ZM102.8,-135.6L105.4,-132.6L105.1,-130.6L99.4,-128.7L101.3,-135.3L102.1,-135.9L102.8,-135.6ZM138.8,-120.7L141.5,-120.6L145.1,-118.4L144.3,-115.5L140.6,-115.6L139.0,-114.7L137.0,-117.2L137.5,-120.0L138.8,-120.7ZM148.2,-117.5L150.7,-116.5L149.6,-115.0L148.0,-115.3L146.1,-116.8L146.4,-118.1L148.2,-117.5ZM139.9,-110.2L140.8,-111.6L142.1,-111.9L143.5,-110.6L143.6,-109.6L142.1,-109.6L140.0,-110.0L139.9,-110.2ZM44.8,-143.1L46.8,-144.2L48.3,-144.3L48.5,-142.6L49.1,-144.1L50.0,-145.1L51.5,-143.8L51.1,-142.8L49.8,-142.0L48.9,-141.6L48.8,-140.6L47.6,-139.6L46.5,-141.0L47.1,-142.9L44.8,-143.1ZM22.7,-65.0L20.9,-64.9L19.7,-65.1L19.9,-65.9L21.3,-66.5L22.3,-66.2L22.8,-65.9L22.7,-65.4L22.7,-65.0ZM53.5,-111.5L55.9,-114.8L55.6,-116.5L57.9,-118.6L61.2,-121.2L64.5,-122.0L66.2,-123.6L68.2,-124.2L68.9,-122.5L68.2,-121.1L64.6,-119.1L61.6,-117.2L58.5,-113.6L57.0,-110.1L55.4,-106.8L55.6,-104.1L57.5,-101.6L56.9,-101.3L53.7,-101.7L53.4,-103.1L51.6,-103.9L51.5,-105.6L52.5,-106.3L52.4,-108.1L54.4,-111.1L53.5,-111.5ZM142.9,-63.9L143.3,-62.3L143.2,-60.7L143.6,-59.1L144.7,-56.3L143.2,-56.8L142.6,-54.7L143.5,-53.1L143.5,-52.1L142.7,-53.0L142.1,-51.9L141.9,-53.1L142.0,-54.5L141.9,-56.2L142.1,-57.3L142.2,-59.4L141.6,-61.0L141.7,-63.2L142.6,-64.0L142.2,-64.8L142.7,-65.0L142.9,-63.9ZM-174.9,-91.8L-175.0,-90.2L-174.3,-89.6L-174.6,-91.4L-171.9,-91.0L-169.9,-88.7L-170.9,-87.6L-172.5,-87.4L-172.6,-85.1L-173.0,-84.6L-173.9,-84.6L-174.7,-85.4L-176.0,-86.1L-176.2,-87.2L-177.2,-87.6L-178.4,-87.2L-178.9,-88.1L-178.7,-89.0L-179.9,-88.4L-179.4,-87.3L-180.0,-86.3L-180.0,-96.5L-177.6,-94.4L-174.9,-91.8ZM-178.7,-102.1L-180.0,-101.9L-180.0,-104.0L-179.9,-104.2L-179.0,-104.2L-177.6,-103.3L-177.7,-102.8L-178.7,-102.1ZM33.4,-51.9L33.7,-52.2L34.4,-51.9L34.7,-51.9L34.9,-51.6L35.0,-51.5L35.0,-51.4L35.5,-51.1L36.5,-51.2L36.3,-50.7L35.2,-50.4L33.9,-49.6L33.3,-49.9L33.5,-50.5L32.5,-51.0L32.6,-51.2L33.6,-51.7L33.4,-51.9Z" fill="#1e1e2e" stroke="#2a2a3a" stroke-width="0.3"/>
  <path d="M35.7,-34.6L35.5,-34.3L35.2,-34.4L35.0,-33.6L35.2,-33.5L35.0,-33.4L34.9,-33.0L35.4,-33.2L35.4,-32.8L34.9,-30.9L34.8,-31.2L34.3,-32.9L34.3,-32.9L34.3,-32.9L34.6,-33.3L34.5,-33.3L34.8,-33.9L35.0,-34.8L35.1,-35.1L35.1,-35.1L35.5,-35.1L35.6,-35.3L35.8,-35.3L35.8,-34.8L35.7,-34.7L35.7,-34.6Z" fill="#1e1e2e" stroke="#2a2a3a" stroke-width="0.3"/>
  <path d="M35.8,-35.3L35.6,-35.3L35.5,-35.1L35.1,-35.1L35.5,-36.1L36.0,-36.9L36.0,-37.0L36.4,-36.9L36.6,-36.4L36.1,-36.0L35.8,-35.3Z" fill="#1e1e2e" stroke="#2a2a3a" stroke-width="0.3"/>
  <path d="M35.4,-33.2L34.9,-33.0L35.0,-33.4L35.2,-33.5L35.0,-33.6L35.2,-34.4L35.5,-34.3L35.5,-33.6L35.4,-33.2Z" fill="#1e1e2e" stroke="#2a2a3a" stroke-width="0.3"/>
  <path d="M35.5,-34.3L35.7,-34.6L36.8,-34.2L38.8,-35.4L39.2,-34.0L39.0,-33.8L37.0,-33.2L38.0,-32.1L37.7,-31.9L37.5,-31.5L36.7,-31.3L36.5,-30.9L36.1,-30.5L35.0,-30.7L34.9,-30.9L35.4,-32.8L35.4,-33.2L35.5,-33.6L35.5,-34.3Z" fill="#1e1e2e" stroke="#2a2a3a" stroke-width="0.3"/>
  <path d="M51.6,-25.0L51.8,-25.1L51.8,-24.8L52.6,-24.9L53.4,-24.9L54.0,-24.9L54.7,-25.6L55.4,-26.3L56.1,-27.0L56.3,-26.6L56.4,-25.8L55.9,-25.7L55.8,-25.0L56.0,-24.9L55.5,-24.7L55.5,-24.2L55.2,-23.8L55.2,-23.3L55.0,-23.1L52.0,-23.6L51.6,-24.7L51.6,-25.0Z" fill="#1e1e2e" stroke="#2a2a3a" stroke-width="0.3"/>
  <path d="M50.8,-25.6L50.7,-26.4L51.0,-26.9L51.3,-27.1L51.6,-26.7L51.6,-26.1L51.4,-25.4L51.1,-25.3L50.8,-25.6Z" fill="#1e1e2e" stroke="#2a2a3a" stroke-width="0.3"/>
  <path d="M48.0,-31.4L48.2,-30.9L48.1,-30.7L48.4,-29.8L47.7,-29.8L47.5,-30.3L46.6,-30.4L47.3,-31.5L48.0,-31.4Z" fill="#1e1e2e" stroke="#2a2a3a" stroke-width="0.3"/>
  <path d="M39.2,-34.0L38.8,-35.4L41.0,-36.7L41.4,-38.2L41.3,-39.1L41.8,-39.4L42.3,-40.2L42.8,-40.4L43.9,-40.2L44.3,-39.9L44.8,-40.1L45.4,-38.6L46.1,-38.2L46.2,-37.5L45.6,-37.1L45.4,-36.2L46.1,-35.0L47.3,-34.4L47.8,-33.5L47.7,-32.6L48.0,-32.6L48.0,-32.0L48.6,-31.4L48.0,-31.4L47.3,-31.5L46.6,-30.4L44.7,-30.5L41.9,-32.9L40.4,-33.7L39.2,-34.0Z" fill="#1e1e2e" stroke="#2a2a3a" stroke-width="0.3"/>
  <path d="M55.2,-23.3L55.2,-23.8L55.5,-24.2L55.5,-24.7L56.0,-24.9L55.8,-25.0L55.9,-25.7L56.4,-25.8L56.8,-25.0L57.4,-24.6L58.1,-24.5L58.7,-24.3L59.2,-23.6L59.5,-23.3L59.8,-23.1L59.8,-22.9L59.4,-22.3L59.3,-22.0L58.9,-21.6L58.5,-20.9L58.0,-20.9L57.8,-20.7L57.7,-20.1L57.8,-19.4L57.7,-19.3L57.2,-19.3L56.6,-18.9L56.5,-18.4L56.3,-18.2L55.7,-18.2L55.3,-17.9L55.3,-17.5L54.8,-17.2L54.2,-17.3L53.6,-16.9L53.1,-16.9L52.8,-17.6L52.0,-19.4L55.0,-20.4L55.7,-22.6L55.2,-23.3ZM56.3,-26.6L56.1,-27.0L56.4,-27.4L56.5,-27.3L56.4,-26.8L56.3,-26.6Z" fill="#1e1e2e" stroke="#2a2a3a" stroke-width="0.3"/>
  <path d="M77.8,-38.0L76.9,-37.0L75.8,-36.8L74.2,-37.1L73.7,-36.6L74.1,-35.5L74.5,-34.7L75.3,-34.1L74.4,-33.4L74.4,-32.6L73.5,-31.4L72.8,-30.3L71.8,-29.1L70.6,-29.2L69.5,-28.0L70.2,-27.5L70.3,-26.6L70.8,-26.1L71.0,-25.1L68.8,-25.1L68.2,-24.4L67.4,-24.7L67.1,-25.5L66.4,-26.3L64.5,-26.1L62.9,-26.1L61.5,-25.9L61.9,-27.2L63.3,-27.8L63.2,-28.3L62.8,-28.5L62.7,-29.5L61.8,-30.0L61.4,-30.7L60.9,-31.3L62.5,-30.7L63.6,-30.9L64.1,-30.7L64.4,-31.0L65.0,-30.9L66.3,-31.3L66.4,-32.3L66.9,-33.0L67.7,-33.0L67.8,-33.3L68.6,-33.5L68.9,-33.4L69.3,-33.7L69.3,-34.4L69.7,-35.1L70.3,-35.4L69.9,-36.2L70.9,-36.2L71.2,-36.6L71.1,-37.1L71.6,-37.6L71.5,-38.2L71.3,-38.7L71.8,-39.3L72.9,-39.5L74.1,-39.7L74.6,-39.9L75.2,-40.0L75.9,-39.5L76.2,-38.5L77.8,-38.0Z" fill="#1e1e2e" stroke="#2a2a3a" stroke-width="0.3"/>
  <path d="M66.5,-40.3L67.1,-40.3L67.8,-40.1L68.1,-39.9L68.9,-40.3L69.2,-40.1L69.5,-40.6L70.1,-40.6L70.3,-40.8L70.4,-41.3L70.8,-41.8L71.3,-41.5L71.2,-41.1L71.5,-41.0L71.4,-40.0L71.8,-39.5L72.2,-39.8L72.6,-39.9L73.3,-40.5L73.9,-40.4L75.0,-40.4L75.2,-40.0L74.6,-39.9L74.1,-39.7L72.9,-39.5L71.8,-39.3L71.3,-38.7L71.5,-38.2L71.6,-37.6L71.1,-37.1L71.2,-36.6L70.9,-36.2L69.9,-36.2L70.3,-35.4L69.7,-35.1L69.3,-34.4L69.3,-33.7L68.9,-33.4L68.6,-33.5L67.8,-33.3L67.7,-33.0L66.9,-33.0L66.4,-32.3L66.3,-31.3L65.0,-30.9L64.4,-31.0L64.1,-30.7L63.6,-30.9L62.5,-30.7L60.9,-31.3L61.8,-32.3L61.7,-33.1L60.9,-33.3L60.9,-34.0L60.5,-35.0L61.0,-35.6L60.5,-35.8L60.8,-36.7L61.2,-38.2L62.2,-37.7L63.0,-37.9L63.2,-38.5L64.0,-38.6L64.5,-39.0L64.7,-40.0L65.6,-40.3L65.7,-40.7L66.2,-40.4L66.5,-40.3Z" fill="#1e1e2e" stroke="#2a2a3a" stroke-width="0.3"/>
  <path d="M52.5,-46.1L52.9,-46.5L54.1,-46.8L54.8,-46.4L55.5,-45.4L56.0,-45.4L57.1,-45.5L56.9,-46.1L57.8,-46.6L58.6,-47.4L60.0,-46.7L60.1,-45.6L60.5,-45.3L61.5,-45.4L61.9,-45.1L62.4,-43.8L63.5,-42.9L64.2,-42.3L65.2,-41.7L66.5,-41.1L66.5,-40.3L66.2,-40.4L65.7,-40.7L65.6,-40.3L64.7,-40.0L64.5,-39.0L64.0,-38.6L63.2,-38.5L63.0,-37.9L62.2,-37.7L61.2,-38.2L61.1,-39.2L60.4,-39.3L59.2,-40.4L58.4,-40.5L57.3,-41.2L56.6,-41.3L56.2,-41.1L55.5,-41.1L54.8,-40.4L53.9,-40.1L53.7,-41.0L53.9,-42.4L53.1,-42.8L53.4,-43.7L52.7,-43.8L52.9,-44.9L53.9,-44.5L54.7,-45.0L54.0,-45.8L53.7,-46.5L52.9,-46.2L52.8,-45.2L52.5,-46.1Z" fill="#1e1e2e" stroke="#2a2a3a" stroke-width="0.3"/>
  <path d="M48.6,-31.4L48.0,-32.0L48.0,-32.6L47.7,-32.6L47.8,-33.5L47.3,-34.4L46.1,-35.0L45.4,-36.2L45.6,-37.1L46.2,-37.5L46.1,-38.2L45.4,-38.6L44.8,-40.1L44.8,-40.1L44.2,-41.1L44.4,-41.5L44.1,-43.0L44.8,-43.3L45.0,-42.8L45.5,-42.3L46.1,-42.1L46.5,-42.1L47.7,-43.1L48.1,-43.2L48.4,-42.8L48.0,-42.2L48.6,-41.5L48.9,-41.5L49.2,-40.6L50.1,-40.3L50.8,-39.7L52.3,-39.5L53.8,-39.8L53.9,-40.1L54.8,-40.4L55.5,-41.1L56.2,-41.1L56.6,-41.3L57.3,-41.2L58.4,-40.5L59.2,-40.4L60.4,-39.3L61.1,-39.2L61.2,-38.2L60.8,-36.7L60.5,-35.8L61.0,-35.6L60.5,-35.0L60.9,-34.0L60.9,-33.3L61.7,-33.1L61.8,-32.3L60.9,-31.3L61.4,-30.7L61.8,-30.0L62.7,-29.5L62.8,-28.5L63.2,-28.3L63.3,-27.8L61.9,-27.2L61.5,-25.9L59.6,-26.3L58.5,-26.5L57.4,-26.7L57.0,-28.0L56.5,-28.2L55.7,-28.0L54.7,-27.5L53.5,-27.8L52.5,-28.7L51.5,-29.0L50.9,-30.1L50.1,-31.6L49.6,-31.5L48.9,-31.8L48.6,-31.4Z" fill="#1e1e2e" stroke="#2a2a3a" stroke-width="0.3"/>
  <path d="M35.7,-34.6L35.7,-34.7L35.8,-34.8L35.8,-35.3L36.1,-36.0L36.6,-36.4L36.4,-36.9L36.0,-37.0L35.9,-37.9L36.1,-38.4L36.4,-38.7L36.7,-39.0L36.7,-39.6L37.1,-39.4L38.2,-39.8L38.7,-39.5L39.5,-39.5L40.7,-40.0L41.2,-40.0L42.3,-40.2L41.8,-39.4L41.3,-39.1L41.4,-38.2L41.0,-36.7L38.8,-35.4L36.8,-34.2L35.7,-34.6Z" fill="#1e1e2e" stroke="#2a2a3a" stroke-width="0.3"/>
  <path d="M46.5,-42.1L46.1,-42.1L45.7,-42.8L45.7,-43.0L45.3,-43.0L45.0,-43.4L44.8,-43.3L44.4,-43.7L43.7,-44.0L43.8,-44.7L43.6,-45.1L45.0,-45.4L45.2,-45.0L45.6,-44.8L45.4,-44.4L45.9,-44.0L45.6,-43.6L46.0,-43.2L46.5,-43.0L46.5,-42.1Z" fill="#1e1e2e" stroke="#2a2a3a" stroke-width="0.3"/>
  <path d="M28.2,-68.2L29.2,-67.8L29.4,-67.3L29.9,-67.5L30.9,-67.1L31.0,-66.3L30.8,-65.8L31.4,-64.7L31.8,-64.4L31.7,-64.1L32.4,-63.8L32.7,-63.3L32.3,-63.0L31.5,-63.0L31.3,-62.9L31.5,-62.3L31.8,-61.3L31.8,-61.3L30.9,-61.2L30.6,-60.8L30.6,-60.0L30.2,-60.1L29.3,-60.1L29.0,-60.4L28.6,-60.2L28.2,-60.4L27.5,-60.4L26.3,-60.8L25.3,-60.9L24.6,-60.9L24.0,-60.5L23.5,-60.4L23.5,-61.1L23.2,-61.9L23.8,-62.2L23.8,-62.9L23.5,-63.5L23.5,-64.3L24.5,-64.3L25.5,-64.9L25.8,-65.9L26.6,-66.4L26.5,-67.2L27.1,-67.5L28.2,-68.2Z" fill="#1e1e2e" stroke="#2a2a3a" stroke-width="0.3"/>
  <path d="M31.8,-61.3L32.2,-61.2L32.4,-61.6L32.7,-61.5L33.8,-61.6L34.4,-60.7L34.1,-60.4L34.2,-59.9L35.0,-59.8L35.4,-59.1L35.4,-58.8L36.6,-58.3L37.4,-58.5L38.0,-57.8L38.6,-57.8L40.1,-57.3L40.1,-56.8L39.7,-56.0L39.9,-55.2L39.7,-54.7L38.8,-54.6L38.3,-54.2L38.2,-53.5L37.4,-53.4L36.8,-52.9L35.8,-52.9L35.0,-52.3L35.0,-51.5L34.9,-51.6L34.7,-51.9L34.4,-51.9L33.7,-52.2L33.4,-51.9L33.3,-52.0L31.7,-52.4L31.7,-52.9L30.7,-52.8L30.4,-52.0L29.6,-50.9L29.1,-51.2L28.7,-50.9L28.2,-51.2L28.5,-51.3L28.7,-51.8L28.9,-52.3L28.9,-52.6L29.1,-52.7L29.2,-52.5L29.8,-52.4L30.0,-52.5L29.8,-52.7L29.9,-52.9L29.6,-53.3L29.4,-53.9L29.1,-54.1L29.1,-54.6L28.7,-55.0L28.3,-55.1L27.5,-55.6L26.9,-55.4L26.6,-55.2L26.2,-55.2L25.9,-54.8L25.2,-54.7L24.9,-54.5L24.4,-54.8L23.8,-54.8L23.1,-55.0L22.7,-54.7L22.6,-55.1L22.1,-55.5L22.3,-56.1L22.6,-56.5L22.8,-56.4L22.5,-57.1L23.4,-58.4L23.9,-58.6L24.0,-59.0L23.5,-60.4L24.0,-60.5L24.6,-60.9L25.3,-60.9L26.3,-60.8L27.5,-60.4L28.2,-60.4L28.6,-60.2L29.0,-60.4L29.3,-60.1L30.2,-60.1L30.6,-60.0L30.6,-60.8L30.9,-61.2L31.8,-61.3Z" fill="#1e1e2e" stroke="#2a2a3a" stroke-width="0.3"/>
  <path d="M26.6,-55.2L26.9,-55.4L27.5,-55.6L28.3,-55.1L28.7,-55.0L29.1,-54.6L29.1,-54.1L29.4,-53.9L29.6,-53.3L29.9,-52.9L29.8,-52.7L30.0,-52.5L29.8,-52.4L29.2,-52.5L29.1,-52.7L28.9,-52.6L28.9,-52.3L28.7,-51.8L28.5,-51.3L28.2,-51.2L28.1,-51.8L28.2,-52.5L28.1,-53.1L27.6,-54.0L27.2,-54.6L26.9,-55.0L26.6,-55.2Z" fill="#1e1e2e" stroke="#2a2a3a" stroke-width="0.3"/>
  <path d="M44.8,-40.1L44.3,-39.9L43.9,-40.2L42.8,-40.4L42.3,-40.2L41.2,-40.0L40.7,-40.0L39.5,-39.5L38.7,-39.5L38.2,-39.8L37.1,-39.4L36.7,-39.6L36.7,-39.0L36.4,-38.7L36.1,-38.4L35.8,-39.0L36.2,-39.4L35.6,-39.3L34.7,-39.6L34.0,-38.9L32.5,-38.8L31.7,-39.4L30.6,-39.5L30.4,-39.0L29.7,-38.8L28.7,-39.5L27.6,-39.5L27.0,-40.7L26.3,-41.4L26.8,-42.4L26.2,-43.0L27.3,-44.3L28.8,-44.3L29.2,-45.3L31.1,-45.1L32.3,-46.0L33.5,-46.4L35.2,-46.4L36.9,-45.5L38.3,-45.0L39.5,-45.2L40.4,-45.0L41.6,-45.7L42.6,-45.8L43.6,-45.1L43.8,-44.7L43.7,-44.0L44.4,-43.7L44.8,-43.3L44.1,-43.0L44.4,-41.5L44.2,-41.1L44.8,-40.1L44.8,-40.1ZM26.1,-46.1L27.1,-46.6L28.0,-46.4L28.1,-45.9L29.0,-45.4L28.8,-45.1L27.6,-45.0L27.2,-44.6L26.4,-43.9L26.0,-44.5L26.1,-44.8L26.3,-44.9L26.6,-45.8L26.1,-46.1Z" fill="#1e1e2e" stroke="#2a2a3a" stroke-width="0.3"/>
  <path d="M40.0,-48.3L40.1,-48.5L40.9,-48.2L42.4,-48.0L43.8,-47.4L43.9,-47.1L44.5,-47.3L45.5,-47.0L45.8,-46.5L46.4,-46.2L46.1,-46.0L46.6,-45.3L46.5,-45.1L46.0,-45.2L45.2,-45.6L45.0,-45.4L43.6,-45.1L42.6,-45.8L41.6,-45.7L41.7,-46.3L41.5,-47.2L40.9,-47.7L40.3,-47.9L40.0,-48.3Z" fill="#1e1e2e" stroke="#2a2a3a" stroke-width="0.3"/>
  <path d="M35.0,-30.7L36.1,-30.5L36.5,-30.9L36.7,-31.3L37.5,-31.5L37.7,-31.9L38.0,-32.1L37.0,-33.2L39.0,-33.8L39.2,-34.0L40.4,-33.7L41.9,-32.9L44.7,-30.5L46.6,-30.4L47.5,-30.3L47.7,-29.8L48.4,-29.8L48.8,-28.8L49.3,-28.6L49.5,-28.2L50.2,-27.7L50.2,-27.2L50.1,-26.9L50.2,-26.5L50.5,-26.2L50.7,-25.8L50.8,-25.6L51.1,-25.3L51.4,-25.4L51.6,-25.0L51.6,-24.7L52.0,-23.6L55.0,-23.1L55.2,-23.3L55.7,-22.6L55.0,-20.4L52.0,-19.4L49.1,-19.0L48.2,-18.5L47.5,-17.4L47.0,-17.2L46.7,-17.6L46.4,-17.5L45.4,-17.6L45.2,-17.7L44.1,-17.7L43.8,-17.6L43.4,-17.9L43.1,-17.3L43.2,-16.9L42.8,-16.6L42.6,-17.0L42.3,-17.3L42.3,-17.8L41.8,-18.1L41.2,-19.0L40.9,-19.9L40.2,-20.6L39.8,-20.8L39.1,-21.8L39.0,-22.5L39.1,-23.2L38.5,-24.4L38.0,-24.8L37.5,-25.0L37.2,-25.7L37.2,-25.9L36.9,-26.5L36.6,-26.7L36.2,-27.6L35.6,-28.5L35.1,-29.3L34.6,-29.3L34.8,-29.9L34.8,-30.3L35.0,-30.7Z" fill="#1e1e2e" stroke="#2a2a3a" stroke-width="0.3"/>
  <path d="M32.7,-37.6L32.8,-37.6L32.9,-37.9L33.7,-37.9L34.6,-38.2L33.9,-37.7L34.0,-37.5L33.9,-37.5L33.7,-37.4L33.5,-37.5L33.5,-37.4L33.5,-37.5L33.4,-37.6L33.2,-37.6L32.9,-37.5L32.7,-37.6Z" fill="#1e1e2e" stroke="#2a2a3a" stroke-width="0.3"/>
  <path d="M32.7,-37.6L32.9,-37.5L33.2,-37.6L33.4,-37.6L33.5,-37.5L33.5,-37.4L33.5,-37.5L33.7,-37.4L33.9,-37.5L34.0,-37.5L34.0,-37.4L33.0,-36.9L32.5,-37.0L32.3,-37.5L32.7,-37.6Z" fill="#1e1e2e" stroke="#2a2a3a" stroke-width="0.3"/>
  <path d="M36.9,-22.6L32.9,-22.6L29.0,-22.6L25.0,-22.6L25.0,-26.6L25.0,-30.6L24.7,-31.5L25.0,-32.2L24.8,-32.7L25.2,-33.3L26.5,-33.3L27.5,-33.0L28.5,-32.7L28.9,-32.5L29.7,-32.9L30.1,-33.2L31.0,-33.3L31.7,-33.1L32.0,-32.6L32.2,-32.9L33.0,-32.7L33.8,-32.6L34.3,-32.9L34.3,-32.9L34.8,-31.2L34.9,-30.9L34.6,-30.4L34.4,-29.6L34.2,-29.0L33.9,-28.8L33.6,-29.2L33.1,-29.7L32.4,-31.3L32.3,-31.2L32.7,-30.0L33.3,-28.8L34.1,-27.1L34.5,-26.5L34.8,-25.9L35.7,-24.7L35.5,-24.5L35.5,-23.8L36.7,-22.8L36.9,-22.6Z" fill="#1e1e2e" stroke="#2a2a3a" stroke-width="0.3"/>
  <path d="M46.4,-46.2L46.7,-46.1L47.4,-45.3L47.8,-45.2L48.0,-45.6L48.6,-46.1L49.1,-45.4L49.6,-44.5L50.1,-44.4L50.4,-44.0L49.6,-43.9L49.4,-42.9L49.2,-42.5L48.9,-42.2L48.9,-41.5L48.6,-41.5L48.0,-42.2L48.4,-42.8L48.1,-43.2L47.7,-43.1L46.5,-42.1L46.5,-43.0L46.0,-43.2L45.6,-43.6L45.9,-44.0L45.4,-44.4L45.6,-44.8L45.2,-45.0L45.0,-45.4L45.2,-45.6L46.0,-45.2L46.5,-45.1L46.6,-45.3L46.1,-46.0L46.4,-46.2ZM46.1,-42.1L45.5,-42.3L45.0,-42.8L44.8,-43.3L45.0,-43.4L45.3,-43.0L45.7,-43.0L45.7,-42.8L46.1,-42.1Z" fill="#00e5ff" stroke="#00c4dd" stroke-width="0.4" fill-opacity="0.9"/>
</svg>