<svg xmlns="http://www.w3.org/2000/svg" viewBox="42.79 -43.86 9.60 7.59" width="300" height="300" preserveAspectRatio="xMidYMid meet">
  <path d="M46.40,-41.86L46.69,-41.83L47.37,-41.22L47.82,-41.15L47.99,-41.41L48.58,-41.81L49.11,-41.28L49.62,-40.57L50.08,-40.53L50.39,-40.26L49.57,-40.18L49.40,-39.40L49.22,-39.05L48.86,-38.82L48.88,-38.32L48.63,-38.27L48.01,-38.79L48.36,-39.29L48.06,-39.58L47.69,-39.51L46.51,-38.77L46.48,-39.46L46.03,-39.63L45.61,-39.90L45.89,-40.22L45.36,-40.56L45.56,-40.81L45.18,-40.99L44.97,-41.25L45.22,-41.41L45.96,-41.12L46.50,-41.06L46.64,-41.18L46.15,-41.72L46.40,-41.86ZM46.14,-38.74L45.46,-38.87L44.95,-39.34L44.79,-39.71L45.00,-39.74L45.30,-39.47L45.74,-39.47L45.74,-39.32L46.14,-38.74Z" fill="#00e5ff" stroke="#00e5ff" stroke-width="0.5" fill-opacity="0.8"/>
</svg>