<svg xmlns="http://www.w3.org/2000/svg" viewBox="86.08 -28.45 8.59 9.78" width="300" height="300" preserveAspectRatio="xMidYMid meet">
  <path d="M92.67,-22.04L92.65,-21.32L92.30,-21.48L92.37,-20.67L92.08,-21.19L92.03,-21.70L91.83,-22.18L91.42,-22.77L90.50,-22.81L90.59,-22.39L90.27,-21.84L89.85,-22.04L89.70,-21.86L89.42,-21.97L89.03,-22.06L88.88,-22.88L88.53,-23.63L88.70,-24.23L88.08,-24.50L88.31,-24.87L88.93,-25.24L88.21,-25.77L88.56,-26.45L89.36,-26.01L89.83,-25.97L89.92,-25.27L90.87,-25.13L91.80,-25.15L92.38,-24.98L91.92,-24.13L91.47,-24.07L91.16,-23.50L91.71,-22.99L91.87,-23.62L92.15,-23.63L92.67,-22.04Z" fill="#00e5ff" stroke="#00e5ff" stroke-width="0.5" fill-opacity="0.8"/>
</svg>