<svg xmlns="http://www.w3.org/2000/svg" viewBox="73.8 -44.5 33.3 31.8" width="400" height="300" preserveAspectRatio="xMidYMid meet">
  <rect x="73.8" y="-44.5" width="33.3" height="31.8" fill="#0e0e18"/>
  <path d="M102.6,-12.3L102.3,-13.5L103.0,-14.4L104.3,-14.6L105.2,-14.4L106.0,-14.0L106.5,-14.7L107.4,-14.4L107.6,-13.7L107.5,-12.4L105.8,-11.6L106.2,-11.0L105.2,-11.0L104.3,-10.5L103.5,-10.7L103.1,-11.2L102.6,-12.3Z" fill="#1e1e2e" stroke="#2a2a3a" stroke-width="0.3"/>
  <path d="M105.2,-14.4L104.3,-14.6L103.0,-14.4L102.3,-13.5L102.6,-12.3L101.7,-12.7L100.8,-12.7L101.0,-13.5L100.1,-13.5L100.0,-12.4L99.5,-10.9L99.2,-10.0L99.2,-9.3L99.9,-9.2L100.3,-8.3L100.5,-7.5L101.0,-6.9L101.6,-6.8L102.1,-6.2L101.8,-5.8L101.2,-5.7L101.1,-6.2L100.3,-6.7L100.1,-6.5L99.7,-6.9L99.5,-7.4L99.0,-7.9L98.5,-8.4L98.3,-7.8L98.2,-8.4L98.3,-9.0L98.6,-10.0L99.0,-11.0L99.6,-12.0L99.2,-12.9L99.2,-13.4L99.1,-14.0L98.4,-14.8L98.2,-15.3L98.5,-15.5L98.9,-16.4L98.5,-17.1L97.9,-17.8L97.4,-18.8L97.8,-19.0L98.3,-20.1L99.0,-20.2L99.5,-20.6L100.1,-20.9L100.5,-20.5L100.6,-19.9L101.3,-19.8L101.0,-18.7L101.1,-17.8L102.1,-18.4L102.4,-18.2L103.0,-18.3L103.2,-18.6L104.0,-18.6L104.7,-17.7L104.8,-16.7L105.6,-15.8L105.5,-14.9L105.2,-14.4Z" fill="#1e1e2e" stroke="#2a2a3a" stroke-width="0.3"/>
  <path d="M107.4,-14.4L106.5,-14.7L106.0,-14.0L105.2,-14.4L105.5,-14.9L105.6,-15.8L104.8,-16.7L104.7,-17.7L104.0,-18.6L103.2,-18.6L103.0,-18.3L102.4,-18.2L102.1,-18.4L101.1,-17.8L101.0,-18.7L101.3,-19.8L100.6,-19.9L100.5,-20.5L100.1,-20.9L100.3,-21.3L101.2,-22.0L101.3,-21.7L101.8,-21.7L101.7,-22.9L102.2,-23.1L102.8,-22.2L103.2,-21.2L104.4,-21.2L104.8,-20.3L104.2,-20.0L103.9,-19.6L105.1,-19.0L105.9,-17.8L106.6,-16.8L107.3,-16.1L107.6,-15.4L107.4,-14.4Z" fill="#1e1e2e" stroke="#2a2a3a" stroke-width="0.3"/>
  <path d="M100.1,-20.9L99.5,-20.6L99.0,-20.2L98.3,-20.1L97.8,-19.0L97.4,-18.8L97.9,-17.8L98.5,-17.1L98.9,-16.4L98.5,-15.5L98.2,-15.3L98.4,-14.8L99.1,-14.0L99.2,-13.4L99.2,-12.9L99.6,-12.0L99.0,-11.0L98.6,-10.0L98.5,-10.7L98.8,-11.5L98.4,-12.1L98.5,-13.2L98.1,-13.8L97.8,-15.0L97.6,-16.3L97.2,-17.2L96.5,-16.7L95.4,-15.9L94.8,-16.0L94.2,-16.3L94.5,-17.5L94.3,-18.5L93.5,-19.7L93.7,-20.1L93.1,-20.3L92.4,-21.1L92.3,-22.0L92.7,-21.8L92.7,-22.6L93.2,-22.9L93.1,-23.3L93.3,-23.7L93.3,-24.8L94.1,-24.6L94.6,-25.5L94.6,-26.0L95.2,-26.9L95.1,-27.6L96.4,-28.4L97.1,-28.2L97.1,-28.8L97.4,-29.1L97.3,-29.5L97.9,-29.6L98.2,-28.9L98.7,-28.6L98.7,-27.8L98.7,-26.9L97.7,-25.9L97.6,-24.6L98.7,-24.8L98.9,-23.8L99.5,-23.6L99.2,-22.7L100.0,-22.3L100.4,-22.1L101.2,-22.4L101.2,-22.0L100.3,-21.3L100.1,-20.9Z" fill="#1e1e2e" stroke="#2a2a3a" stroke-width="0.3"/>
  <path d="M104.3,-10.5L105.2,-11.0L106.2,-11.0L105.8,-11.6L107.5,-12.4L107.6,-13.7L107.4,-14.4L107.6,-15.4L107.3,-16.1L106.6,-16.8L105.9,-17.8L105.1,-19.0L103.9,-19.6L104.2,-20.0L104.8,-20.3L104.4,-21.2L103.2,-21.2L102.8,-22.2L102.2,-23.1L102.7,-23.3L103.5,-23.3L104.5,-23.4L105.3,-24.0L105.8,-23.6L106.7,-23.4L106.6,-22.8L107.0,-22.4L108.1,-22.1L106.7,-21.2L105.9,-20.2L105.7,-19.4L106.4,-18.3L107.4,-16.9L108.3,-16.3L108.9,-15.5L109.3,-13.6L109.2,-11.7L108.4,-11.1L107.2,-10.4L106.4,-9.6L105.2,-8.6L104.8,-9.3L105.1,-10.0L104.3,-10.5Z" fill="#1e1e2e" stroke="#2a2a3a" stroke-width="0.3"/>
  <path d="M97.3,-29.5L97.4,-29.1L97.1,-28.8L97.1,-28.2L96.4,-28.4L95.1,-27.6L95.2,-26.9L94.6,-26.0L94.6,-25.5L94.1,-24.6L93.3,-24.8L93.3,-23.7L93.1,-23.3L93.2,-22.9L92.7,-22.6L92.1,-24.3L91.9,-24.3L91.7,-23.6L91.2,-24.2L91.5,-24.8L91.9,-24.9L92.4,-25.8L91.8,-26.0L90.9,-26.0L89.9,-26.1L89.8,-26.9L89.4,-27.0L88.6,-27.4L88.2,-26.7L88.9,-26.1L88.3,-25.7L88.1,-25.3L88.7,-25.0L88.5,-24.3L88.9,-23.5L89.0,-22.6L88.9,-22.2L88.2,-22.2L87.0,-22.0L87.0,-21.2L86.5,-20.6L85.1,-19.9L83.9,-18.6L83.2,-18.0L82.2,-17.3L82.2,-16.8L81.7,-16.5L80.8,-16.2L80.3,-16.1L80.0,-15.3L80.2,-14.0L80.3,-13.1L79.9,-12.1L79.9,-10.4L79.3,-10.4L78.9,-9.6L79.2,-9.3L78.3,-9.0L77.9,-8.3L77.5,-8.0L76.6,-8.9L76.1,-10.4L75.7,-11.4L75.4,-11.9L74.9,-12.8L74.6,-14.1L74.4,-14.8L73.5,-16.2L73.1,-18.2L72.8,-19.6L72.8,-20.9L72.6,-21.9L71.2,-21.2L70.5,-21.4L69.2,-22.7L69.6,-23.0L69.3,-23.5L68.2,-24.4L68.8,-25.1L71.0,-25.1L70.8,-26.1L70.3,-26.6L70.2,-27.5L69.5,-28.0L70.6,-29.2L71.8,-29.1L72.8,-30.3L73.5,-31.4L74.4,-32.6L74.4,-33.4L75.3,-34.1L74.5,-34.7L74.1,-35.5L73.7,-36.6L74.2,-37.1L75.8,-36.8L76.9,-37.0L77.8,-38.0L78.9,-36.6L78.8,-35.6L79.2,-35.0L79.2,-34.4L78.5,-34.5L78.7,-33.2L79.7,-32.5L81.1,-31.7L80.5,-31.2L80.1,-30.1L81.1,-29.7L82.0,-29.1L83.3,-28.5L84.7,-28.3L85.3,-27.8L86.0,-27.6L87.2,-27.4L88.1,-27.4L88.2,-27.8L88.0,-28.6L88.1,-29.0L88.7,-29.3L88.8,-28.4L88.8,-28.2L89.7,-27.7L90.4,-27.9L91.2,-27.8L92.0,-27.9L92.1,-28.6L91.7,-28.9L92.5,-29.1L93.4,-29.9L94.6,-30.6L95.4,-30.4L96.1,-30.8L96.6,-30.1L96.2,-29.7L97.3,-29.5Z" fill="#1e1e2e" stroke="#2a2a3a" stroke-width="0.3"/>
  <path d="M92.7,-22.6L92.7,-21.8L92.3,-22.0L92.4,-21.1L92.1,-21.7L92.0,-22.2L91.8,-22.8L91.4,-23.4L90.5,-23.4L90.6,-23.0L90.3,-22.4L89.8,-22.6L89.7,-22.4L89.4,-22.5L89.0,-22.6L88.9,-23.5L88.5,-24.3L88.7,-25.0L88.1,-25.3L88.3,-25.7L88.9,-26.1L88.2,-26.7L88.6,-27.4L89.4,-27.0L89.8,-26.9L89.9,-26.1L90.9,-26.0L91.8,-26.0L92.4,-25.8L91.9,-24.9L91.5,-24.8L91.2,-24.2L91.7,-23.6L91.9,-24.3L92.1,-24.3L92.7,-22.6Z" fill="#1e1e2e" stroke="#2a2a3a" stroke-width="0.3"/>
  <path d="M88.1,-29.0L88.0,-28.6L88.2,-27.8L88.1,-27.4L87.2,-27.4L86.0,-27.6L85.3,-27.8L84.7,-28.3L83.3,-28.5L82.0,-29.1L81.1,-29.7L80.1,-30.1L80.5,-31.2L81.1,-31.7L81.5,-32.0L82.3,-31.6L83.3,-30.9L83.9,-30.7L84.2,-30.1L85.0,-29.9L85.8,-29.4L87.0,-29.2L88.1,-29.0Z" fill="#1e1e2e" stroke="#2a2a3a" stroke-width="0.3"/>
  <path d="M77.8,-38.0L76.9,-37.0L75.8,-36.8L74.2,-37.1L73.7,-36.6L74.1,-35.5L74.5,-34.7L75.3,-34.1L74.4,-33.4L74.4,-32.6L73.5,-31.4L72.8,-30.3L71.8,-29.1L70.6,-29.2L69.5,-28.0L70.2,-27.5L70.3,-26.6L70.8,-26.1L71.0,-25.1L68.8,-25.1L68.2,-24.4L67.4,-24.7L67.1,-25.5L66.4,-26.3L64.5,-26.1L62.9,-26.1L61.5,-25.9L61.9,-27.2L63.3,-27.8L63.2,-28.3L62.8,-28.5L62.7,-29.5L61.8,-30.0L61.4,-30.7L60.9,-31.3L62.5,-30.7L63.6,-30.9L64.1,-30.7L64.4,-31.0L65.0,-30.9L66.3,-31.3L66.4,-32.3L66.9,-33.0L67.7,-33.0L67.8,-33.3L68.6,-33.5L68.9,-33.4L69.3,-33.7L69.3,-34.4L69.7,-35.1L70.3,-35.4L69.9,-36.2L70.9,-36.2L71.2,-36.6L71.1,-37.1L71.6,-37.6L71.5,-38.2L71.3,-38.7L71.8,-39.3L72.9,-39.5L74.1,-39.7L74.6,-39.9L75.2,-40.0L75.9,-39.5L76.2,-38.5L77.8,-38.0Z" fill="#1e1e2e" stroke="#2a2a3a" stroke-width="0.3"/>
  <path d="M66.5,-40.3L67.1,-40.3L67.8,-40.1L68.1,-39.9L68.9,-40.3L69.2,-40.1L69.5,-40.6L70.1,-40.6L70.3,-40.8L70.4,-41.3L70.8,-41.8L71.3,-41.5L71.2,-41.1L71.5,-41.0L71.4,-40.0L71.8,-39.5L72.2,-39.8L72.6,-39.9L73.3,-40.5L73.9,-40.4L75.0,-40.4L75.2,-40.0L74.6,-39.9L74.1,-39.7L72.9,-39.5L71.8,-39.3L71.3,-38.7L71.5,-38.2L71.6,-37.6L71.1,-37.1L71.2,-36.6L70.9,-36.2L69.9,-36.2L70.3,-35.4L69.7,-35.1L69.3,-34.4L69.3,-33.7L68.9,-33.4L68.6,-33.5L67.8,-33.3L67.7,-33.0L66.9,-33.0L66.4,-32.3L66.3,-31.3L65.0,-30.9L64.4,-31.0L64.1,-30.7L63.6,-30.9L62.5,-30.7L60.9,-31.3L61.8,-32.3L61.7,-33.1L60.9,-33.3L60.9,-34.0L60.5,-35.0L61.0,-35.6L60.5,-35.8L60.8,-36.7L61.2,-38.2L62.2,-37.7L63.0,-37.9L63.2,-38.5L64.0,-38.6L64.5,-39.0L64.7,-40.0L65.6,-40.3L65.7,-40.7L66.2,-40.4L66.5,-40.3Z" fill="#1e1e2e" stroke="#2a2a3a" stroke-width="0.3"/>
  <path d="M67.8,-40.1L68.4,-41.3L68.2,-42.3L67.4,-42.6L67.7,-43.2L68.5,-43.1L69.0,-43.8L69.3,-44.7L70.7,-45.0L70.5,-44.4L70.6,-44.0L71.0,-44.0L70.6,-43.6L69.6,-43.8L69.5,-43.1L70.5,-43.2L71.8,-42.8L73.7,-43.0L73.9,-41.8L74.3,-41.9L74.9,-41.6L74.8,-41.1L75.0,-40.4L73.9,-40.4L73.3,-40.5L72.6,-39.9L72.2,-39.8L71.8,-39.5L71.4,-40.0L71.5,-41.0L71.2,-41.1L71.3,-41.5L70.8,-41.8L70.4,-41.3L70.3,-40.8L70.1,-40.6L69.5,-40.6L69.2,-40.1L68.9,-40.3L68.1,-39.9L67.8,-40.1Z" fill="#1e1e2e" stroke="#2a2a3a" stroke-width="0.3"/>
  <path d="M71.0,-46.7L71.2,-47.3L71.8,-47.5L73.5,-47.0L73.6,-47.8L74.2,-48.1L75.6,-47.6L76.0,-47.7L77.7,-47.7L79.1,-47.5L79.6,-47.0L80.3,-46.8L80.1,-46.5L78.5,-45.8L78.2,-45.3L76.9,-45.1L76.5,-44.3L75.5,-44.4L74.8,-44.2L73.8,-43.6L74.0,-43.3L73.7,-43.0L71.8,-42.8L70.5,-43.2L69.5,-43.1L69.6,-43.8L70.6,-43.6L71.0,-44.0L71.8,-43.9L73.1,-44.8L71.9,-45.5L71.2,-45.2L70.4,-45.7L71.3,-46.6L71.0,-46.7Z" fill="#1e1e2e" stroke="#2a2a3a" stroke-width="0.3"/>
  <path d="M109.5,-18.5L108.7,-18.8L108.6,-19.7L109.1,-20.2L110.2,-20.5L110.8,-20.5L111.0,-20.1L110.6,-19.6L110.3,-19.0L109.5,-18.5ZM80.3,-46.8L80.2,-47.6L80.9,-48.0L80.0,-50.4L81.9,-50.9L82.5,-51.3L83.2,-53.9L85.2,-53.4L85.7,-54.0L85.8,-55.5L86.6,-55.7L87.4,-56.7L87.8,-56.8L88.0,-55.8L88.9,-55.0L90.3,-54.4L91.0,-53.2L90.6,-51.5L90.9,-50.9L92.1,-50.7L93.5,-50.5L94.7,-49.6L95.3,-49.4L95.8,-48.2L96.3,-47.3L97.5,-47.4L99.5,-47.1L100.8,-47.3L101.8,-47.1L103.3,-46.2L104.5,-46.2L105.0,-45.8L106.1,-46.5L107.7,-47.0L109.2,-47.1L110.4,-47.5L111.1,-48.3L111.8,-48.7L111.7,-49.2L111.3,-49.7L111.9,-50.6L112.4,-50.5L113.5,-50.2L114.5,-51.0L116.0,-51.5L116.7,-52.5L117.4,-52.9L118.9,-53.1L119.7,-52.9L119.8,-53.4L118.9,-54.5L118.1,-55.0L117.3,-54.4L116.3,-54.6L115.7,-54.5L115.5,-55.1L116.2,-56.6L116.7,-57.7L117.9,-57.2L119.3,-58.1L119.3,-58.8L120.2,-60.5L120.7,-61.0L120.7,-61.9L120.2,-62.3L121.0,-63.1L122.2,-63.5L123.6,-63.5L125.1,-63.0L125.9,-62.4L126.6,-60.7L126.9,-60.0L127.3,-59.1L127.7,-57.5L129.4,-57.0L130.6,-56.0L131.0,-54.5L132.5,-54.5L133.4,-55.1L135.0,-55.6L134.5,-54.2L134.1,-53.7L133.8,-52.1L133.1,-50.7L131.9,-51.0L131.0,-50.5L131.3,-49.3L131.1,-47.6L130.6,-47.6L130.6,-46.9L130.0,-47.7L129.6,-46.9L128.1,-46.4L128.2,-45.6L127.3,-45.7L126.9,-46.1L126.2,-45.2L125.1,-44.5L124.3,-43.6L122.9,-43.2L122.1,-42.6L121.1,-42.3L121.6,-42.9L121.4,-43.4L122.2,-44.3L121.6,-45.0L120.8,-44.5L119.6,-43.6L119.0,-42.7L118.0,-42.7L117.5,-42.1L118.1,-41.2L118.9,-41.0L118.9,-40.4L119.7,-40.1L120.8,-41.0L121.7,-40.5L122.4,-40.4L122.5,-39.8L121.1,-39.4L120.6,-38.8L119.7,-38.2L119.2,-37.3L120.2,-36.6L120.6,-35.4L121.2,-34.4L121.9,-33.4L121.9,-32.6L121.3,-32.3L121.5,-31.6L122.1,-31.3L121.9,-30.3L121.7,-29.4L121.1,-29.3L120.4,-28.1L119.6,-26.7L118.7,-25.3L117.3,-24.3L115.9,-23.4L114.8,-23.3L114.2,-22.8L113.8,-23.2L113.2,-22.6L111.8,-22.1L110.8,-21.9L110.4,-20.8L109.9,-20.7L109.6,-21.5L109.9,-21.9L108.5,-22.3L108.1,-22.1L107.0,-22.4L106.6,-22.8L106.7,-23.4L105.8,-23.6L105.3,-24.0L104.5,-23.4L103.5,-23.3L102.7,-23.3L102.2,-23.1L101.7,-22.9L101.8,-21.7L101.3,-21.7L101.2,-22.0L101.2,-22.4L100.4,-22.1L100.0,-22.3L99.2,-22.7L99.5,-23.6L98.9,-23.8L98.7,-24.8L97.6,-24.6L97.7,-25.9L98.7,-26.9L98.7,-27.8L98.7,-28.6L98.2,-28.9L97.9,-29.6L97.3,-29.5L96.2,-29.7L96.6,-30.1L96.1,-30.8L95.4,-30.4L94.6,-30.6L93.4,-29.9L92.5,-29.1L91.7,-28.9L91.3,-29.2L90.7,-29.3L90.0,-29.5L89.5,-29.2L88.8,-28.4L88.7,-29.3L88.1,-29.0L87.0,-29.2L85.8,-29.4L85.0,-29.9L84.2,-30.1L83.9,-30.7L83.3,-30.9L82.3,-31.6L81.5,-32.0L81.1,-31.7L79.7,-32.5L78.7,-33.2L78.5,-34.5L79.2,-34.4L79.2,-35.0L78.8,-35.6L78.9,-36.6L77.8,-38.0L76.2,-38.5L75.9,-39.5L75.2,-40.0L75.0,-40.4L74.8,-41.1L74.9,-41.6L74.3,-41.9L73.9,-41.8L73.7,-43.0L74.0,-43.3L73.8,-43.6L74.8,-44.2L75.5,-44.4L76.5,-44.3L76.9,-45.1L78.2,-45.3L78.5,-45.8L80.1,-46.5L80.3,-46.8Z" fill="#1e1e2e" stroke="#2a2a3a" stroke-width="0.3"/>
  <path d="M91.7,-28.9L92.1,-28.6L92.0,-27.9L91.2,-27.8L90.4,-27.9L89.7,-27.7L88.8,-28.2L88.8,-28.4L89.5,-29.2L90.0,-29.5L90.7,-29.3L91.3,-29.2L91.7,-28.9Z" fill="#00e5ff" stroke="#00c4dd" stroke-width="0.4" fill-opacity="0.9"/>
</svg>