<svg xmlns="http://www.w3.org/2000/svg" viewBox="-71.59 7.76 16.09 17.11" width="300" height="300" preserveAspectRatio="xMidYMid meet">
  <path d="M-69.53,10.95L-68.79,11.04L-68.27,11.01L-68.05,10.71L-67.17,10.31L-66.65,9.93L-65.34,9.76L-65.44,10.51L-65.32,10.90L-65.40,11.57L-64.32,12.46L-63.20,12.63L-62.80,13.00L-62.13,13.20L-61.71,13.49L-61.08,13.48L-60.50,13.78L-60.46,14.35L-60.26,14.65L-60.25,15.08L-60.54,15.09L-60.16,16.26L-58.24,16.30L-58.39,16.88L-58.28,17.27L-57.73,17.55L-57.50,18.17L-57.68,18.96L-57.95,19.40L-57.85,19.97L-58.17,20.18L-58.18,19.87L-59.12,19.36L-60.04,19.34L-61.79,19.63L-62.27,20.51L-62.29,21.05L-62.69,22.25L-62.85,22.03L-63.99,21.99L-64.38,22.80L-64.96,22.08L-66.27,21.83L-67.11,22.74L-67.83,22.87L-68.22,21.49L-68.76,20.37L-68.44,19.41L-68.97,18.98L-69.10,18.26L-69.59,17.58L-68.96,16.50L-69.39,15.66L-69.16,15.32L-69.34,14.95L-68.95,14.45L-68.93,13.60L-68.88,12.90L-68.67,12.56L-69.53,10.95Z" fill="#00e5ff" stroke="#00e5ff" stroke-width="0.5" fill-opacity="0.8"/>
</svg>