<svg xmlns="http://www.w3.org/2000/svg" viewBox="17.90 15.66 13.53 13.17" width="300" height="300" preserveAspectRatio="xMidYMid meet">
  <path d="M29.43,22.09L28.02,22.83L27.12,23.57L26.79,24.24L26.49,24.62L25.94,24.70L25.77,25.17L25.66,25.49L25.03,25.72L24.21,25.67L23.73,25.39L23.31,25.27L22.82,25.50L22.58,25.98L22.11,26.28L21.61,26.73L20.89,26.83L20.67,26.48L20.76,25.87L20.17,24.92L19.90,24.77L19.90,21.85L20.88,21.81L20.91,18.25L21.66,18.22L23.20,17.87L23.58,18.28L24.22,17.89L24.52,17.89L25.08,17.66L25.26,17.74L25.65,18.54L25.85,18.71L26.16,19.29L27.30,20.39L27.72,20.50L27.73,20.85L28.02,21.49L28.79,21.64L29.43,22.09Z" fill="#00e5ff" stroke="#00e5ff" stroke-width="0.5" fill-opacity="0.8"/>
</svg>