<svg xmlns="http://www.w3.org/2000/svg" viewBox="-75.99 -7.24 43.26 43.01" width="300" height="300" preserveAspectRatio="xMidYMid meet">
  <path d="M-53.37,33.77L-53.65,33.20L-53.21,32.73L-53.79,32.05L-54.57,31.49L-55.60,30.85L-55.97,30.88L-56.98,30.11L-57.63,30.22L-56.29,28.85L-55.16,27.88L-54.49,27.47L-53.65,26.92L-53.63,26.12L-54.13,25.55L-54.63,25.74L-54.43,25.16L-54.29,24.57L-54.29,24.02L-54.65,23.84L-55.03,24.00L-55.40,23.96L-55.52,23.57L-55.61,22.66L-55.80,22.36L-56.47,22.09L-56.88,22.28L-57.94,22.09L-57.87,20.73L-58.17,20.18L-57.85,19.97L-57.95,19.40L-57.68,18.96L-57.50,18.17L-57.73,17.55L-58.28,17.27L-58.39,16.88L-58.24,16.30L-60.16,16.26L-60.54,15.09L-60.25,15.08L-60.26,14.65L-60.46,14.35L-60.50,13.78L-61.08,13.48L-61.71,13.49L-62.13,13.20L-62.80,13.00L-63.20,12.63L-64.32,12.46L-65.40,11.57L-65.32,10.90L-65.44,10.51L-65.34,9.76L-66.65,9.93L-67.17,10.31L-68.05,10.71L-68.27,11.01L-68.79,11.04L-69.53,10.95L-70.09,11.12L-70.55,11.01L-70.48,9.49L-71.30,10.08L-72.18,10.05L-72.56,9.52L-73.23,9.46L-73.02,9.03L-73.57,8.42L-73.99,7.52L-73.72,7.34L-73.72,6.92L-73.12,6.63L-73.22,6.09L-72.96,5.74L-72.89,5.27L-71.75,4.59L-70.93,4.40L-70.79,4.25L-69.89,4.30L-69.44,1.56L-69.42,1.12L-69.58,0.55L-70.02,0.19L-70.02,-0.54L-69.45,-0.71L-69.25,-0.60L-69.22,-0.99L-69.80,-1.09L-69.82,-1.71L-67.87,-1.69L-67.54,-2.04L-67.26,-1.72L-67.07,-1.13L-66.88,-1.25L-66.33,-0.72L-65.55,-0.79L-65.35,-1.10L-64.61,-1.33L-64.20,-1.49L-64.08,-1.92L-63.37,-2.20L-63.42,-2.41L-64.27,-2.50L-64.41,-3.13L-64.37,-3.80L-64.82,-4.06L-64.63,-4.15L-63.89,-4.02L-63.09,-3.77L-62.80,-4.01L-62.09,-4.16L-60.97,-4.54L-60.60,-4.92L-60.73,-5.20L-60.21,-5.24L-59.98,-5.01L-60.11,-4.57L-59.77,-4.42L-59.54,-3.96L-59.82,-3.61L-59.97,-2.76L-59.72,-2.25L-59.65,-1.79L-59.03,-1.32L-58.54,-1.27L-58.43,-1.46L-58.11,-1.51L-57.66,-1.68L-57.34,-1.95L-56.78,-1.86L-56.54,-1.90L-56.00,-1.82L-55.91,-2.02L-56.07,-2.22L-55.97,-2.51L-55.57,-2.42L-55.10,-2.52L-54.52,-2.31L-54.09,-2.11L-53.78,-2.38L-53.55,-2.33L-53.42,-2.05L-52.94,-2.12L-52.56,-2.50L-52.25,-3.24L-51.66,-4.16L-51.32,-4.20L-51.07,-3.65L-50.51,-1.90L-49.97,-1.74L-49.95,-1.05L-50.70,-0.22L-50.39,0.08L-48.62,0.24L-48.58,1.24L-47.82,0.58L-46.57,0.94L-44.91,1.55L-44.42,2.14L-44.58,2.69L-43.42,2.38L-41.47,2.91L-39.98,2.87L-38.50,3.70L-37.22,4.82L-36.45,5.11L-35.60,5.15L-35.24,5.46L-34.90,6.74L-34.73,7.34L-35.13,9.00L-35.64,9.65L-37.05,11.04L-37.68,12.17L-38.42,13.04L-38.67,13.06L-38.95,13.79L-38.88,15.67L-39.16,17.21L-39.27,17.87L-39.58,18.26L-39.76,19.60L-40.77,20.90L-40.94,21.94L-41.75,22.37L-41.99,22.97L-43.07,22.97L-44.65,23.35L-45.35,23.80L-46.47,24.09L-47.65,24.89L-48.50,25.88L-48.64,26.62L-48.47,27.18L-48.66,28.19L-48.89,28.67L-49.59,29.22L-50.70,30.98L-51.58,31.78L-52.26,32.25L-52.71,33.20L-53.37,33.77Z" fill="#00e5ff" stroke="#00e5ff" stroke-width="0.5" fill-opacity="0.8"/>
</svg>