<svg xmlns="http://www.w3.org/2000/svg" viewBox="-7.47 -17.12 11.65 9.51" width="300" height="300" preserveAspectRatio="xMidYMid meet">
  <path d="M-5.40,-10.37L-5.47,-10.95L-5.20,-11.38L-5.22,-11.71L-4.43,-12.54L-4.28,-13.23L-4.01,-13.47L-3.52,-13.34L-3.10,-13.54L-2.97,-13.80L-2.19,-14.25L-2.00,-14.56L-1.07,-14.97L-0.52,-15.12L-0.27,-14.92L0.37,-14.93L0.30,-14.44L0.43,-13.99L0.99,-13.34L1.02,-12.85L2.18,-12.63L2.15,-11.94L1.94,-11.64L1.45,-11.55L1.24,-11.11L0.90,-11.00L0.02,-11.02L-0.44,-11.10L-0.76,-10.94L-1.20,-11.01L-2.94,-10.96L-2.96,-10.40L-2.83,-9.64L-3.51,-9.90L-3.98,-9.86L-4.33,-9.61L-4.78,-9.82L-4.95,-10.15L-5.40,-10.37Z" fill="#00e5ff" stroke="#00e5ff" stroke-width="0.5" fill-opacity="0.8"/>
</svg>