<svg xmlns="http://www.w3.org/2000/svg" viewBox="6.49 -14.86 11.52 15.13" width="300" height="300" preserveAspectRatio="xMidYMid meet">
  <path d="M14.50,-12.86L14.89,-12.22L14.96,-11.56L14.92,-10.89L15.47,-9.98L14.91,-9.99L14.63,-9.92L14.17,-10.02L13.95,-9.55L14.54,-8.97L14.98,-8.80L15.12,-8.38L15.44,-7.69L15.28,-7.42L14.78,-6.41L14.54,-6.23L14.46,-5.45L14.56,-5.03L14.48,-4.73L14.95,-4.21L15.04,-3.85L15.41,-3.34L15.86,-3.01L15.91,-2.56L16.01,-2.27L15.94,-1.73L15.15,-1.96L14.34,-2.23L13.08,-2.27L12.95,-2.32L12.36,-2.19L11.75,-2.33L11.28,-2.26L9.65,-2.28L9.80,-3.07L9.40,-3.73L8.95,-3.90L8.74,-4.35L8.49,-4.50L8.50,-4.77L8.76,-5.48L9.23,-6.44L9.52,-6.45L10.12,-7.04L10.50,-7.06L11.06,-6.64L11.75,-6.98L11.84,-7.40L12.06,-7.80L12.22,-8.31L12.75,-8.72L12.96,-9.42L13.17,-9.64L13.31,-10.16L13.57,-10.80L14.42,-11.57L14.47,-11.90L14.58,-12.09L14.18,-12.48L14.21,-12.80L14.50,-12.86Z" fill="#00e5ff" stroke="#00e5ff" stroke-width="0.5" fill-opacity="0.8"/>
</svg>