<svg xmlns="http://www.w3.org/2000/svg" viewBox="-143.00 -85.23 92.35 45.55" width="300" height="300" preserveAspectRatio="xMidYMid meet">
  <path d="M-122.84,-49.00L-122.97,-49.00L-124.91,-49.98L-125.62,-50.42L-127.44,-50.83L-127.99,-51.72L-127.85,-52.33L-129.13,-52.76L-129.31,-53.56L-130.51,-54.29L-130.54,-54.80L-130.54,-54.80L-129.98,-55.28L-130.01,-55.92L-131.71,-56.55L-132.73,-57.69L-133.36,-58.41L-134.27,-58.86L-134.94,-59.27L-135.48,-59.79L-136.48,-59.46L-137.45,-58.91L-138.34,-59.56L-139.04,-60.00L-140.01,-60.28L-141.00,-60.31L-140.99,-66.00L-140.99,-69.71L-140.99,-69.71L-139.12,-69.47L-137.55,-68.99L-136.50,-68.90L-135.63,-69.32L-134.41,-69.63L-132.93,-69.51L-131.43,-69.94L-129.79,-70.19L-129.11,-69.78L-128.36,-70.01L-128.14,-70.48L-127.45,-70.38L-125.76,-69.48L-124.42,-70.16L-124.29,-69.40L-123.06,-69.56L-122.68,-69.86L-121.47,-69.80L-119.94,-69.38L-117.60,-69.01L-116.23,-68.84L-115.25,-68.91L-113.90,-68.40L-115.30,-67.90L-113.50,-67.69L-110.80,-67.81L-109.95,-67.98L-108.88,-67.38L-107.79,-67.89L-108.81,-68.31L-108.17,-68.65L-106.95,-68.70L-106.15,-68.80L-105.34,-68.56L-104.34,-68.02L-103.22,-68.10L-101.45,-67.65L-99.90,-67.81L-98.44,-67.78L-98.56,-68.40L-97.67,-68.58L-96.12,-68.24L-96.13,-67.29L-95.49,-68.09L-94.69,-68.06L-94.23,-69.07L-95.30,-69.69L-96.47,-70.09L-96.39,-71.19L-95.21,-71.92L-93.89,-71.76L-92.88,-71.32L-91.52,-70.19L-92.41,-69.70L-90.55,-69.50L-90.55,-68.47L-89.22,-69.26L-88.02,-68.62L-88.32,-67.87L-87.35,-67.20L-86.31,-67.92L-85.58,-68.78L-85.52,-69.88L-84.10,-69.81L-82.62,-69.66L-81.28,-69.16L-81.22,-68.67L-81.96,-68.13L-81.26,-67.60L-81.39,-67.11L-83.34,-66.41L-84.74,-66.26L-85.77,-66.56L-86.07,-66.06L-87.03,-65.21L-87.32,-64.78L-88.48,-64.10L-89.91,-64.03L-90.70,-63.61L-90.77,-62.96L-91.93,-62.84L-93.16,-62.02L-94.24,-60.90L-94.63,-60.11L-94.68,-58.95L-93.22,-58.78L-92.76,-57.85L-92.30,-57.09L-90.90,-57.28L-89.04,-56.85L-88.04,-56.47L-87.32,-56.00L-86.07,-55.72L-85.01,-55.30L-83.36,-55.24L-82.27,-55.15L-82.44,-54.28L-82.13,-53.28L-81.40,-52.16L-79.91,-51.21L-79.14,-51.53L-78.60,-52.56L-79.12,-54.14L-79.83,-54.67L-78.23,-55.14L-77.10,-55.84L-76.54,-56.53L-76.62,-57.20L-77.30,-58.05L-78.52,-58.80L-77.34,-59.85L-77.77,-60.76L-78.11,-62.32L-77.41,-62.55L-75.70,-62.28L-74.67,-62.18L-73.84,-62.44L-72.91,-62.11L-71.68,-61.53L-71.37,-61.14L-69.59,-61.06L-69.62,-60.22L-69.29,-58.96L-68.37,-58.80L-67.65,-58.21L-66.20,-58.77L-65.25,-59.87L-64.58,-60.34L-63.80,-59.44L-62.50,-58.17L-61.40,-56.97L-61.80,-56.34L-60.47,-55.78L-59.57,-55.20L-57.98,-54.95L-57.33,-54.63L-56.94,-53.78L-56.16,-53.65L-55.76,-53.27L-55.68,-52.15L-56.41,-51.77L-57.13,-51.42L-58.77,-51.06L-60.03,-50.24L-61.72,-50.08L-63.86,-50.29L-65.36,-50.30L-66.40,-50.23L-67.24,-49.51L-68.51,-49.07L-69.95,-47.74L-71.10,-46.82L-70.26,-46.99L-68.65,-48.30L-66.55,-49.13L-65.06,-49.23L-64.17,-48.74L-65.12,-48.07L-64.80,-46.99L-64.47,-46.24L-63.17,-45.74L-61.52,-45.88L-60.52,-47.01L-60.45,-46.28L-59.80,-45.92L-61.04,-45.27L-63.25,-44.67L-64.25,-44.27L-65.36,-43.55L-66.12,-43.62L-66.16,-44.47L-64.43,-45.29L-66.03,-45.26L-67.14,-45.14L-67.79,-45.70L-67.79,-47.07L-68.23,-47.35L-68.91,-47.19L-69.24,-47.45L-70.00,-46.69L-70.31,-45.91L-70.66,-45.46L-71.08,-45.31L-71.41,-45.26L-71.51,-45.01L-73.35,-45.01L-74.87,-45.00L-75.32,-44.82L-76.38,-44.10L-76.50,-44.02L-76.82,-43.63L-77.74,-43.63L-78.72,-43.63L-79.17,-43.47L-79.01,-43.27L-78.92,-42.97L-78.94,-42.86L-80.25,-42.37L-81.28,-42.21L-82.44,-41.68L-82.69,-41.68L-83.03,-41.83L-83.14,-41.98L-83.12,-42.08L-82.90,-42.43L-82.43,-42.98L-82.14,-43.57L-82.34,-44.44L-82.55,-45.35L-83.59,-45.82L-83.47,-45.99L-83.62,-46.12L-83.89,-46.12L-84.09,-46.28L-84.14,-46.51L-84.34,-46.41L-84.60,-46.44L-84.54,-46.54L-84.78,-46.64L-84.88,-46.90L-85.65,-47.22L-86.46,-47.55L-87.44,-47.94L-88.38,-48.30L-89.27,-48.02L-89.60,-48.01L-90.83,-48.27L-91.64,-48.14L-92.61,-48.45L-93.63,-48.61L-94.33,-48.67L-94.64,-48.84L-94.82,-49.39L-95.16,-49.38L-95.16,-49.00L-97.23,-49.00L-100.65,-49.00L-104.05,-49.00L-107.05,-49.00L-110.05,-49.00L-113.00,-49.00L-116.05,-49.00L-117.03,-49.00L-120.00,-49.00L-122.84,-49.00ZM-83.99,-62.45L-83.25,-62.91L-81.88,-62.90L-81.90,-62.71L-83.07,-62.16L-83.77,-62.18L-83.99,-62.45ZM-79.78,-72.80L-80.88,-73.33L-80.83,-73.69L-80.35,-73.76L-78.06,-73.65L-76.34,-73.10L-76.25,-72.83L-77.31,-72.86L-78.39,-72.88L-79.49,-72.74L-79.78,-72.80ZM-80.32,-62.09L-79.93,-62.39L-79.52,-62.36L-79.27,-62.16L-79.66,-61.63L-80.10,-61.72L-80.36,-62.02L-80.32,-62.09ZM-93.61,-74.98L-94.16,-74.59L-95.61,-74.67L-96.82,-74.93L-96.29,-75.38L-94.85,-75.65L-93.98,-75.30L-93.61,-74.98ZM-93.84,-77.52L-94.30,-77.49L-96.17,-77.56L-96.44,-77.83L-94.42,-77.82L-93.72,-77.63L-93.84,-77.52ZM-96.75,-78.77L-95.56,-78.42L-95.83,-78.06L-97.31,-77.85L-98.12,-78.08L-98.55,-78.46L-98.63,-78.87L-97.34,-78.83L-96.75,-78.77ZM-88.15,-74.39L-89.76,-74.52L-92.42,-74.84L-92.77,-75.39L-92.89,-75.88L-93.89,-76.32L-95.96,-76.44L-97.12,-76.75L-96.75,-77.16L-94.68,-77.10L-93.57,-76.78L-91.61,-76.78L-90.74,-76.45L-90.97,-76.07L-89.82,-75.85L-89.19,-75.61L-87.84,-75.57L-86.38,-75.48L-84.79,-75.70L-82.75,-75.78L-81.13,-75.71L-80.06,-75.34L-79.83,-74.92L-80.46,-74.66L-81.95,-74.44L-83.23,-74.56L-86.10,-74.41L-88.15,-74.39ZM-111.26,-78.15L-109.85,-78.00L-110.19,-77.70L-112.05,-77.41L-113.53,-77.73L-112.72,-78.05L-111.26,-78.15ZM-110.96,-78.80L-109.66,-78.60L-110.88,-78.41L-112.54,-78.41L-112.53,-78.55L-111.50,-78.85L-110.96,-78.80ZM-55.60,-51.32L-56.13,-50.69L-56.80,-49.81L-56.14,-50.15L-55.47,-49.94L-55.82,-49.59L-54.94,-49.31L-54.47,-49.56L-53.48,-49.25L-53.79,-48.52L-53.09,-48.69L-52.96,-48.16L-52.65,-47.54L-53.07,-46.66L-53.52,-46.62L-54.18,-46.81L-53.96,-47.63L-54.24,-47.75L-55.40,-46.88L-56.00,-46.92L-55.29,-47.39L-56.25,-47.63L-57.33,-47.57L-59.27,-47.60L-59.42,-47.90L-58.80,-48.25L-59.23,-48.52L-58.39,-49.13L-57.36,-50.72L-56.74,-51.29L-55.87,-51.63L-55.41,-51.59L-55.60,-51.32ZM-83.88,-65.11L-82.79,-64.77L-81.64,-64.46L-81.55,-63.98L-80.82,-64.06L-80.10,-63.73L-80.99,-63.41L-82.55,-63.65L-83.11,-64.10L-84.10,-63.57L-85.52,-63.05L-85.87,-63.64L-87.22,-63.54L-86.35,-64.04L-86.22,-64.82L-85.88,-65.74L-85.16,-65.66L-84.98,-65.22L-84.46,-65.37L-83.88,-65.11ZM-78.77,-72.35L-77.82,-72.75L-75.61,-72.24L-74.23,-71.77L-74.10,-71.33L-72.24,-71.56L-71.20,-70.92L-68.79,-70.53L-67.91,-70.12L-66.97,-69.19L-68.81,-68.72L-66.45,-68.07L-64.86,-67.85L-63.42,-66.93L-61.85,-66.86L-62.16,-66.16L-63.92,-65.00L-65.15,-65.43L-66.72,-66.39L-68.02,-66.26L-68.14,-65.69L-67.09,-65.11L-65.73,-64.65L-65.32,-64.38L-64.67,-63.39L-65.01,-62.67L-66.28,-62.95L-68.78,-63.75L-67.37,-62.88L-66.33,-62.28L-66.17,-61.93L-68.88,-62.33L-71.02,-62.91L-72.24,-63.40L-71.89,-63.68L-73.38,-64.19L-74.83,-64.68L-74.82,-64.39L-77.71,-64.23L-78.56,-64.57L-77.90,-65.31L-76.02,-65.33L-73.96,-65.45L-74.29,-65.81L-73.94,-66.31L-72.65,-67.28L-72.93,-67.73L-73.31,-68.07L-74.84,-68.55L-76.87,-68.89L-76.23,-69.15L-77.29,-69.77L-78.17,-69.83L-78.96,-70.17L-79.49,-69.87L-81.31,-69.74L-84.94,-69.97L-87.06,-70.26L-88.68,-70.41L-89.51,-70.76L-88.47,-71.22L-89.89,-71.22L-90.21,-72.24L-89.44,-73.13L-88.41,-73.54L-85.83,-73.80L-86.56,-73.16L-85.77,-72.53L-84.85,-73.34L-82.32,-73.75L-80.60,-72.72L-80.75,-72.06L-78.77,-72.35ZM-94.50,-74.13L-92.42,-74.10L-90.51,-73.86L-92.00,-72.97L-93.20,-72.77L-94.27,-72.02L-95.41,-72.06L-96.03,-72.94L-96.02,-73.44L-95.50,-73.86L-94.50,-74.13ZM-122.85,-76.12L-122.85,-76.12L-121.16,-76.86L-119.10,-77.51L-117.57,-77.50L-116.20,-77.65L-116.34,-76.88L-117.11,-76.53L-118.04,-76.48L-119.90,-76.05L-121.50,-75.90L-122.85,-76.12ZM-132.71,-54.04L-131.75,-54.12L-132.05,-52.98L-131.18,-52.18L-131.58,-52.18L-132.18,-52.64L-132.55,-53.10L-133.05,-53.41L-133.24,-53.85L-133.18,-54.17L-132.71,-54.04ZM-105.49,-79.30L-103.53,-79.17L-100.83,-78.80L-100.06,-78.32L-99.67,-77.91L-101.30,-78.02L-102.95,-78.34L-105.18,-78.38L-104.21,-78.68L-105.42,-78.92L-105.49,-79.30ZM-123.51,-48.51L-124.01,-48.37L-125.66,-48.83L-125.95,-49.18L-126.85,-49.53L-127.03,-49.81L-128.06,-49.99L-128.44,-50.54L-128.36,-50.77L-127.31,-50.55L-126.70,-50.40L-125.76,-50.30L-125.42,-49.95L-124.92,-49.48L-123.92,-49.06L-123.51,-48.51ZM-121.54,-74.45L-120.11,-74.24L-117.56,-74.19L-116.58,-73.90L-115.51,-73.48L-116.77,-73.22L-119.22,-72.52L-120.46,-71.82L-120.46,-71.38L-123.09,-70.90L-123.62,-71.34L-125.93,-71.87L-125.50,-72.29L-124.81,-73.02L-123.94,-73.68L-124.92,-74.29L-121.54,-74.45ZM-107.82,-75.85L-106.93,-76.01L-105.88,-75.97L-105.70,-75.48L-106.31,-75.01L-109.70,-74.85L-112.22,-74.42L-113.74,-74.39L-113.87,-74.72L-111.79,-75.16L-116.31,-75.04L-117.71,-75.22L-116.35,-76.20L-115.40,-76.48L-112.59,-76.14L-110.81,-75.55L-109.07,-75.47L-110.50,-76.43L-109.58,-76.79L-108.55,-76.68L-108.21,-76.20L-107.82,-75.85ZM-106.52,-73.08L-105.40,-72.67L-104.77,-71.70L-104.46,-70.99L-102.79,-70.50L-100.98,-70.02L-101.09,-69.58L-102.73,-69.50L-102.09,-69.12L-102.43,-68.75L-104.24,-68.91L-105.96,-69.18L-107.12,-69.12L-109.00,-68.78L-111.53,-68.63L-113.31,-68.54L-113.85,-69.01L-115.22,-69.28L-116.11,-69.17L-117.34,-69.96L-116.67,-70.07L-115.13,-70.24L-113.72,-70.19L-112.42,-70.37L-114.35,-70.60L-116.49,-70.52L-117.90,-70.54L-118.43,-70.91L-116.11,-71.31L-117.66,-71.30L-119.40,-71.56L-118.56,-72.31L-117.87,-72.71L-115.19,-73.31L-114.17,-73.12L-114.67,-72.65L-112.44,-72.96L-111.05,-72.45L-109.92,-72.96L-109.01,-72.63L-108.19,-71.65L-107.69,-72.07L-108.40,-73.09L-107.52,-73.24L-106.52,-73.08ZM-100.44,-72.71L-101.54,-73.36L-100.36,-73.84L-99.16,-73.63L-97.38,-73.76L-97.12,-73.47L-98.05,-72.99L-96.54,-72.56L-96.72,-71.66L-98.36,-71.27L-99.32,-71.36L-100.01,-71.74L-102.50,-72.51L-102.48,-72.83L-100.44,-72.71ZM-106.60,-73.60L-105.26,-73.64L-104.50,-73.42L-105.38,-72.76L-106.94,-73.46L-106.60,-73.60ZM-98.50,-76.72L-97.74,-76.26L-97.70,-75.74L-98.16,-75.00L-99.81,-74.90L-100.88,-75.06L-100.86,-75.64L-102.50,-75.56L-102.57,-76.34L-101.49,-76.31L-99.98,-76.65L-98.58,-76.59L-98.50,-76.72ZM-96.02,-80.60L-95.32,-80.91L-94.30,-80.98L-94.74,-81.21L-92.41,-81.26L-91.13,-80.72L-89.45,-80.51L-87.81,-80.32L-87.02,-79.66L-85.81,-79.34L-87.19,-79.04L-89.04,-78.29L-90.80,-78.22L-92.88,-78.34L-93.95,-78.75L-93.94,-79.11L-93.15,-79.38L-94.97,-79.37L-96.08,-79.71L-96.71,-80.16L-96.02,-80.60ZM-91.59,-81.89L-90.10,-82.08L-88.93,-82.12L-86.97,-82.28L-85.50,-82.65L-84.26,-82.60L-83.18,-82.32L-82.42,-82.86L-81.10,-83.02L-79.31,-83.13L-76.25,-83.17L-75.72,-83.06L-72.83,-83.23L-70.67,-83.17L-68.50,-83.11L-65.83,-83.03L-63.68,-82.90L-61.85,-82.63L-61.89,-82.36L-64.33,-81.93L-66.75,-81.73L-67.66,-81.50L-65.48,-81.51L-67.84,-80.90L-69.47,-80.62L-71.18,-79.80L-73.24,-79.63L-73.88,-79.43L-76.91,-79.32L-75.53,-79.20L-76.22,-79.02L-75.39,-78.53L-76.34,-78.18L-77.89,-77.90L-78.36,-77.51L-79.76,-77.21L-79.62,-76.98L-77.91,-77.02L-77.89,-76.78L-80.56,-76.18L-83.17,-76.45L-86.11,-76.30L-87.60,-76.42L-89.49,-76.47L-89.62,-76.95L-87.77,-77.18L-88.26,-77.90L-87.65,-77.97L-84.98,-77.54L-86.34,-78.18L-87.96,-78.37L-87.15,-78.76L-85.38,-79.00L-85.09,-79.35L-86.51,-79.74L-86.93,-80.25L-84.20,-80.21L-83.41,-80.10L-81.85,-80.46L-84.10,-80.58L-87.60,-80.52L-89.37,-80.86L-90.20,-81.26L-91.37,-81.55L-91.59,-81.89ZM-75.22,-67.44L-75.87,-67.15L-76.99,-67.10L-77.24,-67.59L-76.81,-68.15L-75.90,-68.29L-75.11,-68.01L-75.10,-67.58L-75.22,-67.44ZM-96.26,-69.49L-95.65,-69.11L-96.27,-68.76L-97.62,-69.06L-98.43,-68.95L-99.80,-69.40L-98.92,-69.71L-98.22,-70.14L-97.16,-69.86L-96.56,-69.68L-96.26,-69.49ZM-64.52,-49.87L-64.17,-49.96L-62.86,-49.71L-61.84,-49.29L-61.81,-49.11L-62.29,-49.09L-63.59,-49.40L-64.52,-49.87ZM-64.01,-47.04L-63.66,-46.55L-62.94,-46.42L-62.01,-46.44L-62.50,-46.03L-62.87,-45.97L-64.14,-46.39L-64.39,-46.73L-64.01,-47.04Z" fill="#00e5ff" stroke="#00e5ff" stroke-width="0.5" fill-opacity="0.8"/>
</svg>