<svg xmlns="http://www.w3.org/2000/svg" viewBox="12.46 -13.14 16.91 12.87" width="300" height="300" preserveAspectRatio="xMidYMid meet">
  <path d="M27.37,-5.23L27.04,-5.13L26.40,-5.15L25.65,-5.26L25.28,-5.17L25.13,-4.93L24.81,-4.90L24.41,-5.11L23.30,-4.61L22.84,-4.71L22.70,-4.63L22.41,-4.03L21.66,-4.22L20.93,-4.32L20.29,-4.69L19.47,-5.03L18.93,-4.71L18.54,-4.20L18.45,-3.50L17.81,-3.56L17.13,-3.73L16.54,-3.20L16.01,-2.27L15.91,-2.56L15.86,-3.01L15.41,-3.34L15.04,-3.85L14.95,-4.21L14.48,-4.73L14.56,-5.03L14.46,-5.45L14.54,-6.23L14.78,-6.41L15.28,-7.42L16.11,-7.50L16.29,-7.75L16.46,-7.73L16.71,-7.51L17.96,-7.89L18.39,-8.28L18.91,-8.63L18.81,-8.98L19.09,-9.07L20.06,-9.01L21.00,-9.48L21.72,-10.57L22.23,-10.97L22.86,-11.14L22.98,-10.71L23.55,-10.09L23.56,-9.68L23.39,-9.27L23.46,-8.95L23.81,-8.67L24.57,-8.23L25.11,-7.83L25.12,-7.50L25.80,-6.98L26.21,-6.55L26.47,-5.95L27.21,-5.55L27.37,-5.23Z" fill="#00e5ff" stroke="#00e5ff" stroke-width="0.5" fill-opacity="0.8"/>
</svg>