<svg xmlns="http://www.w3.org/2000/svg" viewBox="-1.5 -39.1 40.3 46.6" width="400" height="300" preserveAspectRatio="xMidYMid meet">
  <rect x="-1.5" y="-39.1" width="40.3" height="46.6" fill="#0e0e18"/>
  <path d="M33.9,1.0L34.1,1.1L37.7,3.1L37.8,3.7L39.2,4.7L38.7,5.9L38.8,6.5L39.4,6.9L39.5,7.1L39.2,7.7L39.3,8.0L39.2,8.5L39.5,9.2L39.9,10.2L40.3,10.4L40.3,10.4L39.5,11.0L38.4,11.4L37.8,11.3L37.5,11.6L36.8,11.7L36.5,11.8L35.3,11.5L34.6,11.6L34.3,10.2L33.9,9.7L33.7,9.5L32.8,9.3L32.2,9.0L31.6,8.8L31.2,8.6L30.7,8.4L30.7,8.4L30.2,7.1L29.6,6.5L29.4,6.0L29.5,5.4L29.3,4.5L29.8,4.5L30.1,4.1L30.5,3.6L30.8,3.4L30.7,3.0L30.5,2.8L30.5,2.4L30.5,2.4L30.8,2.3L30.8,1.7L30.4,1.1L30.8,1.0L31.9,1.0L33.9,1.0Z" fill="#1e1e2e" stroke="#2a2a3a" stroke-width="0.3"/>
  <path d="M29.3,4.5L29.5,5.4L29.4,6.0L29.6,6.5L30.2,7.1L30.7,8.4L30.7,8.4L30.3,8.3L29.0,8.4L28.7,8.6L28.4,9.2L28.7,9.7L28.5,10.9L28.4,11.9L28.6,12.1L29.3,12.5L29.6,12.3L29.7,13.4L28.9,13.4L28.5,12.8L28.2,12.4L27.4,12.2L27.2,11.7L26.6,12.0L25.8,11.9L25.4,11.4L24.8,11.3L24.3,11.3L24.3,11.0L23.9,11.0L23.5,10.9L22.8,11.1L22.4,11.1L22.2,11.2L22.2,9.9L21.9,9.6L21.8,8.9L21.9,8.3L21.7,7.9L21.7,7.3L20.5,7.3L20.6,7.0L20.1,7.0L20.0,7.1L19.4,7.2L19.2,7.8L19.0,8.0L18.5,7.9L18.1,8.0L17.5,8.1L17.1,7.6L16.9,7.2L16.6,6.6L16.3,5.9L13.4,5.9L13.0,6.0L12.7,6.0L12.3,6.1L12.2,5.8L12.4,5.7L12.5,5.3L12.6,5.0L13.0,4.8L13.3,4.9L13.6,4.5L14.1,4.5L14.2,4.8L14.6,5.0L15.2,4.3L15.8,3.9L16.0,3.5L16.0,2.7L16.4,1.7L16.9,1.2L17.5,0.7L17.6,0.4L17.7,0.1L17.8,-0.3L17.8,-0.9L17.9,-1.7L18.1,-2.4L18.4,-2.9L18.5,-3.5L18.5,-4.2L18.9,-4.7L19.5,-5.0L20.3,-4.7L20.9,-4.3L21.7,-4.2L22.4,-4.0L22.7,-4.6L22.8,-4.7L23.3,-4.6L24.4,-5.1L24.8,-4.9L25.1,-4.9L25.3,-5.2L25.7,-5.3L26.4,-5.2L27.0,-5.1L27.4,-5.2L28.0,-4.4L28.4,-4.3L28.7,-4.5L29.2,-4.4L29.7,-4.6L30.0,-4.2L30.8,-3.5L30.8,-3.5L30.8,-2.3L31.2,-2.2L30.9,-1.8L30.5,-1.6L30.1,-1.1L29.9,-0.6L29.8,0.2L29.6,0.6L29.6,1.3L29.3,1.6L29.3,2.2L29.1,2.3L29.0,2.8L29.3,3.3L29.3,4.5Z" fill="#1e1e2e" stroke="#2a2a3a" stroke-width="0.3"/>
  <path d="M39.2,4.7L37.8,3.7L37.7,3.1L34.1,1.1L33.9,1.0L33.9,-0.1L34.2,-0.5L34.7,-1.2L35.0,-1.9L34.6,-3.1L34.5,-3.6L34.0,-4.3L34.6,-4.9L35.3,-5.5L35.8,-5.3L35.8,-4.8L36.2,-4.5L36.9,-4.5L38.1,-3.6L38.4,-3.6L38.7,-3.6L38.9,-3.5L39.6,-3.4L39.9,-3.8L40.8,-4.3L41.2,-3.9L41.9,-3.9L41.0,-2.8L41.0,0.9L41.6,1.7L40.9,2.1L40.6,2.5L40.3,2.6L40.1,3.3L39.8,3.7L39.6,4.4L39.2,4.7Z" fill="#1e1e2e" stroke="#2a2a3a" stroke-width="0.3"/>
  <path d="M24.6,-8.3L23.8,-8.7L23.5,-9.0L23.4,-9.3L23.6,-9.7L23.6,-10.1L23.0,-10.8L22.9,-11.2L22.9,-11.5L22.5,-11.8L22.5,-12.4L22.3,-12.7L21.9,-12.7L22.0,-13.1L22.3,-13.5L22.2,-13.9L22.5,-14.2L22.3,-14.5L22.6,-15.1L23.0,-15.9L23.9,-15.8L23.8,-20.0L23.9,-20.4L25.0,-20.4L25.0,-22.6L29.0,-22.6L32.9,-22.6L36.9,-22.6L37.2,-21.5L37.0,-21.3L37.1,-20.2L37.5,-19.0L37.9,-18.7L38.4,-18.3L37.9,-17.7L37.2,-17.5L36.9,-17.2L36.8,-16.5L36.3,-15.0L36.4,-14.6L36.3,-13.7L35.9,-12.7L35.3,-12.2L34.8,-11.4L34.7,-11.0L34.3,-10.7L34.0,-9.6L34.0,-8.7L34.0,-9.5L33.8,-9.5L33.8,-10.0L33.7,-10.4L33.2,-10.8L33.1,-11.5L33.2,-12.3L32.7,-12.3L32.7,-12.1L32.1,-12.1L32.3,-11.8L32.4,-11.2L31.9,-10.6L31.4,-9.9L30.8,-9.8L30.0,-10.3L29.6,-10.1L29.5,-9.8L29.0,-9.6L29.0,-9.4L28.0,-9.4L27.8,-9.6L27.1,-9.7L26.8,-9.5L26.5,-9.6L26.0,-10.2L25.8,-10.5L25.1,-10.3L24.8,-9.9L24.5,-9.0L24.2,-8.8L23.9,-8.7L24.6,-8.3Z" fill="#1e1e2e" stroke="#2a2a3a" stroke-width="0.3"/>
  <path d="M-51.7,-4.2L-52.2,-3.2L-52.6,-2.5L-52.9,-2.1L-53.4,-2.1L-53.6,-2.3L-53.8,-2.4L-54.1,-2.1L-54.5,-2.3L-54.3,-2.7L-54.2,-3.2L-54.0,-3.6L-54.4,-4.2L-54.5,-4.9L-54.0,-5.8L-53.6,-5.7L-52.9,-5.4L-51.8,-4.6L-51.7,-4.2ZM6.2,-57.1L6.7,-56.7L8.1,-56.4L7.6,-55.4L7.5,-54.3L7.2,-54.0L6.7,-54.2L6.8,-53.8L6.0,-53.0L6.0,-52.3L6.5,-52.5L6.8,-51.9L6.8,-51.5L7.1,-51.0L6.7,-50.5L7.0,-49.5L7.5,-49.3L7.4,-48.7L6.5,-47.9L4.6,-48.3L3.1,-47.8L3.0,-47.0L1.8,-46.8L0.7,-47.4L0.3,-47.1L-1.5,-47.8L-1.9,-48.3L-1.4,-49.1L-1.2,-51.9L-2.2,-53.5L-3.0,-54.2L-4.5,-54.8L-4.6,-55.9L-3.3,-56.2L-1.6,-55.8L-1.9,-57.6L-1.0,-56.9L1.3,-58.1L1.6,-59.4L2.5,-59.7L2.7,-59.2L3.1,-59.1L3.6,-58.5L4.3,-57.8L4.8,-57.9L5.7,-57.2L5.9,-57.0L6.2,-57.1ZM8.7,-47.2L9.4,-47.7L9.6,-46.6L9.2,-45.5L8.8,-45.8L8.5,-46.7L8.7,-47.2Z" fill="#1e1e2e" stroke="#2a2a3a" stroke-width="0.3"/>
  <path d="M-11.5,-12.5L-11.5,-12.9L-11.6,-13.3L-11.9,-13.5L-12.1,-14.1L-12.2,-14.8L-11.8,-15.0L-11.7,-15.6L-11.3,-15.6L-10.7,-15.3L-10.1,-15.5L-9.7,-15.4L-9.6,-15.7L-5.5,-15.7L-5.3,-16.4L-5.5,-16.6L-6.0,-21.1L-6.5,-25.8L-4.9,-25.8L-1.6,-23.4L1.8,-21.1L2.1,-20.6L2.7,-20.3L3.1,-20.1L3.2,-19.4L4.3,-19.5L4.3,-17.1L3.7,-16.4L3.6,-15.8L2.7,-15.6L1.4,-15.5L1.0,-15.1L0.4,-15.1L-0.3,-15.1L-0.5,-15.3L-1.1,-15.1L-2.0,-14.7L-2.2,-14.4L-3.0,-13.9L-3.1,-13.7L-3.5,-13.5L-4.0,-13.6L-4.3,-13.3L-4.4,-12.6L-5.2,-11.8L-5.2,-11.5L-5.5,-11.0L-5.4,-10.4L-5.8,-10.3L-6.1,-10.1L-6.2,-10.6L-6.5,-10.5L-6.7,-10.5L-6.9,-10.2L-7.6,-10.2L-7.9,-10.4L-8.0,-10.3L-8.3,-10.6L-8.3,-10.9L-8.4,-11.0L-8.6,-10.9L-8.6,-11.2L-8.4,-11.5L-8.8,-11.9L-8.9,-12.2L-9.1,-12.4L-9.3,-12.4L-9.6,-12.3L-9.9,-12.2L-10.2,-11.9L-10.6,-12.0L-10.9,-12.3L-11.0,-12.3L-11.3,-12.2L-11.5,-12.2L-11.5,-12.5Z" fill="#1e1e2e" stroke="#2a2a3a" stroke-width="0.3"/>
  <path d="M2.7,-6.3L1.9,-6.2L1.6,-6.8L1.7,-9.2L1.5,-9.4L1.4,-9.9L1.1,-10.2L0.8,-10.5L0.9,-11.1L1.2,-11.2L1.4,-11.6L1.9,-11.7L2.2,-12.0L2.5,-12.3L2.8,-12.3L3.6,-11.7L3.6,-11.4L3.8,-10.8L3.6,-10.4L3.7,-10.1L3.2,-9.5L2.9,-9.2L2.7,-8.5L2.7,-7.9L2.7,-6.3Z" fill="#1e1e2e" stroke="#2a2a3a" stroke-width="0.3"/>
  <path d="M14.9,-23.5L15.1,-21.8L15.5,-21.5L15.5,-21.2L15.9,-20.8L15.7,-20.4L15.3,-18.2L15.2,-16.9L14.0,-15.9L13.5,-14.5L14.0,-14.1L14.0,-13.5L14.6,-13.5L14.5,-13.0L14.2,-12.9L14.2,-12.6L14.0,-12.6L13.3,-13.7L13.1,-13.7L12.3,-13.2L11.5,-13.5L11.0,-13.5L10.7,-13.4L10.1,-13.4L9.5,-13.0L9.0,-12.9L7.8,-13.5L7.3,-13.2L6.8,-13.2L6.4,-13.6L5.4,-14.0L4.4,-13.9L4.1,-13.7L4.0,-13.1L3.7,-12.7L3.6,-11.7L2.8,-12.3L2.5,-12.3L2.2,-12.0L2.2,-12.7L1.0,-13.0L1.0,-13.5L0.4,-14.1L0.3,-14.6L0.4,-15.1L1.0,-15.1L1.4,-15.5L2.7,-15.6L3.6,-15.8L3.7,-16.4L4.3,-17.1L4.3,-19.5L5.7,-20.0L8.6,-22.1L12.0,-24.2L13.6,-23.7L14.1,-23.1L14.9,-23.5Z" fill="#1e1e2e" stroke="#2a2a3a" stroke-width="0.3"/>
  <path d="M2.7,-6.3L2.7,-7.9L2.7,-8.5L2.9,-9.2L3.2,-9.5L3.7,-10.1L3.6,-10.4L3.8,-10.8L3.6,-11.4L3.6,-11.7L3.7,-12.7L4.0,-13.1L4.1,-13.7L4.4,-13.9L5.4,-14.0L6.4,-13.6L6.8,-13.2L7.3,-13.2L7.8,-13.5L9.0,-12.9L9.5,-13.0L10.1,-13.4L10.7,-13.4L11.0,-13.5L11.5,-13.5L12.3,-13.2L13.1,-13.7L13.3,-13.7L14.0,-12.6L14.2,-12.6L14.6,-12.2L14.5,-12.0L14.4,-11.7L13.6,-10.9L13.3,-10.2L13.2,-9.7L13.0,-9.5L12.8,-8.8L12.2,-8.3L12.1,-7.8L11.8,-7.4L11.7,-7.0L11.1,-6.7L10.5,-7.1L10.1,-7.1L9.5,-6.5L9.2,-6.5L8.8,-5.5L8.5,-4.8L7.5,-4.4L7.1,-4.5L6.7,-4.2L5.9,-4.3L5.4,-4.9L5.0,-5.6L4.3,-6.3L3.6,-6.3L2.7,-6.3Z" fill="#1e1e2e" stroke="#2a2a3a" stroke-width="0.3"/>
  <path d="M14.5,-13.0L14.9,-12.3L15.0,-11.6L14.9,-11.0L15.5,-10.0L14.9,-10.0L14.6,-10.0L14.2,-10.1L14.0,-9.6L14.5,-9.0L15.0,-8.8L15.1,-8.4L15.4,-7.7L15.3,-7.4L14.8,-6.4L14.5,-6.2L14.5,-5.5L14.6,-5.0L14.5,-4.7L15.0,-4.2L15.0,-3.9L15.4,-3.3L15.9,-3.0L15.9,-2.6L16.0,-2.3L15.9,-1.7L15.1,-2.0L14.3,-2.2L13.1,-2.3L13.0,-2.3L12.4,-2.2L11.8,-2.3L11.3,-2.3L9.6,-2.3L9.8,-3.1L9.4,-3.7L8.9,-3.9L8.7,-4.4L8.5,-4.5L8.5,-4.8L8.8,-5.5L9.2,-6.5L9.5,-6.5L10.1,-7.1L10.5,-7.1L11.1,-6.7L11.7,-7.0L11.8,-7.4L12.1,-7.8L12.2,-8.3L12.8,-8.8L13.0,-9.5L13.2,-9.7L13.3,-10.2L13.6,-10.9L14.4,-11.7L14.5,-12.0L14.6,-12.2L14.2,-12.6L14.2,-12.9L14.5,-13.0Z" fill="#1e1e2e" stroke="#2a2a3a" stroke-width="0.3"/>
  <path d="M0.9,-11.1L0.8,-10.5L1.1,-10.2L1.4,-9.9L1.5,-9.4L1.7,-9.2L1.6,-6.8L1.9,-6.2L1.1,-5.9L0.8,-6.3L0.6,-6.9L0.5,-7.4L0.7,-8.3L0.5,-8.7L0.4,-9.5L0.4,-10.2L-0.0,-10.8L0.0,-11.1L0.9,-11.1Z" fill="#1e1e2e" stroke="#2a2a3a" stroke-width="0.3"/>
  <path d="M0.0,-11.1L-0.0,-10.8L0.4,-10.2L0.4,-9.5L0.5,-8.7L0.7,-8.3L0.5,-7.4L0.6,-6.9L0.8,-6.3L1.1,-5.9L-0.5,-5.4L-1.1,-5.0L-2.0,-4.7L-2.9,-5.0L-2.8,-5.4L-3.2,-6.3L-3.0,-7.4L-2.6,-8.2L-2.8,-9.7L-3.0,-10.5L-2.9,-11.0L-1.2,-11.1L-0.8,-11.0L-0.4,-11.2L0.0,-11.1Z" fill="#1e1e2e" stroke="#2a2a3a" stroke-width="0.3"/>
  <path d="M-5.4,-10.4L-5.5,-11.0L-5.2,-11.5L-5.2,-11.8L-4.4,-12.6L-4.3,-13.3L-4.0,-13.6L-3.5,-13.5L-3.1,-13.7L-3.0,-13.9L-2.2,-14.4L-2.0,-14.7L-1.1,-15.1L-0.5,-15.3L-0.3,-15.1L0.4,-15.1L0.3,-14.6L0.4,-14.1L1.0,-13.5L1.0,-13.0L2.2,-12.7L2.2,-12.0L1.9,-11.7L1.4,-11.6L1.2,-11.2L0.9,-11.1L0.0,-11.1L-0.4,-11.2L-0.8,-11.0L-1.2,-11.1L-2.9,-11.0L-3.0,-10.5L-2.8,-9.7L-3.5,-9.9L-4.0,-9.9L-4.3,-9.7L-4.8,-9.9L-5.0,-10.2L-5.4,-10.4Z" fill="#1e1e2e" stroke="#2a2a3a" stroke-width="0.3"/>
  <path d="M27.4,-5.2L27.0,-5.1L26.4,-5.2L25.7,-5.3L25.3,-5.2L25.1,-4.9L24.8,-4.9L24.4,-5.1L23.3,-4.6L22.8,-4.7L22.7,-4.6L22.4,-4.0L21.7,-4.2L20.9,-4.3L20.3,-4.7L19.5,-5.0L18.9,-4.7L18.5,-4.2L18.5,-3.5L17.8,-3.6L17.1,-3.7L16.5,-3.2L16.0,-2.3L15.9,-2.6L15.9,-3.0L15.4,-3.3L15.0,-3.9L15.0,-4.2L14.5,-4.7L14.6,-5.0L14.5,-5.5L14.5,-6.2L14.8,-6.4L15.3,-7.4L16.1,-7.5L16.3,-7.8L16.5,-7.8L16.7,-7.5L18.0,-7.9L18.4,-8.3L18.9,-8.7L18.8,-9.0L19.1,-9.1L20.1,-9.1L21.0,-9.5L21.7,-10.6L22.2,-11.0L22.9,-11.2L23.0,-10.8L23.6,-10.1L23.6,-9.7L23.4,-9.3L23.5,-9.0L23.8,-8.7L24.6,-8.3L25.1,-7.8L25.1,-7.5L25.8,-7.0L26.2,-6.6L26.5,-6.0L27.2,-5.6L27.4,-5.2Z" fill="#1e1e2e" stroke="#2a2a3a" stroke-width="0.3"/>
  <path d="M18.5,-3.5L18.4,-2.9L18.1,-2.4L17.9,-1.7L17.8,-0.9L17.8,-0.3L17.7,0.1L17.6,0.4L17.5,0.7L16.9,1.2L16.4,1.7L16.0,2.7L16.0,3.5L15.8,3.9L15.2,4.3L14.6,5.0L14.2,4.8L14.1,4.5L13.6,4.5L13.3,4.9L13.0,4.8L12.6,4.4L12.3,4.6L11.9,5.0L11.1,4.0L11.9,3.4L11.5,2.8L11.8,2.5L12.5,2.4L12.6,1.9L13.1,2.4L14.0,2.5L14.3,2.0L14.4,1.3L14.3,0.6L13.8,-0.0L14.3,-1.2L14.0,-1.4L13.3,-1.3L13.0,-1.8L13.1,-2.3L14.3,-2.2L15.1,-2.0L15.9,-1.7L16.0,-2.3L16.5,-3.2L17.1,-3.7L17.8,-3.6L18.5,-3.5Z" fill="#1e1e2e" stroke="#2a2a3a" stroke-width="0.3"/>
  <path d="M11.3,-2.3L11.8,-2.3L12.4,-2.2L13.0,-2.3L13.1,-2.3L13.0,-1.8L13.3,-1.3L14.0,-1.4L14.3,-1.2L13.8,-0.0L14.3,0.6L14.4,1.3L14.3,2.0L14.0,2.5L13.1,2.4L12.6,1.9L12.5,2.4L11.8,2.5L11.5,2.8L11.9,3.4L11.1,4.0L10.1,3.0L9.4,2.1L8.8,1.1L8.8,0.8L9.0,0.5L9.3,-0.3L9.5,-1.0L9.8,-1.1L11.3,-1.1L11.3,-2.3Z" fill="#1e1e2e" stroke="#2a2a3a" stroke-width="0.3"/>
  <path d="M9.6,-2.3L11.3,-2.3L11.3,-1.1L9.8,-1.1L9.5,-1.0L9.3,-1.2L9.6,-2.3Z" fill="#1e1e2e" stroke="#2a2a3a" stroke-width="0.3"/>
  <path d="M13.0,4.8L12.6,5.0L12.5,5.3L12.4,5.7L12.2,5.8L11.9,5.0L12.3,4.6L12.6,4.4L13.0,4.8ZM12.3,6.1L12.7,6.0L13.0,6.0L13.4,5.9L16.3,5.9L16.6,6.6L16.9,7.2L17.1,7.6L17.5,8.1L18.1,8.0L18.5,7.9L19.0,8.0L19.2,7.8L19.4,7.2L20.0,7.1L20.1,7.0L20.6,7.0L20.5,7.3L21.7,7.3L21.7,7.9L21.9,8.3L21.8,8.9L21.9,9.6L22.2,9.9L22.2,11.2L22.4,11.1L22.8,11.1L23.5,10.9L23.9,11.0L24.0,11.3L23.9,11.8L24.1,12.3L23.9,12.7L24.0,13.0L21.9,13.0L21.9,16.3L22.6,17.1L23.2,17.8L21.4,18.2L19.0,18.1L18.3,17.6L14.2,17.6L14.1,17.7L13.5,17.2L12.8,17.2L12.2,17.4L11.7,17.6L11.6,16.9L11.8,16.0L12.1,15.0L12.2,14.6L12.5,13.7L12.7,13.3L13.3,12.6L13.6,12.1L13.7,11.4L13.7,10.8L13.4,10.4L13.1,9.8L12.9,9.2L12.9,9.0L13.2,8.6L12.9,7.6L12.7,6.9L12.2,6.3L12.3,6.1Z" fill="#1e1e2e" stroke="#2a2a3a" stroke-width="0.3"/>
  <path d="M30.5,2.4L30.5,2.8L30.7,3.0L30.8,3.4L30.5,3.6L30.1,4.1L29.8,4.5L29.3,4.5L29.3,3.3L29.0,2.8L29.6,2.9L29.9,2.3L30.5,2.4Z" fill="#1e1e2e" stroke="#2a2a3a" stroke-width="0.3"/>
  <path d="M35.7,-34.6L35.5,-34.3L35.2,-34.4L35.0,-33.6L35.2,-33.5L35.0,-33.4L34.9,-33.0L35.4,-33.2L35.4,-32.8L34.9,-30.9L34.8,-31.2L34.3,-32.9L34.3,-32.9L34.3,-32.9L34.6,-33.3L34.5,-33.3L34.8,-33.9L35.0,-34.8L35.1,-35.1L35.1,-35.1L35.5,-35.1L35.6,-35.3L35.8,-35.3L35.8,-34.8L35.7,-34.7L35.7,-34.6Z" fill="#1e1e2e" stroke="#2a2a3a" stroke-width="0.3"/>
  <path d="M35.8,-35.3L35.6,-35.3L35.5,-35.1L35.1,-35.1L35.5,-36.1L36.0,-36.9L36.0,-37.0L36.4,-36.9L36.6,-36.4L36.1,-36.0L35.8,-35.3Z" fill="#1e1e2e" stroke="#2a2a3a" stroke-width="0.3"/>
  <path d="M35.4,-33.2L34.9,-33.0L35.0,-33.4L35.2,-33.5L35.0,-33.6L35.2,-34.4L35.5,-34.3L35.5,-33.6L35.4,-33.2Z" fill="#1e1e2e" stroke="#2a2a3a" stroke-width="0.3"/>
  <path d="M9.5,-31.8L9.1,-33.9L8.4,-34.4L8.4,-34.7L7.6,-35.4L7.5,-36.3L8.1,-37.0L8.4,-38.0L8.2,-39.2L8.4,-39.8L9.5,-40.3L10.2,-40.2L10.2,-39.5L11.0,-40.0L11.1,-39.8L10.6,-39.1L10.6,-38.6L10.9,-38.3L10.8,-37.2L10.1,-36.6L10.3,-35.9L10.9,-35.9L11.1,-35.3L11.5,-35.2L11.4,-34.2L10.9,-33.9L10.6,-33.5L10.0,-33.1L10.1,-32.6L10.0,-32.1L9.5,-31.8Z" fill="#1e1e2e" stroke="#2a2a3a" stroke-width="0.3"/>
  <path d="M-8.7,-28.5L-8.7,-28.7L-8.7,-28.8L-8.7,-30.1L-7.1,-31.0L-6.1,-31.2L-5.2,-31.5L-4.9,-32.1L-3.7,-32.5L-3.6,-33.4L-3.1,-33.5L-2.6,-33.9L-1.3,-34.1L-1.1,-34.6L-1.4,-34.8L-1.7,-36.1L-1.8,-36.8L-2.2,-37.6L-1.2,-38.3L-0.1,-38.5L0.5,-39.0L1.5,-39.4L3.2,-39.6L4.8,-39.7L5.3,-39.5L6.3,-40.0L7.3,-40.0L7.7,-39.7L8.4,-39.8L8.2,-39.2L8.4,-38.0L8.1,-37.0L7.5,-36.3L7.6,-35.4L8.4,-34.7L8.4,-34.4L9.1,-33.9L9.5,-31.8L9.8,-30.8L9.9,-30.3L9.7,-29.3L9.8,-28.8L9.6,-28.2L9.7,-27.5L9.3,-27.0L9.9,-26.2L9.9,-25.8L10.3,-25.2L10.8,-25.4L11.6,-24.8L12.0,-24.2L8.6,-22.1L5.7,-20.0L4.3,-19.5L3.2,-19.4L3.1,-20.1L2.7,-20.3L2.1,-20.6L1.8,-21.1L-1.6,-23.4L-4.9,-25.8L-8.7,-28.5Z" fill="#1e1e2e" stroke="#2a2a3a" stroke-width="0.3"/>
  <path d="M35.5,-34.3L35.7,-34.6L36.8,-34.2L38.8,-35.4L39.2,-34.0L39.0,-33.8L37.0,-33.2L38.0,-32.1L37.7,-31.9L37.5,-31.5L36.7,-31.3L36.5,-30.9L36.1,-30.5L35.0,-30.7L34.9,-30.9L35.4,-32.8L35.4,-33.2L35.5,-33.6L35.5,-34.3Z" fill="#1e1e2e" stroke="#2a2a3a" stroke-width="0.3"/>
  <path d="M39.2,-34.0L38.8,-35.4L41.0,-36.7L41.4,-38.2L41.3,-39.1L41.8,-39.4L42.3,-40.2L42.8,-40.4L43.9,-40.2L44.3,-39.9L44.8,-40.1L45.4,-38.6L46.1,-38.2L46.2,-37.5L45.6,-37.1L45.4,-36.2L46.1,-35.0L47.3,-34.4L47.8,-33.5L47.7,-32.6L48.0,-32.6L48.0,-32.0L48.6,-31.4L48.0,-31.4L47.3,-31.5L46.6,-30.4L44.7,-30.5L41.9,-32.9L40.4,-33.7L39.2,-34.0Z" fill="#1e1e2e" stroke="#2a2a3a" stroke-width="0.3"/>
  <path d="M35.7,-34.6L35.7,-34.7L35.8,-34.8L35.8,-35.3L36.1,-36.0L36.6,-36.4L36.4,-36.9L36.0,-37.0L35.9,-37.9L36.1,-38.4L36.4,-38.7L36.7,-39.0L36.7,-39.6L37.1,-39.4L38.2,-39.8L38.7,-39.5L39.5,-39.5L40.7,-40.0L41.2,-40.0L42.3,-40.2L41.8,-39.4L41.3,-39.1L41.4,-38.2L41.0,-36.7L38.8,-35.4L36.8,-34.2L35.7,-34.6Z" fill="#1e1e2e" stroke="#2a2a3a" stroke-width="0.3"/>
  <path d="M26.3,-37.8L26.2,-37.4L24.7,-37.3L24.7,-37.5L23.5,-37.7L23.7,-38.3L24.2,-37.9L25.0,-37.9L25.8,-37.8L25.7,-37.6L26.3,-37.8ZM23.0,-45.5L23.7,-45.4L24.5,-45.8L25.2,-45.3L26.1,-45.5L26.1,-46.1L26.6,-45.8L26.3,-44.9L26.1,-44.8L25.4,-44.8L24.9,-45.0L23.7,-44.6L24.4,-43.9L23.9,-43.7L23.3,-43.7L22.8,-44.3L22.6,-44.0L22.8,-43.3L23.4,-42.7L23.0,-42.4L23.5,-41.8L24.0,-41.4L24.0,-40.7L23.1,-41.0L23.4,-40.4L22.8,-40.3L23.2,-39.2L22.5,-39.1L21.7,-39.7L21.3,-40.7L21.1,-41.5L20.7,-42.1L20.2,-42.9L20.2,-43.2L20.6,-43.9L20.7,-44.3L21.0,-44.5L21.0,-44.8L21.7,-44.9L22.1,-45.2L22.6,-45.2L22.8,-45.4L23.0,-45.5Z" fill="#1e1e2e" stroke="#2a2a3a" stroke-width="0.3"/>
  <path d="M44.8,-40.1L44.3,-39.9L43.9,-40.2L42.8,-40.4L42.3,-40.2L41.2,-40.0L40.7,-40.0L39.5,-39.5L38.7,-39.5L38.2,-39.8L37.1,-39.4L36.7,-39.6L36.7,-39.0L36.4,-38.7L36.1,-38.4L35.8,-39.0L36.2,-39.4L35.6,-39.3L34.7,-39.6L34.0,-38.9L32.5,-38.8L31.7,-39.4L30.6,-39.5L30.4,-39.0L29.7,-38.8L28.7,-39.5L27.6,-39.5L27.0,-40.7L26.3,-41.4L26.8,-42.4L26.2,-43.0L27.3,-44.3L28.8,-44.3L29.2,-45.3L31.1,-45.1L32.3,-46.0L33.5,-46.4L35.2,-46.4L36.9,-45.5L38.3,-45.0L39.5,-45.2L40.4,-45.0L41.6,-45.7L42.6,-45.8L43.6,-45.1L43.8,-44.7L43.7,-44.0L44.4,-43.7L44.8,-43.3L44.1,-43.0L44.4,-41.5L44.2,-41.1L44.8,-40.1L44.8,-40.1ZM26.1,-46.1L27.1,-46.6L28.0,-46.4L28.1,-45.9L29.0,-45.4L28.8,-45.1L27.6,-45.0L27.2,-44.6L26.4,-43.9L26.0,-44.5L26.1,-44.8L26.3,-44.9L26.6,-45.8L26.1,-46.1Z" fill="#1e1e2e" stroke="#2a2a3a" stroke-width="0.3"/>
  <path d="M-7.5,-40.0L-7.5,-40.4L-7.2,-40.9L-7.0,-41.2L-7.4,-41.6L-7.1,-42.5L-7.5,-43.2L-7.1,-43.3L-7.0,-44.0L-6.9,-44.1L-6.9,-45.2L-6.4,-45.5L-6.7,-46.2L-7.3,-46.3L-7.4,-46.1L-8.0,-46.1L-8.3,-46.7L-8.7,-46.5L-9.0,-46.2L-9.0,-47.2L-9.4,-47.8L-8.0,-48.7L-6.8,-48.5L-5.4,-48.5L-4.3,-48.3L-3.5,-48.3L-1.9,-48.3L-1.5,-47.8L0.3,-47.1L0.7,-47.4L1.8,-46.8L3.0,-47.0L3.0,-46.2L2.1,-45.3L0.8,-45.0L0.7,-44.6L0.1,-43.9L-0.3,-42.8L0.1,-42.1L-0.5,-41.5L-0.7,-40.7L-1.4,-40.4L-2.1,-39.5L-3.4,-39.5L-4.4,-39.5L-5.0,-39.0L-5.4,-38.6L-5.9,-38.7L-6.2,-39.1L-6.5,-39.8L-7.5,-40.0Z" fill="#1e1e2e" stroke="#2a2a3a" stroke-width="0.3"/>
  <path d="M36.4,-14.6L36.3,-15.0L36.8,-16.5L36.9,-17.2L37.2,-17.5L37.9,-17.7L38.4,-18.3L39.0,-17.1L39.3,-16.1L39.8,-15.6L41.2,-14.6L41.7,-14.1L42.3,-13.5L42.6,-13.1L43.1,-12.8L42.8,-12.6L42.4,-12.6L42.0,-13.0L41.6,-13.6L41.2,-13.9L40.9,-14.3L40.0,-14.7L39.3,-14.7L39.1,-14.9L38.5,-14.7L37.9,-15.1L37.6,-14.4L36.4,-14.6Z" fill="#1e1e2e" stroke="#2a2a3a" stroke-width="0.3"/>
  <path d="M35.0,-30.7L36.1,-30.5L36.5,-30.9L36.7,-31.3L37.5,-31.5L37.7,-31.9L38.0,-32.1L37.0,-33.2L39.0,-33.8L39.2,-34.0L40.4,-33.7L41.9,-32.9L44.7,-30.5L46.6,-30.4L47.5,-30.3L47.7,-29.8L48.4,-29.8L48.8,-28.8L49.3,-28.6L49.5,-28.2L50.2,-27.7L50.2,-27.2L50.1,-26.9L50.2,-26.5L50.5,-26.2L50.7,-25.8L50.8,-25.6L51.1,-25.3L51.4,-25.4L51.6,-25.0L51.6,-24.7L52.0,-23.6L55.0,-23.1L55.2,-23.3L55.7,-22.6L55.0,-20.4L52.0,-19.4L49.1,-19.0L48.2,-18.5L47.5,-17.4L47.0,-17.2L46.7,-17.6L46.4,-17.5L45.4,-17.6L45.2,-17.7L44.1,-17.7L43.8,-17.6L43.4,-17.9L43.1,-17.3L43.2,-16.9L42.8,-16.6L42.6,-17.0L42.3,-17.3L42.3,-17.8L41.8,-18.1L41.2,-19.0L40.9,-19.9L40.2,-20.6L39.8,-20.8L39.1,-21.8L39.0,-22.5L39.1,-23.2L38.5,-24.4L38.0,-24.8L37.5,-25.0L37.2,-25.7L37.2,-25.9L36.9,-26.5L36.6,-26.7L36.2,-27.6L35.6,-28.5L35.1,-29.3L34.6,-29.3L34.8,-29.9L34.8,-30.3L35.0,-30.7Z" fill="#1e1e2e" stroke="#2a2a3a" stroke-width="0.3"/>
  <path d="M32.7,-37.6L32.8,-37.6L32.9,-37.9L33.7,-37.9L34.6,-38.2L33.9,-37.7L34.0,-37.5L33.9,-37.5L33.7,-37.4L33.5,-37.5L33.5,-37.4L33.5,-37.5L33.4,-37.6L33.2,-37.6L32.9,-37.5L32.7,-37.6Z" fill="#1e1e2e" stroke="#2a2a3a" stroke-width="0.3"/>
  <path d="M32.7,-37.6L32.9,-37.5L33.2,-37.6L33.4,-37.6L33.5,-37.5L33.5,-37.4L33.5,-37.5L33.7,-37.4L33.9,-37.5L34.0,-37.5L34.0,-37.4L33.0,-36.9L32.5,-37.0L32.3,-37.5L32.7,-37.6Z" fill="#1e1e2e" stroke="#2a2a3a" stroke-width="0.3"/>
  <path d="M-2.2,-37.6L-1.8,-36.8L-1.7,-36.1L-1.4,-34.8L-1.1,-34.6L-1.3,-34.1L-2.6,-33.9L-3.1,-33.5L-3.6,-33.4L-3.7,-32.5L-4.9,-32.1L-5.2,-31.5L-6.1,-31.2L-7.1,-31.0L-8.7,-30.1L-8.7,-28.8L-8.8,-28.8L-8.8,-28.2L-9.4,-28.2L-9.7,-27.9L-10.2,-27.9L-10.6,-28.0L-11.4,-27.9L-11.7,-27.1L-12.0,-27.0L-12.5,-25.6L-13.9,-24.4L-14.2,-22.9L-14.6,-22.4L-14.8,-22.0L-17.0,-21.9L-17.0,-21.9L-17.0,-22.4L-16.6,-22.7L-16.3,-23.3L-16.3,-23.7L-16.0,-24.4L-15.4,-25.1L-15.1,-25.3L-14.8,-25.9L-14.8,-26.5L-14.4,-27.2L-13.8,-27.6L-13.1,-28.8L-13.1,-28.8L-12.6,-29.2L-11.7,-29.4L-10.9,-30.1L-10.4,-30.4L-9.6,-31.4L-9.8,-32.8L-9.4,-33.9L-9.3,-34.5L-8.7,-35.3L-7.7,-35.8L-6.9,-36.3L-6.2,-37.6L-5.9,-38.3L-5.2,-38.3L-4.6,-37.8L-3.6,-37.9L-2.6,-37.6L-2.2,-37.6Z" fill="#1e1e2e" stroke="#2a2a3a" stroke-width="0.3"/>
  <path d="M36.9,-22.6L32.9,-22.6L29.0,-22.6L25.0,-22.6L25.0,-26.6L25.0,-30.6L24.7,-31.5L25.0,-32.2L24.8,-32.7L25.2,-33.3L26.5,-33.3L27.5,-33.0L28.5,-32.7L28.9,-32.5L29.7,-32.9L30.1,-33.2L31.0,-33.3L31.7,-33.1L32.0,-32.6L32.2,-32.9L33.0,-32.7L33.8,-32.6L34.3,-32.9L34.3,-32.9L34.8,-31.2L34.9,-30.9L34.6,-30.4L34.4,-29.6L34.2,-29.0L33.9,-28.8L33.6,-29.2L33.1,-29.7L32.4,-31.3L32.3,-31.2L32.7,-30.0L33.3,-28.8L34.1,-27.1L34.5,-26.5L34.8,-25.9L35.7,-24.7L35.5,-24.5L35.5,-23.8L36.7,-22.8L36.9,-22.6Z" fill="#1e1e2e" stroke="#2a2a3a" stroke-width="0.3"/>
  <path d="M25.0,-22.6L25.0,-20.4L23.9,-20.4L23.8,-20.0L19.8,-22.0L15.9,-24.1L14.9,-23.5L14.1,-23.1L13.6,-23.7L12.0,-24.2L11.6,-24.8L10.8,-25.4L10.3,-25.2L9.9,-25.8L9.9,-26.2L9.3,-27.0L9.7,-27.5L9.6,-28.2L9.8,-28.8L9.7,-29.3L9.9,-30.3L9.8,-30.8L9.5,-31.8L10.0,-32.1L10.1,-32.6L10.0,-33.1L10.6,-33.5L10.9,-33.9L11.4,-34.2L11.5,-35.2L12.7,-34.7L13.1,-34.8L13.9,-34.6L15.2,-34.1L15.7,-33.1L16.6,-32.8L18.0,-32.4L19.1,-31.8L19.6,-32.1L20.1,-32.6L19.8,-33.5L20.1,-34.1L20.9,-34.6L21.5,-34.8L22.9,-34.6L23.2,-34.0L23.6,-34.0L23.9,-33.8L24.9,-33.7L25.2,-33.3L24.8,-32.7L25.0,-32.2L24.7,-31.5L25.0,-30.6L25.0,-26.6L25.0,-22.6Z" fill="#1e1e2e" stroke="#2a2a3a" stroke-width="0.3"/>
  <path d="M47.8,-8.0L45.0,-5.0L43.7,-5.0L42.8,-4.3L42.1,-4.2L41.9,-3.9L41.2,-3.9L40.8,-4.3L39.9,-3.8L39.6,-3.4L38.9,-3.5L38.7,-3.6L38.4,-3.6L38.1,-3.6L36.9,-4.5L36.2,-4.5L35.8,-4.8L35.8,-5.3L35.3,-5.5L34.7,-6.6L34.3,-6.8L34.1,-7.2L33.6,-7.7L33.0,-7.8L33.3,-8.4L33.8,-8.4L34.0,-8.7L34.0,-9.6L34.3,-10.7L34.7,-11.0L34.8,-11.4L35.3,-12.2L35.9,-12.7L36.3,-13.7L36.4,-14.6L37.6,-14.4L37.9,-15.1L38.5,-14.7L39.1,-14.9L39.3,-14.7L40.0,-14.7L40.9,-14.3L41.2,-13.9L41.6,-13.6L42.0,-13.0L42.4,-12.6L42.0,-12.2L41.7,-11.7L41.7,-11.4L41.8,-11.1L42.3,-11.1L42.6,-11.2L42.8,-11.0L42.6,-10.6L42.9,-10.1L43.3,-9.6L43.7,-9.2L46.9,-8.0L47.8,-8.0Z" fill="#1e1e2e" stroke="#2a2a3a" stroke-width="0.3"/>
  <path d="M33.9,1.0L31.9,1.0L30.8,1.0L30.4,1.1L29.8,1.4L29.6,1.3L29.6,0.6L29.8,0.2L29.9,-0.6L30.1,-1.1L30.5,-1.6L30.9,-1.8L31.2,-2.2L30.8,-2.3L30.8,-3.5L30.8,-3.5L31.2,-3.8L31.9,-3.6L32.7,-3.8L33.4,-3.8L34.0,-4.3L34.5,-3.6L34.6,-3.1L35.0,-1.9L34.7,-1.2L34.2,-0.5L33.9,-0.1L33.9,1.0Z" fill="#1e1e2e" stroke="#2a2a3a" stroke-width="0.3"/>
  <path d="M30.4,1.1L30.8,1.7L30.8,2.3L30.5,2.4L30.5,2.4L29.9,2.3L29.6,2.9L29.0,2.8L29.1,2.3L29.3,2.2L29.3,1.6L29.6,1.3L29.8,1.4L30.4,1.1Z" fill="#1e1e2e" stroke="#2a2a3a" stroke-width="0.3"/>
  <path d="M30.8,-3.5L30.0,-4.2L29.7,-4.6L29.2,-4.4L28.7,-4.5L28.4,-4.3L28.0,-4.4L27.4,-5.2L27.2,-5.6L26.5,-6.0L26.2,-6.6L25.8,-7.0L25.1,-7.5L25.1,-7.8L24.6,-8.3L23.9,-8.7L24.2,-8.8L24.5,-9.0L24.8,-9.9L25.1,-10.3L25.8,-10.5L26.0,-10.2L26.5,-9.6L26.8,-9.5L27.1,-9.7L27.8,-9.6L28.0,-9.4L29.0,-9.4L29.0,-9.6L29.5,-9.8L29.6,-10.1L30.0,-10.3L30.8,-9.8L31.4,-9.9L31.9,-10.6L32.4,-11.2L32.3,-11.8L32.1,-12.1L32.7,-12.1L32.7,-12.3L33.2,-12.3L33.1,-11.5L33.2,-10.8L33.7,-10.4L33.8,-10.0L33.8,-9.5L34.0,-9.5L34.0,-8.7L33.8,-8.4L33.3,-8.4L33.0,-7.8L33.6,-7.7L34.1,-7.2L34.3,-6.8L34.7,-6.6L35.3,-5.5L34.6,-4.9L34.0,-4.3L33.4,-3.8L32.7,-3.8L31.9,-3.6L31.2,-3.8L30.8,-3.5Z" fill="#1e1e2e" stroke="#2a2a3a" stroke-width="0.3"/>
  <path d="M23.8,-20.0L23.9,-15.8L23.0,-15.9L22.6,-15.1L22.3,-14.5L22.5,-14.2L22.2,-13.9L22.3,-13.5L22.0,-13.1L21.9,-12.7L22.3,-12.7L22.5,-12.4L22.5,-11.8L22.9,-11.5L22.9,-11.2L22.2,-11.0L21.7,-10.6L21.0,-9.5L20.1,-9.1L19.1,-9.1L18.8,-9.0L18.9,-8.7L18.4,-8.3L18.0,-7.9L16.7,-7.5L16.5,-7.8L16.3,-7.8L16.1,-7.5L15.3,-7.4L15.4,-7.7L15.1,-8.4L15.0,-8.8L14.5,-9.0L14.0,-9.6L14.2,-10.1L14.6,-10.0L14.9,-10.0L15.5,-10.0L14.9,-11.0L15.0,-11.6L14.9,-12.3L14.5,-13.0L14.6,-13.5L14.0,-13.5L14.0,-14.1L13.5,-14.5L14.0,-15.9L15.2,-16.9L15.3,-18.2L15.7,-20.4L15.9,-20.8L15.5,-21.2L15.5,-21.5L15.1,-21.8L14.9,-23.5L15.9,-24.1L19.8,-22.0L23.8,-20.0Z" fill="#00e5ff" stroke="#00c4dd" stroke-width="0.4" fill-opacity="0.9"/>
</svg>