<svg xmlns="http://www.w3.org/2000/svg" viewBox="11.54 -25.41 14.35 19.99" width="300" height="300" preserveAspectRatio="xMidYMid meet">
  <path d="M23.84,-19.58L23.89,-15.61L23.02,-15.68L22.57,-14.94L22.30,-14.33L22.51,-14.09L22.18,-13.79L22.30,-13.37L22.04,-12.96L21.94,-12.59L22.29,-12.65L22.50,-12.26L22.51,-11.68L22.88,-11.38L22.86,-11.14L22.23,-10.97L21.72,-10.57L21.00,-9.48L20.06,-9.01L19.09,-9.07L18.81,-8.98L18.91,-8.63L18.39,-8.28L17.96,-7.89L16.71,-7.51L16.46,-7.73L16.29,-7.75L16.11,-7.50L15.28,-7.42L15.44,-7.69L15.12,-8.38L14.98,-8.80L14.54,-8.97L13.95,-9.55L14.17,-10.02L14.63,-9.92L14.91,-9.99L15.47,-9.98L14.92,-10.89L14.96,-11.56L14.89,-12.22L14.50,-12.86L14.60,-13.33L13.95,-13.35L13.96,-14.00L13.54,-14.37L13.97,-15.68L15.25,-16.63L15.30,-17.93L15.69,-19.96L15.90,-20.39L15.49,-20.73L15.47,-21.05L15.10,-21.31L14.85,-22.86L15.86,-23.41L19.85,-21.50L23.84,-19.58Z" fill="#00e5ff" stroke="#00e5ff" stroke-width="0.5" fill-opacity="0.8"/>
</svg>