<svg xmlns="http://www.w3.org/2000/svg" viewBox="-77.64 15.58 12.68 42.03" width="300" height="300" preserveAspectRatio="xMidYMid meet">
  <path d="M-68.63,52.64L-68.63,54.87L-67.56,54.87L-66.96,54.90L-67.29,55.30L-68.15,55.61L-68.64,55.58L-69.23,55.50L-69.96,55.20L-71.01,55.05L-72.26,54.50L-73.29,53.96L-74.66,52.84L-73.84,53.05L-72.43,53.72L-71.11,54.07L-70.59,53.62L-70.27,52.93L-69.35,52.52L-68.63,52.64ZM-69.59,17.58L-69.10,18.26L-68.97,18.98L-68.44,19.41L-68.76,20.37L-68.22,21.49L-67.83,22.87L-67.11,22.74L-66.99,22.99L-67.33,24.03L-68.42,24.52L-68.39,26.19L-68.59,26.51L-68.30,26.90L-69.00,27.52L-69.66,28.46L-70.01,29.37L-69.92,30.34L-70.54,31.37L-70.07,33.09L-69.81,33.27L-69.82,34.19L-70.39,35.17L-70.36,36.01L-71.12,36.66L-71.12,37.58L-70.81,38.55L-71.41,38.92L-71.68,39.81L-71.92,40.83L-71.75,42.05L-72.15,42.25L-71.92,43.41L-71.46,43.79L-71.79,44.21L-71.33,44.41L-71.22,44.78L-71.66,44.97L-71.55,45.56L-71.92,46.88L-72.45,47.74L-72.33,48.24L-72.65,48.88L-73.42,49.32L-73.33,50.38L-72.98,50.74L-72.31,50.68L-72.33,51.43L-71.91,52.01L-69.50,52.14L-68.57,52.30L-69.46,52.29L-69.94,52.54L-70.85,52.90L-71.01,53.83L-71.43,53.86L-72.56,53.53L-73.70,52.84L-73.70,52.84L-74.95,52.26L-75.26,51.63L-74.98,51.04L-75.48,50.38L-75.61,48.67L-75.18,47.71L-74.13,46.94L-75.64,46.65L-74.69,45.76L-74.35,44.10L-73.24,44.45L-72.72,42.38L-73.39,42.12L-73.70,43.37L-74.33,43.22L-74.02,41.79L-73.68,39.94L-73.22,39.26L-73.51,38.28L-73.59,37.16L-73.17,37.12L-72.55,35.51L-71.86,33.91L-71.44,32.42L-71.67,30.92L-71.37,30.10L-71.49,28.86L-70.91,27.64L-70.72,25.71L-70.40,23.63L-70.09,21.39L-70.16,19.76L-70.37,18.35L-69.86,18.09L-69.59,17.58Z" fill="#00e5ff" stroke="#00e5ff" stroke-width="0.5" fill-opacity="0.8"/>
</svg>