<svg xmlns="http://www.w3.org/2000/svg" viewBox="30.7 -95.0 147.2 108.0" width="400" height="300" preserveAspectRatio="xMidYMid meet">
  <rect x="30.7" y="-95.0" width="147.2" height="108.0" fill="#0e0e18"/>
  <path d="M33.9,1.0L34.1,1.1L37.7,3.1L37.8,3.7L39.2,4.7L38.7,5.9L38.8,6.5L39.4,6.9L39.5,7.1L39.2,7.7L39.3,8.0L39.2,8.5L39.5,9.2L39.9,10.2L40.3,10.4L40.3,10.4L39.5,11.0L38.4,11.4L37.8,11.3L37.5,11.6L36.8,11.7L36.5,11.8L35.3,11.5L34.6,11.6L34.3,10.2L33.9,9.7L33.7,9.5L32.8,9.3L32.2,9.0L31.6,8.8L31.2,8.6L30.7,8.4L30.7,8.4L30.2,7.1L29.6,6.5L29.4,6.0L29.5,5.4L29.3,4.5L29.8,4.5L30.1,4.1L30.5,3.6L30.8,3.4L30.7,3.0L30.5,2.8L30.5,2.4L30.5,2.4L30.8,2.3L30.8,1.7L30.4,1.1L30.8,1.0L31.9,1.0L33.9,1.0Z" fill="#1e1e2e" stroke="#2a2a3a" stroke-width="0.3"/>
  <path d="M87.4,-56.7L86.6,-55.7L85.8,-55.5L85.7,-54.0L85.2,-53.4L83.2,-53.9L82.5,-51.3L81.9,-50.9L80.0,-50.4L80.9,-48.0L80.2,-47.6L80.3,-46.8L79.6,-47.0L79.1,-47.5L77.7,-47.7L76.0,-47.7L75.6,-47.6L74.2,-48.1L73.6,-47.8L73.5,-47.0L71.8,-47.5L71.2,-47.3L71.0,-46.7L70.4,-46.5L69.1,-45.5L68.6,-44.6L68.3,-44.6L68.0,-45.2L66.7,-45.3L66.5,-46.3L66.0,-46.4L66.1,-47.7L64.9,-48.7L63.2,-48.6L62.0,-48.4L61.1,-49.7L60.2,-50.2L58.7,-51.2L58.5,-51.3L55.9,-50.5L56.0,-45.4L55.5,-45.4L54.8,-46.4L54.1,-46.8L52.9,-46.5L52.5,-46.1L52.4,-46.4L52.7,-47.0L52.5,-47.4L51.3,-47.9L50.9,-49.1L50.3,-49.5L50.3,-49.9L51.3,-49.8L51.3,-50.8L52.2,-51.1L53.0,-50.9L53.2,-52.3L53.0,-53.2L52.0,-53.1L51.2,-53.5L50.0,-52.8L49.1,-52.5L48.6,-52.7L48.7,-53.5L48.1,-54.5L47.3,-54.4L46.5,-55.5L47.0,-56.6L46.8,-56.9L47.5,-58.6L48.6,-57.7L48.7,-58.9L50.8,-60.6L52.3,-60.6L54.5,-59.5L55.7,-58.9L56.8,-59.5L58.4,-59.6L59.6,-58.8L59.9,-59.2L61.3,-59.2L61.6,-59.9L60.0,-61.0L60.9,-61.8L60.7,-62.3L61.7,-62.7L61.0,-63.8L61.4,-64.4L65.2,-65.0L65.7,-65.4L68.2,-66.1L69.1,-66.8L70.9,-66.4L71.2,-64.6L72.2,-65.1L73.5,-64.5L73.4,-63.5L74.4,-63.6L76.9,-65.3L76.5,-64.7L77.8,-63.4L80.0,-59.3L80.6,-60.1L81.9,-59.2L83.4,-59.6L83.9,-59.3L84.4,-58.4L85.1,-58.1L85.5,-57.4L86.8,-57.6L87.4,-56.7Z" fill="#1e1e2e" stroke="#2a2a3a" stroke-width="0.3"/>
  <path d="M56.0,-45.4L55.9,-50.5L58.5,-51.3L58.7,-51.2L60.2,-50.2L61.1,-49.7L62.0,-48.4L63.2,-48.6L64.9,-48.7L66.1,-47.7L66.0,-46.4L66.5,-46.3L66.7,-45.3L68.0,-45.2L68.3,-44.6L68.6,-44.6L69.1,-45.5L70.4,-46.5L71.0,-46.7L71.3,-46.6L70.4,-45.7L71.2,-45.2L71.9,-45.5L73.1,-44.8L71.8,-43.9L71.0,-44.0L70.6,-44.0L70.5,-44.4L70.7,-45.0L69.3,-44.7L69.0,-43.8L68.5,-43.1L67.7,-43.2L67.4,-42.6L68.2,-42.3L68.4,-41.3L67.8,-40.1L67.1,-40.3L66.5,-40.3L66.5,-41.1L65.2,-41.7L64.2,-42.3L63.5,-42.9L62.4,-43.8L61.9,-45.1L61.5,-45.4L60.5,-45.3L60.1,-45.6L60.0,-46.7L58.6,-47.4L57.8,-46.6L56.9,-46.1L57.1,-45.5L56.0,-45.4Z" fill="#1e1e2e" stroke="#2a2a3a" stroke-width="0.3"/>
  <path d="M141.0,2.6L142.7,3.3L144.6,3.9L145.3,4.4L145.8,4.9L146.0,5.5L147.6,6.1L147.9,6.6L147.0,6.7L147.2,7.4L148.1,8.1L148.7,9.1L149.3,9.1L149.3,9.6L150.0,9.7L149.7,9.9L150.8,10.3L150.7,10.6L150.0,10.7L149.8,10.5L148.9,10.3L147.9,10.2L147.1,9.5L146.6,9.0L146.0,8.1L144.7,7.7L143.9,7.9L143.3,8.3L143.4,9.0L142.6,9.4L142.1,9.2L141.0,9.2L141.0,5.9L141.0,2.6ZM152.6,3.7L153.0,4.0L153.1,4.5L152.8,4.8L152.6,4.2L152.4,3.8L152.0,3.5L151.4,3.0L150.7,2.7L150.9,2.5L151.5,2.8L151.8,3.0L152.2,3.2L152.6,3.7ZM151.3,5.9L150.8,6.1L150.2,6.3L149.7,6.3L148.9,6.0L148.3,5.8L148.4,5.4L149.3,5.6L149.8,5.5L150.0,5.0L150.1,5.0L150.2,5.5L150.8,5.5L151.1,5.1L151.6,4.8L151.5,4.2L152.1,4.2L152.3,4.3L152.3,4.9L152.0,5.5L151.5,5.6L151.3,5.9ZM154.8,5.3L155.1,5.6L155.5,6.2L156.0,6.6L155.9,6.8L155.6,6.9L155.2,6.6L154.7,5.9L154.5,5.1L154.7,5.0L154.8,5.3Z" fill="#1e1e2e" stroke="#2a2a3a" stroke-width="0.3"/>
  <path d="M141.0,2.6L141.0,5.9L141.0,9.2L140.1,8.3L139.1,8.1L138.9,8.4L137.6,8.4L138.0,7.6L138.7,7.3L138.4,6.2L137.9,5.4L136.0,4.6L135.2,4.5L133.7,3.5L133.4,4.0L133.0,4.1L132.8,3.7L132.8,3.3L132.0,2.8L133.1,2.5L133.8,2.5L133.7,2.2L132.2,2.2L131.8,1.6L130.9,1.4L130.5,0.9L131.9,0.7L132.4,0.4L134.0,0.8L134.1,1.2L134.4,2.8L135.5,3.4L136.3,2.3L137.4,1.7L138.3,1.7L139.2,2.1L139.9,2.4L141.0,2.6ZM125.0,8.9L125.1,9.1L125.1,9.4L124.4,10.2L123.6,10.4L123.5,10.3L123.6,9.9L124.0,9.3L125.0,8.9ZM134.2,6.9L134.1,6.2L134.3,5.8L134.5,5.5L134.7,5.7L134.7,6.2L134.2,6.9ZM117.9,-4.1L117.3,-3.2L118.0,-2.3L117.9,-1.8L119.0,-0.9L117.8,-0.8L117.5,-0.1L117.5,0.8L116.6,1.5L116.5,2.5L116.1,4.0L116.0,3.7L114.9,4.1L114.5,3.5L113.8,3.4L113.3,3.1L112.1,3.5L111.7,3.0L111.0,3.1L110.2,2.9L110.1,1.6L109.6,1.3L109.1,0.5L109.0,-0.4L109.1,-1.3L109.7,-2.0L109.8,-1.3L110.5,-0.8L111.2,-1.0L111.8,-0.9L112.4,-1.4L112.9,-1.5L113.8,-1.2L114.6,-1.4L115.1,-2.8L115.5,-3.2L115.9,-4.3L117.0,-4.3L117.9,-4.1ZM129.4,2.8L130.5,3.1L130.8,3.9L130.0,3.4L129.2,3.4L128.6,3.4L127.9,3.4L128.1,2.8L129.4,2.8ZM126.9,3.8L126.2,3.6L126.0,3.2L127.0,3.1L127.2,3.5L126.9,3.8ZM127.9,-2.2L128.0,-1.6L128.6,-1.5L128.7,-1.1L128.6,-0.3L128.1,-0.4L128.0,0.3L128.4,0.8L128.1,0.9L127.7,0.3L127.4,-1.0L127.6,-1.8L127.9,-2.2ZM122.9,-0.9L124.1,-0.9L125.1,-1.6L125.2,-1.4L124.4,-0.4L123.7,-0.2L122.7,-0.4L121.1,-0.4L120.2,-0.2L120.0,0.5L120.9,1.4L121.5,1.0L123.3,0.6L123.3,1.1L122.8,0.9L122.4,1.5L121.5,1.9L122.5,3.2L122.3,3.5L123.2,4.7L123.2,5.3L122.6,5.6L122.2,5.3L122.7,4.5L121.7,4.9L121.5,4.6L121.6,4.2L120.9,3.6L121.0,2.6L120.3,2.9L120.4,4.1L120.4,5.5L119.8,5.7L119.4,5.4L119.7,4.5L119.5,3.5L119.1,3.5L118.8,2.8L119.2,2.1L119.3,1.4L119.8,-0.2L120.0,-0.6L120.9,-1.3L121.7,-1.0L122.9,-0.9ZM120.3,10.3L119.0,9.6L119.9,9.4L120.4,9.7L120.8,10.0L120.7,10.3L120.3,10.3ZM121.3,8.6L122.0,8.5L122.9,8.1L122.8,8.7L121.3,9.0L119.9,8.8L119.9,8.5L120.7,8.3L121.3,8.6ZM118.3,8.4L118.9,8.3L119.1,8.7L118.0,8.9L117.3,9.1L116.7,9.1L117.1,8.5L117.6,8.5L117.9,8.1L118.3,8.4ZM108.5,6.4L108.6,6.8L110.5,6.9L110.8,6.5L112.6,7.0L113.0,7.6L114.5,7.8L115.7,8.4L114.6,8.8L113.5,8.4L112.6,8.4L111.5,8.3L110.6,8.1L109.4,7.8L108.7,7.7L108.3,7.8L106.5,7.4L106.3,6.9L105.4,6.9L106.1,5.9L107.3,6.0L108.1,6.4L108.5,6.4ZM104.4,1.1L104.5,1.8L104.9,2.3L105.6,2.4L106.1,3.1L105.9,4.3L105.8,5.9L104.7,5.9L103.9,5.0L102.6,4.2L102.2,3.6L101.4,2.8L100.9,2.1L100.1,0.7L99.3,-0.2L99.0,-1.0L98.6,-1.8L97.7,-2.5L97.2,-3.3L96.4,-3.9L95.4,-5.0L95.3,-5.5L95.9,-5.4L97.5,-5.3L98.4,-4.3L99.1,-3.6L99.7,-3.2L100.6,-2.1L101.7,-2.1L102.5,-1.4L103.1,-0.6L103.8,-0.1L103.4,0.7L104.0,1.1L104.4,1.1Z" fill="#1e1e2e" stroke="#2a2a3a" stroke-width="0.3"/>
  <path d="M29.3,4.5L29.5,5.4L29.4,6.0L29.6,6.5L30.2,7.1L30.7,8.4L30.7,8.4L30.3,8.3L29.0,8.4L28.7,8.6L28.4,9.2L28.7,9.7L28.5,10.9L28.4,11.9L28.6,12.1L29.3,12.5L29.6,12.3L29.7,13.4L28.9,13.4L28.5,12.8L28.2,12.4L27.4,12.2L27.2,11.7L26.6,12.0L25.8,11.9L25.4,11.4L24.8,11.3L24.3,11.3L24.3,11.0L23.9,11.0L23.5,10.9L22.8,11.1L22.4,11.1L22.2,11.2L22.2,9.9L21.9,9.6L21.8,8.9L21.9,8.3L21.7,7.9L21.7,7.3L20.5,7.3L20.6,7.0L20.1,7.0L20.0,7.1L19.4,7.2L19.2,7.8L19.0,8.0L18.5,7.9L18.1,8.0L17.5,8.1L17.1,7.6L16.9,7.2L16.6,6.6L16.3,5.9L13.4,5.9L13.0,6.0L12.7,6.0L12.3,6.1L12.2,5.8L12.4,5.7L12.5,5.3L12.6,5.0L13.0,4.8L13.3,4.9L13.6,4.5L14.1,4.5L14.2,4.8L14.6,5.0L15.2,4.3L15.8,3.9L16.0,3.5L16.0,2.7L16.4,1.7L16.9,1.2L17.5,0.7L17.6,0.4L17.7,0.1L17.8,-0.3L17.8,-0.9L17.9,-1.7L18.1,-2.4L18.4,-2.9L18.5,-3.5L18.5,-4.2L18.9,-4.7L19.5,-5.0L20.3,-4.7L20.9,-4.3L21.7,-4.2L22.4,-4.0L22.7,-4.6L22.8,-4.7L23.3,-4.6L24.4,-5.1L24.8,-4.9L25.1,-4.9L25.3,-5.2L25.7,-5.3L26.4,-5.2L27.0,-5.1L27.4,-5.2L28.0,-4.4L28.4,-4.3L28.7,-4.5L29.2,-4.4L29.7,-4.6L30.0,-4.2L30.8,-3.5L30.8,-3.5L30.8,-2.3L31.2,-2.2L30.9,-1.8L30.5,-1.6L30.1,-1.1L29.9,-0.6L29.8,0.2L29.6,0.6L29.6,1.3L29.3,1.6L29.3,2.2L29.1,2.3L29.0,2.8L29.3,3.3L29.3,4.5Z" fill="#1e1e2e" stroke="#2a2a3a" stroke-width="0.3"/>
  <path d="M41.6,1.7L41.0,0.9L41.0,-2.8L41.9,-3.9L42.1,-4.2L42.8,-4.3L43.7,-5.0L45.0,-5.0L47.8,-8.0L48.5,-8.9L48.9,-9.5L48.9,-10.0L48.9,-11.1L48.9,-11.5L48.9,-11.5L48.9,-11.5L49.3,-11.5L49.7,-11.7L50.3,-11.8L50.7,-12.1L51.1,-12.1L51.1,-11.8L51.0,-11.2L51.0,-10.7L50.8,-10.3L50.6,-9.2L50.1,-8.1L49.5,-6.8L48.6,-5.3L47.7,-4.2L46.6,-2.9L45.6,-2.0L44.1,-1.1L43.1,-0.3L42.0,0.9L41.8,1.4L41.6,1.7Z" fill="#1e1e2e" stroke="#2a2a3a" stroke-width="0.3"/>
  <path d="M39.2,4.7L37.8,3.7L37.7,3.1L34.1,1.1L33.9,1.0L33.9,-0.1L34.2,-0.5L34.7,-1.2L35.0,-1.9L34.6,-3.1L34.5,-3.6L34.0,-4.3L34.6,-4.9L35.3,-5.5L35.8,-5.3L35.8,-4.8L36.2,-4.5L36.9,-4.5L38.1,-3.6L38.4,-3.6L38.7,-3.6L38.9,-3.5L39.6,-3.4L39.9,-3.8L40.8,-4.3L41.2,-3.9L41.9,-3.9L41.0,-2.8L41.0,0.9L41.6,1.7L40.9,2.1L40.6,2.5L40.3,2.6L40.1,3.3L39.8,3.7L39.6,4.4L39.2,4.7Z" fill="#1e1e2e" stroke="#2a2a3a" stroke-width="0.3"/>
  <path d="M24.6,-8.3L23.8,-8.7L23.5,-9.0L23.4,-9.3L23.6,-9.7L23.6,-10.1L23.0,-10.8L22.9,-11.2L22.9,-11.5L22.5,-11.8L22.5,-12.4L22.3,-12.7L21.9,-12.7L22.0,-13.1L22.3,-13.5L22.2,-13.9L22.5,-14.2L22.3,-14.5L22.6,-15.1L23.0,-15.9L23.9,-15.8L23.8,-20.0L23.9,-20.4L25.0,-20.4L25.0,-22.6L29.0,-22.6L32.9,-22.6L36.9,-22.6L37.2,-21.5L37.0,-21.3L37.1,-20.2L37.5,-19.0L37.9,-18.7L38.4,-18.3L37.9,-17.7L37.2,-17.5L36.9,-17.2L36.8,-16.5L36.3,-15.0L36.4,-14.6L36.3,-13.7L35.9,-12.7L35.3,-12.2L34.8,-11.4L34.7,-11.0L34.3,-10.7L34.0,-9.6L34.0,-8.7L34.0,-9.5L33.8,-9.5L33.8,-10.0L33.7,-10.4L33.2,-10.8L33.1,-11.5L33.2,-12.3L32.7,-12.3L32.7,-12.1L32.1,-12.1L32.3,-11.8L32.4,-11.2L31.9,-10.6L31.4,-9.9L30.8,-9.8L30.0,-10.3L29.6,-10.1L29.5,-9.8L29.0,-9.6L29.0,-9.4L28.0,-9.4L27.8,-9.6L27.1,-9.7L26.8,-9.5L26.5,-9.6L26.0,-10.2L25.8,-10.5L25.1,-10.3L24.8,-9.9L24.5,-9.0L24.2,-8.8L23.9,-8.7L24.6,-8.3Z" fill="#1e1e2e" stroke="#2a2a3a" stroke-width="0.3"/>
  <path d="M178.7,-102.7L180.0,-104.0L180.0,-101.9L178.9,-101.8L178.7,-102.7ZM49.1,-52.5L48.6,-51.6L47.7,-51.4L46.7,-49.9L47.6,-48.6L47.5,-47.7L48.6,-46.1L48.6,-46.1L48.0,-45.6L47.8,-45.2L47.4,-45.3L46.7,-46.1L46.4,-46.2L45.8,-46.5L45.5,-47.0L44.5,-47.3L43.9,-47.1L43.8,-47.4L42.4,-48.0L40.9,-48.2L40.1,-48.5L40.0,-48.3L38.7,-49.5L37.5,-50.0L36.7,-50.8L37.4,-51.1L38.2,-52.3L37.7,-52.8L39.1,-53.4L39.1,-53.8L38.2,-53.5L38.3,-54.2L38.8,-54.6L39.7,-54.7L39.9,-55.2L39.7,-56.0L40.1,-56.8L40.1,-57.3L38.6,-57.8L38.0,-57.8L37.4,-58.5L36.6,-58.3L35.4,-58.8L35.4,-59.1L35.0,-59.8L34.2,-59.9L34.1,-60.4L34.4,-60.7L33.8,-61.6L32.7,-61.5L32.4,-61.6L32.2,-61.2L31.8,-61.3L31.8,-61.3L31.5,-62.3L31.3,-62.9L31.5,-63.0L32.3,-63.0L32.7,-63.3L32.4,-63.8L31.7,-64.1L31.8,-64.4L31.4,-64.7L30.8,-65.8L31.0,-66.3L30.9,-67.1L29.9,-67.5L29.4,-67.3L29.2,-67.8L28.2,-68.2L27.9,-69.3L27.8,-70.2L27.3,-70.6L27.7,-71.2L27.4,-73.0L28.1,-74.1L28.0,-74.4L28.0,-74.4L29.1,-75.5L28.1,-76.5L28.1,-76.5L30.2,-79.1L31.1,-80.3L31.5,-81.5L30.0,-83.0L30.4,-84.5L29.5,-86.2L30.2,-88.3L29.1,-91.1L30.0,-93.0L28.4,-94.8L28.6,-96.8L29.4,-97.0L31.1,-98.2L31.1,-98.2L32.1,-99.2L33.8,-97.4L36.5,-96.8L40.3,-93.7L41.1,-92.4L41.1,-90.7L40.0,-89.4L38.4,-88.7L33.9,-90.6L33.2,-90.3L34.8,-88.5L34.9,-87.4L34.9,-84.9L36.2,-84.2L37.0,-83.6L37.1,-84.8L36.5,-85.8L37.2,-86.7L39.6,-85.2L40.4,-85.8L39.8,-87.5L42.1,-89.9L43.0,-89.8L43.9,-88.9L44.5,-90.6L43.7,-92.1L44.2,-93.7L43.5,-95.4L46.3,-94.5L46.8,-93.0L45.6,-92.7L45.6,-91.3L46.3,-90.4L47.9,-90.9L48.1,-92.6L50.2,-93.8L53.7,-96.2L54.5,-96.0L53.5,-94.4L54.7,-94.1L55.4,-95.0L57.3,-95.1L58.8,-96.2L59.9,-94.6L61.1,-96.4L60.0,-98.0L60.5,-99.0L63.5,-98.1L64.9,-97.2L68.5,-94.1L69.2,-95.5L68.2,-97.0L68.1,-97.6L66.9,-97.9L67.3,-99.2L66.7,-101.5L66.7,-102.5L68.5,-105.4L69.2,-108.4L69.9,-109.0L72.6,-108.1L72.8,-106.3L71.8,-103.7L72.5,-102.7L72.8,-100.6L72.6,-96.6L73.7,-94.9L73.2,-93.2L71.3,-89.5L72.4,-89.2L72.8,-90.0L73.9,-90.7L74.2,-92.0L75.1,-93.2L74.5,-94.7L74.9,-96.5L73.8,-96.8L73.6,-98.4L74.4,-101.3L73.1,-103.8L74.9,-106.0L74.7,-108.3L75.2,-108.4L75.7,-106.6L75.3,-103.5L76.4,-102.9L75.9,-105.2L77.6,-106.5L79.7,-106.6L81.5,-104.8L80.6,-107.5L80.5,-111.2L82.3,-111.9L84.7,-111.7L86.8,-112.2L86.0,-114.1L87.2,-116.6L88.3,-116.7L90.3,-118.7L92.9,-119.2L93.2,-120.4L95.9,-120.7L96.7,-119.8L98.9,-122.0L100.8,-122.0L101.0,-123.8L102.0,-125.7L104.4,-127.6L106.1,-126.1L104.7,-125.0L107.0,-124.3L107.2,-122.2L108.2,-123.2L111.1,-123.2L113.3,-121.1L114.1,-119.5L113.9,-117.5L112.8,-116.3L110.2,-114.2L109.4,-113.1L110.6,-112.6L112.1,-111.7L113.0,-112.3L113.5,-110.1L114.0,-111.0L115.6,-111.5L118.8,-111.0L119.0,-109.3L123.2,-108.8L123.3,-111.5L125.4,-110.9L127.0,-110.9L128.6,-109.0L129.1,-106.9L128.5,-105.5L129.7,-103.0L131.3,-101.8L132.3,-105.1L133.9,-103.6L135.6,-104.5L137.5,-103.5L138.2,-104.4L139.9,-103.9L139.1,-106.9L140.5,-108.4L149.5,-106.2L150.4,-104.3L153.0,-101.9L157.0,-102.5L159.0,-102.0L159.8,-100.8L159.7,-98.6L160.9,-97.8L162.3,-98.4L164.1,-98.5L165.9,-97.9L167.8,-98.2L169.6,-95.7L170.8,-96.6L170.0,-98.4L170.5,-99.7L173.6,-98.9L175.7,-99.1L178.6,-97.7L180.0,-96.5L180.0,-86.3L180.0,-86.3L178.7,-85.2L177.4,-85.4L178.3,-84.2L178.9,-82.3L179.4,-81.7L179.5,-80.8L179.2,-80.2L177.4,-80.7L174.6,-79.1L173.7,-78.8L172.2,-77.4L170.7,-76.1L170.3,-75.2L168.9,-76.6L166.3,-75.0L165.8,-75.8L164.9,-74.9L163.5,-75.2L163.2,-73.9L162.0,-72.0L162.1,-71.3L163.2,-70.8L163.1,-68.2L162.1,-68.1L161.7,-66.6L162.1,-65.9L160.4,-65.0L160.0,-63.1L158.5,-62.7L158.2,-61.0L156.8,-59.5L156.4,-60.6L156.0,-63.0L155.4,-66.8L155.9,-69.3L156.8,-70.4L156.8,-71.3L158.4,-71.7L160.2,-74.1L161.9,-76.1L163.7,-77.8L164.5,-80.8L163.3,-80.6L162.7,-78.8L160.1,-76.6L159.3,-79.1L156.7,-78.4L154.2,-75.0L155.0,-73.8L152.8,-73.3L151.3,-73.1L151.3,-74.5L149.8,-74.8L148.5,-73.8L145.5,-74.1L142.2,-73.6L139.0,-69.9L135.1,-65.7L136.7,-65.4L137.2,-64.4L138.2,-64.0L138.8,-64.8L139.9,-64.7L141.3,-62.9L141.4,-61.5L140.6,-59.9L140.5,-58.0L140.1,-55.5L138.6,-53.4L138.2,-52.4L136.9,-50.7L135.5,-49.1L134.9,-48.3L133.5,-47.5L132.9,-47.4L132.3,-48.1L130.9,-47.1L130.8,-46.7L130.8,-46.7L130.8,-46.7L130.8,-46.7L130.6,-46.9L130.6,-46.9L130.6,-47.6L131.1,-47.6L131.3,-49.3L131.0,-50.5L131.9,-51.0L133.1,-50.7L133.8,-52.1L134.1,-53.7L134.5,-54.2L135.0,-55.6L133.4,-55.1L132.5,-54.5L131.0,-54.5L130.6,-56.0L129.4,-57.0L127.7,-57.5L127.3,-59.1L126.9,-60.0L126.6,-60.7L125.9,-62.4L125.1,-63.0L123.6,-63.5L122.2,-63.5L121.0,-63.1L120.2,-62.3L120.7,-61.9L120.7,-61.0L120.2,-60.5L119.3,-58.8L119.3,-58.1L117.9,-57.2L116.7,-57.7L115.5,-57.6L115.0,-58.1L114.4,-58.3L112.9,-57.2L111.6,-56.9L110.7,-56.6L109.4,-56.8L108.5,-56.8L107.9,-57.6L106.9,-58.3L105.9,-58.5L104.6,-58.3L103.7,-58.0L102.3,-58.7L102.1,-59.9L100.9,-60.3L100.0,-60.5L98.9,-61.2L97.8,-59.5L98.2,-58.6L97.3,-57.5L95.8,-57.9L94.8,-57.9L94.1,-58.7L93.1,-58.7L92.2,-59.2L90.7,-58.4L88.8,-57.1L87.8,-56.8L87.4,-56.7L86.8,-57.6L85.5,-57.4L85.1,-58.1L84.4,-58.4L83.9,-59.3L83.4,-59.6L81.9,-59.2L80.6,-60.1L80.0,-59.3L77.8,-63.4L76.5,-64.7L76.9,-65.3L74.4,-63.6L73.4,-63.5L73.5,-64.5L72.2,-65.1L71.2,-64.6L70.9,-66.4L69.1,-66.8L68.2,-66.1L65.7,-65.4L65.2,-65.0L61.4,-64.4L61.0,-63.8L61.7,-62.7L60.7,-62.3L60.9,-61.8L60.0,-61.0L61.6,-59.9L61.3,-59.2L59.9,-59.2L59.6,-58.8L58.4,-59.6L56.8,-59.5L55.7,-58.9L54.5,-59.5L52.3,-60.6L50.8,-60.6L48.7,-58.9L48.6,-57.7L47.5,-58.6L46.8,-56.9L47.0,-56.6L46.5,-55.5L47.3,-54.4L48.1,-54.5L48.7,-53.5L48.6,-52.7L49.1,-52.5ZM93.8,-145.8L95.9,-147.3L97.9,-144.1L100.2,-138.3L99.9,-133.5L97.8,-132.8L95.0,-134.3L93.3,-136.4L92.5,-140.4L91.2,-141.6L93.8,-145.8ZM102.8,-135.6L105.4,-132.6L105.1,-130.6L99.4,-128.7L101.3,-135.3L102.1,-135.9L102.8,-135.6ZM138.8,-120.7L141.5,-120.6L145.1,-118.4L144.3,-115.5L140.6,-115.6L139.0,-114.7L137.0,-117.2L137.5,-120.0L138.8,-120.7ZM148.2,-117.5L150.7,-116.5L149.6,-115.0L148.0,-115.3L146.1,-116.8L146.4,-118.1L148.2,-117.5ZM139.9,-110.2L140.8,-111.6L142.1,-111.9L143.5,-110.6L143.6,-109.6L142.1,-109.6L140.0,-110.0L139.9,-110.2ZM44.8,-143.1L46.8,-144.2L48.3,-144.3L48.5,-142.6L49.1,-144.1L50.0,-145.1L51.5,-143.8L51.1,-142.8L49.8,-142.0L48.9,-141.6L48.8,-140.6L47.6,-139.6L46.5,-141.0L47.1,-142.9L44.8,-143.1ZM22.7,-65.0L20.9,-64.9L19.7,-65.1L19.9,-65.9L21.3,-66.5L22.3,-66.2L22.8,-65.9L22.7,-65.4L22.7,-65.0ZM53.5,-111.5L55.9,-114.8L55.6,-116.5L57.9,-118.6L61.2,-121.2L64.5,-122.0L66.2,-123.6L68.2,-124.2L68.9,-122.5L68.2,-121.1L64.6,-119.1L61.6,-117.2L58.5,-113.6L57.0,-110.1L55.4,-106.8L55.6,-104.1L57.5,-101.6L56.9,-101.3L53.7,-101.7L53.4,-103.1L51.6,-103.9L51.5,-105.6L52.5,-106.3L52.4,-108.1L54.4,-111.1L53.5,-111.5ZM142.9,-63.9L143.3,-62.3L143.2,-60.7L143.6,-59.1L144.7,-56.3L143.2,-56.8L142.6,-54.7L143.5,-53.1L143.5,-52.1L142.7,-53.0L142.1,-51.9L141.9,-53.1L142.0,-54.5L141.9,-56.2L142.1,-57.3L142.2,-59.4L141.6,-61.0L141.7,-63.2L142.6,-64.0L142.2,-64.8L142.7,-65.0L142.9,-63.9ZM-174.9,-91.8L-175.0,-90.2L-174.3,-89.6L-174.6,-91.4L-171.9,-91.0L-169.9,-88.7L-170.9,-87.6L-172.5,-87.4L-172.6,-85.1L-173.0,-84.6L-173.9,-84.6L-174.7,-85.4L-176.0,-86.1L-176.2,-87.2L-177.2,-87.6L-178.4,-87.2L-178.9,-88.1L-178.7,-89.0L-179.9,-88.4L-179.4,-87.3L-180.0,-86.3L-180.0,-96.5L-177.6,-94.4L-174.9,-91.8ZM-178.7,-102.1L-180.0,-101.9L-180.0,-104.0L-179.9,-104.2L-179.0,-104.2L-177.6,-103.3L-177.7,-102.8L-178.7,-102.1ZM33.4,-51.9L33.7,-52.2L34.4,-51.9L34.7,-51.9L34.9,-51.6L35.0,-51.5L35.0,-51.4L35.5,-51.1L36.5,-51.2L36.3,-50.7L35.2,-50.4L33.9,-49.6L33.3,-49.9L33.5,-50.5L32.5,-51.0L32.6,-51.2L33.6,-51.7L33.4,-51.9Z" fill="#1e1e2e" stroke="#2a2a3a" stroke-width="0.3"/>
  <path d="M15.1,-137.7L15.5,-139.7L17.0,-139.9L18.3,-137.9L21.5,-133.9L19.0,-131.8L18.5,-128.2L17.6,-127.4L17.1,-123.6L15.9,-123.4L13.8,-126.2L14.7,-127.8L13.2,-129.2L11.2,-133.4L10.4,-137.6L13.2,-139.6L13.7,-137.7L15.1,-137.7ZM31.1,-98.2L29.4,-97.0L28.6,-96.8L29.0,-98.8L27.7,-99.9L26.2,-98.9L25.7,-96.8L24.7,-95.6L23.7,-96.3L22.4,-96.1L21.2,-97.6L20.6,-96.9L20.0,-96.8L19.9,-94.9L18.0,-95.4L17.7,-93.9L16.8,-93.9L16.1,-92.0L15.1,-89.2L13.6,-85.8L13.9,-85.0L13.6,-84.1L12.6,-84.1L11.9,-82.0L12.0,-79.2L12.6,-78.1L12.3,-75.7L11.5,-74.3L11.0,-73.2L10.4,-74.4L8.4,-72.2L7.0,-71.7L5.7,-72.7L5.3,-74.8L5.0,-79.5L5.9,-80.9L8.6,-82.8L10.5,-85.1L12.4,-88.4L14.8,-93.3L16.4,-95.4L19.2,-98.9L21.4,-100.2L23.0,-100.0L24.5,-102.5L26.4,-102.4L28.2,-103.0L31.3,-100.8L30.0,-100.0L31.1,-98.2ZM27.4,-139.9L25.9,-136.9L23.0,-136.2L20.1,-137.1L19.9,-138.7L18.5,-138.8L17.4,-141.5L20.5,-143.1L21.9,-141.7L22.9,-143.5L25.4,-142.0L27.4,-139.9ZM24.7,-128.4L22.5,-126.5L20.7,-127.5L21.4,-128.8L20.8,-130.3L22.9,-131.3L23.3,-129.5L24.7,-128.4Z" fill="#1e1e2e" stroke="#2a2a3a" stroke-width="0.3"/>
  <path d="M125.0,8.9L125.1,8.7L125.9,8.5L126.6,8.4L127.0,8.3L127.3,8.4L127.0,8.7L125.9,9.1L125.1,9.4L125.1,9.1L125.0,8.9Z" fill="#1e1e2e" stroke="#2a2a3a" stroke-width="0.3"/>
  <path d="M30.7,8.4L31.2,8.6L31.6,8.8L32.2,9.0L32.8,9.3L33.2,9.7L33.5,10.6L33.3,10.9L33.1,11.7L33.3,12.5L33.0,12.9L32.7,13.8L33.2,14.1L30.2,15.0L30.3,15.7L29.5,15.8L28.9,16.3L28.8,16.6L28.5,16.7L27.6,17.6L27.0,18.2L26.7,18.3L26.4,18.1L25.3,18.0L25.1,17.9L25.1,17.9L24.7,17.6L24.0,17.6L23.2,17.8L22.6,17.1L21.9,16.3L21.9,13.0L24.0,13.0L23.9,12.7L24.1,12.3L23.9,11.8L24.0,11.3L23.9,11.0L24.3,11.0L24.3,11.3L24.8,11.3L25.4,11.4L25.8,11.9L26.6,12.0L27.2,11.7L27.4,12.2L28.2,12.4L28.5,12.8L28.9,13.4L29.7,13.4L29.6,12.3L29.3,12.5L28.6,12.1L28.4,11.9L28.5,10.9L28.7,9.7L28.4,9.2L28.7,8.6L29.0,8.4L30.3,8.3L30.7,8.4Z" fill="#1e1e2e" stroke="#2a2a3a" stroke-width="0.3"/>
  <path d="M32.8,9.3L33.7,9.5L33.9,9.7L34.3,10.2L34.6,11.6L34.3,12.4L34.6,13.7L34.9,13.7L35.3,14.0L35.7,14.8L35.8,16.1L35.3,16.3L35.0,17.0L34.4,16.4L34.3,15.7L34.5,15.2L34.5,14.8L34.1,14.5L33.8,14.6L33.2,14.1L32.7,13.8L33.0,12.9L33.3,12.5L33.1,11.7L33.3,10.9L33.5,10.6L33.2,9.7L32.8,9.3Z" fill="#1e1e2e" stroke="#2a2a3a" stroke-width="0.3"/>
  <path d="M34.6,11.6L35.3,11.5L36.5,11.8L36.8,11.7L37.5,11.6L37.8,11.3L38.4,11.4L39.5,11.0L40.3,10.4L40.3,10.4L40.3,10.4L40.5,10.8L40.4,11.8L40.6,12.7L40.6,14.3L40.8,14.9L40.5,15.6L40.1,16.3L39.5,17.0L38.5,17.4L37.4,17.9L36.3,19.0L35.9,19.2L35.2,19.9L34.8,20.2L34.7,20.9L35.2,21.8L35.4,22.4L35.4,22.7L35.6,22.7L35.5,23.7L35.4,24.2L35.6,24.4L35.5,24.9L35.0,25.3L34.2,25.6L33.0,26.2L32.6,26.6L32.7,27.1L32.9,27.2L32.8,27.8L32.1,27.8L32.0,27.3L31.8,26.8L31.8,26.4L31.9,25.1L31.7,24.4L31.2,22.8L32.2,21.6L32.5,20.8L32.7,20.7L32.8,20.1L32.6,19.8L32.7,19.0L32.8,18.3L32.8,17.0L32.3,16.6L31.9,16.5L31.6,16.3L31.2,16.1L30.3,16.1L30.3,15.7L30.2,15.0L33.2,14.1L33.8,14.6L34.1,14.5L34.5,14.8L34.5,15.2L34.3,15.7L34.4,16.4L35.0,17.0L35.3,16.3L35.8,16.1L35.7,14.8L35.3,14.0L34.9,13.7L34.6,13.7L34.3,12.4L34.6,11.6Z" fill="#1e1e2e" stroke="#2a2a3a" stroke-width="0.3"/>
  <path d="M30.5,2.4L30.5,2.8L30.7,3.0L30.8,3.4L30.5,3.6L30.1,4.1L29.8,4.5L29.3,4.5L29.3,3.3L29.0,2.8L29.6,2.9L29.9,2.3L30.5,2.4Z" fill="#1e1e2e" stroke="#2a2a3a" stroke-width="0.3"/>
  <path d="M35.7,-34.6L35.5,-34.3L35.2,-34.4L35.0,-33.6L35.2,-33.5L35.0,-33.4L34.9,-33.0L35.4,-33.2L35.4,-32.8L34.9,-30.9L34.8,-31.2L34.3,-32.9L34.3,-32.9L34.3,-32.9L34.6,-33.3L34.5,-33.3L34.8,-33.9L35.0,-34.8L35.1,-35.1L35.1,-35.1L35.5,-35.1L35.6,-35.3L35.8,-35.3L35.8,-34.8L35.7,-34.7L35.7,-34.6Z" fill="#1e1e2e" stroke="#2a2a3a" stroke-width="0.3"/>
  <path d="M35.8,-35.3L35.6,-35.3L35.5,-35.1L35.1,-35.1L35.5,-36.1L36.0,-36.9L36.0,-37.0L36.4,-36.9L36.6,-36.4L36.1,-36.0L35.8,-35.3Z" fill="#1e1e2e" stroke="#2a2a3a" stroke-width="0.3"/>
  <path d="M49.5,12.6L49.8,13.0L50.1,13.7L50.2,14.9L50.5,15.4L50.4,15.9L50.2,16.2L49.9,15.6L49.7,15.9L49.9,16.7L49.8,17.1L49.5,17.4L49.4,18.3L49.0,19.5L48.5,20.9L47.9,23.0L47.5,24.5L47.1,25.8L46.3,26.0L45.4,26.5L44.8,26.2L44.0,25.8L43.8,25.2L43.7,24.3L43.3,23.4L43.3,22.6L43.4,21.8L43.9,21.7L43.9,21.3L44.4,20.5L44.5,19.8L44.2,19.3L44.0,18.7L44.0,17.7L44.3,17.1L44.4,16.4L44.9,16.4L45.5,16.2L45.9,16.0L46.3,16.0L46.9,15.4L47.7,14.8L48.0,14.2L47.9,13.8L48.3,13.9L48.8,13.2L48.9,12.6L49.2,12.1L49.5,12.6Z" fill="#1e1e2e" stroke="#2a2a3a" stroke-width="0.3"/>
  <path d="M35.4,-33.2L34.9,-33.0L35.0,-33.4L35.2,-33.5L35.0,-33.6L35.2,-34.4L35.5,-34.3L35.5,-33.6L35.4,-33.2Z" fill="#1e1e2e" stroke="#2a2a3a" stroke-width="0.3"/>
  <path d="M35.5,-34.3L35.7,-34.6L36.8,-34.2L38.8,-35.4L39.2,-34.0L39.0,-33.8L37.0,-33.2L38.0,-32.1L37.7,-31.9L37.5,-31.5L36.7,-31.3L36.5,-30.9L36.1,-30.5L35.0,-30.7L34.9,-30.9L35.4,-32.8L35.4,-33.2L35.5,-33.6L35.5,-34.3Z" fill="#1e1e2e" stroke="#2a2a3a" stroke-width="0.3"/>
  <path d="M51.6,-25.0L51.8,-25.1L51.8,-24.8L52.6,-24.9L53.4,-24.9L54.0,-24.9L54.7,-25.6L55.4,-26.3L56.1,-27.0L56.3,-26.6L56.4,-25.8L55.9,-25.7L55.8,-25.0L56.0,-24.9L55.5,-24.7L55.5,-24.2L55.2,-23.8L55.2,-23.3L55.0,-23.1L52.0,-23.6L51.6,-24.7L51.6,-25.0Z" fill="#1e1e2e" stroke="#2a2a3a" stroke-width="0.3"/>
  <path d="M50.8,-25.6L50.7,-26.4L51.0,-26.9L51.3,-27.1L51.6,-26.7L51.6,-26.1L51.4,-25.4L51.1,-25.3L50.8,-25.6Z" fill="#1e1e2e" stroke="#2a2a3a" stroke-width="0.3"/>
  <path d="M48.0,-31.4L48.2,-30.9L48.1,-30.7L48.4,-29.8L47.7,-29.8L47.5,-30.3L46.6,-30.4L47.3,-31.5L48.0,-31.4Z" fill="#1e1e2e" stroke="#2a2a3a" stroke-width="0.3"/>
  <path d="M39.2,-34.0L38.8,-35.4L41.0,-36.7L41.4,-38.2L41.3,-39.1L41.8,-39.4L42.3,-40.2L42.8,-40.4L43.9,-40.2L44.3,-39.9L44.8,-40.1L45.4,-38.6L46.1,-38.2L46.2,-37.5L45.6,-37.1L45.4,-36.2L46.1,-35.0L47.3,-34.4L47.8,-33.5L47.7,-32.6L48.0,-32.6L48.0,-32.0L48.6,-31.4L48.0,-31.4L47.3,-31.5L46.6,-30.4L44.7,-30.5L41.9,-32.9L40.4,-33.7L39.2,-34.0Z" fill="#1e1e2e" stroke="#2a2a3a" stroke-width="0.3"/>
  <path d="M55.2,-23.3L55.2,-23.8L55.5,-24.2L55.5,-24.7L56.0,-24.9L55.8,-25.0L55.9,-25.7L56.4,-25.8L56.8,-25.0L57.4,-24.6L58.1,-24.5L58.7,-24.3L59.2,-23.6L59.5,-23.3L59.8,-23.1L59.8,-22.9L59.4,-22.3L59.3,-22.0L58.9,-21.6L58.5,-20.9L58.0,-20.9L57.8,-20.7L57.7,-20.1L57.8,-19.4L57.7,-19.3L57.2,-19.3L56.6,-18.9L56.5,-18.4L56.3,-18.2L55.7,-18.2L55.3,-17.9L55.3,-17.5L54.8,-17.2L54.2,-17.3L53.6,-16.9L53.1,-16.9L52.8,-17.6L52.0,-19.4L55.0,-20.4L55.7,-22.6L55.2,-23.3ZM56.3,-26.6L56.1,-27.0L56.4,-27.4L56.5,-27.3L56.4,-26.8L56.3,-26.6Z" fill="#1e1e2e" stroke="#2a2a3a" stroke-width="0.3"/>
  <path d="M102.6,-12.3L102.3,-13.5L103.0,-14.4L104.3,-14.6L105.2,-14.4L106.0,-14.0L106.5,-14.7L107.4,-14.4L107.6,-13.7L107.5,-12.4L105.8,-11.6L106.2,-11.0L105.2,-11.0L104.3,-10.5L103.5,-10.7L103.1,-11.2L102.6,-12.3Z" fill="#1e1e2e" stroke="#2a2a3a" stroke-width="0.3"/>
  <path d="M105.2,-14.4L104.3,-14.6L103.0,-14.4L102.3,-13.5L102.6,-12.3L101.7,-12.7L100.8,-12.7L101.0,-13.5L100.1,-13.5L100.0,-12.4L99.5,-10.9L99.2,-10.0L99.2,-9.3L99.9,-9.2L100.3,-8.3L100.5,-7.5L101.0,-6.9L101.6,-6.8L102.1,-6.2L101.8,-5.8L101.2,-5.7L101.1,-6.2L100.3,-6.7L100.1,-6.5L99.7,-6.9L99.5,-7.4L99.0,-7.9L98.5,-8.4L98.3,-7.8L98.2,-8.4L98.3,-9.0L98.6,-10.0L99.0,-11.0L99.6,-12.0L99.2,-12.9L99.2,-13.4L99.1,-14.0L98.4,-14.8L98.2,-15.3L98.5,-15.5L98.9,-16.4L98.5,-17.1L97.9,-17.8L97.4,-18.8L97.8,-19.0L98.3,-20.1L99.0,-20.2L99.5,-20.6L100.1,-20.9L100.5,-20.5L100.6,-19.9L101.3,-19.8L101.0,-18.7L101.1,-17.8L102.1,-18.4L102.4,-18.2L103.0,-18.3L103.2,-18.6L104.0,-18.6L104.7,-17.7L104.8,-16.7L105.6,-15.8L105.5,-14.9L105.2,-14.4Z" fill="#1e1e2e" stroke="#2a2a3a" stroke-width="0.3"/>
  <path d="M107.4,-14.4L106.5,-14.7L106.0,-14.0L105.2,-14.4L105.5,-14.9L105.6,-15.8L104.8,-16.7L104.7,-17.7L104.0,-18.6L103.2,-18.6L103.0,-18.3L102.4,-18.2L102.1,-18.4L101.1,-17.8L101.0,-18.7L101.3,-19.8L100.6,-19.9L100.5,-20.5L100.1,-20.9L100.3,-21.3L101.2,-22.0L101.3,-21.7L101.8,-21.7L101.7,-22.9L102.2,-23.1L102.8,-22.2L103.2,-21.2L104.4,-21.2L104.8,-20.3L104.2,-20.0L103.9,-19.6L105.1,-19.0L105.9,-17.8L106.6,-16.8L107.3,-16.1L107.6,-15.4L107.4,-14.4Z" fill="#1e1e2e" stroke="#2a2a3a" stroke-width="0.3"/>
  <path d="M100.1,-20.9L99.5,-20.6L99.0,-20.2L98.3,-20.1L97.8,-19.0L97.4,-18.8L97.9,-17.8L98.5,-17.1L98.9,-16.4L98.5,-15.5L98.2,-15.3L98.4,-14.8L99.1,-14.0L99.2,-13.4L99.2,-12.9L99.6,-12.0L99.0,-11.0L98.6,-10.0L98.5,-10.7L98.8,-11.5L98.4,-12.1L98.5,-13.2L98.1,-13.8L97.8,-15.0L97.6,-16.3L97.2,-17.2L96.5,-16.7L95.4,-15.9L94.8,-16.0L94.2,-16.3L94.5,-17.5L94.3,-18.5L93.5,-19.7L93.7,-20.1L93.1,-20.3L92.4,-21.1L92.3,-22.0L92.7,-21.8L92.7,-22.6L93.2,-22.9L93.1,-23.3L93.3,-23.7L93.3,-24.8L94.1,-24.6L94.6,-25.5L94.6,-26.0L95.2,-26.9L95.1,-27.6L96.4,-28.4L97.1,-28.2L97.1,-28.8L97.4,-29.1L97.3,-29.5L97.9,-29.6L98.2,-28.9L98.7,-28.6L98.7,-27.8L98.7,-26.9L97.7,-25.9L97.6,-24.6L98.7,-24.8L98.9,-23.8L99.5,-23.6L99.2,-22.7L100.0,-22.3L100.4,-22.1L101.2,-22.4L101.2,-22.0L100.3,-21.3L100.1,-20.9Z" fill="#1e1e2e" stroke="#2a2a3a" stroke-width="0.3"/>
  <path d="M104.3,-10.5L105.2,-11.0L106.2,-11.0L105.8,-11.6L107.5,-12.4L107.6,-13.7L107.4,-14.4L107.6,-15.4L107.3,-16.1L106.6,-16.8L105.9,-17.8L105.1,-19.0L103.9,-19.6L104.2,-20.0L104.8,-20.3L104.4,-21.2L103.2,-21.2L102.8,-22.2L102.2,-23.1L102.7,-23.3L103.5,-23.3L104.5,-23.4L105.3,-24.0L105.8,-23.6L106.7,-23.4L106.6,-22.8L107.0,-22.4L108.1,-22.1L106.7,-21.2L105.9,-20.2L105.7,-19.4L106.4,-18.3L107.4,-16.9L108.3,-16.3L108.9,-15.5L109.3,-13.6L109.2,-11.7L108.4,-11.1L107.2,-10.4L106.4,-9.6L105.2,-8.6L104.8,-9.3L105.1,-10.0L104.3,-10.5Z" fill="#1e1e2e" stroke="#2a2a3a" stroke-width="0.3"/>
  <path d="M130.8,-46.7L130.8,-46.7L130.8,-46.7L130.8,-46.7ZM130.6,-46.9L130.6,-46.9L130.8,-46.7L130.4,-46.7L130.0,-46.3L129.7,-45.8L129.7,-44.9L129.2,-44.6L129.0,-44.3L128.6,-44.0L128.0,-43.7L127.5,-43.4L127.5,-42.8L127.4,-42.7L127.8,-42.5L128.3,-41.9L128.2,-41.6L127.8,-41.5L127.1,-41.5L126.7,-40.9L126.2,-40.9L126.2,-40.8L125.7,-41.1L125.6,-40.8L125.3,-40.7L125.2,-41.0L125.0,-41.1L124.7,-41.3L125.0,-41.8L125.2,-42.0L125.1,-42.2L125.4,-42.9L125.3,-43.1L124.7,-43.3L124.3,-43.6L125.1,-44.5L126.2,-45.2L126.9,-46.1L127.3,-45.7L128.2,-45.6L128.1,-46.4L129.6,-46.9L130.0,-47.7L130.6,-46.9Z" fill="#1e1e2e" stroke="#2a2a3a" stroke-width="0.3"/>
  <path d="M126.2,-40.8L126.2,-40.9L126.7,-40.9L127.1,-41.5L127.8,-41.5L128.2,-41.6L128.3,-41.9L129.2,-40.4L129.5,-39.6L129.5,-38.2L129.1,-37.5L128.2,-37.3L127.4,-36.8L126.5,-36.7L126.4,-37.3L126.6,-38.2L126.1,-39.5L126.9,-39.7L126.2,-40.8Z" fill="#1e1e2e" stroke="#2a2a3a" stroke-width="0.3"/>
  <path d="M87.8,-56.8L88.8,-57.1L90.7,-58.4L92.2,-59.2L93.1,-58.7L94.1,-58.7L94.8,-57.9L95.8,-57.9L97.3,-57.5L98.2,-58.6L97.8,-59.5L98.9,-61.2L100.0,-60.5L100.9,-60.3L102.1,-59.9L102.3,-58.7L103.7,-58.0L104.6,-58.3L105.9,-58.5L106.9,-58.3L107.9,-57.6L108.5,-56.8L109.4,-56.8L110.7,-56.6L111.6,-56.9L112.9,-57.2L114.4,-58.3L115.0,-58.1L115.5,-57.6L116.7,-57.7L116.2,-56.6L115.5,-55.1L115.7,-54.5L116.3,-54.6L117.3,-54.4L118.1,-55.0L118.9,-54.5L119.8,-53.4L119.7,-52.9L118.9,-53.1L117.4,-52.9L116.7,-52.5L116.0,-51.5L114.5,-51.0L113.5,-50.2L112.4,-50.5L111.9,-50.6L111.3,-49.7L111.7,-49.2L111.8,-48.7L111.1,-48.3L110.4,-47.5L109.2,-47.1L107.7,-47.0L106.1,-46.5L105.0,-45.8L104.5,-46.2L103.3,-46.2L101.8,-47.1L100.8,-47.3L99.5,-47.1L97.5,-47.4L96.3,-47.3L95.8,-48.2L95.3,-49.4L94.7,-49.6L93.5,-50.5L92.1,-50.7L90.9,-50.9L90.6,-51.5L91.0,-53.2L90.3,-54.4L88.9,-55.0L88.0,-55.8L87.8,-56.8Z" fill="#1e1e2e" stroke="#2a2a3a" stroke-width="0.3"/>
  <path d="M97.3,-29.5L97.4,-29.1L97.1,-28.8L97.1,-28.2L96.4,-28.4L95.1,-27.6L95.2,-26.9L94.6,-26.0L94.6,-25.5L94.1,-24.6L93.3,-24.8L93.3,-23.7L93.1,-23.3L93.2,-22.9L92.7,-22.6L92.1,-24.3L91.9,-24.3L91.7,-23.6L91.2,-24.2L91.5,-24.8L91.9,-24.9L92.4,-25.8L91.8,-26.0L90.9,-26.0L89.9,-26.1L89.8,-26.9L89.4,-27.0L88.6,-27.4L88.2,-26.7L88.9,-26.1L88.3,-25.7L88.1,-25.3L88.7,-25.0L88.5,-24.3L88.9,-23.5L89.0,-22.6L88.9,-22.2L88.2,-22.2L87.0,-22.0L87.0,-21.2L86.5,-20.6L85.1,-19.9L83.9,-18.6L83.2,-18.0L82.2,-17.3L82.2,-16.8L81.7,-16.5L80.8,-16.2L80.3,-16.1L80.0,-15.3L80.2,-14.0L80.3,-13.1L79.9,-12.1L79.9,-10.4L79.3,-10.4L78.9,-9.6L79.2,-9.3L78.3,-9.0L77.9,-8.3L77.5,-8.0L76.6,-8.9L76.1,-10.4L75.7,-11.4L75.4,-11.9L74.9,-12.8L74.6,-14.1L74.4,-14.8L73.5,-16.2L73.1,-18.2L72.8,-19.6L72.8,-20.9L72.6,-21.9L71.2,-21.2L70.5,-21.4L69.2,-22.7L69.6,-23.0L69.3,-23.5L68.2,-24.4L68.8,-25.1L71.0,-25.1L70.8,-26.1L70.3,-26.6L70.2,-27.5L69.5,-28.0L70.6,-29.2L71.8,-29.1L72.8,-30.3L73.5,-31.4L74.4,-32.6L74.4,-33.4L75.3,-34.1L74.5,-34.7L74.1,-35.5L73.7,-36.6L74.2,-37.1L75.8,-36.8L76.9,-37.0L77.8,-38.0L78.9,-36.6L78.8,-35.6L79.2,-35.0L79.2,-34.4L78.5,-34.5L78.7,-33.2L79.7,-32.5L81.1,-31.7L80.5,-31.2L80.1,-30.1L81.1,-29.7L82.0,-29.1L83.3,-28.5L84.7,-28.3L85.3,-27.8L86.0,-27.6L87.2,-27.4L88.1,-27.4L88.2,-27.8L88.0,-28.6L88.1,-29.0L88.7,-29.3L88.8,-28.4L88.8,-28.2L89.7,-27.7L90.4,-27.9L91.2,-27.8L92.0,-27.9L92.1,-28.6L91.7,-28.9L92.5,-29.1L93.4,-29.9L94.6,-30.6L95.4,-30.4L96.1,-30.8L96.6,-30.1L96.2,-29.7L97.3,-29.5Z" fill="#1e1e2e" stroke="#2a2a3a" stroke-width="0.3"/>
  <path d="M92.7,-22.6L92.7,-21.8L92.3,-22.0L92.4,-21.1L92.1,-21.7L92.0,-22.2L91.8,-22.8L91.4,-23.4L90.5,-23.4L90.6,-23.0L90.3,-22.4L89.8,-22.6L89.7,-22.4L89.4,-22.5L89.0,-22.6L88.9,-23.5L88.5,-24.3L88.7,-25.0L88.1,-25.3L88.3,-25.7L88.9,-26.1L88.2,-26.7L88.6,-27.4L89.4,-27.0L89.8,-26.9L89.9,-26.1L90.9,-26.0L91.8,-26.0L92.4,-25.8L91.9,-24.9L91.5,-24.8L91.2,-24.2L91.7,-23.6L91.9,-24.3L92.1,-24.3L92.7,-22.6Z" fill="#1e1e2e" stroke="#2a2a3a" stroke-width="0.3"/>
  <path d="M91.7,-28.9L92.1,-28.6L92.0,-27.9L91.2,-27.8L90.4,-27.9L89.7,-27.7L88.8,-28.2L88.8,-28.4L89.5,-29.2L90.0,-29.5L90.7,-29.3L91.3,-29.2L91.7,-28.9Z" fill="#1e1e2e" stroke="#2a2a3a" stroke-width="0.3"/>
  <path d="M88.1,-29.0L88.0,-28.6L88.2,-27.8L88.1,-27.4L87.2,-27.4L86.0,-27.6L85.3,-27.8L84.7,-28.3L83.3,-28.5L82.0,-29.1L81.1,-29.7L80.1,-30.1L80.5,-31.2L81.1,-31.7L81.5,-32.0L82.3,-31.6L83.3,-30.9L83.9,-30.7L84.2,-30.1L85.0,-29.9L85.8,-29.4L87.0,-29.2L88.1,-29.0Z" fill="#1e1e2e" stroke="#2a2a3a" stroke-width="0.3"/>
  <path d="M77.8,-38.0L76.9,-37.0L75.8,-36.8L74.2,-37.1L73.7,-36.6L74.1,-35.5L74.5,-34.7L75.3,-34.1L74.4,-33.4L74.4,-32.6L73.5,-31.4L72.8,-30.3L71.8,-29.1L70.6,-29.2L69.5,-28.0L70.2,-27.5L70.3,-26.6L70.8,-26.1L71.0,-25.1L68.8,-25.1L68.2,-24.4L67.4,-24.7L67.1,-25.5L66.4,-26.3L64.5,-26.1L62.9,-26.1L61.5,-25.9L61.9,-27.2L63.3,-27.8L63.2,-28.3L62.8,-28.5L62.7,-29.5L61.8,-30.0L61.4,-30.7L60.9,-31.3L62.5,-30.7L63.6,-30.9L64.1,-30.7L64.4,-31.0L65.0,-30.9L66.3,-31.3L66.4,-32.3L66.9,-33.0L67.7,-33.0L67.8,-33.3L68.6,-33.5L68.9,-33.4L69.3,-33.7L69.3,-34.4L69.7,-35.1L70.3,-35.4L69.9,-36.2L70.9,-36.2L71.2,-36.6L71.1,-37.1L71.6,-37.6L71.5,-38.2L71.3,-38.7L71.8,-39.3L72.9,-39.5L74.1,-39.7L74.6,-39.9L75.2,-40.0L75.9,-39.5L76.2,-38.5L77.8,-38.0Z" fill="#1e1e2e" stroke="#2a2a3a" stroke-width="0.3"/>
  <path d="M66.5,-40.3L67.1,-40.3L67.8,-40.1L68.1,-39.9L68.9,-40.3L69.2,-40.1L69.5,-40.6L70.1,-40.6L70.3,-40.8L70.4,-41.3L70.8,-41.8L71.3,-41.5L71.2,-41.1L71.5,-41.0L71.4,-40.0L71.8,-39.5L72.2,-39.8L72.6,-39.9L73.3,-40.5L73.9,-40.4L75.0,-40.4L75.2,-40.0L74.6,-39.9L74.1,-39.7L72.9,-39.5L71.8,-39.3L71.3,-38.7L71.5,-38.2L71.6,-37.6L71.1,-37.1L71.2,-36.6L70.9,-36.2L69.9,-36.2L70.3,-35.4L69.7,-35.1L69.3,-34.4L69.3,-33.7L68.9,-33.4L68.6,-33.5L67.8,-33.3L67.7,-33.0L66.9,-33.0L66.4,-32.3L66.3,-31.3L65.0,-30.9L64.4,-31.0L64.1,-30.7L63.6,-30.9L62.5,-30.7L60.9,-31.3L61.8,-32.3L61.7,-33.1L60.9,-33.3L60.9,-34.0L60.5,-35.0L61.0,-35.6L60.5,-35.8L60.8,-36.7L61.2,-38.2L62.2,-37.7L63.0,-37.9L63.2,-38.5L64.0,-38.6L64.5,-39.0L64.7,-40.0L65.6,-40.3L65.7,-40.7L66.2,-40.4L66.5,-40.3Z" fill="#1e1e2e" stroke="#2a2a3a" stroke-width="0.3"/>
  <path d="M67.8,-40.1L68.4,-41.3L68.2,-42.3L67.4,-42.6L67.7,-43.2L68.5,-43.1L69.0,-43.8L69.3,-44.7L70.7,-45.0L70.5,-44.4L70.6,-44.0L71.0,-44.0L70.6,-43.6L69.6,-43.8L69.5,-43.1L70.5,-43.2L71.8,-42.8L73.7,-43.0L73.9,-41.8L74.3,-41.9L74.9,-41.6L74.8,-41.1L75.0,-40.4L73.9,-40.4L73.3,-40.5L72.6,-39.9L72.2,-39.8L71.8,-39.5L71.4,-40.0L71.5,-41.0L71.2,-41.1L71.3,-41.5L70.8,-41.8L70.4,-41.3L70.3,-40.8L70.1,-40.6L69.5,-40.6L69.2,-40.1L68.9,-40.3L68.1,-39.9L67.8,-40.1Z" fill="#1e1e2e" stroke="#2a2a3a" stroke-width="0.3"/>
  <path d="M71.0,-46.7L71.2,-47.3L71.8,-47.5L73.5,-47.0L73.6,-47.8L74.2,-48.1L75.6,-47.6L76.0,-47.7L77.7,-47.7L79.1,-47.5L79.6,-47.0L80.3,-46.8L80.1,-46.5L78.5,-45.8L78.2,-45.3L76.9,-45.1L76.5,-44.3L75.5,-44.4L74.8,-44.2L73.8,-43.6L74.0,-43.3L73.7,-43.0L71.8,-42.8L70.5,-43.2L69.5,-43.1L69.6,-43.8L70.6,-43.6L71.0,-44.0L71.8,-43.9L73.1,-44.8L71.9,-45.5L71.2,-45.2L70.4,-45.7L71.3,-46.6L71.0,-46.7Z" fill="#1e1e2e" stroke="#2a2a3a" stroke-width="0.3"/>
  <path d="M52.5,-46.1L52.9,-46.5L54.1,-46.8L54.8,-46.4L55.5,-45.4L56.0,-45.4L57.1,-45.5L56.9,-46.1L57.8,-46.6L58.6,-47.4L60.0,-46.7L60.1,-45.6L60.5,-45.3L61.5,-45.4L61.9,-45.1L62.4,-43.8L63.5,-42.9L64.2,-42.3L65.2,-41.7L66.5,-41.1L66.5,-40.3L66.2,-40.4L65.7,-40.7L65.6,-40.3L64.7,-40.0L64.5,-39.0L64.0,-38.6L63.2,-38.5L63.0,-37.9L62.2,-37.7L61.2,-38.2L61.1,-39.2L60.4,-39.3L59.2,-40.4L58.4,-40.5L57.3,-41.2L56.6,-41.3L56.2,-41.1L55.5,-41.1L54.8,-40.4L53.9,-40.1L53.7,-41.0L53.9,-42.4L53.1,-42.8L53.4,-43.7L52.7,-43.8L52.9,-44.9L53.9,-44.5L54.7,-45.0L54.0,-45.8L53.7,-46.5L52.9,-46.2L52.8,-45.2L52.5,-46.1Z" fill="#1e1e2e" stroke="#2a2a3a" stroke-width="0.3"/>
  <path d="M48.6,-31.4L48.0,-32.0L48.0,-32.6L47.7,-32.6L47.8,-33.5L47.3,-34.4L46.1,-35.0L45.4,-36.2L45.6,-37.1L46.2,-37.5L46.1,-38.2L45.4,-38.6L44.8,-40.1L44.8,-40.1L44.2,-41.1L44.4,-41.5L44.1,-43.0L44.8,-43.3L45.0,-42.8L45.5,-42.3L46.1,-42.1L46.5,-42.1L47.7,-43.1L48.1,-43.2L48.4,-42.8L48.0,-42.2L48.6,-41.5L48.9,-41.5L49.2,-40.6L50.1,-40.3L50.8,-39.7L52.3,-39.5L53.8,-39.8L53.9,-40.1L54.8,-40.4L55.5,-41.1L56.2,-41.1L56.6,-41.3L57.3,-41.2L58.4,-40.5L59.2,-40.4L60.4,-39.3L61.1,-39.2L61.2,-38.2L60.8,-36.7L60.5,-35.8L61.0,-35.6L60.5,-35.0L60.9,-34.0L60.9,-33.3L61.7,-33.1L61.8,-32.3L60.9,-31.3L61.4,-30.7L61.8,-30.0L62.7,-29.5L62.8,-28.5L63.2,-28.3L63.3,-27.8L61.9,-27.2L61.5,-25.9L59.6,-26.3L58.5,-26.5L57.4,-26.7L57.0,-28.0L56.5,-28.2L55.7,-28.0L54.7,-27.5L53.5,-27.8L52.5,-28.7L51.5,-29.0L50.9,-30.1L50.1,-31.6L49.6,-31.5L48.9,-31.8L48.6,-31.4Z" fill="#1e1e2e" stroke="#2a2a3a" stroke-width="0.3"/>
  <path d="M35.7,-34.6L35.7,-34.7L35.8,-34.8L35.8,-35.3L36.1,-36.0L36.6,-36.4L36.4,-36.9L36.0,-37.0L35.9,-37.9L36.1,-38.4L36.4,-38.7L36.7,-39.0L36.7,-39.6L37.1,-39.4L38.2,-39.8L38.7,-39.5L39.5,-39.5L40.7,-40.0L41.2,-40.0L42.3,-40.2L41.8,-39.4L41.3,-39.1L41.4,-38.2L41.0,-36.7L38.8,-35.4L36.8,-34.2L35.7,-34.6Z" fill="#1e1e2e" stroke="#2a2a3a" stroke-width="0.3"/>
  <path d="M46.5,-42.1L46.1,-42.1L45.7,-42.8L45.7,-43.0L45.3,-43.0L45.0,-43.4L44.8,-43.3L44.4,-43.7L43.7,-44.0L43.8,-44.7L43.6,-45.1L45.0,-45.4L45.2,-45.0L45.6,-44.8L45.4,-44.4L45.9,-44.0L45.6,-43.6L46.0,-43.2L46.5,-43.0L46.5,-42.1Z" fill="#1e1e2e" stroke="#2a2a3a" stroke-width="0.3"/>
  <path d="M28.2,-68.2L29.2,-67.8L29.4,-67.3L29.9,-67.5L30.9,-67.1L31.0,-66.3L30.8,-65.8L31.4,-64.7L31.8,-64.4L31.7,-64.1L32.4,-63.8L32.7,-63.3L32.3,-63.0L31.5,-63.0L31.3,-62.9L31.5,-62.3L31.8,-61.3L31.8,-61.3L30.9,-61.2L30.6,-60.8L30.6,-60.0L30.2,-60.1L29.3,-60.1L29.0,-60.4L28.6,-60.2L28.2,-60.4L27.5,-60.4L26.3,-60.8L25.3,-60.9L24.6,-60.9L24.0,-60.5L23.5,-60.4L23.5,-61.1L23.2,-61.9L23.8,-62.2L23.8,-62.9L23.5,-63.5L23.5,-64.3L24.5,-64.3L25.5,-64.9L25.8,-65.9L26.6,-66.4L26.5,-67.2L27.1,-67.5L28.2,-68.2Z" fill="#1e1e2e" stroke="#2a2a3a" stroke-width="0.3"/>
  <path d="M31.8,-61.3L32.2,-61.2L32.4,-61.6L32.7,-61.5L33.8,-61.6L34.4,-60.7L34.1,-60.4L34.2,-59.9L35.0,-59.8L35.4,-59.1L35.4,-58.8L36.6,-58.3L37.4,-58.5L38.0,-57.8L38.6,-57.8L40.1,-57.3L40.1,-56.8L39.7,-56.0L39.9,-55.2L39.7,-54.7L38.8,-54.6L38.3,-54.2L38.2,-53.5L37.4,-53.4L36.8,-52.9L35.8,-52.9L35.0,-52.3L35.0,-51.5L34.9,-51.6L34.7,-51.9L34.4,-51.9L33.7,-52.2L33.4,-51.9L33.3,-52.0L31.7,-52.4L31.7,-52.9L30.7,-52.8L30.4,-52.0L29.6,-50.9L29.1,-51.2L28.7,-50.9L28.2,-51.2L28.5,-51.3L28.7,-51.8L28.9,-52.3L28.9,-52.6L29.1,-52.7L29.2,-52.5L29.8,-52.4L30.0,-52.5L29.8,-52.7L29.9,-52.9L29.6,-53.3L29.4,-53.9L29.1,-54.1L29.1,-54.6L28.7,-55.0L28.3,-55.1L27.5,-55.6L26.9,-55.4L26.6,-55.2L26.2,-55.2L25.9,-54.8L25.2,-54.7L24.9,-54.5L24.4,-54.8L23.8,-54.8L23.1,-55.0L22.7,-54.7L22.6,-55.1L22.1,-55.5L22.3,-56.1L22.6,-56.5L22.8,-56.4L22.5,-57.1L23.4,-58.4L23.9,-58.6L24.0,-59.0L23.5,-60.4L24.0,-60.5L24.6,-60.9L25.3,-60.9L26.3,-60.8L27.5,-60.4L28.2,-60.4L28.6,-60.2L29.0,-60.4L29.3,-60.1L30.2,-60.1L30.6,-60.0L30.6,-60.8L30.9,-61.2L31.8,-61.3Z" fill="#1e1e2e" stroke="#2a2a3a" stroke-width="0.3"/>
  <path d="M44.8,-40.1L44.3,-39.9L43.9,-40.2L42.8,-40.4L42.3,-40.2L41.2,-40.0L40.7,-40.0L39.5,-39.5L38.7,-39.5L38.2,-39.8L37.1,-39.4L36.7,-39.6L36.7,-39.0L36.4,-38.7L36.1,-38.4L35.8,-39.0L36.2,-39.4L35.6,-39.3L34.7,-39.6L34.0,-38.9L32.5,-38.8L31.7,-39.4L30.6,-39.5L30.4,-39.0L29.7,-38.8L28.7,-39.5L27.6,-39.5L27.0,-40.7L26.3,-41.4L26.8,-42.4L26.2,-43.0L27.3,-44.3L28.8,-44.3L29.2,-45.3L31.1,-45.1L32.3,-46.0L33.5,-46.4L35.2,-46.4L36.9,-45.5L38.3,-45.0L39.5,-45.2L40.4,-45.0L41.6,-45.7L42.6,-45.8L43.6,-45.1L43.8,-44.7L43.7,-44.0L44.4,-43.7L44.8,-43.3L44.1,-43.0L44.4,-41.5L44.2,-41.1L44.8,-40.1L44.8,-40.1ZM26.1,-46.1L27.1,-46.6L28.0,-46.4L28.1,-45.9L29.0,-45.4L28.8,-45.1L27.6,-45.0L27.2,-44.6L26.4,-43.9L26.0,-44.5L26.1,-44.8L26.3,-44.9L26.6,-45.8L26.1,-46.1Z" fill="#1e1e2e" stroke="#2a2a3a" stroke-width="0.3"/>
  <path d="M162.1,10.5L162.4,10.9L161.7,10.9L161.3,10.3L161.9,10.5L162.1,10.5ZM161.7,9.6L161.5,9.8L160.8,9.0L160.6,8.3L160.9,8.3L161.3,9.2L161.7,9.6ZM160.9,9.9L160.5,9.9L159.8,9.8L159.6,9.7L159.7,9.3L160.4,9.4L160.7,9.7L160.9,9.9ZM159.6,8.0L159.9,8.4L159.9,8.6L159.1,8.1L158.6,7.8L158.2,7.4L158.4,7.3L158.8,7.6L159.6,8.0ZM157.1,7.0L157.5,7.4L157.3,7.4L156.9,7.2L156.5,6.8L156.5,6.6L157.1,7.0Z" fill="#1e1e2e" stroke="#2a2a3a" stroke-width="0.3"/>
  <path d="M147.7,44.8L148.3,44.9L148.4,46.4L148.0,46.9L147.9,48.0L147.6,47.6L146.9,48.6L146.7,48.5L146.0,48.5L145.4,47.3L145.3,46.4L144.7,45.2L144.7,44.6L145.4,44.8L146.4,45.2L146.9,45.0L147.7,44.8ZM126.1,34.1L125.1,34.7L124.2,34.9L124.0,35.6L123.7,36.1L122.8,36.1L122.2,36.2L121.3,36.0L120.6,36.1L119.9,36.2L119.3,36.8L119.0,36.8L118.5,37.1L118.0,37.5L117.3,37.4L116.6,37.4L115.6,36.7L115.0,36.4L115.0,35.7L115.5,35.6L115.7,35.3L115.7,34.9L115.8,34.0L115.7,33.4L115.2,32.2L115.0,31.5L115.0,30.9L114.6,30.1L114.6,29.8L114.2,29.3L114.0,28.4L113.5,27.5L113.3,27.1L113.8,27.6L113.4,26.5L113.9,26.8L114.2,27.3L114.2,26.7L113.7,25.8L113.6,25.5L113.4,25.2L113.5,24.5L113.7,24.3L113.8,23.7L113.7,23.1L114.1,22.3L114.2,23.1L114.6,22.4L115.5,22.0L115.9,21.6L116.7,21.2L117.2,21.1L117.4,21.2L118.2,20.8L118.8,20.7L119.0,20.5L119.3,20.4L119.8,20.4L120.9,20.1L121.4,19.6L121.7,19.0L122.2,18.5L122.3,18.1L122.3,17.5L123.0,16.6L123.4,17.5L123.9,17.3L123.5,16.8L123.8,16.3L124.3,16.6L124.4,15.8L124.9,15.3L125.2,14.8L125.7,14.7L125.7,14.4L126.1,14.5L126.1,14.2L126.6,14.1L127.1,14.0L127.8,14.4L128.4,15.0L129.0,15.0L129.6,15.1L129.4,14.6L129.9,13.7L130.3,13.5L130.2,13.2L130.6,12.6L131.2,12.3L131.7,12.4L132.6,12.2L132.6,11.7L131.8,11.3L132.4,11.2L133.0,11.5L133.6,11.9L134.4,12.1L134.7,12.0L135.3,12.3L135.9,12.1L136.3,12.1L136.5,11.9L137.0,12.4L136.7,13.0L136.3,13.4L136.0,13.4L136.1,13.9L135.8,14.4L135.4,14.9L135.5,15.2L136.3,15.7L137.1,16.1L137.6,16.4L138.3,17.1L138.6,17.1L139.1,17.3L139.3,17.6L140.2,18.0L140.9,17.6L141.1,17.1L141.3,16.6L141.4,16.0L141.7,15.2L141.6,14.7L141.6,14.4L141.5,13.8L141.7,13.1L141.8,12.8L141.7,12.5L141.9,12.0L142.1,11.4L142.1,11.1L142.5,10.7L142.8,11.2L142.9,11.9L143.1,12.0L143.2,12.4L143.5,12.9L143.6,13.5L143.6,13.9L143.9,14.7L144.6,14.3L144.9,14.8L145.4,15.2L145.3,15.6L145.5,16.5L145.6,17.0L145.9,17.2L146.2,18.1L146.1,18.6L146.4,19.3L147.5,19.9L148.2,20.4L148.8,20.8L148.7,21.1L149.3,21.8L149.7,22.9L150.1,22.7L150.5,23.2L150.7,23.0L150.9,24.1L151.6,24.8L152.1,25.2L152.9,26.1L153.1,27.0L153.2,27.7L153.1,28.4L153.6,29.3L153.5,30.3L153.3,30.8L153.1,31.9L153.1,32.5L152.9,33.4L152.5,34.5L151.7,35.0L151.3,36.0L151.0,36.6L150.7,37.6L150.3,38.2L150.1,39.2L149.9,40.0L150.0,40.4L149.4,40.8L148.3,40.9L147.4,41.4L146.9,41.9L146.3,42.5L145.5,41.9L144.9,41.7L145.0,41.0L144.5,41.2L143.6,42.2L142.7,41.8L142.2,41.6L141.6,41.5L140.6,41.2L140.0,40.4L139.8,39.4L139.6,38.8L139.1,38.3L138.1,38.2L138.4,37.6L138.2,36.7L137.7,37.5L136.8,37.7L137.4,37.0L137.5,36.3L137.9,35.8L137.8,34.9L137.0,35.9L136.4,36.3L136.0,37.3L135.2,36.8L135.2,36.1L134.6,35.3L134.1,34.8L134.3,34.5L133.0,33.8L132.3,33.8L131.3,33.2L129.5,33.3L128.2,33.7L127.1,34.1L126.1,34.1Z" fill="#1e1e2e" stroke="#2a2a3a" stroke-width="0.3"/>
  <path d="M81.8,-7.5L81.6,-6.5L81.2,-6.2L80.3,-6.0L79.9,-6.8L79.7,-8.2L80.1,-9.9L80.8,-9.3L81.3,-8.6L81.8,-7.5Z" fill="#1e1e2e" stroke="#2a2a3a" stroke-width="0.3"/>
  <path d="M121.8,-25.2L121.2,-23.4L120.7,-22.5L120.2,-23.4L120.1,-24.2L120.7,-25.3L121.5,-26.2L122.0,-25.8L121.8,-25.2Z" fill="#1e1e2e" stroke="#2a2a3a" stroke-width="0.3"/>
  <path d="M46.4,-46.2L46.7,-46.1L47.4,-45.3L47.8,-45.2L48.0,-45.6L48.6,-46.1L49.1,-45.4L49.6,-44.5L50.1,-44.4L50.4,-44.0L49.6,-43.9L49.4,-42.9L49.2,-42.5L48.9,-42.2L48.9,-41.5L48.6,-41.5L48.0,-42.2L48.4,-42.8L48.1,-43.2L47.7,-43.1L46.5,-42.1L46.5,-43.0L46.0,-43.2L45.6,-43.6L45.9,-44.0L45.4,-44.4L45.6,-44.8L45.2,-45.0L45.0,-45.4L45.2,-45.6L46.0,-45.2L46.5,-45.1L46.6,-45.3L46.1,-46.0L46.4,-46.2ZM46.1,-42.1L45.5,-42.3L45.0,-42.8L44.8,-43.3L45.0,-43.4L45.3,-43.0L45.7,-43.0L45.7,-42.8L46.1,-42.1Z" fill="#1e1e2e" stroke="#2a2a3a" stroke-width="0.3"/>
  <path d="M40.0,-48.3L40.1,-48.5L40.9,-48.2L42.4,-48.0L43.8,-47.4L43.9,-47.1L44.5,-47.3L45.5,-47.0L45.8,-46.5L46.4,-46.2L46.1,-46.0L46.6,-45.3L46.5,-45.1L46.0,-45.2L45.2,-45.6L45.0,-45.4L43.6,-45.1L42.6,-45.8L41.6,-45.7L41.7,-46.3L41.5,-47.2L40.9,-47.7L40.3,-47.9L40.0,-48.3Z" fill="#1e1e2e" stroke="#2a2a3a" stroke-width="0.3"/>
  <path d="M120.8,-12.8L120.3,-13.6L121.2,-13.6L121.5,-13.2L121.3,-12.3L120.8,-12.8ZM122.6,-10.0L122.8,-10.3L122.9,-10.9L123.5,-11.0L123.3,-10.3L124.1,-11.3L124.0,-10.3L123.6,-10.0L123.3,-9.4L123.0,-9.1L122.4,-9.8L122.6,-10.0ZM126.4,-8.4L126.5,-7.8L126.5,-7.2L126.2,-6.3L125.8,-7.3L125.4,-6.8L125.7,-6.1L125.4,-5.6L124.2,-6.2L123.9,-6.9L124.2,-7.4L123.6,-7.9L123.3,-7.4L122.8,-7.5L122.1,-6.9L121.9,-7.2L122.3,-8.1L122.9,-8.3L123.5,-8.7L123.8,-8.3L124.6,-8.5L124.8,-9.0L125.5,-9.0L125.4,-9.8L126.2,-9.3L126.3,-8.8L126.4,-8.4ZM118.5,-9.4L117.2,-8.4L117.7,-9.1L118.4,-9.7L119.0,-10.4L119.5,-11.4L119.7,-10.6L119.0,-10.1L118.5,-9.4ZM122.3,-18.5L122.2,-18.1L122.5,-17.4L122.3,-16.5L121.7,-16.1L121.5,-15.3L121.7,-14.5L122.3,-14.4L122.7,-14.5L124.0,-13.9L123.9,-13.4L124.2,-13.1L124.1,-12.6L123.3,-13.1L122.9,-13.7L122.7,-13.3L122.0,-13.9L121.1,-13.8L120.6,-14.0L120.7,-14.4L121.0,-14.7L120.7,-14.9L120.6,-14.6L120.1,-15.1L119.9,-15.6L119.9,-16.6L120.3,-16.2L120.4,-17.9L120.7,-18.8L121.3,-18.8L121.9,-18.5L122.2,-18.8L122.3,-18.5ZM122.0,-11.5L121.9,-12.0L122.5,-11.7L123.1,-11.7L123.1,-11.2L122.6,-10.8L122.0,-10.5L122.0,-11.0L122.0,-11.5ZM125.5,-12.3L125.8,-11.1L125.0,-11.4L125.0,-11.0L125.3,-10.4L124.8,-10.2L124.8,-10.9L124.5,-11.0L124.3,-11.6L124.9,-11.5L124.9,-11.9L124.3,-12.7L125.2,-12.6L125.5,-12.3Z" fill="#1e1e2e" stroke="#2a2a3a" stroke-width="0.3"/>
  <path d="M100.1,-6.5L100.3,-6.7L101.1,-6.2L101.2,-5.7L101.8,-5.8L102.1,-6.2L102.4,-6.1L103.0,-5.5L103.4,-4.9L103.4,-4.2L103.3,-3.7L103.4,-3.4L103.5,-2.8L103.9,-2.5L104.2,-1.6L104.2,-1.3L103.5,-1.2L102.6,-2.0L101.4,-2.8L101.3,-3.3L100.7,-3.9L100.6,-4.8L100.2,-5.3L100.3,-6.1L100.1,-6.5ZM117.9,-4.1L117.0,-4.3L115.9,-4.3L115.5,-3.2L115.1,-2.8L114.6,-1.4L113.8,-1.2L112.9,-1.5L112.4,-1.4L111.8,-0.9L111.2,-1.0L110.5,-0.8L109.8,-1.3L109.7,-2.0L110.4,-1.7L111.2,-1.9L111.4,-2.7L111.8,-2.9L113.0,-3.1L113.7,-3.9L114.2,-4.5L114.7,-4.0L114.9,-4.4L115.3,-4.3L115.4,-5.0L115.5,-5.5L116.2,-6.2L116.7,-6.9L117.1,-6.9L117.6,-6.4L117.7,-6.0L118.3,-5.7L119.2,-5.4L119.1,-5.0L118.4,-5.0L118.6,-4.5L117.9,-4.1Z" fill="#1e1e2e" stroke="#2a2a3a" stroke-width="0.3"/>
  <path d="M115.5,-5.5L115.4,-5.0L115.3,-4.3L114.9,-4.4L114.7,-4.0L114.2,-4.5L114.6,-4.9L115.5,-5.5Z" fill="#1e1e2e" stroke="#2a2a3a" stroke-width="0.3"/>
  <path d="M28.6,-96.8L28.4,-94.8L30.0,-93.0L29.1,-91.1L30.2,-88.3L29.5,-86.2L30.4,-84.5L30.0,-83.0L31.5,-81.5L31.1,-80.3L30.2,-79.1L28.1,-76.5L28.1,-76.5L28.1,-76.5L26.3,-76.3L24.5,-75.6L22.9,-75.1L22.3,-76.2L21.3,-76.9L21.5,-79.0L21.1,-80.9L21.5,-82.2L22.4,-83.6L24.7,-86.1L25.4,-86.6L25.3,-87.6L23.9,-88.7L23.6,-89.7L23.5,-93.7L22.0,-95.5L20.6,-96.9L21.2,-97.6L22.4,-96.1L23.7,-96.3L24.7,-95.6L25.7,-96.8L26.2,-98.9L27.7,-99.9L29.0,-98.8L28.6,-96.8Z" fill="#1e1e2e" stroke="#2a2a3a" stroke-width="0.3"/>
  <path d="M36.4,-14.6L36.3,-15.0L36.8,-16.5L36.9,-17.2L37.2,-17.5L37.9,-17.7L38.4,-18.3L39.0,-17.1L39.3,-16.1L39.8,-15.6L41.2,-14.6L41.7,-14.1L42.3,-13.5L42.6,-13.1L43.1,-12.8L42.8,-12.6L42.4,-12.6L42.0,-13.0L41.6,-13.6L41.2,-13.9L40.9,-14.3L40.0,-14.7L39.3,-14.7L39.1,-14.9L38.5,-14.7L37.9,-15.1L37.6,-14.4L36.4,-14.6Z" fill="#1e1e2e" stroke="#2a2a3a" stroke-width="0.3"/>
  <path d="M141.9,-42.6L141.0,-41.4L141.0,-40.1L140.6,-39.1L140.8,-38.4L140.3,-37.6L139.0,-37.0L137.2,-36.9L135.8,-35.5L135.1,-36.0L135.1,-36.9L133.3,-36.6L132.2,-36.1L131.0,-36.1L132.0,-35.2L131.3,-33.2L130.7,-32.7L130.2,-33.1L130.4,-34.2L129.8,-34.5L129.4,-35.3L130.4,-35.7L130.9,-36.5L131.9,-37.1L132.6,-37.9L134.6,-38.3L135.7,-38.1L136.7,-40.3L137.4,-39.7L138.9,-40.9L139.4,-41.4L140.1,-43.0L139.9,-44.4L140.3,-45.3L141.4,-45.5L141.9,-43.7L141.9,-42.6ZM144.6,-49.0L145.3,-49.6L145.5,-48.1L144.1,-47.7L143.2,-46.4L141.6,-47.3L141.1,-45.8L140.0,-45.8L139.8,-47.1L140.3,-48.2L141.4,-48.3L141.7,-50.2L142.0,-51.3L143.1,-49.8L143.9,-49.3L144.6,-49.0ZM132.4,-35.5L132.9,-36.3L133.5,-36.1L133.9,-36.6L134.6,-36.4L134.8,-36.0L134.2,-35.2L133.8,-35.6L133.3,-35.3L133.0,-34.6L132.4,-35.0L132.4,-35.5Z" fill="#1e1e2e" stroke="#2a2a3a" stroke-width="0.3"/>
  <path d="M52.0,-19.4L52.8,-17.6L53.1,-16.9L52.4,-16.6L52.2,-16.1L52.2,-15.8L51.2,-15.4L49.6,-14.9L48.7,-14.1L48.2,-14.1L47.9,-14.1L47.4,-13.7L46.7,-13.5L45.9,-13.5L45.6,-13.4L45.4,-13.1L45.1,-13.1L45.0,-12.8L44.5,-12.8L44.2,-12.7L43.5,-12.7L43.2,-13.3L43.3,-13.9L43.1,-14.2L42.9,-15.0L42.6,-15.4L42.8,-15.4L42.7,-15.9L42.8,-16.1L42.8,-16.6L43.2,-16.9L43.1,-17.3L43.4,-17.9L43.8,-17.6L44.1,-17.7L45.2,-17.7L45.4,-17.6L46.4,-17.5L46.7,-17.6L47.0,-17.2L47.5,-17.4L48.2,-18.5L49.1,-19.0L52.0,-19.4Z" fill="#1e1e2e" stroke="#2a2a3a" stroke-width="0.3"/>
  <path d="M35.0,-30.7L36.1,-30.5L36.5,-30.9L36.7,-31.3L37.5,-31.5L37.7,-31.9L38.0,-32.1L37.0,-33.2L39.0,-33.8L39.2,-34.0L40.4,-33.7L41.9,-32.9L44.7,-30.5L46.6,-30.4L47.5,-30.3L47.7,-29.8L48.4,-29.8L48.8,-28.8L49.3,-28.6L49.5,-28.2L50.2,-27.7L50.2,-27.2L50.1,-26.9L50.2,-26.5L50.5,-26.2L50.7,-25.8L50.8,-25.6L51.1,-25.3L51.4,-25.4L51.6,-25.0L51.6,-24.7L52.0,-23.6L55.0,-23.1L55.2,-23.3L55.7,-22.6L55.0,-20.4L52.0,-19.4L49.1,-19.0L48.2,-18.5L47.5,-17.4L47.0,-17.2L46.7,-17.6L46.4,-17.5L45.4,-17.6L45.2,-17.7L44.1,-17.7L43.8,-17.6L43.4,-17.9L43.1,-17.3L43.2,-16.9L42.8,-16.6L42.6,-17.0L42.3,-17.3L42.3,-17.8L41.8,-18.1L41.2,-19.0L40.9,-19.9L40.2,-20.6L39.8,-20.8L39.1,-21.8L39.0,-22.5L39.1,-23.2L38.5,-24.4L38.0,-24.8L37.5,-25.0L37.2,-25.7L37.2,-25.9L36.9,-26.5L36.6,-26.7L36.2,-27.6L35.6,-28.5L35.1,-29.3L34.6,-29.3L34.8,-29.9L34.8,-30.3L35.0,-30.7Z" fill="#1e1e2e" stroke="#2a2a3a" stroke-width="0.3"/>
  <path d="M32.7,-37.6L32.8,-37.6L32.9,-37.9L33.7,-37.9L34.6,-38.2L33.9,-37.7L34.0,-37.5L33.9,-37.5L33.7,-37.4L33.5,-37.5L33.5,-37.4L33.5,-37.5L33.4,-37.6L33.2,-37.6L32.9,-37.5L32.7,-37.6Z" fill="#1e1e2e" stroke="#2a2a3a" stroke-width="0.3"/>
  <path d="M32.7,-37.6L32.9,-37.5L33.2,-37.6L33.4,-37.6L33.5,-37.5L33.5,-37.4L33.5,-37.5L33.7,-37.4L33.9,-37.5L34.0,-37.5L34.0,-37.4L33.0,-36.9L32.5,-37.0L32.3,-37.5L32.7,-37.6Z" fill="#1e1e2e" stroke="#2a2a3a" stroke-width="0.3"/>
  <path d="M36.9,-22.6L32.9,-22.6L29.0,-22.6L25.0,-22.6L25.0,-26.6L25.0,-30.6L24.7,-31.5L25.0,-32.2L24.8,-32.7L25.2,-33.3L26.5,-33.3L27.5,-33.0L28.5,-32.7L28.9,-32.5L29.7,-32.9L30.1,-33.2L31.0,-33.3L31.7,-33.1L32.0,-32.6L32.2,-32.9L33.0,-32.7L33.8,-32.6L34.3,-32.9L34.3,-32.9L34.8,-31.2L34.9,-30.9L34.6,-30.4L34.4,-29.6L34.2,-29.0L33.9,-28.8L33.6,-29.2L33.1,-29.7L32.4,-31.3L32.3,-31.2L32.7,-30.0L33.3,-28.8L34.1,-27.1L34.5,-26.5L34.8,-25.9L35.7,-24.7L35.5,-24.5L35.5,-23.8L36.7,-22.8L36.9,-22.6Z" fill="#1e1e2e" stroke="#2a2a3a" stroke-width="0.3"/>
  <path d="M47.8,-8.0L45.0,-5.0L43.7,-5.0L42.8,-4.3L42.1,-4.2L41.9,-3.9L41.2,-3.9L40.8,-4.3L39.9,-3.8L39.6,-3.4L38.9,-3.5L38.7,-3.6L38.4,-3.6L38.1,-3.6L36.9,-4.5L36.2,-4.5L35.8,-4.8L35.8,-5.3L35.3,-5.5L34.7,-6.6L34.3,-6.8L34.1,-7.2L33.6,-7.7L33.0,-7.8L33.3,-8.4L33.8,-8.4L34.0,-8.7L34.0,-9.6L34.3,-10.7L34.7,-11.0L34.8,-11.4L35.3,-12.2L35.9,-12.7L36.3,-13.7L36.4,-14.6L37.6,-14.4L37.9,-15.1L38.5,-14.7L39.1,-14.9L39.3,-14.7L40.0,-14.7L40.9,-14.3L41.2,-13.9L41.6,-13.6L42.0,-13.0L42.4,-12.6L42.0,-12.2L41.7,-11.7L41.7,-11.4L41.8,-11.1L42.3,-11.1L42.6,-11.2L42.8,-11.0L42.6,-10.6L42.9,-10.1L43.3,-9.6L43.7,-9.2L46.9,-8.0L47.8,-8.0Z" fill="#1e1e2e" stroke="#2a2a3a" stroke-width="0.3"/>
  <path d="M42.4,-12.6L42.8,-12.6L43.1,-12.8L43.3,-12.5L43.3,-12.1L42.7,-11.8L43.1,-11.5L42.8,-11.0L42.6,-11.2L42.3,-11.1L41.8,-11.1L41.7,-11.4L41.7,-11.7L42.0,-12.2L42.4,-12.6Z" fill="#1e1e2e" stroke="#2a2a3a" stroke-width="0.3"/>
  <path d="M48.9,-11.5L48.9,-11.5L48.9,-11.5L48.9,-11.1L48.9,-10.0L48.9,-9.5L48.5,-8.9L47.8,-8.0L46.9,-8.0L43.7,-9.2L43.3,-9.6L42.9,-10.1L42.6,-10.6L42.8,-11.0L43.1,-11.5L43.5,-11.4L43.7,-10.9L44.1,-10.5L44.6,-10.5L45.6,-10.8L46.6,-10.9L47.5,-11.2L48.0,-11.3L48.4,-11.5L48.9,-11.5L48.9,-11.5Z" fill="#1e1e2e" stroke="#2a2a3a" stroke-width="0.3"/>
  <path d="M33.9,1.0L31.9,1.0L30.8,1.0L30.4,1.1L29.8,1.4L29.6,1.3L29.6,0.6L29.8,0.2L29.9,-0.6L30.1,-1.1L30.5,-1.6L30.9,-1.8L31.2,-2.2L30.8,-2.3L30.8,-3.5L30.8,-3.5L31.2,-3.8L31.9,-3.6L32.7,-3.8L33.4,-3.8L34.0,-4.3L34.5,-3.6L34.6,-3.1L35.0,-1.9L34.7,-1.2L34.2,-0.5L33.9,-0.1L33.9,1.0Z" fill="#1e1e2e" stroke="#2a2a3a" stroke-width="0.3"/>
  <path d="M30.4,1.1L30.8,1.7L30.8,2.3L30.5,2.4L30.5,2.4L29.9,2.3L29.6,2.9L29.0,2.8L29.1,2.3L29.3,2.2L29.3,1.6L29.6,1.3L29.8,1.4L30.4,1.1Z" fill="#1e1e2e" stroke="#2a2a3a" stroke-width="0.3"/>
  <path d="M30.8,-3.5L30.0,-4.2L29.7,-4.6L29.2,-4.4L28.7,-4.5L28.4,-4.3L28.0,-4.4L27.4,-5.2L27.2,-5.6L26.5,-6.0L26.2,-6.6L25.8,-7.0L25.1,-7.5L25.1,-7.8L24.6,-8.3L23.9,-8.7L24.2,-8.8L24.5,-9.0L24.8,-9.9L25.1,-10.3L25.8,-10.5L26.0,-10.2L26.5,-9.6L26.8,-9.5L27.1,-9.7L27.8,-9.6L28.0,-9.4L29.0,-9.4L29.0,-9.6L29.5,-9.8L29.6,-10.1L30.0,-10.3L30.8,-9.8L31.4,-9.9L31.9,-10.6L32.4,-11.2L32.3,-11.8L32.1,-12.1L32.7,-12.1L32.7,-12.3L33.2,-12.3L33.1,-11.5L33.2,-10.8L33.7,-10.4L33.8,-10.0L33.8,-9.5L34.0,-9.5L34.0,-8.7L33.8,-8.4L33.3,-8.4L33.0,-7.8L33.6,-7.7L34.1,-7.2L34.3,-6.8L34.7,-6.6L35.3,-5.5L34.6,-4.9L34.0,-4.3L33.4,-3.8L32.7,-3.8L31.9,-3.6L31.2,-3.8L30.8,-3.5Z" fill="#1e1e2e" stroke="#2a2a3a" stroke-width="0.3"/>
  <path d="M109.5,-18.5L108.7,-18.8L108.6,-19.7L109.1,-20.2L110.2,-20.5L110.8,-20.5L111.0,-20.1L110.6,-19.6L110.3,-19.0L109.5,-18.5ZM80.3,-46.8L80.2,-47.6L80.9,-48.0L80.0,-50.4L81.9,-50.9L82.5,-51.3L83.2,-53.9L85.2,-53.4L85.7,-54.0L85.8,-55.5L86.6,-55.7L87.4,-56.7L87.8,-56.8L88.0,-55.8L88.9,-55.0L90.3,-54.4L91.0,-53.2L90.6,-51.5L90.9,-50.9L92.1,-50.7L93.5,-50.5L94.7,-49.6L95.3,-49.4L95.8,-48.2L96.3,-47.3L97.5,-47.4L99.5,-47.1L100.8,-47.3L101.8,-47.1L103.3,-46.2L104.5,-46.2L105.0,-45.8L106.1,-46.5L107.7,-47.0L109.2,-47.1L110.4,-47.5L111.1,-48.3L111.8,-48.7L111.7,-49.2L111.3,-49.7L111.9,-50.6L112.4,-50.5L113.5,-50.2L114.5,-51.0L116.0,-51.5L116.7,-52.5L117.4,-52.9L118.9,-53.1L119.7,-52.9L119.8,-53.4L118.9,-54.5L118.1,-55.0L117.3,-54.4L116.3,-54.6L115.7,-54.5L115.5,-55.1L116.2,-56.6L116.7,-57.7L117.9,-57.2L119.3,-58.1L119.3,-58.8L120.2,-60.5L120.7,-61.0L120.7,-61.9L120.2,-62.3L121.0,-63.1L122.2,-63.5L123.6,-63.5L125.1,-63.0L125.9,-62.4L126.6,-60.7L126.9,-60.0L127.3,-59.1L127.7,-57.5L129.4,-57.0L130.6,-56.0L131.0,-54.5L132.5,-54.5L133.4,-55.1L135.0,-55.6L134.5,-54.2L134.1,-53.7L133.8,-52.1L133.1,-50.7L131.9,-51.0L131.0,-50.5L131.3,-49.3L131.1,-47.6L130.6,-47.6L130.6,-46.9L130.0,-47.7L129.6,-46.9L128.1,-46.4L128.2,-45.6L127.3,-45.7L126.9,-46.1L126.2,-45.2L125.1,-44.5L124.3,-43.6L122.9,-43.2L122.1,-42.6L121.1,-42.3L121.6,-42.9L121.4,-43.4L122.2,-44.3L121.6,-45.0L120.8,-44.5L119.6,-43.6L119.0,-42.7L118.0,-42.7L117.5,-42.1L118.1,-41.2L118.9,-41.0L118.9,-40.4L119.7,-40.1L120.8,-41.0L121.7,-40.5L122.4,-40.4L122.5,-39.8L121.1,-39.4L120.6,-38.8L119.7,-38.2L119.2,-37.3L120.2,-36.6L120.6,-35.4L121.2,-34.4L121.9,-33.4L121.9,-32.6L121.3,-32.3L121.5,-31.6L122.1,-31.3L121.9,-30.3L121.7,-29.4L121.1,-29.3L120.4,-28.1L119.6,-26.7L118.7,-25.3L117.3,-24.3L115.9,-23.4L114.8,-23.3L114.2,-22.8L113.8,-23.2L113.2,-22.6L111.8,-22.1L110.8,-21.9L110.4,-20.8L109.9,-20.7L109.6,-21.5L109.9,-21.9L108.5,-22.3L108.1,-22.1L107.0,-22.4L106.6,-22.8L106.7,-23.4L105.8,-23.6L105.3,-24.0L104.5,-23.4L103.5,-23.3L102.7,-23.3L102.2,-23.1L101.7,-22.9L101.8,-21.7L101.3,-21.7L101.2,-22.0L101.2,-22.4L100.4,-22.1L100.0,-22.3L99.2,-22.7L99.5,-23.6L98.9,-23.8L98.7,-24.8L97.6,-24.6L97.7,-25.9L98.7,-26.9L98.7,-27.8L98.7,-28.6L98.2,-28.9L97.9,-29.6L97.3,-29.5L96.2,-29.7L96.6,-30.1L96.1,-30.8L95.4,-30.4L94.6,-30.6L93.4,-29.9L92.5,-29.1L91.7,-28.9L91.3,-29.2L90.7,-29.3L90.0,-29.5L89.5,-29.2L88.8,-28.4L88.7,-29.3L88.1,-29.0L87.0,-29.2L85.8,-29.4L85.0,-29.9L84.2,-30.1L83.9,-30.7L83.3,-30.9L82.3,-31.6L81.5,-32.0L81.1,-31.7L79.7,-32.5L78.7,-33.2L78.5,-34.5L79.2,-34.4L79.2,-35.0L78.8,-35.6L78.9,-36.6L77.8,-38.0L76.2,-38.5L75.9,-39.5L75.2,-40.0L75.0,-40.4L74.8,-41.1L74.9,-41.6L74.3,-41.9L73.9,-41.8L73.7,-43.0L74.0,-43.3L73.8,-43.6L74.8,-44.2L75.5,-44.4L76.5,-44.3L76.9,-45.1L78.2,-45.3L78.5,-45.8L80.1,-46.5L80.3,-46.8Z" fill="#00e5ff" stroke="#00c4dd" stroke-width="0.4" fill-opacity="0.9"/>
</svg>