<svg xmlns="http://www.w3.org/2000/svg" viewBox="71.68 -55.46 65.35 39.26" width="300" height="300" preserveAspectRatio="xMidYMid meet">
  <path d="M109.48,-18.20L108.66,-18.51L108.63,-19.37L109.12,-19.82L110.21,-20.10L110.79,-20.08L111.01,-19.70L110.57,-19.26L110.34,-18.68L109.48,-18.20ZM80.26,-42.35L80.18,-42.92L80.87,-43.18L79.97,-44.92L81.95,-45.32L82.46,-45.54L83.18,-47.33L85.16,-47.00L85.72,-47.45L85.77,-48.46L86.60,-48.55L87.36,-49.21L87.75,-49.30L88.01,-48.60L88.85,-48.07L90.28,-47.69L90.97,-46.89L90.59,-45.72L90.95,-45.29L92.13,-45.12L93.48,-44.98L94.69,-44.35L95.31,-44.24L95.76,-43.32L96.35,-42.73L97.45,-42.75L99.52,-42.52L100.85,-42.66L101.83,-42.51L103.31,-41.91L104.52,-41.91L104.96,-41.60L106.13,-42.13L107.74,-42.48L109.24,-42.52L110.41,-42.87L111.13,-43.41L111.83,-43.74L111.67,-44.07L111.35,-44.46L111.87,-45.10L112.44,-45.01L113.46,-44.81L114.46,-45.34L115.99,-45.73L116.72,-46.39L117.42,-46.67L118.87,-46.81L119.66,-46.69L119.77,-47.05L118.87,-47.75L118.06,-48.07L117.30,-47.70L116.31,-47.85L115.74,-47.73L115.49,-48.14L116.19,-49.13L116.68,-49.89L117.88,-49.51L119.29,-50.14L119.28,-50.58L120.18,-51.64L120.74,-51.96L120.73,-52.52L120.18,-52.75L121.00,-53.25L122.25,-53.43L123.57,-53.46L125.07,-53.16L125.95,-52.79L126.56,-51.78L126.94,-51.35L127.29,-50.74L127.66,-49.76L129.40,-49.44L130.58,-48.73L130.99,-47.79L132.51,-47.79L133.37,-48.18L135.03,-48.48L134.50,-47.58L134.11,-47.21L133.77,-46.12L133.10,-45.14L131.88,-45.32L131.03,-44.97L131.29,-44.11L131.14,-42.93L130.63,-42.90L130.64,-42.40L129.99,-42.99L129.60,-42.42L128.05,-41.99L128.21,-41.47L127.34,-41.50L126.87,-41.82L126.18,-41.11L125.08,-40.57L124.27,-39.93L122.87,-39.64L122.13,-39.17L121.05,-38.90L121.59,-39.36L121.38,-39.75L122.17,-40.42L121.64,-40.95L120.77,-40.59L119.64,-39.90L119.02,-39.25L118.04,-39.20L117.53,-38.74L118.06,-38.06L118.88,-37.90L118.91,-37.45L119.70,-37.16L120.82,-37.87L121.71,-37.48L122.36,-37.45L122.52,-36.93L121.10,-36.65L120.64,-36.11L119.66,-35.61L119.15,-34.91L120.23,-34.36L120.62,-33.38L121.23,-32.46L121.91,-31.69L121.89,-30.95L121.26,-30.68L121.50,-30.14L122.09,-29.83L121.94,-29.02L121.68,-28.23L121.13,-28.14L120.40,-27.05L119.59,-25.74L118.66,-24.55L117.28,-23.62L115.89,-22.78L114.76,-22.67L114.15,-22.22L113.81,-22.55L113.24,-22.05L111.84,-21.55L110.79,-21.40L110.44,-20.34L109.89,-20.28L109.63,-21.01L109.86,-21.40L108.52,-21.72L108.05,-21.55L107.04,-21.81L106.57,-22.22L106.73,-22.79L105.81,-22.98L105.33,-23.35L104.48,-22.82L103.50,-22.70L102.71,-22.71L102.17,-22.46L101.65,-22.32L101.80,-21.17L101.27,-21.20L101.18,-21.44L101.15,-21.85L100.42,-21.56L99.98,-21.74L99.24,-22.12L99.53,-22.95L98.90,-23.14L98.66,-24.06L97.60,-23.90L97.72,-25.08L98.67,-25.92L98.71,-26.74L98.68,-27.51L98.25,-27.75L97.91,-28.34L97.33,-28.26L96.25,-28.41L96.59,-28.83L96.12,-29.45L95.40,-29.03L94.57,-29.28L93.41,-28.64L92.50,-27.90L91.70,-27.77L91.26,-28.04L90.73,-28.06L90.02,-28.30L89.48,-28.04L88.81,-27.30L88.73,-28.09L88.12,-27.88L86.95,-27.97L85.82,-28.20L85.01,-28.64L84.23,-28.84L83.90,-29.32L83.34,-29.46L82.33,-30.12L81.53,-30.42L81.11,-30.18L79.72,-30.88L78.74,-31.52L78.46,-32.62L79.18,-32.48L79.21,-32.99L78.81,-33.51L78.91,-34.32L77.84,-35.49L76.19,-35.90L75.90,-36.67L75.16,-37.13L74.98,-37.42L74.83,-37.99L74.86,-38.38L74.26,-38.61L73.93,-38.51L73.68,-39.43L73.96,-39.66L73.82,-39.89L74.78,-40.37L75.47,-40.56L76.53,-40.43L76.90,-41.07L78.19,-41.19L78.54,-41.58L80.12,-42.12L80.26,-42.35Z" fill="#00e5ff" stroke="#00e5ff" stroke-width="0.5" fill-opacity="0.8"/>
</svg>