<svg xmlns="http://www.w3.org/2000/svg" viewBox="-80.99 -14.44 16.11 20.74" width="300" height="300" preserveAspectRatio="xMidYMid meet">
  <path d="M-66.88,-1.25L-67.07,-1.13L-67.26,-1.72L-67.54,-2.04L-67.87,-1.69L-69.82,-1.71L-69.80,-1.09L-69.22,-0.99L-69.25,-0.60L-69.45,-0.71L-70.02,-0.54L-70.02,0.19L-69.58,0.55L-69.42,1.12L-69.44,1.56L-69.89,4.30L-70.39,3.77L-70.69,3.74L-70.05,2.73L-70.81,2.26L-71.41,2.34L-71.77,2.17L-72.33,2.43L-73.07,2.31L-73.66,1.26L-74.12,1.00L-74.44,0.53L-75.11,0.06L-75.37,0.15L-75.80,-0.08L-76.29,-0.42L-76.58,-0.26L-77.42,-0.40L-77.67,-0.83L-77.86,-0.81L-78.86,-1.38L-78.99,-1.69L-78.62,-1.77L-78.66,-2.27L-78.43,-2.63L-77.93,-2.70L-77.51,-3.33L-77.13,-3.85L-77.50,-4.09L-77.31,-4.67L-77.53,-5.58L-77.32,-5.85L-77.48,-6.69L-77.88,-7.22L-77.75,-7.71L-77.43,-7.64L-77.24,-7.94L-77.47,-8.52L-77.35,-8.67L-76.84,-8.64L-76.09,-9.34L-75.67,-9.44L-75.66,-9.77L-75.48,-10.62L-74.91,-11.08L-74.28,-11.10L-74.20,-11.31L-73.41,-11.23L-72.63,-11.73L-72.24,-11.96L-71.75,-12.44L-71.40,-12.38L-71.14,-12.11L-71.33,-11.78L-71.97,-11.61L-72.23,-11.11L-72.61,-10.82L-72.91,-10.45L-73.03,-9.74L-73.30,-9.15L-72.79,-9.09L-72.66,-8.63L-72.44,-8.41L-72.36,-8.00L-72.48,-7.63L-72.44,-7.42L-72.20,-7.34L-71.96,-6.99L-70.67,-7.09L-70.09,-6.96L-69.39,-6.10L-68.99,-6.21L-68.27,-6.15L-67.70,-6.27L-67.34,-6.10L-67.52,-5.56L-67.74,-5.22L-67.82,-4.50L-67.62,-3.84L-67.34,-3.54L-67.30,-3.32L-67.81,-2.82L-67.45,-2.60L-67.18,-2.25L-66.88,-1.25Z" fill="#00e5ff" stroke="#00e5ff" stroke-width="0.5" fill-opacity="0.8"/>
</svg>