<svg xmlns="http://www.w3.org/2000/svg" viewBox="-87.94 -13.22 7.39 6.99" width="300" height="300" preserveAspectRatio="xMidYMid meet">
  <path d="M-82.55,-9.57L-82.93,-9.48L-82.93,-9.07L-82.72,-8.93L-82.87,-8.81L-82.83,-8.63L-82.91,-8.42L-82.97,-8.23L-83.51,-8.45L-83.71,-8.66L-83.60,-8.83L-83.63,-9.05L-83.91,-9.29L-84.30,-9.49L-84.65,-9.62L-84.71,-9.91L-84.98,-10.09L-84.91,-9.80L-85.11,-9.56L-85.34,-9.83L-85.66,-9.93L-85.80,-10.13L-85.79,-10.44L-85.66,-10.75L-85.94,-10.90L-85.71,-11.09L-85.56,-11.22L-84.90,-10.95L-84.67,-11.08L-84.36,-11.00L-84.19,-10.79L-83.90,-10.73L-83.66,-10.94L-83.40,-10.40L-83.02,-9.99L-82.55,-9.57Z" fill="#00e5ff" stroke="#00e5ff" stroke-width="0.5" fill-opacity="0.8"/>
</svg>