<svg xmlns="http://www.w3.org/2000/svg" viewBox="11.66 -48.50 9.73 8.02" width="300" height="300" preserveAspectRatio="xMidYMid meet">
  <path d="M16.56,-46.50L16.88,-46.38L17.63,-45.95L18.46,-45.76L18.83,-45.91L19.07,-45.52L19.39,-45.24L19.01,-44.86L18.55,-45.08L17.86,-45.07L17.00,-45.23L16.53,-45.21L16.32,-45.00L15.96,-45.23L15.75,-44.82L16.24,-44.35L16.46,-44.04L16.92,-43.67L17.30,-43.45L17.67,-43.03L18.56,-42.65L18.45,-42.48L18.45,-42.48L17.51,-42.85L16.93,-43.21L16.02,-43.51L15.17,-44.24L15.38,-44.32L14.92,-44.74L14.90,-45.08L14.26,-45.23L13.95,-44.80L13.66,-45.14L13.68,-45.48L13.72,-45.50L14.41,-45.47L14.60,-45.63L14.94,-45.47L15.33,-45.45L15.32,-45.73L15.67,-45.83L15.77,-46.24L16.56,-46.50Z" fill="#00e5ff" stroke="#00e5ff" stroke-width="0.5" fill-opacity="0.8"/>
</svg>