<svg xmlns="http://www.w3.org/2000/svg" viewBox="-86.97 -25.19 14.79 7.33" width="300" height="300" preserveAspectRatio="xMidYMid meet">
  <path d="M-82.27,-23.19L-81.40,-23.12L-80.62,-23.11L-79.68,-22.77L-79.28,-22.40L-78.35,-22.51L-77.99,-22.28L-77.15,-21.66L-76.52,-21.21L-76.19,-21.22L-75.60,-21.02L-75.67,-20.74L-74.93,-20.69L-74.18,-20.28L-74.30,-20.05L-74.96,-19.92L-75.63,-19.87L-76.32,-19.95L-77.76,-19.86L-77.09,-20.41L-77.49,-20.67L-78.14,-20.74L-78.48,-21.03L-78.72,-21.60L-79.28,-21.56L-80.22,-21.83L-80.52,-22.04L-81.82,-22.19L-82.17,-22.39L-81.80,-22.64L-82.78,-22.69L-83.49,-22.17L-83.91,-22.15L-84.05,-21.91L-84.55,-21.80L-84.97,-21.90L-84.45,-22.20L-84.23,-22.57L-83.78,-22.79L-83.27,-22.98L-82.51,-23.08L-82.27,-23.19Z" fill="#00e5ff" stroke="#00e5ff" stroke-width="0.5" fill-opacity="0.8"/>
</svg>