<svg xmlns="http://www.w3.org/2000/svg" viewBox="10.24 -53.12 10.61 6.56" width="300" height="300" preserveAspectRatio="xMidYMid meet">
  <path d="M15.02,-51.11L15.49,-50.78L16.24,-50.70L16.18,-50.42L16.72,-50.22L16.87,-50.47L17.55,-50.36L17.65,-50.05L18.39,-49.99L18.85,-49.50L18.55,-49.50L18.40,-49.32L18.17,-49.27L18.10,-49.04L17.91,-49.00L17.89,-48.90L17.55,-48.80L17.10,-48.82L16.96,-48.60L16.50,-48.79L16.03,-48.73L15.25,-49.04L14.90,-48.96L14.34,-48.56L13.60,-48.88L13.03,-49.31L12.52,-49.55L12.42,-49.97L12.24,-50.27L12.97,-50.48L13.34,-50.73L14.06,-50.93L14.31,-51.12L14.57,-51.00L15.02,-51.11Z" fill="#00e5ff" stroke="#00e5ff" stroke-width="0.5" fill-opacity="0.8"/>
</svg>