<svg xmlns="http://www.w3.org/2000/svg" viewBox="10.18 -7.26 22.99 22.52" width="300" height="300" preserveAspectRatio="xMidYMid meet">
  <path d="M29.34,4.50L29.52,5.42L29.42,5.94L29.62,6.52L30.20,7.08L30.74,8.34L30.74,8.34L30.35,8.24L29.00,8.41L28.73,8.53L28.45,9.16L28.67,9.61L28.50,10.79L28.37,11.79L28.64,11.97L29.34,12.36L29.62,12.18L29.70,13.26L28.93,13.25L28.52,12.70L28.16,12.27L27.39,12.13L27.16,11.61L26.55,11.92L25.75,11.78L25.42,11.33L24.78,11.24L24.31,11.26L24.26,10.95L23.91,10.93L23.46,10.87L22.84,11.02L22.40,10.99L22.16,11.08L22.21,9.89L21.88,9.52L21.80,8.91L21.95,8.31L21.75,7.92L21.73,7.29L20.51,7.30L20.60,6.94L20.09,6.94L20.04,7.12L19.42,7.16L19.17,7.74L19.02,7.99L18.46,7.85L18.13,7.99L17.47,8.07L17.09,7.55L16.86,7.22L16.57,6.62L16.33,5.88L13.38,5.86L13.02,5.98L12.74,5.97L12.32,6.10L12.18,5.79L12.44,5.68L12.47,5.25L12.63,4.99L13.00,4.78L13.26,4.88L13.60,4.50L14.14,4.51L14.21,4.79L14.58,4.97L15.17,4.34L15.75,3.86L16.01,3.54L15.97,2.71L16.41,1.74L16.87,1.23L17.52,0.74L17.64,0.42L17.66,0.06L17.83,-0.29L17.77,-0.86L17.90,-1.74L18.09,-2.37L18.39,-2.90L18.45,-3.50L18.54,-4.20L18.93,-4.71L19.47,-5.03L20.29,-4.69L20.93,-4.32L21.66,-4.22L22.41,-4.03L22.70,-4.63L22.84,-4.71L23.30,-4.61L24.41,-5.11L24.81,-4.90L25.13,-4.93L25.28,-5.17L25.65,-5.26L26.40,-5.15L27.04,-5.13L27.37,-5.23L27.98,-4.41L28.43,-4.29L28.70,-4.46L29.16,-4.39L29.72,-4.60L29.95,-4.17L30.83,-3.51L30.83,-3.51L30.77,-2.34L31.17,-2.20L30.85,-1.85L30.47,-1.58L30.09,-1.06L29.88,-0.60L29.82,0.21L29.59,0.59L29.58,1.34L29.29,1.62L29.25,2.22L29.12,2.29L29.02,2.84L29.28,3.29L29.34,4.50Z" fill="#00e5ff" stroke="#00e5ff" stroke-width="0.5" fill-opacity="0.8"/>
</svg>