<svg xmlns="http://www.w3.org/2000/svg" viewBox="-75.30 -85.65 65.09 27.61" width="300" height="300" preserveAspectRatio="xMidYMid meet">
  <path d="M-46.76,-82.63L-43.41,-83.23L-39.90,-83.18L-38.62,-83.55L-35.09,-83.65L-27.10,-83.52L-20.85,-82.73L-22.69,-82.34L-26.52,-82.30L-31.90,-82.20L-31.40,-82.02L-27.86,-82.13L-24.84,-81.79L-22.90,-82.09L-22.07,-81.73L-23.17,-81.15L-20.62,-81.52L-15.77,-81.91L-12.77,-81.72L-12.21,-81.29L-16.29,-80.58L-16.85,-80.35L-20.05,-80.18L-17.73,-80.13L-18.90,-79.40L-19.70,-78.75L-19.67,-77.64L-18.47,-76.99L-20.04,-76.94L-21.68,-76.63L-19.83,-76.10L-19.60,-75.25L-20.67,-75.16L-19.37,-74.30L-21.59,-74.22L-20.43,-73.82L-20.76,-73.46L-22.17,-73.31L-23.57,-73.31L-22.31,-72.63L-22.30,-72.18L-24.28,-72.60L-24.79,-72.33L-23.44,-72.08L-22.13,-71.47L-21.75,-70.66L-23.54,-70.47L-24.31,-70.86L-25.54,-71.43L-25.20,-70.75L-26.36,-70.23L-23.73,-70.18L-22.35,-70.13L-25.03,-69.26L-27.75,-68.47L-30.67,-68.13L-31.78,-68.12L-32.81,-67.74L-34.20,-66.68L-36.35,-65.98L-37.04,-65.94L-38.38,-65.69L-39.81,-65.46L-40.67,-64.84L-40.68,-64.14L-41.19,-63.48L-42.82,-62.68L-42.42,-61.90L-42.87,-61.07L-43.38,-60.10L-44.79,-60.04L-46.26,-60.85L-48.26,-60.86L-49.23,-61.41L-49.90,-62.38L-51.63,-63.63L-52.14,-64.28L-52.28,-65.18L-53.66,-66.10L-53.30,-66.84L-53.97,-67.19L-52.98,-68.36L-51.48,-68.73L-51.08,-69.15L-50.87,-69.93L-52.01,-69.57L-52.56,-69.43L-53.46,-69.28L-54.68,-69.61L-54.75,-70.29L-54.36,-70.82L-53.43,-70.84L-51.39,-70.57L-53.11,-71.20L-54.00,-71.55L-55.00,-71.41L-55.83,-71.65L-54.72,-72.59L-55.33,-72.96L-56.12,-73.65L-57.32,-74.71L-58.60,-75.10L-58.59,-75.52L-61.27,-76.10L-63.39,-76.18L-66.06,-76.13L-68.50,-76.06L-69.66,-76.38L-71.40,-77.01L-68.78,-77.32L-66.76,-77.38L-71.04,-77.64L-73.30,-78.04L-73.16,-78.43L-69.37,-78.91L-65.71,-79.39L-65.32,-79.76L-68.02,-80.12L-67.15,-80.52L-63.69,-81.21L-62.23,-81.32L-62.65,-81.77L-60.28,-82.03L-57.21,-82.19L-54.13,-82.20L-53.04,-81.89L-50.39,-82.44L-48.00,-82.06L-46.60,-81.99L-44.52,-81.66L-46.90,-82.20L-46.76,-82.63Z" fill="#00e5ff" stroke="#00e5ff" stroke-width="0.5" fill-opacity="0.8"/>
</svg>