<svg xmlns="http://www.w3.org/2000/svg" viewBox="-82.97 -3.38 9.74 10.34" width="300" height="300" preserveAspectRatio="xMidYMid meet">
  <path d="M-75.37,0.15L-75.23,0.91L-75.54,1.56L-76.64,2.61L-77.84,3.00L-78.45,3.87L-78.64,4.55L-79.21,4.96L-79.62,4.45L-80.03,4.35L-80.44,4.43L-80.47,4.06L-80.18,3.82L-80.30,3.40L-79.77,2.66L-79.99,2.22L-80.37,2.69L-80.97,2.25L-80.76,1.97L-80.93,1.06L-80.58,0.91L-80.40,0.28L-80.02,-0.36L-80.09,-0.77L-79.54,-0.98L-78.86,-1.38L-77.86,-0.81L-77.67,-0.83L-77.42,-0.40L-76.58,-0.26L-76.29,-0.42L-75.80,-0.08L-75.37,0.15Z" fill="#00e5ff" stroke="#00e5ff" stroke-width="0.5" fill-opacity="0.8"/>
</svg>