<svg xmlns="http://www.w3.org/2000/svg" viewBox="22.70 -33.59 16.17 13.59" width="300" height="300" preserveAspectRatio="xMidYMid meet">
  <path d="M36.87,-22.00L32.90,-22.00L29.02,-22.00L25.00,-22.00L25.00,-25.68L25.00,-29.24L24.70,-30.04L24.96,-30.66L24.80,-31.09L25.16,-31.57L26.50,-31.59L27.46,-31.32L28.45,-31.03L28.91,-30.87L29.68,-31.19L30.10,-31.47L30.98,-31.56L31.69,-31.43L31.96,-30.93L32.19,-31.26L32.99,-31.02L33.77,-30.97L34.27,-31.22L34.27,-31.22L34.82,-29.76L34.92,-29.50L34.64,-29.10L34.43,-28.34L34.15,-27.82L33.92,-27.65L33.59,-27.97L33.14,-28.42L32.42,-29.85L32.32,-29.76L32.73,-28.71L33.35,-27.70L34.10,-26.14L34.47,-25.60L34.80,-25.03L35.69,-23.93L35.49,-23.75L35.53,-23.10L36.69,-22.20L36.87,-22.00Z" fill="#00e5ff" stroke="#00e5ff" stroke-width="0.5" fill-opacity="0.8"/>
</svg>