<svg xmlns="http://www.w3.org/2000/svg" viewBox="30.95 -16.96 18.84 15.54" width="300" height="300" preserveAspectRatio="xMidYMid meet">
  <path d="M47.79,-8.00L44.96,-5.00L43.66,-4.96L42.77,-4.25L42.13,-4.23L41.86,-3.92L41.17,-3.92L40.77,-4.26L39.85,-3.84L39.56,-3.42L38.89,-3.50L38.67,-3.62L38.44,-3.59L38.12,-3.60L36.86,-4.45L36.16,-4.45L35.82,-4.78L35.82,-5.34L35.30,-5.51L34.71,-6.59L34.25,-6.83L34.08,-7.23L33.57,-7.71L32.95,-7.78L33.29,-8.35L33.83,-8.38L33.97,-8.68L33.96,-9.58L34.26,-10.63L34.73,-10.91L34.83,-11.32L35.26,-12.08L35.86,-12.58L36.27,-13.56L36.43,-14.42L37.59,-14.21L37.91,-14.96L38.51,-14.51L39.10,-14.74L39.34,-14.53L40.03,-14.52L40.90,-14.12L41.16,-13.77L41.60,-13.45L42.01,-12.87L42.35,-12.54L42.00,-12.10L41.66,-11.63L41.74,-11.36L41.76,-11.05L42.31,-11.03L42.55,-11.11L42.78,-10.93L42.56,-10.57L42.93,-10.02L43.30,-9.54L43.68,-9.18L46.95,-8.00L47.79,-8.00Z" fill="#00e5ff" stroke="#00e5ff" stroke-width="0.5" fill-opacity="0.8"/>
</svg>