<svg xmlns="http://www.w3.org/2000/svg" viewBox="-432.0 1.2 864.0 32.4" width="400" height="300" preserveAspectRatio="xMidYMid meet">
  <rect x="-432.0" y="1.2" width="864.0" height="32.4" fill="#0e0e18"/>
  <path d="M33.9,1.0L34.1,1.1L37.7,3.1L37.8,3.7L39.2,4.7L38.7,5.9L38.8,6.5L39.4,6.9L39.5,7.1L39.2,7.7L39.3,8.0L39.2,8.5L39.5,9.2L39.9,10.2L40.3,10.4L40.3,10.4L39.5,11.0L38.4,11.4L37.8,11.3L37.5,11.6L36.8,11.7L36.5,11.8L35.3,11.5L34.6,11.6L34.3,10.2L33.9,9.7L33.7,9.5L32.8,9.3L32.2,9.0L31.6,8.8L31.2,8.6L30.7,8.4L30.7,8.4L30.2,7.1L29.6,6.5L29.4,6.0L29.5,5.4L29.3,4.5L29.8,4.5L30.1,4.1L30.5,3.6L30.8,3.4L30.7,3.0L30.5,2.8L30.5,2.4L30.5,2.4L30.8,2.3L30.8,1.7L30.4,1.1L30.8,1.0L31.9,1.0L33.9,1.0Z" fill="#1e1e2e" stroke="#2a2a3a" stroke-width="0.3"/>
  <path d="M141.0,2.6L142.7,3.3L144.6,3.9L145.3,4.4L145.8,4.9L146.0,5.5L147.6,6.1L147.9,6.6L147.0,6.7L147.2,7.4L148.1,8.1L148.7,9.1L149.3,9.1L149.3,9.6L150.0,9.7L149.7,9.9L150.8,10.3L150.7,10.6L150.0,10.7L149.8,10.5L148.9,10.3L147.9,10.2L147.1,9.5L146.6,9.0L146.0,8.1L144.7,7.7L143.9,7.9L143.3,8.3L143.4,9.0L142.6,9.4L142.1,9.2L141.0,9.2L141.0,5.9L141.0,2.6ZM152.6,3.7L153.0,4.0L153.1,4.5L152.8,4.8L152.6,4.2L152.4,3.8L152.0,3.5L151.4,3.0L150.7,2.7L150.9,2.5L151.5,2.8L151.8,3.0L152.2,3.2L152.6,3.7ZM151.3,5.9L150.8,6.1L150.2,6.3L149.7,6.3L148.9,6.0L148.3,5.8L148.4,5.4L149.3,5.6L149.8,5.5L150.0,5.0L150.1,5.0L150.2,5.5L150.8,5.5L151.1,5.1L151.6,4.8L151.5,4.2L152.1,4.2L152.3,4.3L152.3,4.9L152.0,5.5L151.5,5.6L151.3,5.9ZM154.8,5.3L155.1,5.6L155.5,6.2L156.0,6.6L155.9,6.8L155.6,6.9L155.2,6.6L154.7,5.9L154.5,5.1L154.7,5.0L154.8,5.3Z" fill="#1e1e2e" stroke="#2a2a3a" stroke-width="0.3"/>
  <path d="M141.0,2.6L141.0,5.9L141.0,9.2L140.1,8.3L139.1,8.1L138.9,8.4L137.6,8.4L138.0,7.6L138.7,7.3L138.4,6.2L137.9,5.4L136.0,4.6L135.2,4.5L133.7,3.5L133.4,4.0L133.0,4.1L132.8,3.7L132.8,3.3L132.0,2.8L133.1,2.5L133.8,2.5L133.7,2.2L132.2,2.2L131.8,1.6L130.9,1.4L130.5,0.9L131.9,0.7L132.4,0.4L134.0,0.8L134.1,1.2L134.4,2.8L135.5,3.4L136.3,2.3L137.4,1.7L138.3,1.7L139.2,2.1L139.9,2.4L141.0,2.6ZM125.0,8.9L125.1,9.1L125.1,9.4L124.4,10.2L123.6,10.4L123.5,10.3L123.6,9.9L124.0,9.3L125.0,8.9ZM134.2,6.9L134.1,6.2L134.3,5.8L134.5,5.5L134.7,5.7L134.7,6.2L134.2,6.9ZM117.9,-4.1L117.3,-3.2L118.0,-2.3L117.9,-1.8L119.0,-0.9L117.8,-0.8L117.5,-0.1L117.5,0.8L116.6,1.5L116.5,2.5L116.1,4.0L116.0,3.7L114.9,4.1L114.5,3.5L113.8,3.4L113.3,3.1L112.1,3.5L111.7,3.0L111.0,3.1L110.2,2.9L110.1,1.6L109.6,1.3L109.1,0.5L109.0,-0.4L109.1,-1.3L109.7,-2.0L109.8,-1.3L110.5,-0.8L111.2,-1.0L111.8,-0.9L112.4,-1.4L112.9,-1.5L113.8,-1.2L114.6,-1.4L115.1,-2.8L115.5,-3.2L115.9,-4.3L117.0,-4.3L117.9,-4.1ZM129.4,2.8L130.5,3.1L130.8,3.9L130.0,3.4L129.2,3.4L128.6,3.4L127.9,3.4L128.1,2.8L129.4,2.8ZM126.9,3.8L126.2,3.6L126.0,3.2L127.0,3.1L127.2,3.5L126.9,3.8ZM127.9,-2.2L128.0,-1.6L128.6,-1.5L128.7,-1.1L128.6,-0.3L128.1,-0.4L128.0,0.3L128.4,0.8L128.1,0.9L127.7,0.3L127.4,-1.0L127.6,-1.8L127.9,-2.2ZM122.9,-0.9L124.1,-0.9L125.1,-1.6L125.2,-1.4L124.4,-0.4L123.7,-0.2L122.7,-0.4L121.1,-0.4L120.2,-0.2L120.0,0.5L120.9,1.4L121.5,1.0L123.3,0.6L123.3,1.1L122.8,0.9L122.4,1.5L121.5,1.9L122.5,3.2L122.3,3.5L123.2,4.7L123.2,5.3L122.6,5.6L122.2,5.3L122.7,4.5L121.7,4.9L121.5,4.6L121.6,4.2L120.9,3.6L121.0,2.6L120.3,2.9L120.4,4.1L120.4,5.5L119.8,5.7L119.4,5.4L119.7,4.5L119.5,3.5L119.1,3.5L118.8,2.8L119.2,2.1L119.3,1.4L119.8,-0.2L120.0,-0.6L120.9,-1.3L121.7,-1.0L122.9,-0.9ZM120.3,10.3L119.0,9.6L119.9,9.4L120.4,9.7L120.8,10.0L120.7,10.3L120.3,10.3ZM121.3,8.6L122.0,8.5L122.9,8.1L122.8,8.7L121.3,9.0L119.9,8.8L119.9,8.5L120.7,8.3L121.3,8.6ZM118.3,8.4L118.9,8.3L119.1,8.7L118.0,8.9L117.3,9.1L116.7,9.1L117.1,8.5L117.6,8.5L117.9,8.1L118.3,8.4ZM108.5,6.4L108.6,6.8L110.5,6.9L110.8,6.5L112.6,7.0L113.0,7.6L114.5,7.8L115.7,8.4L114.6,8.8L113.5,8.4L112.6,8.4L111.5,8.3L110.6,8.1L109.4,7.8L108.7,7.7L108.3,7.8L106.5,7.4L106.3,6.9L105.4,6.9L106.1,5.9L107.3,6.0L108.1,6.4L108.5,6.4ZM104.4,1.1L104.5,1.8L104.9,2.3L105.6,2.4L106.1,3.1L105.9,4.3L105.8,5.9L104.7,5.9L103.9,5.0L102.6,4.2L102.2,3.6L101.4,2.8L100.9,2.1L100.1,0.7L99.3,-0.2L99.0,-1.0L98.6,-1.8L97.7,-2.5L97.2,-3.3L96.4,-3.9L95.4,-5.0L95.3,-5.5L95.9,-5.4L97.5,-5.3L98.4,-4.3L99.1,-3.6L99.7,-3.2L100.6,-2.1L101.7,-2.1L102.5,-1.4L103.1,-0.6L103.8,-0.1L103.4,0.7L104.0,1.1L104.4,1.1Z" fill="#1e1e2e" stroke="#2a2a3a" stroke-width="0.3"/>
  <path d="M-68.6,62.1L-68.3,62.9L-67.8,64.2L-66.5,65.2L-65.0,65.6L-65.5,66.5L-66.5,66.6L-67.0,66.0L-67.6,65.9L-68.6,65.9L-68.6,62.1ZM-57.6,31.7L-57.9,32.7L-58.1,33.9L-58.1,35.0L-58.3,35.3L-58.4,36.1L-58.5,36.7L-57.2,37.8L-57.4,38.6L-56.7,39.1L-56.8,39.8L-57.7,41.4L-59.2,42.1L-61.2,42.3L-62.3,42.2L-62.1,43.0L-62.3,43.9L-62.1,44.6L-62.7,45.1L-63.8,45.2L-64.7,44.8L-65.1,45.1L-65.0,46.4L-64.3,46.8L-63.8,46.4L-63.5,47.1L-64.4,47.5L-65.2,48.4L-65.3,49.8L-65.6,50.6L-66.5,50.6L-67.3,51.3L-67.6,52.4L-66.6,53.4L-65.6,53.7L-66.0,55.1L-67.2,55.9L-67.8,57.7L-68.7,58.3L-69.1,59.1L-68.8,60.7L-68.1,61.7L-68.6,61.6L-69.5,61.3L-71.9,61.1L-72.3,60.2L-72.3,59.0L-73.0,59.1L-73.3,58.5L-73.4,56.9L-72.6,56.2L-72.3,55.2L-72.4,54.5L-71.9,53.2L-71.6,51.3L-71.7,50.5L-71.2,50.2L-71.3,49.7L-71.8,49.4L-71.5,48.8L-71.9,48.3L-72.1,46.7L-71.7,46.4L-71.9,44.8L-71.7,43.5L-71.4,42.3L-70.8,41.8L-71.1,40.6L-71.1,39.5L-70.4,38.6L-70.4,37.6L-69.8,36.4L-69.8,35.3L-70.1,35.1L-70.5,33.1L-69.9,31.9L-70.0,30.7L-69.7,29.7L-69.0,28.6L-68.3,27.9L-68.6,27.5L-68.4,27.1L-68.4,25.3L-67.3,24.8L-67.0,23.6L-67.1,23.4L-66.3,22.4L-65.0,22.6L-64.4,23.4L-64.0,22.6L-62.8,22.6L-62.7,22.8L-60.8,24.6L-60.0,24.8L-58.8,25.6L-57.8,26.0L-57.6,26.5L-58.6,28.2L-57.6,28.5L-56.5,28.7L-55.7,28.5L-54.8,27.6L-54.6,26.7L-54.1,26.4L-53.6,27.1L-53.6,28.0L-54.5,28.6L-55.2,29.1L-56.3,30.2L-57.6,31.7Z" fill="#1e1e2e" stroke="#2a2a3a" stroke-width="0.3"/>
  <path d="M-68.6,62.1L-68.6,65.9L-67.6,65.9L-67.0,66.0L-67.3,66.7L-68.1,67.2L-68.6,67.2L-69.2,67.0L-70.0,66.5L-71.0,66.2L-72.3,65.3L-73.3,64.3L-74.7,62.5L-73.8,62.8L-72.4,63.9L-71.1,64.5L-70.6,63.8L-70.3,62.6L-69.3,61.9L-68.6,62.1ZM-69.6,17.9L-69.1,18.6L-69.0,19.3L-68.4,19.8L-68.8,20.8L-68.2,22.0L-67.8,23.5L-67.1,23.4L-67.0,23.6L-67.3,24.8L-68.4,25.3L-68.4,27.1L-68.6,27.5L-68.3,27.9L-69.0,28.6L-69.7,29.7L-70.0,30.7L-69.9,31.9L-70.5,33.1L-70.1,35.1L-69.8,35.3L-69.8,36.4L-70.4,37.6L-70.4,38.6L-71.1,39.5L-71.1,40.6L-70.8,41.8L-71.4,42.3L-71.7,43.5L-71.9,44.8L-71.7,46.4L-72.1,46.7L-71.9,48.3L-71.5,48.8L-71.8,49.4L-71.3,49.7L-71.2,50.2L-71.7,50.5L-71.6,51.3L-71.9,53.2L-72.4,54.5L-72.3,55.2L-72.6,56.2L-73.4,56.9L-73.3,58.5L-73.0,59.1L-72.3,59.0L-72.3,60.2L-71.9,61.1L-69.5,61.3L-68.6,61.6L-69.5,61.6L-69.9,62.0L-70.8,62.6L-71.0,64.1L-71.4,64.2L-72.6,63.6L-73.7,62.5L-73.7,62.5L-74.9,61.5L-75.3,60.5L-75.0,59.5L-75.5,58.5L-75.6,55.9L-75.2,54.4L-74.1,53.3L-75.6,52.9L-74.7,51.6L-74.4,49.2L-73.2,49.7L-72.7,46.9L-73.4,46.5L-73.7,48.2L-74.3,48.0L-74.0,46.1L-73.7,43.6L-73.2,42.7L-73.5,41.5L-73.6,40.1L-73.2,40.0L-72.6,38.0L-71.9,36.1L-71.4,34.3L-71.7,32.5L-71.4,31.6L-71.5,30.2L-70.9,28.8L-70.7,26.6L-70.4,24.3L-70.1,21.9L-70.2,20.2L-70.4,18.7L-69.9,18.4L-69.6,17.9Z" fill="#1e1e2e" stroke="#2a2a3a" stroke-width="0.3"/>
  <path d="M29.3,4.5L29.5,5.4L29.4,6.0L29.6,6.5L30.2,7.1L30.7,8.4L30.7,8.4L30.3,8.3L29.0,8.4L28.7,8.6L28.4,9.2L28.7,9.7L28.5,10.9L28.4,11.9L28.6,12.1L29.3,12.5L29.6,12.3L29.7,13.4L28.9,13.4L28.5,12.8L28.2,12.4L27.4,12.2L27.2,11.7L26.6,12.0L25.8,11.9L25.4,11.4L24.8,11.3L24.3,11.3L24.3,11.0L23.9,11.0L23.5,10.9L22.8,11.1L22.4,11.1L22.2,11.2L22.2,9.9L21.9,9.6L21.8,8.9L21.9,8.3L21.7,7.9L21.7,7.3L20.5,7.3L20.6,7.0L20.1,7.0L20.0,7.1L19.4,7.2L19.2,7.8L19.0,8.0L18.5,7.9L18.1,8.0L17.5,8.1L17.1,7.6L16.9,7.2L16.6,6.6L16.3,5.9L13.4,5.9L13.0,6.0L12.7,6.0L12.3,6.1L12.2,5.8L12.4,5.7L12.5,5.3L12.6,5.0L13.0,4.8L13.3,4.9L13.6,4.5L14.1,4.5L14.2,4.8L14.6,5.0L15.2,4.3L15.8,3.9L16.0,3.5L16.0,2.7L16.4,1.7L16.9,1.2L17.5,0.7L17.6,0.4L17.7,0.1L17.8,-0.3L17.8,-0.9L17.9,-1.7L18.1,-2.4L18.4,-2.9L18.5,-3.5L18.5,-4.2L18.9,-4.7L19.5,-5.0L20.3,-4.7L20.9,-4.3L21.7,-4.2L22.4,-4.0L22.7,-4.6L22.8,-4.7L23.3,-4.6L24.4,-5.1L24.8,-4.9L25.1,-4.9L25.3,-5.2L25.7,-5.3L26.4,-5.2L27.0,-5.1L27.4,-5.2L28.0,-4.4L28.4,-4.3L28.7,-4.5L29.2,-4.4L29.7,-4.6L30.0,-4.2L30.8,-3.5L30.8,-3.5L30.8,-2.3L31.2,-2.2L30.9,-1.8L30.5,-1.6L30.1,-1.1L29.9,-0.6L29.8,0.2L29.6,0.6L29.6,1.3L29.3,1.6L29.3,2.2L29.1,2.3L29.0,2.8L29.3,3.3L29.3,4.5Z" fill="#1e1e2e" stroke="#2a2a3a" stroke-width="0.3"/>
  <path d="M41.6,1.7L41.0,0.9L41.0,-2.8L41.9,-3.9L42.1,-4.2L42.8,-4.3L43.7,-5.0L45.0,-5.0L47.8,-8.0L48.5,-8.9L48.9,-9.5L48.9,-10.0L48.9,-11.1L48.9,-11.5L48.9,-11.5L48.9,-11.5L49.3,-11.5L49.7,-11.7L50.3,-11.8L50.7,-12.1L51.1,-12.1L51.1,-11.8L51.0,-11.2L51.0,-10.7L50.8,-10.3L50.6,-9.2L50.1,-8.1L49.5,-6.8L48.6,-5.3L47.7,-4.2L46.6,-2.9L45.6,-2.0L44.1,-1.1L43.1,-0.3L42.0,0.9L41.8,1.4L41.6,1.7Z" fill="#1e1e2e" stroke="#2a2a3a" stroke-width="0.3"/>
  <path d="M39.2,4.7L37.8,3.7L37.7,3.1L34.1,1.1L33.9,1.0L33.9,-0.1L34.2,-0.5L34.7,-1.2L35.0,-1.9L34.6,-3.1L34.5,-3.6L34.0,-4.3L34.6,-4.9L35.3,-5.5L35.8,-5.3L35.8,-4.8L36.2,-4.5L36.9,-4.5L38.1,-3.6L38.4,-3.6L38.7,-3.6L38.9,-3.5L39.6,-3.4L39.9,-3.8L40.8,-4.3L41.2,-3.9L41.9,-3.9L41.0,-2.8L41.0,0.9L41.6,1.7L40.9,2.1L40.6,2.5L40.3,2.6L40.1,3.3L39.8,3.7L39.6,4.4L39.2,4.7Z" fill="#1e1e2e" stroke="#2a2a3a" stroke-width="0.3"/>
  <path d="M125.0,8.9L125.1,8.7L125.9,8.5L126.6,8.4L127.0,8.3L127.3,8.4L127.0,8.7L125.9,9.1L125.1,9.4L125.1,9.1L125.0,8.9Z" fill="#1e1e2e" stroke="#2a2a3a" stroke-width="0.3"/>
  <path d="M16.3,29.8L16.8,29.3L17.2,29.6L17.4,30.1L17.8,30.2L18.5,30.4L19.0,30.3L19.9,29.7L19.9,25.6L20.2,25.7L20.8,26.8L20.7,27.5L20.9,27.9L21.6,27.8L22.1,27.3L22.6,26.9L22.8,26.4L23.3,26.1L23.7,26.3L24.2,26.6L25.0,26.6L25.7,26.4L25.8,26.0L25.9,25.5L26.5,25.4L26.8,25.0L27.1,24.3L28.0,23.5L29.4,22.7L29.8,22.7L30.3,22.9L30.7,22.7L31.2,22.8L31.7,24.4L31.9,25.1L31.8,26.4L31.8,26.8L31.3,26.6L31.0,26.6L30.9,27.0L30.7,27.4L30.7,27.8L31.3,28.4L31.9,28.3L32.1,27.8L32.8,27.8L32.6,28.6L32.5,29.5L32.2,30.0L31.5,30.6L31.3,30.8L30.9,31.4L30.6,32.0L30.1,32.8L28.9,34.0L28.2,34.7L27.5,35.3L26.4,35.7L25.9,35.8L25.8,36.1L25.2,35.9L24.7,36.2L23.6,35.9L23.0,36.1L22.6,36.0L21.5,36.5L20.7,36.7L20.1,37.2L19.6,37.2L19.2,36.8L18.9,36.7L18.4,36.2L18.4,36.4L18.2,36.0L18.3,35.3L17.9,34.5L18.2,34.3L18.2,33.4L17.6,32.3L17.1,31.3L17.1,31.3L16.3,29.8ZM29.0,30.3L28.5,29.9L28.1,30.2L27.5,30.6L27.0,31.3L27.7,32.2L28.1,32.1L28.3,31.7L28.8,31.6L29.0,31.2L29.3,30.6L29.0,30.3Z" fill="#1e1e2e" stroke="#2a2a3a" stroke-width="0.3"/>
  <path d="M29.0,30.3L29.3,30.6L29.0,31.2L28.8,31.6L28.3,31.7L28.1,32.1L27.7,32.2L27.0,31.3L27.5,30.6L28.1,30.2L28.5,29.9L29.0,30.3Z" fill="#1e1e2e" stroke="#2a2a3a" stroke-width="0.3"/>
  <path d="M-57.6,31.7L-57.0,31.6L-56.0,32.5L-55.6,32.5L-54.6,33.2L-53.8,33.9L-53.2,34.7L-53.7,35.2L-53.4,35.9L-53.8,36.7L-54.9,37.3L-55.7,37.1L-56.2,37.2L-57.1,36.7L-57.8,36.8L-58.4,36.1L-58.3,35.3L-58.1,35.0L-58.1,33.9L-57.9,32.7L-57.6,31.7Z" fill="#1e1e2e" stroke="#2a2a3a" stroke-width="0.3"/>
  <path d="M-53.4,35.9L-53.7,35.2L-53.2,34.7L-53.8,33.9L-54.6,33.2L-55.6,32.5L-56.0,32.5L-57.0,31.6L-57.6,31.7L-56.3,30.2L-55.2,29.1L-54.5,28.6L-53.6,28.0L-53.6,27.1L-54.1,26.4L-54.6,26.7L-54.4,26.0L-54.3,25.4L-54.3,24.8L-54.7,24.6L-55.0,24.7L-55.4,24.7L-55.5,24.3L-55.6,23.3L-55.8,22.9L-56.5,22.7L-56.9,22.9L-57.9,22.7L-57.9,21.2L-58.2,20.6L-57.9,20.4L-57.9,19.8L-57.7,19.3L-57.5,18.5L-57.7,17.8L-58.3,17.5L-58.4,17.1L-58.2,16.5L-60.2,16.5L-60.5,15.3L-60.3,15.3L-60.3,14.8L-60.5,14.5L-60.5,13.9L-61.1,13.6L-61.7,13.6L-62.1,13.3L-62.8,13.1L-63.2,12.7L-64.3,12.6L-65.4,11.6L-65.3,11.0L-65.4,10.6L-65.3,9.8L-66.6,10.0L-67.2,10.4L-68.0,10.8L-68.3,11.1L-68.8,11.1L-69.5,11.0L-70.1,11.2L-70.5,11.1L-70.5,9.5L-71.3,10.1L-72.2,10.1L-72.6,9.6L-73.2,9.5L-73.0,9.1L-73.6,8.5L-74.0,7.5L-73.7,7.4L-73.7,6.9L-73.1,6.6L-73.2,6.1L-73.0,5.8L-72.9,5.3L-71.7,4.6L-70.9,4.4L-70.8,4.3L-69.9,4.3L-69.4,1.6L-69.4,1.1L-69.6,0.6L-70.0,0.2L-70.0,-0.5L-69.5,-0.7L-69.3,-0.6L-69.2,-1.0L-69.8,-1.1L-69.8,-1.7L-67.9,-1.7L-67.5,-2.0L-67.3,-1.7L-67.1,-1.1L-66.9,-1.3L-66.3,-0.7L-65.5,-0.8L-65.4,-1.1L-64.6,-1.3L-64.2,-1.5L-64.1,-1.9L-63.4,-2.2L-63.4,-2.4L-64.3,-2.5L-64.4,-3.1L-64.4,-3.8L-64.8,-4.1L-64.6,-4.2L-63.9,-4.0L-63.1,-3.8L-62.8,-4.0L-62.1,-4.2L-61.0,-4.5L-60.6,-4.9L-60.7,-5.2L-60.2,-5.3L-60.0,-5.0L-60.1,-4.6L-59.8,-4.4L-59.5,-4.0L-59.8,-3.6L-60.0,-2.8L-59.7,-2.3L-59.6,-1.8L-59.0,-1.3L-58.5,-1.3L-58.4,-1.5L-58.1,-1.5L-57.7,-1.7L-57.3,-1.9L-56.8,-1.9L-56.5,-1.9L-56.0,-1.8L-55.9,-2.0L-56.1,-2.2L-56.0,-2.5L-55.6,-2.4L-55.1,-2.5L-54.5,-2.3L-54.1,-2.1L-53.8,-2.4L-53.6,-2.3L-53.4,-2.1L-52.9,-2.1L-52.6,-2.5L-52.2,-3.2L-51.7,-4.2L-51.3,-4.2L-51.1,-3.7L-50.5,-1.9L-50.0,-1.7L-49.9,-1.0L-50.7,-0.2L-50.4,0.1L-48.6,0.2L-48.6,1.2L-47.8,0.6L-46.6,0.9L-44.9,1.6L-44.4,2.1L-44.6,2.7L-43.4,2.4L-41.5,2.9L-40.0,2.9L-38.5,3.7L-37.2,4.8L-36.5,5.1L-35.6,5.2L-35.2,5.5L-34.9,6.8L-34.7,7.4L-35.1,9.0L-35.6,9.7L-37.0,11.1L-37.7,12.3L-38.4,13.2L-38.7,13.2L-39.0,13.9L-38.9,15.9L-39.2,17.5L-39.3,18.2L-39.6,18.6L-39.8,20.0L-40.8,21.4L-40.9,22.5L-41.8,23.0L-42.0,23.6L-43.1,23.6L-44.6,24.0L-45.4,24.5L-46.5,24.8L-47.6,25.7L-48.5,26.8L-48.6,27.6L-48.5,28.3L-48.7,29.4L-48.9,30.0L-49.6,30.6L-50.7,32.6L-51.6,33.5L-52.3,34.1L-52.7,35.2L-53.4,35.9Z" fill="#1e1e2e" stroke="#2a2a3a" stroke-width="0.3"/>
  <path d="M-69.5,11.0L-68.8,11.1L-68.3,11.1L-68.0,10.8L-67.2,10.4L-66.6,10.0L-65.3,9.8L-65.4,10.6L-65.3,11.0L-65.4,11.6L-64.3,12.6L-63.2,12.7L-62.8,13.1L-62.1,13.3L-61.7,13.6L-61.1,13.6L-60.5,13.9L-60.5,14.5L-60.3,14.8L-60.3,15.3L-60.5,15.3L-60.2,16.5L-58.2,16.5L-58.4,17.1L-58.3,17.5L-57.7,17.8L-57.5,18.5L-57.7,19.3L-57.9,19.8L-57.9,20.4L-58.2,20.6L-58.2,20.3L-59.1,19.7L-60.0,19.7L-61.8,20.0L-62.3,21.0L-62.3,21.5L-62.7,22.8L-62.8,22.6L-64.0,22.6L-64.4,23.4L-65.0,22.6L-66.3,22.4L-67.1,23.4L-67.8,23.5L-68.2,22.0L-68.8,20.8L-68.4,19.8L-69.0,19.3L-69.1,18.6L-69.6,17.9L-69.0,16.7L-69.4,15.9L-69.2,15.5L-69.3,15.1L-68.9,14.6L-68.9,13.7L-68.9,13.0L-68.7,12.7L-69.5,11.0Z" fill="#1e1e2e" stroke="#2a2a3a" stroke-width="0.3"/>
  <path d="M-69.9,4.3L-70.8,4.3L-70.9,4.4L-71.7,4.6L-72.9,5.3L-73.0,5.8L-73.2,6.1L-73.1,6.6L-73.7,6.9L-73.7,7.4L-74.0,7.5L-73.6,8.5L-73.0,9.1L-73.2,9.5L-72.6,9.6L-72.2,10.1L-71.3,10.1L-70.5,9.5L-70.5,11.1L-70.1,11.2L-69.5,11.0L-68.7,12.7L-68.9,13.0L-68.9,13.7L-68.9,14.6L-69.3,15.1L-69.2,15.5L-69.4,15.9L-69.0,16.7L-69.6,17.9L-69.9,18.4L-70.4,18.7L-71.4,18.1L-71.5,17.6L-73.4,16.6L-75.2,15.4L-76.0,14.8L-76.4,14.0L-76.3,13.7L-77.1,12.3L-78.1,10.4L-79.0,8.4L-79.4,8.0L-79.8,7.2L-80.5,6.6L-81.2,6.1L-80.9,5.7L-81.4,4.7L-81.1,4.0L-80.3,3.4L-80.2,3.8L-80.5,4.1L-80.4,4.4L-80.0,4.4L-79.6,4.5L-79.2,5.0L-78.6,4.6L-78.5,3.9L-77.8,3.0L-76.6,2.6L-75.5,1.6L-75.2,0.9L-75.4,0.2L-75.1,0.1L-74.4,0.5L-74.1,1.0L-73.7,1.3L-73.1,2.3L-72.3,2.4L-71.8,2.2L-71.4,2.3L-70.8,2.3L-70.0,2.7L-70.7,3.7L-70.4,3.8L-69.9,4.3Z" fill="#1e1e2e" stroke="#2a2a3a" stroke-width="0.3"/>
  <path d="M-66.9,-1.3L-67.1,-1.1L-67.3,-1.7L-67.5,-2.0L-67.9,-1.7L-69.8,-1.7L-69.8,-1.1L-69.2,-1.0L-69.3,-0.6L-69.5,-0.7L-70.0,-0.5L-70.0,0.2L-69.6,0.6L-69.4,1.1L-69.4,1.6L-69.9,4.3L-70.4,3.8L-70.7,3.7L-70.0,2.7L-70.8,2.3L-71.4,2.3L-71.8,2.2L-72.3,2.4L-73.1,2.3L-73.7,1.3L-74.1,1.0L-74.4,0.5L-75.1,0.1L-75.4,0.2L-75.8,-0.1L-76.3,-0.4L-76.6,-0.3L-77.4,-0.4L-77.7,-0.8L-77.9,-0.8L-78.9,-1.4L-79.0,-1.7L-78.6,-1.8L-78.7,-2.3L-78.4,-2.6L-77.9,-2.7L-77.5,-3.3L-77.1,-3.9L-77.5,-4.1L-77.3,-4.7L-77.5,-5.6L-77.3,-5.9L-77.5,-6.7L-77.9,-7.2L-77.8,-7.7L-77.4,-7.7L-77.2,-8.0L-77.5,-8.6L-77.4,-8.7L-76.8,-8.7L-76.1,-9.4L-75.7,-9.5L-75.7,-9.8L-75.5,-10.7L-74.9,-11.2L-74.3,-11.2L-74.2,-11.4L-73.4,-11.3L-72.6,-11.8L-72.2,-12.0L-71.8,-12.5L-71.4,-12.5L-71.1,-12.2L-71.3,-11.9L-72.0,-11.7L-72.2,-11.2L-72.6,-10.9L-72.9,-10.5L-73.0,-9.8L-73.3,-9.2L-72.8,-9.1L-72.7,-8.7L-72.4,-8.4L-72.4,-8.0L-72.5,-7.7L-72.4,-7.4L-72.2,-7.4L-72.0,-7.0L-70.7,-7.1L-70.1,-7.0L-69.4,-6.1L-69.0,-6.2L-68.3,-6.2L-67.7,-6.3L-67.3,-6.1L-67.5,-5.6L-67.7,-5.2L-67.8,-4.5L-67.6,-3.8L-67.3,-3.5L-67.3,-3.3L-67.8,-2.8L-67.4,-2.6L-67.2,-2.3L-66.9,-1.3Z" fill="#1e1e2e" stroke="#2a2a3a" stroke-width="0.3"/>
  <path d="M-75.4,0.2L-75.2,0.9L-75.5,1.6L-76.6,2.6L-77.8,3.0L-78.5,3.9L-78.6,4.6L-79.2,5.0L-79.6,4.5L-80.0,4.4L-80.4,4.4L-80.5,4.1L-80.2,3.8L-80.3,3.4L-79.8,2.7L-80.0,2.2L-80.4,2.7L-81.0,2.2L-80.8,2.0L-80.9,1.1L-80.6,0.9L-80.4,0.3L-80.0,-0.4L-80.1,-0.8L-79.5,-1.0L-78.9,-1.4L-77.9,-0.8L-77.7,-0.8L-77.4,-0.4L-76.6,-0.3L-76.3,-0.4L-75.8,-0.1L-75.4,0.2Z" fill="#1e1e2e" stroke="#2a2a3a" stroke-width="0.3"/>
  <path d="M31.2,22.8L30.7,22.7L30.3,22.9L29.8,22.7L29.4,22.7L28.8,22.2L28.0,22.0L27.7,21.3L27.7,21.0L27.3,20.8L26.2,19.7L25.9,19.1L25.6,18.9L25.3,18.0L26.4,18.1L26.7,18.3L27.0,18.2L27.6,17.6L28.5,16.7L28.8,16.6L28.9,16.3L29.5,15.8L30.3,15.7L30.3,16.1L31.2,16.1L31.6,16.3L31.9,16.5L32.3,16.6L32.8,17.0L32.8,18.3L32.7,19.0L32.6,19.8L32.8,20.1L32.7,20.7L32.5,20.8L32.2,21.6L31.2,22.8Z" fill="#1e1e2e" stroke="#2a2a3a" stroke-width="0.3"/>
  <path d="M29.4,22.7L28.0,23.5L27.1,24.3L26.8,25.0L26.5,25.4L25.9,25.5L25.8,26.0L25.7,26.4L25.0,26.6L24.2,26.6L23.7,26.3L23.3,26.1L22.8,26.4L22.6,26.9L22.1,27.3L21.6,27.8L20.9,27.9L20.7,27.5L20.8,26.8L20.2,25.7L19.9,25.6L19.9,22.4L20.9,22.4L20.9,18.6L21.7,18.5L23.2,18.2L23.6,18.6L24.2,18.2L24.5,18.2L25.1,17.9L25.3,18.0L25.6,18.9L25.9,19.1L26.2,19.7L27.3,20.8L27.7,21.0L27.7,21.3L28.0,22.0L28.8,22.2L29.4,22.7Z" fill="#1e1e2e" stroke="#2a2a3a" stroke-width="0.3"/>
  <path d="M19.9,25.6L19.9,29.7L19.0,30.3L18.5,30.4L17.8,30.2L17.4,30.1L17.2,29.6L16.8,29.3L16.3,29.8L15.6,29.0L15.2,28.2L15.0,27.1L14.7,26.3L14.4,24.6L14.4,23.3L14.3,22.7L13.9,22.2L13.4,21.4L12.8,20.1L12.6,19.4L11.8,18.4L11.7,17.6L12.2,17.4L12.8,17.2L13.5,17.2L14.1,17.7L14.2,17.6L18.3,17.6L19.0,18.1L21.4,18.2L23.2,17.8L24.0,17.6L24.7,17.6L25.1,17.9L25.1,17.9L24.5,18.2L24.2,18.2L23.6,18.6L23.2,18.2L21.7,18.5L20.9,18.6L20.9,22.4L19.9,22.4L19.9,25.6Z" fill="#1e1e2e" stroke="#2a2a3a" stroke-width="0.3"/>
  <path d="M18.5,-3.5L18.4,-2.9L18.1,-2.4L17.9,-1.7L17.8,-0.9L17.8,-0.3L17.7,0.1L17.6,0.4L17.5,0.7L16.9,1.2L16.4,1.7L16.0,2.7L16.0,3.5L15.8,3.9L15.2,4.3L14.6,5.0L14.2,4.8L14.1,4.5L13.6,4.5L13.3,4.9L13.0,4.8L12.6,4.4L12.3,4.6L11.9,5.0L11.1,4.0L11.9,3.4L11.5,2.8L11.8,2.5L12.5,2.4L12.6,1.9L13.1,2.4L14.0,2.5L14.3,2.0L14.4,1.3L14.3,0.6L13.8,-0.0L14.3,-1.2L14.0,-1.4L13.3,-1.3L13.0,-1.8L13.1,-2.3L14.3,-2.2L15.1,-2.0L15.9,-1.7L16.0,-2.3L16.5,-3.2L17.1,-3.7L17.8,-3.6L18.5,-3.5Z" fill="#1e1e2e" stroke="#2a2a3a" stroke-width="0.3"/>
  <path d="M11.3,-2.3L11.8,-2.3L12.4,-2.2L13.0,-2.3L13.1,-2.3L13.0,-1.8L13.3,-1.3L14.0,-1.4L14.3,-1.2L13.8,-0.0L14.3,0.6L14.4,1.3L14.3,2.0L14.0,2.5L13.1,2.4L12.6,1.9L12.5,2.4L11.8,2.5L11.5,2.8L11.9,3.4L11.1,4.0L10.1,3.0L9.4,2.1L8.8,1.1L8.8,0.8L9.0,0.5L9.3,-0.3L9.5,-1.0L9.8,-1.1L11.3,-1.1L11.3,-2.3Z" fill="#1e1e2e" stroke="#2a2a3a" stroke-width="0.3"/>
  <path d="M30.7,8.4L31.2,8.6L31.6,8.8L32.2,9.0L32.8,9.3L33.2,9.7L33.5,10.6L33.3,10.9L33.1,11.7L33.3,12.5L33.0,12.9L32.7,13.8L33.2,14.1L30.2,15.0L30.3,15.7L29.5,15.8L28.9,16.3L28.8,16.6L28.5,16.7L27.6,17.6L27.0,18.2L26.7,18.3L26.4,18.1L25.3,18.0L25.1,17.9L25.1,17.9L24.7,17.6L24.0,17.6L23.2,17.8L22.6,17.1L21.9,16.3L21.9,13.0L24.0,13.0L23.9,12.7L24.1,12.3L23.9,11.8L24.0,11.3L23.9,11.0L24.3,11.0L24.3,11.3L24.8,11.3L25.4,11.4L25.8,11.9L26.6,12.0L27.2,11.7L27.4,12.2L28.2,12.4L28.5,12.8L28.9,13.4L29.7,13.4L29.6,12.3L29.3,12.5L28.6,12.1L28.4,11.9L28.5,10.9L28.7,9.7L28.4,9.2L28.7,8.6L29.0,8.4L30.3,8.3L30.7,8.4Z" fill="#1e1e2e" stroke="#2a2a3a" stroke-width="0.3"/>
  <path d="M32.8,9.3L33.7,9.5L33.9,9.7L34.3,10.2L34.6,11.6L34.3,12.4L34.6,13.7L34.9,13.7L35.3,14.0L35.7,14.8L35.8,16.1L35.3,16.3L35.0,17.0L34.4,16.4L34.3,15.7L34.5,15.2L34.5,14.8L34.1,14.5L33.8,14.6L33.2,14.1L32.7,13.8L33.0,12.9L33.3,12.5L33.1,11.7L33.3,10.9L33.5,10.6L33.2,9.7L32.8,9.3Z" fill="#1e1e2e" stroke="#2a2a3a" stroke-width="0.3"/>
  <path d="M34.6,11.6L35.3,11.5L36.5,11.8L36.8,11.7L37.5,11.6L37.8,11.3L38.4,11.4L39.5,11.0L40.3,10.4L40.3,10.4L40.3,10.4L40.5,10.8L40.4,11.8L40.6,12.7L40.6,14.3L40.8,14.9L40.5,15.6L40.1,16.3L39.5,17.0L38.5,17.4L37.4,17.9L36.3,19.0L35.9,19.2L35.2,19.9L34.8,20.2L34.7,20.9L35.2,21.8L35.4,22.4L35.4,22.7L35.6,22.7L35.5,23.7L35.4,24.2L35.6,24.4L35.5,24.9L35.0,25.3L34.2,25.6L33.0,26.2L32.6,26.6L32.7,27.1L32.9,27.2L32.8,27.8L32.1,27.8L32.0,27.3L31.8,26.8L31.8,26.4L31.9,25.1L31.7,24.4L31.2,22.8L32.2,21.6L32.5,20.8L32.7,20.7L32.8,20.1L32.6,19.8L32.7,19.0L32.8,18.3L32.8,17.0L32.3,16.6L31.9,16.5L31.6,16.3L31.2,16.1L30.3,16.1L30.3,15.7L30.2,15.0L33.2,14.1L33.8,14.6L34.1,14.5L34.5,14.8L34.5,15.2L34.3,15.7L34.4,16.4L35.0,17.0L35.3,16.3L35.8,16.1L35.7,14.8L35.3,14.0L34.9,13.7L34.6,13.7L34.3,12.4L34.6,11.6Z" fill="#1e1e2e" stroke="#2a2a3a" stroke-width="0.3"/>
  <path d="M32.1,27.8L31.9,28.3L31.3,28.4L30.7,27.8L30.7,27.4L30.9,27.0L31.0,26.6L31.3,26.6L31.8,26.8L32.0,27.3L32.1,27.8Z" fill="#1e1e2e" stroke="#2a2a3a" stroke-width="0.3"/>
  <path d="M13.0,4.8L12.6,5.0L12.5,5.3L12.4,5.7L12.2,5.8L11.9,5.0L12.3,4.6L12.6,4.4L13.0,4.8ZM12.3,6.1L12.7,6.0L13.0,6.0L13.4,5.9L16.3,5.9L16.6,6.6L16.9,7.2L17.1,7.6L17.5,8.1L18.1,8.0L18.5,7.9L19.0,8.0L19.2,7.8L19.4,7.2L20.0,7.1L20.1,7.0L20.6,7.0L20.5,7.3L21.7,7.3L21.7,7.9L21.9,8.3L21.8,8.9L21.9,9.6L22.2,9.9L22.2,11.2L22.4,11.1L22.8,11.1L23.5,10.9L23.9,11.0L24.0,11.3L23.9,11.8L24.1,12.3L23.9,12.7L24.0,13.0L21.9,13.0L21.9,16.3L22.6,17.1L23.2,17.8L21.4,18.2L19.0,18.1L18.3,17.6L14.2,17.6L14.1,17.7L13.5,17.2L12.8,17.2L12.2,17.4L11.7,17.6L11.6,16.9L11.8,16.0L12.1,15.0L12.2,14.6L12.5,13.7L12.7,13.3L13.3,12.6L13.6,12.1L13.7,11.4L13.7,10.8L13.4,10.4L13.1,9.8L12.9,9.2L12.9,9.0L13.2,8.6L12.9,7.6L12.7,6.9L12.2,6.3L12.3,6.1Z" fill="#1e1e2e" stroke="#2a2a3a" stroke-width="0.3"/>
  <path d="M30.5,2.4L30.5,2.8L30.7,3.0L30.8,3.4L30.5,3.6L30.1,4.1L29.8,4.5L29.3,4.5L29.3,3.3L29.0,2.8L29.6,2.9L29.9,2.3L30.5,2.4Z" fill="#1e1e2e" stroke="#2a2a3a" stroke-width="0.3"/>
  <path d="M49.5,12.6L49.8,13.0L50.1,13.7L50.2,14.9L50.5,15.4L50.4,15.9L50.2,16.2L49.9,15.6L49.7,15.9L49.9,16.7L49.8,17.1L49.5,17.4L49.4,18.3L49.0,19.5L48.5,20.9L47.9,23.0L47.5,24.5L47.1,25.8L46.3,26.0L45.4,26.5L44.8,26.2L44.0,25.8L43.8,25.2L43.7,24.3L43.3,23.4L43.3,22.6L43.4,21.8L43.9,21.7L43.9,21.3L44.4,20.5L44.5,19.8L44.2,19.3L44.0,18.7L44.0,17.7L44.3,17.1L44.4,16.4L44.9,16.4L45.5,16.2L45.9,16.0L46.3,16.0L46.9,15.4L47.7,14.8L48.0,14.2L47.9,13.8L48.3,13.9L48.8,13.2L48.9,12.6L49.2,12.1L49.5,12.6Z" fill="#1e1e2e" stroke="#2a2a3a" stroke-width="0.3"/>
  <path d="M167.2,16.1L167.8,16.7L167.5,16.8L167.2,16.4L167.2,16.1ZM166.8,15.9L166.6,15.6L166.6,14.8L167.1,15.1L167.3,15.9L167.0,15.8L166.8,15.9Z" fill="#1e1e2e" stroke="#2a2a3a" stroke-width="0.3"/>
  <path d="M165.8,21.6L166.6,22.2L167.1,22.7L166.7,23.0L166.2,22.7L165.5,22.2L164.8,21.6L164.2,20.9L164.0,20.5L164.5,20.5L165.0,20.9L165.5,21.3L165.8,21.6Z" fill="#1e1e2e" stroke="#2a2a3a" stroke-width="0.3"/>
  <path d="M162.1,10.5L162.4,10.9L161.7,10.9L161.3,10.3L161.9,10.5L162.1,10.5ZM161.7,9.6L161.5,9.8L160.8,9.0L160.6,8.3L160.9,8.3L161.3,9.2L161.7,9.6ZM160.9,9.9L160.5,9.9L159.8,9.8L159.6,9.7L159.7,9.3L160.4,9.4L160.7,9.7L160.9,9.9ZM159.6,8.0L159.9,8.4L159.9,8.6L159.1,8.1L158.6,7.8L158.2,7.4L158.4,7.3L158.8,7.6L159.6,8.0ZM157.1,7.0L157.5,7.4L157.3,7.4L156.9,7.2L156.5,6.8L156.5,6.6L157.1,7.0Z" fill="#1e1e2e" stroke="#2a2a3a" stroke-width="0.3"/>
  <path d="M147.7,44.8L148.3,44.9L148.4,46.4L148.0,46.9L147.9,48.0L147.6,47.6L146.9,48.6L146.7,48.5L146.0,48.5L145.4,47.3L145.3,46.4L144.7,45.2L144.7,44.6L145.4,44.8L146.4,45.2L146.9,45.0L147.7,44.8ZM126.1,34.1L125.1,34.7L124.2,34.9L124.0,35.6L123.7,36.1L122.8,36.1L122.2,36.2L121.3,36.0L120.6,36.1L119.9,36.2L119.3,36.8L119.0,36.8L118.5,37.1L118.0,37.5L117.3,37.4L116.6,37.4L115.6,36.7L115.0,36.4L115.0,35.7L115.5,35.6L115.7,35.3L115.7,34.9L115.8,34.0L115.7,33.4L115.2,32.2L115.0,31.5L115.0,30.9L114.6,30.1L114.6,29.8L114.2,29.3L114.0,28.4L113.5,27.5L113.3,27.1L113.8,27.6L113.4,26.5L113.9,26.8L114.2,27.3L114.2,26.7L113.7,25.8L113.6,25.5L113.4,25.2L113.5,24.5L113.7,24.3L113.8,23.7L113.7,23.1L114.1,22.3L114.2,23.1L114.6,22.4L115.5,22.0L115.9,21.6L116.7,21.2L117.2,21.1L117.4,21.2L118.2,20.8L118.8,20.7L119.0,20.5L119.3,20.4L119.8,20.4L120.9,20.1L121.4,19.6L121.7,19.0L122.2,18.5L122.3,18.1L122.3,17.5L123.0,16.6L123.4,17.5L123.9,17.3L123.5,16.8L123.8,16.3L124.3,16.6L124.4,15.8L124.9,15.3L125.2,14.8L125.7,14.7L125.7,14.4L126.1,14.5L126.1,14.2L126.6,14.1L127.1,14.0L127.8,14.4L128.4,15.0L129.0,15.0L129.6,15.1L129.4,14.6L129.9,13.7L130.3,13.5L130.2,13.2L130.6,12.6L131.2,12.3L131.7,12.4L132.6,12.2L132.6,11.7L131.8,11.3L132.4,11.2L133.0,11.5L133.6,11.9L134.4,12.1L134.7,12.0L135.3,12.3L135.9,12.1L136.3,12.1L136.5,11.9L137.0,12.4L136.7,13.0L136.3,13.4L136.0,13.4L136.1,13.9L135.8,14.4L135.4,14.9L135.5,15.2L136.3,15.7L137.1,16.1L137.6,16.4L138.3,17.1L138.6,17.1L139.1,17.3L139.3,17.6L140.2,18.0L140.9,17.6L141.1,17.1L141.3,16.6L141.4,16.0L141.7,15.2L141.6,14.7L141.6,14.4L141.5,13.8L141.7,13.1L141.8,12.8L141.7,12.5L141.9,12.0L142.1,11.4L142.1,11.1L142.5,10.7L142.8,11.2L142.9,11.9L143.1,12.0L143.2,12.4L143.5,12.9L143.6,13.5L143.6,13.9L143.9,14.7L144.6,14.3L144.9,14.8L145.4,15.2L145.3,15.6L145.5,16.5L145.6,17.0L145.9,17.2L146.2,18.1L146.1,18.6L146.4,19.3L147.5,19.9L148.2,20.4L148.8,20.8L148.7,21.1L149.3,21.8L149.7,22.9L150.1,22.7L150.5,23.2L150.7,23.0L150.9,24.1L151.6,24.8L152.1,25.2L152.9,26.1L153.1,27.0L153.2,27.7L153.1,28.4L153.6,29.3L153.5,30.3L153.3,30.8L153.1,31.9L153.1,32.5L152.9,33.4L152.5,34.5L151.7,35.0L151.3,36.0L151.0,36.6L150.7,37.6L150.3,38.2L150.1,39.2L149.9,40.0L150.0,40.4L149.4,40.8L148.3,40.9L147.4,41.4L146.9,41.9L146.3,42.5L145.5,41.9L144.9,41.7L145.0,41.0L144.5,41.2L143.6,42.2L142.7,41.8L142.2,41.6L141.6,41.5L140.6,41.2L140.0,40.4L139.8,39.4L139.6,38.8L139.1,38.3L138.1,38.2L138.4,37.6L138.2,36.7L137.7,37.5L136.8,37.7L137.4,37.0L137.5,36.3L137.9,35.8L137.8,34.9L137.0,35.9L136.4,36.3L136.0,37.3L135.2,36.8L135.2,36.1L134.6,35.3L134.1,34.8L134.3,34.5L133.0,33.8L132.3,33.8L131.3,33.2L129.5,33.3L128.2,33.7L127.1,34.1L126.1,34.1Z" fill="#1e1e2e" stroke="#2a2a3a" stroke-width="0.3"/>
  <path d="M-58.2,20.6L-57.9,21.2L-57.9,22.7L-56.9,22.9L-56.5,22.7L-55.8,22.9L-55.6,23.3L-55.5,24.3L-55.4,24.7L-55.0,24.7L-54.7,24.6L-54.3,24.8L-54.3,25.4L-54.4,26.0L-54.6,26.7L-54.8,27.6L-55.7,28.5L-56.5,28.7L-57.6,28.5L-58.6,28.2L-57.6,26.5L-57.8,26.0L-58.8,25.6L-60.0,24.8L-60.8,24.6L-62.7,22.8L-62.3,21.5L-62.3,21.0L-61.8,20.0L-60.0,19.7L-59.1,19.7L-58.2,20.3L-58.2,20.6Z" fill="#1e1e2e" stroke="#2a2a3a" stroke-width="0.3"/>
  <path d="M33.9,1.0L31.9,1.0L30.8,1.0L30.4,1.1L29.8,1.4L29.6,1.3L29.6,0.6L29.8,0.2L29.9,-0.6L30.1,-1.1L30.5,-1.6L30.9,-1.8L31.2,-2.2L30.8,-2.3L30.8,-3.5L30.8,-3.5L31.2,-3.8L31.9,-3.6L32.7,-3.8L33.4,-3.8L34.0,-4.3L34.5,-3.6L34.6,-3.1L35.0,-1.9L34.7,-1.2L34.2,-0.5L33.9,-0.1L33.9,1.0Z" fill="#1e1e2e" stroke="#2a2a3a" stroke-width="0.3"/>
  <path d="M30.4,1.1L30.8,1.7L30.8,2.3L30.5,2.4L30.5,2.4L29.9,2.3L29.6,2.9L29.0,2.8L29.1,2.3L29.3,2.2L29.3,1.6L29.6,1.3L29.8,1.4L30.4,1.1Z" fill="#1e1e2e" stroke="#2a2a3a" stroke-width="0.3"/>
  <path d="M180.0,16.3L180.0,16.8L179.4,17.0L178.7,17.3L178.6,16.9L179.1,16.7L179.4,16.6L180.0,16.3ZM178.1,17.8L178.4,17.6L178.7,17.9L178.6,18.5L177.9,18.6L177.4,18.5L177.3,18.0L177.7,17.7L178.1,17.8ZM-179.8,16.2L-179.9,16.7L-180.0,16.8L-180.0,16.3L-179.8,16.2Z" fill="#00e5ff" stroke="#00c4dd" stroke-width="0.4" fill-opacity="0.9"/>
</svg>