<svg xmlns="http://www.w3.org/2000/svg" viewBox="18.65 -72.16 14.87 14.31" width="300" height="300" preserveAspectRatio="xMidYMid meet">
  <path d="M28.59,-69.06L28.45,-68.36L29.98,-67.70L29.05,-66.94L30.22,-65.81L29.54,-64.95L30.44,-64.20L30.04,-63.55L31.52,-62.87L31.14,-62.36L30.21,-61.78L28.07,-60.50L28.07,-60.50L28.07,-60.50L26.26,-60.42L24.50,-60.06L22.87,-59.85L22.29,-60.39L21.32,-60.72L21.54,-61.71L21.06,-62.61L21.54,-63.19L22.44,-63.82L24.73,-64.90L25.40,-65.11L25.29,-65.53L23.90,-66.01L23.57,-66.40L23.54,-67.94L21.98,-68.62L20.65,-69.11L21.24,-69.37L22.36,-68.84L23.66,-68.89L24.74,-68.65L25.69,-69.09L26.18,-69.83L27.73,-70.16L29.02,-69.77L28.59,-69.06Z" fill="#00e5ff" stroke="#00e5ff" stroke-width="0.5" fill-opacity="0.8"/>
</svg>