<svg xmlns="http://www.w3.org/2000/svg" viewBox="5.6 -117.2 40.9 59.4" width="400" height="300" preserveAspectRatio="xMidYMid meet">
  <rect x="5.6" y="-117.2" width="40.9" height="59.4" fill="#0e0e18"/>
  <path d="M87.4,-56.7L86.6,-55.7L85.8,-55.5L85.7,-54.0L85.2,-53.4L83.2,-53.9L82.5,-51.3L81.9,-50.9L80.0,-50.4L80.9,-48.0L80.2,-47.6L80.3,-46.8L79.6,-47.0L79.1,-47.5L77.7,-47.7L76.0,-47.7L75.6,-47.6L74.2,-48.1L73.6,-47.8L73.5,-47.0L71.8,-47.5L71.2,-47.3L71.0,-46.7L70.4,-46.5L69.1,-45.5L68.6,-44.6L68.3,-44.6L68.0,-45.2L66.7,-45.3L66.5,-46.3L66.0,-46.4L66.1,-47.7L64.9,-48.7L63.2,-48.6L62.0,-48.4L61.1,-49.7L60.2,-50.2L58.7,-51.2L58.5,-51.3L55.9,-50.5L56.0,-45.4L55.5,-45.4L54.8,-46.4L54.1,-46.8L52.9,-46.5L52.5,-46.1L52.4,-46.4L52.7,-47.0L52.5,-47.4L51.3,-47.9L50.9,-49.1L50.3,-49.5L50.3,-49.9L51.3,-49.8L51.3,-50.8L52.2,-51.1L53.0,-50.9L53.2,-52.3L53.0,-53.2L52.0,-53.1L51.2,-53.5L50.0,-52.8L49.1,-52.5L48.6,-52.7L48.7,-53.5L48.1,-54.5L47.3,-54.4L46.5,-55.5L47.0,-56.6L46.8,-56.9L47.5,-58.6L48.6,-57.7L48.7,-58.9L50.8,-60.6L52.3,-60.6L54.5,-59.5L55.7,-58.9L56.8,-59.5L58.4,-59.6L59.6,-58.8L59.9,-59.2L61.3,-59.2L61.6,-59.9L60.0,-61.0L60.9,-61.8L60.7,-62.3L61.7,-62.7L61.0,-63.8L61.4,-64.4L65.2,-65.0L65.7,-65.4L68.2,-66.1L69.1,-66.8L70.9,-66.4L71.2,-64.6L72.2,-65.1L73.5,-64.5L73.4,-63.5L74.4,-63.6L76.9,-65.3L76.5,-64.7L77.8,-63.4L80.0,-59.3L80.6,-60.1L81.9,-59.2L83.4,-59.6L83.9,-59.3L84.4,-58.4L85.1,-58.1L85.5,-57.4L86.8,-57.6L87.4,-56.7Z" fill="#1e1e2e" stroke="#2a2a3a" stroke-width="0.3"/>
  <path d="M178.7,-102.7L180.0,-104.0L180.0,-101.9L178.9,-101.8L178.7,-102.7ZM49.1,-52.5L48.6,-51.6L47.7,-51.4L46.7,-49.9L47.6,-48.6L47.5,-47.7L48.6,-46.1L48.6,-46.1L48.0,-45.6L47.8,-45.2L47.4,-45.3L46.7,-46.1L46.4,-46.2L45.8,-46.5L45.5,-47.0L44.5,-47.3L43.9,-47.1L43.8,-47.4L42.4,-48.0L40.9,-48.2L40.1,-48.5L40.0,-48.3L38.7,-49.5L37.5,-50.0L36.7,-50.8L37.4,-51.1L38.2,-52.3L37.7,-52.8L39.1,-53.4L39.1,-53.8L38.2,-53.5L38.3,-54.2L38.8,-54.6L39.7,-54.7L39.9,-55.2L39.7,-56.0L40.1,-56.8L40.1,-57.3L38.6,-57.8L38.0,-57.8L37.4,-58.5L36.6,-58.3L35.4,-58.8L35.4,-59.1L35.0,-59.8L34.2,-59.9L34.1,-60.4L34.4,-60.7L33.8,-61.6L32.7,-61.5L32.4,-61.6L32.2,-61.2L31.8,-61.3L31.8,-61.3L31.5,-62.3L31.3,-62.9L31.5,-63.0L32.3,-63.0L32.7,-63.3L32.4,-63.8L31.7,-64.1L31.8,-64.4L31.4,-64.7L30.8,-65.8L31.0,-66.3L30.9,-67.1L29.9,-67.5L29.4,-67.3L29.2,-67.8L28.2,-68.2L27.9,-69.3L27.8,-70.2L27.3,-70.6L27.7,-71.2L27.4,-73.0L28.1,-74.1L28.0,-74.4L28.0,-74.4L29.1,-75.5L28.1,-76.5L28.1,-76.5L30.2,-79.1L31.1,-80.3L31.5,-81.5L30.0,-83.0L30.4,-84.5L29.5,-86.2L30.2,-88.3L29.1,-91.1L30.0,-93.0L28.4,-94.8L28.6,-96.8L29.4,-97.0L31.1,-98.2L31.1,-98.2L32.1,-99.2L33.8,-97.4L36.5,-96.8L40.3,-93.7L41.1,-92.4L41.1,-90.7L40.0,-89.4L38.4,-88.7L33.9,-90.6L33.2,-90.3L34.8,-88.5L34.9,-87.4L34.9,-84.9L36.2,-84.2L37.0,-83.6L37.1,-84.8L36.5,-85.8L37.2,-86.7L39.6,-85.2L40.4,-85.8L39.8,-87.5L42.1,-89.9L43.0,-89.8L43.9,-88.9L44.5,-90.6L43.7,-92.1L44.2,-93.7L43.5,-95.4L46.3,-94.5L46.8,-93.0L45.6,-92.7L45.6,-91.3L46.3,-90.4L47.9,-90.9L48.1,-92.6L50.2,-93.8L53.7,-96.2L54.5,-96.0L53.5,-94.4L54.7,-94.1L55.4,-95.0L57.3,-95.1L58.8,-96.2L59.9,-94.6L61.1,-96.4L60.0,-98.0L60.5,-99.0L63.5,-98.1L64.9,-97.2L68.5,-94.1L69.2,-95.5L68.2,-97.0L68.1,-97.6L66.9,-97.9L67.3,-99.2L66.7,-101.5L66.7,-102.5L68.5,-105.4L69.2,-108.4L69.9,-109.0L72.6,-108.1L72.8,-106.3L71.8,-103.7L72.5,-102.7L72.8,-100.6L72.6,-96.6L73.7,-94.9L73.2,-93.2L71.3,-89.5L72.4,-89.2L72.8,-90.0L73.9,-90.7L74.2,-92.0L75.1,-93.2L74.5,-94.7L74.9,-96.5L73.8,-96.8L73.6,-98.4L74.4,-101.3L73.1,-103.8L74.9,-106.0L74.7,-108.3L75.2,-108.4L75.7,-106.6L75.3,-103.5L76.4,-102.9L75.9,-105.2L77.6,-106.5L79.7,-106.6L81.5,-104.8L80.6,-107.5L80.5,-111.2L82.3,-111.9L84.7,-111.7L86.8,-112.2L86.0,-114.1L87.2,-116.6L88.3,-116.7L90.3,-118.7L92.9,-119.2L93.2,-120.4L95.9,-120.7L96.7,-119.8L98.9,-122.0L100.8,-122.0L101.0,-123.8L102.0,-125.7L104.4,-127.6L106.1,-126.1L104.7,-125.0L107.0,-124.3L107.2,-122.2L108.2,-123.2L111.1,-123.2L113.3,-121.1L114.1,-119.5L113.9,-117.5L112.8,-116.3L110.2,-114.2L109.4,-113.1L110.6,-112.6L112.1,-111.7L113.0,-112.3L113.5,-110.1L114.0,-111.0L115.6,-111.5L118.8,-111.0L119.0,-109.3L123.2,-108.8L123.3,-111.5L125.4,-110.9L127.0,-110.9L128.6,-109.0L129.1,-106.9L128.5,-105.5L129.7,-103.0L131.3,-101.8L132.3,-105.1L133.9,-103.6L135.6,-104.5L137.5,-103.5L138.2,-104.4L139.9,-103.9L139.1,-106.9L140.5,-108.4L149.5,-106.2L150.4,-104.3L153.0,-101.9L157.0,-102.5L159.0,-102.0L159.8,-100.8L159.7,-98.6L160.9,-97.8L162.3,-98.4L164.1,-98.5L165.9,-97.9L167.8,-98.2L169.6,-95.7L170.8,-96.6L170.0,-98.4L170.5,-99.7L173.6,-98.9L175.7,-99.1L178.6,-97.7L180.0,-96.5L180.0,-86.3L180.0,-86.3L178.7,-85.2L177.4,-85.4L178.3,-84.2L178.9,-82.3L179.4,-81.7L179.5,-80.8L179.2,-80.2L177.4,-80.7L174.6,-79.1L173.7,-78.8L172.2,-77.4L170.7,-76.1L170.3,-75.2L168.9,-76.6L166.3,-75.0L165.8,-75.8L164.9,-74.9L163.5,-75.2L163.2,-73.9L162.0,-72.0L162.1,-71.3L163.2,-70.8L163.1,-68.2L162.1,-68.1L161.7,-66.6L162.1,-65.9L160.4,-65.0L160.0,-63.1L158.5,-62.7L158.2,-61.0L156.8,-59.5L156.4,-60.6L156.0,-63.0L155.4,-66.8L155.9,-69.3L156.8,-70.4L156.8,-71.3L158.4,-71.7L160.2,-74.1L161.9,-76.1L163.7,-77.8L164.5,-80.8L163.3,-80.6L162.7,-78.8L160.1,-76.6L159.3,-79.1L156.7,-78.4L154.2,-75.0L155.0,-73.8L152.8,-73.3L151.3,-73.1L151.3,-74.5L149.8,-74.8L148.5,-73.8L145.5,-74.1L142.2,-73.6L139.0,-69.9L135.1,-65.7L136.7,-65.4L137.2,-64.4L138.2,-64.0L138.8,-64.8L139.9,-64.7L141.3,-62.9L141.4,-61.5L140.6,-59.9L140.5,-58.0L140.1,-55.5L138.6,-53.4L138.2,-52.4L136.9,-50.7L135.5,-49.1L134.9,-48.3L133.5,-47.5L132.9,-47.4L132.3,-48.1L130.9,-47.1L130.8,-46.7L130.8,-46.7L130.8,-46.7L130.8,-46.7L130.6,-46.9L130.6,-46.9L130.6,-47.6L131.1,-47.6L131.3,-49.3L131.0,-50.5L131.9,-51.0L133.1,-50.7L133.8,-52.1L134.1,-53.7L134.5,-54.2L135.0,-55.6L133.4,-55.1L132.5,-54.5L131.0,-54.5L130.6,-56.0L129.4,-57.0L127.7,-57.5L127.3,-59.1L126.9,-60.0L126.6,-60.7L125.9,-62.4L125.1,-63.0L123.6,-63.5L122.2,-63.5L121.0,-63.1L120.2,-62.3L120.7,-61.9L120.7,-61.0L120.2,-60.5L119.3,-58.8L119.3,-58.1L117.9,-57.2L116.7,-57.7L115.5,-57.6L115.0,-58.1L114.4,-58.3L112.9,-57.2L111.6,-56.9L110.7,-56.6L109.4,-56.8L108.5,-56.8L107.9,-57.6L106.9,-58.3L105.9,-58.5L104.6,-58.3L103.7,-58.0L102.3,-58.7L102.1,-59.9L100.9,-60.3L100.0,-60.5L98.9,-61.2L97.8,-59.5L98.2,-58.6L97.3,-57.5L95.8,-57.9L94.8,-57.9L94.1,-58.7L93.1,-58.7L92.2,-59.2L90.7,-58.4L88.8,-57.1L87.8,-56.8L87.4,-56.7L86.8,-57.6L85.5,-57.4L85.1,-58.1L84.4,-58.4L83.9,-59.3L83.4,-59.6L81.9,-59.2L80.6,-60.1L80.0,-59.3L77.8,-63.4L76.5,-64.7L76.9,-65.3L74.4,-63.6L73.4,-63.5L73.5,-64.5L72.2,-65.1L71.2,-64.6L70.9,-66.4L69.1,-66.8L68.2,-66.1L65.7,-65.4L65.2,-65.0L61.4,-64.4L61.0,-63.8L61.7,-62.7L60.7,-62.3L60.9,-61.8L60.0,-61.0L61.6,-59.9L61.3,-59.2L59.9,-59.2L59.6,-58.8L58.4,-59.6L56.8,-59.5L55.7,-58.9L54.5,-59.5L52.3,-60.6L50.8,-60.6L48.7,-58.9L48.6,-57.7L47.5,-58.6L46.8,-56.9L47.0,-56.6L46.5,-55.5L47.3,-54.4L48.1,-54.5L48.7,-53.5L48.6,-52.7L49.1,-52.5ZM93.8,-145.8L95.9,-147.3L97.9,-144.1L100.2,-138.3L99.9,-133.5L97.8,-132.8L95.0,-134.3L93.3,-136.4L92.5,-140.4L91.2,-141.6L93.8,-145.8ZM102.8,-135.6L105.4,-132.6L105.1,-130.6L99.4,-128.7L101.3,-135.3L102.1,-135.9L102.8,-135.6ZM138.8,-120.7L141.5,-120.6L145.1,-118.4L144.3,-115.5L140.6,-115.6L139.0,-114.7L137.0,-117.2L137.5,-120.0L138.8,-120.7ZM148.2,-117.5L150.7,-116.5L149.6,-115.0L148.0,-115.3L146.1,-116.8L146.4,-118.1L148.2,-117.5ZM139.9,-110.2L140.8,-111.6L142.1,-111.9L143.5,-110.6L143.6,-109.6L142.1,-109.6L140.0,-110.0L139.9,-110.2ZM44.8,-143.1L46.8,-144.2L48.3,-144.3L48.5,-142.6L49.1,-144.1L50.0,-145.1L51.5,-143.8L51.1,-142.8L49.8,-142.0L48.9,-141.6L48.8,-140.6L47.6,-139.6L46.5,-141.0L47.1,-142.9L44.8,-143.1ZM22.7,-65.0L20.9,-64.9L19.7,-65.1L19.9,-65.9L21.3,-66.5L22.3,-66.2L22.8,-65.9L22.7,-65.4L22.7,-65.0ZM53.5,-111.5L55.9,-114.8L55.6,-116.5L57.9,-118.6L61.2,-121.2L64.5,-122.0L66.2,-123.6L68.2,-124.2L68.9,-122.5L68.2,-121.1L64.6,-119.1L61.6,-117.2L58.5,-113.6L57.0,-110.1L55.4,-106.8L55.6,-104.1L57.5,-101.6L56.9,-101.3L53.7,-101.7L53.4,-103.1L51.6,-103.9L51.5,-105.6L52.5,-106.3L52.4,-108.1L54.4,-111.1L53.5,-111.5ZM142.9,-63.9L143.3,-62.3L143.2,-60.7L143.6,-59.1L144.7,-56.3L143.2,-56.8L142.6,-54.7L143.5,-53.1L143.5,-52.1L142.7,-53.0L142.1,-51.9L141.9,-53.1L142.0,-54.5L141.9,-56.2L142.1,-57.3L142.2,-59.4L141.6,-61.0L141.7,-63.2L142.6,-64.0L142.2,-64.8L142.7,-65.0L142.9,-63.9ZM-174.9,-91.8L-175.0,-90.2L-174.3,-89.6L-174.6,-91.4L-171.9,-91.0L-169.9,-88.7L-170.9,-87.6L-172.5,-87.4L-172.6,-85.1L-173.0,-84.6L-173.9,-84.6L-174.7,-85.4L-176.0,-86.1L-176.2,-87.2L-177.2,-87.6L-178.4,-87.2L-178.9,-88.1L-178.7,-89.0L-179.9,-88.4L-179.4,-87.3L-180.0,-86.3L-180.0,-96.5L-177.6,-94.4L-174.9,-91.8ZM-178.7,-102.1L-180.0,-101.9L-180.0,-104.0L-179.9,-104.2L-179.0,-104.2L-177.6,-103.3L-177.7,-102.8L-178.7,-102.1ZM33.4,-51.9L33.7,-52.2L34.4,-51.9L34.7,-51.9L34.9,-51.6L35.0,-51.5L35.0,-51.4L35.5,-51.1L36.5,-51.2L36.3,-50.7L35.2,-50.4L33.9,-49.6L33.3,-49.9L33.5,-50.5L32.5,-51.0L32.6,-51.2L33.6,-51.7L33.4,-51.9Z" fill="#1e1e2e" stroke="#2a2a3a" stroke-width="0.3"/>
  <path d="M15.1,-137.7L15.5,-139.7L17.0,-139.9L18.3,-137.9L21.5,-133.9L19.0,-131.8L18.5,-128.2L17.6,-127.4L17.1,-123.6L15.9,-123.4L13.8,-126.2L14.7,-127.8L13.2,-129.2L11.2,-133.4L10.4,-137.6L13.2,-139.6L13.7,-137.7L15.1,-137.7ZM31.1,-98.2L29.4,-97.0L28.6,-96.8L29.0,-98.8L27.7,-99.9L26.2,-98.9L25.7,-96.8L24.7,-95.6L23.7,-96.3L22.4,-96.1L21.2,-97.6L20.6,-96.9L20.0,-96.8L19.9,-94.9L18.0,-95.4L17.7,-93.9L16.8,-93.9L16.1,-92.0L15.1,-89.2L13.6,-85.8L13.9,-85.0L13.6,-84.1L12.6,-84.1L11.9,-82.0L12.0,-79.2L12.6,-78.1L12.3,-75.7L11.5,-74.3L11.0,-73.2L10.4,-74.4L8.4,-72.2L7.0,-71.7L5.7,-72.7L5.3,-74.8L5.0,-79.5L5.9,-80.9L8.6,-82.8L10.5,-85.1L12.4,-88.4L14.8,-93.3L16.4,-95.4L19.2,-98.9L21.4,-100.2L23.0,-100.0L24.5,-102.5L26.4,-102.4L28.2,-103.0L31.3,-100.8L30.0,-100.0L31.1,-98.2ZM27.4,-139.9L25.9,-136.9L23.0,-136.2L20.1,-137.1L19.9,-138.7L18.5,-138.8L17.4,-141.5L20.5,-143.1L21.9,-141.7L22.9,-143.5L25.4,-142.0L27.4,-139.9ZM24.7,-128.4L22.5,-126.5L20.7,-127.5L21.4,-128.8L20.8,-130.3L22.9,-131.3L23.3,-129.5L24.7,-128.4Z" fill="#1e1e2e" stroke="#2a2a3a" stroke-width="0.3"/>
  <path d="M-51.7,-4.2L-52.2,-3.2L-52.6,-2.5L-52.9,-2.1L-53.4,-2.1L-53.6,-2.3L-53.8,-2.4L-54.1,-2.1L-54.5,-2.3L-54.3,-2.7L-54.2,-3.2L-54.0,-3.6L-54.4,-4.2L-54.5,-4.9L-54.0,-5.8L-53.6,-5.7L-52.9,-5.4L-51.8,-4.6L-51.7,-4.2ZM6.2,-57.1L6.7,-56.7L8.1,-56.4L7.6,-55.4L7.5,-54.3L7.2,-54.0L6.7,-54.2L6.8,-53.8L6.0,-53.0L6.0,-52.3L6.5,-52.5L6.8,-51.9L6.8,-51.5L7.1,-51.0L6.7,-50.5L7.0,-49.5L7.5,-49.3L7.4,-48.7L6.5,-47.9L4.6,-48.3L3.1,-47.8L3.0,-47.0L1.8,-46.8L0.7,-47.4L0.3,-47.1L-1.5,-47.8L-1.9,-48.3L-1.4,-49.1L-1.2,-51.9L-2.2,-53.5L-3.0,-54.2L-4.5,-54.8L-4.6,-55.9L-3.3,-56.2L-1.6,-55.8L-1.9,-57.6L-1.0,-56.9L1.3,-58.1L1.6,-59.4L2.5,-59.7L2.7,-59.2L3.1,-59.1L3.6,-58.5L4.3,-57.8L4.8,-57.9L5.7,-57.2L5.9,-57.0L6.2,-57.1ZM8.7,-47.2L9.4,-47.7L9.6,-46.6L9.2,-45.5L8.8,-45.8L8.5,-46.7L8.7,-47.2Z" fill="#1e1e2e" stroke="#2a2a3a" stroke-width="0.3"/>
  <path d="M11.0,-73.2L11.5,-74.3L12.3,-75.7L12.6,-78.1L12.0,-79.2L11.9,-82.0L12.6,-84.1L13.6,-84.1L13.9,-85.0L13.6,-85.8L15.1,-89.2L16.1,-92.0L16.8,-93.9L17.7,-93.9L18.0,-95.4L19.9,-94.9L20.0,-96.8L20.6,-96.9L22.0,-95.5L23.5,-93.7L23.6,-89.7L23.9,-88.7L22.2,-88.0L21.2,-86.4L21.4,-84.9L19.8,-83.1L17.8,-81.2L17.1,-78.2L17.8,-76.7L18.8,-75.6L17.9,-73.4L16.8,-72.9L16.4,-69.8L15.9,-68.1L14.7,-68.3L14.1,-66.8L12.9,-66.8L12.6,-68.4L11.8,-70.5L11.0,-73.2Z" fill="#1e1e2e" stroke="#2a2a3a" stroke-width="0.3"/>
  <path d="M28.2,-68.2L29.2,-67.8L29.4,-67.3L29.9,-67.5L30.9,-67.1L31.0,-66.3L30.8,-65.8L31.4,-64.7L31.8,-64.4L31.7,-64.1L32.4,-63.8L32.7,-63.3L32.3,-63.0L31.5,-63.0L31.3,-62.9L31.5,-62.3L31.8,-61.3L31.8,-61.3L30.9,-61.2L30.6,-60.8L30.6,-60.0L30.2,-60.1L29.3,-60.1L29.0,-60.4L28.6,-60.2L28.2,-60.4L27.5,-60.4L26.3,-60.8L25.3,-60.9L24.6,-60.9L24.0,-60.5L23.5,-60.4L23.5,-61.1L23.2,-61.9L23.8,-62.2L23.8,-62.9L23.5,-63.5L23.5,-64.3L24.5,-64.3L25.5,-64.9L25.8,-65.9L26.6,-66.4L26.5,-67.2L27.1,-67.5L28.2,-68.2Z" fill="#1e1e2e" stroke="#2a2a3a" stroke-width="0.3"/>
  <path d="M31.8,-61.3L32.2,-61.2L32.4,-61.6L32.7,-61.5L33.8,-61.6L34.4,-60.7L34.1,-60.4L34.2,-59.9L35.0,-59.8L35.4,-59.1L35.4,-58.8L36.6,-58.3L37.4,-58.5L38.0,-57.8L38.6,-57.8L40.1,-57.3L40.1,-56.8L39.7,-56.0L39.9,-55.2L39.7,-54.7L38.8,-54.6L38.3,-54.2L38.2,-53.5L37.4,-53.4L36.8,-52.9L35.8,-52.9L35.0,-52.3L35.0,-51.5L34.9,-51.6L34.7,-51.9L34.4,-51.9L33.7,-52.2L33.4,-51.9L33.3,-52.0L31.7,-52.4L31.7,-52.9L30.7,-52.8L30.4,-52.0L29.6,-50.9L29.1,-51.2L28.7,-50.9L28.2,-51.2L28.5,-51.3L28.7,-51.8L28.9,-52.3L28.9,-52.6L29.1,-52.7L29.2,-52.5L29.8,-52.4L30.0,-52.5L29.8,-52.7L29.9,-52.9L29.6,-53.3L29.4,-53.9L29.1,-54.1L29.1,-54.6L28.7,-55.0L28.3,-55.1L27.5,-55.6L26.9,-55.4L26.6,-55.2L26.2,-55.2L25.9,-54.8L25.2,-54.7L24.9,-54.5L24.4,-54.8L23.8,-54.8L23.1,-55.0L22.7,-54.7L22.6,-55.1L22.1,-55.5L22.3,-56.1L22.6,-56.5L22.8,-56.4L22.5,-57.1L23.4,-58.4L23.9,-58.6L24.0,-59.0L23.5,-60.4L24.0,-60.5L24.6,-60.9L25.3,-60.9L26.3,-60.8L27.5,-60.4L28.2,-60.4L28.6,-60.2L29.0,-60.4L29.3,-60.1L30.2,-60.1L30.6,-60.0L30.6,-60.8L30.9,-61.2L31.8,-61.3Z" fill="#1e1e2e" stroke="#2a2a3a" stroke-width="0.3"/>
  <path d="M23.5,-64.3L23.5,-63.5L23.8,-62.9L23.8,-62.2L23.2,-61.9L23.5,-61.1L23.5,-60.4L24.0,-59.0L23.9,-58.6L23.4,-58.4L22.5,-57.1L22.8,-56.4L22.6,-56.5L21.6,-57.1L20.9,-56.9L20.4,-57.0L19.8,-56.7L19.3,-57.2L18.9,-57.0L18.9,-57.1L18.4,-57.9L17.6,-58.0L17.6,-58.5L16.9,-58.6L16.7,-58.2L16.2,-58.6L16.2,-59.0L15.5,-59.1L15.0,-59.6L14.6,-60.7L14.7,-61.2L14.4,-62.1L14.1,-62.7L14.4,-63.1L14.1,-64.0L14.8,-64.5L16.4,-65.3L17.6,-65.9L18.6,-65.6L18.7,-65.2L19.7,-65.1L20.9,-64.9L22.7,-65.0L23.2,-64.8L23.5,-64.3Z" fill="#1e1e2e" stroke="#2a2a3a" stroke-width="0.3"/>
  <path d="M26.5,-67.2L26.6,-66.4L25.8,-65.9L25.5,-64.9L24.5,-64.3L23.5,-64.3L23.2,-64.8L22.7,-65.0L22.7,-65.4L22.8,-65.9L22.3,-66.2L21.3,-66.5L21.1,-68.0L22.2,-68.5L23.9,-68.4L24.9,-68.6L25.0,-68.2L25.5,-68.1L26.5,-67.2Z" fill="#1e1e2e" stroke="#2a2a3a" stroke-width="0.3"/>
  <path d="M27.3,-70.6L27.8,-70.2L27.9,-69.3L28.2,-68.2L27.1,-67.5L26.5,-67.2L25.5,-68.1L25.0,-68.2L24.9,-68.6L23.9,-68.4L22.2,-68.5L21.1,-68.0L21.1,-69.3L21.6,-70.5L22.5,-71.1L23.3,-69.7L24.1,-69.8L24.3,-71.2L25.2,-71.5L25.6,-71.3L26.5,-70.6L27.3,-70.6Z" fill="#1e1e2e" stroke="#2a2a3a" stroke-width="0.3"/>
  <path d="M28.0,-74.4L28.0,-74.4L28.1,-74.1L27.4,-73.0L27.7,-71.2L27.3,-70.6L26.5,-70.6L25.6,-71.3L25.2,-71.5L24.3,-71.2L24.4,-72.3L24.1,-72.1L23.4,-72.7L23.3,-73.9L24.6,-74.4L25.9,-74.7L26.9,-74.4L28.0,-74.4L28.0,-74.4Z" fill="#1e1e2e" stroke="#2a2a3a" stroke-width="0.3"/>
  <path d="M14.1,-64.0L14.4,-63.1L14.1,-62.7L14.4,-62.1L14.7,-61.2L14.6,-60.7L15.0,-59.6L14.6,-59.5L14.3,-59.7L14.1,-59.4L13.3,-59.1L13.0,-58.7L12.2,-58.3L12.4,-57.9L12.5,-57.2L13.0,-56.8L13.6,-56.2L13.2,-55.5L12.9,-55.3L13.0,-54.3L12.9,-54.1L12.6,-54.4L12.1,-54.4L11.4,-54.2L10.5,-54.2L10.4,-53.8L9.9,-54.2L9.6,-54.2L8.5,-54.6L8.3,-54.3L7.5,-54.3L7.6,-55.4L8.1,-56.4L6.7,-56.7L6.2,-57.1L6.2,-57.8L6.0,-58.1L6.2,-59.2L6.0,-60.8L6.6,-60.8L6.8,-61.5L7.1,-63.0L6.9,-63.5L7.1,-63.9L7.9,-64.0L8.1,-63.6L8.8,-64.4L8.6,-65.1L8.5,-66.1L9.3,-65.8L9.9,-66.1L9.9,-65.4L11.0,-65.0L10.9,-64.4L12.0,-64.7L12.5,-65.2L13.6,-64.5L14.1,-64.0Z" fill="#1e1e2e" stroke="#2a2a3a" stroke-width="0.3"/>
  <path d="M6.0,-58.1L6.2,-57.8L6.2,-57.1L5.9,-57.0L5.7,-57.2L5.8,-58.0L6.0,-58.1Z" fill="#1e1e2e" stroke="#2a2a3a" stroke-width="0.3"/>
  <path d="M6.2,-59.2L6.0,-58.1L5.8,-58.0L5.7,-57.2L4.8,-57.9L4.3,-57.8L3.6,-58.5L3.1,-59.1L2.7,-59.2L2.5,-59.7L3.3,-60.0L3.3,-60.0L3.3,-60.0L4.0,-59.9L5.0,-60.2L5.6,-59.5L6.2,-59.2Z" fill="#1e1e2e" stroke="#2a2a3a" stroke-width="0.3"/>
  <path d="M6.9,-63.5L7.1,-63.0L6.8,-61.5L6.6,-60.8L6.0,-60.8L6.2,-59.2L5.6,-59.5L5.0,-60.2L4.0,-59.9L3.3,-60.0L3.3,-60.0L3.8,-60.5L4.7,-62.9L6.1,-63.6L6.9,-63.5Z" fill="#1e1e2e" stroke="#2a2a3a" stroke-width="0.3"/>
  <path d="M9.9,-66.1L9.3,-65.8L8.5,-66.1L8.1,-67.0L8.1,-68.9L8.3,-69.4L8.5,-69.9L9.4,-70.0L9.8,-70.5L10.6,-71.1L10.5,-70.1L10.3,-69.5L10.4,-69.0L10.9,-68.7L10.7,-68.0L10.4,-68.2L9.6,-67.0L9.9,-66.1ZM12.4,-68.1L12.7,-67.2L12.1,-65.8L11.0,-66.8L10.9,-67.5L12.4,-68.1Z" fill="#1e1e2e" stroke="#2a2a3a" stroke-width="0.3"/>
  <path d="M15.0,-59.6L15.5,-59.1L16.2,-59.0L16.2,-58.6L16.7,-58.2L16.9,-58.6L17.6,-58.5L17.6,-58.0L18.4,-57.9L18.9,-57.1L18.6,-57.1L18.4,-56.8L18.2,-56.8L18.1,-56.4L17.9,-56.4L17.9,-56.2L17.5,-56.1L17.1,-56.1L17.0,-55.8L16.5,-56.0L16.0,-56.0L15.3,-56.4L14.9,-56.3L14.3,-55.7L13.6,-56.2L13.0,-56.8L12.5,-57.2L12.4,-57.9L12.2,-58.3L13.0,-58.7L13.3,-59.1L14.1,-59.4L14.3,-59.7L14.6,-59.5L15.0,-59.6Z" fill="#1e1e2e" stroke="#2a2a3a" stroke-width="0.3"/>
  <path d="M28.6,-96.8L28.4,-94.8L30.0,-93.0L29.1,-91.1L30.2,-88.3L29.5,-86.2L30.4,-84.5L30.0,-83.0L31.5,-81.5L31.1,-80.3L30.2,-79.1L28.1,-76.5L28.1,-76.5L28.1,-76.5L26.3,-76.3L24.5,-75.6L22.9,-75.1L22.3,-76.2L21.3,-76.9L21.5,-79.0L21.1,-80.9L21.5,-82.2L22.4,-83.6L24.7,-86.1L25.4,-86.6L25.3,-87.6L23.9,-88.7L23.6,-89.7L23.5,-93.7L22.0,-95.5L20.6,-96.9L21.2,-97.6L22.4,-96.1L23.7,-96.3L24.7,-95.6L25.7,-96.8L26.2,-98.9L27.7,-99.9L29.0,-98.8L28.6,-96.8Z" fill="#00e5ff" stroke="#00c4dd" stroke-width="0.4" fill-opacity="0.9"/>
</svg>