<svg xmlns="http://www.w3.org/2000/svg" viewBox="6.80 -4.33 9.63 10.31" width="300" height="300" preserveAspectRatio="xMidYMid meet">
  <path d="M11.28,-2.26L11.75,-2.33L12.36,-2.19L12.95,-2.32L13.08,-2.27L13.00,-1.83L13.28,-1.31L14.03,-1.40L14.28,-1.20L13.84,-0.04L14.32,0.55L14.43,1.33L14.30,2.00L13.99,2.47L13.11,2.43L12.58,1.95L12.50,2.39L11.82,2.51L11.48,2.77L11.86,3.43L11.09,3.98L10.07,2.97L9.41,2.14L8.80,1.11L8.83,0.78L9.05,0.46L9.29,-0.27L9.49,-1.01L9.83,-1.07L11.29,-1.06L11.28,-2.26Z" fill="#00e5ff" stroke="#00e5ff" stroke-width="0.5" fill-opacity="0.8"/>
</svg>