<svg xmlns="http://www.w3.org/2000/svg" viewBox="3.99 -56.98 13.03 11.68" width="300" height="300" preserveAspectRatio="xMidYMid meet">
  <path d="M14.12,-53.76L14.35,-53.25L14.07,-52.98L14.44,-52.62L14.69,-52.09L14.61,-51.75L15.02,-51.11L14.57,-51.00L14.31,-51.12L14.06,-50.93L13.34,-50.73L12.97,-50.48L12.24,-50.27L12.42,-49.97L12.52,-49.55L13.03,-49.31L13.60,-48.88L13.24,-48.42L12.88,-48.29L13.03,-47.64L12.93,-47.47L12.62,-47.67L12.14,-47.70L11.43,-47.52L10.54,-47.57L10.40,-47.30L9.90,-47.58L9.59,-47.53L8.52,-47.83L8.32,-47.61L7.47,-47.62L7.59,-48.33L8.10,-49.02L6.66,-49.20L6.19,-49.46L6.24,-49.90L6.04,-50.13L6.16,-50.80L5.99,-51.85L6.59,-51.85L6.84,-52.23L7.09,-53.14L6.91,-53.48L7.10,-53.69L7.94,-53.75L8.12,-53.53L8.80,-54.02L8.57,-54.40L8.53,-54.96L9.28,-54.83L9.92,-54.98L9.94,-54.60L10.95,-54.36L10.94,-54.01L11.96,-54.20L12.52,-54.47L13.65,-54.08L14.12,-53.76Z" fill="#00e5ff" stroke="#00e5ff" stroke-width="0.5" fill-opacity="0.8"/>
</svg>