<svg xmlns="http://www.w3.org/2000/svg" viewBox="5.2 -61.1 36.5 38.8" width="400" height="300" preserveAspectRatio="xMidYMid meet">
  <rect x="5.2" y="-61.1" width="36.5" height="38.8" fill="#0e0e18"/>
  <path d="M24.6,-8.3L23.8,-8.7L23.5,-9.0L23.4,-9.3L23.6,-9.7L23.6,-10.1L23.0,-10.8L22.9,-11.2L22.9,-11.5L22.5,-11.8L22.5,-12.4L22.3,-12.7L21.9,-12.7L22.0,-13.1L22.3,-13.5L22.2,-13.9L22.5,-14.2L22.3,-14.5L22.6,-15.1L23.0,-15.9L23.9,-15.8L23.8,-20.0L23.9,-20.4L25.0,-20.4L25.0,-22.6L29.0,-22.6L32.9,-22.6L36.9,-22.6L37.2,-21.5L37.0,-21.3L37.1,-20.2L37.5,-19.0L37.9,-18.7L38.4,-18.3L37.9,-17.7L37.2,-17.5L36.9,-17.2L36.8,-16.5L36.3,-15.0L36.4,-14.6L36.3,-13.7L35.9,-12.7L35.3,-12.2L34.8,-11.4L34.7,-11.0L34.3,-10.7L34.0,-9.6L34.0,-8.7L34.0,-9.5L33.8,-9.5L33.8,-10.0L33.7,-10.4L33.2,-10.8L33.1,-11.5L33.2,-12.3L32.7,-12.3L32.7,-12.1L32.1,-12.1L32.3,-11.8L32.4,-11.2L31.9,-10.6L31.4,-9.9L30.8,-9.8L30.0,-10.3L29.6,-10.1L29.5,-9.8L29.0,-9.6L29.0,-9.4L28.0,-9.4L27.8,-9.6L27.1,-9.7L26.8,-9.5L26.5,-9.6L26.0,-10.2L25.8,-10.5L25.1,-10.3L24.8,-9.9L24.5,-9.0L24.2,-8.8L23.9,-8.7L24.6,-8.3Z" fill="#1e1e2e" stroke="#2a2a3a" stroke-width="0.3"/>
  <path d="M23.8,-20.0L23.9,-15.8L23.0,-15.9L22.6,-15.1L22.3,-14.5L22.5,-14.2L22.2,-13.9L22.3,-13.5L22.0,-13.1L21.9,-12.7L22.3,-12.7L22.5,-12.4L22.5,-11.8L22.9,-11.5L22.9,-11.2L22.2,-11.0L21.7,-10.6L21.0,-9.5L20.1,-9.1L19.1,-9.1L18.8,-9.0L18.9,-8.7L18.4,-8.3L18.0,-7.9L16.7,-7.5L16.5,-7.8L16.3,-7.8L16.1,-7.5L15.3,-7.4L15.4,-7.7L15.1,-8.4L15.0,-8.8L14.5,-9.0L14.0,-9.6L14.2,-10.1L14.6,-10.0L14.9,-10.0L15.5,-10.0L14.9,-11.0L15.0,-11.6L14.9,-12.3L14.5,-13.0L14.6,-13.5L14.0,-13.5L14.0,-14.1L13.5,-14.5L14.0,-15.9L15.2,-16.9L15.3,-18.2L15.7,-20.4L15.9,-20.8L15.5,-21.2L15.5,-21.5L15.1,-21.8L14.9,-23.5L15.9,-24.1L19.8,-22.0L23.8,-20.0Z" fill="#1e1e2e" stroke="#2a2a3a" stroke-width="0.3"/>
  <path d="M178.7,-102.7L180.0,-104.0L180.0,-101.9L178.9,-101.8L178.7,-102.7ZM49.1,-52.5L48.6,-51.6L47.7,-51.4L46.7,-49.9L47.6,-48.6L47.5,-47.7L48.6,-46.1L48.6,-46.1L48.0,-45.6L47.8,-45.2L47.4,-45.3L46.7,-46.1L46.4,-46.2L45.8,-46.5L45.5,-47.0L44.5,-47.3L43.9,-47.1L43.8,-47.4L42.4,-48.0L40.9,-48.2L40.1,-48.5L40.0,-48.3L38.7,-49.5L37.5,-50.0L36.7,-50.8L37.4,-51.1L38.2,-52.3L37.7,-52.8L39.1,-53.4L39.1,-53.8L38.2,-53.5L38.3,-54.2L38.8,-54.6L39.7,-54.7L39.9,-55.2L39.7,-56.0L40.1,-56.8L40.1,-57.3L38.6,-57.8L38.0,-57.8L37.4,-58.5L36.6,-58.3L35.4,-58.8L35.4,-59.1L35.0,-59.8L34.2,-59.9L34.1,-60.4L34.4,-60.7L33.8,-61.6L32.7,-61.5L32.4,-61.6L32.2,-61.2L31.8,-61.3L31.8,-61.3L31.5,-62.3L31.3,-62.9L31.5,-63.0L32.3,-63.0L32.7,-63.3L32.4,-63.8L31.7,-64.1L31.8,-64.4L31.4,-64.7L30.8,-65.8L31.0,-66.3L30.9,-67.1L29.9,-67.5L29.4,-67.3L29.2,-67.8L28.2,-68.2L27.9,-69.3L27.8,-70.2L27.3,-70.6L27.7,-71.2L27.4,-73.0L28.1,-74.1L28.0,-74.4L28.0,-74.4L29.1,-75.5L28.1,-76.5L28.1,-76.5L30.2,-79.1L31.1,-80.3L31.5,-81.5L30.0,-83.0L30.4,-84.5L29.5,-86.2L30.2,-88.3L29.1,-91.1L30.0,-93.0L28.4,-94.8L28.6,-96.8L29.4,-97.0L31.1,-98.2L31.1,-98.2L32.1,-99.2L33.8,-97.4L36.5,-96.8L40.3,-93.7L41.1,-92.4L41.1,-90.7L40.0,-89.4L38.4,-88.7L33.9,-90.6L33.2,-90.3L34.8,-88.5L34.9,-87.4L34.9,-84.9L36.2,-84.2L37.0,-83.6L37.1,-84.8L36.5,-85.8L37.2,-86.7L39.6,-85.2L40.4,-85.8L39.8,-87.5L42.1,-89.9L43.0,-89.8L43.9,-88.9L44.5,-90.6L43.7,-92.1L44.2,-93.7L43.5,-95.4L46.3,-94.5L46.8,-93.0L45.6,-92.7L45.6,-91.3L46.3,-90.4L47.9,-90.9L48.1,-92.6L50.2,-93.8L53.7,-96.2L54.5,-96.0L53.5,-94.4L54.7,-94.1L55.4,-95.0L57.3,-95.1L58.8,-96.2L59.9,-94.6L61.1,-96.4L60.0,-98.0L60.5,-99.0L63.5,-98.1L64.9,-97.2L68.5,-94.1L69.2,-95.5L68.2,-97.0L68.1,-97.6L66.9,-97.9L67.3,-99.2L66.7,-101.5L66.7,-102.5L68.5,-105.4L69.2,-108.4L69.9,-109.0L72.6,-108.1L72.8,-106.3L71.8,-103.7L72.5,-102.7L72.8,-100.6L72.6,-96.6L73.7,-94.9L73.2,-93.2L71.3,-89.5L72.4,-89.2L72.8,-90.0L73.9,-90.7L74.2,-92.0L75.1,-93.2L74.5,-94.7L74.9,-96.5L73.8,-96.8L73.6,-98.4L74.4,-101.3L73.1,-103.8L74.9,-106.0L74.7,-108.3L75.2,-108.4L75.7,-106.6L75.3,-103.5L76.4,-102.9L75.9,-105.2L77.6,-106.5L79.7,-106.6L81.5,-104.8L80.6,-107.5L80.5,-111.2L82.3,-111.9L84.7,-111.7L86.8,-112.2L86.0,-114.1L87.2,-116.6L88.3,-116.7L90.3,-118.7L92.9,-119.2L93.2,-120.4L95.9,-120.7L96.7,-119.8L98.9,-122.0L100.8,-122.0L101.0,-123.8L102.0,-125.7L104.4,-127.6L106.1,-126.1L104.7,-125.0L107.0,-124.3L107.2,-122.2L108.2,-123.2L111.1,-123.2L113.3,-121.1L114.1,-119.5L113.9,-117.5L112.8,-116.3L110.2,-114.2L109.4,-113.1L110.6,-112.6L112.1,-111.7L113.0,-112.3L113.5,-110.1L114.0,-111.0L115.6,-111.5L118.8,-111.0L119.0,-109.3L123.2,-108.8L123.3,-111.5L125.4,-110.9L127.0,-110.9L128.6,-109.0L129.1,-106.9L128.5,-105.5L129.7,-103.0L131.3,-101.8L132.3,-105.1L133.9,-103.6L135.6,-104.5L137.5,-103.5L138.2,-104.4L139.9,-103.9L139.1,-106.9L140.5,-108.4L149.5,-106.2L150.4,-104.3L153.0,-101.9L157.0,-102.5L159.0,-102.0L159.8,-100.8L159.7,-98.6L160.9,-97.8L162.3,-98.4L164.1,-98.5L165.9,-97.9L167.8,-98.2L169.6,-95.7L170.8,-96.6L170.0,-98.4L170.5,-99.7L173.6,-98.9L175.7,-99.1L178.6,-97.7L180.0,-96.5L180.0,-86.3L180.0,-86.3L178.7,-85.2L177.4,-85.4L178.3,-84.2L178.9,-82.3L179.4,-81.7L179.5,-80.8L179.2,-80.2L177.4,-80.7L174.6,-79.1L173.7,-78.8L172.2,-77.4L170.7,-76.1L170.3,-75.2L168.9,-76.6L166.3,-75.0L165.8,-75.8L164.9,-74.9L163.5,-75.2L163.2,-73.9L162.0,-72.0L162.1,-71.3L163.2,-70.8L163.1,-68.2L162.1,-68.1L161.7,-66.6L162.1,-65.9L160.4,-65.0L160.0,-63.1L158.5,-62.7L158.2,-61.0L156.8,-59.5L156.4,-60.6L156.0,-63.0L155.4,-66.8L155.9,-69.3L156.8,-70.4L156.8,-71.3L158.4,-71.7L160.2,-74.1L161.9,-76.1L163.7,-77.8L164.5,-80.8L163.3,-80.6L162.7,-78.8L160.1,-76.6L159.3,-79.1L156.7,-78.4L154.2,-75.0L155.0,-73.8L152.8,-73.3L151.3,-73.1L151.3,-74.5L149.8,-74.8L148.5,-73.8L145.5,-74.1L142.2,-73.6L139.0,-69.9L135.1,-65.7L136.7,-65.4L137.2,-64.4L138.2,-64.0L138.8,-64.8L139.9,-64.7L141.3,-62.9L141.4,-61.5L140.6,-59.9L140.5,-58.0L140.1,-55.5L138.6,-53.4L138.2,-52.4L136.9,-50.7L135.5,-49.1L134.9,-48.3L133.5,-47.5L132.9,-47.4L132.3,-48.1L130.9,-47.1L130.8,-46.7L130.8,-46.7L130.8,-46.7L130.8,-46.7L130.6,-46.9L130.6,-46.9L130.6,-47.6L131.1,-47.6L131.3,-49.3L131.0,-50.5L131.9,-51.0L133.1,-50.7L133.8,-52.1L134.1,-53.7L134.5,-54.2L135.0,-55.6L133.4,-55.1L132.5,-54.5L131.0,-54.5L130.6,-56.0L129.4,-57.0L127.7,-57.5L127.3,-59.1L126.9,-60.0L126.6,-60.7L125.9,-62.4L125.1,-63.0L123.6,-63.5L122.2,-63.5L121.0,-63.1L120.2,-62.3L120.7,-61.9L120.7,-61.0L120.2,-60.5L119.3,-58.8L119.3,-58.1L117.9,-57.2L116.7,-57.7L115.5,-57.6L115.0,-58.1L114.4,-58.3L112.9,-57.2L111.6,-56.9L110.7,-56.6L109.4,-56.8L108.5,-56.8L107.9,-57.6L106.9,-58.3L105.9,-58.5L104.6,-58.3L103.7,-58.0L102.3,-58.7L102.1,-59.9L100.9,-60.3L100.0,-60.5L98.9,-61.2L97.8,-59.5L98.2,-58.6L97.3,-57.5L95.8,-57.9L94.8,-57.9L94.1,-58.7L93.1,-58.7L92.2,-59.2L90.7,-58.4L88.8,-57.1L87.8,-56.8L87.4,-56.7L86.8,-57.6L85.5,-57.4L85.1,-58.1L84.4,-58.4L83.9,-59.3L83.4,-59.6L81.9,-59.2L80.6,-60.1L80.0,-59.3L77.8,-63.4L76.5,-64.7L76.9,-65.3L74.4,-63.6L73.4,-63.5L73.5,-64.5L72.2,-65.1L71.2,-64.6L70.9,-66.4L69.1,-66.8L68.2,-66.1L65.7,-65.4L65.2,-65.0L61.4,-64.4L61.0,-63.8L61.7,-62.7L60.7,-62.3L60.9,-61.8L60.0,-61.0L61.6,-59.9L61.3,-59.2L59.9,-59.2L59.6,-58.8L58.4,-59.6L56.8,-59.5L55.7,-58.9L54.5,-59.5L52.3,-60.6L50.8,-60.6L48.7,-58.9L48.6,-57.7L47.5,-58.6L46.8,-56.9L47.0,-56.6L46.5,-55.5L47.3,-54.4L48.1,-54.5L48.7,-53.5L48.6,-52.7L49.1,-52.5ZM93.8,-145.8L95.9,-147.3L97.9,-144.1L100.2,-138.3L99.9,-133.5L97.8,-132.8L95.0,-134.3L93.3,-136.4L92.5,-140.4L91.2,-141.6L93.8,-145.8ZM102.8,-135.6L105.4,-132.6L105.1,-130.6L99.4,-128.7L101.3,-135.3L102.1,-135.9L102.8,-135.6ZM138.8,-120.7L141.5,-120.6L145.1,-118.4L144.3,-115.5L140.6,-115.6L139.0,-114.7L137.0,-117.2L137.5,-120.0L138.8,-120.7ZM148.2,-117.5L150.7,-116.5L149.6,-115.0L148.0,-115.3L146.1,-116.8L146.4,-118.1L148.2,-117.5ZM139.9,-110.2L140.8,-111.6L142.1,-111.9L143.5,-110.6L143.6,-109.6L142.1,-109.6L140.0,-110.0L139.9,-110.2ZM44.8,-143.1L46.8,-144.2L48.3,-144.3L48.5,-142.6L49.1,-144.1L50.0,-145.1L51.5,-143.8L51.1,-142.8L49.8,-142.0L48.9,-141.6L48.8,-140.6L47.6,-139.6L46.5,-141.0L47.1,-142.9L44.8,-143.1ZM22.7,-65.0L20.9,-64.9L19.7,-65.1L19.9,-65.9L21.3,-66.5L22.3,-66.2L22.8,-65.9L22.7,-65.4L22.7,-65.0ZM53.5,-111.5L55.9,-114.8L55.6,-116.5L57.9,-118.6L61.2,-121.2L64.5,-122.0L66.2,-123.6L68.2,-124.2L68.9,-122.5L68.2,-121.1L64.6,-119.1L61.6,-117.2L58.5,-113.6L57.0,-110.1L55.4,-106.8L55.6,-104.1L57.5,-101.6L56.9,-101.3L53.7,-101.7L53.4,-103.1L51.6,-103.9L51.5,-105.6L52.5,-106.3L52.4,-108.1L54.4,-111.1L53.5,-111.5ZM142.9,-63.9L143.3,-62.3L143.2,-60.7L143.6,-59.1L144.7,-56.3L143.2,-56.8L142.6,-54.7L143.5,-53.1L143.5,-52.1L142.7,-53.0L142.1,-51.9L141.9,-53.1L142.0,-54.5L141.9,-56.2L142.1,-57.3L142.2,-59.4L141.6,-61.0L141.7,-63.2L142.6,-64.0L142.2,-64.8L142.7,-65.0L142.9,-63.9ZM-174.9,-91.8L-175.0,-90.2L-174.3,-89.6L-174.6,-91.4L-171.9,-91.0L-169.9,-88.7L-170.9,-87.6L-172.5,-87.4L-172.6,-85.1L-173.0,-84.6L-173.9,-84.6L-174.7,-85.4L-176.0,-86.1L-176.2,-87.2L-177.2,-87.6L-178.4,-87.2L-178.9,-88.1L-178.7,-89.0L-179.9,-88.4L-179.4,-87.3L-180.0,-86.3L-180.0,-96.5L-177.6,-94.4L-174.9,-91.8ZM-178.7,-102.1L-180.0,-101.9L-180.0,-104.0L-179.9,-104.2L-179.0,-104.2L-177.6,-103.3L-177.7,-102.8L-178.7,-102.1ZM33.4,-51.9L33.7,-52.2L34.4,-51.9L34.7,-51.9L34.9,-51.6L35.0,-51.5L35.0,-51.4L35.5,-51.1L36.5,-51.2L36.3,-50.7L35.2,-50.4L33.9,-49.6L33.3,-49.9L33.5,-50.5L32.5,-51.0L32.6,-51.2L33.6,-51.7L33.4,-51.9Z" fill="#1e1e2e" stroke="#2a2a3a" stroke-width="0.3"/>
  <path d="M-51.7,-4.2L-52.2,-3.2L-52.6,-2.5L-52.9,-2.1L-53.4,-2.1L-53.6,-2.3L-53.8,-2.4L-54.1,-2.1L-54.5,-2.3L-54.3,-2.7L-54.2,-3.2L-54.0,-3.6L-54.4,-4.2L-54.5,-4.9L-54.0,-5.8L-53.6,-5.7L-52.9,-5.4L-51.8,-4.6L-51.7,-4.2ZM6.2,-57.1L6.7,-56.7L8.1,-56.4L7.6,-55.4L7.5,-54.3L7.2,-54.0L6.7,-54.2L6.8,-53.8L6.0,-53.0L6.0,-52.3L6.5,-52.5L6.8,-51.9L6.8,-51.5L7.1,-51.0L6.7,-50.5L7.0,-49.5L7.5,-49.3L7.4,-48.7L6.5,-47.9L4.6,-48.3L3.1,-47.8L3.0,-47.0L1.8,-46.8L0.7,-47.4L0.3,-47.1L-1.5,-47.8L-1.9,-48.3L-1.4,-49.1L-1.2,-51.9L-2.2,-53.5L-3.0,-54.2L-4.5,-54.8L-4.6,-55.9L-3.3,-56.2L-1.6,-55.8L-1.9,-57.6L-1.0,-56.9L1.3,-58.1L1.6,-59.4L2.5,-59.7L2.7,-59.2L3.1,-59.1L3.6,-58.5L4.3,-57.8L4.8,-57.9L5.7,-57.2L5.9,-57.0L6.2,-57.1ZM8.7,-47.2L9.4,-47.7L9.6,-46.6L9.2,-45.5L8.8,-45.8L8.5,-46.7L8.7,-47.2Z" fill="#1e1e2e" stroke="#2a2a3a" stroke-width="0.3"/>
  <path d="M14.9,-23.5L15.1,-21.8L15.5,-21.5L15.5,-21.2L15.9,-20.8L15.7,-20.4L15.3,-18.2L15.2,-16.9L14.0,-15.9L13.5,-14.5L14.0,-14.1L14.0,-13.5L14.6,-13.5L14.5,-13.0L14.2,-12.9L14.2,-12.6L14.0,-12.6L13.3,-13.7L13.1,-13.7L12.3,-13.2L11.5,-13.5L11.0,-13.5L10.7,-13.4L10.1,-13.4L9.5,-13.0L9.0,-12.9L7.8,-13.5L7.3,-13.2L6.8,-13.2L6.4,-13.6L5.4,-14.0L4.4,-13.9L4.1,-13.7L4.0,-13.1L3.7,-12.7L3.6,-11.7L2.8,-12.3L2.5,-12.3L2.2,-12.0L2.2,-12.7L1.0,-13.0L1.0,-13.5L0.4,-14.1L0.3,-14.6L0.4,-15.1L1.0,-15.1L1.4,-15.5L2.7,-15.6L3.6,-15.8L3.7,-16.4L4.3,-17.1L4.3,-19.5L5.7,-20.0L8.6,-22.1L12.0,-24.2L13.6,-23.7L14.1,-23.1L14.9,-23.5Z" fill="#1e1e2e" stroke="#2a2a3a" stroke-width="0.3"/>
  <path d="M35.7,-34.6L35.5,-34.3L35.2,-34.4L35.0,-33.6L35.2,-33.5L35.0,-33.4L34.9,-33.0L35.4,-33.2L35.4,-32.8L34.9,-30.9L34.8,-31.2L34.3,-32.9L34.3,-32.9L34.3,-32.9L34.6,-33.3L34.5,-33.3L34.8,-33.9L35.0,-34.8L35.1,-35.1L35.1,-35.1L35.5,-35.1L35.6,-35.3L35.8,-35.3L35.8,-34.8L35.7,-34.7L35.7,-34.6Z" fill="#1e1e2e" stroke="#2a2a3a" stroke-width="0.3"/>
  <path d="M35.8,-35.3L35.6,-35.3L35.5,-35.1L35.1,-35.1L35.5,-36.1L36.0,-36.9L36.0,-37.0L36.4,-36.9L36.6,-36.4L36.1,-36.0L35.8,-35.3Z" fill="#1e1e2e" stroke="#2a2a3a" stroke-width="0.3"/>
  <path d="M35.4,-33.2L34.9,-33.0L35.0,-33.4L35.2,-33.5L35.0,-33.6L35.2,-34.4L35.5,-34.3L35.5,-33.6L35.4,-33.2Z" fill="#1e1e2e" stroke="#2a2a3a" stroke-width="0.3"/>
  <path d="M9.5,-31.8L9.1,-33.9L8.4,-34.4L8.4,-34.7L7.6,-35.4L7.5,-36.3L8.1,-37.0L8.4,-38.0L8.2,-39.2L8.4,-39.8L9.5,-40.3L10.2,-40.2L10.2,-39.5L11.0,-40.0L11.1,-39.8L10.6,-39.1L10.6,-38.6L10.9,-38.3L10.8,-37.2L10.1,-36.6L10.3,-35.9L10.9,-35.9L11.1,-35.3L11.5,-35.2L11.4,-34.2L10.9,-33.9L10.6,-33.5L10.0,-33.1L10.1,-32.6L10.0,-32.1L9.5,-31.8Z" fill="#1e1e2e" stroke="#2a2a3a" stroke-width="0.3"/>
  <path d="M-8.7,-28.5L-8.7,-28.7L-8.7,-28.8L-8.7,-30.1L-7.1,-31.0L-6.1,-31.2L-5.2,-31.5L-4.9,-32.1L-3.7,-32.5L-3.6,-33.4L-3.1,-33.5L-2.6,-33.9L-1.3,-34.1L-1.1,-34.6L-1.4,-34.8L-1.7,-36.1L-1.8,-36.8L-2.2,-37.6L-1.2,-38.3L-0.1,-38.5L0.5,-39.0L1.5,-39.4L3.2,-39.6L4.8,-39.7L5.3,-39.5L6.3,-40.0L7.3,-40.0L7.7,-39.7L8.4,-39.8L8.2,-39.2L8.4,-38.0L8.1,-37.0L7.5,-36.3L7.6,-35.4L8.4,-34.7L8.4,-34.4L9.1,-33.9L9.5,-31.8L9.8,-30.8L9.9,-30.3L9.7,-29.3L9.8,-28.8L9.6,-28.2L9.7,-27.5L9.3,-27.0L9.9,-26.2L9.9,-25.8L10.3,-25.2L10.8,-25.4L11.6,-24.8L12.0,-24.2L8.6,-22.1L5.7,-20.0L4.3,-19.5L3.2,-19.4L3.1,-20.1L2.7,-20.3L2.1,-20.6L1.8,-21.1L-1.6,-23.4L-4.9,-25.8L-8.7,-28.5Z" fill="#1e1e2e" stroke="#2a2a3a" stroke-width="0.3"/>
  <path d="M35.5,-34.3L35.7,-34.6L36.8,-34.2L38.8,-35.4L39.2,-34.0L39.0,-33.8L37.0,-33.2L38.0,-32.1L37.7,-31.9L37.5,-31.5L36.7,-31.3L36.5,-30.9L36.1,-30.5L35.0,-30.7L34.9,-30.9L35.4,-32.8L35.4,-33.2L35.5,-33.6L35.5,-34.3Z" fill="#1e1e2e" stroke="#2a2a3a" stroke-width="0.3"/>
  <path d="M39.2,-34.0L38.8,-35.4L41.0,-36.7L41.4,-38.2L41.3,-39.1L41.8,-39.4L42.3,-40.2L42.8,-40.4L43.9,-40.2L44.3,-39.9L44.8,-40.1L45.4,-38.6L46.1,-38.2L46.2,-37.5L45.6,-37.1L45.4,-36.2L46.1,-35.0L47.3,-34.4L47.8,-33.5L47.7,-32.6L48.0,-32.6L48.0,-32.0L48.6,-31.4L48.0,-31.4L47.3,-31.5L46.6,-30.4L44.7,-30.5L41.9,-32.9L40.4,-33.7L39.2,-34.0Z" fill="#1e1e2e" stroke="#2a2a3a" stroke-width="0.3"/>
  <path d="M35.7,-34.6L35.7,-34.7L35.8,-34.8L35.8,-35.3L36.1,-36.0L36.6,-36.4L36.4,-36.9L36.0,-37.0L35.9,-37.9L36.1,-38.4L36.4,-38.7L36.7,-39.0L36.7,-39.6L37.1,-39.4L38.2,-39.8L38.7,-39.5L39.5,-39.5L40.7,-40.0L41.2,-40.0L42.3,-40.2L41.8,-39.4L41.3,-39.1L41.4,-38.2L41.0,-36.7L38.8,-35.4L36.8,-34.2L35.7,-34.6Z" fill="#1e1e2e" stroke="#2a2a3a" stroke-width="0.3"/>
  <path d="M28.2,-68.2L29.2,-67.8L29.4,-67.3L29.9,-67.5L30.9,-67.1L31.0,-66.3L30.8,-65.8L31.4,-64.7L31.8,-64.4L31.7,-64.1L32.4,-63.8L32.7,-63.3L32.3,-63.0L31.5,-63.0L31.3,-62.9L31.5,-62.3L31.8,-61.3L31.8,-61.3L30.9,-61.2L30.6,-60.8L30.6,-60.0L30.2,-60.1L29.3,-60.1L29.0,-60.4L28.6,-60.2L28.2,-60.4L27.5,-60.4L26.3,-60.8L25.3,-60.9L24.6,-60.9L24.0,-60.5L23.5,-60.4L23.5,-61.1L23.2,-61.9L23.8,-62.2L23.8,-62.9L23.5,-63.5L23.5,-64.3L24.5,-64.3L25.5,-64.9L25.8,-65.9L26.6,-66.4L26.5,-67.2L27.1,-67.5L28.2,-68.2Z" fill="#1e1e2e" stroke="#2a2a3a" stroke-width="0.3"/>
  <path d="M31.8,-61.3L32.2,-61.2L32.4,-61.6L32.7,-61.5L33.8,-61.6L34.4,-60.7L34.1,-60.4L34.2,-59.9L35.0,-59.8L35.4,-59.1L35.4,-58.8L36.6,-58.3L37.4,-58.5L38.0,-57.8L38.6,-57.8L40.1,-57.3L40.1,-56.8L39.7,-56.0L39.9,-55.2L39.7,-54.7L38.8,-54.6L38.3,-54.2L38.2,-53.5L37.4,-53.4L36.8,-52.9L35.8,-52.9L35.0,-52.3L35.0,-51.5L34.9,-51.6L34.7,-51.9L34.4,-51.9L33.7,-52.2L33.4,-51.9L33.3,-52.0L31.7,-52.4L31.7,-52.9L30.7,-52.8L30.4,-52.0L29.6,-50.9L29.1,-51.2L28.7,-50.9L28.2,-51.2L28.5,-51.3L28.7,-51.8L28.9,-52.3L28.9,-52.6L29.1,-52.7L29.2,-52.5L29.8,-52.4L30.0,-52.5L29.8,-52.7L29.9,-52.9L29.6,-53.3L29.4,-53.9L29.1,-54.1L29.1,-54.6L28.7,-55.0L28.3,-55.1L27.5,-55.6L26.9,-55.4L26.6,-55.2L26.2,-55.2L25.9,-54.8L25.2,-54.7L24.9,-54.5L24.4,-54.8L23.8,-54.8L23.1,-55.0L22.7,-54.7L22.6,-55.1L22.1,-55.5L22.3,-56.1L22.6,-56.5L22.8,-56.4L22.5,-57.1L23.4,-58.4L23.9,-58.6L24.0,-59.0L23.5,-60.4L24.0,-60.5L24.6,-60.9L25.3,-60.9L26.3,-60.8L27.5,-60.4L28.2,-60.4L28.6,-60.2L29.0,-60.4L29.3,-60.1L30.2,-60.1L30.6,-60.0L30.6,-60.8L30.9,-61.2L31.8,-61.3Z" fill="#1e1e2e" stroke="#2a2a3a" stroke-width="0.3"/>
  <path d="M23.5,-64.3L23.5,-63.5L23.8,-62.9L23.8,-62.2L23.2,-61.9L23.5,-61.1L23.5,-60.4L24.0,-59.0L23.9,-58.6L23.4,-58.4L22.5,-57.1L22.8,-56.4L22.6,-56.5L21.6,-57.1L20.9,-56.9L20.4,-57.0L19.8,-56.7L19.3,-57.2L18.9,-57.0L18.9,-57.1L18.4,-57.9L17.6,-58.0L17.6,-58.5L16.9,-58.6L16.7,-58.2L16.2,-58.6L16.2,-59.0L15.5,-59.1L15.0,-59.6L14.6,-60.7L14.7,-61.2L14.4,-62.1L14.1,-62.7L14.4,-63.1L14.1,-64.0L14.8,-64.5L16.4,-65.3L17.6,-65.9L18.6,-65.6L18.7,-65.2L19.7,-65.1L20.9,-64.9L22.7,-65.0L23.2,-64.8L23.5,-64.3Z" fill="#1e1e2e" stroke="#2a2a3a" stroke-width="0.3"/>
  <path d="M17.0,-55.0L16.9,-54.4L16.3,-54.4L16.5,-54.1L16.2,-53.2L16.0,-52.9L15.1,-52.9L14.6,-52.5L13.8,-52.7L12.4,-53.0L12.2,-53.5L11.2,-53.3L11.0,-53.0L10.4,-53.2L9.9,-53.3L9.5,-53.5L9.6,-53.9L9.6,-54.2L9.9,-54.2L10.4,-53.8L10.5,-54.2L11.4,-54.2L12.1,-54.4L12.6,-54.4L12.9,-54.1L13.0,-54.3L12.9,-55.3L13.2,-55.5L13.6,-56.2L14.3,-55.7L14.9,-56.3L15.3,-56.4L16.0,-56.0L16.5,-56.0L17.0,-55.8L16.9,-55.6L17.0,-55.0Z" fill="#1e1e2e" stroke="#2a2a3a" stroke-width="0.3"/>
  <path d="M22.1,-55.5L22.6,-55.1L22.7,-54.7L22.1,-54.4L21.6,-53.4L21.0,-52.4L20.2,-52.1L19.6,-52.2L18.8,-51.8L18.8,-51.8L18.5,-51.6L17.6,-51.9L16.9,-52.5L16.6,-52.7L16.4,-53.1L16.2,-53.2L16.5,-54.1L16.3,-54.4L16.9,-54.4L17.0,-55.0L17.5,-54.7L17.9,-54.5L18.7,-54.7L18.8,-55.0L19.2,-55.0L19.7,-55.3L19.8,-55.2L20.2,-55.3L20.5,-55.7L20.8,-55.8L21.9,-55.3L22.1,-55.5Z" fill="#1e1e2e" stroke="#2a2a3a" stroke-width="0.3"/>
  <path d="M26.6,-55.2L26.9,-55.4L27.5,-55.6L28.3,-55.1L28.7,-55.0L29.1,-54.6L29.1,-54.1L29.4,-53.9L29.6,-53.3L29.9,-52.9L29.8,-52.7L30.0,-52.5L29.8,-52.4L29.2,-52.5L29.1,-52.7L28.9,-52.6L28.9,-52.3L28.7,-51.8L28.5,-51.3L28.2,-51.2L28.1,-51.8L28.2,-52.5L28.1,-53.1L27.6,-54.0L27.2,-54.6L26.9,-55.0L26.6,-55.2Z" fill="#1e1e2e" stroke="#2a2a3a" stroke-width="0.3"/>
  <path d="M28.2,-51.2L28.7,-50.9L29.1,-51.2L29.6,-50.9L29.6,-50.5L29.1,-50.2L28.8,-50.4L28.6,-48.7L28.0,-48.8L27.2,-49.3L26.1,-49.0L25.6,-48.7L24.1,-48.7L23.3,-49.0L22.9,-48.9L22.7,-49.4L22.5,-49.7L22.7,-49.9L22.5,-50.1L22.1,-49.8L21.6,-50.2L21.5,-50.8L20.9,-51.1L20.8,-51.5L20.2,-52.1L21.0,-52.4L21.6,-53.4L22.1,-54.4L22.7,-54.7L23.1,-55.0L23.8,-54.8L24.4,-54.8L24.9,-54.5L25.2,-54.7L25.9,-54.8L26.2,-55.2L26.6,-55.2L26.9,-55.0L27.2,-54.6L27.6,-54.0L28.1,-53.1L28.2,-52.5L28.1,-51.8L28.2,-51.2Z" fill="#1e1e2e" stroke="#2a2a3a" stroke-width="0.3"/>
  <path d="M14.1,-64.0L14.4,-63.1L14.1,-62.7L14.4,-62.1L14.7,-61.2L14.6,-60.7L15.0,-59.6L14.6,-59.5L14.3,-59.7L14.1,-59.4L13.3,-59.1L13.0,-58.7L12.2,-58.3L12.4,-57.9L12.5,-57.2L13.0,-56.8L13.6,-56.2L13.2,-55.5L12.9,-55.3L13.0,-54.3L12.9,-54.1L12.6,-54.4L12.1,-54.4L11.4,-54.2L10.5,-54.2L10.4,-53.8L9.9,-54.2L9.6,-54.2L8.5,-54.6L8.3,-54.3L7.5,-54.3L7.6,-55.4L8.1,-56.4L6.7,-56.7L6.2,-57.1L6.2,-57.8L6.0,-58.1L6.2,-59.2L6.0,-60.8L6.6,-60.8L6.8,-61.5L7.1,-63.0L6.9,-63.5L7.1,-63.9L7.9,-64.0L8.1,-63.6L8.8,-64.4L8.6,-65.1L8.5,-66.1L9.3,-65.8L9.9,-66.1L9.9,-65.4L11.0,-65.0L10.9,-64.4L12.0,-64.7L12.5,-65.2L13.6,-64.5L14.1,-64.0Z" fill="#1e1e2e" stroke="#2a2a3a" stroke-width="0.3"/>
  <path d="M22.7,-49.4L22.9,-48.9L23.3,-49.0L24.1,-48.7L25.6,-48.7L26.1,-49.0L27.2,-49.3L28.0,-48.8L28.6,-48.7L28.0,-48.1L27.7,-47.1L28.0,-46.4L27.1,-46.6L26.1,-46.1L26.1,-45.5L25.2,-45.3L24.5,-45.8L23.7,-45.4L23.0,-45.5L22.9,-46.4L22.4,-46.8L22.5,-47.0L22.4,-47.1L22.6,-47.6L23.0,-48.0L22.5,-48.6L22.4,-49.1L22.7,-49.4Z" fill="#1e1e2e" stroke="#2a2a3a" stroke-width="0.3"/>
  <path d="M44.8,-40.1L44.3,-39.9L43.9,-40.2L42.8,-40.4L42.3,-40.2L41.2,-40.0L40.7,-40.0L39.5,-39.5L38.7,-39.5L38.2,-39.8L37.1,-39.4L36.7,-39.6L36.7,-39.0L36.4,-38.7L36.1,-38.4L35.8,-39.0L36.2,-39.4L35.6,-39.3L34.7,-39.6L34.0,-38.9L32.5,-38.8L31.7,-39.4L30.6,-39.5L30.4,-39.0L29.7,-38.8L28.7,-39.5L27.6,-39.5L27.0,-40.7L26.3,-41.4L26.8,-42.4L26.2,-43.0L27.3,-44.3L28.8,-44.3L29.2,-45.3L31.1,-45.1L32.3,-46.0L33.5,-46.4L35.2,-46.4L36.9,-45.5L38.3,-45.0L39.5,-45.2L40.4,-45.0L41.6,-45.7L42.6,-45.8L43.6,-45.1L43.8,-44.7L43.7,-44.0L44.4,-43.7L44.8,-43.3L44.1,-43.0L44.4,-41.5L44.2,-41.1L44.8,-40.1L44.8,-40.1ZM26.1,-46.1L27.1,-46.6L28.0,-46.4L28.1,-45.9L29.0,-45.4L28.8,-45.1L27.6,-45.0L27.2,-44.6L26.4,-43.9L26.0,-44.5L26.1,-44.8L26.3,-44.9L26.6,-45.8L26.1,-46.1Z" fill="#1e1e2e" stroke="#2a2a3a" stroke-width="0.3"/>
  <path d="M21.0,-44.8L21.0,-44.5L20.7,-44.3L20.6,-43.9L20.2,-43.2L20.0,-43.3L20.0,-43.6L19.4,-44.0L19.3,-44.7L19.4,-45.6L19.5,-46.0L19.4,-46.2L19.4,-46.2L19.3,-46.6L19.7,-47.3L19.8,-47.0L20.1,-47.2L20.3,-46.8L20.5,-46.7L20.6,-46.2L20.6,-46.2L20.5,-45.7L20.6,-45.1L21.0,-44.8Z" fill="#1e1e2e" stroke="#2a2a3a" stroke-width="0.3"/>
  <path d="M16.6,-52.7L16.9,-52.5L17.6,-51.9L18.5,-51.6L18.8,-51.8L19.1,-51.2L19.4,-50.8L19.0,-50.3L18.6,-50.6L17.9,-50.6L17.0,-50.8L16.5,-50.8L16.3,-50.5L16.0,-50.8L15.8,-50.2L16.2,-49.6L16.5,-49.2L16.9,-48.6L17.3,-48.3L17.7,-47.8L18.6,-47.2L18.5,-47.0L18.5,-47.0L17.5,-47.5L16.9,-48.0L16.0,-48.4L15.2,-49.4L15.4,-49.5L14.9,-50.1L14.9,-50.6L14.3,-50.8L14.0,-50.2L13.7,-50.7L13.7,-51.2L13.7,-51.2L14.4,-51.2L14.6,-51.4L14.9,-51.2L15.3,-51.1L15.3,-51.5L15.7,-51.7L15.8,-52.3L16.6,-52.7Z" fill="#1e1e2e" stroke="#2a2a3a" stroke-width="0.3"/>
  <path d="M9.6,-54.2L9.6,-53.9L9.5,-53.5L9.9,-53.3L10.4,-53.2L10.4,-52.6L9.9,-52.4L9.2,-52.6L9.0,-52.0L8.5,-51.9L8.3,-52.2L7.8,-51.7L7.3,-51.6L6.8,-51.9L6.5,-52.5L6.0,-52.3L6.0,-53.0L6.8,-53.8L6.7,-54.2L7.2,-54.0L7.5,-54.3L8.3,-54.3L8.5,-54.6L9.6,-54.2Z" fill="#1e1e2e" stroke="#2a2a3a" stroke-width="0.3"/>
  <path d="M6.0,-58.1L6.2,-57.8L6.2,-57.1L5.9,-57.0L5.7,-57.2L5.8,-58.0L6.0,-58.1Z" fill="#1e1e2e" stroke="#2a2a3a" stroke-width="0.3"/>
  <path d="M6.2,-59.2L6.0,-58.1L5.8,-58.0L5.7,-57.2L4.8,-57.9L4.3,-57.8L3.6,-58.5L3.1,-59.1L2.7,-59.2L2.5,-59.7L3.3,-60.0L3.3,-60.0L3.3,-60.0L4.0,-59.9L5.0,-60.2L5.6,-59.5L6.2,-59.2Z" fill="#1e1e2e" stroke="#2a2a3a" stroke-width="0.3"/>
  <path d="M6.9,-63.5L7.1,-63.0L6.8,-61.5L6.6,-60.8L6.0,-60.8L6.2,-59.2L5.6,-59.5L5.0,-60.2L4.0,-59.9L3.3,-60.0L3.3,-60.0L3.8,-60.5L4.7,-62.9L6.1,-63.6L6.9,-63.5Z" fill="#1e1e2e" stroke="#2a2a3a" stroke-width="0.3"/>
  <path d="M10.4,-53.2L11.0,-53.0L11.2,-53.3L12.2,-53.5L12.4,-53.0L13.8,-52.7L13.7,-51.9L13.9,-51.3L13.1,-51.5L12.3,-51.0L12.4,-50.3L12.3,-49.9L12.6,-49.2L13.5,-48.5L14.0,-47.4L15.1,-46.3L15.9,-46.3L16.2,-46.0L15.9,-45.7L16.8,-45.3L17.5,-44.9L18.4,-44.2L18.5,-43.9L18.3,-43.5L17.7,-44.1L16.9,-44.3L16.4,-43.4L17.2,-43.0L17.1,-42.3L16.6,-42.2L16.1,-41.1L15.7,-41.0L15.7,-41.4L15.9,-42.1L16.1,-42.4L15.7,-43.1L15.4,-43.8L15.0,-43.9L14.7,-44.5L14.1,-44.7L13.6,-45.3L12.9,-45.4L12.1,-46.0L11.2,-46.8L10.5,-47.6L10.2,-49.0L9.7,-49.1L8.9,-49.6L8.4,-49.4L7.9,-48.8L7.4,-48.7L7.5,-49.3L7.0,-49.5L6.7,-50.5L7.1,-51.0L6.8,-51.5L6.8,-51.9L7.3,-51.6L7.8,-51.7L8.3,-52.2L8.5,-51.9L9.0,-52.0L9.2,-52.6L9.9,-52.4L10.4,-52.6L10.4,-53.2ZM14.8,-41.3L15.5,-41.4L15.2,-40.4L15.3,-40.0L15.1,-39.4L14.3,-39.9L13.8,-40.0L12.4,-40.6L12.6,-41.3L13.7,-41.2L14.8,-41.3ZM8.7,-44.9L9.2,-45.3L9.8,-44.4L9.7,-42.6L9.2,-42.7L8.8,-42.3L8.4,-42.6L8.4,-44.2L8.2,-45.0L8.7,-44.9Z" fill="#1e1e2e" stroke="#2a2a3a" stroke-width="0.3"/>
  <path d="M40.0,-48.3L40.1,-48.5L40.9,-48.2L42.4,-48.0L43.8,-47.4L43.9,-47.1L44.5,-47.3L45.5,-47.0L45.8,-46.5L46.4,-46.2L46.1,-46.0L46.6,-45.3L46.5,-45.1L46.0,-45.2L45.2,-45.6L45.0,-45.4L43.6,-45.1L42.6,-45.8L41.6,-45.7L41.7,-46.3L41.5,-47.2L40.9,-47.7L40.3,-47.9L40.0,-48.3Z" fill="#1e1e2e" stroke="#2a2a3a" stroke-width="0.3"/>
  <path d="M13.8,-52.7L14.6,-52.5L15.1,-52.9L16.0,-52.9L16.2,-53.2L16.4,-53.1L16.6,-52.7L15.8,-52.3L15.7,-51.7L15.3,-51.5L15.3,-51.1L14.9,-51.2L14.6,-51.4L14.4,-51.2L13.7,-51.2L13.9,-51.3L13.7,-51.9L13.8,-52.7Z" fill="#1e1e2e" stroke="#2a2a3a" stroke-width="0.3"/>
  <path d="M22.6,-56.5L22.3,-56.1L22.1,-55.5L21.9,-55.3L20.8,-55.8L20.5,-55.7L20.2,-55.3L19.8,-55.2L19.7,-55.3L19.2,-55.0L18.8,-55.0L18.7,-54.7L17.9,-54.5L17.5,-54.7L17.0,-55.0L16.9,-55.6L17.0,-55.8L17.1,-56.1L17.5,-56.1L17.9,-56.2L17.9,-56.4L18.1,-56.4L18.2,-56.8L18.4,-56.8L18.6,-57.1L18.9,-57.1L18.9,-57.0L19.3,-57.2L19.8,-56.7L20.4,-57.0L20.9,-56.9L21.6,-57.1L22.6,-56.5Z" fill="#1e1e2e" stroke="#2a2a3a" stroke-width="0.3"/>
  <path d="M15.0,-59.6L15.5,-59.1L16.2,-59.0L16.2,-58.6L16.7,-58.2L16.9,-58.6L17.6,-58.5L17.6,-58.0L18.4,-57.9L18.9,-57.1L18.6,-57.1L18.4,-56.8L18.2,-56.8L18.1,-56.4L17.9,-56.4L17.9,-56.2L17.5,-56.1L17.1,-56.1L17.0,-55.8L16.5,-56.0L16.0,-56.0L15.3,-56.4L14.9,-56.3L14.3,-55.7L13.6,-56.2L13.0,-56.8L12.5,-57.2L12.4,-57.9L12.2,-58.3L13.0,-58.7L13.3,-59.1L14.1,-59.4L14.3,-59.7L14.6,-59.5L15.0,-59.6Z" fill="#1e1e2e" stroke="#2a2a3a" stroke-width="0.3"/>
  <path d="M35.0,-30.7L36.1,-30.5L36.5,-30.9L36.7,-31.3L37.5,-31.5L37.7,-31.9L38.0,-32.1L37.0,-33.2L39.0,-33.8L39.2,-34.0L40.4,-33.7L41.9,-32.9L44.7,-30.5L46.6,-30.4L47.5,-30.3L47.7,-29.8L48.4,-29.8L48.8,-28.8L49.3,-28.6L49.5,-28.2L50.2,-27.7L50.2,-27.2L50.1,-26.9L50.2,-26.5L50.5,-26.2L50.7,-25.8L50.8,-25.6L51.1,-25.3L51.4,-25.4L51.6,-25.0L51.6,-24.7L52.0,-23.6L55.0,-23.1L55.2,-23.3L55.7,-22.6L55.0,-20.4L52.0,-19.4L49.1,-19.0L48.2,-18.5L47.5,-17.4L47.0,-17.2L46.7,-17.6L46.4,-17.5L45.4,-17.6L45.2,-17.7L44.1,-17.7L43.8,-17.6L43.4,-17.9L43.1,-17.3L43.2,-16.9L42.8,-16.6L42.6,-17.0L42.3,-17.3L42.3,-17.8L41.8,-18.1L41.2,-19.0L40.9,-19.9L40.2,-20.6L39.8,-20.8L39.1,-21.8L39.0,-22.5L39.1,-23.2L38.5,-24.4L38.0,-24.8L37.5,-25.0L37.2,-25.7L37.2,-25.9L36.9,-26.5L36.6,-26.7L36.2,-27.6L35.6,-28.5L35.1,-29.3L34.6,-29.3L34.8,-29.9L34.8,-30.3L35.0,-30.7Z" fill="#1e1e2e" stroke="#2a2a3a" stroke-width="0.3"/>
  <path d="M32.7,-37.6L32.8,-37.6L32.9,-37.9L33.7,-37.9L34.6,-38.2L33.9,-37.7L34.0,-37.5L33.9,-37.5L33.7,-37.4L33.5,-37.5L33.5,-37.4L33.5,-37.5L33.4,-37.6L33.2,-37.6L32.9,-37.5L32.7,-37.6Z" fill="#1e1e2e" stroke="#2a2a3a" stroke-width="0.3"/>
  <path d="M32.7,-37.6L32.9,-37.5L33.2,-37.6L33.4,-37.6L33.5,-37.5L33.5,-37.4L33.5,-37.5L33.7,-37.4L33.9,-37.5L34.0,-37.5L34.0,-37.4L33.0,-36.9L32.5,-37.0L32.3,-37.5L32.7,-37.6Z" fill="#1e1e2e" stroke="#2a2a3a" stroke-width="0.3"/>
  <path d="M36.9,-22.6L32.9,-22.6L29.0,-22.6L25.0,-22.6L25.0,-26.6L25.0,-30.6L24.7,-31.5L25.0,-32.2L24.8,-32.7L25.2,-33.3L26.5,-33.3L27.5,-33.0L28.5,-32.7L28.9,-32.5L29.7,-32.9L30.1,-33.2L31.0,-33.3L31.7,-33.1L32.0,-32.6L32.2,-32.9L33.0,-32.7L33.8,-32.6L34.3,-32.9L34.3,-32.9L34.8,-31.2L34.9,-30.9L34.6,-30.4L34.4,-29.6L34.2,-29.0L33.9,-28.8L33.6,-29.2L33.1,-29.7L32.4,-31.3L32.3,-31.2L32.7,-30.0L33.3,-28.8L34.1,-27.1L34.5,-26.5L34.8,-25.9L35.7,-24.7L35.5,-24.5L35.5,-23.8L36.7,-22.8L36.9,-22.6Z" fill="#1e1e2e" stroke="#2a2a3a" stroke-width="0.3"/>
  <path d="M25.0,-22.6L25.0,-20.4L23.9,-20.4L23.8,-20.0L19.8,-22.0L15.9,-24.1L14.9,-23.5L14.1,-23.1L13.6,-23.7L12.0,-24.2L11.6,-24.8L10.8,-25.4L10.3,-25.2L9.9,-25.8L9.9,-26.2L9.3,-27.0L9.7,-27.5L9.6,-28.2L9.8,-28.8L9.7,-29.3L9.9,-30.3L9.8,-30.8L9.5,-31.8L10.0,-32.1L10.1,-32.6L10.0,-33.1L10.6,-33.5L10.9,-33.9L11.4,-34.2L11.5,-35.2L12.7,-34.7L13.1,-34.8L13.9,-34.6L15.2,-34.1L15.7,-33.1L16.6,-32.8L18.0,-32.4L19.1,-31.8L19.6,-32.1L20.1,-32.6L19.8,-33.5L20.1,-34.1L20.9,-34.6L21.5,-34.8L22.9,-34.6L23.2,-34.0L23.6,-34.0L23.9,-33.8L24.9,-33.7L25.2,-33.3L24.8,-32.7L25.0,-32.2L24.7,-31.5L25.0,-30.6L25.0,-26.6L25.0,-22.6Z" fill="#1e1e2e" stroke="#2a2a3a" stroke-width="0.3"/>
  <path d="M18.6,-47.2L17.7,-47.8L17.3,-48.3L16.9,-48.6L16.5,-49.2L16.2,-49.6L15.8,-50.2L16.0,-50.8L16.3,-50.5L16.5,-50.8L17.0,-50.8L17.9,-50.6L18.6,-50.6L19.0,-50.3L19.0,-50.3L19.4,-50.3L19.1,-49.7L19.6,-49.2L19.5,-48.5L19.2,-48.4L19.0,-48.3L18.7,-48.0L18.6,-47.2Z" fill="#1e1e2e" stroke="#2a2a3a" stroke-width="0.3"/>
  <path d="M22.4,-46.8L22.9,-46.4L23.0,-45.5L22.8,-45.4L22.6,-45.2L22.1,-45.2L21.7,-44.9L21.0,-44.8L20.6,-45.1L20.5,-45.7L20.6,-46.2L20.6,-46.2L20.7,-46.2L20.8,-46.4L21.4,-46.6L21.6,-46.7L21.9,-46.8L22.4,-46.8Z" fill="#1e1e2e" stroke="#2a2a3a" stroke-width="0.3"/>
  <path d="M18.8,-51.8L18.8,-51.8L19.6,-52.2L20.2,-52.1L20.8,-51.5L20.9,-51.1L21.5,-50.8L21.6,-50.2L22.1,-49.8L22.5,-50.1L22.7,-49.9L22.5,-49.7L22.7,-49.4L22.4,-49.1L22.5,-48.6L23.0,-48.0L22.6,-47.6L22.4,-47.1L22.5,-47.0L22.4,-46.8L21.9,-46.8L21.6,-46.7L21.5,-46.8L21.7,-47.0L21.8,-47.3L21.6,-47.3L21.4,-47.5L21.3,-47.6L21.1,-47.8L21.0,-47.9L20.8,-48.1L20.6,-48.0L20.5,-47.6L20.3,-47.5L20.3,-47.6L20.0,-47.9L19.6,-48.0L19.5,-48.2L19.2,-48.4L19.5,-48.5L19.6,-49.2L19.1,-49.7L19.4,-50.3L19.0,-50.3L19.0,-50.3L19.4,-50.8L19.1,-51.2L18.8,-51.8Z" fill="#1e1e2e" stroke="#2a2a3a" stroke-width="0.3"/>
  <path d="M20.1,-47.2L19.8,-47.0L19.7,-47.3L19.3,-46.6L19.4,-46.2L19.2,-46.3L18.9,-46.7L18.5,-47.0L18.6,-47.2L18.7,-48.0L19.0,-48.3L19.2,-48.4L19.5,-48.2L19.6,-48.0L20.0,-47.9L20.3,-47.6L20.3,-47.5L20.1,-47.2Z" fill="#1e1e2e" stroke="#2a2a3a" stroke-width="0.3"/>
  <path d="M20.6,-46.2L20.5,-46.7L20.3,-46.8L20.1,-47.2L20.3,-47.5L20.5,-47.6L20.6,-48.0L20.8,-48.1L21.0,-47.9L21.1,-47.8L21.3,-47.6L21.4,-47.5L21.6,-47.3L21.8,-47.3L21.7,-47.0L21.5,-46.8L21.6,-46.7L21.4,-46.6L20.8,-46.4L20.7,-46.2L20.6,-46.2Z" fill="#1e1e2e" stroke="#2a2a3a" stroke-width="0.3"/>
  <path d="M26.3,-37.8L26.2,-37.4L24.7,-37.3L24.7,-37.5L23.5,-37.7L23.7,-38.3L24.2,-37.9L25.0,-37.9L25.8,-37.8L25.7,-37.6L26.3,-37.8ZM23.0,-45.5L23.7,-45.4L24.5,-45.8L25.2,-45.3L26.1,-45.5L26.1,-46.1L26.6,-45.8L26.3,-44.9L26.1,-44.8L25.4,-44.8L24.9,-45.0L23.7,-44.6L24.4,-43.9L23.9,-43.7L23.3,-43.7L22.8,-44.3L22.6,-44.0L22.8,-43.3L23.4,-42.7L23.0,-42.4L23.5,-41.8L24.0,-41.4L24.0,-40.7L23.1,-41.0L23.4,-40.4L22.8,-40.3L23.2,-39.2L22.5,-39.1L21.7,-39.7L21.3,-40.7L21.1,-41.5L20.7,-42.1L20.2,-42.9L20.2,-43.2L20.6,-43.9L20.7,-44.3L21.0,-44.5L21.0,-44.8L21.7,-44.9L22.1,-45.2L22.6,-45.2L22.8,-45.4L23.0,-45.5Z" fill="#00e5ff" stroke="#00c4dd" stroke-width="0.4" fill-opacity="0.9"/>
</svg>