<svg xmlns="http://www.w3.org/2000/svg" viewBox="18.15 -43.83 10.45 10.91" width="300" height="300" preserveAspectRatio="xMidYMid meet">
  <path d="M26.29,-35.30L26.16,-35.00L24.72,-34.92L24.74,-35.08L23.51,-35.28L23.70,-35.71L24.25,-35.37L25.03,-35.42L25.77,-35.35L25.75,-35.18L26.29,-35.30ZM22.95,-41.34L23.69,-41.31L24.49,-41.58L25.20,-41.23L26.11,-41.33L26.12,-41.83L26.60,-41.56L26.29,-40.94L26.06,-40.82L25.45,-40.85L24.93,-40.95L23.71,-40.69L24.41,-40.12L23.90,-39.96L23.34,-39.96L22.81,-40.48L22.63,-40.26L22.85,-39.66L23.35,-39.19L22.97,-38.97L23.53,-38.51L24.03,-38.22L24.04,-37.66L23.12,-37.92L23.41,-37.41L22.77,-37.31L23.15,-36.42L22.49,-36.41L21.67,-36.84L21.30,-37.64L21.12,-38.31L20.73,-38.77L20.22,-39.34L20.15,-39.62L20.61,-40.11L20.67,-40.44L21.00,-40.58L21.02,-40.84L21.67,-40.93L22.06,-41.15L22.60,-41.13L22.76,-41.30L22.95,-41.34Z" fill="#00e5ff" stroke="#00e5ff" stroke-width="0.5" fill-opacity="0.8"/>
</svg>