<svg xmlns="http://www.w3.org/2000/svg" viewBox="-94.23 -19.82 8.00 8.08" width="300" height="300" preserveAspectRatio="xMidYMid meet">
  <path d="M-92.23,-14.54L-92.20,-14.83L-92.09,-15.06L-92.23,-15.25L-91.75,-16.07L-90.46,-16.07L-90.44,-16.41L-90.60,-16.47L-90.71,-16.69L-91.08,-16.92L-91.45,-17.25L-91.00,-17.25L-91.00,-17.82L-90.07,-17.82L-89.14,-17.81L-89.15,-17.02L-89.23,-15.89L-88.93,-15.89L-88.60,-15.71L-88.52,-15.86L-88.23,-15.73L-88.68,-15.35L-89.15,-15.07L-89.23,-14.87L-89.15,-14.68L-89.35,-14.42L-89.59,-14.36L-89.53,-14.24L-89.72,-14.13L-90.06,-13.88L-90.10,-13.74L-90.61,-13.91L-91.23,-13.93L-91.69,-14.13L-92.23,-14.54Z" fill="#00e5ff" stroke="#00e5ff" stroke-width="0.5" fill-opacity="0.8"/>
</svg>