<svg xmlns="http://www.w3.org/2000/svg" viewBox="-63.41 -10.37 8.87 11.10" width="300" height="300" preserveAspectRatio="xMidYMid meet">
  <path d="M-56.54,-1.90L-56.78,-1.86L-57.34,-1.95L-57.66,-1.68L-58.11,-1.51L-58.43,-1.46L-58.54,-1.27L-59.03,-1.32L-59.65,-1.79L-59.72,-2.25L-59.97,-2.76L-59.82,-3.61L-59.54,-3.96L-59.77,-4.42L-60.11,-4.57L-59.98,-5.01L-60.21,-5.24L-60.73,-5.20L-61.41,-5.96L-61.14,-6.23L-61.16,-6.70L-60.54,-6.86L-60.30,-7.04L-60.64,-7.42L-60.55,-7.78L-59.76,-8.37L-59.10,-8.00L-58.48,-7.35L-58.45,-6.83L-58.08,-6.81L-57.54,-6.32L-57.15,-5.97L-57.31,-5.07L-57.91,-4.81L-57.86,-4.58L-58.04,-4.06L-57.60,-3.33L-57.28,-3.33L-57.15,-2.77L-56.54,-1.90Z" fill="#00e5ff" stroke="#00e5ff" stroke-width="0.5" fill-opacity="0.8"/>
</svg>