<svg xmlns="http://www.w3.org/2000/svg" viewBox="-91.35 -18.01 10.20 7.03" width="300" height="300" preserveAspectRatio="xMidYMid meet">
  <path d="M-83.15,-15.00L-83.49,-15.02L-83.63,-14.88L-83.98,-14.75L-84.23,-14.75L-84.45,-14.62L-84.65,-14.67L-84.82,-14.82L-84.92,-14.79L-85.05,-14.55L-85.15,-14.56L-85.17,-14.35L-85.51,-14.08L-85.70,-13.96L-85.80,-13.84L-86.10,-14.04L-86.31,-13.77L-86.52,-13.78L-86.76,-13.75L-86.73,-13.26L-86.88,-13.25L-87.01,-13.03L-87.32,-12.98L-87.49,-13.30L-87.79,-13.38L-87.72,-13.79L-87.86,-13.89L-88.07,-13.96L-88.50,-13.85L-88.54,-13.98L-88.84,-14.14L-89.06,-14.34L-89.35,-14.42L-89.15,-14.68L-89.23,-14.87L-89.15,-15.07L-88.68,-15.35L-88.23,-15.73L-88.12,-15.69L-87.90,-15.86L-87.62,-15.88L-87.52,-15.80L-87.37,-15.85L-86.90,-15.76L-86.44,-15.78L-86.12,-15.89L-86.00,-16.01L-85.68,-15.95L-85.44,-15.89L-85.18,-15.91L-84.98,-16.00L-84.53,-15.86L-84.37,-15.84L-84.06,-15.65L-83.77,-15.42L-83.41,-15.27L-83.15,-15.00Z" fill="#00e5ff" stroke="#00e5ff" stroke-width="0.5" fill-opacity="0.8"/>
</svg>