<svg xmlns="http://www.w3.org/2000/svg" viewBox="14.20 -50.62 10.51 6.86" width="300" height="300" preserveAspectRatio="xMidYMid meet">
  <path d="M22.09,-48.42L22.64,-48.15L22.71,-47.88L22.10,-47.67L21.63,-46.99L21.02,-46.32L20.22,-46.13L19.60,-46.17L18.83,-45.91L18.83,-45.91L18.46,-45.76L17.63,-45.95L16.88,-46.38L16.56,-46.50L16.37,-46.84L16.20,-46.85L16.53,-47.50L16.34,-47.71L16.90,-47.71L16.98,-48.12L17.49,-47.87L17.86,-47.76L18.70,-47.88L18.78,-48.08L19.17,-48.11L19.66,-48.27L19.77,-48.20L20.24,-48.33L20.47,-48.56L20.80,-48.62L21.87,-48.32L22.09,-48.42Z" fill="#00e5ff" stroke="#00e5ff" stroke-width="0.5" fill-opacity="0.8"/>
</svg>