<svg xmlns="http://www.w3.org/2000/svg" viewBox="66.18 -37.49 33.22 31.52" width="300" height="300" preserveAspectRatio="xMidYMid meet">
  <path d="M97.33,-28.26L97.40,-27.88L97.05,-27.70L97.13,-27.08L96.42,-27.26L95.12,-26.57L95.16,-26.00L94.60,-25.16L94.55,-24.68L94.11,-23.85L93.33,-24.08L93.29,-23.04L93.06,-22.70L93.17,-22.28L92.67,-22.04L92.15,-23.63L91.87,-23.62L91.71,-22.99L91.16,-23.50L91.47,-24.07L91.92,-24.13L92.38,-24.98L91.80,-25.15L90.87,-25.13L89.92,-25.27L89.83,-25.97L89.36,-26.01L88.56,-26.45L88.21,-25.77L88.93,-25.24L88.31,-24.87L88.08,-24.50L88.70,-24.23L88.53,-23.63L88.88,-22.88L89.03,-22.06L88.89,-21.69L88.21,-21.70L86.98,-21.50L87.03,-20.74L86.50,-20.15L85.06,-19.48L83.94,-18.30L83.19,-17.67L82.19,-17.02L82.19,-16.56L81.69,-16.31L80.79,-15.95L80.32,-15.90L80.03,-15.14L80.23,-13.84L80.29,-13.01L79.86,-12.06L79.86,-10.36L79.34,-10.31L78.89,-9.55L79.19,-9.22L78.28,-8.93L77.94,-8.25L77.54,-7.97L76.59,-8.90L76.13,-10.30L75.75,-11.31L75.40,-11.78L74.86,-12.74L74.62,-13.99L74.44,-14.62L73.53,-15.99L73.12,-17.93L72.82,-19.21L72.82,-20.42L72.63,-21.36L71.18,-20.76L70.47,-20.88L69.16,-22.09L69.64,-22.45L69.35,-22.84L68.18,-23.69L68.84,-24.36L71.04,-24.36L70.84,-25.22L70.28,-25.72L70.17,-26.49L69.51,-26.94L70.62,-27.99L71.78,-27.91L72.82,-28.96L73.45,-29.98L74.42,-30.98L74.41,-31.69L75.26,-32.27L74.45,-32.76L74.10,-33.44L73.75,-34.32L74.24,-34.75L75.76,-34.50L76.87,-34.65L77.84,-35.49L78.91,-34.32L78.81,-33.51L79.21,-32.99L79.18,-32.48L78.46,-32.62L78.74,-31.52L79.72,-30.88L81.11,-30.18L80.48,-29.73L80.09,-28.79L81.06,-28.42L82.00,-27.93L83.30,-27.36L84.68,-27.23L85.25,-26.73L86.02,-26.63L87.23,-26.40L88.06,-26.41L88.17,-26.81L88.04,-27.45L88.12,-27.88L88.73,-28.09L88.81,-27.30L88.84,-27.10L89.74,-26.72L90.37,-26.88L91.22,-26.81L92.03,-26.84L92.10,-27.45L91.70,-27.77L92.50,-27.90L93.41,-28.64L94.57,-29.28L95.40,-29.03L96.12,-29.45L96.59,-28.83L96.25,-28.41L97.33,-28.26Z" fill="#00e5ff" stroke="#00e5ff" stroke-width="0.5" fill-opacity="0.8"/>
</svg>