<svg xmlns="http://www.w3.org/2000/svg" viewBox="93.29 -7.48 49.74 19.84" width="300" height="300" preserveAspectRatio="xMidYMid meet">
  <path d="M141.00,2.60L141.02,5.86L141.03,9.12L140.14,8.30L139.13,8.10L138.88,8.38L137.61,8.41L138.04,7.60L138.67,7.32L138.41,6.23L137.93,5.39L135.99,4.55L135.16,4.46L133.66,3.54L133.37,4.02L132.98,4.11L132.76,3.75L132.75,3.31L131.99,2.82L133.07,2.46L133.78,2.48L133.70,2.21L132.23,2.21L131.84,1.62L130.94,1.43L130.52,0.94L131.87,0.70L132.38,0.37L133.99,0.78L134.14,1.15L134.42,2.77L135.46,3.37L136.29,2.31L137.44,1.70L138.33,1.70L139.18,2.05L139.93,2.41L141.00,2.60ZM124.97,8.89L125.07,9.09L125.09,9.39L124.44,10.14L123.58,10.36L123.46,10.24L123.55,9.90L123.98,9.29L124.97,8.89ZM134.21,6.90L134.11,6.14L134.29,5.78L134.50,5.45L134.73,5.74L134.72,6.21L134.21,6.90ZM117.88,-4.14L117.31,-3.23L118.05,-2.29L117.88,-1.83L119.00,-0.90L117.81,-0.78L117.48,-0.10L117.52,0.80L116.56,1.49L116.53,2.48L116.15,4.01L116.00,3.66L114.86,4.11L114.47,3.50L113.76,3.44L113.26,3.12L112.07,3.48L111.70,2.99L111.05,3.05L110.22,2.93L110.07,1.59L109.57,1.31L109.09,0.46L108.95,-0.42L109.07,-1.34L109.66,-2.01L109.83,-1.34L110.51,-0.77L111.16,-0.98L111.80,-0.90L112.38,-1.41L112.86,-1.50L113.81,-1.22L114.62,-1.43L115.13,-2.82L115.52,-3.17L115.87,-4.31L117.02,-4.31L117.88,-4.14ZM129.37,2.80L130.47,3.09L130.83,3.86L129.99,3.45L129.16,3.36L128.59,3.43L127.90,3.39L128.14,2.84L129.37,2.80ZM126.87,3.79L126.18,3.61L125.99,3.18L127.00,3.13L127.25,3.46L126.87,3.79ZM127.93,-2.17L128.00,-1.63L128.59,-1.54L128.69,-1.13L128.64,-0.26L128.12,-0.36L127.97,0.25L128.38,0.78L128.10,0.90L127.70,0.27L127.40,-1.01L127.60,-1.81L127.93,-2.17ZM122.93,-0.88L124.08,-0.92L125.07,-1.64L125.24,-1.42L124.44,-0.43L123.69,-0.24L122.72,-0.43L121.06,-0.38L120.18,-0.24L120.04,0.52L120.94,1.41L121.48,0.96L123.34,0.62L123.26,1.08L122.82,0.93L122.39,1.52L121.51,1.90L122.45,3.19L122.27,3.53L123.17,4.68L123.16,5.34L122.63,5.63L122.24,5.28L122.72,4.46L121.74,4.85L121.49,4.57L121.62,4.19L120.90,3.60L120.97,2.63L120.31,2.93L120.39,4.10L120.43,5.53L119.80,5.67L119.37,5.38L119.65,4.46L119.50,3.49L119.08,3.49L118.77,2.80L119.18,2.15L119.32,1.35L119.83,-0.15L120.04,-0.57L120.89,-1.31L121.67,-1.01L122.93,-0.88ZM120.30,10.26L118.97,9.56L119.90,9.36L120.43,9.67L120.78,9.97L120.72,10.24L120.30,10.26ZM121.34,8.54L122.01,8.46L122.90,8.09L122.76,8.65L121.25,8.93L119.92,8.81L119.92,8.44L120.72,8.24L121.34,8.54ZM118.26,8.36L118.88,8.28L119.13,8.71L117.97,8.91L117.28,9.04L116.74,9.03L117.08,8.46L117.63,8.45L117.90,8.10L118.26,8.36ZM108.49,6.42L108.62,6.78L110.54,6.88L110.76,6.47L112.61,6.95L112.98,7.59L114.48,7.78L115.71,8.37L114.56,8.75L113.46,8.35L112.56,8.38L111.52,8.30L110.59,8.12L109.43,7.74L108.69,7.64L108.28,7.77L106.45,7.35L106.28,6.92L105.37,6.85L106.05,5.90L107.27,5.95L108.07,6.35L108.49,6.42ZM104.37,1.08L104.54,1.78L104.89,2.34L105.62,2.43L106.11,3.06L105.86,4.31L105.82,5.85L104.71,5.87L103.87,5.04L102.58,4.22L102.16,3.61L101.40,2.80L100.90,2.05L100.14,0.65L99.26,-0.18L98.97,-1.04L98.60,-1.82L97.70,-2.45L97.18,-3.31L96.42,-3.87L95.38,-4.97L95.29,-5.48L95.94,-5.44L97.48,-5.25L98.37,-4.27L99.14,-3.59L99.69,-3.17L100.64,-2.10L101.66,-2.08L102.50,-1.40L103.08,-0.56L103.84,-0.10L103.44,0.71L104.01,1.06L104.37,1.08Z" fill="#00e5ff" stroke="#00e5ff" stroke-width="0.5" fill-opacity="0.8"/>
</svg>