<svg xmlns="http://www.w3.org/2000/svg" viewBox="42.11 -41.71 23.21 18.63" width="300" height="300" preserveAspectRatio="xMidYMid meet">
  <path d="M48.57,-29.93L48.01,-30.45L48.00,-30.99L47.69,-30.98L47.85,-31.71L47.33,-32.47L46.11,-33.02L45.42,-33.97L45.65,-34.75L46.15,-35.09L46.08,-35.68L45.42,-35.98L44.77,-37.17L44.77,-37.17L44.23,-37.97L44.42,-38.28L44.11,-39.43L44.79,-39.71L44.95,-39.34L45.46,-38.87L46.14,-38.74L46.51,-38.77L47.69,-39.51L48.06,-39.58L48.36,-39.29L48.01,-38.79L48.63,-38.27L48.88,-38.32L49.20,-37.58L50.15,-37.37L50.84,-36.87L52.26,-36.70L53.83,-36.97L53.92,-37.20L54.80,-37.39L55.51,-37.96L56.18,-37.94L56.62,-38.12L57.33,-38.03L58.44,-37.52L59.23,-37.41L60.38,-36.53L61.12,-36.49L61.21,-35.65L60.80,-34.40L60.53,-33.68L60.96,-33.53L60.54,-32.98L60.86,-32.18L60.94,-31.55L61.70,-31.38L61.78,-30.74L60.87,-29.83L61.37,-29.30L61.77,-28.70L62.73,-28.26L62.76,-27.38L63.23,-27.22L63.32,-26.76L61.87,-26.24L61.50,-25.08L59.62,-25.38L58.53,-25.61L57.40,-25.74L56.97,-26.97L56.49,-27.14L55.72,-26.96L54.72,-26.48L53.49,-26.81L52.48,-27.58L51.52,-27.87L50.85,-28.81L50.12,-30.15L49.58,-29.99L48.94,-30.32L48.57,-29.93Z" fill="#00e5ff" stroke="#00e5ff" stroke-width="0.5" fill-opacity="0.8"/>
</svg>