<svg xmlns="http://www.w3.org/2000/svg" viewBox="36.79 -39.39 13.78 12.29" width="300" height="300" preserveAspectRatio="xMidYMid meet">
  <path d="M39.20,-32.16L38.79,-33.38L41.01,-34.42L41.38,-35.63L41.29,-36.36L41.84,-36.61L42.35,-37.23L42.78,-37.39L43.94,-37.26L44.29,-37.00L44.77,-37.17L45.42,-35.98L46.08,-35.68L46.15,-35.09L45.65,-34.75L45.42,-33.97L46.11,-33.02L47.33,-32.47L47.85,-31.71L47.69,-30.98L48.00,-30.99L48.01,-30.45L48.57,-29.93L47.97,-29.98L47.30,-30.06L46.57,-29.10L44.71,-29.18L41.89,-31.19L40.40,-31.89L39.20,-32.16Z" fill="#00e5ff" stroke="#00e5ff" stroke-width="0.5" fill-opacity="0.8"/>
</svg>