<svg xmlns="http://www.w3.org/2000/svg" viewBox="4.75 -49.12 15.73 14.50" width="300" height="300" preserveAspectRatio="xMidYMid meet">
  <path d="M10.44,-46.89L11.05,-46.75L11.16,-46.94L12.15,-47.12L12.38,-46.77L13.81,-46.51L13.70,-46.02L13.94,-45.59L13.14,-45.74L12.33,-45.38L12.38,-44.89L12.26,-44.60L12.59,-44.09L13.53,-43.59L14.03,-42.76L15.14,-41.96L15.93,-41.96L16.17,-41.74L15.89,-41.54L16.79,-41.18L17.52,-40.88L18.38,-40.36L18.48,-40.17L18.29,-39.81L17.74,-40.28L16.87,-40.44L16.45,-39.80L17.17,-39.42L17.05,-38.90L16.64,-38.84L16.10,-37.99L15.68,-37.91L15.69,-38.21L15.89,-38.75L16.11,-38.96L15.72,-39.54L15.41,-40.05L15.00,-40.17L14.70,-40.60L14.06,-40.79L13.63,-41.19L12.89,-41.25L12.11,-41.70L11.19,-42.36L10.51,-42.93L10.20,-43.92L9.70,-44.04L8.89,-44.37L8.43,-44.23L7.85,-43.77L7.44,-43.69L7.55,-44.13L7.01,-44.25L6.75,-45.03L7.10,-45.33L6.80,-45.71L6.84,-45.99L7.27,-45.78L7.76,-45.82L8.32,-46.16L8.49,-46.01L8.97,-46.04L9.18,-46.44L9.92,-46.31L10.36,-46.48L10.44,-46.89ZM14.76,-38.14L15.52,-38.23L15.16,-37.44L15.31,-37.13L15.10,-36.62L14.34,-37.00L13.83,-37.10L12.43,-37.61L12.57,-38.13L13.74,-38.03L14.76,-38.14ZM8.71,-40.90L9.21,-41.21L9.81,-40.50L9.67,-39.18L9.21,-39.24L8.81,-38.91L8.43,-39.17L8.39,-40.38L8.16,-40.95L8.71,-40.90Z" fill="#00e5ff" stroke="#00e5ff" stroke-width="0.5" fill-opacity="0.8"/>
</svg>