<svg xmlns="http://www.w3.org/2000/svg" viewBox="-10.60 -12.52 10.04 10.18" width="300" height="300" preserveAspectRatio="xMidYMid meet">
  <path d="M-8.03,-10.21L-7.90,-10.30L-7.62,-10.15L-6.85,-10.14L-6.67,-10.43L-6.49,-10.41L-6.21,-10.52L-6.05,-10.10L-5.82,-10.22L-5.40,-10.37L-4.95,-10.15L-4.78,-9.82L-4.33,-9.61L-3.98,-9.86L-3.51,-9.90L-2.83,-9.64L-2.56,-8.22L-2.98,-7.38L-3.24,-6.25L-2.81,-5.39L-2.86,-4.99L-3.31,-4.98L-4.01,-5.18L-4.65,-5.17L-5.83,-4.99L-6.53,-4.71L-7.52,-4.34L-7.71,-4.36L-7.64,-5.19L-7.54,-5.31L-7.57,-5.71L-7.99,-6.13L-8.31,-6.19L-8.60,-6.47L-8.39,-6.91L-8.49,-7.40L-8.44,-7.69L-8.28,-7.69L-8.22,-8.12L-8.30,-8.32L-8.20,-8.46L-7.83,-8.58L-8.08,-9.38L-8.31,-9.79L-8.23,-10.13L-8.03,-10.21Z" fill="#00e5ff" stroke="#00e5ff" stroke-width="0.5" fill-opacity="0.8"/>
</svg>