<svg xmlns="http://www.w3.org/2000/svg" viewBox="127.41 -47.55 20.13 18.52" width="300" height="300" preserveAspectRatio="xMidYMid meet">
  <path d="M141.88,-39.18L140.96,-38.17L140.98,-37.14L140.60,-36.34L140.77,-35.84L140.25,-35.14L138.98,-34.67L137.22,-34.61L135.79,-33.46L135.12,-33.85L135.08,-34.60L133.34,-34.38L132.16,-33.90L130.99,-33.89L132.00,-33.15L131.33,-31.45L130.69,-31.03L130.20,-31.42L130.45,-32.32L129.81,-32.61L129.41,-33.30L130.35,-33.60L130.88,-34.23L131.88,-34.75L132.62,-35.43L134.61,-35.73L135.68,-35.53L136.72,-37.30L137.39,-36.83L138.86,-37.83L139.43,-38.22L140.05,-39.44L139.88,-40.56L140.31,-41.20L141.37,-41.38L141.91,-39.99L141.88,-39.18ZM144.61,-43.96L145.32,-44.38L145.54,-43.26L144.06,-42.99L143.18,-42.00L141.61,-42.68L141.07,-41.58L139.96,-41.57L139.82,-42.56L140.31,-43.33L141.38,-43.39L141.67,-44.77L141.97,-45.55L143.14,-44.51L143.91,-44.17L144.61,-43.96ZM132.37,-33.46L132.92,-34.06L133.49,-33.94L133.90,-34.36L134.64,-34.15L134.77,-33.81L134.20,-33.20L133.79,-33.52L133.28,-33.29L133.01,-32.70L132.36,-32.99L132.37,-33.46Z" fill="#00e5ff" stroke="#00e5ff" stroke-width="0.5" fill-opacity="0.8"/>
</svg>