<svg xmlns="http://www.w3.org/2000/svg" viewBox="17.8 -82.4 98.1 53.3" width="400" height="300" preserveAspectRatio="xMidYMid meet">
  <rect x="17.8" y="-82.4" width="98.1" height="53.3" fill="#0e0e18"/>
  <path d="M56.0,-45.4L55.9,-50.5L58.5,-51.3L58.7,-51.2L60.2,-50.2L61.1,-49.7L62.0,-48.4L63.2,-48.6L64.9,-48.7L66.1,-47.7L66.0,-46.4L66.5,-46.3L66.7,-45.3L68.0,-45.2L68.3,-44.6L68.6,-44.6L69.1,-45.5L70.4,-46.5L71.0,-46.7L71.3,-46.6L70.4,-45.7L71.2,-45.2L71.9,-45.5L73.1,-44.8L71.8,-43.9L71.0,-44.0L70.6,-44.0L70.5,-44.4L70.7,-45.0L69.3,-44.7L69.0,-43.8L68.5,-43.1L67.7,-43.2L67.4,-42.6L68.2,-42.3L68.4,-41.3L67.8,-40.1L67.1,-40.3L66.5,-40.3L66.5,-41.1L65.2,-41.7L64.2,-42.3L63.5,-42.9L62.4,-43.8L61.9,-45.1L61.5,-45.4L60.5,-45.3L60.1,-45.6L60.0,-46.7L58.6,-47.4L57.8,-46.6L56.9,-46.1L57.1,-45.5L56.0,-45.4Z" fill="#1e1e2e" stroke="#2a2a3a" stroke-width="0.3"/>
  <path d="M178.7,-102.7L180.0,-104.0L180.0,-101.9L178.9,-101.8L178.7,-102.7ZM49.1,-52.5L48.6,-51.6L47.7,-51.4L46.7,-49.9L47.6,-48.6L47.5,-47.7L48.6,-46.1L48.6,-46.1L48.0,-45.6L47.8,-45.2L47.4,-45.3L46.7,-46.1L46.4,-46.2L45.8,-46.5L45.5,-47.0L44.5,-47.3L43.9,-47.1L43.8,-47.4L42.4,-48.0L40.9,-48.2L40.1,-48.5L40.0,-48.3L38.7,-49.5L37.5,-50.0L36.7,-50.8L37.4,-51.1L38.2,-52.3L37.7,-52.8L39.1,-53.4L39.1,-53.8L38.2,-53.5L38.3,-54.2L38.8,-54.6L39.7,-54.7L39.9,-55.2L39.7,-56.0L40.1,-56.8L40.1,-57.3L38.6,-57.8L38.0,-57.8L37.4,-58.5L36.6,-58.3L35.4,-58.8L35.4,-59.1L35.0,-59.8L34.2,-59.9L34.1,-60.4L34.4,-60.7L33.8,-61.6L32.7,-61.5L32.4,-61.6L32.2,-61.2L31.8,-61.3L31.8,-61.3L31.5,-62.3L31.3,-62.9L31.5,-63.0L32.3,-63.0L32.7,-63.3L32.4,-63.8L31.7,-64.1L31.8,-64.4L31.4,-64.7L30.8,-65.8L31.0,-66.3L30.9,-67.1L29.9,-67.5L29.4,-67.3L29.2,-67.8L28.2,-68.2L27.9,-69.3L27.8,-70.2L27.3,-70.6L27.7,-71.2L27.4,-73.0L28.1,-74.1L28.0,-74.4L28.0,-74.4L29.1,-75.5L28.1,-76.5L28.1,-76.5L30.2,-79.1L31.1,-80.3L31.5,-81.5L30.0,-83.0L30.4,-84.5L29.5,-86.2L30.2,-88.3L29.1,-91.1L30.0,-93.0L28.4,-94.8L28.6,-96.8L29.4,-97.0L31.1,-98.2L31.1,-98.2L32.1,-99.2L33.8,-97.4L36.5,-96.8L40.3,-93.7L41.1,-92.4L41.1,-90.7L40.0,-89.4L38.4,-88.7L33.9,-90.6L33.2,-90.3L34.8,-88.5L34.9,-87.4L34.9,-84.9L36.2,-84.2L37.0,-83.6L37.1,-84.8L36.5,-85.8L37.2,-86.7L39.6,-85.2L40.4,-85.8L39.8,-87.5L42.1,-89.9L43.0,-89.8L43.9,-88.9L44.5,-90.6L43.7,-92.1L44.2,-93.7L43.5,-95.4L46.3,-94.5L46.8,-93.0L45.6,-92.7L45.6,-91.3L46.3,-90.4L47.9,-90.9L48.1,-92.6L50.2,-93.8L53.7,-96.2L54.5,-96.0L53.5,-94.4L54.7,-94.1L55.4,-95.0L57.3,-95.1L58.8,-96.2L59.9,-94.6L61.1,-96.4L60.0,-98.0L60.5,-99.0L63.5,-98.1L64.9,-97.2L68.5,-94.1L69.2,-95.5L68.2,-97.0L68.1,-97.6L66.9,-97.9L67.3,-99.2L66.7,-101.5L66.7,-102.5L68.5,-105.4L69.2,-108.4L69.9,-109.0L72.6,-108.1L72.8,-106.3L71.8,-103.7L72.5,-102.7L72.8,-100.6L72.6,-96.6L73.7,-94.9L73.2,-93.2L71.3,-89.5L72.4,-89.2L72.8,-90.0L73.9,-90.7L74.2,-92.0L75.1,-93.2L74.5,-94.7L74.9,-96.5L73.8,-96.8L73.6,-98.4L74.4,-101.3L73.1,-103.8L74.9,-106.0L74.7,-108.3L75.2,-108.4L75.7,-106.6L75.3,-103.5L76.4,-102.9L75.9,-105.2L77.6,-106.5L79.7,-106.6L81.5,-104.8L80.6,-107.5L80.5,-111.2L82.3,-111.9L84.7,-111.7L86.8,-112.2L86.0,-114.1L87.2,-116.6L88.3,-116.7L90.3,-118.7L92.9,-119.2L93.2,-120.4L95.9,-120.7L96.7,-119.8L98.9,-122.0L100.8,-122.0L101.0,-123.8L102.0,-125.7L104.4,-127.6L106.1,-126.1L104.7,-125.0L107.0,-124.3L107.2,-122.2L108.2,-123.2L111.1,-123.2L113.3,-121.1L114.1,-119.5L113.9,-117.5L112.8,-116.3L110.2,-114.2L109.4,-113.1L110.6,-112.6L112.1,-111.7L113.0,-112.3L113.5,-110.1L114.0,-111.0L115.6,-111.5L118.8,-111.0L119.0,-109.3L123.2,-108.8L123.3,-111.5L125.4,-110.9L127.0,-110.9L128.6,-109.0L129.1,-106.9L128.5,-105.5L129.7,-103.0L131.3,-101.8L132.3,-105.1L133.9,-103.6L135.6,-104.5L137.5,-103.5L138.2,-104.4L139.9,-103.9L139.1,-106.9L140.5,-108.4L149.5,-106.2L150.4,-104.3L153.0,-101.9L157.0,-102.5L159.0,-102.0L159.8,-100.8L159.7,-98.6L160.9,-97.8L162.3,-98.4L164.1,-98.5L165.9,-97.9L167.8,-98.2L169.6,-95.7L170.8,-96.6L170.0,-98.4L170.5,-99.7L173.6,-98.9L175.7,-99.1L178.6,-97.7L180.0,-96.5L180.0,-86.3L180.0,-86.3L178.7,-85.2L177.4,-85.4L178.3,-84.2L178.9,-82.3L179.4,-81.7L179.5,-80.8L179.2,-80.2L177.4,-80.7L174.6,-79.1L173.7,-78.8L172.2,-77.4L170.7,-76.1L170.3,-75.2L168.9,-76.6L166.3,-75.0L165.8,-75.8L164.9,-74.9L163.5,-75.2L163.2,-73.9L162.0,-72.0L162.1,-71.3L163.2,-70.8L163.1,-68.2L162.1,-68.1L161.7,-66.6L162.1,-65.9L160.4,-65.0L160.0,-63.1L158.5,-62.7L158.2,-61.0L156.8,-59.5L156.4,-60.6L156.0,-63.0L155.4,-66.8L155.9,-69.3L156.8,-70.4L156.8,-71.3L158.4,-71.7L160.2,-74.1L161.9,-76.1L163.7,-77.8L164.5,-80.8L163.3,-80.6L162.7,-78.8L160.1,-76.6L159.3,-79.1L156.7,-78.4L154.2,-75.0L155.0,-73.8L152.8,-73.3L151.3,-73.1L151.3,-74.5L149.8,-74.8L148.5,-73.8L145.5,-74.1L142.2,-73.6L139.0,-69.9L135.1,-65.7L136.7,-65.4L137.2,-64.4L138.2,-64.0L138.8,-64.8L139.9,-64.7L141.3,-62.9L141.4,-61.5L140.6,-59.9L140.5,-58.0L140.1,-55.5L138.6,-53.4L138.2,-52.4L136.9,-50.7L135.5,-49.1L134.9,-48.3L133.5,-47.5L132.9,-47.4L132.3,-48.1L130.9,-47.1L130.8,-46.7L130.8,-46.7L130.8,-46.7L130.8,-46.7L130.6,-46.9L130.6,-46.9L130.6,-47.6L131.1,-47.6L131.3,-49.3L131.0,-50.5L131.9,-51.0L133.1,-50.7L133.8,-52.1L134.1,-53.7L134.5,-54.2L135.0,-55.6L133.4,-55.1L132.5,-54.5L131.0,-54.5L130.6,-56.0L129.4,-57.0L127.7,-57.5L127.3,-59.1L126.9,-60.0L126.6,-60.7L125.9,-62.4L125.1,-63.0L123.6,-63.5L122.2,-63.5L121.0,-63.1L120.2,-62.3L120.7,-61.9L120.7,-61.0L120.2,-60.5L119.3,-58.8L119.3,-58.1L117.9,-57.2L116.7,-57.7L115.5,-57.6L115.0,-58.1L114.4,-58.3L112.9,-57.2L111.6,-56.9L110.7,-56.6L109.4,-56.8L108.5,-56.8L107.9,-57.6L106.9,-58.3L105.9,-58.5L104.6,-58.3L103.7,-58.0L102.3,-58.7L102.1,-59.9L100.9,-60.3L100.0,-60.5L98.9,-61.2L97.8,-59.5L98.2,-58.6L97.3,-57.5L95.8,-57.9L94.8,-57.9L94.1,-58.7L93.1,-58.7L92.2,-59.2L90.7,-58.4L88.8,-57.1L87.8,-56.8L87.4,-56.7L86.8,-57.6L85.5,-57.4L85.1,-58.1L84.4,-58.4L83.9,-59.3L83.4,-59.6L81.9,-59.2L80.6,-60.1L80.0,-59.3L77.8,-63.4L76.5,-64.7L76.9,-65.3L74.4,-63.6L73.4,-63.5L73.5,-64.5L72.2,-65.1L71.2,-64.6L70.9,-66.4L69.1,-66.8L68.2,-66.1L65.7,-65.4L65.2,-65.0L61.4,-64.4L61.0,-63.8L61.7,-62.7L60.7,-62.3L60.9,-61.8L60.0,-61.0L61.6,-59.9L61.3,-59.2L59.9,-59.2L59.6,-58.8L58.4,-59.6L56.8,-59.5L55.7,-58.9L54.5,-59.5L52.3,-60.6L50.8,-60.6L48.7,-58.9L48.6,-57.7L47.5,-58.6L46.8,-56.9L47.0,-56.6L46.5,-55.5L47.3,-54.4L48.1,-54.5L48.7,-53.5L48.6,-52.7L49.1,-52.5ZM93.8,-145.8L95.9,-147.3L97.9,-144.1L100.2,-138.3L99.9,-133.5L97.8,-132.8L95.0,-134.3L93.3,-136.4L92.5,-140.4L91.2,-141.6L93.8,-145.8ZM102.8,-135.6L105.4,-132.6L105.1,-130.6L99.4,-128.7L101.3,-135.3L102.1,-135.9L102.8,-135.6ZM138.8,-120.7L141.5,-120.6L145.1,-118.4L144.3,-115.5L140.6,-115.6L139.0,-114.7L137.0,-117.2L137.5,-120.0L138.8,-120.7ZM148.2,-117.5L150.7,-116.5L149.6,-115.0L148.0,-115.3L146.1,-116.8L146.4,-118.1L148.2,-117.5ZM139.9,-110.2L140.8,-111.6L142.1,-111.9L143.5,-110.6L143.6,-109.6L142.1,-109.6L140.0,-110.0L139.9,-110.2ZM44.8,-143.1L46.8,-144.2L48.3,-144.3L48.5,-142.6L49.1,-144.1L50.0,-145.1L51.5,-143.8L51.1,-142.8L49.8,-142.0L48.9,-141.6L48.8,-140.6L47.6,-139.6L46.5,-141.0L47.1,-142.9L44.8,-143.1ZM22.7,-65.0L20.9,-64.9L19.7,-65.1L19.9,-65.9L21.3,-66.5L22.3,-66.2L22.8,-65.9L22.7,-65.4L22.7,-65.0ZM53.5,-111.5L55.9,-114.8L55.6,-116.5L57.9,-118.6L61.2,-121.2L64.5,-122.0L66.2,-123.6L68.2,-124.2L68.9,-122.5L68.2,-121.1L64.6,-119.1L61.6,-117.2L58.5,-113.6L57.0,-110.1L55.4,-106.8L55.6,-104.1L57.5,-101.6L56.9,-101.3L53.7,-101.7L53.4,-103.1L51.6,-103.9L51.5,-105.6L52.5,-106.3L52.4,-108.1L54.4,-111.1L53.5,-111.5ZM142.9,-63.9L143.3,-62.3L143.2,-60.7L143.6,-59.1L144.7,-56.3L143.2,-56.8L142.6,-54.7L143.5,-53.1L143.5,-52.1L142.7,-53.0L142.1,-51.9L141.9,-53.1L142.0,-54.5L141.9,-56.2L142.1,-57.3L142.2,-59.4L141.6,-61.0L141.7,-63.2L142.6,-64.0L142.2,-64.8L142.7,-65.0L142.9,-63.9ZM-174.9,-91.8L-175.0,-90.2L-174.3,-89.6L-174.6,-91.4L-171.9,-91.0L-169.9,-88.7L-170.9,-87.6L-172.5,-87.4L-172.6,-85.1L-173.0,-84.6L-173.9,-84.6L-174.7,-85.4L-176.0,-86.1L-176.2,-87.2L-177.2,-87.6L-178.4,-87.2L-178.9,-88.1L-178.7,-89.0L-179.9,-88.4L-179.4,-87.3L-180.0,-86.3L-180.0,-96.5L-177.6,-94.4L-174.9,-91.8ZM-178.7,-102.1L-180.0,-101.9L-180.0,-104.0L-179.9,-104.2L-179.0,-104.2L-177.6,-103.3L-177.7,-102.8L-178.7,-102.1ZM33.4,-51.9L33.7,-52.2L34.4,-51.9L34.7,-51.9L34.9,-51.6L35.0,-51.5L35.0,-51.4L35.5,-51.1L36.5,-51.2L36.3,-50.7L35.2,-50.4L33.9,-49.6L33.3,-49.9L33.5,-50.5L32.5,-51.0L32.6,-51.2L33.6,-51.7L33.4,-51.9Z" fill="#1e1e2e" stroke="#2a2a3a" stroke-width="0.3"/>
  <path d="M15.1,-137.7L15.5,-139.7L17.0,-139.9L18.3,-137.9L21.5,-133.9L19.0,-131.8L18.5,-128.2L17.6,-127.4L17.1,-123.6L15.9,-123.4L13.8,-126.2L14.7,-127.8L13.2,-129.2L11.2,-133.4L10.4,-137.6L13.2,-139.6L13.7,-137.7L15.1,-137.7ZM31.1,-98.2L29.4,-97.0L28.6,-96.8L29.0,-98.8L27.7,-99.9L26.2,-98.9L25.7,-96.8L24.7,-95.6L23.7,-96.3L22.4,-96.1L21.2,-97.6L20.6,-96.9L20.0,-96.8L19.9,-94.9L18.0,-95.4L17.7,-93.9L16.8,-93.9L16.1,-92.0L15.1,-89.2L13.6,-85.8L13.9,-85.0L13.6,-84.1L12.6,-84.1L11.9,-82.0L12.0,-79.2L12.6,-78.1L12.3,-75.7L11.5,-74.3L11.0,-73.2L10.4,-74.4L8.4,-72.2L7.0,-71.7L5.7,-72.7L5.3,-74.8L5.0,-79.5L5.9,-80.9L8.6,-82.8L10.5,-85.1L12.4,-88.4L14.8,-93.3L16.4,-95.4L19.2,-98.9L21.4,-100.2L23.0,-100.0L24.5,-102.5L26.4,-102.4L28.2,-103.0L31.3,-100.8L30.0,-100.0L31.1,-98.2ZM27.4,-139.9L25.9,-136.9L23.0,-136.2L20.1,-137.1L19.9,-138.7L18.5,-138.8L17.4,-141.5L20.5,-143.1L21.9,-141.7L22.9,-143.5L25.4,-142.0L27.4,-139.9ZM24.7,-128.4L22.5,-126.5L20.7,-127.5L21.4,-128.8L20.8,-130.3L22.9,-131.3L23.3,-129.5L24.7,-128.4Z" fill="#1e1e2e" stroke="#2a2a3a" stroke-width="0.3"/>
  <path d="M35.7,-34.6L35.5,-34.3L35.2,-34.4L35.0,-33.6L35.2,-33.5L35.0,-33.4L34.9,-33.0L35.4,-33.2L35.4,-32.8L34.9,-30.9L34.8,-31.2L34.3,-32.9L34.3,-32.9L34.3,-32.9L34.6,-33.3L34.5,-33.3L34.8,-33.9L35.0,-34.8L35.1,-35.1L35.1,-35.1L35.5,-35.1L35.6,-35.3L35.8,-35.3L35.8,-34.8L35.7,-34.7L35.7,-34.6Z" fill="#1e1e2e" stroke="#2a2a3a" stroke-width="0.3"/>
  <path d="M35.8,-35.3L35.6,-35.3L35.5,-35.1L35.1,-35.1L35.5,-36.1L36.0,-36.9L36.0,-37.0L36.4,-36.9L36.6,-36.4L36.1,-36.0L35.8,-35.3Z" fill="#1e1e2e" stroke="#2a2a3a" stroke-width="0.3"/>
  <path d="M35.4,-33.2L34.9,-33.0L35.0,-33.4L35.2,-33.5L35.0,-33.6L35.2,-34.4L35.5,-34.3L35.5,-33.6L35.4,-33.2Z" fill="#1e1e2e" stroke="#2a2a3a" stroke-width="0.3"/>
  <path d="M35.5,-34.3L35.7,-34.6L36.8,-34.2L38.8,-35.4L39.2,-34.0L39.0,-33.8L37.0,-33.2L38.0,-32.1L37.7,-31.9L37.5,-31.5L36.7,-31.3L36.5,-30.9L36.1,-30.5L35.0,-30.7L34.9,-30.9L35.4,-32.8L35.4,-33.2L35.5,-33.6L35.5,-34.3Z" fill="#1e1e2e" stroke="#2a2a3a" stroke-width="0.3"/>
  <path d="M48.0,-31.4L48.2,-30.9L48.1,-30.7L48.4,-29.8L47.7,-29.8L47.5,-30.3L46.6,-30.4L47.3,-31.5L48.0,-31.4Z" fill="#1e1e2e" stroke="#2a2a3a" stroke-width="0.3"/>
  <path d="M39.2,-34.0L38.8,-35.4L41.0,-36.7L41.4,-38.2L41.3,-39.1L41.8,-39.4L42.3,-40.2L42.8,-40.4L43.9,-40.2L44.3,-39.9L44.8,-40.1L45.4,-38.6L46.1,-38.2L46.2,-37.5L45.6,-37.1L45.4,-36.2L46.1,-35.0L47.3,-34.4L47.8,-33.5L47.7,-32.6L48.0,-32.6L48.0,-32.0L48.6,-31.4L48.0,-31.4L47.3,-31.5L46.6,-30.4L44.7,-30.5L41.9,-32.9L40.4,-33.7L39.2,-34.0Z" fill="#1e1e2e" stroke="#2a2a3a" stroke-width="0.3"/>
  <path d="M100.1,-20.9L99.5,-20.6L99.0,-20.2L98.3,-20.1L97.8,-19.0L97.4,-18.8L97.9,-17.8L98.5,-17.1L98.9,-16.4L98.5,-15.5L98.2,-15.3L98.4,-14.8L99.1,-14.0L99.2,-13.4L99.2,-12.9L99.6,-12.0L99.0,-11.0L98.6,-10.0L98.5,-10.7L98.8,-11.5L98.4,-12.1L98.5,-13.2L98.1,-13.8L97.8,-15.0L97.6,-16.3L97.2,-17.2L96.5,-16.7L95.4,-15.9L94.8,-16.0L94.2,-16.3L94.5,-17.5L94.3,-18.5L93.5,-19.7L93.7,-20.1L93.1,-20.3L92.4,-21.1L92.3,-22.0L92.7,-21.8L92.7,-22.6L93.2,-22.9L93.1,-23.3L93.3,-23.7L93.3,-24.8L94.1,-24.6L94.6,-25.5L94.6,-26.0L95.2,-26.9L95.1,-27.6L96.4,-28.4L97.1,-28.2L97.1,-28.8L97.4,-29.1L97.3,-29.5L97.9,-29.6L98.2,-28.9L98.7,-28.6L98.7,-27.8L98.7,-26.9L97.7,-25.9L97.6,-24.6L98.7,-24.8L98.9,-23.8L99.5,-23.6L99.2,-22.7L100.0,-22.3L100.4,-22.1L101.2,-22.4L101.2,-22.0L100.3,-21.3L100.1,-20.9Z" fill="#1e1e2e" stroke="#2a2a3a" stroke-width="0.3"/>
  <path d="M87.8,-56.8L88.8,-57.1L90.7,-58.4L92.2,-59.2L93.1,-58.7L94.1,-58.7L94.8,-57.9L95.8,-57.9L97.3,-57.5L98.2,-58.6L97.8,-59.5L98.9,-61.2L100.0,-60.5L100.9,-60.3L102.1,-59.9L102.3,-58.7L103.7,-58.0L104.6,-58.3L105.9,-58.5L106.9,-58.3L107.9,-57.6L108.5,-56.8L109.4,-56.8L110.7,-56.6L111.6,-56.9L112.9,-57.2L114.4,-58.3L115.0,-58.1L115.5,-57.6L116.7,-57.7L116.2,-56.6L115.5,-55.1L115.7,-54.5L116.3,-54.6L117.3,-54.4L118.1,-55.0L118.9,-54.5L119.8,-53.4L119.7,-52.9L118.9,-53.1L117.4,-52.9L116.7,-52.5L116.0,-51.5L114.5,-51.0L113.5,-50.2L112.4,-50.5L111.9,-50.6L111.3,-49.7L111.7,-49.2L111.8,-48.7L111.1,-48.3L110.4,-47.5L109.2,-47.1L107.7,-47.0L106.1,-46.5L105.0,-45.8L104.5,-46.2L103.3,-46.2L101.8,-47.1L100.8,-47.3L99.5,-47.1L97.5,-47.4L96.3,-47.3L95.8,-48.2L95.3,-49.4L94.7,-49.6L93.5,-50.5L92.1,-50.7L90.9,-50.9L90.6,-51.5L91.0,-53.2L90.3,-54.4L88.9,-55.0L88.0,-55.8L87.8,-56.8Z" fill="#1e1e2e" stroke="#2a2a3a" stroke-width="0.3"/>
  <path d="M97.3,-29.5L97.4,-29.1L97.1,-28.8L97.1,-28.2L96.4,-28.4L95.1,-27.6L95.2,-26.9L94.6,-26.0L94.6,-25.5L94.1,-24.6L93.3,-24.8L93.3,-23.7L93.1,-23.3L93.2,-22.9L92.7,-22.6L92.1,-24.3L91.9,-24.3L91.7,-23.6L91.2,-24.2L91.5,-24.8L91.9,-24.9L92.4,-25.8L91.8,-26.0L90.9,-26.0L89.9,-26.1L89.8,-26.9L89.4,-27.0L88.6,-27.4L88.2,-26.7L88.9,-26.1L88.3,-25.7L88.1,-25.3L88.7,-25.0L88.5,-24.3L88.9,-23.5L89.0,-22.6L88.9,-22.2L88.2,-22.2L87.0,-22.0L87.0,-21.2L86.5,-20.6L85.1,-19.9L83.9,-18.6L83.2,-18.0L82.2,-17.3L82.2,-16.8L81.7,-16.5L80.8,-16.2L80.3,-16.1L80.0,-15.3L80.2,-14.0L80.3,-13.1L79.9,-12.1L79.9,-10.4L79.3,-10.4L78.9,-9.6L79.2,-9.3L78.3,-9.0L77.9,-8.3L77.5,-8.0L76.6,-8.9L76.1,-10.4L75.7,-11.4L75.4,-11.9L74.9,-12.8L74.6,-14.1L74.4,-14.8L73.5,-16.2L73.1,-18.2L72.8,-19.6L72.8,-20.9L72.6,-21.9L71.2,-21.2L70.5,-21.4L69.2,-22.7L69.6,-23.0L69.3,-23.5L68.2,-24.4L68.8,-25.1L71.0,-25.1L70.8,-26.1L70.3,-26.6L70.2,-27.5L69.5,-28.0L70.6,-29.2L71.8,-29.1L72.8,-30.3L73.5,-31.4L74.4,-32.6L74.4,-33.4L75.3,-34.1L74.5,-34.7L74.1,-35.5L73.7,-36.6L74.2,-37.1L75.8,-36.8L76.9,-37.0L77.8,-38.0L78.9,-36.6L78.8,-35.6L79.2,-35.0L79.2,-34.4L78.5,-34.5L78.7,-33.2L79.7,-32.5L81.1,-31.7L80.5,-31.2L80.1,-30.1L81.1,-29.7L82.0,-29.1L83.3,-28.5L84.7,-28.3L85.3,-27.8L86.0,-27.6L87.2,-27.4L88.1,-27.4L88.2,-27.8L88.0,-28.6L88.1,-29.0L88.7,-29.3L88.8,-28.4L88.8,-28.2L89.7,-27.7L90.4,-27.9L91.2,-27.8L92.0,-27.9L92.1,-28.6L91.7,-28.9L92.5,-29.1L93.4,-29.9L94.6,-30.6L95.4,-30.4L96.1,-30.8L96.6,-30.1L96.2,-29.7L97.3,-29.5Z" fill="#1e1e2e" stroke="#2a2a3a" stroke-width="0.3"/>
  <path d="M91.7,-28.9L92.1,-28.6L92.0,-27.9L91.2,-27.8L90.4,-27.9L89.7,-27.7L88.8,-28.2L88.8,-28.4L89.5,-29.2L90.0,-29.5L90.7,-29.3L91.3,-29.2L91.7,-28.9Z" fill="#1e1e2e" stroke="#2a2a3a" stroke-width="0.3"/>
  <path d="M88.1,-29.0L88.0,-28.6L88.2,-27.8L88.1,-27.4L87.2,-27.4L86.0,-27.6L85.3,-27.8L84.7,-28.3L83.3,-28.5L82.0,-29.1L81.1,-29.7L80.1,-30.1L80.5,-31.2L81.1,-31.7L81.5,-32.0L82.3,-31.6L83.3,-30.9L83.9,-30.7L84.2,-30.1L85.0,-29.9L85.8,-29.4L87.0,-29.2L88.1,-29.0Z" fill="#1e1e2e" stroke="#2a2a3a" stroke-width="0.3"/>
  <path d="M77.8,-38.0L76.9,-37.0L75.8,-36.8L74.2,-37.1L73.7,-36.6L74.1,-35.5L74.5,-34.7L75.3,-34.1L74.4,-33.4L74.4,-32.6L73.5,-31.4L72.8,-30.3L71.8,-29.1L70.6,-29.2L69.5,-28.0L70.2,-27.5L70.3,-26.6L70.8,-26.1L71.0,-25.1L68.8,-25.1L68.2,-24.4L67.4,-24.7L67.1,-25.5L66.4,-26.3L64.5,-26.1L62.9,-26.1L61.5,-25.9L61.9,-27.2L63.3,-27.8L63.2,-28.3L62.8,-28.5L62.7,-29.5L61.8,-30.0L61.4,-30.7L60.9,-31.3L62.5,-30.7L63.6,-30.9L64.1,-30.7L64.4,-31.0L65.0,-30.9L66.3,-31.3L66.4,-32.3L66.9,-33.0L67.7,-33.0L67.8,-33.3L68.6,-33.5L68.9,-33.4L69.3,-33.7L69.3,-34.4L69.7,-35.1L70.3,-35.4L69.9,-36.2L70.9,-36.2L71.2,-36.6L71.1,-37.1L71.6,-37.6L71.5,-38.2L71.3,-38.7L71.8,-39.3L72.9,-39.5L74.1,-39.7L74.6,-39.9L75.2,-40.0L75.9,-39.5L76.2,-38.5L77.8,-38.0Z" fill="#1e1e2e" stroke="#2a2a3a" stroke-width="0.3"/>
  <path d="M66.5,-40.3L67.1,-40.3L67.8,-40.1L68.1,-39.9L68.9,-40.3L69.2,-40.1L69.5,-40.6L70.1,-40.6L70.3,-40.8L70.4,-41.3L70.8,-41.8L71.3,-41.5L71.2,-41.1L71.5,-41.0L71.4,-40.0L71.8,-39.5L72.2,-39.8L72.6,-39.9L73.3,-40.5L73.9,-40.4L75.0,-40.4L75.2,-40.0L74.6,-39.9L74.1,-39.7L72.9,-39.5L71.8,-39.3L71.3,-38.7L71.5,-38.2L71.6,-37.6L71.1,-37.1L71.2,-36.6L70.9,-36.2L69.9,-36.2L70.3,-35.4L69.7,-35.1L69.3,-34.4L69.3,-33.7L68.9,-33.4L68.6,-33.5L67.8,-33.3L67.7,-33.0L66.9,-33.0L66.4,-32.3L66.3,-31.3L65.0,-30.9L64.4,-31.0L64.1,-30.7L63.6,-30.9L62.5,-30.7L60.9,-31.3L61.8,-32.3L61.7,-33.1L60.9,-33.3L60.9,-34.0L60.5,-35.0L61.0,-35.6L60.5,-35.8L60.8,-36.7L61.2,-38.2L62.2,-37.7L63.0,-37.9L63.2,-38.5L64.0,-38.6L64.5,-39.0L64.7,-40.0L65.6,-40.3L65.7,-40.7L66.2,-40.4L66.5,-40.3Z" fill="#1e1e2e" stroke="#2a2a3a" stroke-width="0.3"/>
  <path d="M67.8,-40.1L68.4,-41.3L68.2,-42.3L67.4,-42.6L67.7,-43.2L68.5,-43.1L69.0,-43.8L69.3,-44.7L70.7,-45.0L70.5,-44.4L70.6,-44.0L71.0,-44.0L70.6,-43.6L69.6,-43.8L69.5,-43.1L70.5,-43.2L71.8,-42.8L73.7,-43.0L73.9,-41.8L74.3,-41.9L74.9,-41.6L74.8,-41.1L75.0,-40.4L73.9,-40.4L73.3,-40.5L72.6,-39.9L72.2,-39.8L71.8,-39.5L71.4,-40.0L71.5,-41.0L71.2,-41.1L71.3,-41.5L70.8,-41.8L70.4,-41.3L70.3,-40.8L70.1,-40.6L69.5,-40.6L69.2,-40.1L68.9,-40.3L68.1,-39.9L67.8,-40.1Z" fill="#1e1e2e" stroke="#2a2a3a" stroke-width="0.3"/>
  <path d="M71.0,-46.7L71.2,-47.3L71.8,-47.5L73.5,-47.0L73.6,-47.8L74.2,-48.1L75.6,-47.6L76.0,-47.7L77.7,-47.7L79.1,-47.5L79.6,-47.0L80.3,-46.8L80.1,-46.5L78.5,-45.8L78.2,-45.3L76.9,-45.1L76.5,-44.3L75.5,-44.4L74.8,-44.2L73.8,-43.6L74.0,-43.3L73.7,-43.0L71.8,-42.8L70.5,-43.2L69.5,-43.1L69.6,-43.8L70.6,-43.6L71.0,-44.0L71.8,-43.9L73.1,-44.8L71.9,-45.5L71.2,-45.2L70.4,-45.7L71.3,-46.6L71.0,-46.7Z" fill="#1e1e2e" stroke="#2a2a3a" stroke-width="0.3"/>
  <path d="M52.5,-46.1L52.9,-46.5L54.1,-46.8L54.8,-46.4L55.5,-45.4L56.0,-45.4L57.1,-45.5L56.9,-46.1L57.8,-46.6L58.6,-47.4L60.0,-46.7L60.1,-45.6L60.5,-45.3L61.5,-45.4L61.9,-45.1L62.4,-43.8L63.5,-42.9L64.2,-42.3L65.2,-41.7L66.5,-41.1L66.5,-40.3L66.2,-40.4L65.7,-40.7L65.6,-40.3L64.7,-40.0L64.5,-39.0L64.0,-38.6L63.2,-38.5L63.0,-37.9L62.2,-37.7L61.2,-38.2L61.1,-39.2L60.4,-39.3L59.2,-40.4L58.4,-40.5L57.3,-41.2L56.6,-41.3L56.2,-41.1L55.5,-41.1L54.8,-40.4L53.9,-40.1L53.7,-41.0L53.9,-42.4L53.1,-42.8L53.4,-43.7L52.7,-43.8L52.9,-44.9L53.9,-44.5L54.7,-45.0L54.0,-45.8L53.7,-46.5L52.9,-46.2L52.8,-45.2L52.5,-46.1Z" fill="#1e1e2e" stroke="#2a2a3a" stroke-width="0.3"/>
  <path d="M48.6,-31.4L48.0,-32.0L48.0,-32.6L47.7,-32.6L47.8,-33.5L47.3,-34.4L46.1,-35.0L45.4,-36.2L45.6,-37.1L46.2,-37.5L46.1,-38.2L45.4,-38.6L44.8,-40.1L44.8,-40.1L44.2,-41.1L44.4,-41.5L44.1,-43.0L44.8,-43.3L45.0,-42.8L45.5,-42.3L46.1,-42.1L46.5,-42.1L47.7,-43.1L48.1,-43.2L48.4,-42.8L48.0,-42.2L48.6,-41.5L48.9,-41.5L49.2,-40.6L50.1,-40.3L50.8,-39.7L52.3,-39.5L53.8,-39.8L53.9,-40.1L54.8,-40.4L55.5,-41.1L56.2,-41.1L56.6,-41.3L57.3,-41.2L58.4,-40.5L59.2,-40.4L60.4,-39.3L61.1,-39.2L61.2,-38.2L60.8,-36.7L60.5,-35.8L61.0,-35.6L60.5,-35.0L60.9,-34.0L60.9,-33.3L61.7,-33.1L61.8,-32.3L60.9,-31.3L61.4,-30.7L61.8,-30.0L62.7,-29.5L62.8,-28.5L63.2,-28.3L63.3,-27.8L61.9,-27.2L61.5,-25.9L59.6,-26.3L58.5,-26.5L57.4,-26.7L57.0,-28.0L56.5,-28.2L55.7,-28.0L54.7,-27.5L53.5,-27.8L52.5,-28.7L51.5,-29.0L50.9,-30.1L50.1,-31.6L49.6,-31.5L48.9,-31.8L48.6,-31.4Z" fill="#1e1e2e" stroke="#2a2a3a" stroke-width="0.3"/>
  <path d="M35.7,-34.6L35.7,-34.7L35.8,-34.8L35.8,-35.3L36.1,-36.0L36.6,-36.4L36.4,-36.9L36.0,-37.0L35.9,-37.9L36.1,-38.4L36.4,-38.7L36.7,-39.0L36.7,-39.6L37.1,-39.4L38.2,-39.8L38.7,-39.5L39.5,-39.5L40.7,-40.0L41.2,-40.0L42.3,-40.2L41.8,-39.4L41.3,-39.1L41.4,-38.2L41.0,-36.7L38.8,-35.4L36.8,-34.2L35.7,-34.6Z" fill="#1e1e2e" stroke="#2a2a3a" stroke-width="0.3"/>
  <path d="M46.5,-42.1L46.1,-42.1L45.7,-42.8L45.7,-43.0L45.3,-43.0L45.0,-43.4L44.8,-43.3L44.4,-43.7L43.7,-44.0L43.8,-44.7L43.6,-45.1L45.0,-45.4L45.2,-45.0L45.6,-44.8L45.4,-44.4L45.9,-44.0L45.6,-43.6L46.0,-43.2L46.5,-43.0L46.5,-42.1Z" fill="#1e1e2e" stroke="#2a2a3a" stroke-width="0.3"/>
  <path d="M11.0,-73.2L11.5,-74.3L12.3,-75.7L12.6,-78.1L12.0,-79.2L11.9,-82.0L12.6,-84.1L13.6,-84.1L13.9,-85.0L13.6,-85.8L15.1,-89.2L16.1,-92.0L16.8,-93.9L17.7,-93.9L18.0,-95.4L19.9,-94.9L20.0,-96.8L20.6,-96.9L22.0,-95.5L23.5,-93.7L23.6,-89.7L23.9,-88.7L22.2,-88.0L21.2,-86.4L21.4,-84.9L19.8,-83.1L17.8,-81.2L17.1,-78.2L17.8,-76.7L18.8,-75.6L17.9,-73.4L16.8,-72.9L16.4,-69.8L15.9,-68.1L14.7,-68.3L14.1,-66.8L12.9,-66.8L12.6,-68.4L11.8,-70.5L11.0,-73.2Z" fill="#1e1e2e" stroke="#2a2a3a" stroke-width="0.3"/>
  <path d="M28.2,-68.2L29.2,-67.8L29.4,-67.3L29.9,-67.5L30.9,-67.1L31.0,-66.3L30.8,-65.8L31.4,-64.7L31.8,-64.4L31.7,-64.1L32.4,-63.8L32.7,-63.3L32.3,-63.0L31.5,-63.0L31.3,-62.9L31.5,-62.3L31.8,-61.3L31.8,-61.3L30.9,-61.2L30.6,-60.8L30.6,-60.0L30.2,-60.1L29.3,-60.1L29.0,-60.4L28.6,-60.2L28.2,-60.4L27.5,-60.4L26.3,-60.8L25.3,-60.9L24.6,-60.9L24.0,-60.5L23.5,-60.4L23.5,-61.1L23.2,-61.9L23.8,-62.2L23.8,-62.9L23.5,-63.5L23.5,-64.3L24.5,-64.3L25.5,-64.9L25.8,-65.9L26.6,-66.4L26.5,-67.2L27.1,-67.5L28.2,-68.2Z" fill="#1e1e2e" stroke="#2a2a3a" stroke-width="0.3"/>
  <path d="M31.8,-61.3L32.2,-61.2L32.4,-61.6L32.7,-61.5L33.8,-61.6L34.4,-60.7L34.1,-60.4L34.2,-59.9L35.0,-59.8L35.4,-59.1L35.4,-58.8L36.6,-58.3L37.4,-58.5L38.0,-57.8L38.6,-57.8L40.1,-57.3L40.1,-56.8L39.7,-56.0L39.9,-55.2L39.7,-54.7L38.8,-54.6L38.3,-54.2L38.2,-53.5L37.4,-53.4L36.8,-52.9L35.8,-52.9L35.0,-52.3L35.0,-51.5L34.9,-51.6L34.7,-51.9L34.4,-51.9L33.7,-52.2L33.4,-51.9L33.3,-52.0L31.7,-52.4L31.7,-52.9L30.7,-52.8L30.4,-52.0L29.6,-50.9L29.1,-51.2L28.7,-50.9L28.2,-51.2L28.5,-51.3L28.7,-51.8L28.9,-52.3L28.9,-52.6L29.1,-52.7L29.2,-52.5L29.8,-52.4L30.0,-52.5L29.8,-52.7L29.9,-52.9L29.6,-53.3L29.4,-53.9L29.1,-54.1L29.1,-54.6L28.7,-55.0L28.3,-55.1L27.5,-55.6L26.9,-55.4L26.6,-55.2L26.2,-55.2L25.9,-54.8L25.2,-54.7L24.9,-54.5L24.4,-54.8L23.8,-54.8L23.1,-55.0L22.7,-54.7L22.6,-55.1L22.1,-55.5L22.3,-56.1L22.6,-56.5L22.8,-56.4L22.5,-57.1L23.4,-58.4L23.9,-58.6L24.0,-59.0L23.5,-60.4L24.0,-60.5L24.6,-60.9L25.3,-60.9L26.3,-60.8L27.5,-60.4L28.2,-60.4L28.6,-60.2L29.0,-60.4L29.3,-60.1L30.2,-60.1L30.6,-60.0L30.6,-60.8L30.9,-61.2L31.8,-61.3Z" fill="#1e1e2e" stroke="#2a2a3a" stroke-width="0.3"/>
  <path d="M23.5,-64.3L23.5,-63.5L23.8,-62.9L23.8,-62.2L23.2,-61.9L23.5,-61.1L23.5,-60.4L24.0,-59.0L23.9,-58.6L23.4,-58.4L22.5,-57.1L22.8,-56.4L22.6,-56.5L21.6,-57.1L20.9,-56.9L20.4,-57.0L19.8,-56.7L19.3,-57.2L18.9,-57.0L18.9,-57.1L18.4,-57.9L17.6,-58.0L17.6,-58.5L16.9,-58.6L16.7,-58.2L16.2,-58.6L16.2,-59.0L15.5,-59.1L15.0,-59.6L14.6,-60.7L14.7,-61.2L14.4,-62.1L14.1,-62.7L14.4,-63.1L14.1,-64.0L14.8,-64.5L16.4,-65.3L17.6,-65.9L18.6,-65.6L18.7,-65.2L19.7,-65.1L20.9,-64.9L22.7,-65.0L23.2,-64.8L23.5,-64.3Z" fill="#1e1e2e" stroke="#2a2a3a" stroke-width="0.3"/>
  <path d="M22.1,-55.5L22.6,-55.1L22.7,-54.7L22.1,-54.4L21.6,-53.4L21.0,-52.4L20.2,-52.1L19.6,-52.2L18.8,-51.8L18.8,-51.8L18.5,-51.6L17.6,-51.9L16.9,-52.5L16.6,-52.7L16.4,-53.1L16.2,-53.2L16.5,-54.1L16.3,-54.4L16.9,-54.4L17.0,-55.0L17.5,-54.7L17.9,-54.5L18.7,-54.7L18.8,-55.0L19.2,-55.0L19.7,-55.3L19.8,-55.2L20.2,-55.3L20.5,-55.7L20.8,-55.8L21.9,-55.3L22.1,-55.5Z" fill="#1e1e2e" stroke="#2a2a3a" stroke-width="0.3"/>
  <path d="M26.6,-55.2L26.9,-55.4L27.5,-55.6L28.3,-55.1L28.7,-55.0L29.1,-54.6L29.1,-54.1L29.4,-53.9L29.6,-53.3L29.9,-52.9L29.8,-52.7L30.0,-52.5L29.8,-52.4L29.2,-52.5L29.1,-52.7L28.9,-52.6L28.9,-52.3L28.7,-51.8L28.5,-51.3L28.2,-51.2L28.1,-51.8L28.2,-52.5L28.1,-53.1L27.6,-54.0L27.2,-54.6L26.9,-55.0L26.6,-55.2Z" fill="#1e1e2e" stroke="#2a2a3a" stroke-width="0.3"/>
  <path d="M28.2,-51.2L28.7,-50.9L29.1,-51.2L29.6,-50.9L29.6,-50.5L29.1,-50.2L28.8,-50.4L28.6,-48.7L28.0,-48.8L27.2,-49.3L26.1,-49.0L25.6,-48.7L24.1,-48.7L23.3,-49.0L22.9,-48.9L22.7,-49.4L22.5,-49.7L22.7,-49.9L22.5,-50.1L22.1,-49.8L21.6,-50.2L21.5,-50.8L20.9,-51.1L20.8,-51.5L20.2,-52.1L21.0,-52.4L21.6,-53.4L22.1,-54.4L22.7,-54.7L23.1,-55.0L23.8,-54.8L24.4,-54.8L24.9,-54.5L25.2,-54.7L25.9,-54.8L26.2,-55.2L26.6,-55.2L26.9,-55.0L27.2,-54.6L27.6,-54.0L28.1,-53.1L28.2,-52.5L28.1,-51.8L28.2,-51.2Z" fill="#1e1e2e" stroke="#2a2a3a" stroke-width="0.3"/>
  <path d="M26.5,-67.2L26.6,-66.4L25.8,-65.9L25.5,-64.9L24.5,-64.3L23.5,-64.3L23.2,-64.8L22.7,-65.0L22.7,-65.4L22.8,-65.9L22.3,-66.2L21.3,-66.5L21.1,-68.0L22.2,-68.5L23.9,-68.4L24.9,-68.6L25.0,-68.2L25.5,-68.1L26.5,-67.2Z" fill="#1e1e2e" stroke="#2a2a3a" stroke-width="0.3"/>
  <path d="M27.3,-70.6L27.8,-70.2L27.9,-69.3L28.2,-68.2L27.1,-67.5L26.5,-67.2L25.5,-68.1L25.0,-68.2L24.9,-68.6L23.9,-68.4L22.2,-68.5L21.1,-68.0L21.1,-69.3L21.6,-70.5L22.5,-71.1L23.3,-69.7L24.1,-69.8L24.3,-71.2L25.2,-71.5L25.6,-71.3L26.5,-70.6L27.3,-70.6Z" fill="#1e1e2e" stroke="#2a2a3a" stroke-width="0.3"/>
  <path d="M28.0,-74.4L28.0,-74.4L28.1,-74.1L27.4,-73.0L27.7,-71.2L27.3,-70.6L26.5,-70.6L25.6,-71.3L25.2,-71.5L24.3,-71.2L24.4,-72.3L24.1,-72.1L23.4,-72.7L23.3,-73.9L24.6,-74.4L25.9,-74.7L26.9,-74.4L28.0,-74.4L28.0,-74.4Z" fill="#1e1e2e" stroke="#2a2a3a" stroke-width="0.3"/>
  <path d="M22.7,-49.4L22.9,-48.9L23.3,-49.0L24.1,-48.7L25.6,-48.7L26.1,-49.0L27.2,-49.3L28.0,-48.8L28.6,-48.7L28.0,-48.1L27.7,-47.1L28.0,-46.4L27.1,-46.6L26.1,-46.1L26.1,-45.5L25.2,-45.3L24.5,-45.8L23.7,-45.4L23.0,-45.5L22.9,-46.4L22.4,-46.8L22.5,-47.0L22.4,-47.1L22.6,-47.6L23.0,-48.0L22.5,-48.6L22.4,-49.1L22.7,-49.4Z" fill="#1e1e2e" stroke="#2a2a3a" stroke-width="0.3"/>
  <path d="M26.3,-37.8L26.2,-37.4L24.7,-37.3L24.7,-37.5L23.5,-37.7L23.7,-38.3L24.2,-37.9L25.0,-37.9L25.8,-37.8L25.7,-37.6L26.3,-37.8ZM23.0,-45.5L23.7,-45.4L24.5,-45.8L25.2,-45.3L26.1,-45.5L26.1,-46.1L26.6,-45.8L26.3,-44.9L26.1,-44.8L25.4,-44.8L24.9,-45.0L23.7,-44.6L24.4,-43.9L23.9,-43.7L23.3,-43.7L22.8,-44.3L22.6,-44.0L22.8,-43.3L23.4,-42.7L23.0,-42.4L23.5,-41.8L24.0,-41.4L24.0,-40.7L23.1,-41.0L23.4,-40.4L22.8,-40.3L23.2,-39.2L22.5,-39.1L21.7,-39.7L21.3,-40.7L21.1,-41.5L20.7,-42.1L20.2,-42.9L20.2,-43.2L20.6,-43.9L20.7,-44.3L21.0,-44.5L21.0,-44.8L21.7,-44.9L22.1,-45.2L22.6,-45.2L22.8,-45.4L23.0,-45.5Z" fill="#1e1e2e" stroke="#2a2a3a" stroke-width="0.3"/>
  <path d="M44.8,-40.1L44.3,-39.9L43.9,-40.2L42.8,-40.4L42.3,-40.2L41.2,-40.0L40.7,-40.0L39.5,-39.5L38.7,-39.5L38.2,-39.8L37.1,-39.4L36.7,-39.6L36.7,-39.0L36.4,-38.7L36.1,-38.4L35.8,-39.0L36.2,-39.4L35.6,-39.3L34.7,-39.6L34.0,-38.9L32.5,-38.8L31.7,-39.4L30.6,-39.5L30.4,-39.0L29.7,-38.8L28.7,-39.5L27.6,-39.5L27.0,-40.7L26.3,-41.4L26.8,-42.4L26.2,-43.0L27.3,-44.3L28.8,-44.3L29.2,-45.3L31.1,-45.1L32.3,-46.0L33.5,-46.4L35.2,-46.4L36.9,-45.5L38.3,-45.0L39.5,-45.2L40.4,-45.0L41.6,-45.7L42.6,-45.8L43.6,-45.1L43.8,-44.7L43.7,-44.0L44.4,-43.7L44.8,-43.3L44.1,-43.0L44.4,-41.5L44.2,-41.1L44.8,-40.1L44.8,-40.1ZM26.1,-46.1L27.1,-46.6L28.0,-46.4L28.1,-45.9L29.0,-45.4L28.8,-45.1L27.6,-45.0L27.2,-44.6L26.4,-43.9L26.0,-44.5L26.1,-44.8L26.3,-44.9L26.6,-45.8L26.1,-46.1Z" fill="#1e1e2e" stroke="#2a2a3a" stroke-width="0.3"/>
  <path d="M21.0,-44.8L21.0,-44.5L20.7,-44.3L20.6,-43.9L20.2,-43.2L20.0,-43.3L20.0,-43.6L19.4,-44.0L19.3,-44.7L19.4,-45.6L19.5,-46.0L19.4,-46.2L19.4,-46.2L19.3,-46.6L19.7,-47.3L19.8,-47.0L20.1,-47.2L20.3,-46.8L20.5,-46.7L20.6,-46.2L20.6,-46.2L20.5,-45.7L20.6,-45.1L21.0,-44.8Z" fill="#1e1e2e" stroke="#2a2a3a" stroke-width="0.3"/>
  <path d="M16.6,-52.7L16.9,-52.5L17.6,-51.9L18.5,-51.6L18.8,-51.8L19.1,-51.2L19.4,-50.8L19.0,-50.3L18.6,-50.6L17.9,-50.6L17.0,-50.8L16.5,-50.8L16.3,-50.5L16.0,-50.8L15.8,-50.2L16.2,-49.6L16.5,-49.2L16.9,-48.6L17.3,-48.3L17.7,-47.8L18.6,-47.2L18.5,-47.0L18.5,-47.0L17.5,-47.5L16.9,-48.0L16.0,-48.4L15.2,-49.4L15.4,-49.5L14.9,-50.1L14.9,-50.6L14.3,-50.8L14.0,-50.2L13.7,-50.7L13.7,-51.2L13.7,-51.2L14.4,-51.2L14.6,-51.4L14.9,-51.2L15.3,-51.1L15.3,-51.5L15.7,-51.7L15.8,-52.3L16.6,-52.7Z" fill="#1e1e2e" stroke="#2a2a3a" stroke-width="0.3"/>
  <path d="M109.5,-18.5L108.7,-18.8L108.6,-19.7L109.1,-20.2L110.2,-20.5L110.8,-20.5L111.0,-20.1L110.6,-19.6L110.3,-19.0L109.5,-18.5ZM80.3,-46.8L80.2,-47.6L80.9,-48.0L80.0,-50.4L81.9,-50.9L82.5,-51.3L83.2,-53.9L85.2,-53.4L85.7,-54.0L85.8,-55.5L86.6,-55.7L87.4,-56.7L87.8,-56.8L88.0,-55.8L88.9,-55.0L90.3,-54.4L91.0,-53.2L90.6,-51.5L90.9,-50.9L92.1,-50.7L93.5,-50.5L94.7,-49.6L95.3,-49.4L95.8,-48.2L96.3,-47.3L97.5,-47.4L99.5,-47.1L100.8,-47.3L101.8,-47.1L103.3,-46.2L104.5,-46.2L105.0,-45.8L106.1,-46.5L107.7,-47.0L109.2,-47.1L110.4,-47.5L111.1,-48.3L111.8,-48.7L111.7,-49.2L111.3,-49.7L111.9,-50.6L112.4,-50.5L113.5,-50.2L114.5,-51.0L116.0,-51.5L116.7,-52.5L117.4,-52.9L118.9,-53.1L119.7,-52.9L119.8,-53.4L118.9,-54.5L118.1,-55.0L117.3,-54.4L116.3,-54.6L115.7,-54.5L115.5,-55.1L116.2,-56.6L116.7,-57.7L117.9,-57.2L119.3,-58.1L119.3,-58.8L120.2,-60.5L120.7,-61.0L120.7,-61.9L120.2,-62.3L121.0,-63.1L122.2,-63.5L123.6,-63.5L125.1,-63.0L125.9,-62.4L126.6,-60.7L126.9,-60.0L127.3,-59.1L127.7,-57.5L129.4,-57.0L130.6,-56.0L131.0,-54.5L132.5,-54.5L133.4,-55.1L135.0,-55.6L134.5,-54.2L134.1,-53.7L133.8,-52.1L133.1,-50.7L131.9,-51.0L131.0,-50.5L131.3,-49.3L131.1,-47.6L130.6,-47.6L130.6,-46.9L130.0,-47.7L129.6,-46.9L128.1,-46.4L128.2,-45.6L127.3,-45.7L126.9,-46.1L126.2,-45.2L125.1,-44.5L124.3,-43.6L122.9,-43.2L122.1,-42.6L121.1,-42.3L121.6,-42.9L121.4,-43.4L122.2,-44.3L121.6,-45.0L120.8,-44.5L119.6,-43.6L119.0,-42.7L118.0,-42.7L117.5,-42.1L118.1,-41.2L118.9,-41.0L118.9,-40.4L119.7,-40.1L120.8,-41.0L121.7,-40.5L122.4,-40.4L122.5,-39.8L121.1,-39.4L120.6,-38.8L119.7,-38.2L119.2,-37.3L120.2,-36.6L120.6,-35.4L121.2,-34.4L121.9,-33.4L121.9,-32.6L121.3,-32.3L121.5,-31.6L122.1,-31.3L121.9,-30.3L121.7,-29.4L121.1,-29.3L120.4,-28.1L119.6,-26.7L118.7,-25.3L117.3,-24.3L115.9,-23.4L114.8,-23.3L114.2,-22.8L113.8,-23.2L113.2,-22.6L111.8,-22.1L110.8,-21.9L110.4,-20.8L109.9,-20.7L109.6,-21.5L109.9,-21.9L108.5,-22.3L108.1,-22.1L107.0,-22.4L106.6,-22.8L106.7,-23.4L105.8,-23.6L105.3,-24.0L104.5,-23.4L103.5,-23.3L102.7,-23.3L102.2,-23.1L101.7,-22.9L101.8,-21.7L101.3,-21.7L101.2,-22.0L101.2,-22.4L100.4,-22.1L100.0,-22.3L99.2,-22.7L99.5,-23.6L98.9,-23.8L98.7,-24.8L97.6,-24.6L97.7,-25.9L98.7,-26.9L98.7,-27.8L98.7,-28.6L98.2,-28.9L97.9,-29.6L97.3,-29.5L96.2,-29.7L96.6,-30.1L96.1,-30.8L95.4,-30.4L94.6,-30.6L93.4,-29.9L92.5,-29.1L91.7,-28.9L91.3,-29.2L90.7,-29.3L90.0,-29.5L89.5,-29.2L88.8,-28.4L88.7,-29.3L88.1,-29.0L87.0,-29.2L85.8,-29.4L85.0,-29.9L84.2,-30.1L83.9,-30.7L83.3,-30.9L82.3,-31.6L81.5,-32.0L81.1,-31.7L79.7,-32.5L78.7,-33.2L78.5,-34.5L79.2,-34.4L79.2,-35.0L78.8,-35.6L78.9,-36.6L77.8,-38.0L76.2,-38.5L75.9,-39.5L75.2,-40.0L75.0,-40.4L74.8,-41.1L74.9,-41.6L74.3,-41.9L73.9,-41.8L73.7,-43.0L74.0,-43.3L73.8,-43.6L74.8,-44.2L75.5,-44.4L76.5,-44.3L76.9,-45.1L78.2,-45.3L78.5,-45.8L80.1,-46.5L80.3,-46.8Z" fill="#1e1e2e" stroke="#2a2a3a" stroke-width="0.3"/>
  <path d="M10.4,-53.2L11.0,-53.0L11.2,-53.3L12.2,-53.5L12.4,-53.0L13.8,-52.7L13.7,-51.9L13.9,-51.3L13.1,-51.5L12.3,-51.0L12.4,-50.3L12.3,-49.9L12.6,-49.2L13.5,-48.5L14.0,-47.4L15.1,-46.3L15.9,-46.3L16.2,-46.0L15.9,-45.7L16.8,-45.3L17.5,-44.9L18.4,-44.2L18.5,-43.9L18.3,-43.5L17.7,-44.1L16.9,-44.3L16.4,-43.4L17.2,-43.0L17.1,-42.3L16.6,-42.2L16.1,-41.1L15.7,-41.0L15.7,-41.4L15.9,-42.1L16.1,-42.4L15.7,-43.1L15.4,-43.8L15.0,-43.9L14.7,-44.5L14.1,-44.7L13.6,-45.3L12.9,-45.4L12.1,-46.0L11.2,-46.8L10.5,-47.6L10.2,-49.0L9.7,-49.1L8.9,-49.6L8.4,-49.4L7.9,-48.8L7.4,-48.7L7.5,-49.3L7.0,-49.5L6.7,-50.5L7.1,-51.0L6.8,-51.5L6.8,-51.9L7.3,-51.6L7.8,-51.7L8.3,-52.2L8.5,-51.9L9.0,-52.0L9.2,-52.6L9.9,-52.4L10.4,-52.6L10.4,-53.2ZM14.8,-41.3L15.5,-41.4L15.2,-40.4L15.3,-40.0L15.1,-39.4L14.3,-39.9L13.8,-40.0L12.4,-40.6L12.6,-41.3L13.7,-41.2L14.8,-41.3ZM8.7,-44.9L9.2,-45.3L9.8,-44.4L9.7,-42.6L9.2,-42.7L8.8,-42.3L8.4,-42.6L8.4,-44.2L8.2,-45.0L8.7,-44.9Z" fill="#1e1e2e" stroke="#2a2a3a" stroke-width="0.3"/>
  <path d="M46.4,-46.2L46.7,-46.1L47.4,-45.3L47.8,-45.2L48.0,-45.6L48.6,-46.1L49.1,-45.4L49.6,-44.5L50.1,-44.4L50.4,-44.0L49.6,-43.9L49.4,-42.9L49.2,-42.5L48.9,-42.2L48.9,-41.5L48.6,-41.5L48.0,-42.2L48.4,-42.8L48.1,-43.2L47.7,-43.1L46.5,-42.1L46.5,-43.0L46.0,-43.2L45.6,-43.6L45.9,-44.0L45.4,-44.4L45.6,-44.8L45.2,-45.0L45.0,-45.4L45.2,-45.6L46.0,-45.2L46.5,-45.1L46.6,-45.3L46.1,-46.0L46.4,-46.2ZM46.1,-42.1L45.5,-42.3L45.0,-42.8L44.8,-43.3L45.0,-43.4L45.3,-43.0L45.7,-43.0L45.7,-42.8L46.1,-42.1Z" fill="#1e1e2e" stroke="#2a2a3a" stroke-width="0.3"/>
  <path d="M40.0,-48.3L40.1,-48.5L40.9,-48.2L42.4,-48.0L43.8,-47.4L43.9,-47.1L44.5,-47.3L45.5,-47.0L45.8,-46.5L46.4,-46.2L46.1,-46.0L46.6,-45.3L46.5,-45.1L46.0,-45.2L45.2,-45.6L45.0,-45.4L43.6,-45.1L42.6,-45.8L41.6,-45.7L41.7,-46.3L41.5,-47.2L40.9,-47.7L40.3,-47.9L40.0,-48.3Z" fill="#1e1e2e" stroke="#2a2a3a" stroke-width="0.3"/>
  <path d="M28.6,-96.8L28.4,-94.8L30.0,-93.0L29.1,-91.1L30.2,-88.3L29.5,-86.2L30.4,-84.5L30.0,-83.0L31.5,-81.5L31.1,-80.3L30.2,-79.1L28.1,-76.5L28.1,-76.5L28.1,-76.5L26.3,-76.3L24.5,-75.6L22.9,-75.1L22.3,-76.2L21.3,-76.9L21.5,-79.0L21.1,-80.9L21.5,-82.2L22.4,-83.6L24.7,-86.1L25.4,-86.6L25.3,-87.6L23.9,-88.7L23.6,-89.7L23.5,-93.7L22.0,-95.5L20.6,-96.9L21.2,-97.6L22.4,-96.1L23.7,-96.3L24.7,-95.6L25.7,-96.8L26.2,-98.9L27.7,-99.9L29.0,-98.8L28.6,-96.8Z" fill="#1e1e2e" stroke="#2a2a3a" stroke-width="0.3"/>
  <path d="M22.6,-56.5L22.3,-56.1L22.1,-55.5L21.9,-55.3L20.8,-55.8L20.5,-55.7L20.2,-55.3L19.8,-55.2L19.7,-55.3L19.2,-55.0L18.8,-55.0L18.7,-54.7L17.9,-54.5L17.5,-54.7L17.0,-55.0L16.9,-55.6L17.0,-55.8L17.1,-56.1L17.5,-56.1L17.9,-56.2L17.9,-56.4L18.1,-56.4L18.2,-56.8L18.4,-56.8L18.6,-57.1L18.9,-57.1L18.9,-57.0L19.3,-57.2L19.8,-56.7L20.4,-57.0L20.9,-56.9L21.6,-57.1L22.6,-56.5Z" fill="#1e1e2e" stroke="#2a2a3a" stroke-width="0.3"/>
  <path d="M15.0,-59.6L15.5,-59.1L16.2,-59.0L16.2,-58.6L16.7,-58.2L16.9,-58.6L17.6,-58.5L17.6,-58.0L18.4,-57.9L18.9,-57.1L18.6,-57.1L18.4,-56.8L18.2,-56.8L18.1,-56.4L17.9,-56.4L17.9,-56.2L17.5,-56.1L17.1,-56.1L17.0,-55.8L16.5,-56.0L16.0,-56.0L15.3,-56.4L14.9,-56.3L14.3,-55.7L13.6,-56.2L13.0,-56.8L12.5,-57.2L12.4,-57.9L12.2,-58.3L13.0,-58.7L13.3,-59.1L14.1,-59.4L14.3,-59.7L14.6,-59.5L15.0,-59.6Z" fill="#1e1e2e" stroke="#2a2a3a" stroke-width="0.3"/>
  <path d="M35.0,-30.7L36.1,-30.5L36.5,-30.9L36.7,-31.3L37.5,-31.5L37.7,-31.9L38.0,-32.1L37.0,-33.2L39.0,-33.8L39.2,-34.0L40.4,-33.7L41.9,-32.9L44.7,-30.5L46.6,-30.4L47.5,-30.3L47.7,-29.8L48.4,-29.8L48.8,-28.8L49.3,-28.6L49.5,-28.2L50.2,-27.7L50.2,-27.2L50.1,-26.9L50.2,-26.5L50.5,-26.2L50.7,-25.8L50.8,-25.6L51.1,-25.3L51.4,-25.4L51.6,-25.0L51.6,-24.7L52.0,-23.6L55.0,-23.1L55.2,-23.3L55.7,-22.6L55.0,-20.4L52.0,-19.4L49.1,-19.0L48.2,-18.5L47.5,-17.4L47.0,-17.2L46.7,-17.6L46.4,-17.5L45.4,-17.6L45.2,-17.7L44.1,-17.7L43.8,-17.6L43.4,-17.9L43.1,-17.3L43.2,-16.9L42.8,-16.6L42.6,-17.0L42.3,-17.3L42.3,-17.8L41.8,-18.1L41.2,-19.0L40.9,-19.9L40.2,-20.6L39.8,-20.8L39.1,-21.8L39.0,-22.5L39.1,-23.2L38.5,-24.4L38.0,-24.8L37.5,-25.0L37.2,-25.7L37.2,-25.9L36.9,-26.5L36.6,-26.7L36.2,-27.6L35.6,-28.5L35.1,-29.3L34.6,-29.3L34.8,-29.9L34.8,-30.3L35.0,-30.7Z" fill="#1e1e2e" stroke="#2a2a3a" stroke-width="0.3"/>
  <path d="M32.7,-37.6L32.8,-37.6L32.9,-37.9L33.7,-37.9L34.6,-38.2L33.9,-37.7L34.0,-37.5L33.9,-37.5L33.7,-37.4L33.5,-37.5L33.5,-37.4L33.5,-37.5L33.4,-37.6L33.2,-37.6L32.9,-37.5L32.7,-37.6Z" fill="#1e1e2e" stroke="#2a2a3a" stroke-width="0.3"/>
  <path d="M32.7,-37.6L32.9,-37.5L33.2,-37.6L33.4,-37.6L33.5,-37.5L33.5,-37.4L33.5,-37.5L33.7,-37.4L33.9,-37.5L34.0,-37.5L34.0,-37.4L33.0,-36.9L32.5,-37.0L32.3,-37.5L32.7,-37.6Z" fill="#1e1e2e" stroke="#2a2a3a" stroke-width="0.3"/>
  <path d="M36.9,-22.6L32.9,-22.6L29.0,-22.6L25.0,-22.6L25.0,-26.6L25.0,-30.6L24.7,-31.5L25.0,-32.2L24.8,-32.7L25.2,-33.3L26.5,-33.3L27.5,-33.0L28.5,-32.7L28.9,-32.5L29.7,-32.9L30.1,-33.2L31.0,-33.3L31.7,-33.1L32.0,-32.6L32.2,-32.9L33.0,-32.7L33.8,-32.6L34.3,-32.9L34.3,-32.9L34.8,-31.2L34.9,-30.9L34.6,-30.4L34.4,-29.6L34.2,-29.0L33.9,-28.8L33.6,-29.2L33.1,-29.7L32.4,-31.3L32.3,-31.2L32.7,-30.0L33.3,-28.8L34.1,-27.1L34.5,-26.5L34.8,-25.9L35.7,-24.7L35.5,-24.5L35.5,-23.8L36.7,-22.8L36.9,-22.6Z" fill="#1e1e2e" stroke="#2a2a3a" stroke-width="0.3"/>
  <path d="M25.0,-22.6L25.0,-20.4L23.9,-20.4L23.8,-20.0L19.8,-22.0L15.9,-24.1L14.9,-23.5L14.1,-23.1L13.6,-23.7L12.0,-24.2L11.6,-24.8L10.8,-25.4L10.3,-25.2L9.9,-25.8L9.9,-26.2L9.3,-27.0L9.7,-27.5L9.6,-28.2L9.8,-28.8L9.7,-29.3L9.9,-30.3L9.8,-30.8L9.5,-31.8L10.0,-32.1L10.1,-32.6L10.0,-33.1L10.6,-33.5L10.9,-33.9L11.4,-34.2L11.5,-35.2L12.7,-34.7L13.1,-34.8L13.9,-34.6L15.2,-34.1L15.7,-33.1L16.6,-32.8L18.0,-32.4L19.1,-31.8L19.6,-32.1L20.1,-32.6L19.8,-33.5L20.1,-34.1L20.9,-34.6L21.5,-34.8L22.9,-34.6L23.2,-34.0L23.6,-34.0L23.9,-33.8L24.9,-33.7L25.2,-33.3L24.8,-32.7L25.0,-32.2L24.7,-31.5L25.0,-30.6L25.0,-26.6L25.0,-22.6Z" fill="#1e1e2e" stroke="#2a2a3a" stroke-width="0.3"/>
  <path d="M18.6,-47.2L17.7,-47.8L17.3,-48.3L16.9,-48.6L16.5,-49.2L16.2,-49.6L15.8,-50.2L16.0,-50.8L16.3,-50.5L16.5,-50.8L17.0,-50.8L17.9,-50.6L18.6,-50.6L19.0,-50.3L19.0,-50.3L19.4,-50.3L19.1,-49.7L19.6,-49.2L19.5,-48.5L19.2,-48.4L19.0,-48.3L18.7,-48.0L18.6,-47.2Z" fill="#1e1e2e" stroke="#2a2a3a" stroke-width="0.3"/>
  <path d="M22.4,-46.8L22.9,-46.4L23.0,-45.5L22.8,-45.4L22.6,-45.2L22.1,-45.2L21.7,-44.9L21.0,-44.8L20.6,-45.1L20.5,-45.7L20.6,-46.2L20.6,-46.2L20.7,-46.2L20.8,-46.4L21.4,-46.6L21.6,-46.7L21.9,-46.8L22.4,-46.8Z" fill="#1e1e2e" stroke="#2a2a3a" stroke-width="0.3"/>
  <path d="M18.8,-51.8L18.8,-51.8L19.6,-52.2L20.2,-52.1L20.8,-51.5L20.9,-51.1L21.5,-50.8L21.6,-50.2L22.1,-49.8L22.5,-50.1L22.7,-49.9L22.5,-49.7L22.7,-49.4L22.4,-49.1L22.5,-48.6L23.0,-48.0L22.6,-47.6L22.4,-47.1L22.5,-47.0L22.4,-46.8L21.9,-46.8L21.6,-46.7L21.5,-46.8L21.7,-47.0L21.8,-47.3L21.6,-47.3L21.4,-47.5L21.3,-47.6L21.1,-47.8L21.0,-47.9L20.8,-48.1L20.6,-48.0L20.5,-47.6L20.3,-47.5L20.3,-47.6L20.0,-47.9L19.6,-48.0L19.5,-48.2L19.2,-48.4L19.5,-48.5L19.6,-49.2L19.1,-49.7L19.4,-50.3L19.0,-50.3L19.0,-50.3L19.4,-50.8L19.1,-51.2L18.8,-51.8Z" fill="#1e1e2e" stroke="#2a2a3a" stroke-width="0.3"/>
  <path d="M20.1,-47.2L19.8,-47.0L19.7,-47.3L19.3,-46.6L19.4,-46.2L19.2,-46.3L18.9,-46.7L18.5,-47.0L18.6,-47.2L18.7,-48.0L19.0,-48.3L19.2,-48.4L19.5,-48.2L19.6,-48.0L20.0,-47.9L20.3,-47.6L20.3,-47.5L20.1,-47.2Z" fill="#1e1e2e" stroke="#2a2a3a" stroke-width="0.3"/>
  <path d="M20.6,-46.2L20.5,-46.7L20.3,-46.8L20.1,-47.2L20.3,-47.5L20.5,-47.6L20.6,-48.0L20.8,-48.1L21.0,-47.9L21.1,-47.8L21.3,-47.6L21.4,-47.5L21.6,-47.3L21.8,-47.3L21.7,-47.0L21.5,-46.8L21.6,-46.7L21.4,-46.6L20.8,-46.4L20.7,-46.2L20.6,-46.2Z" fill="#1e1e2e" stroke="#2a2a3a" stroke-width="0.3"/>
  <path d="M87.4,-56.7L86.6,-55.7L85.8,-55.5L85.7,-54.0L85.2,-53.4L83.2,-53.9L82.5,-51.3L81.9,-50.9L80.0,-50.4L80.9,-48.0L80.2,-47.6L80.3,-46.8L79.6,-47.0L79.1,-47.5L77.7,-47.7L76.0,-47.7L75.6,-47.6L74.2,-48.1L73.6,-47.8L73.5,-47.0L71.8,-47.5L71.2,-47.3L71.0,-46.7L70.4,-46.5L69.1,-45.5L68.6,-44.6L68.3,-44.6L68.0,-45.2L66.7,-45.3L66.5,-46.3L66.0,-46.4L66.1,-47.7L64.9,-48.7L63.2,-48.6L62.0,-48.4L61.1,-49.7L60.2,-50.2L58.7,-51.2L58.5,-51.3L55.9,-50.5L56.0,-45.4L55.5,-45.4L54.8,-46.4L54.1,-46.8L52.9,-46.5L52.5,-46.1L52.4,-46.4L52.7,-47.0L52.5,-47.4L51.3,-47.9L50.9,-49.1L50.3,-49.5L50.3,-49.9L51.3,-49.8L51.3,-50.8L52.2,-51.1L53.0,-50.9L53.2,-52.3L53.0,-53.2L52.0,-53.1L51.2,-53.5L50.0,-52.8L49.1,-52.5L48.6,-52.7L48.7,-53.5L48.1,-54.5L47.3,-54.4L46.5,-55.5L47.0,-56.6L46.8,-56.9L47.5,-58.6L48.6,-57.7L48.7,-58.9L50.8,-60.6L52.3,-60.6L54.5,-59.5L55.7,-58.9L56.8,-59.5L58.4,-59.6L59.6,-58.8L59.9,-59.2L61.3,-59.2L61.6,-59.9L60.0,-61.0L60.9,-61.8L60.7,-62.3L61.7,-62.7L61.0,-63.8L61.4,-64.4L65.2,-65.0L65.7,-65.4L68.2,-66.1L69.1,-66.8L70.9,-66.4L71.2,-64.6L72.2,-65.1L73.5,-64.5L73.4,-63.5L74.4,-63.6L76.9,-65.3L76.5,-64.7L77.8,-63.4L80.0,-59.3L80.6,-60.1L81.9,-59.2L83.4,-59.6L83.9,-59.3L84.4,-58.4L85.1,-58.1L85.5,-57.4L86.8,-57.6L87.4,-56.7Z" fill="#00e5ff" stroke="#00c4dd" stroke-width="0.4" fill-opacity="0.9"/>
</svg>