<svg xmlns="http://www.w3.org/2000/svg" viewBox="44.47 -57.39 44.89 18.73" width="300" height="300" preserveAspectRatio="xMidYMid meet">
  <path d="M87.36,-49.21L86.60,-48.55L85.77,-48.46L85.72,-47.45L85.16,-47.00L83.18,-47.33L82.46,-45.54L81.95,-45.32L79.97,-44.92L80.87,-43.18L80.18,-42.92L80.26,-42.35L79.64,-42.50L79.14,-42.86L77.66,-42.96L76.00,-42.99L75.64,-42.88L74.21,-43.30L73.65,-43.09L73.49,-42.50L71.84,-42.85L71.19,-42.70L70.96,-42.27L70.39,-42.08L69.07,-41.38L68.63,-40.67L68.26,-40.66L67.99,-41.14L66.71,-41.17L66.51,-41.99L66.02,-41.99L66.10,-43.00L64.90,-43.73L63.19,-43.65L62.01,-43.50L61.06,-44.41L60.24,-44.78L58.69,-45.50L58.50,-45.59L55.93,-45.00L55.97,-41.31L55.46,-41.26L54.76,-42.04L54.08,-42.32L52.94,-42.12L52.50,-41.78L52.45,-42.03L52.69,-42.44L52.50,-42.79L51.34,-43.13L50.89,-44.03L50.34,-44.28L50.31,-44.61L51.28,-44.51L51.32,-45.25L52.17,-45.41L53.04,-45.26L53.22,-46.23L53.04,-46.85L52.04,-46.80L51.19,-47.05L50.03,-46.61L49.10,-46.40L48.59,-46.56L48.69,-47.08L48.06,-47.74L47.32,-47.72L46.47,-48.39L47.04,-49.15L46.75,-49.36L47.55,-50.45L48.58,-49.87L48.70,-50.61L50.77,-51.69L52.33,-51.72L54.53,-51.03L55.72,-50.62L56.78,-51.04L58.36,-51.06L59.64,-50.55L59.93,-50.84L61.34,-50.80L61.59,-51.27L59.97,-51.96L60.93,-52.45L60.74,-52.72L61.70,-52.98L60.98,-53.66L61.44,-54.01L65.18,-54.35L65.67,-54.60L68.17,-54.97L69.07,-55.39L70.87,-55.17L71.18,-54.13L72.22,-54.38L73.51,-54.04L73.43,-53.49L74.38,-53.55L76.89,-54.49L76.53,-54.18L77.80,-53.40L80.04,-50.86L80.57,-51.39L81.95,-50.81L83.38,-51.07L83.94,-50.89L84.42,-50.31L85.12,-50.12L85.54,-49.69L86.83,-49.83L87.36,-49.21Z" fill="#00e5ff" stroke="#00e5ff" stroke-width="0.5" fill-opacity="0.8"/>
</svg>