<svg xmlns="http://www.w3.org/2000/svg" viewBox="31.89 -7.51 11.97 14.19" width="300" height="300" preserveAspectRatio="xMidYMid meet">
  <path d="M39.20,4.68L37.77,3.68L37.70,3.10L34.07,1.06L33.90,0.95L33.89,-0.11L34.18,-0.52L34.67,-1.18L35.04,-1.91L34.60,-3.05L34.48,-3.56L34.01,-4.25L34.62,-4.85L35.30,-5.51L35.82,-5.34L35.82,-4.78L36.16,-4.45L36.86,-4.45L38.12,-3.60L38.44,-3.59L38.67,-3.62L38.89,-3.50L39.56,-3.42L39.85,-3.84L40.77,-4.26L41.17,-3.92L41.86,-3.92L40.98,-2.78L40.99,0.86L41.59,1.68L40.88,2.08L40.64,2.50L40.26,2.57L40.12,3.28L39.80,3.68L39.60,4.35L39.20,4.68Z" fill="#00e5ff" stroke="#00e5ff" stroke-width="0.5" fill-opacity="0.8"/>
</svg>