<svg xmlns="http://www.w3.org/2000/svg" viewBox="67.46 -45.30 14.80 8.02" width="300" height="300" preserveAspectRatio="xMidYMid meet">
  <path d="M70.96,-42.27L71.19,-42.70L71.84,-42.85L73.49,-42.50L73.65,-43.09L74.21,-43.30L75.64,-42.88L76.00,-42.99L77.66,-42.96L79.14,-42.86L79.64,-42.50L80.26,-42.35L80.12,-42.12L78.54,-41.58L78.19,-41.19L76.90,-41.07L76.53,-40.43L75.47,-40.56L74.78,-40.37L73.82,-39.89L73.96,-39.66L73.68,-39.43L71.78,-39.28L70.55,-39.60L69.46,-39.53L69.56,-40.10L70.65,-39.94L71.01,-40.24L71.77,-40.15L73.06,-40.87L71.87,-41.39L71.16,-41.14L70.42,-41.52L71.26,-42.17L70.96,-42.27Z" fill="#00e5ff" stroke="#00e5ff" stroke-width="0.5" fill-opacity="0.8"/>
</svg>