<svg xmlns="http://www.w3.org/2000/svg" viewBox="98.12 -24.46 11.44 12.58" width="300" height="300" preserveAspectRatio="xMidYMid meet">
  <path d="M107.38,-14.20L106.50,-14.57L106.04,-13.88L105.22,-14.27L105.54,-14.72L105.59,-15.57L104.78,-16.44L104.72,-17.43L103.96,-18.24L103.20,-18.31L103.00,-17.96L102.41,-17.93L102.11,-18.11L101.06,-17.51L101.04,-18.41L101.28,-19.46L100.61,-19.51L100.55,-20.11L100.12,-20.42L100.33,-20.79L101.18,-21.44L101.27,-21.20L101.80,-21.17L101.65,-22.32L102.17,-22.46L102.75,-21.68L103.20,-20.77L104.44,-20.76L104.82,-19.89L104.18,-19.62L103.90,-19.27L105.09,-18.67L105.93,-17.49L106.56,-16.60L107.31,-15.91L107.56,-15.20L107.38,-14.20Z" fill="#00e5ff" stroke="#00e5ff" stroke-width="0.5" fill-opacity="0.8"/>
</svg>