<svg xmlns="http://www.w3.org/2000/svg" viewBox="7.32 -35.14 19.84 17.56" width="300" height="300" preserveAspectRatio="xMidYMid meet">
  <path d="M25.00,-22.00L25.00,-20.00L23.85,-20.00L23.84,-19.58L19.85,-21.50L15.86,-23.41L14.85,-22.86L14.14,-22.49L13.58,-23.04L12.00,-23.47L11.56,-24.10L10.77,-24.56L10.30,-24.38L9.95,-24.94L9.91,-25.37L9.32,-26.09L9.72,-26.51L9.63,-27.14L9.76,-27.69L9.68,-28.14L9.86,-28.96L9.81,-29.42L9.48,-30.31L9.97,-30.54L10.06,-30.96L9.95,-31.38L10.64,-31.76L10.94,-32.08L11.43,-32.37L11.49,-33.14L12.66,-32.79L13.08,-32.88L13.92,-32.71L15.25,-32.27L15.71,-31.38L16.61,-31.18L18.02,-30.76L19.09,-30.27L19.57,-30.53L20.05,-30.99L19.82,-31.75L20.13,-32.24L20.85,-32.71L21.54,-32.84L22.90,-32.64L23.24,-32.19L23.61,-32.19L23.93,-32.02L24.92,-31.90L25.16,-31.57L24.80,-31.09L24.96,-30.66L24.70,-30.04L25.00,-29.24L25.00,-25.68L25.00,-22.00Z" fill="#00e5ff" stroke="#00e5ff" stroke-width="0.5" fill-opacity="0.8"/>
</svg>