<svg xmlns="http://www.w3.org/2000/svg" viewBox="41.25 10.04 11.23 17.56" width="300" height="300" preserveAspectRatio="xMidYMid meet">
  <path d="M49.54,12.47L49.81,12.90L50.06,13.56L50.22,14.76L50.48,15.23L50.38,15.71L50.20,16.00L49.86,15.41L49.67,15.71L49.86,16.45L49.77,16.88L49.50,17.11L49.44,17.95L49.04,19.12L48.55,20.50L47.93,22.39L47.55,23.78L47.10,24.94L46.28,25.18L45.41,25.60L44.83,25.35L44.04,24.99L43.76,24.46L43.70,23.57L43.35,22.78L43.25,22.06L43.43,21.34L43.89,21.16L43.90,20.83L44.37,20.07L44.46,19.44L44.23,18.96L44.04,18.33L43.96,17.41L44.31,16.85L44.45,16.22L44.94,16.18L45.50,15.97L45.87,15.79L46.31,15.78L46.88,15.21L47.71,14.59L48.01,14.09L47.87,13.66L48.29,13.78L48.85,13.09L48.86,12.49L49.19,12.04L49.54,12.47Z" fill="#00e5ff" stroke="#00e5ff" stroke-width="0.5" fill-opacity="0.8"/>
</svg>