<svg xmlns="http://www.w3.org/2000/svg" viewBox="98.09 -8.93 23.09 10.16" width="300" height="300" preserveAspectRatio="xMidYMid meet">
  <path d="M100.09,-6.46L100.26,-6.64L101.08,-6.20L101.15,-5.69L101.81,-5.81L102.14,-6.22L102.37,-6.13L102.96,-5.52L103.38,-4.86L103.44,-4.18L103.33,-3.73L103.43,-3.38L103.50,-2.79L103.85,-2.52L104.25,-1.63L104.23,-1.29L103.52,-1.23L102.57,-1.97L101.39,-2.76L101.27,-3.27L100.70,-3.94L100.56,-4.77L100.20,-5.31L100.31,-6.04L100.09,-6.46ZM117.88,-4.14L117.02,-4.31L115.87,-4.31L115.52,-3.17L115.13,-2.82L114.62,-1.43L113.81,-1.22L112.86,-1.50L112.38,-1.41L111.80,-0.90L111.16,-0.98L110.51,-0.77L109.83,-1.34L109.66,-2.01L110.40,-1.66L111.17,-1.85L111.37,-2.70L111.80,-2.89L113.00,-3.10L113.71,-3.89L114.20,-4.53L114.66,-4.01L114.87,-4.35L115.35,-4.32L115.41,-4.96L115.45,-5.45L116.22,-6.14L116.73,-6.92L117.13,-6.93L117.64,-6.42L117.69,-5.99L118.35,-5.71L119.18,-5.41L119.11,-5.02L118.44,-4.97L118.62,-4.48L117.88,-4.14Z" fill="#00e5ff" stroke="#00e5ff" stroke-width="0.5" fill-opacity="0.8"/>
</svg>