<svg xmlns="http://www.w3.org/2000/svg" viewBox="-14.17 -26.97 20.44 18.87" width="300" height="300" preserveAspectRatio="xMidYMid meet">
  <path d="M-11.51,-12.44L-11.47,-12.75L-11.55,-13.14L-11.93,-13.42L-12.12,-13.99L-12.17,-14.62L-11.83,-14.80L-11.67,-15.39L-11.35,-15.41L-10.65,-15.13L-10.09,-15.33L-9.70,-15.26L-9.55,-15.49L-5.54,-15.50L-5.32,-16.20L-5.49,-16.33L-5.97,-20.64L-6.45,-24.96L-4.92,-24.97L-1.55,-22.79L1.82,-20.61L2.06,-20.14L2.68,-19.86L3.15,-19.69L3.16,-19.06L4.27,-19.16L4.27,-16.85L3.72,-16.18L3.64,-15.57L2.75,-15.41L1.39,-15.32L1.02,-14.97L0.37,-14.93L-0.27,-14.92L-0.52,-15.12L-1.07,-14.97L-2.00,-14.56L-2.19,-14.25L-2.97,-13.80L-3.10,-13.54L-3.52,-13.34L-4.01,-13.47L-4.28,-13.23L-4.43,-12.54L-5.22,-11.71L-5.20,-11.38L-5.47,-10.95L-5.40,-10.37L-5.82,-10.22L-6.05,-10.10L-6.21,-10.52L-6.49,-10.41L-6.67,-10.43L-6.85,-10.14L-7.62,-10.15L-7.90,-10.30L-8.03,-10.21L-8.34,-10.49L-8.28,-10.79L-8.41,-10.91L-8.62,-10.81L-8.58,-11.14L-8.38,-11.39L-8.79,-11.81L-8.91,-12.09L-9.13,-12.31L-9.33,-12.33L-9.57,-12.19L-9.89,-12.06L-10.17,-11.84L-10.59,-11.92L-10.87,-12.18L-11.04,-12.21L-11.30,-12.08L-11.46,-12.08L-11.51,-12.44Z" fill="#00e5ff" stroke="#00e5ff" stroke-width="0.5" fill-opacity="0.8"/>
</svg>