<svg xmlns="http://www.w3.org/2000/svg" viewBox="-32.1 -43.5 42.1 43.7" width="400" height="300" preserveAspectRatio="xMidYMid meet">
  <rect x="-32.1" y="-43.5" width="42.1" height="43.7" fill="#0e0e18"/>
  <path d="M-8.7,-28.8L-8.7,-28.7L-8.7,-28.5L-8.7,-26.8L-12.0,-26.9L-11.9,-24.1L-12.9,-24.0L-13.1,-23.4L-12.9,-21.8L-16.8,-21.8L-17.1,-21.5L-17.0,-21.9L-17.0,-21.9L-14.8,-22.0L-14.6,-22.4L-14.2,-22.9L-13.9,-24.4L-12.5,-25.6L-12.0,-27.0L-11.7,-27.1L-11.4,-27.9L-10.6,-28.0L-10.2,-27.9L-9.7,-27.9L-9.4,-28.2L-8.8,-28.2L-8.8,-28.8L-8.7,-28.8Z" fill="#1e1e2e" stroke="#2a2a3a" stroke-width="0.3"/>
  <path d="M-51.7,-4.2L-52.2,-3.2L-52.6,-2.5L-52.9,-2.1L-53.4,-2.1L-53.6,-2.3L-53.8,-2.4L-54.1,-2.1L-54.5,-2.3L-54.3,-2.7L-54.2,-3.2L-54.0,-3.6L-54.4,-4.2L-54.5,-4.9L-54.0,-5.8L-53.6,-5.7L-52.9,-5.4L-51.8,-4.6L-51.7,-4.2ZM6.2,-57.1L6.7,-56.7L8.1,-56.4L7.6,-55.4L7.5,-54.3L7.2,-54.0L6.7,-54.2L6.8,-53.8L6.0,-53.0L6.0,-52.3L6.5,-52.5L6.8,-51.9L6.8,-51.5L7.1,-51.0L6.7,-50.5L7.0,-49.5L7.5,-49.3L7.4,-48.7L6.5,-47.9L4.6,-48.3L3.1,-47.8L3.0,-47.0L1.8,-46.8L0.7,-47.4L0.3,-47.1L-1.5,-47.8L-1.9,-48.3L-1.4,-49.1L-1.2,-51.9L-2.2,-53.5L-3.0,-54.2L-4.5,-54.8L-4.6,-55.9L-3.3,-56.2L-1.6,-55.8L-1.9,-57.6L-1.0,-56.9L1.3,-58.1L1.6,-59.4L2.5,-59.7L2.7,-59.2L3.1,-59.1L3.6,-58.5L4.3,-57.8L4.8,-57.9L5.7,-57.2L5.9,-57.0L6.2,-57.1ZM8.7,-47.2L9.4,-47.7L9.6,-46.6L9.2,-45.5L8.8,-45.8L8.5,-46.7L8.7,-47.2Z" fill="#1e1e2e" stroke="#2a2a3a" stroke-width="0.3"/>
  <path d="M-16.7,-13.7L-17.1,-14.5L-17.6,-14.9L-17.2,-15.1L-16.7,-15.8L-16.5,-16.4L-16.1,-16.7L-15.6,-16.6L-15.1,-16.8L-14.6,-16.8L-14.1,-16.5L-13.4,-16.3L-12.8,-15.5L-12.2,-14.8L-12.1,-14.1L-11.9,-13.5L-11.6,-13.3L-11.5,-12.9L-11.5,-12.5L-11.7,-12.5L-12.2,-12.6L-12.3,-12.5L-12.5,-12.4L-13.2,-12.7L-13.7,-12.7L-15.5,-12.7L-15.8,-12.6L-16.1,-12.6L-16.7,-12.5L-16.8,-13.3L-15.9,-13.2L-15.7,-13.4L-15.5,-13.4L-15.1,-13.6L-14.7,-13.4L-14.3,-13.4L-13.8,-13.6L-14.0,-13.9L-14.4,-13.8L-14.7,-13.8L-15.1,-14.0L-15.4,-14.0L-15.6,-13.8L-16.7,-13.7Z" fill="#1e1e2e" stroke="#2a2a3a" stroke-width="0.3"/>
  <path d="M-11.5,-12.5L-11.5,-12.9L-11.6,-13.3L-11.9,-13.5L-12.1,-14.1L-12.2,-14.8L-11.8,-15.0L-11.7,-15.6L-11.3,-15.6L-10.7,-15.3L-10.1,-15.5L-9.7,-15.4L-9.6,-15.7L-5.5,-15.7L-5.3,-16.4L-5.5,-16.6L-6.0,-21.1L-6.5,-25.8L-4.9,-25.8L-1.6,-23.4L1.8,-21.1L2.1,-20.6L2.7,-20.3L3.1,-20.1L3.2,-19.4L4.3,-19.5L4.3,-17.1L3.7,-16.4L3.6,-15.8L2.7,-15.6L1.4,-15.5L1.0,-15.1L0.4,-15.1L-0.3,-15.1L-0.5,-15.3L-1.1,-15.1L-2.0,-14.7L-2.2,-14.4L-3.0,-13.9L-3.1,-13.7L-3.5,-13.5L-4.0,-13.6L-4.3,-13.3L-4.4,-12.6L-5.2,-11.8L-5.2,-11.5L-5.5,-11.0L-5.4,-10.4L-5.8,-10.3L-6.1,-10.1L-6.2,-10.6L-6.5,-10.5L-6.7,-10.5L-6.9,-10.2L-7.6,-10.2L-7.9,-10.4L-8.0,-10.3L-8.3,-10.6L-8.3,-10.9L-8.4,-11.0L-8.6,-10.9L-8.6,-11.2L-8.4,-11.5L-8.8,-11.9L-8.9,-12.2L-9.1,-12.4L-9.3,-12.4L-9.6,-12.3L-9.9,-12.2L-10.2,-11.9L-10.6,-12.0L-10.9,-12.3L-11.0,-12.3L-11.3,-12.2L-11.5,-12.2L-11.5,-12.5Z" fill="#1e1e2e" stroke="#2a2a3a" stroke-width="0.3"/>
  <path d="M2.7,-6.3L1.9,-6.2L1.6,-6.8L1.7,-9.2L1.5,-9.4L1.4,-9.9L1.1,-10.2L0.8,-10.5L0.9,-11.1L1.2,-11.2L1.4,-11.6L1.9,-11.7L2.2,-12.0L2.5,-12.3L2.8,-12.3L3.6,-11.7L3.6,-11.4L3.8,-10.8L3.6,-10.4L3.7,-10.1L3.2,-9.5L2.9,-9.2L2.7,-8.5L2.7,-7.9L2.7,-6.3Z" fill="#1e1e2e" stroke="#2a2a3a" stroke-width="0.3"/>
  <path d="M14.9,-23.5L15.1,-21.8L15.5,-21.5L15.5,-21.2L15.9,-20.8L15.7,-20.4L15.3,-18.2L15.2,-16.9L14.0,-15.9L13.5,-14.5L14.0,-14.1L14.0,-13.5L14.6,-13.5L14.5,-13.0L14.2,-12.9L14.2,-12.6L14.0,-12.6L13.3,-13.7L13.1,-13.7L12.3,-13.2L11.5,-13.5L11.0,-13.5L10.7,-13.4L10.1,-13.4L9.5,-13.0L9.0,-12.9L7.8,-13.5L7.3,-13.2L6.8,-13.2L6.4,-13.6L5.4,-14.0L4.4,-13.9L4.1,-13.7L4.0,-13.1L3.7,-12.7L3.6,-11.7L2.8,-12.3L2.5,-12.3L2.2,-12.0L2.2,-12.7L1.0,-13.0L1.0,-13.5L0.4,-14.1L0.3,-14.6L0.4,-15.1L1.0,-15.1L1.4,-15.5L2.7,-15.6L3.6,-15.8L3.7,-16.4L4.3,-17.1L4.3,-19.5L5.7,-20.0L8.6,-22.1L12.0,-24.2L13.6,-23.7L14.1,-23.1L14.9,-23.5Z" fill="#1e1e2e" stroke="#2a2a3a" stroke-width="0.3"/>
  <path d="M2.7,-6.3L2.7,-7.9L2.7,-8.5L2.9,-9.2L3.2,-9.5L3.7,-10.1L3.6,-10.4L3.8,-10.8L3.6,-11.4L3.6,-11.7L3.7,-12.7L4.0,-13.1L4.1,-13.7L4.4,-13.9L5.4,-14.0L6.4,-13.6L6.8,-13.2L7.3,-13.2L7.8,-13.5L9.0,-12.9L9.5,-13.0L10.1,-13.4L10.7,-13.4L11.0,-13.5L11.5,-13.5L12.3,-13.2L13.1,-13.7L13.3,-13.7L14.0,-12.6L14.2,-12.6L14.6,-12.2L14.5,-12.0L14.4,-11.7L13.6,-10.9L13.3,-10.2L13.2,-9.7L13.0,-9.5L12.8,-8.8L12.2,-8.3L12.1,-7.8L11.8,-7.4L11.7,-7.0L11.1,-6.7L10.5,-7.1L10.1,-7.1L9.5,-6.5L9.2,-6.5L8.8,-5.5L8.5,-4.8L7.5,-4.4L7.1,-4.5L6.7,-4.2L5.9,-4.3L5.4,-4.9L5.0,-5.6L4.3,-6.3L3.6,-6.3L2.7,-6.3Z" fill="#1e1e2e" stroke="#2a2a3a" stroke-width="0.3"/>
  <path d="M14.5,-13.0L14.9,-12.3L15.0,-11.6L14.9,-11.0L15.5,-10.0L14.9,-10.0L14.6,-10.0L14.2,-10.1L14.0,-9.6L14.5,-9.0L15.0,-8.8L15.1,-8.4L15.4,-7.7L15.3,-7.4L14.8,-6.4L14.5,-6.2L14.5,-5.5L14.6,-5.0L14.5,-4.7L15.0,-4.2L15.0,-3.9L15.4,-3.3L15.9,-3.0L15.9,-2.6L16.0,-2.3L15.9,-1.7L15.1,-2.0L14.3,-2.2L13.1,-2.3L13.0,-2.3L12.4,-2.2L11.8,-2.3L11.3,-2.3L9.6,-2.3L9.8,-3.1L9.4,-3.7L8.9,-3.9L8.7,-4.4L8.5,-4.5L8.5,-4.8L8.8,-5.5L9.2,-6.5L9.5,-6.5L10.1,-7.1L10.5,-7.1L11.1,-6.7L11.7,-7.0L11.8,-7.4L12.1,-7.8L12.2,-8.3L12.8,-8.8L13.0,-9.5L13.2,-9.7L13.3,-10.2L13.6,-10.9L14.4,-11.7L14.5,-12.0L14.6,-12.2L14.2,-12.6L14.2,-12.9L14.5,-13.0Z" fill="#1e1e2e" stroke="#2a2a3a" stroke-width="0.3"/>
  <path d="M0.9,-11.1L0.8,-10.5L1.1,-10.2L1.4,-9.9L1.5,-9.4L1.7,-9.2L1.6,-6.8L1.9,-6.2L1.1,-5.9L0.8,-6.3L0.6,-6.9L0.5,-7.4L0.7,-8.3L0.5,-8.7L0.4,-9.5L0.4,-10.2L-0.0,-10.8L0.0,-11.1L0.9,-11.1Z" fill="#1e1e2e" stroke="#2a2a3a" stroke-width="0.3"/>
  <path d="M0.0,-11.1L-0.0,-10.8L0.4,-10.2L0.4,-9.5L0.5,-8.7L0.7,-8.3L0.5,-7.4L0.6,-6.9L0.8,-6.3L1.1,-5.9L-0.5,-5.4L-1.1,-5.0L-2.0,-4.7L-2.9,-5.0L-2.8,-5.4L-3.2,-6.3L-3.0,-7.4L-2.6,-8.2L-2.8,-9.7L-3.0,-10.5L-2.9,-11.0L-1.2,-11.1L-0.8,-11.0L-0.4,-11.2L0.0,-11.1Z" fill="#1e1e2e" stroke="#2a2a3a" stroke-width="0.3"/>
  <path d="M-8.0,-10.3L-7.9,-10.4L-7.6,-10.2L-6.9,-10.2L-6.7,-10.5L-6.5,-10.5L-6.2,-10.6L-6.1,-10.1L-5.8,-10.3L-5.4,-10.4L-5.0,-10.2L-4.8,-9.9L-4.3,-9.7L-4.0,-9.9L-3.5,-9.9L-2.8,-9.7L-2.6,-8.2L-3.0,-7.4L-3.2,-6.3L-2.8,-5.4L-2.9,-5.0L-3.3,-5.0L-4.0,-5.2L-4.6,-5.2L-5.8,-5.0L-6.5,-4.7L-7.5,-4.3L-7.7,-4.4L-7.6,-5.2L-7.5,-5.3L-7.6,-5.7L-8.0,-6.1L-8.3,-6.2L-8.6,-6.5L-8.4,-6.9L-8.5,-7.4L-8.4,-7.7L-8.3,-7.7L-8.2,-8.2L-8.3,-8.3L-8.2,-8.5L-7.8,-8.6L-8.1,-9.4L-8.3,-9.8L-8.2,-10.2L-8.0,-10.3Z" fill="#1e1e2e" stroke="#2a2a3a" stroke-width="0.3"/>
  <path d="M-13.7,-12.7L-13.2,-12.7L-12.5,-12.4L-12.3,-12.5L-12.2,-12.6L-11.7,-12.5L-11.5,-12.5L-11.5,-12.2L-11.3,-12.2L-11.0,-12.3L-10.9,-12.3L-10.6,-12.0L-10.2,-11.9L-9.9,-12.2L-9.6,-12.3L-9.3,-12.4L-9.1,-12.4L-8.9,-12.2L-8.8,-11.9L-8.4,-11.5L-8.6,-11.2L-8.6,-10.9L-8.4,-11.0L-8.3,-10.9L-8.3,-10.6L-8.0,-10.3L-8.2,-10.2L-8.3,-9.8L-8.1,-9.4L-7.8,-8.6L-8.2,-8.5L-8.3,-8.3L-8.2,-8.2L-8.3,-7.7L-8.4,-7.7L-8.7,-7.7L-8.9,-7.3L-9.2,-7.3L-9.4,-7.5L-9.3,-8.0L-9.8,-8.6L-10.0,-8.5L-10.2,-8.4L-10.5,-8.4L-10.5,-8.7L-10.7,-9.0L-10.6,-9.3L-10.8,-9.7L-11.1,-10.1L-11.9,-10.1L-12.2,-9.9L-12.4,-9.9L-12.6,-9.7L-12.7,-9.4L-13.2,-8.9L-13.7,-9.5L-14.1,-9.9L-14.3,-10.1L-14.6,-10.3L-14.7,-10.7L-14.8,-10.9L-15.1,-11.1L-14.7,-11.6L-14.4,-11.6L-14.1,-11.8L-13.9,-11.8L-13.7,-11.9L-13.8,-12.2L-13.7,-12.3L-13.7,-12.7Z" fill="#1e1e2e" stroke="#2a2a3a" stroke-width="0.3"/>
  <path d="M-16.7,-12.5L-16.1,-12.6L-15.8,-12.6L-15.5,-12.7L-13.7,-12.7L-13.7,-12.3L-13.8,-12.2L-13.7,-11.9L-13.9,-11.8L-14.1,-11.8L-14.4,-11.6L-14.7,-11.6L-15.1,-11.1L-15.7,-11.5L-16.1,-11.6L-16.3,-11.9L-16.3,-12.0L-16.6,-12.3L-16.7,-12.5Z" fill="#1e1e2e" stroke="#2a2a3a" stroke-width="0.3"/>
  <path d="M-8.4,-7.7L-8.5,-7.4L-8.4,-6.9L-8.6,-6.5L-8.3,-6.2L-8.0,-6.1L-7.6,-5.7L-7.5,-5.3L-7.6,-5.2L-7.7,-4.4L-8.0,-4.4L-9.0,-4.8L-9.9,-5.6L-10.8,-6.2L-11.4,-6.8L-11.2,-7.1L-11.1,-7.4L-10.7,-8.0L-10.2,-8.4L-10.0,-8.5L-9.8,-8.6L-9.3,-8.0L-9.4,-7.5L-9.2,-7.3L-8.9,-7.3L-8.7,-7.7L-8.4,-7.7Z" fill="#1e1e2e" stroke="#2a2a3a" stroke-width="0.3"/>
  <path d="M-13.2,-8.9L-12.7,-9.4L-12.6,-9.7L-12.4,-9.9L-12.2,-9.9L-11.9,-10.1L-11.1,-10.1L-10.8,-9.7L-10.6,-9.3L-10.7,-9.0L-10.5,-8.7L-10.5,-8.4L-10.2,-8.4L-10.7,-8.0L-11.1,-7.4L-11.2,-7.1L-11.4,-6.8L-11.7,-6.9L-12.4,-7.3L-12.9,-7.8L-13.1,-8.2L-13.2,-8.9Z" fill="#1e1e2e" stroke="#2a2a3a" stroke-width="0.3"/>
  <path d="M-5.4,-10.4L-5.5,-11.0L-5.2,-11.5L-5.2,-11.8L-4.4,-12.6L-4.3,-13.3L-4.0,-13.6L-3.5,-13.5L-3.1,-13.7L-3.0,-13.9L-2.2,-14.4L-2.0,-14.7L-1.1,-15.1L-0.5,-15.3L-0.3,-15.1L0.4,-15.1L0.3,-14.6L0.4,-14.1L1.0,-13.5L1.0,-13.0L2.2,-12.7L2.2,-12.0L1.9,-11.7L1.4,-11.6L1.2,-11.2L0.9,-11.1L0.0,-11.1L-0.4,-11.2L-0.8,-11.0L-1.2,-11.1L-2.9,-11.0L-3.0,-10.5L-2.8,-9.7L-3.5,-9.9L-4.0,-9.9L-4.3,-9.7L-4.8,-9.9L-5.0,-10.2L-5.4,-10.4Z" fill="#1e1e2e" stroke="#2a2a3a" stroke-width="0.3"/>
  <path d="M11.3,-2.3L11.8,-2.3L12.4,-2.2L13.0,-2.3L13.1,-2.3L13.0,-1.8L13.3,-1.3L14.0,-1.4L14.3,-1.2L13.8,-0.0L14.3,0.6L14.4,1.3L14.3,2.0L14.0,2.5L13.1,2.4L12.6,1.9L12.5,2.4L11.8,2.5L11.5,2.8L11.9,3.4L11.1,4.0L10.1,3.0L9.4,2.1L8.8,1.1L8.8,0.8L9.0,0.5L9.3,-0.3L9.5,-1.0L9.8,-1.1L11.3,-1.1L11.3,-2.3Z" fill="#1e1e2e" stroke="#2a2a3a" stroke-width="0.3"/>
  <path d="M9.6,-2.3L11.3,-2.3L11.3,-1.1L9.8,-1.1L9.5,-1.0L9.3,-1.2L9.6,-2.3Z" fill="#1e1e2e" stroke="#2a2a3a" stroke-width="0.3"/>
  <path d="M-16.7,-13.7L-15.6,-13.8L-15.4,-14.0L-15.1,-14.0L-14.7,-13.8L-14.4,-13.8L-14.0,-13.9L-13.8,-13.6L-14.3,-13.4L-14.7,-13.4L-15.1,-13.6L-15.5,-13.4L-15.7,-13.4L-15.9,-13.2L-16.8,-13.3L-16.7,-13.7Z" fill="#1e1e2e" stroke="#2a2a3a" stroke-width="0.3"/>
  <path d="M9.5,-31.8L9.1,-33.9L8.4,-34.4L8.4,-34.7L7.6,-35.4L7.5,-36.3L8.1,-37.0L8.4,-38.0L8.2,-39.2L8.4,-39.8L9.5,-40.3L10.2,-40.2L10.2,-39.5L11.0,-40.0L11.1,-39.8L10.6,-39.1L10.6,-38.6L10.9,-38.3L10.8,-37.2L10.1,-36.6L10.3,-35.9L10.9,-35.9L11.1,-35.3L11.5,-35.2L11.4,-34.2L10.9,-33.9L10.6,-33.5L10.0,-33.1L10.1,-32.6L10.0,-32.1L9.5,-31.8Z" fill="#1e1e2e" stroke="#2a2a3a" stroke-width="0.3"/>
  <path d="M-8.7,-28.5L-8.7,-28.7L-8.7,-28.8L-8.7,-30.1L-7.1,-31.0L-6.1,-31.2L-5.2,-31.5L-4.9,-32.1L-3.7,-32.5L-3.6,-33.4L-3.1,-33.5L-2.6,-33.9L-1.3,-34.1L-1.1,-34.6L-1.4,-34.8L-1.7,-36.1L-1.8,-36.8L-2.2,-37.6L-1.2,-38.3L-0.1,-38.5L0.5,-39.0L1.5,-39.4L3.2,-39.6L4.8,-39.7L5.3,-39.5L6.3,-40.0L7.3,-40.0L7.7,-39.7L8.4,-39.8L8.2,-39.2L8.4,-38.0L8.1,-37.0L7.5,-36.3L7.6,-35.4L8.4,-34.7L8.4,-34.4L9.1,-33.9L9.5,-31.8L9.8,-30.8L9.9,-30.3L9.7,-29.3L9.8,-28.8L9.6,-28.2L9.7,-27.5L9.3,-27.0L9.9,-26.2L9.9,-25.8L10.3,-25.2L10.8,-25.4L11.6,-24.8L12.0,-24.2L8.6,-22.1L5.7,-20.0L4.3,-19.5L3.2,-19.4L3.1,-20.1L2.7,-20.3L2.1,-20.6L1.8,-21.1L-1.6,-23.4L-4.9,-25.8L-8.7,-28.5Z" fill="#1e1e2e" stroke="#2a2a3a" stroke-width="0.3"/>
  <path d="M-9.0,-46.2L-8.7,-46.5L-8.3,-46.7L-8.0,-46.1L-7.4,-46.1L-7.3,-46.3L-6.7,-46.2L-6.4,-45.5L-6.9,-45.2L-6.9,-44.1L-7.0,-44.0L-7.1,-43.3L-7.5,-43.2L-7.1,-42.5L-7.4,-41.6L-7.0,-41.2L-7.2,-40.9L-7.5,-40.4L-7.5,-40.0L-7.9,-39.7L-8.4,-39.9L-8.9,-39.7L-8.7,-40.7L-8.8,-41.5L-9.3,-41.6L-9.5,-42.1L-9.4,-42.9L-9.0,-43.4L-9.0,-43.9L-8.8,-44.7L-8.8,-45.3L-9.0,-45.7L-9.0,-46.2Z" fill="#1e1e2e" stroke="#2a2a3a" stroke-width="0.3"/>
  <path d="M-7.5,-40.0L-7.5,-40.4L-7.2,-40.9L-7.0,-41.2L-7.4,-41.6L-7.1,-42.5L-7.5,-43.2L-7.1,-43.3L-7.0,-44.0L-6.9,-44.1L-6.9,-45.2L-6.4,-45.5L-6.7,-46.2L-7.3,-46.3L-7.4,-46.1L-8.0,-46.1L-8.3,-46.7L-8.7,-46.5L-9.0,-46.2L-9.0,-47.2L-9.4,-47.8L-8.0,-48.7L-6.8,-48.5L-5.4,-48.5L-4.3,-48.3L-3.5,-48.3L-1.9,-48.3L-1.5,-47.8L0.3,-47.1L0.7,-47.4L1.8,-46.8L3.0,-47.0L3.0,-46.2L2.1,-45.3L0.8,-45.0L0.7,-44.6L0.1,-43.9L-0.3,-42.8L0.1,-42.1L-0.5,-41.5L-0.7,-40.7L-1.4,-40.4L-2.1,-39.5L-3.4,-39.5L-4.4,-39.5L-5.0,-39.0L-5.4,-38.6L-5.9,-38.7L-6.2,-39.1L-6.5,-39.8L-7.5,-40.0Z" fill="#1e1e2e" stroke="#2a2a3a" stroke-width="0.3"/>
  <path d="M10.4,-53.2L11.0,-53.0L11.2,-53.3L12.2,-53.5L12.4,-53.0L13.8,-52.7L13.7,-51.9L13.9,-51.3L13.1,-51.5L12.3,-51.0L12.4,-50.3L12.3,-49.9L12.6,-49.2L13.5,-48.5L14.0,-47.4L15.1,-46.3L15.9,-46.3L16.2,-46.0L15.9,-45.7L16.8,-45.3L17.5,-44.9L18.4,-44.2L18.5,-43.9L18.3,-43.5L17.7,-44.1L16.9,-44.3L16.4,-43.4L17.2,-43.0L17.1,-42.3L16.6,-42.2L16.1,-41.1L15.7,-41.0L15.7,-41.4L15.9,-42.1L16.1,-42.4L15.7,-43.1L15.4,-43.8L15.0,-43.9L14.7,-44.5L14.1,-44.7L13.6,-45.3L12.9,-45.4L12.1,-46.0L11.2,-46.8L10.5,-47.6L10.2,-49.0L9.7,-49.1L8.9,-49.6L8.4,-49.4L7.9,-48.8L7.4,-48.7L7.5,-49.3L7.0,-49.5L6.7,-50.5L7.1,-51.0L6.8,-51.5L6.8,-51.9L7.3,-51.6L7.8,-51.7L8.3,-52.2L8.5,-51.9L9.0,-52.0L9.2,-52.6L9.9,-52.4L10.4,-52.6L10.4,-53.2ZM14.8,-41.3L15.5,-41.4L15.2,-40.4L15.3,-40.0L15.1,-39.4L14.3,-39.9L13.8,-40.0L12.4,-40.6L12.6,-41.3L13.7,-41.2L14.8,-41.3ZM8.7,-44.9L9.2,-45.3L9.8,-44.4L9.7,-42.6L9.2,-42.7L8.8,-42.3L8.4,-42.6L8.4,-44.2L8.2,-45.0L8.7,-44.9Z" fill="#1e1e2e" stroke="#2a2a3a" stroke-width="0.3"/>
  <path d="M-2.2,-37.6L-1.8,-36.8L-1.7,-36.1L-1.4,-34.8L-1.1,-34.6L-1.3,-34.1L-2.6,-33.9L-3.1,-33.5L-3.6,-33.4L-3.7,-32.5L-4.9,-32.1L-5.2,-31.5L-6.1,-31.2L-7.1,-31.0L-8.7,-30.1L-8.7,-28.8L-8.8,-28.8L-8.8,-28.2L-9.4,-28.2L-9.7,-27.9L-10.2,-27.9L-10.6,-28.0L-11.4,-27.9L-11.7,-27.1L-12.0,-27.0L-12.5,-25.6L-13.9,-24.4L-14.2,-22.9L-14.6,-22.4L-14.8,-22.0L-17.0,-21.9L-17.0,-21.9L-17.0,-22.4L-16.6,-22.7L-16.3,-23.3L-16.3,-23.7L-16.0,-24.4L-15.4,-25.1L-15.1,-25.3L-14.8,-25.9L-14.8,-26.5L-14.4,-27.2L-13.8,-27.6L-13.1,-28.8L-13.1,-28.8L-12.6,-29.2L-11.7,-29.4L-10.9,-30.1L-10.4,-30.4L-9.6,-31.4L-9.8,-32.8L-9.4,-33.9L-9.3,-34.5L-8.7,-35.3L-7.7,-35.8L-6.9,-36.3L-6.2,-37.6L-5.9,-38.3L-5.2,-38.3L-4.6,-37.8L-3.6,-37.9L-2.6,-37.6L-2.2,-37.6Z" fill="#1e1e2e" stroke="#2a2a3a" stroke-width="0.3"/>
  <path d="M25.0,-22.6L25.0,-20.4L23.9,-20.4L23.8,-20.0L19.8,-22.0L15.9,-24.1L14.9,-23.5L14.1,-23.1L13.6,-23.7L12.0,-24.2L11.6,-24.8L10.8,-25.4L10.3,-25.2L9.9,-25.8L9.9,-26.2L9.3,-27.0L9.7,-27.5L9.6,-28.2L9.8,-28.8L9.7,-29.3L9.9,-30.3L9.8,-30.8L9.5,-31.8L10.0,-32.1L10.1,-32.6L10.0,-33.1L10.6,-33.5L10.9,-33.9L11.4,-34.2L11.5,-35.2L12.7,-34.7L13.1,-34.8L13.9,-34.6L15.2,-34.1L15.7,-33.1L16.6,-32.8L18.0,-32.4L19.1,-31.8L19.6,-32.1L20.1,-32.6L19.8,-33.5L20.1,-34.1L20.9,-34.6L21.5,-34.8L22.9,-34.6L23.2,-34.0L23.6,-34.0L23.9,-33.8L24.9,-33.7L25.2,-33.3L24.8,-32.7L25.0,-32.2L24.7,-31.5L25.0,-30.6L25.0,-26.6L25.0,-22.6Z" fill="#1e1e2e" stroke="#2a2a3a" stroke-width="0.3"/>
  <path d="M-17.1,-21.5L-16.8,-21.8L-12.9,-21.8L-13.1,-23.4L-12.9,-24.0L-11.9,-24.1L-12.0,-26.9L-8.7,-26.8L-8.7,-28.5L-4.9,-25.8L-6.5,-25.8L-6.0,-21.1L-5.5,-16.6L-5.3,-16.4L-5.5,-15.7L-9.6,-15.7L-9.7,-15.4L-10.1,-15.5L-10.7,-15.3L-11.3,-15.6L-11.7,-15.6L-11.8,-15.0L-12.2,-14.8L-12.8,-15.5L-13.4,-16.3L-14.1,-16.5L-14.6,-16.8L-15.1,-16.8L-15.6,-16.6L-16.1,-16.7L-16.5,-16.4L-16.5,-16.9L-16.3,-17.4L-16.1,-18.4L-16.3,-19.5L-16.4,-20.0L-16.3,-20.5L-16.5,-21.0L-17.1,-21.5Z" fill="#00e5ff" stroke="#00c4dd" stroke-width="0.4" fill-opacity="0.9"/>
</svg>