<svg xmlns="http://www.w3.org/2000/svg" viewBox="-19.06 -29.40 16.14 16.78" width="300" height="300" preserveAspectRatio="xMidYMid meet">
  <path d="M-17.06,-21.00L-16.85,-21.33L-12.93,-21.33L-13.12,-22.77L-12.87,-23.28L-11.94,-23.37L-11.97,-25.93L-8.69,-25.88L-8.68,-27.40L-4.92,-24.97L-6.45,-24.96L-5.97,-20.64L-5.49,-16.33L-5.32,-16.20L-5.54,-15.50L-9.55,-15.49L-9.70,-15.26L-10.09,-15.33L-10.65,-15.13L-11.35,-15.41L-11.67,-15.39L-11.83,-14.80L-12.17,-14.62L-12.83,-15.30L-13.44,-16.04L-14.10,-16.30L-14.58,-16.60L-15.14,-16.59L-15.62,-16.37L-16.12,-16.46L-16.46,-16.14L-16.55,-16.67L-16.27,-17.17L-16.15,-18.11L-16.26,-19.10L-16.38,-19.59L-16.28,-20.09L-16.54,-20.57L-17.06,-21.00Z" fill="#00e5ff" stroke="#00e5ff" stroke-width="0.5" fill-opacity="0.8"/>
</svg>