<svg xmlns="http://www.w3.org/2000/svg" viewBox="-119.13 -34.72 34.32 22.18" width="300" height="300" preserveAspectRatio="xMidYMid meet">
  <path d="M-117.13,-32.54L-115.99,-32.61L-114.72,-32.72L-114.81,-32.53L-113.30,-32.04L-111.02,-31.33L-109.03,-31.34L-108.24,-31.34L-108.24,-31.75L-106.51,-31.75L-106.14,-31.40L-105.63,-31.08L-105.04,-30.64L-104.71,-30.12L-104.46,-29.57L-103.94,-29.27L-103.11,-28.97L-102.48,-29.76L-101.66,-29.78L-100.96,-29.38L-100.46,-28.70L-100.11,-28.11L-99.52,-27.54L-99.30,-26.84L-99.02,-26.37L-98.24,-26.06L-97.53,-25.84L-97.14,-25.87L-97.53,-24.99L-97.70,-24.27L-97.78,-22.93L-97.87,-22.44L-97.70,-21.90L-97.39,-21.41L-97.19,-20.64L-96.53,-19.89L-96.29,-19.32L-95.90,-18.83L-94.84,-18.56L-94.43,-18.14L-93.55,-18.42L-92.79,-18.52L-92.04,-18.70L-91.41,-18.88L-90.77,-19.28L-90.53,-19.87L-90.45,-20.71L-90.28,-21.00L-89.60,-21.26L-88.54,-21.49L-87.66,-21.46L-87.05,-21.54L-86.81,-21.33L-86.85,-20.85L-87.38,-20.26L-87.62,-19.65L-87.44,-19.47L-87.59,-19.04L-87.84,-18.26L-88.09,-18.52L-88.30,-18.50L-88.49,-18.49L-88.85,-17.88L-89.03,-18.00L-89.15,-17.96L-89.14,-17.81L-90.07,-17.82L-91.00,-17.82L-91.00,-17.25L-91.45,-17.25L-91.08,-16.92L-90.71,-16.69L-90.60,-16.47L-90.44,-16.41L-90.46,-16.07L-91.75,-16.07L-92.23,-15.25L-92.09,-15.06L-92.20,-14.83L-92.23,-14.54L-93.36,-15.62L-93.88,-15.94L-94.69,-16.20L-95.25,-16.13L-96.05,-15.75L-96.56,-15.65L-97.26,-15.92L-98.01,-16.11L-98.95,-16.57L-99.70,-16.71L-100.83,-17.17L-101.67,-17.65L-101.92,-17.92L-102.48,-17.98L-103.50,-18.29L-103.92,-18.75L-104.99,-19.32L-105.49,-19.95L-105.73,-20.43L-105.40,-20.53L-105.50,-20.82L-105.27,-21.08L-105.27,-21.42L-105.60,-21.87L-105.69,-22.27L-106.03,-22.77L-106.91,-23.77L-107.92,-24.55L-108.40,-25.17L-109.26,-25.58L-109.44,-25.82L-109.29,-26.44L-109.80,-26.68L-110.39,-27.16L-110.64,-27.86L-111.18,-27.94L-111.76,-28.47L-112.23,-28.95L-112.27,-29.27L-112.81,-30.02L-113.16,-30.79L-113.15,-31.17L-113.87,-31.57L-114.21,-31.52L-114.78,-31.80L-114.94,-31.39L-114.77,-30.91L-114.67,-30.16L-114.33,-29.75L-113.59,-29.06L-113.42,-28.83L-113.27,-28.75L-113.14,-28.41L-112.96,-28.43L-112.76,-27.78L-112.46,-27.53L-112.24,-27.17L-111.62,-26.66L-111.28,-25.73L-110.99,-25.29L-110.71,-24.83L-110.66,-24.30L-110.17,-24.27L-109.77,-23.81L-109.41,-23.36L-109.43,-23.19L-109.85,-22.82L-110.03,-22.82L-110.30,-23.43L-110.95,-24.00L-111.67,-24.48L-112.18,-24.74L-112.15,-25.47L-112.30,-26.01L-112.78,-26.32L-113.46,-26.77L-113.60,-26.64L-113.85,-26.90L-114.47,-27.14L-115.06,-27.72L-114.98,-27.80L-114.57,-27.74L-114.20,-28.12L-114.16,-28.57L-114.93,-29.28L-115.52,-29.56L-115.89,-30.18L-116.26,-30.84L-116.72,-31.64L-117.13,-32.54Z" fill="#00e5ff" stroke="#00e5ff" stroke-width="0.5" fill-opacity="0.8"/>
</svg>