<svg xmlns="http://www.w3.org/2000/svg" viewBox="85.75 -54.05 36.02 14.45" width="300" height="300" preserveAspectRatio="xMidYMid meet">
  <path d="M87.75,-49.30L88.81,-49.47L90.71,-50.33L92.23,-50.80L93.10,-50.50L94.15,-50.48L94.82,-50.01L95.81,-49.98L97.26,-49.73L98.23,-50.42L97.83,-51.01L98.86,-52.05L99.98,-51.63L100.89,-51.52L102.07,-51.26L102.26,-50.51L103.68,-50.09L104.62,-50.28L105.89,-50.41L106.89,-50.27L107.87,-49.79L108.48,-49.28L109.40,-49.29L110.66,-49.13L111.58,-49.38L112.90,-49.54L114.36,-50.25L114.96,-50.14L115.49,-49.81L116.68,-49.89L116.19,-49.13L115.49,-48.14L115.74,-47.73L116.31,-47.85L117.30,-47.70L118.06,-48.07L118.87,-47.75L119.77,-47.05L119.66,-46.69L118.87,-46.81L117.42,-46.67L116.72,-46.39L115.99,-45.73L114.46,-45.34L113.46,-44.81L112.44,-45.01L111.87,-45.10L111.35,-44.46L111.67,-44.07L111.83,-43.74L111.13,-43.41L110.41,-42.87L109.24,-42.52L107.74,-42.48L106.13,-42.13L104.96,-41.60L104.52,-41.91L103.31,-41.91L101.83,-42.51L100.85,-42.66L99.52,-42.52L97.45,-42.75L96.35,-42.73L95.76,-43.32L95.31,-44.24L94.69,-44.35L93.48,-44.98L92.13,-45.12L90.95,-45.29L90.59,-45.72L90.97,-46.89L90.28,-47.69L88.85,-48.07L88.01,-48.60L87.75,-49.30Z" fill="#00e5ff" stroke="#00e5ff" stroke-width="0.5" fill-opacity="0.8"/>
</svg>