<svg xmlns="http://www.w3.org/2000/svg" viewBox="-19.02 -37.76 19.90 18.34" width="300" height="300" preserveAspectRatio="xMidYMid meet">
  <path d="M-2.17,-35.17L-1.79,-34.53L-1.73,-33.92L-1.39,-32.86L-1.12,-32.65L-1.31,-32.26L-2.62,-32.09L-3.07,-31.72L-3.65,-31.64L-3.69,-30.90L-4.86,-30.50L-5.24,-30.00L-6.06,-29.73L-7.06,-29.58L-8.67,-28.84L-8.67,-27.66L-8.82,-27.66L-8.79,-27.12L-9.41,-27.09L-9.74,-26.86L-10.19,-26.86L-10.55,-26.99L-11.39,-26.88L-11.72,-26.10L-12.03,-26.03L-12.50,-24.77L-13.89,-23.69L-14.22,-22.31L-14.63,-21.86L-14.75,-21.50L-17.00,-21.42L-17.02,-21.42L-16.97,-21.89L-16.59,-22.16L-16.26,-22.68L-16.33,-23.02L-15.98,-23.72L-15.43,-24.36L-15.09,-24.52L-14.82,-25.10L-14.80,-25.64L-14.44,-26.25L-13.77,-26.62L-13.14,-27.64L-13.12,-27.65L-12.62,-28.04L-11.69,-28.15L-10.90,-28.83L-10.40,-29.10L-9.56,-29.93L-9.81,-31.18L-9.43,-32.04L-9.30,-32.56L-8.66,-33.24L-7.65,-33.70L-6.91,-34.11L-6.24,-35.15L-5.93,-35.76L-5.19,-35.76L-4.59,-35.33L-3.64,-35.40L-2.60,-35.18L-2.17,-35.17Z" fill="#00e5ff" stroke="#00e5ff" stroke-width="0.5" fill-opacity="0.8"/>
</svg>