<svg xmlns="http://www.w3.org/2000/svg" viewBox="28.18 8.32 14.60 20.42" width="300" height="300" preserveAspectRatio="xMidYMid meet">
  <path d="M34.56,11.52L35.31,11.44L36.51,11.72L36.78,11.59L37.47,11.57L37.83,11.27L38.43,11.29L39.52,10.90L40.32,10.32L40.32,10.32L40.32,10.32L40.48,10.77L40.44,11.76L40.56,12.64L40.60,14.20L40.78,14.69L40.48,15.41L40.09,16.10L39.45,16.72L38.54,17.10L37.41,17.59L36.28,18.66L35.90,18.84L35.20,19.55L34.79,19.78L34.70,20.50L35.18,21.25L35.37,21.84L35.39,22.14L35.56,22.09L35.53,23.07L35.37,23.54L35.61,23.71L35.46,24.12L35.04,24.48L34.22,24.82L33.01,25.36L32.57,25.73L32.66,26.15L32.92,26.22L32.83,26.74L32.07,26.73L31.99,26.29L31.84,25.84L31.75,25.48L31.93,24.37L31.67,23.66L31.19,22.25L32.24,21.12L32.51,20.40L32.66,20.30L32.77,19.72L32.61,19.42L32.65,18.67L32.85,17.98L32.85,16.71L32.33,16.39L31.85,16.32L31.64,16.07L31.17,15.86L30.34,15.88L30.27,15.51L30.18,14.80L33.21,13.97L33.79,14.45L34.06,14.36L34.46,14.61L34.52,15.01L34.31,15.48L34.38,16.18L35.03,16.80L35.34,16.11L35.77,15.90L35.69,14.61L35.27,13.89L34.91,13.57L34.56,13.58L34.28,12.28L34.56,11.52Z" fill="#00e5ff" stroke="#00e5ff" stroke-width="0.5" fill-opacity="0.8"/>
</svg>