<svg xmlns="http://www.w3.org/2000/svg" viewBox="90.30 -30.34 12.88 22.41" width="300" height="300" preserveAspectRatio="xMidYMid meet">
  <path d="M100.12,-20.42L99.54,-20.19L98.96,-19.75L98.25,-19.71L97.80,-18.63L97.38,-18.45L97.86,-17.57L98.49,-16.84L98.90,-16.18L98.54,-15.31L98.19,-15.12L98.43,-14.62L99.10,-13.83L99.21,-13.27L99.20,-12.80L99.59,-11.89L99.04,-10.96L98.55,-9.93L98.46,-10.68L98.76,-11.44L98.43,-12.03L98.51,-13.12L98.10,-13.64L97.78,-14.84L97.60,-16.10L97.16,-16.93L96.51,-16.43L95.37,-15.71L94.81,-15.80L94.19,-16.04L94.53,-17.28L94.32,-18.21L93.54,-19.37L93.66,-19.73L93.08,-19.86L92.37,-20.67L92.30,-21.48L92.65,-21.32L92.67,-22.04L93.17,-22.28L93.06,-22.70L93.29,-23.04L93.33,-24.08L94.11,-23.85L94.55,-24.68L94.60,-25.16L95.16,-26.00L95.12,-26.57L96.42,-27.26L97.13,-27.08L97.05,-27.70L97.40,-27.88L97.33,-28.26L97.91,-28.34L98.25,-27.75L98.68,-27.51L98.71,-26.74L98.67,-25.92L97.72,-25.08L97.60,-23.90L98.66,-24.06L98.90,-23.14L99.53,-22.95L99.24,-22.12L99.98,-21.74L100.42,-21.56L101.15,-21.85L101.18,-21.44L100.33,-20.79L100.12,-20.42Z" fill="#00e5ff" stroke="#00e5ff" stroke-width="0.5" fill-opacity="0.8"/>
</svg>