<svg xmlns="http://www.w3.org/2000/svg" viewBox="9.73 14.94 17.35 16.11" width="300" height="300" preserveAspectRatio="xMidYMid meet">
  <path d="M19.90,24.77L19.89,28.46L19.00,28.97L18.46,29.05L17.84,28.86L17.39,28.78L17.22,28.36L16.82,28.08L16.34,28.58L15.60,27.82L15.21,27.09L14.99,26.12L14.74,25.39L14.41,23.85L14.39,22.66L14.26,22.11L13.87,21.70L13.35,20.87L12.83,19.67L12.61,19.05L11.79,18.07L11.73,17.30L12.22,17.11L12.81,16.94L13.46,16.97L14.06,17.42L14.21,17.35L18.26,17.31L18.96,17.79L21.38,17.93L23.22,17.52L24.03,17.30L24.68,17.35L25.08,17.58L25.08,17.66L24.52,17.89L24.22,17.89L23.58,18.28L23.20,17.87L21.66,18.22L20.91,18.25L20.88,21.81L19.90,21.85L19.90,24.77Z" fill="#00e5ff" stroke="#00e5ff" stroke-width="0.5" fill-opacity="0.8"/>
</svg>