<svg xmlns="http://www.w3.org/2000/svg" viewBox="151.5 21.7 42.0 46.1" width="400" height="300" preserveAspectRatio="xMidYMid meet">
  <rect x="151.5" y="21.7" width="42.0" height="46.1" fill="#0e0e18"/>
  <path d="M165.8,21.6L166.6,22.2L167.1,22.7L166.7,23.0L166.2,22.7L165.5,22.2L164.8,21.6L164.2,20.9L164.0,20.5L164.5,20.5L165.0,20.9L165.5,21.3L165.8,21.6Z" fill="#1e1e2e" stroke="#2a2a3a" stroke-width="0.3"/>
  <path d="M147.7,44.8L148.3,44.9L148.4,46.4L148.0,46.9L147.9,48.0L147.6,47.6L146.9,48.6L146.7,48.5L146.0,48.5L145.4,47.3L145.3,46.4L144.7,45.2L144.7,44.6L145.4,44.8L146.4,45.2L146.9,45.0L147.7,44.8ZM126.1,34.1L125.1,34.7L124.2,34.9L124.0,35.6L123.7,36.1L122.8,36.1L122.2,36.2L121.3,36.0L120.6,36.1L119.9,36.2L119.3,36.8L119.0,36.8L118.5,37.1L118.0,37.5L117.3,37.4L116.6,37.4L115.6,36.7L115.0,36.4L115.0,35.7L115.5,35.6L115.7,35.3L115.7,34.9L115.8,34.0L115.7,33.4L115.2,32.2L115.0,31.5L115.0,30.9L114.6,30.1L114.6,29.8L114.2,29.3L114.0,28.4L113.5,27.5L113.3,27.1L113.8,27.6L113.4,26.5L113.9,26.8L114.2,27.3L114.2,26.7L113.7,25.8L113.6,25.5L113.4,25.2L113.5,24.5L113.7,24.3L113.8,23.7L113.7,23.1L114.1,22.3L114.2,23.1L114.6,22.4L115.5,22.0L115.9,21.6L116.7,21.2L117.2,21.1L117.4,21.2L118.2,20.8L118.8,20.7L119.0,20.5L119.3,20.4L119.8,20.4L120.9,20.1L121.4,19.6L121.7,19.0L122.2,18.5L122.3,18.1L122.3,17.5L123.0,16.6L123.4,17.5L123.9,17.3L123.5,16.8L123.8,16.3L124.3,16.6L124.4,15.8L124.9,15.3L125.2,14.8L125.7,14.7L125.7,14.4L126.1,14.5L126.1,14.2L126.6,14.1L127.1,14.0L127.8,14.4L128.4,15.0L129.0,15.0L129.6,15.1L129.4,14.6L129.9,13.7L130.3,13.5L130.2,13.2L130.6,12.6L131.2,12.3L131.7,12.4L132.6,12.2L132.6,11.7L131.8,11.3L132.4,11.2L133.0,11.5L133.6,11.9L134.4,12.1L134.7,12.0L135.3,12.3L135.9,12.1L136.3,12.1L136.5,11.9L137.0,12.4L136.7,13.0L136.3,13.4L136.0,13.4L136.1,13.9L135.8,14.4L135.4,14.9L135.5,15.2L136.3,15.7L137.1,16.1L137.6,16.4L138.3,17.1L138.6,17.1L139.1,17.3L139.3,17.6L140.2,18.0L140.9,17.6L141.1,17.1L141.3,16.6L141.4,16.0L141.7,15.2L141.6,14.7L141.6,14.4L141.5,13.8L141.7,13.1L141.8,12.8L141.7,12.5L141.9,12.0L142.1,11.4L142.1,11.1L142.5,10.7L142.8,11.2L142.9,11.9L143.1,12.0L143.2,12.4L143.5,12.9L143.6,13.5L143.6,13.9L143.9,14.7L144.6,14.3L144.9,14.8L145.4,15.2L145.3,15.6L145.5,16.5L145.6,17.0L145.9,17.2L146.2,18.1L146.1,18.6L146.4,19.3L147.5,19.9L148.2,20.4L148.8,20.8L148.7,21.1L149.3,21.8L149.7,22.9L150.1,22.7L150.5,23.2L150.7,23.0L150.9,24.1L151.6,24.8L152.1,25.2L152.9,26.1L153.1,27.0L153.2,27.7L153.1,28.4L153.6,29.3L153.5,30.3L153.3,30.8L153.1,31.9L153.1,32.5L152.9,33.4L152.5,34.5L151.7,35.0L151.3,36.0L151.0,36.6L150.7,37.6L150.3,38.2L150.1,39.2L149.9,40.0L150.0,40.4L149.4,40.8L148.3,40.9L147.4,41.4L146.9,41.9L146.3,42.5L145.5,41.9L144.9,41.7L145.0,41.0L144.5,41.2L143.6,42.2L142.7,41.8L142.2,41.6L141.6,41.5L140.6,41.2L140.0,40.4L139.8,39.4L139.6,38.8L139.1,38.3L138.1,38.2L138.4,37.6L138.2,36.7L137.7,37.5L136.8,37.7L137.4,37.0L137.5,36.3L137.9,35.8L137.8,34.9L137.0,35.9L136.4,36.3L136.0,37.3L135.2,36.8L135.2,36.1L134.6,35.3L134.1,34.8L134.3,34.5L133.0,33.8L132.3,33.8L131.3,33.2L129.5,33.3L128.2,33.7L127.1,34.1L126.1,34.1Z" fill="#1e1e2e" stroke="#2a2a3a" stroke-width="0.3"/>
  <path d="M176.9,43.8L176.5,44.5L176.0,45.4L175.2,45.9L175.1,45.6L174.7,45.4L175.2,44.3L174.9,43.6L173.8,43.1L173.9,42.6L174.6,42.2L174.7,41.2L174.7,40.4L174.3,39.5L174.3,39.3L173.8,38.8L173.1,37.7L172.6,36.8L173.0,36.7L173.6,37.4L174.3,37.7L174.6,38.8L175.3,40.1L175.4,39.3L175.8,39.6L176.0,40.6L176.8,41.0L177.4,41.1L178.0,40.6L178.5,40.8L178.3,41.9L178.0,42.6L177.2,42.6L176.9,43.0L177.0,43.6L176.9,43.8ZM169.7,48.5L170.5,47.8L171.1,47.1L171.6,46.0L171.9,45.7L172.1,45.0L172.8,44.4L173.0,44.9L173.2,45.5L174.0,44.9L174.2,45.5L174.2,46.1L173.9,46.7L173.2,47.7L172.7,48.2L173.1,48.9L172.3,48.9L171.5,49.4L171.2,50.4L170.6,51.8L169.8,52.4L169.3,52.9L168.4,52.8L167.8,52.3L166.7,52.2L166.5,51.7L167.0,50.7L168.3,49.3L168.9,49.0L169.7,48.5Z" fill="#00e5ff" stroke="#00c4dd" stroke-width="0.4" fill-opacity="0.9"/>
</svg>