<svg xmlns="http://www.w3.org/2000/svg" viewBox="164.51 32.45 16.01 16.19" width="300" height="300" preserveAspectRatio="xMidYMid meet">
  <path d="M176.89,40.07L176.51,40.60L176.01,41.29L175.24,41.69L175.07,41.43L174.65,41.28L175.23,40.46L174.90,39.91L173.82,39.51L173.85,39.15L174.57,38.80L174.74,38.03L174.70,37.38L174.29,36.71L174.32,36.53L173.84,36.12L173.05,35.24L172.64,34.53L173.01,34.45L173.55,35.01L174.33,35.27L174.61,36.16L175.34,37.21L175.36,36.53L175.81,36.80L175.96,37.56L176.76,37.88L177.44,37.96L178.01,37.58L178.52,37.70L178.27,38.58L177.97,39.17L177.21,39.15L176.94,39.45L177.03,39.88L176.89,40.07ZM169.67,43.56L170.52,43.03L171.13,42.51L171.57,41.77L171.95,41.51L172.10,40.96L172.80,40.49L173.02,40.92L173.25,41.33L173.96,40.93L174.25,41.35L174.25,41.77L173.88,42.23L173.22,42.97L172.71,43.37L173.08,43.85L172.31,43.87L171.45,44.24L171.19,44.90L170.62,45.91L169.83,46.36L169.33,46.64L168.41,46.62L167.76,46.29L166.68,46.22L166.51,45.85L167.05,45.11L168.30,44.12L168.95,43.94L169.67,43.56Z" fill="#00e5ff" stroke="#00e5ff" stroke-width="0.5" fill-opacity="0.8"/>
</svg>