<svg xmlns="http://www.w3.org/2000/svg" viewBox="-89.67 -17.02 8.52 8.29" width="300" height="300" preserveAspectRatio="xMidYMid meet">
  <path d="M-83.66,-10.94L-83.90,-10.73L-84.19,-10.79L-84.36,-11.00L-84.67,-11.08L-84.90,-10.95L-85.56,-11.22L-85.71,-11.09L-86.06,-11.40L-86.53,-11.81L-86.75,-12.14L-87.17,-12.46L-87.67,-12.91L-87.56,-13.06L-87.39,-12.91L-87.32,-12.98L-87.01,-13.03L-86.88,-13.25L-86.73,-13.26L-86.76,-13.75L-86.52,-13.78L-86.31,-13.77L-86.10,-14.04L-85.80,-13.84L-85.70,-13.96L-85.51,-14.08L-85.17,-14.35L-85.15,-14.56L-85.05,-14.55L-84.92,-14.79L-84.82,-14.82L-84.65,-14.67L-84.45,-14.62L-84.23,-14.75L-83.98,-14.75L-83.63,-14.88L-83.49,-15.02L-83.15,-15.00L-83.23,-14.90L-83.28,-14.68L-83.18,-14.31L-83.41,-13.97L-83.52,-13.57L-83.55,-13.13L-83.50,-12.87L-83.47,-12.42L-83.63,-12.32L-83.72,-11.89L-83.65,-11.63L-83.86,-11.37L-83.81,-11.10L-83.66,-10.94Z" fill="#00e5ff" stroke="#00e5ff" stroke-width="0.5" fill-opacity="0.8"/>
</svg>