<svg xmlns="http://www.w3.org/2000/svg" viewBox="-1.70 -25.47 19.60 15.81" width="300" height="300" preserveAspectRatio="xMidYMid meet">
  <path d="M14.85,-22.86L15.10,-21.31L15.47,-21.05L15.49,-20.73L15.90,-20.39L15.69,-19.96L15.30,-17.93L15.25,-16.63L13.97,-15.68L13.54,-14.37L13.96,-14.00L13.95,-13.35L14.60,-13.33L14.50,-12.86L14.21,-12.80L14.18,-12.48L14.00,-12.46L13.32,-13.56L13.08,-13.60L12.30,-13.04L11.53,-13.33L10.99,-13.39L10.70,-13.25L10.11,-13.28L9.52,-12.85L9.01,-12.83L7.80,-13.34L7.33,-13.10L6.82,-13.12L6.45,-13.49L5.44,-13.87L4.37,-13.75L4.11,-13.53L3.97,-12.96L3.68,-12.55L3.61,-11.66L2.85,-12.24L2.49,-12.23L2.15,-11.94L2.18,-12.63L1.02,-12.85L0.99,-13.34L0.43,-13.99L0.30,-14.44L0.37,-14.93L1.02,-14.97L1.39,-15.32L2.75,-15.41L3.64,-15.57L3.72,-16.18L4.27,-16.85L4.27,-19.16L5.68,-19.60L8.57,-21.57L12.00,-23.47L13.58,-23.04L14.14,-22.49L14.85,-22.86Z" fill="#00e5ff" stroke="#00e5ff" stroke-width="0.5" fill-opacity="0.8"/>
</svg>