<svg xmlns="http://www.w3.org/2000/svg" viewBox="0.69 -15.87 15.89 13.63" width="300" height="300" preserveAspectRatio="xMidYMid meet">
  <path d="M2.69,-6.26L2.75,-7.87L2.72,-8.51L2.91,-9.14L3.22,-9.44L3.71,-10.06L3.60,-10.33L3.80,-10.73L3.57,-11.33L3.61,-11.66L3.68,-12.55L3.97,-12.96L4.11,-13.53L4.37,-13.75L5.44,-13.87L6.45,-13.49L6.82,-13.12L7.33,-13.10L7.80,-13.34L9.01,-12.83L9.52,-12.85L10.11,-13.28L10.70,-13.25L10.99,-13.39L11.53,-13.33L12.30,-13.04L13.08,-13.60L13.32,-13.56L14.00,-12.46L14.18,-12.48L14.58,-12.09L14.47,-11.90L14.42,-11.57L13.57,-10.80L13.31,-10.16L13.17,-9.64L12.96,-9.42L12.75,-8.72L12.22,-8.31L12.06,-7.80L11.84,-7.40L11.75,-6.98L11.06,-6.64L10.50,-7.06L10.12,-7.04L9.52,-6.45L9.23,-6.44L8.76,-5.48L8.50,-4.77L7.46,-4.41L7.08,-4.46L6.70,-4.24L5.90,-4.26L5.36,-4.89L5.03,-5.61L4.33,-6.27L3.57,-6.26L2.69,-6.26Z" fill="#00e5ff" stroke="#00e5ff" stroke-width="0.5" fill-opacity="0.8"/>
</svg>