<svg xmlns="http://www.w3.org/2000/svg" viewBox="122.27 -44.99 10.51 9.32" width="300" height="300" preserveAspectRatio="xMidYMid meet">
  <path d="M130.78,-42.22L130.78,-42.22L130.78,-42.22L130.78,-42.22ZM130.64,-42.40L130.64,-42.40L130.78,-42.22L130.40,-42.28L129.97,-41.94L129.67,-41.60L129.71,-40.88L129.19,-40.66L129.01,-40.49L128.63,-40.19L127.97,-40.03L127.53,-39.76L127.50,-39.32L127.39,-39.21L127.78,-39.05L128.35,-38.61L128.21,-38.37L127.78,-38.30L127.07,-38.26L126.68,-37.80L126.24,-37.84L126.17,-37.75L125.69,-37.94L125.57,-37.75L125.28,-37.67L125.24,-37.86L124.98,-37.95L124.71,-38.11L124.99,-38.55L125.22,-38.67L125.13,-38.85L125.39,-39.39L125.32,-39.55L124.74,-39.66L124.27,-39.93L125.08,-40.57L126.18,-41.11L126.87,-41.82L127.34,-41.50L128.21,-41.47L128.05,-41.99L129.60,-42.42L129.99,-42.99L130.64,-42.40Z" fill="#00e5ff" stroke="#00e5ff" stroke-width="0.5" fill-opacity="0.8"/>
</svg>