<svg xmlns="http://www.w3.org/2000/svg" viewBox="2.99 -82.66 30.30 26.58" width="300" height="300" preserveAspectRatio="xMidYMid meet">
  <path d="M15.14,-79.67L15.52,-80.02L16.99,-80.05L18.25,-79.70L21.54,-78.96L19.03,-78.56L18.47,-77.83L17.59,-77.64L17.12,-76.81L15.91,-76.77L13.76,-77.38L14.67,-77.74L13.17,-78.02L11.22,-78.87L10.44,-79.65L13.17,-80.01L13.72,-79.66L15.14,-79.67ZM31.10,-69.56L29.40,-69.16L28.59,-69.06L29.02,-69.77L27.73,-70.16L26.18,-69.83L25.69,-69.09L24.74,-68.65L23.66,-68.89L22.36,-68.84L21.24,-69.37L20.65,-69.11L20.03,-69.07L19.88,-68.41L17.99,-68.57L17.73,-68.01L16.77,-68.01L16.11,-67.30L15.11,-66.19L13.56,-64.79L13.92,-64.45L13.57,-64.05L12.58,-64.07L11.93,-63.13L11.99,-61.80L12.63,-61.29L12.30,-60.12L11.47,-59.43L11.03,-58.86L10.36,-59.47L8.38,-58.31L7.05,-58.08L5.67,-58.59L5.31,-59.66L4.99,-61.97L5.91,-62.61L8.55,-63.45L10.53,-64.49L12.36,-65.88L14.76,-67.81L16.44,-68.56L19.18,-69.82L21.38,-70.26L23.02,-70.20L24.55,-71.03L26.37,-70.99L28.17,-71.19L31.29,-70.45L30.01,-70.19L31.10,-69.56ZM27.41,-80.06L25.92,-79.52L23.02,-79.40L20.08,-79.57L19.90,-79.84L18.46,-79.86L17.37,-80.32L20.46,-80.60L21.91,-80.36L22.92,-80.66L25.45,-80.41L27.41,-80.06ZM24.72,-77.85L22.49,-77.44L20.73,-77.68L21.42,-77.94L20.81,-78.25L22.88,-78.45L23.28,-78.08L24.72,-77.85Z" fill="#00e5ff" stroke="#00e5ff" stroke-width="0.5" fill-opacity="0.8"/>
</svg>