<svg xmlns="http://www.w3.org/2000/svg" viewBox="58.87 -39.13 20.97 17.44" width="300" height="300" preserveAspectRatio="xMidYMid meet">
  <path d="M77.84,-35.49L76.87,-34.65L75.76,-34.50L74.24,-34.75L73.75,-34.32L74.10,-33.44L74.45,-32.76L75.26,-32.27L74.41,-31.69L74.42,-30.98L73.45,-29.98L72.82,-28.96L71.78,-27.91L70.62,-27.99L69.51,-26.94L70.17,-26.49L70.28,-25.72L70.84,-25.22L71.04,-24.36L68.84,-24.36L68.18,-23.69L67.44,-23.94L67.15,-24.66L66.37,-25.43L64.53,-25.24L62.91,-25.22L61.50,-25.08L61.87,-26.24L63.32,-26.76L63.23,-27.22L62.76,-27.38L62.73,-28.26L61.77,-28.70L61.37,-29.30L60.87,-29.83L62.55,-29.32L63.55,-29.47L64.15,-29.34L64.35,-29.56L65.05,-29.47L66.35,-29.89L66.38,-30.74L66.94,-31.30L67.68,-31.30L67.79,-31.58L68.56,-31.71L68.93,-31.62L69.32,-31.90L69.26,-32.50L69.69,-33.11L70.32,-33.36L69.93,-34.02L70.88,-33.99L71.16,-34.35L71.12,-34.73L71.61,-35.15L71.50,-35.65L71.26,-36.07L71.85,-36.51L72.92,-36.72L74.07,-36.84L74.58,-37.02L75.16,-37.13L75.90,-36.67L76.19,-35.90L77.84,-35.49Z" fill="#00e5ff" stroke="#00e5ff" stroke-width="0.5" fill-opacity="0.8"/>
</svg>