<svg xmlns="http://www.w3.org/2000/svg" viewBox="-84.97 -11.61 9.73 6.39" width="300" height="300" preserveAspectRatio="xMidYMid meet">
  <path d="M-77.35,-8.67L-77.47,-8.52L-77.24,-7.94L-77.43,-7.64L-77.75,-7.71L-77.88,-7.22L-78.21,-7.51L-78.43,-8.05L-78.18,-8.32L-78.44,-8.39L-78.62,-8.72L-79.12,-9.00L-79.56,-8.93L-79.76,-8.58L-80.16,-8.33L-80.38,-8.30L-80.48,-8.09L-80.00,-7.55L-80.28,-7.42L-80.42,-7.27L-80.89,-7.22L-81.06,-7.82L-81.19,-7.65L-81.52,-7.71L-81.72,-8.11L-82.13,-8.18L-82.39,-8.29L-82.82,-8.29L-82.85,-8.07L-82.97,-8.23L-82.91,-8.42L-82.83,-8.63L-82.87,-8.81L-82.72,-8.93L-82.93,-9.07L-82.93,-9.48L-82.55,-9.57L-82.19,-9.21L-82.21,-9.00L-81.81,-8.95L-81.71,-9.03L-81.44,-8.79L-80.95,-8.86L-80.52,-9.11L-79.91,-9.31L-79.57,-9.61L-79.02,-9.55L-79.06,-9.45L-78.50,-9.42L-78.06,-9.25L-77.73,-8.95L-77.35,-8.67Z" fill="#00e5ff" stroke="#00e5ff" stroke-width="0.5" fill-opacity="0.8"/>
</svg>