<svg xmlns="http://www.w3.org/2000/svg" viewBox="-98.0 -24.7 35.7 32.4" width="400" height="300" preserveAspectRatio="xMidYMid meet">
  <rect x="-98.0" y="-24.7" width="35.7" height="32.4" fill="#0e0e18"/>
  <path d="M-122.8,-56.4L-120.0,-56.4L-117.0,-56.4L-116.0,-56.4L-113.0,-56.4L-110.0,-56.4L-107.0,-56.4L-104.0,-56.4L-100.7,-56.4L-97.2,-56.4L-95.2,-56.4L-95.2,-57.0L-94.8,-57.0L-94.6,-56.1L-94.3,-55.9L-93.6,-55.8L-92.6,-55.5L-91.6,-55.1L-90.8,-55.3L-89.6,-54.9L-89.3,-54.9L-88.4,-55.3L-87.4,-54.8L-86.5,-54.2L-85.7,-53.7L-84.9,-53.2L-84.8,-52.8L-84.5,-52.7L-84.6,-52.6L-84.3,-52.5L-84.1,-52.7L-84.1,-52.3L-83.9,-52.1L-83.6,-52.1L-83.5,-51.9L-83.6,-51.7L-82.6,-51.0L-82.3,-49.7L-82.1,-48.5L-82.4,-47.7L-82.9,-46.9L-83.1,-46.5L-83.1,-46.3L-83.0,-46.1L-82.7,-45.9L-82.4,-45.9L-81.3,-46.6L-80.2,-46.9L-78.9,-47.5L-78.9,-47.7L-79.0,-48.1L-79.2,-48.4L-78.7,-48.6L-77.7,-48.6L-76.8,-48.6L-76.5,-49.1L-76.4,-49.2L-75.3,-50.2L-74.9,-50.5L-73.3,-50.5L-71.5,-50.5L-71.4,-50.9L-71.1,-50.9L-70.7,-51.2L-70.3,-51.8L-70.0,-52.9L-69.2,-54.0L-68.9,-53.7L-68.2,-53.9L-67.8,-53.5L-67.8,-51.5L-67.1,-50.7L-67.0,-50.2L-68.0,-49.6L-69.1,-49.1L-70.1,-48.7L-70.6,-47.8L-70.8,-47.5L-70.8,-46.8L-70.5,-46.1L-70.1,-46.1L-70.2,-46.6L-69.9,-46.3L-70.0,-45.9L-70.6,-45.7L-71.1,-45.7L-71.9,-45.5L-72.3,-45.4L-72.9,-45.3L-73.7,-44.9L-72.2,-45.2L-71.9,-44.9L-73.3,-44.5L-74.0,-44.5L-74.0,-44.7L-74.3,-44.3L-74.0,-44.3L-74.2,-43.3L-74.9,-42.3L-75.0,-42.7L-75.2,-42.7L-75.5,-43.1L-75.3,-42.4L-75.1,-42.1L-75.1,-41.7L-75.4,-41.2L-75.9,-40.1L-76.0,-40.2L-75.7,-41.1L-76.2,-41.5L-76.3,-42.6L-76.5,-42.1L-76.3,-41.2L-77.0,-41.4L-76.3,-41.0L-76.3,-39.8L-76.0,-39.7L-75.9,-39.3L-75.7,-38.1L-76.4,-37.2L-77.4,-36.8L-78.1,-36.1L-78.6,-36.0L-79.1,-35.6L-79.2,-35.2L-80.3,-34.4L-80.9,-33.8L-81.3,-33.1L-81.5,-32.3L-81.3,-31.5L-81.0,-30.5L-80.5,-29.7L-80.5,-29.2L-80.1,-27.9L-80.1,-27.2L-80.1,-26.7L-80.4,-26.1L-80.7,-25.9L-81.2,-26.1L-81.3,-26.5L-81.7,-26.8L-82.2,-27.8L-82.7,-28.6L-82.9,-29.1L-82.7,-29.8L-82.9,-30.4L-83.7,-31.4L-84.1,-31.6L-85.1,-31.1L-85.3,-31.1L-85.8,-31.6L-86.4,-31.9L-87.5,-31.8L-88.4,-31.9L-89.2,-31.8L-89.6,-31.7L-89.4,-31.4L-89.4,-30.9L-89.2,-30.7L-89.4,-30.5L-89.8,-30.7L-90.2,-30.5L-90.9,-30.5L-91.6,-31.1L-92.5,-31.0L-93.2,-31.2L-93.8,-31.1L-94.7,-30.9L-95.6,-30.0L-96.6,-29.5L-97.1,-29.0L-97.4,-28.5L-97.4,-27.7L-97.3,-27.2L-97.1,-26.8L-97.5,-26.8L-98.2,-27.0L-99.0,-27.4L-99.3,-27.9L-99.5,-28.7L-100.1,-29.3L-100.5,-30.0L-101.0,-30.8L-101.7,-31.2L-102.5,-31.2L-103.1,-30.3L-103.9,-30.6L-104.5,-31.0L-104.7,-31.6L-105.0,-32.2L-105.6,-32.7L-106.1,-33.1L-106.5,-33.5L-108.2,-33.5L-108.2,-33.0L-109.0,-33.0L-111.0,-33.0L-113.3,-33.9L-114.8,-34.4L-114.7,-34.7L-116.0,-34.5L-117.1,-34.4L-117.3,-35.0L-117.9,-35.7L-118.4,-35.9L-118.5,-36.2L-119.1,-36.3L-119.4,-36.6L-120.4,-36.7L-120.6,-36.9L-120.7,-37.6L-121.7,-38.8L-122.5,-40.6L-122.5,-40.9L-123.0,-41.3L-123.7,-42.4L-123.9,-43.4L-124.4,-44.1L-124.2,-45.2L-124.2,-46.4L-124.5,-47.4L-124.1,-48.7L-124.0,-50.0L-123.9,-51.2L-124.1,-53.2L-124.4,-54.4L-124.7,-55.1L-124.6,-55.4L-123.1,-54.9L-122.6,-53.5L-122.3,-53.9L-122.5,-55.1L-122.8,-56.4ZM-155.4,-20.5L-155.2,-20.4L-155.1,-20.3L-154.8,-19.9L-154.8,-19.8L-155.2,-19.6L-155.5,-19.4L-155.7,-19.3L-155.9,-19.4L-155.9,-19.7L-156.1,-20.1L-156.0,-20.2L-155.9,-20.4L-155.9,-20.6L-155.9,-20.7L-155.8,-20.7L-155.4,-20.5ZM-156.0,-21.2L-156.1,-21.1L-156.4,-21.0L-156.6,-21.3L-156.7,-21.3L-156.7,-21.4L-156.6,-21.5L-156.3,-21.4L-156.0,-21.2ZM-156.8,-21.7L-156.8,-21.6L-157.3,-21.6L-157.3,-21.7L-156.8,-21.7ZM-158.0,-22.3L-157.9,-22.2L-157.7,-21.8L-157.7,-21.8L-157.8,-21.8L-158.1,-21.8L-158.3,-22.1L-158.3,-22.1L-158.0,-22.3ZM-159.4,-22.8L-159.3,-22.5L-159.5,-22.4L-159.8,-22.6L-159.7,-22.7L-159.6,-22.8L-159.4,-22.8ZM-166.5,-76.2L-165.7,-76.0L-165.6,-75.3L-166.2,-75.0L-166.8,-75.3L-167.5,-75.9L-166.5,-76.2ZM-153.2,-71.5L-152.6,-71.4L-152.1,-70.8L-153.0,-69.9L-154.0,-69.2L-154.5,-69.7L-154.7,-70.6L-153.8,-71.2L-153.2,-71.5ZM-141.0,-98.6L-141.0,-98.6L-141.0,-88.7L-141.0,-76.1L-140.0,-76.0L-139.0,-75.5L-138.3,-74.6L-137.5,-73.3L-136.5,-74.4L-135.5,-75.0L-134.9,-74.0L-134.3,-73.2L-133.4,-72.4L-132.7,-71.0L-131.7,-68.9L-130.0,-67.7L-130.0,-66.6L-130.5,-65.8L-130.5,-65.8L-130.5,-65.8L-131.1,-66.4L-132.0,-67.0L-132.3,-68.6L-133.5,-70.0L-134.1,-71.8L-135.0,-71.9L-136.6,-72.0L-137.8,-72.5L-139.9,-74.5L-140.8,-74.9L-142.6,-75.6L-144.0,-75.5L-145.9,-76.4L-147.1,-77.2L-148.2,-76.8L-148.0,-75.4L-148.6,-75.3L-149.7,-74.9L-150.6,-74.2L-151.7,-73.8L-151.9,-74.9L-151.4,-76.9L-150.3,-77.6L-150.6,-78.1L-151.9,-76.9L-152.6,-75.6L-154.0,-74.2L-153.3,-73.2L-154.2,-71.8L-155.3,-71.1L-156.3,-70.5L-156.6,-69.7L-158.1,-68.7L-158.4,-67.9L-159.6,-67.1L-160.3,-67.3L-161.2,-66.8L-162.2,-66.2L-163.1,-65.6L-164.8,-65.1L-164.9,-65.4L-163.8,-66.2L-162.9,-66.7L-161.8,-67.7L-160.6,-67.9L-160.1,-68.7L-158.7,-69.7L-158.5,-70.1L-157.7,-70.8L-157.6,-72.2L-157.0,-73.3L-158.2,-72.7L-158.5,-73.1L-159.1,-72.4L-159.7,-73.4L-160.0,-72.7L-160.4,-73.6L-161.4,-72.8L-162.0,-72.9L-162.1,-74.0L-161.9,-74.7L-162.5,-75.4L-163.8,-75.1L-164.7,-76.0L-165.3,-76.5L-165.4,-77.6L-166.1,-78.5L-165.7,-79.7L-164.9,-80.9L-164.6,-82.1L-163.8,-82.2L-163.1,-81.9L-162.3,-83.0L-161.5,-82.8L-160.8,-83.5L-161.0,-84.5L-161.5,-84.9L-160.8,-85.8L-161.4,-85.8L-162.5,-85.3L-162.8,-84.8L-163.5,-85.3L-165.0,-85.0L-166.4,-85.6L-166.8,-86.5L-168.1,-87.9L-166.7,-88.9L-164.5,-90.2L-163.7,-90.2L-163.8,-88.9L-161.7,-89.0L-162.5,-90.6L-163.7,-91.5L-164.4,-92.8L-165.4,-94.0L-166.8,-94.8L-166.2,-96.3L-164.4,-96.3L-163.2,-97.6L-162.9,-99.0L-161.9,-100.4L-160.9,-100.8L-159.0,-102.1L-158.1,-101.9L-156.6,-103.5L-155.1,-102.9L-154.3,-101.5L-153.9,-102.1L-152.2,-101.9L-152.3,-101.2L-150.7,-100.7L-149.7,-101.0L-147.6,-100.1L-145.7,-99.8L-144.9,-99.4L-143.6,-99.9L-142.1,-99.0L-141.0,-98.6L-141.0,-98.6ZM-171.7,-83.5L-171.1,-83.1L-170.5,-83.3L-169.7,-82.7L-168.7,-82.4L-168.8,-82.2L-169.5,-81.7L-170.3,-82.2L-170.7,-82.6L-171.6,-82.5L-171.8,-82.6L-171.7,-83.5Z" fill="#1e1e2e" stroke="#2a2a3a" stroke-width="0.3"/>
  <path d="M-71.7,-20.1L-71.6,-19.5L-71.7,-19.1L-71.9,-19.0L-71.7,-18.6L-71.7,-18.4L-72.4,-18.5L-72.8,-18.5L-73.5,-18.5L-73.9,-18.3L-74.5,-18.7L-74.4,-19.0L-73.4,-18.9L-72.7,-18.8L-72.3,-19.0L-72.8,-19.5L-72.8,-19.9L-73.4,-20.0L-73.2,-20.3L-72.6,-20.3L-71.7,-20.1Z" fill="#1e1e2e" stroke="#2a2a3a" stroke-width="0.3"/>
  <path d="M-71.7,-18.4L-71.7,-18.6L-71.9,-19.0L-71.7,-19.1L-71.6,-19.5L-71.7,-20.1L-71.6,-20.3L-70.8,-20.3L-70.2,-20.0L-70.0,-20.0L-69.8,-19.7L-69.2,-19.7L-69.3,-19.4L-68.8,-19.3L-68.3,-18.9L-68.7,-18.5L-69.2,-18.7L-69.6,-18.7L-70.0,-18.8L-70.1,-18.6L-70.5,-18.5L-70.7,-18.8L-71.0,-18.6L-71.4,-17.9L-71.7,-18.0L-71.7,-18.4Z" fill="#1e1e2e" stroke="#2a2a3a" stroke-width="0.3"/>
  <path d="M-79.0,-27.8L-78.5,-27.9L-77.8,-27.9L-77.8,-27.6L-78.9,-27.4L-79.0,-27.8ZM-77.8,-28.1L-77.0,-27.6L-77.2,-26.8L-77.4,-26.9L-77.3,-27.5L-77.8,-28.0L-77.8,-28.1ZM-78.2,-26.1L-77.9,-26.0L-77.5,-25.1L-77.5,-24.5L-77.8,-24.4L-78.0,-25.0L-78.4,-25.4L-78.2,-26.1Z" fill="#1e1e2e" stroke="#2a2a3a" stroke-width="0.3"/>
  <path d="M-117.1,-34.4L-116.0,-34.5L-114.7,-34.7L-114.8,-34.4L-113.3,-33.9L-111.0,-33.0L-109.0,-33.0L-108.2,-33.0L-108.2,-33.5L-106.5,-33.5L-106.1,-33.1L-105.6,-32.7L-105.0,-32.2L-104.7,-31.6L-104.5,-31.0L-103.9,-30.6L-103.1,-30.3L-102.5,-31.2L-101.7,-31.2L-101.0,-30.8L-100.5,-30.0L-100.1,-29.3L-99.5,-28.7L-99.3,-27.9L-99.0,-27.4L-98.2,-27.0L-97.5,-26.8L-97.1,-26.8L-97.5,-25.8L-97.7,-25.0L-97.8,-23.6L-97.9,-23.0L-97.7,-22.5L-97.4,-21.9L-97.2,-21.1L-96.5,-20.3L-96.3,-19.7L-95.9,-19.2L-94.8,-18.9L-94.4,-18.5L-93.5,-18.7L-92.8,-18.9L-92.0,-19.0L-91.4,-19.2L-90.8,-19.7L-90.5,-20.3L-90.5,-21.2L-90.3,-21.5L-89.6,-21.8L-88.5,-22.0L-87.7,-22.0L-87.1,-22.1L-86.8,-21.8L-86.8,-21.3L-87.4,-20.7L-87.6,-20.0L-87.4,-19.9L-87.6,-19.4L-87.8,-18.6L-88.1,-18.8L-88.3,-18.8L-88.5,-18.8L-88.8,-18.2L-89.0,-18.3L-89.2,-18.3L-89.1,-18.1L-90.1,-18.1L-91.0,-18.1L-91.0,-17.5L-91.5,-17.5L-91.1,-17.2L-90.7,-16.9L-90.6,-16.7L-90.4,-16.6L-90.5,-16.3L-91.7,-16.3L-92.2,-15.4L-92.1,-15.2L-92.2,-15.0L-92.2,-14.7L-93.4,-15.8L-93.9,-16.1L-94.7,-16.4L-95.3,-16.3L-96.1,-16.0L-96.6,-15.9L-97.3,-16.1L-98.0,-16.3L-98.9,-16.8L-99.7,-16.9L-100.8,-17.4L-101.7,-17.9L-101.9,-18.2L-102.5,-18.3L-103.5,-18.6L-103.9,-19.1L-105.0,-19.7L-105.5,-20.4L-105.7,-20.9L-105.4,-21.0L-105.5,-21.3L-105.3,-21.6L-105.3,-21.9L-105.6,-22.4L-105.7,-22.9L-106.0,-23.4L-106.9,-24.5L-107.9,-25.3L-108.4,-26.0L-109.3,-26.5L-109.4,-26.7L-109.3,-27.4L-109.8,-27.7L-110.4,-28.2L-110.6,-29.0L-111.2,-29.1L-111.8,-29.7L-112.2,-30.3L-112.3,-30.6L-112.8,-31.5L-113.2,-32.4L-113.1,-32.8L-113.9,-33.3L-114.2,-33.2L-114.8,-33.6L-114.9,-33.1L-114.8,-32.5L-114.7,-31.7L-114.3,-31.2L-113.6,-30.4L-113.4,-30.1L-113.3,-30.0L-113.1,-29.7L-113.0,-29.7L-112.8,-28.9L-112.5,-28.7L-112.2,-28.3L-111.6,-27.7L-111.3,-26.6L-111.0,-26.2L-110.7,-25.6L-110.7,-25.1L-110.2,-25.0L-109.8,-24.5L-109.4,-24.0L-109.4,-23.8L-109.9,-23.4L-110.0,-23.5L-110.3,-24.1L-110.9,-24.7L-111.7,-25.3L-112.2,-25.5L-112.1,-26.4L-112.3,-27.0L-112.8,-27.3L-113.5,-27.8L-113.6,-27.7L-113.8,-27.9L-114.5,-28.2L-115.1,-28.9L-115.0,-29.0L-114.6,-28.9L-114.2,-29.3L-114.2,-29.8L-114.9,-30.6L-115.5,-31.0L-115.9,-31.7L-116.3,-32.4L-116.7,-33.4L-117.1,-34.4Z" fill="#1e1e2e" stroke="#2a2a3a" stroke-width="0.3"/>
  <path d="M-53.4,35.9L-53.7,35.2L-53.2,34.7L-53.8,33.9L-54.6,33.2L-55.6,32.5L-56.0,32.5L-57.0,31.6L-57.6,31.7L-56.3,30.2L-55.2,29.1L-54.5,28.6L-53.6,28.0L-53.6,27.1L-54.1,26.4L-54.6,26.7L-54.4,26.0L-54.3,25.4L-54.3,24.8L-54.7,24.6L-55.0,24.7L-55.4,24.7L-55.5,24.3L-55.6,23.3L-55.8,22.9L-56.5,22.7L-56.9,22.9L-57.9,22.7L-57.9,21.2L-58.2,20.6L-57.9,20.4L-57.9,19.8L-57.7,19.3L-57.5,18.5L-57.7,17.8L-58.3,17.5L-58.4,17.1L-58.2,16.5L-60.2,16.5L-60.5,15.3L-60.3,15.3L-60.3,14.8L-60.5,14.5L-60.5,13.9L-61.1,13.6L-61.7,13.6L-62.1,13.3L-62.8,13.1L-63.2,12.7L-64.3,12.6L-65.4,11.6L-65.3,11.0L-65.4,10.6L-65.3,9.8L-66.6,10.0L-67.2,10.4L-68.0,10.8L-68.3,11.1L-68.8,11.1L-69.5,11.0L-70.1,11.2L-70.5,11.1L-70.5,9.5L-71.3,10.1L-72.2,10.1L-72.6,9.6L-73.2,9.5L-73.0,9.1L-73.6,8.5L-74.0,7.5L-73.7,7.4L-73.7,6.9L-73.1,6.6L-73.2,6.1L-73.0,5.8L-72.9,5.3L-71.7,4.6L-70.9,4.4L-70.8,4.3L-69.9,4.3L-69.4,1.6L-69.4,1.1L-69.6,0.6L-70.0,0.2L-70.0,-0.5L-69.5,-0.7L-69.3,-0.6L-69.2,-1.0L-69.8,-1.1L-69.8,-1.7L-67.9,-1.7L-67.5,-2.0L-67.3,-1.7L-67.1,-1.1L-66.9,-1.3L-66.3,-0.7L-65.5,-0.8L-65.4,-1.1L-64.6,-1.3L-64.2,-1.5L-64.1,-1.9L-63.4,-2.2L-63.4,-2.4L-64.3,-2.5L-64.4,-3.1L-64.4,-3.8L-64.8,-4.1L-64.6,-4.2L-63.9,-4.0L-63.1,-3.8L-62.8,-4.0L-62.1,-4.2L-61.0,-4.5L-60.6,-4.9L-60.7,-5.2L-60.2,-5.3L-60.0,-5.0L-60.1,-4.6L-59.8,-4.4L-59.5,-4.0L-59.8,-3.6L-60.0,-2.8L-59.7,-2.3L-59.6,-1.8L-59.0,-1.3L-58.5,-1.3L-58.4,-1.5L-58.1,-1.5L-57.7,-1.7L-57.3,-1.9L-56.8,-1.9L-56.5,-1.9L-56.0,-1.8L-55.9,-2.0L-56.1,-2.2L-56.0,-2.5L-55.6,-2.4L-55.1,-2.5L-54.5,-2.3L-54.1,-2.1L-53.8,-2.4L-53.6,-2.3L-53.4,-2.1L-52.9,-2.1L-52.6,-2.5L-52.2,-3.2L-51.7,-4.2L-51.3,-4.2L-51.1,-3.7L-50.5,-1.9L-50.0,-1.7L-49.9,-1.0L-50.7,-0.2L-50.4,0.1L-48.6,0.2L-48.6,1.2L-47.8,0.6L-46.6,0.9L-44.9,1.6L-44.4,2.1L-44.6,2.7L-43.4,2.4L-41.5,2.9L-40.0,2.9L-38.5,3.7L-37.2,4.8L-36.5,5.1L-35.6,5.2L-35.2,5.5L-34.9,6.8L-34.7,7.4L-35.1,9.0L-35.6,9.7L-37.0,11.1L-37.7,12.3L-38.4,13.2L-38.7,13.2L-39.0,13.9L-38.9,15.9L-39.2,17.5L-39.3,18.2L-39.6,18.6L-39.8,20.0L-40.8,21.4L-40.9,22.5L-41.8,23.0L-42.0,23.6L-43.1,23.6L-44.6,24.0L-45.4,24.5L-46.5,24.8L-47.6,25.7L-48.5,26.8L-48.6,27.6L-48.5,28.3L-48.7,29.4L-48.9,30.0L-49.6,30.6L-50.7,32.6L-51.6,33.5L-52.3,34.1L-52.7,35.2L-53.4,35.9Z" fill="#1e1e2e" stroke="#2a2a3a" stroke-width="0.3"/>
  <path d="M-69.9,4.3L-70.8,4.3L-70.9,4.4L-71.7,4.6L-72.9,5.3L-73.0,5.8L-73.2,6.1L-73.1,6.6L-73.7,6.9L-73.7,7.4L-74.0,7.5L-73.6,8.5L-73.0,9.1L-73.2,9.5L-72.6,9.6L-72.2,10.1L-71.3,10.1L-70.5,9.5L-70.5,11.1L-70.1,11.2L-69.5,11.0L-68.7,12.7L-68.9,13.0L-68.9,13.7L-68.9,14.6L-69.3,15.1L-69.2,15.5L-69.4,15.9L-69.0,16.7L-69.6,17.9L-69.9,18.4L-70.4,18.7L-71.4,18.1L-71.5,17.6L-73.4,16.6L-75.2,15.4L-76.0,14.8L-76.4,14.0L-76.3,13.7L-77.1,12.3L-78.1,10.4L-79.0,8.4L-79.4,8.0L-79.8,7.2L-80.5,6.6L-81.2,6.1L-80.9,5.7L-81.4,4.7L-81.1,4.0L-80.3,3.4L-80.2,3.8L-80.5,4.1L-80.4,4.4L-80.0,4.4L-79.6,4.5L-79.2,5.0L-78.6,4.6L-78.5,3.9L-77.8,3.0L-76.6,2.6L-75.5,1.6L-75.2,0.9L-75.4,0.2L-75.1,0.1L-74.4,0.5L-74.1,1.0L-73.7,1.3L-73.1,2.3L-72.3,2.4L-71.8,2.2L-71.4,2.3L-70.8,2.3L-70.0,2.7L-70.7,3.7L-70.4,3.8L-69.9,4.3Z" fill="#1e1e2e" stroke="#2a2a3a" stroke-width="0.3"/>
  <path d="M-66.9,-1.3L-67.1,-1.1L-67.3,-1.7L-67.5,-2.0L-67.9,-1.7L-69.8,-1.7L-69.8,-1.1L-69.2,-1.0L-69.3,-0.6L-69.5,-0.7L-70.0,-0.5L-70.0,0.2L-69.6,0.6L-69.4,1.1L-69.4,1.6L-69.9,4.3L-70.4,3.8L-70.7,3.7L-70.0,2.7L-70.8,2.3L-71.4,2.3L-71.8,2.2L-72.3,2.4L-73.1,2.3L-73.7,1.3L-74.1,1.0L-74.4,0.5L-75.1,0.1L-75.4,0.2L-75.8,-0.1L-76.3,-0.4L-76.6,-0.3L-77.4,-0.4L-77.7,-0.8L-77.9,-0.8L-78.9,-1.4L-79.0,-1.7L-78.6,-1.8L-78.7,-2.3L-78.4,-2.6L-77.9,-2.7L-77.5,-3.3L-77.1,-3.9L-77.5,-4.1L-77.3,-4.7L-77.5,-5.6L-77.3,-5.9L-77.5,-6.7L-77.9,-7.2L-77.8,-7.7L-77.4,-7.7L-77.2,-8.0L-77.5,-8.6L-77.4,-8.7L-76.8,-8.7L-76.1,-9.4L-75.7,-9.5L-75.7,-9.8L-75.5,-10.7L-74.9,-11.2L-74.3,-11.2L-74.2,-11.4L-73.4,-11.3L-72.6,-11.8L-72.2,-12.0L-71.8,-12.5L-71.4,-12.5L-71.1,-12.2L-71.3,-11.9L-72.0,-11.7L-72.2,-11.2L-72.6,-10.9L-72.9,-10.5L-73.0,-9.8L-73.3,-9.2L-72.8,-9.1L-72.7,-8.7L-72.4,-8.4L-72.4,-8.0L-72.5,-7.7L-72.4,-7.4L-72.2,-7.4L-72.0,-7.0L-70.7,-7.1L-70.1,-7.0L-69.4,-6.1L-69.0,-6.2L-68.3,-6.2L-67.7,-6.3L-67.3,-6.1L-67.5,-5.6L-67.7,-5.2L-67.8,-4.5L-67.6,-3.8L-67.3,-3.5L-67.3,-3.3L-67.8,-2.8L-67.4,-2.6L-67.2,-2.3L-66.9,-1.3Z" fill="#1e1e2e" stroke="#2a2a3a" stroke-width="0.3"/>
  <path d="M-82.5,-9.6L-82.9,-9.5L-82.9,-9.1L-82.7,-9.0L-82.9,-8.8L-82.8,-8.7L-82.9,-8.5L-83.0,-8.3L-83.5,-8.5L-83.7,-8.7L-83.6,-8.9L-83.6,-9.1L-83.9,-9.3L-84.3,-9.5L-84.6,-9.7L-84.7,-10.0L-85.0,-10.1L-84.9,-9.8L-85.1,-9.6L-85.3,-9.9L-85.7,-10.0L-85.8,-10.2L-85.8,-10.5L-85.7,-10.8L-85.9,-11.0L-85.7,-11.2L-85.6,-11.3L-84.9,-11.0L-84.7,-11.2L-84.4,-11.1L-84.2,-10.9L-83.9,-10.8L-83.7,-11.0L-83.4,-10.5L-83.0,-10.0L-82.5,-9.6Z" fill="#1e1e2e" stroke="#2a2a3a" stroke-width="0.3"/>
  <path d="M-83.7,-11.0L-83.9,-10.8L-84.2,-10.9L-84.4,-11.1L-84.7,-11.2L-84.9,-11.0L-85.6,-11.3L-85.7,-11.2L-86.1,-11.5L-86.5,-11.9L-86.7,-12.2L-87.2,-12.6L-87.7,-13.0L-87.6,-13.2L-87.4,-13.0L-87.3,-13.1L-87.0,-13.1L-86.9,-13.4L-86.7,-13.4L-86.8,-13.9L-86.5,-13.9L-86.3,-13.9L-86.1,-14.2L-85.8,-14.0L-85.7,-14.1L-85.5,-14.2L-85.2,-14.5L-85.1,-14.7L-85.1,-14.7L-84.9,-15.0L-84.8,-15.0L-84.6,-14.8L-84.4,-14.8L-84.2,-14.9L-84.0,-14.9L-83.6,-15.1L-83.5,-15.2L-83.1,-15.2L-83.2,-15.1L-83.3,-14.8L-83.2,-14.5L-83.4,-14.1L-83.5,-13.7L-83.6,-13.2L-83.5,-13.0L-83.5,-12.5L-83.6,-12.4L-83.7,-12.0L-83.7,-11.7L-83.9,-11.4L-83.8,-11.2L-83.7,-11.0Z" fill="#1e1e2e" stroke="#2a2a3a" stroke-width="0.3"/>
  <path d="M-83.1,-15.2L-83.5,-15.2L-83.6,-15.1L-84.0,-14.9L-84.2,-14.9L-84.4,-14.8L-84.6,-14.8L-84.8,-15.0L-84.9,-15.0L-85.1,-14.7L-85.1,-14.7L-85.2,-14.5L-85.5,-14.2L-85.7,-14.1L-85.8,-14.0L-86.1,-14.2L-86.3,-13.9L-86.5,-13.9L-86.8,-13.9L-86.7,-13.4L-86.9,-13.4L-87.0,-13.1L-87.3,-13.1L-87.5,-13.4L-87.8,-13.5L-87.7,-13.9L-87.9,-14.0L-88.1,-14.1L-88.5,-14.0L-88.5,-14.1L-88.8,-14.3L-89.1,-14.5L-89.4,-14.6L-89.1,-14.8L-89.2,-15.0L-89.2,-15.2L-88.7,-15.5L-88.2,-15.9L-88.1,-15.9L-87.9,-16.1L-87.6,-16.1L-87.5,-16.0L-87.4,-16.1L-86.9,-16.0L-86.4,-16.0L-86.1,-16.1L-86.0,-16.2L-85.7,-16.2L-85.4,-16.1L-85.2,-16.1L-85.0,-16.2L-84.5,-16.1L-84.4,-16.0L-84.1,-15.8L-83.8,-15.6L-83.4,-15.5L-83.1,-15.2Z" fill="#1e1e2e" stroke="#2a2a3a" stroke-width="0.3"/>
  <path d="M-89.4,-14.6L-89.1,-14.5L-88.8,-14.3L-88.5,-14.1L-88.5,-14.0L-88.1,-14.1L-87.9,-14.0L-87.7,-13.9L-87.8,-13.5L-87.9,-13.3L-88.5,-13.3L-88.8,-13.4L-89.3,-13.6L-89.8,-13.6L-90.1,-13.9L-90.1,-14.0L-89.7,-14.3L-89.5,-14.4L-89.6,-14.5L-89.4,-14.6Z" fill="#1e1e2e" stroke="#2a2a3a" stroke-width="0.3"/>
  <path d="M-92.2,-14.7L-92.2,-15.0L-92.1,-15.2L-92.2,-15.4L-91.7,-16.3L-90.5,-16.3L-90.4,-16.6L-90.6,-16.7L-90.7,-16.9L-91.1,-17.2L-91.5,-17.5L-91.0,-17.5L-91.0,-18.1L-90.1,-18.1L-89.1,-18.1L-89.2,-17.3L-89.2,-16.1L-88.9,-16.1L-88.6,-15.9L-88.5,-16.1L-88.2,-15.9L-88.7,-15.5L-89.2,-15.2L-89.2,-15.0L-89.1,-14.8L-89.4,-14.6L-89.6,-14.5L-89.5,-14.4L-89.7,-14.3L-90.1,-14.0L-90.1,-13.9L-90.6,-14.0L-91.2,-14.1L-91.7,-14.3L-92.2,-14.7Z" fill="#1e1e2e" stroke="#2a2a3a" stroke-width="0.3"/>
  <path d="M-89.1,-18.1L-89.2,-18.3L-89.0,-18.3L-88.8,-18.2L-88.5,-18.8L-88.3,-18.8L-88.3,-18.7L-88.1,-18.7L-88.1,-18.4L-88.3,-17.9L-88.2,-17.8L-88.3,-17.4L-88.2,-17.3L-88.4,-16.8L-88.6,-16.5L-88.7,-16.5L-88.9,-16.1L-89.2,-16.1L-89.2,-17.3L-89.1,-18.1Z" fill="#1e1e2e" stroke="#2a2a3a" stroke-width="0.3"/>
  <path d="M-60.7,-5.2L-60.6,-4.9L-61.0,-4.5L-62.1,-4.2L-62.8,-4.0L-63.1,-3.8L-63.9,-4.0L-64.6,-4.2L-64.8,-4.1L-64.4,-3.8L-64.4,-3.1L-64.3,-2.5L-63.4,-2.4L-63.4,-2.2L-64.1,-1.9L-64.2,-1.5L-64.6,-1.3L-65.4,-1.1L-65.5,-0.8L-66.3,-0.7L-66.9,-1.3L-67.2,-2.3L-67.4,-2.6L-67.8,-2.8L-67.3,-3.3L-67.3,-3.5L-67.6,-3.8L-67.8,-4.5L-67.7,-5.2L-67.5,-5.6L-67.3,-6.1L-67.7,-6.3L-68.3,-6.2L-69.0,-6.2L-69.4,-6.1L-70.1,-7.0L-70.7,-7.1L-72.0,-7.0L-72.2,-7.4L-72.4,-7.4L-72.5,-7.7L-72.4,-8.0L-72.4,-8.4L-72.7,-8.7L-72.8,-9.1L-73.3,-9.2L-73.0,-9.8L-72.9,-10.5L-72.6,-10.9L-72.2,-11.2L-72.0,-11.7L-71.3,-11.9L-71.4,-11.6L-71.9,-11.5L-71.6,-11.0L-71.6,-10.5L-72.1,-9.9L-71.7,-9.1L-71.3,-9.2L-71.0,-9.9L-71.4,-10.3L-71.4,-11.0L-70.2,-11.5L-70.3,-11.9L-69.9,-12.3L-69.6,-11.5L-68.9,-11.5L-68.2,-11.0L-68.2,-10.6L-67.3,-10.6L-66.2,-10.7L-65.7,-10.3L-64.9,-10.1L-64.3,-10.4L-64.3,-10.7L-63.1,-10.8L-61.9,-10.8L-62.7,-10.5L-62.4,-10.0L-61.6,-9.9L-60.8,-9.4L-60.7,-8.6L-60.2,-8.6L-59.8,-8.4L-60.6,-7.8L-60.6,-7.4L-60.3,-7.1L-60.5,-6.9L-61.2,-6.7L-61.1,-6.2L-61.4,-6.0L-60.7,-5.2Z" fill="#1e1e2e" stroke="#2a2a3a" stroke-width="0.3"/>
  <path d="M-75.4,0.2L-75.2,0.9L-75.5,1.6L-76.6,2.6L-77.8,3.0L-78.5,3.9L-78.6,4.6L-79.2,5.0L-79.6,4.5L-80.0,4.4L-80.4,4.4L-80.5,4.1L-80.2,3.8L-80.3,3.4L-79.8,2.7L-80.0,2.2L-80.4,2.7L-81.0,2.2L-80.8,2.0L-80.9,1.1L-80.6,0.9L-80.4,0.3L-80.0,-0.4L-80.1,-0.8L-79.5,-1.0L-78.9,-1.4L-77.9,-0.8L-77.7,-0.8L-77.4,-0.4L-76.6,-0.3L-76.3,-0.4L-75.8,-0.1L-75.4,0.2Z" fill="#1e1e2e" stroke="#2a2a3a" stroke-width="0.3"/>
  <path d="M-66.3,-18.8L-65.8,-18.8L-65.6,-18.5L-65.8,-18.3L-66.6,-18.3L-67.2,-18.2L-67.2,-18.7L-67.1,-18.9L-66.3,-18.8Z" fill="#1e1e2e" stroke="#2a2a3a" stroke-width="0.3"/>
  <path d="M-77.6,-18.8L-76.9,-18.7L-76.4,-18.5L-76.2,-18.2L-76.9,-18.2L-77.2,-18.0L-77.8,-18.2L-78.3,-18.5L-78.2,-18.8L-77.8,-18.9L-77.6,-18.8Z" fill="#1e1e2e" stroke="#2a2a3a" stroke-width="0.3"/>
  <path d="M-82.3,-23.8L-81.4,-23.8L-80.6,-23.8L-79.7,-23.4L-79.3,-23.0L-78.3,-23.1L-78.0,-22.9L-77.1,-22.2L-76.5,-21.7L-76.2,-21.7L-75.6,-21.5L-75.7,-21.2L-74.9,-21.2L-74.2,-20.7L-74.3,-20.5L-75.0,-20.3L-75.6,-20.3L-76.3,-20.4L-77.8,-20.3L-77.1,-20.9L-77.5,-21.1L-78.1,-21.2L-78.5,-21.5L-78.7,-22.1L-79.3,-22.1L-80.2,-22.4L-80.5,-22.6L-81.8,-22.8L-82.2,-23.0L-81.8,-23.2L-82.8,-23.3L-83.5,-22.7L-83.9,-22.7L-84.1,-22.5L-84.5,-22.3L-85.0,-22.4L-84.4,-22.8L-84.2,-23.2L-83.8,-23.4L-83.3,-23.6L-82.5,-23.7L-82.3,-23.8Z" fill="#1e1e2e" stroke="#2a2a3a" stroke-width="0.3"/>
  <path d="M-77.4,-8.7L-77.5,-8.6L-77.2,-8.0L-77.4,-7.7L-77.8,-7.7L-77.9,-7.2L-78.2,-7.5L-78.4,-8.1L-78.2,-8.3L-78.4,-8.4L-78.6,-8.8L-79.1,-9.0L-79.6,-9.0L-79.8,-8.6L-80.2,-8.4L-80.4,-8.3L-80.5,-8.1L-80.0,-7.6L-80.3,-7.4L-80.4,-7.3L-80.9,-7.2L-81.1,-7.8L-81.2,-7.7L-81.5,-7.7L-81.7,-8.1L-82.1,-8.2L-82.4,-8.3L-82.8,-8.3L-82.9,-8.1L-83.0,-8.3L-82.9,-8.5L-82.8,-8.7L-82.9,-8.8L-82.7,-9.0L-82.9,-9.1L-82.9,-9.5L-82.5,-9.6L-82.2,-9.2L-82.2,-9.0L-81.8,-9.0L-81.7,-9.1L-81.4,-8.8L-80.9,-8.9L-80.5,-9.1L-79.9,-9.4L-79.6,-9.7L-79.0,-9.6L-79.1,-9.5L-78.5,-9.5L-78.1,-9.3L-77.7,-9.0L-77.4,-8.7Z" fill="#00e5ff" stroke="#00c4dd" stroke-width="0.4" fill-opacity="0.9"/>
</svg>