<svg xmlns="http://www.w3.org/2000/svg" viewBox="139.00 0.50 19.02 12.15" width="300" height="300" preserveAspectRatio="xMidYMid meet">
  <path d="M141.00,2.60L142.74,3.29L144.58,3.86L145.27,4.37L145.83,4.88L145.98,5.47L147.65,6.08L147.89,6.61L146.97,6.72L147.19,7.39L148.08,8.04L148.73,9.10L149.31,9.07L149.27,9.51L150.04,9.68L149.74,9.87L150.80,10.29L150.69,10.58L150.03,10.65L149.78,10.39L148.92,10.28L147.91,10.13L147.14,9.49L146.57,8.94L146.05,8.07L144.74,7.63L143.90,7.92L143.29,8.25L143.41,8.98L142.63,9.33L142.07,9.16L141.03,9.12L141.02,5.86L141.00,2.60ZM152.64,3.66L153.02,3.98L153.14,4.50L152.83,4.77L152.64,4.18L152.41,3.79L151.95,3.46L151.38,3.04L150.66,2.74L150.94,2.50L151.48,2.78L151.82,3.00L152.24,3.24L152.64,3.66ZM151.30,5.84L150.75,6.08L150.24,6.32L149.71,6.32L148.89,6.03L148.32,5.75L148.40,5.44L149.30,5.58L149.85,5.51L150.00,5.03L150.14,5.00L150.24,5.53L150.81,5.46L151.09,5.11L151.65,4.76L151.54,4.17L152.14,4.15L152.34,4.31L152.32,4.87L151.98,5.48L151.46,5.56L151.30,5.84ZM154.76,5.34L155.06,5.57L155.55,6.20L156.02,6.54L155.88,6.82L155.60,6.92L155.17,6.54L154.73,5.90L154.51,5.14L154.65,5.04L154.76,5.34Z" fill="#00e5ff" stroke="#00e5ff" stroke-width="0.5" fill-opacity="0.8"/>
</svg>