<svg xmlns="http://www.w3.org/2000/svg" viewBox="-77.7 4.7 38.4 39.0" width="400" height="300" preserveAspectRatio="xMidYMid meet">
  <rect x="-77.7" y="4.7" width="38.4" height="39.0" fill="#0e0e18"/>
  <path d="M180.0,16.3L180.0,16.8L179.4,17.0L178.7,17.3L178.6,16.9L179.1,16.7L179.4,16.6L180.0,16.3ZM178.1,17.8L178.4,17.6L178.7,17.9L178.6,18.5L177.9,18.6L177.4,18.5L177.3,18.0L177.7,17.7L178.1,17.8ZM-179.8,16.2L-179.9,16.7L-180.0,16.8L-180.0,16.3L-179.8,16.2Z" fill="#1e1e2e" stroke="#2a2a3a" stroke-width="0.3"/>
  <path d="M-68.6,62.1L-68.3,62.9L-67.8,64.2L-66.5,65.2L-65.0,65.6L-65.5,66.5L-66.5,66.6L-67.0,66.0L-67.6,65.9L-68.6,65.9L-68.6,62.1ZM-57.6,31.7L-57.9,32.7L-58.1,33.9L-58.1,35.0L-58.3,35.3L-58.4,36.1L-58.5,36.7L-57.2,37.8L-57.4,38.6L-56.7,39.1L-56.8,39.8L-57.7,41.4L-59.2,42.1L-61.2,42.3L-62.3,42.2L-62.1,43.0L-62.3,43.9L-62.1,44.6L-62.7,45.1L-63.8,45.2L-64.7,44.8L-65.1,45.1L-65.0,46.4L-64.3,46.8L-63.8,46.4L-63.5,47.1L-64.4,47.5L-65.2,48.4L-65.3,49.8L-65.6,50.6L-66.5,50.6L-67.3,51.3L-67.6,52.4L-66.6,53.4L-65.6,53.7L-66.0,55.1L-67.2,55.9L-67.8,57.7L-68.7,58.3L-69.1,59.1L-68.8,60.7L-68.1,61.7L-68.6,61.6L-69.5,61.3L-71.9,61.1L-72.3,60.2L-72.3,59.0L-73.0,59.1L-73.3,58.5L-73.4,56.9L-72.6,56.2L-72.3,55.2L-72.4,54.5L-71.9,53.2L-71.6,51.3L-71.7,50.5L-71.2,50.2L-71.3,49.7L-71.8,49.4L-71.5,48.8L-71.9,48.3L-72.1,46.7L-71.7,46.4L-71.9,44.8L-71.7,43.5L-71.4,42.3L-70.8,41.8L-71.1,40.6L-71.1,39.5L-70.4,38.6L-70.4,37.6L-69.8,36.4L-69.8,35.3L-70.1,35.1L-70.5,33.1L-69.9,31.9L-70.0,30.7L-69.7,29.7L-69.0,28.6L-68.3,27.9L-68.6,27.5L-68.4,27.1L-68.4,25.3L-67.3,24.8L-67.0,23.6L-67.1,23.4L-66.3,22.4L-65.0,22.6L-64.4,23.4L-64.0,22.6L-62.8,22.6L-62.7,22.8L-60.8,24.6L-60.0,24.8L-58.8,25.6L-57.8,26.0L-57.6,26.5L-58.6,28.2L-57.6,28.5L-56.5,28.7L-55.7,28.5L-54.8,27.6L-54.6,26.7L-54.1,26.4L-53.6,27.1L-53.6,28.0L-54.5,28.6L-55.2,29.1L-56.3,30.2L-57.6,31.7Z" fill="#1e1e2e" stroke="#2a2a3a" stroke-width="0.3"/>
  <path d="M-68.6,62.1L-68.6,65.9L-67.6,65.9L-67.0,66.0L-67.3,66.7L-68.1,67.2L-68.6,67.2L-69.2,67.0L-70.0,66.5L-71.0,66.2L-72.3,65.3L-73.3,64.3L-74.7,62.5L-73.8,62.8L-72.4,63.9L-71.1,64.5L-70.6,63.8L-70.3,62.6L-69.3,61.9L-68.6,62.1ZM-69.6,17.9L-69.1,18.6L-69.0,19.3L-68.4,19.8L-68.8,20.8L-68.2,22.0L-67.8,23.5L-67.1,23.4L-67.0,23.6L-67.3,24.8L-68.4,25.3L-68.4,27.1L-68.6,27.5L-68.3,27.9L-69.0,28.6L-69.7,29.7L-70.0,30.7L-69.9,31.9L-70.5,33.1L-70.1,35.1L-69.8,35.3L-69.8,36.4L-70.4,37.6L-70.4,38.6L-71.1,39.5L-71.1,40.6L-70.8,41.8L-71.4,42.3L-71.7,43.5L-71.9,44.8L-71.7,46.4L-72.1,46.7L-71.9,48.3L-71.5,48.8L-71.8,49.4L-71.3,49.7L-71.2,50.2L-71.7,50.5L-71.6,51.3L-71.9,53.2L-72.4,54.5L-72.3,55.2L-72.6,56.2L-73.4,56.9L-73.3,58.5L-73.0,59.1L-72.3,59.0L-72.3,60.2L-71.9,61.1L-69.5,61.3L-68.6,61.6L-69.5,61.6L-69.9,62.0L-70.8,62.6L-71.0,64.1L-71.4,64.2L-72.6,63.6L-73.7,62.5L-73.7,62.5L-74.9,61.5L-75.3,60.5L-75.0,59.5L-75.5,58.5L-75.6,55.9L-75.2,54.4L-74.1,53.3L-75.6,52.9L-74.7,51.6L-74.4,49.2L-73.2,49.7L-72.7,46.9L-73.4,46.5L-73.7,48.2L-74.3,48.0L-74.0,46.1L-73.7,43.6L-73.2,42.7L-73.5,41.5L-73.6,40.1L-73.2,40.0L-72.6,38.0L-71.9,36.1L-71.4,34.3L-71.7,32.5L-71.4,31.6L-71.5,30.2L-70.9,28.8L-70.7,26.6L-70.4,24.3L-70.1,21.9L-70.2,20.2L-70.4,18.7L-69.9,18.4L-69.6,17.9Z" fill="#1e1e2e" stroke="#2a2a3a" stroke-width="0.3"/>
  <path d="M-57.6,31.7L-57.0,31.6L-56.0,32.5L-55.6,32.5L-54.6,33.2L-53.8,33.9L-53.2,34.7L-53.7,35.2L-53.4,35.9L-53.8,36.7L-54.9,37.3L-55.7,37.1L-56.2,37.2L-57.1,36.7L-57.8,36.8L-58.4,36.1L-58.3,35.3L-58.1,35.0L-58.1,33.9L-57.9,32.7L-57.6,31.7Z" fill="#1e1e2e" stroke="#2a2a3a" stroke-width="0.3"/>
  <path d="M-53.4,35.9L-53.7,35.2L-53.2,34.7L-53.8,33.9L-54.6,33.2L-55.6,32.5L-56.0,32.5L-57.0,31.6L-57.6,31.7L-56.3,30.2L-55.2,29.1L-54.5,28.6L-53.6,28.0L-53.6,27.1L-54.1,26.4L-54.6,26.7L-54.4,26.0L-54.3,25.4L-54.3,24.8L-54.7,24.6L-55.0,24.7L-55.4,24.7L-55.5,24.3L-55.6,23.3L-55.8,22.9L-56.5,22.7L-56.9,22.9L-57.9,22.7L-57.9,21.2L-58.2,20.6L-57.9,20.4L-57.9,19.8L-57.7,19.3L-57.5,18.5L-57.7,17.8L-58.3,17.5L-58.4,17.1L-58.2,16.5L-60.2,16.5L-60.5,15.3L-60.3,15.3L-60.3,14.8L-60.5,14.5L-60.5,13.9L-61.1,13.6L-61.7,13.6L-62.1,13.3L-62.8,13.1L-63.2,12.7L-64.3,12.6L-65.4,11.6L-65.3,11.0L-65.4,10.6L-65.3,9.8L-66.6,10.0L-67.2,10.4L-68.0,10.8L-68.3,11.1L-68.8,11.1L-69.5,11.0L-70.1,11.2L-70.5,11.1L-70.5,9.5L-71.3,10.1L-72.2,10.1L-72.6,9.6L-73.2,9.5L-73.0,9.1L-73.6,8.5L-74.0,7.5L-73.7,7.4L-73.7,6.9L-73.1,6.6L-73.2,6.1L-73.0,5.8L-72.9,5.3L-71.7,4.6L-70.9,4.4L-70.8,4.3L-69.9,4.3L-69.4,1.6L-69.4,1.1L-69.6,0.6L-70.0,0.2L-70.0,-0.5L-69.5,-0.7L-69.3,-0.6L-69.2,-1.0L-69.8,-1.1L-69.8,-1.7L-67.9,-1.7L-67.5,-2.0L-67.3,-1.7L-67.1,-1.1L-66.9,-1.3L-66.3,-0.7L-65.5,-0.8L-65.4,-1.1L-64.6,-1.3L-64.2,-1.5L-64.1,-1.9L-63.4,-2.2L-63.4,-2.4L-64.3,-2.5L-64.4,-3.1L-64.4,-3.8L-64.8,-4.1L-64.6,-4.2L-63.9,-4.0L-63.1,-3.8L-62.8,-4.0L-62.1,-4.2L-61.0,-4.5L-60.6,-4.9L-60.7,-5.2L-60.2,-5.3L-60.0,-5.0L-60.1,-4.6L-59.8,-4.4L-59.5,-4.0L-59.8,-3.6L-60.0,-2.8L-59.7,-2.3L-59.6,-1.8L-59.0,-1.3L-58.5,-1.3L-58.4,-1.5L-58.1,-1.5L-57.7,-1.7L-57.3,-1.9L-56.8,-1.9L-56.5,-1.9L-56.0,-1.8L-55.9,-2.0L-56.1,-2.2L-56.0,-2.5L-55.6,-2.4L-55.1,-2.5L-54.5,-2.3L-54.1,-2.1L-53.8,-2.4L-53.6,-2.3L-53.4,-2.1L-52.9,-2.1L-52.6,-2.5L-52.2,-3.2L-51.7,-4.2L-51.3,-4.2L-51.1,-3.7L-50.5,-1.9L-50.0,-1.7L-49.9,-1.0L-50.7,-0.2L-50.4,0.1L-48.6,0.2L-48.6,1.2L-47.8,0.6L-46.6,0.9L-44.9,1.6L-44.4,2.1L-44.6,2.7L-43.4,2.4L-41.5,2.9L-40.0,2.9L-38.5,3.7L-37.2,4.8L-36.5,5.1L-35.6,5.2L-35.2,5.5L-34.9,6.8L-34.7,7.4L-35.1,9.0L-35.6,9.7L-37.0,11.1L-37.7,12.3L-38.4,13.2L-38.7,13.2L-39.0,13.9L-38.9,15.9L-39.2,17.5L-39.3,18.2L-39.6,18.6L-39.8,20.0L-40.8,21.4L-40.9,22.5L-41.8,23.0L-42.0,23.6L-43.1,23.6L-44.6,24.0L-45.4,24.5L-46.5,24.8L-47.6,25.7L-48.5,26.8L-48.6,27.6L-48.5,28.3L-48.7,29.4L-48.9,30.0L-49.6,30.6L-50.7,32.6L-51.6,33.5L-52.3,34.1L-52.7,35.2L-53.4,35.9Z" fill="#1e1e2e" stroke="#2a2a3a" stroke-width="0.3"/>
  <path d="M-69.5,11.0L-68.8,11.1L-68.3,11.1L-68.0,10.8L-67.2,10.4L-66.6,10.0L-65.3,9.8L-65.4,10.6L-65.3,11.0L-65.4,11.6L-64.3,12.6L-63.2,12.7L-62.8,13.1L-62.1,13.3L-61.7,13.6L-61.1,13.6L-60.5,13.9L-60.5,14.5L-60.3,14.8L-60.3,15.3L-60.5,15.3L-60.2,16.5L-58.2,16.5L-58.4,17.1L-58.3,17.5L-57.7,17.8L-57.5,18.5L-57.7,19.3L-57.9,19.8L-57.9,20.4L-58.2,20.6L-58.2,20.3L-59.1,19.7L-60.0,19.7L-61.8,20.0L-62.3,21.0L-62.3,21.5L-62.7,22.8L-62.8,22.6L-64.0,22.6L-64.4,23.4L-65.0,22.6L-66.3,22.4L-67.1,23.4L-67.8,23.5L-68.2,22.0L-68.8,20.8L-68.4,19.8L-69.0,19.3L-69.1,18.6L-69.6,17.9L-69.0,16.7L-69.4,15.9L-69.2,15.5L-69.3,15.1L-68.9,14.6L-68.9,13.7L-68.9,13.0L-68.7,12.7L-69.5,11.0Z" fill="#1e1e2e" stroke="#2a2a3a" stroke-width="0.3"/>
  <path d="M-69.9,4.3L-70.8,4.3L-70.9,4.4L-71.7,4.6L-72.9,5.3L-73.0,5.8L-73.2,6.1L-73.1,6.6L-73.7,6.9L-73.7,7.4L-74.0,7.5L-73.6,8.5L-73.0,9.1L-73.2,9.5L-72.6,9.6L-72.2,10.1L-71.3,10.1L-70.5,9.5L-70.5,11.1L-70.1,11.2L-69.5,11.0L-68.7,12.7L-68.9,13.0L-68.9,13.7L-68.9,14.6L-69.3,15.1L-69.2,15.5L-69.4,15.9L-69.0,16.7L-69.6,17.9L-69.9,18.4L-70.4,18.7L-71.4,18.1L-71.5,17.6L-73.4,16.6L-75.2,15.4L-76.0,14.8L-76.4,14.0L-76.3,13.7L-77.1,12.3L-78.1,10.4L-79.0,8.4L-79.4,8.0L-79.8,7.2L-80.5,6.6L-81.2,6.1L-80.9,5.7L-81.4,4.7L-81.1,4.0L-80.3,3.4L-80.2,3.8L-80.5,4.1L-80.4,4.4L-80.0,4.4L-79.6,4.5L-79.2,5.0L-78.6,4.6L-78.5,3.9L-77.8,3.0L-76.6,2.6L-75.5,1.6L-75.2,0.9L-75.4,0.2L-75.1,0.1L-74.4,0.5L-74.1,1.0L-73.7,1.3L-73.1,2.3L-72.3,2.4L-71.8,2.2L-71.4,2.3L-70.8,2.3L-70.0,2.7L-70.7,3.7L-70.4,3.8L-69.9,4.3Z" fill="#1e1e2e" stroke="#2a2a3a" stroke-width="0.3"/>
  <path d="M-75.4,0.2L-75.2,0.9L-75.5,1.6L-76.6,2.6L-77.8,3.0L-78.5,3.9L-78.6,4.6L-79.2,5.0L-79.6,4.5L-80.0,4.4L-80.4,4.4L-80.5,4.1L-80.2,3.8L-80.3,3.4L-79.8,2.7L-80.0,2.2L-80.4,2.7L-81.0,2.2L-80.8,2.0L-80.9,1.1L-80.6,0.9L-80.4,0.3L-80.0,-0.4L-80.1,-0.8L-79.5,-1.0L-78.9,-1.4L-77.9,-0.8L-77.7,-0.8L-77.4,-0.4L-76.6,-0.3L-76.3,-0.4L-75.8,-0.1L-75.4,0.2Z" fill="#1e1e2e" stroke="#2a2a3a" stroke-width="0.3"/>
  <path d="M-58.2,20.6L-57.9,21.2L-57.9,22.7L-56.9,22.9L-56.5,22.7L-55.8,22.9L-55.6,23.3L-55.5,24.3L-55.4,24.7L-55.0,24.7L-54.7,24.6L-54.3,24.8L-54.3,25.4L-54.4,26.0L-54.6,26.7L-54.8,27.6L-55.7,28.5L-56.5,28.7L-57.6,28.5L-58.6,28.2L-57.6,26.5L-57.8,26.0L-58.8,25.6L-60.0,24.8L-60.8,24.6L-62.7,22.8L-62.3,21.5L-62.3,21.0L-61.8,20.0L-60.0,19.7L-59.1,19.7L-58.2,20.3L-58.2,20.6Z" fill="#00e5ff" stroke="#00c4dd" stroke-width="0.4" fill-opacity="0.9"/>
</svg>