<svg xmlns="http://www.w3.org/2000/svg" viewBox="-64.69 17.34 12.40 12.21" width="300" height="300" preserveAspectRatio="xMidYMid meet">
  <path d="M-58.17,20.18L-57.87,20.73L-57.94,22.09L-56.88,22.28L-56.47,22.09L-55.80,22.36L-55.61,22.66L-55.52,23.57L-55.40,23.96L-55.03,24.00L-54.65,23.84L-54.29,24.02L-54.29,24.57L-54.43,25.16L-54.63,25.74L-54.79,26.62L-55.70,27.39L-56.49,27.55L-57.61,27.40L-58.62,27.12L-57.63,25.60L-57.78,25.16L-58.81,24.77L-60.03,24.03L-60.85,23.88L-62.69,22.25L-62.29,21.05L-62.27,20.51L-61.79,19.63L-60.04,19.34L-59.12,19.36L-58.18,19.87L-58.17,20.18Z" fill="#00e5ff" stroke="#00e5ff" stroke-width="0.5" fill-opacity="0.8"/>
</svg>