<svg xmlns="http://www.w3.org/2000/svg" viewBox="-83.41 -1.94 16.74 22.29" width="300" height="300" preserveAspectRatio="xMidYMid meet">
  <path d="M-69.89,4.30L-70.79,4.25L-70.93,4.40L-71.75,4.59L-72.89,5.27L-72.96,5.74L-73.22,6.09L-73.12,6.63L-73.72,6.92L-73.72,7.34L-73.99,7.52L-73.57,8.42L-73.02,9.03L-73.23,9.46L-72.56,9.52L-72.18,10.05L-71.30,10.08L-70.48,9.49L-70.55,11.01L-70.09,11.12L-69.53,10.95L-68.67,12.56L-68.88,12.90L-68.93,13.60L-68.95,14.45L-69.34,14.95L-69.16,15.32L-69.39,15.66L-68.96,16.50L-69.59,17.58L-69.86,18.09L-70.37,18.35L-71.38,17.77L-71.46,17.36L-73.44,16.36L-75.24,15.27L-76.01,14.65L-76.42,13.82L-76.26,13.54L-77.11,12.22L-78.09,10.38L-79.04,8.39L-79.45,7.93L-79.76,7.19L-80.54,6.54L-81.25,6.14L-80.93,5.69L-81.41,4.74L-81.10,4.04L-80.30,3.40L-80.18,3.82L-80.47,4.06L-80.44,4.43L-80.03,4.35L-79.62,4.45L-79.21,4.96L-78.64,4.55L-78.45,3.87L-77.84,3.00L-76.64,2.61L-75.54,1.56L-75.23,0.91L-75.37,0.15L-75.11,0.06L-74.44,0.53L-74.12,1.00L-73.66,1.26L-73.07,2.31L-72.33,2.43L-71.77,2.17L-71.41,2.34L-70.81,2.26L-70.05,2.73L-70.69,3.74L-70.39,3.77L-69.89,4.30Z" fill="#00e5ff" stroke="#00e5ff" stroke-width="0.5" fill-opacity="0.8"/>
</svg>