<svg xmlns="http://www.w3.org/2000/svg" viewBox="115.17 -20.51 13.37 16.93" width="300" height="300" preserveAspectRatio="xMidYMid meet">
  <path d="M120.83,-12.70L120.32,-13.47L121.18,-13.43L121.53,-13.07L121.26,-12.21L120.83,-12.70ZM122.59,-9.98L122.84,-10.26L122.95,-10.88L123.50,-10.94L123.34,-10.27L124.08,-11.23L123.98,-10.28L123.62,-9.95L123.31,-9.32L123.00,-9.02L122.38,-9.71L122.59,-9.98ZM126.38,-8.41L126.48,-7.75L126.54,-7.19L126.20,-6.27L125.83,-7.29L125.36,-6.79L125.68,-6.05L125.40,-5.58L124.22,-6.16L123.94,-6.89L124.24,-7.36L123.61,-7.83L123.30,-7.42L122.83,-7.46L122.09,-6.90L121.92,-7.19L122.31,-8.03L122.94,-8.32L123.49,-8.69L123.84,-8.24L124.60,-8.51L124.76,-8.96L125.47,-8.99L125.41,-9.76L126.22,-9.29L126.31,-8.78L126.38,-8.41ZM118.50,-9.32L117.17,-8.37L117.66,-9.07L118.39,-9.68L118.99,-10.38L119.51,-11.37L119.69,-10.55L119.03,-10.00L118.50,-9.32ZM122.34,-18.22L122.17,-17.81L122.52,-17.09L122.25,-16.26L121.66,-15.93L121.51,-15.12L121.73,-14.33L122.26,-14.22L122.70,-14.34L123.95,-13.78L123.86,-13.24L124.18,-13.00L124.08,-12.54L123.30,-13.03L122.93,-13.55L122.67,-13.19L122.03,-13.78L121.13,-13.64L120.63,-13.86L120.68,-14.27L120.99,-14.53L120.69,-14.76L120.56,-14.40L120.07,-14.97L119.92,-15.41L119.88,-16.36L120.29,-16.03L120.39,-17.60L120.72,-18.51L121.32,-18.50L121.94,-18.22L122.25,-18.48L122.34,-18.22ZM122.04,-11.42L121.88,-11.89L122.48,-11.58L123.12,-11.58L123.10,-11.17L122.64,-10.74L122.00,-10.44L121.97,-10.91L122.04,-11.42ZM125.50,-12.16L125.78,-11.05L125.01,-11.31L125.03,-10.98L125.28,-10.36L124.80,-10.13L124.76,-10.84L124.46,-10.89L124.30,-11.50L124.89,-11.42L124.88,-11.79L124.27,-12.56L125.23,-12.54L125.50,-12.16Z" fill="#00e5ff" stroke="#00e5ff" stroke-width="0.5" fill-opacity="0.8"/>
</svg>