<svg xmlns="http://www.w3.org/2000/svg" viewBox="102.2 -33.8 39.4 43.2" width="400" height="300" preserveAspectRatio="xMidYMid meet">
  <rect x="102.2" y="-33.8" width="39.4" height="43.2" fill="#0e0e18"/>
  <path d="M141.0,2.6L142.7,3.3L144.6,3.9L145.3,4.4L145.8,4.9L146.0,5.5L147.6,6.1L147.9,6.6L147.0,6.7L147.2,7.4L148.1,8.1L148.7,9.1L149.3,9.1L149.3,9.6L150.0,9.7L149.7,9.9L150.8,10.3L150.7,10.6L150.0,10.7L149.8,10.5L148.9,10.3L147.9,10.2L147.1,9.5L146.6,9.0L146.0,8.1L144.7,7.7L143.9,7.9L143.3,8.3L143.4,9.0L142.6,9.4L142.1,9.2L141.0,9.2L141.0,5.9L141.0,2.6ZM152.6,3.7L153.0,4.0L153.1,4.5L152.8,4.8L152.6,4.2L152.4,3.8L152.0,3.5L151.4,3.0L150.7,2.7L150.9,2.5L151.5,2.8L151.8,3.0L152.2,3.2L152.6,3.7ZM151.3,5.9L150.8,6.1L150.2,6.3L149.7,6.3L148.9,6.0L148.3,5.8L148.4,5.4L149.3,5.6L149.8,5.5L150.0,5.0L150.1,5.0L150.2,5.5L150.8,5.5L151.1,5.1L151.6,4.8L151.5,4.2L152.1,4.2L152.3,4.3L152.3,4.9L152.0,5.5L151.5,5.6L151.3,5.9ZM154.8,5.3L155.1,5.6L155.5,6.2L156.0,6.6L155.9,6.8L155.6,6.9L155.2,6.6L154.7,5.9L154.5,5.1L154.7,5.0L154.8,5.3Z" fill="#1e1e2e" stroke="#2a2a3a" stroke-width="0.3"/>
  <path d="M141.0,2.6L141.0,5.9L141.0,9.2L140.1,8.3L139.1,8.1L138.9,8.4L137.6,8.4L138.0,7.6L138.7,7.3L138.4,6.2L137.9,5.4L136.0,4.6L135.2,4.5L133.7,3.5L133.4,4.0L133.0,4.1L132.8,3.7L132.8,3.3L132.0,2.8L133.1,2.5L133.8,2.5L133.7,2.2L132.2,2.2L131.8,1.6L130.9,1.4L130.5,0.9L131.9,0.7L132.4,0.4L134.0,0.8L134.1,1.2L134.4,2.8L135.5,3.4L136.3,2.3L137.4,1.7L138.3,1.7L139.2,2.1L139.9,2.4L141.0,2.6ZM125.0,8.9L125.1,9.1L125.1,9.4L124.4,10.2L123.6,10.4L123.5,10.3L123.6,9.9L124.0,9.3L125.0,8.9ZM134.2,6.9L134.1,6.2L134.3,5.8L134.5,5.5L134.7,5.7L134.7,6.2L134.2,6.9ZM117.9,-4.1L117.3,-3.2L118.0,-2.3L117.9,-1.8L119.0,-0.9L117.8,-0.8L117.5,-0.1L117.5,0.8L116.6,1.5L116.5,2.5L116.1,4.0L116.0,3.7L114.9,4.1L114.5,3.5L113.8,3.4L113.3,3.1L112.1,3.5L111.7,3.0L111.0,3.1L110.2,2.9L110.1,1.6L109.6,1.3L109.1,0.5L109.0,-0.4L109.1,-1.3L109.7,-2.0L109.8,-1.3L110.5,-0.8L111.2,-1.0L111.8,-0.9L112.4,-1.4L112.9,-1.5L113.8,-1.2L114.6,-1.4L115.1,-2.8L115.5,-3.2L115.9,-4.3L117.0,-4.3L117.9,-4.1ZM129.4,2.8L130.5,3.1L130.8,3.9L130.0,3.4L129.2,3.4L128.6,3.4L127.9,3.4L128.1,2.8L129.4,2.8ZM126.9,3.8L126.2,3.6L126.0,3.2L127.0,3.1L127.2,3.5L126.9,3.8ZM127.9,-2.2L128.0,-1.6L128.6,-1.5L128.7,-1.1L128.6,-0.3L128.1,-0.4L128.0,0.3L128.4,0.8L128.1,0.9L127.7,0.3L127.4,-1.0L127.6,-1.8L127.9,-2.2ZM122.9,-0.9L124.1,-0.9L125.1,-1.6L125.2,-1.4L124.4,-0.4L123.7,-0.2L122.7,-0.4L121.1,-0.4L120.2,-0.2L120.0,0.5L120.9,1.4L121.5,1.0L123.3,0.6L123.3,1.1L122.8,0.9L122.4,1.5L121.5,1.9L122.5,3.2L122.3,3.5L123.2,4.7L123.2,5.3L122.6,5.6L122.2,5.3L122.7,4.5L121.7,4.9L121.5,4.6L121.6,4.2L120.9,3.6L121.0,2.6L120.3,2.9L120.4,4.1L120.4,5.5L119.8,5.7L119.4,5.4L119.7,4.5L119.5,3.5L119.1,3.5L118.8,2.8L119.2,2.1L119.3,1.4L119.8,-0.2L120.0,-0.6L120.9,-1.3L121.7,-1.0L122.9,-0.9ZM120.3,10.3L119.0,9.6L119.9,9.4L120.4,9.7L120.8,10.0L120.7,10.3L120.3,10.3ZM121.3,8.6L122.0,8.5L122.9,8.1L122.8,8.7L121.3,9.0L119.9,8.8L119.9,8.5L120.7,8.3L121.3,8.6ZM118.3,8.4L118.9,8.3L119.1,8.7L118.0,8.9L117.3,9.1L116.7,9.1L117.1,8.5L117.6,8.5L117.9,8.1L118.3,8.4ZM108.5,6.4L108.6,6.8L110.5,6.9L110.8,6.5L112.6,7.0L113.0,7.6L114.5,7.8L115.7,8.4L114.6,8.8L113.5,8.4L112.6,8.4L111.5,8.3L110.6,8.1L109.4,7.8L108.7,7.7L108.3,7.8L106.5,7.4L106.3,6.9L105.4,6.9L106.1,5.9L107.3,6.0L108.1,6.4L108.5,6.4ZM104.4,1.1L104.5,1.8L104.9,2.3L105.6,2.4L106.1,3.1L105.9,4.3L105.8,5.9L104.7,5.9L103.9,5.0L102.6,4.2L102.2,3.6L101.4,2.8L100.9,2.1L100.1,0.7L99.3,-0.2L99.0,-1.0L98.6,-1.8L97.7,-2.5L97.2,-3.3L96.4,-3.9L95.4,-5.0L95.3,-5.5L95.9,-5.4L97.5,-5.3L98.4,-4.3L99.1,-3.6L99.7,-3.2L100.6,-2.1L101.7,-2.1L102.5,-1.4L103.1,-0.6L103.8,-0.1L103.4,0.7L104.0,1.1L104.4,1.1Z" fill="#1e1e2e" stroke="#2a2a3a" stroke-width="0.3"/>
  <path d="M125.0,8.9L125.1,8.7L125.9,8.5L126.6,8.4L127.0,8.3L127.3,8.4L127.0,8.7L125.9,9.1L125.1,9.4L125.1,9.1L125.0,8.9Z" fill="#1e1e2e" stroke="#2a2a3a" stroke-width="0.3"/>
  <path d="M102.6,-12.3L102.3,-13.5L103.0,-14.4L104.3,-14.6L105.2,-14.4L106.0,-14.0L106.5,-14.7L107.4,-14.4L107.6,-13.7L107.5,-12.4L105.8,-11.6L106.2,-11.0L105.2,-11.0L104.3,-10.5L103.5,-10.7L103.1,-11.2L102.6,-12.3Z" fill="#1e1e2e" stroke="#2a2a3a" stroke-width="0.3"/>
  <path d="M105.2,-14.4L104.3,-14.6L103.0,-14.4L102.3,-13.5L102.6,-12.3L101.7,-12.7L100.8,-12.7L101.0,-13.5L100.1,-13.5L100.0,-12.4L99.5,-10.9L99.2,-10.0L99.2,-9.3L99.9,-9.2L100.3,-8.3L100.5,-7.5L101.0,-6.9L101.6,-6.8L102.1,-6.2L101.8,-5.8L101.2,-5.7L101.1,-6.2L100.3,-6.7L100.1,-6.5L99.7,-6.9L99.5,-7.4L99.0,-7.9L98.5,-8.4L98.3,-7.8L98.2,-8.4L98.3,-9.0L98.6,-10.0L99.0,-11.0L99.6,-12.0L99.2,-12.9L99.2,-13.4L99.1,-14.0L98.4,-14.8L98.2,-15.3L98.5,-15.5L98.9,-16.4L98.5,-17.1L97.9,-17.8L97.4,-18.8L97.8,-19.0L98.3,-20.1L99.0,-20.2L99.5,-20.6L100.1,-20.9L100.5,-20.5L100.6,-19.9L101.3,-19.8L101.0,-18.7L101.1,-17.8L102.1,-18.4L102.4,-18.2L103.0,-18.3L103.2,-18.6L104.0,-18.6L104.7,-17.7L104.8,-16.7L105.6,-15.8L105.5,-14.9L105.2,-14.4Z" fill="#1e1e2e" stroke="#2a2a3a" stroke-width="0.3"/>
  <path d="M107.4,-14.4L106.5,-14.7L106.0,-14.0L105.2,-14.4L105.5,-14.9L105.6,-15.8L104.8,-16.7L104.7,-17.7L104.0,-18.6L103.2,-18.6L103.0,-18.3L102.4,-18.2L102.1,-18.4L101.1,-17.8L101.0,-18.7L101.3,-19.8L100.6,-19.9L100.5,-20.5L100.1,-20.9L100.3,-21.3L101.2,-22.0L101.3,-21.7L101.8,-21.7L101.7,-22.9L102.2,-23.1L102.8,-22.2L103.2,-21.2L104.4,-21.2L104.8,-20.3L104.2,-20.0L103.9,-19.6L105.1,-19.0L105.9,-17.8L106.6,-16.8L107.3,-16.1L107.6,-15.4L107.4,-14.4Z" fill="#1e1e2e" stroke="#2a2a3a" stroke-width="0.3"/>
  <path d="M104.3,-10.5L105.2,-11.0L106.2,-11.0L105.8,-11.6L107.5,-12.4L107.6,-13.7L107.4,-14.4L107.6,-15.4L107.3,-16.1L106.6,-16.8L105.9,-17.8L105.1,-19.0L103.9,-19.6L104.2,-20.0L104.8,-20.3L104.4,-21.2L103.2,-21.2L102.8,-22.2L102.2,-23.1L102.7,-23.3L103.5,-23.3L104.5,-23.4L105.3,-24.0L105.8,-23.6L106.7,-23.4L106.6,-22.8L107.0,-22.4L108.1,-22.1L106.7,-21.2L105.9,-20.2L105.7,-19.4L106.4,-18.3L107.4,-16.9L108.3,-16.3L108.9,-15.5L109.3,-13.6L109.2,-11.7L108.4,-11.1L107.2,-10.4L106.4,-9.6L105.2,-8.6L104.8,-9.3L105.1,-10.0L104.3,-10.5Z" fill="#1e1e2e" stroke="#2a2a3a" stroke-width="0.3"/>
  <path d="M109.5,-18.5L108.7,-18.8L108.6,-19.7L109.1,-20.2L110.2,-20.5L110.8,-20.5L111.0,-20.1L110.6,-19.6L110.3,-19.0L109.5,-18.5ZM80.3,-46.8L80.2,-47.6L80.9,-48.0L80.0,-50.4L81.9,-50.9L82.5,-51.3L83.2,-53.9L85.2,-53.4L85.7,-54.0L85.8,-55.5L86.6,-55.7L87.4,-56.7L87.8,-56.8L88.0,-55.8L88.9,-55.0L90.3,-54.4L91.0,-53.2L90.6,-51.5L90.9,-50.9L92.1,-50.7L93.5,-50.5L94.7,-49.6L95.3,-49.4L95.8,-48.2L96.3,-47.3L97.5,-47.4L99.5,-47.1L100.8,-47.3L101.8,-47.1L103.3,-46.2L104.5,-46.2L105.0,-45.8L106.1,-46.5L107.7,-47.0L109.2,-47.1L110.4,-47.5L111.1,-48.3L111.8,-48.7L111.7,-49.2L111.3,-49.7L111.9,-50.6L112.4,-50.5L113.5,-50.2L114.5,-51.0L116.0,-51.5L116.7,-52.5L117.4,-52.9L118.9,-53.1L119.7,-52.9L119.8,-53.4L118.9,-54.5L118.1,-55.0L117.3,-54.4L116.3,-54.6L115.7,-54.5L115.5,-55.1L116.2,-56.6L116.7,-57.7L117.9,-57.2L119.3,-58.1L119.3,-58.8L120.2,-60.5L120.7,-61.0L120.7,-61.9L120.2,-62.3L121.0,-63.1L122.2,-63.5L123.6,-63.5L125.1,-63.0L125.9,-62.4L126.6,-60.7L126.9,-60.0L127.3,-59.1L127.7,-57.5L129.4,-57.0L130.6,-56.0L131.0,-54.5L132.5,-54.5L133.4,-55.1L135.0,-55.6L134.5,-54.2L134.1,-53.7L133.8,-52.1L133.1,-50.7L131.9,-51.0L131.0,-50.5L131.3,-49.3L131.1,-47.6L130.6,-47.6L130.6,-46.9L130.0,-47.7L129.6,-46.9L128.1,-46.4L128.2,-45.6L127.3,-45.7L126.9,-46.1L126.2,-45.2L125.1,-44.5L124.3,-43.6L122.9,-43.2L122.1,-42.6L121.1,-42.3L121.6,-42.9L121.4,-43.4L122.2,-44.3L121.6,-45.0L120.8,-44.5L119.6,-43.6L119.0,-42.7L118.0,-42.7L117.5,-42.1L118.1,-41.2L118.9,-41.0L118.9,-40.4L119.7,-40.1L120.8,-41.0L121.7,-40.5L122.4,-40.4L122.5,-39.8L121.1,-39.4L120.6,-38.8L119.7,-38.2L119.2,-37.3L120.2,-36.6L120.6,-35.4L121.2,-34.4L121.9,-33.4L121.9,-32.6L121.3,-32.3L121.5,-31.6L122.1,-31.3L121.9,-30.3L121.7,-29.4L121.1,-29.3L120.4,-28.1L119.6,-26.7L118.7,-25.3L117.3,-24.3L115.9,-23.4L114.8,-23.3L114.2,-22.8L113.8,-23.2L113.2,-22.6L111.8,-22.1L110.8,-21.9L110.4,-20.8L109.9,-20.7L109.6,-21.5L109.9,-21.9L108.5,-22.3L108.1,-22.1L107.0,-22.4L106.6,-22.8L106.7,-23.4L105.8,-23.6L105.3,-24.0L104.5,-23.4L103.5,-23.3L102.7,-23.3L102.2,-23.1L101.7,-22.9L101.8,-21.7L101.3,-21.7L101.2,-22.0L101.2,-22.4L100.4,-22.1L100.0,-22.3L99.2,-22.7L99.5,-23.6L98.9,-23.8L98.7,-24.8L97.6,-24.6L97.7,-25.9L98.7,-26.9L98.7,-27.8L98.7,-28.6L98.2,-28.9L97.9,-29.6L97.3,-29.5L96.2,-29.7L96.6,-30.1L96.1,-30.8L95.4,-30.4L94.6,-30.6L93.4,-29.9L92.5,-29.1L91.7,-28.9L91.3,-29.2L90.7,-29.3L90.0,-29.5L89.5,-29.2L88.8,-28.4L88.7,-29.3L88.1,-29.0L87.0,-29.2L85.8,-29.4L85.0,-29.9L84.2,-30.1L83.9,-30.7L83.3,-30.9L82.3,-31.6L81.5,-32.0L81.1,-31.7L79.7,-32.5L78.7,-33.2L78.5,-34.5L79.2,-34.4L79.2,-35.0L78.8,-35.6L78.9,-36.6L77.8,-38.0L76.2,-38.5L75.9,-39.5L75.2,-40.0L75.0,-40.4L74.8,-41.1L74.9,-41.6L74.3,-41.9L73.9,-41.8L73.7,-43.0L74.0,-43.3L73.8,-43.6L74.8,-44.2L75.5,-44.4L76.5,-44.3L76.9,-45.1L78.2,-45.3L78.5,-45.8L80.1,-46.5L80.3,-46.8Z" fill="#1e1e2e" stroke="#2a2a3a" stroke-width="0.3"/>
  <path d="M121.8,-25.2L121.2,-23.4L120.7,-22.5L120.2,-23.4L120.1,-24.2L120.7,-25.3L121.5,-26.2L122.0,-25.8L121.8,-25.2Z" fill="#1e1e2e" stroke="#2a2a3a" stroke-width="0.3"/>
  <path d="M100.1,-6.5L100.3,-6.7L101.1,-6.2L101.2,-5.7L101.8,-5.8L102.1,-6.2L102.4,-6.1L103.0,-5.5L103.4,-4.9L103.4,-4.2L103.3,-3.7L103.4,-3.4L103.5,-2.8L103.9,-2.5L104.2,-1.6L104.2,-1.3L103.5,-1.2L102.6,-2.0L101.4,-2.8L101.3,-3.3L100.7,-3.9L100.6,-4.8L100.2,-5.3L100.3,-6.1L100.1,-6.5ZM117.9,-4.1L117.0,-4.3L115.9,-4.3L115.5,-3.2L115.1,-2.8L114.6,-1.4L113.8,-1.2L112.9,-1.5L112.4,-1.4L111.8,-0.9L111.2,-1.0L110.5,-0.8L109.8,-1.3L109.7,-2.0L110.4,-1.7L111.2,-1.9L111.4,-2.7L111.8,-2.9L113.0,-3.1L113.7,-3.9L114.2,-4.5L114.7,-4.0L114.9,-4.4L115.3,-4.3L115.4,-5.0L115.5,-5.5L116.2,-6.2L116.7,-6.9L117.1,-6.9L117.6,-6.4L117.7,-6.0L118.3,-5.7L119.2,-5.4L119.1,-5.0L118.4,-5.0L118.6,-4.5L117.9,-4.1Z" fill="#1e1e2e" stroke="#2a2a3a" stroke-width="0.3"/>
  <path d="M115.5,-5.5L115.4,-5.0L115.3,-4.3L114.9,-4.4L114.7,-4.0L114.2,-4.5L114.6,-4.9L115.5,-5.5Z" fill="#1e1e2e" stroke="#2a2a3a" stroke-width="0.3"/>
  <path d="M141.9,-42.6L141.0,-41.4L141.0,-40.1L140.6,-39.1L140.8,-38.4L140.3,-37.6L139.0,-37.0L137.2,-36.9L135.8,-35.5L135.1,-36.0L135.1,-36.9L133.3,-36.6L132.2,-36.1L131.0,-36.1L132.0,-35.2L131.3,-33.2L130.7,-32.7L130.2,-33.1L130.4,-34.2L129.8,-34.5L129.4,-35.3L130.4,-35.7L130.9,-36.5L131.9,-37.1L132.6,-37.9L134.6,-38.3L135.7,-38.1L136.7,-40.3L137.4,-39.7L138.9,-40.9L139.4,-41.4L140.1,-43.0L139.9,-44.4L140.3,-45.3L141.4,-45.5L141.9,-43.7L141.9,-42.6ZM144.6,-49.0L145.3,-49.6L145.5,-48.1L144.1,-47.7L143.2,-46.4L141.6,-47.3L141.1,-45.8L140.0,-45.8L139.8,-47.1L140.3,-48.2L141.4,-48.3L141.7,-50.2L142.0,-51.3L143.1,-49.8L143.9,-49.3L144.6,-49.0ZM132.4,-35.5L132.9,-36.3L133.5,-36.1L133.9,-36.6L134.6,-36.4L134.8,-36.0L134.2,-35.2L133.8,-35.6L133.3,-35.3L133.0,-34.6L132.4,-35.0L132.4,-35.5Z" fill="#1e1e2e" stroke="#2a2a3a" stroke-width="0.3"/>
  <path d="M120.8,-12.8L120.3,-13.6L121.2,-13.6L121.5,-13.2L121.3,-12.3L120.8,-12.8ZM122.6,-10.0L122.8,-10.3L122.9,-10.9L123.5,-11.0L123.3,-10.3L124.1,-11.3L124.0,-10.3L123.6,-10.0L123.3,-9.4L123.0,-9.1L122.4,-9.8L122.6,-10.0ZM126.4,-8.4L126.5,-7.8L126.5,-7.2L126.2,-6.3L125.8,-7.3L125.4,-6.8L125.7,-6.1L125.4,-5.6L124.2,-6.2L123.9,-6.9L124.2,-7.4L123.6,-7.9L123.3,-7.4L122.8,-7.5L122.1,-6.9L121.9,-7.2L122.3,-8.1L122.9,-8.3L123.5,-8.7L123.8,-8.3L124.6,-8.5L124.8,-9.0L125.5,-9.0L125.4,-9.8L126.2,-9.3L126.3,-8.8L126.4,-8.4ZM118.5,-9.4L117.2,-8.4L117.7,-9.1L118.4,-9.7L119.0,-10.4L119.5,-11.4L119.7,-10.6L119.0,-10.1L118.5,-9.4ZM122.3,-18.5L122.2,-18.1L122.5,-17.4L122.3,-16.5L121.7,-16.1L121.5,-15.3L121.7,-14.5L122.3,-14.4L122.7,-14.5L124.0,-13.9L123.9,-13.4L124.2,-13.1L124.1,-12.6L123.3,-13.1L122.9,-13.7L122.7,-13.3L122.0,-13.9L121.1,-13.8L120.6,-14.0L120.7,-14.4L121.0,-14.7L120.7,-14.9L120.6,-14.6L120.1,-15.1L119.9,-15.6L119.9,-16.6L120.3,-16.2L120.4,-17.9L120.7,-18.8L121.3,-18.8L121.9,-18.5L122.2,-18.8L122.3,-18.5ZM122.0,-11.5L121.9,-12.0L122.5,-11.7L123.1,-11.7L123.1,-11.2L122.6,-10.8L122.0,-10.5L122.0,-11.0L122.0,-11.5ZM125.5,-12.3L125.8,-11.1L125.0,-11.4L125.0,-11.0L125.3,-10.4L124.8,-10.2L124.8,-10.9L124.5,-11.0L124.3,-11.6L124.9,-11.5L124.9,-11.9L124.3,-12.7L125.2,-12.6L125.5,-12.3Z" fill="#00e5ff" stroke="#00c4dd" stroke-width="0.4" fill-opacity="0.9"/>
</svg>