<svg xmlns="http://www.w3.org/2000/svg" viewBox="12.07 -56.85 13.96 9.82" width="300" height="300" preserveAspectRatio="xMidYMid meet">
  <path d="M23.48,-53.91L23.53,-53.47L23.80,-53.09L23.80,-52.69L23.20,-52.49L23.51,-52.02L23.53,-51.58L24.03,-50.71L23.92,-50.42L23.43,-50.31L22.52,-49.48L22.78,-49.03L22.56,-49.09L21.61,-49.47L20.89,-49.33L20.42,-49.43L19.83,-49.22L19.32,-49.57L18.91,-49.44L18.85,-49.50L18.39,-49.99L17.65,-50.05L17.55,-50.36L16.87,-50.47L16.72,-50.22L16.18,-50.42L16.24,-50.70L15.49,-50.78L15.02,-51.11L14.61,-51.75L14.69,-52.09L14.44,-52.62L14.07,-52.98L14.35,-53.25L14.12,-53.76L14.80,-54.05L16.36,-54.51L17.62,-54.85L18.62,-54.68L18.70,-54.44L19.66,-54.43L20.89,-54.31L22.73,-54.33L23.24,-54.22L23.48,-53.91Z" fill="#00e5ff" stroke="#00e5ff" stroke-width="0.5" fill-opacity="0.8"/>
</svg>