<svg xmlns="http://www.w3.org/2000/svg" viewBox="-11.53 -44.28 7.14 9.44" width="300" height="300" preserveAspectRatio="xMidYMid meet">
  <path d="M-9.03,-41.88L-8.67,-42.13L-8.26,-42.28L-8.01,-41.79L-7.42,-41.79L-7.25,-41.92L-6.67,-41.88L-6.39,-41.38L-6.85,-41.11L-6.86,-40.33L-7.03,-40.18L-7.07,-39.71L-7.50,-39.63L-7.10,-39.03L-7.37,-38.37L-7.03,-38.08L-7.17,-37.80L-7.54,-37.43L-7.45,-37.10L-7.86,-36.84L-8.38,-36.98L-8.90,-36.87L-8.75,-37.65L-8.84,-38.27L-9.29,-38.36L-9.53,-38.74L-9.45,-39.39L-9.05,-39.76L-8.98,-40.16L-8.77,-40.76L-8.79,-41.18L-8.99,-41.54L-9.03,-41.88Z" fill="#00e5ff" stroke="#00e5ff" stroke-width="0.5" fill-opacity="0.8"/>
</svg>