<svg xmlns="http://www.w3.org/2000/svg" viewBox="9.09 -5.73 11.36 12.77" width="300" height="300" preserveAspectRatio="xMidYMid meet">
  <path d="M18.45,-3.50L18.39,-2.90L18.09,-2.37L17.90,-1.74L17.77,-0.86L17.83,-0.29L17.66,0.06L17.64,0.42L17.52,0.74L16.87,1.23L16.41,1.74L15.97,2.71L16.01,3.54L15.75,3.86L15.17,4.34L14.58,4.97L14.21,4.79L14.14,4.51L13.60,4.50L13.26,4.88L13.00,4.78L12.62,4.44L12.32,4.61L11.91,5.04L11.09,3.98L11.86,3.43L11.48,2.77L11.82,2.51L12.50,2.39L12.58,1.95L13.11,2.43L13.99,2.47L14.30,2.00L14.43,1.33L14.32,0.55L13.84,-0.04L14.28,-1.20L14.03,-1.40L13.28,-1.31L13.00,-1.83L13.08,-2.27L14.34,-2.23L15.15,-1.96L15.94,-1.73L16.01,-2.27L16.54,-3.20L17.13,-3.73L17.81,-3.56L18.45,-3.50Z" fill="#00e5ff" stroke="#00e5ff" stroke-width="0.5" fill-opacity="0.8"/>
</svg>