<svg xmlns="http://www.w3.org/2000/svg" viewBox="18.22 -50.22 13.41 8.53" width="300" height="300" preserveAspectRatio="xMidYMid meet">
  <path d="M28.23,-45.49L28.68,-45.30L29.15,-45.46L29.60,-45.29L29.63,-45.04L29.14,-44.82L28.84,-44.91L28.56,-43.71L27.97,-43.81L27.24,-44.18L26.07,-43.94L25.57,-43.69L24.10,-43.74L23.33,-43.90L22.94,-43.82L22.66,-44.23L22.47,-44.41L22.71,-44.58L22.46,-44.70L22.15,-44.48L21.56,-44.77L21.48,-45.18L20.87,-45.42L20.76,-45.73L20.22,-46.13L21.02,-46.32L21.63,-46.99L22.10,-47.67L22.71,-47.88L23.14,-48.10L23.76,-47.99L24.40,-47.98L24.87,-47.74L25.21,-47.89L25.95,-47.99L26.20,-48.22L26.62,-48.22L26.92,-48.12L27.23,-47.83L27.55,-47.41L28.13,-46.81L28.16,-46.37L28.05,-45.94L28.23,-45.49Z" fill="#00e5ff" stroke="#00e5ff" stroke-width="0.5" fill-opacity="0.8"/>
</svg>