<svg xmlns="http://www.w3.org/2000/svg" viewBox="-182.00 -83.25 364.00 44.10" width="300" height="300" preserveAspectRatio="xMidYMid meet">
  <path d="M178.73,-71.10L180.00,-71.52L180.00,-70.83L178.90,-70.78L178.73,-71.10ZM49.10,-46.40L48.65,-45.81L47.68,-45.64L46.68,-44.61L47.59,-43.66L47.49,-42.99L48.58,-41.81L48.58,-41.81L47.99,-41.41L47.82,-41.15L47.37,-41.22L46.69,-41.83L46.40,-41.86L45.78,-42.09L45.47,-42.50L44.54,-42.71L43.93,-42.55L43.76,-42.74L42.39,-43.22L40.92,-43.38L40.08,-43.55L39.96,-43.43L38.68,-44.28L37.54,-44.66L36.68,-45.24L37.40,-45.40L38.23,-46.24L37.67,-46.64L39.15,-47.04L39.12,-47.26L38.22,-47.10L38.26,-47.55L38.77,-47.83L39.74,-47.90L39.90,-48.23L39.67,-48.78L40.08,-49.31L40.07,-49.60L38.59,-49.93L38.01,-49.92L37.39,-50.38L36.63,-50.23L35.36,-50.58L35.38,-50.77L35.02,-51.21L34.22,-51.26L34.14,-51.57L34.39,-51.77L33.75,-52.34L32.72,-52.24L32.41,-52.29L32.16,-52.06L31.79,-52.10L31.79,-52.10L31.54,-52.74L31.31,-53.07L31.50,-53.17L32.30,-53.13L32.69,-53.35L32.41,-53.62L31.73,-53.79L31.79,-53.97L31.38,-54.16L30.76,-54.81L30.97,-55.08L30.87,-55.55L29.90,-55.79L29.37,-55.67L29.23,-55.92L28.18,-56.17L27.86,-56.76L27.77,-57.24L27.29,-57.47L27.72,-57.79L27.42,-58.72L28.13,-59.30L27.98,-59.48L27.98,-59.48L29.12,-60.03L28.07,-60.50L28.07,-60.50L30.21,-61.78L31.14,-62.36L31.52,-62.87L30.04,-63.55L30.44,-64.20L29.54,-64.95L30.22,-65.81L29.05,-66.94L29.98,-67.70L28.45,-68.36L28.59,-69.06L29.40,-69.16L31.10,-69.56L31.10,-69.56L32.13,-69.91L33.78,-69.30L36.51,-69.06L40.29,-67.93L41.06,-67.46L41.13,-66.79L40.02,-66.27L38.38,-66.00L33.92,-66.76L33.18,-66.63L34.81,-65.90L34.88,-65.44L34.94,-64.41L36.23,-64.11L37.01,-63.85L37.14,-64.33L36.54,-64.76L37.18,-65.14L39.59,-64.52L40.44,-64.76L39.76,-65.50L42.09,-66.48L43.02,-66.42L43.95,-66.07L44.53,-66.76L43.70,-67.35L44.19,-67.95L43.45,-68.57L46.25,-68.25L46.82,-67.69L45.56,-67.57L45.56,-67.01L46.35,-66.67L47.89,-66.88L48.14,-67.52L50.23,-68.00L53.72,-68.86L54.47,-68.81L53.49,-68.20L54.73,-68.10L55.44,-68.44L57.32,-68.47L58.80,-68.88L59.94,-68.28L61.08,-68.94L60.03,-69.52L60.55,-69.85L63.50,-69.55L64.89,-69.23L68.51,-68.09L69.18,-68.62L68.16,-69.14L68.14,-69.36L66.93,-69.45L67.26,-69.93L66.72,-70.71L66.69,-71.03L68.54,-71.93L69.20,-72.84L69.94,-73.04L72.59,-72.78L72.80,-72.22L71.85,-71.41L72.47,-71.09L72.79,-70.39L72.56,-69.02L73.67,-68.41L73.24,-67.74L71.28,-66.32L72.42,-66.17L72.82,-66.53L73.92,-66.79L74.19,-67.28L75.05,-67.76L74.47,-68.33L74.94,-68.99L73.84,-69.07L73.60,-69.63L74.40,-70.63L73.10,-71.45L74.89,-72.12L74.66,-72.83L75.16,-72.85L75.68,-72.30L75.29,-71.34L76.36,-71.15L75.90,-71.87L77.58,-72.27L79.65,-72.32L81.50,-71.75L80.61,-72.58L80.51,-73.65L82.25,-73.85L84.66,-73.81L86.82,-73.94L86.01,-74.46L87.17,-75.12L88.32,-75.14L90.26,-75.64L92.90,-75.77L93.23,-76.05L95.86,-76.14L96.68,-75.92L98.92,-76.45L100.76,-76.43L101.04,-76.86L101.99,-77.29L104.35,-77.70L106.07,-77.37L104.70,-77.13L106.97,-76.97L107.24,-76.48L108.15,-76.72L111.08,-76.71L113.33,-76.22L114.13,-75.85L113.89,-75.33L112.78,-75.03L110.15,-74.48L109.40,-74.18L110.64,-74.04L112.12,-73.79L113.02,-73.98L113.53,-73.34L113.97,-73.59L115.57,-73.75L118.78,-73.59L119.02,-73.12L123.20,-72.97L123.26,-73.74L125.38,-73.56L126.98,-73.57L128.59,-73.04L129.05,-72.40L128.46,-71.98L129.72,-71.19L131.29,-70.79L132.25,-71.84L133.86,-71.39L135.56,-71.66L137.50,-71.35L138.23,-71.63L139.87,-71.49L139.15,-72.42L140.47,-72.85L149.50,-72.20L150.35,-71.61L152.97,-70.84L157.01,-71.03L159.00,-70.87L159.83,-70.45L159.71,-69.72L160.94,-69.44L162.28,-69.64L164.05,-69.67L165.94,-69.47L167.84,-69.58L169.58,-68.69L170.82,-69.01L170.01,-69.65L170.45,-70.10L173.64,-69.82L175.72,-69.88L178.60,-69.40L180.00,-68.96L180.00,-64.98L179.99,-64.97L178.71,-64.53L177.41,-64.61L178.31,-64.08L178.91,-63.25L179.37,-62.98L179.49,-62.57L179.23,-62.30L177.36,-62.52L174.57,-61.77L173.68,-61.65L172.15,-60.95L170.70,-60.34L170.33,-59.88L168.90,-60.57L166.29,-59.79L165.84,-60.16L164.88,-59.73L163.54,-59.87L163.22,-59.21L162.02,-58.24L162.05,-57.84L163.19,-57.62L163.06,-56.16L162.13,-56.12L161.70,-55.29L162.12,-54.86L160.37,-54.34L160.02,-53.20L158.53,-52.96L158.23,-51.94L156.79,-51.01L156.42,-51.70L155.99,-53.16L155.43,-55.38L155.91,-56.77L156.76,-57.36L156.81,-57.83L158.36,-58.06L160.15,-59.31L161.87,-60.34L163.67,-61.14L164.47,-62.55L163.26,-62.47L162.66,-61.64L160.12,-60.54L159.30,-61.77L156.72,-61.43L154.22,-59.76L155.04,-59.14L152.81,-58.88L151.27,-58.78L151.34,-59.50L149.78,-59.66L148.54,-59.16L145.49,-59.34L142.20,-59.04L138.96,-57.09L135.13,-54.73L136.70,-54.60L137.19,-53.98L138.16,-53.76L138.80,-54.25L139.90,-54.19L141.35,-53.09L141.38,-52.24L140.60,-51.24L140.51,-50.05L140.06,-48.45L138.55,-47.00L138.22,-46.31L136.86,-45.14L135.52,-43.99L134.87,-43.40L133.54,-42.81L132.91,-42.80L132.28,-43.28L130.94,-42.55L130.78,-42.22L130.78,-42.22L130.78,-42.22L130.78,-42.22L130.64,-42.40L130.64,-42.40L130.63,-42.90L131.14,-42.93L131.29,-44.11L131.03,-44.97L131.88,-45.32L133.10,-45.14L133.77,-46.12L134.11,-47.21L134.50,-47.58L135.03,-48.48L133.37,-48.18L132.51,-47.79L130.99,-47.79L130.58,-48.73L129.40,-49.44L127.66,-49.76L127.29,-50.74L126.94,-51.35L126.56,-51.78L125.95,-52.79L125.07,-53.16L123.57,-53.46L122.25,-53.43L121.00,-53.25L120.18,-52.75L120.73,-52.52L120.74,-51.96L120.18,-51.64L119.28,-50.58L119.29,-50.14L117.88,-49.51L116.68,-49.89L115.49,-49.81L114.96,-50.14L114.36,-50.25L112.90,-49.54L111.58,-49.38L110.66,-49.13L109.40,-49.29L108.48,-49.28L107.87,-49.79L106.89,-50.27L105.89,-50.41L104.62,-50.28L103.68,-50.09L102.26,-50.51L102.07,-51.26L100.89,-51.52L99.98,-51.63L98.86,-52.05L97.83,-51.01L98.23,-50.42L97.26,-49.73L95.81,-49.98L94.82,-50.01L94.15,-50.48L93.10,-50.50L92.23,-50.80L90.71,-50.33L88.81,-49.47L87.75,-49.30L87.36,-49.21L86.83,-49.83L85.54,-49.69L85.12,-50.12L84.42,-50.31L83.94,-50.89L83.38,-51.07L81.95,-50.81L80.57,-51.39L80.04,-50.86L77.80,-53.40L76.53,-54.18L76.89,-54.49L74.38,-53.55L73.43,-53.49L73.51,-54.04L72.22,-54.38L71.18,-54.13L70.87,-55.17L69.07,-55.39L68.17,-54.97L65.67,-54.60L65.18,-54.35L61.44,-54.01L60.98,-53.66L61.70,-52.98L60.74,-52.72L60.93,-52.45L59.97,-51.96L61.59,-51.27L61.34,-50.80L59.93,-50.84L59.64,-50.55L58.36,-51.06L56.78,-51.04L55.72,-50.62L54.53,-51.03L52.33,-51.72L50.77,-51.69L48.70,-50.61L48.58,-49.87L47.55,-50.45L46.75,-49.36L47.04,-49.15L46.47,-48.39L47.32,-47.72L48.06,-47.74L48.69,-47.08L48.59,-46.56L49.10,-46.40ZM93.78,-81.02L95.94,-81.25L97.88,-80.75L100.19,-79.78L99.94,-78.88L97.76,-78.76L94.97,-79.04L93.31,-79.43L92.55,-80.14L91.18,-80.34L93.78,-81.02ZM102.84,-79.28L105.37,-78.71L105.08,-78.31L99.44,-77.92L101.26,-79.23L102.09,-79.35L102.84,-79.28ZM138.83,-76.14L141.47,-76.09L145.09,-75.56L144.30,-74.82L140.61,-74.85L138.96,-74.61L136.97,-75.26L137.51,-75.95L138.83,-76.14ZM148.22,-75.35L150.73,-75.08L149.58,-74.69L147.98,-74.78L146.12,-75.17L146.36,-75.50L148.22,-75.35ZM139.86,-73.37L140.81,-73.77L142.06,-73.86L143.48,-73.48L143.60,-73.21L142.09,-73.21L140.04,-73.32L139.86,-73.37ZM44.85,-80.59L46.80,-80.77L48.32,-80.78L48.52,-80.51L49.10,-80.75L50.04,-80.92L51.52,-80.70L51.14,-80.55L49.79,-80.42L48.89,-80.34L48.75,-80.18L47.59,-80.01L46.50,-80.25L47.07,-80.56L44.85,-80.59ZM22.73,-54.33L20.89,-54.31L19.66,-54.43L19.89,-54.87L21.27,-55.19L22.32,-55.02L22.76,-54.86L22.65,-54.58L22.73,-54.33ZM53.51,-73.75L55.90,-74.63L55.63,-75.08L57.87,-75.61L61.17,-76.25L64.50,-76.44L66.21,-76.81L68.16,-76.94L68.85,-76.54L68.18,-76.23L64.64,-75.74L61.58,-75.26L58.48,-74.31L56.99,-73.33L55.42,-72.37L55.62,-71.54L57.54,-70.72L56.94,-70.63L53.68,-70.76L53.41,-71.21L51.60,-71.47L51.46,-72.01L52.48,-72.23L52.44,-72.77L54.43,-73.63L53.51,-73.75ZM142.91,-53.70L143.26,-52.74L143.24,-51.76L143.65,-50.75L144.65,-48.98L143.17,-49.31L142.56,-47.86L143.53,-46.84L143.51,-46.14L142.75,-46.74L142.09,-45.97L141.91,-46.81L142.02,-47.78L141.90,-48.86L142.14,-49.62L142.18,-50.95L141.59,-51.94L141.68,-53.30L142.61,-53.76L142.21,-54.23L142.65,-54.37L142.91,-53.70ZM-174.93,-67.21L-175.01,-66.58L-174.34,-66.34L-174.57,-67.06L-171.86,-66.91L-169.90,-65.98L-170.89,-65.54L-172.53,-65.44L-172.56,-64.46L-172.96,-64.25L-173.89,-64.28L-174.65,-64.63L-175.98,-64.92L-176.21,-65.36L-177.22,-65.52L-178.36,-65.39L-178.90,-65.74L-178.69,-66.11L-179.88,-65.87L-179.43,-65.40L-180.00,-64.98L-180.00,-68.96L-177.55,-68.20L-174.93,-67.21ZM-178.69,-70.89L-180.00,-70.83L-180.00,-71.52L-179.87,-71.56L-179.02,-71.56L-177.58,-71.27L-177.66,-71.13L-178.69,-70.89ZM33.44,-45.97L33.70,-46.22L34.41,-46.01L34.73,-45.97L34.86,-45.77L35.01,-45.74L35.02,-45.65L35.51,-45.41L36.53,-45.47L36.33,-45.11L35.24,-44.94L33.88,-44.36L33.33,-44.56L33.55,-45.03L32.45,-45.33L32.63,-45.52L33.59,-45.85L33.44,-45.97Z" fill="#00e5ff" stroke="#00e5ff" stroke-width="0.5" fill-opacity="0.8"/>
</svg>