<svg xmlns="http://www.w3.org/2000/svg" viewBox="32.63 -34.16 25.04 19.81" width="300" height="300" preserveAspectRatio="xMidYMid meet">
  <path d="M34.96,-29.36L36.07,-29.20L36.50,-29.51L36.74,-29.87L37.50,-30.00L37.67,-30.34L38.00,-30.51L37.00,-31.51L39.00,-32.01L39.20,-32.16L40.40,-31.89L41.89,-31.19L44.71,-29.18L46.57,-29.10L47.46,-29.00L47.71,-28.53L48.42,-28.55L48.81,-27.69L49.30,-27.46L49.47,-27.11L50.15,-26.69L50.21,-26.28L50.11,-25.94L50.24,-25.61L50.53,-25.33L50.66,-25.00L50.81,-24.75L51.11,-24.56L51.39,-24.63L51.58,-24.25L51.62,-24.01L52.00,-23.00L55.01,-22.50L55.21,-22.71L55.67,-22.00L55.00,-20.00L52.00,-19.00L49.12,-18.62L48.18,-18.17L47.47,-17.12L47.00,-16.95L46.75,-17.28L46.37,-17.23L45.40,-17.33L45.22,-17.43L44.06,-17.41L43.79,-17.32L43.38,-17.58L43.12,-17.09L43.22,-16.67L42.78,-16.35L42.65,-16.77L42.35,-17.08L42.27,-17.47L41.75,-17.83L41.22,-18.67L40.94,-19.49L40.25,-20.17L39.80,-20.34L39.14,-21.29L39.02,-21.99L39.07,-22.58L38.49,-23.69L38.02,-24.08L37.48,-24.29L37.15,-24.86L37.21,-25.08L36.93,-25.60L36.64,-25.83L36.25,-26.57L35.64,-27.38L35.13,-28.06L34.63,-28.06L34.79,-28.61L34.83,-28.96L34.96,-29.36Z" fill="#00e5ff" stroke="#00e5ff" stroke-width="0.5" fill-opacity="0.8"/>
</svg>