<svg xmlns="http://www.w3.org/2000/svg" viewBox="-19.63 -18.60 10.16 8.27" width="300" height="300" preserveAspectRatio="xMidYMid meet">
  <path d="M-16.71,-13.59L-17.13,-14.37L-17.63,-14.73L-17.19,-14.92L-16.70,-15.62L-16.46,-16.14L-16.12,-16.46L-15.62,-16.37L-15.14,-16.59L-14.58,-16.60L-14.10,-16.30L-13.44,-16.04L-12.83,-15.30L-12.17,-14.62L-12.12,-13.99L-11.93,-13.42L-11.55,-13.14L-11.47,-12.75L-11.51,-12.44L-11.66,-12.39L-12.20,-12.47L-12.28,-12.35L-12.50,-12.33L-13.22,-12.58L-13.70,-12.59L-15.55,-12.63L-15.82,-12.52L-16.15,-12.55L-16.68,-12.38L-16.84,-13.15L-15.93,-13.13L-15.69,-13.27L-15.51,-13.28L-15.14,-13.51L-14.71,-13.30L-14.28,-13.28L-13.84,-13.51L-14.05,-13.79L-14.38,-13.63L-14.69,-13.63L-15.08,-13.88L-15.40,-13.86L-15.62,-13.62L-16.71,-13.59Z" fill="#00e5ff" stroke="#00e5ff" stroke-width="0.5" fill-opacity="0.8"/>
</svg>