<svg xmlns="http://www.w3.org/2000/svg" viewBox="16.83 -48.17 8.16 7.92" width="300" height="300" preserveAspectRatio="xMidYMid meet">
  <path d="M18.83,-45.91L18.83,-45.91L19.60,-46.17L20.22,-46.13L20.76,-45.73L20.87,-45.42L21.48,-45.18L21.56,-44.77L22.15,-44.48L22.46,-44.70L22.71,-44.58L22.47,-44.41L22.66,-44.23L22.41,-44.01L22.50,-43.64L22.99,-43.21L22.60,-42.90L22.44,-42.58L22.55,-42.46L22.38,-42.32L21.92,-42.30L21.58,-42.25L21.54,-42.32L21.66,-42.44L21.78,-42.68L21.63,-42.68L21.44,-42.86L21.27,-42.91L21.14,-43.07L20.96,-43.13L20.81,-43.27L20.64,-43.22L20.50,-42.88L20.26,-42.81L20.34,-42.90L19.96,-43.11L19.63,-43.21L19.48,-43.35L19.22,-43.52L19.45,-43.57L19.60,-44.04L19.12,-44.42L19.37,-44.86L19.01,-44.86L19.01,-44.86L19.39,-45.24L19.07,-45.52L18.83,-45.91Z" fill="#00e5ff" stroke="#00e5ff" stroke-width="0.5" fill-opacity="0.8"/>
</svg>