<svg xmlns="http://www.w3.org/2000/svg" viewBox="14.88 -51.57 9.68 5.81" width="300" height="300" preserveAspectRatio="xMidYMid meet">
  <path d="M22.56,-49.09L22.28,-48.83L22.09,-48.42L21.87,-48.32L20.80,-48.62L20.47,-48.56L20.24,-48.33L19.77,-48.20L19.66,-48.27L19.17,-48.11L18.78,-48.08L18.70,-47.88L17.86,-47.76L17.49,-47.87L16.98,-48.12L16.88,-48.47L16.96,-48.60L17.10,-48.82L17.55,-48.80L17.89,-48.90L17.91,-49.00L18.10,-49.04L18.17,-49.27L18.40,-49.32L18.55,-49.50L18.85,-49.50L18.91,-49.44L19.32,-49.57L19.83,-49.22L20.42,-49.43L20.89,-49.33L21.61,-49.47L22.56,-49.09Z" fill="#00e5ff" stroke="#00e5ff" stroke-width="0.5" fill-opacity="0.8"/>
</svg>