<svg xmlns="http://www.w3.org/2000/svg" viewBox="154.49 4.60 9.91 8.23" width="300" height="300" preserveAspectRatio="xMidYMid meet">
  <path d="M162.12,10.48L162.40,10.83L161.70,10.82L161.32,10.20L161.92,10.45L162.12,10.48ZM161.68,9.60L161.53,9.78L160.79,8.92L160.58,8.32L160.92,8.32L161.28,9.12L161.68,9.60ZM160.85,9.87L160.46,9.90L159.85,9.79L159.64,9.64L159.70,9.24L160.36,9.40L160.69,9.61L160.85,9.87ZM159.64,8.02L159.88,8.34L159.92,8.54L159.13,8.11L158.59,7.75L158.21,7.42L158.36,7.32L158.82,7.56L159.64,8.02ZM157.14,7.02L157.54,7.35L157.34,7.40L156.90,7.18L156.49,6.77L156.54,6.60L157.14,7.02Z" fill="#00e5ff" stroke="#00e5ff" stroke-width="0.5" fill-opacity="0.8"/>
</svg>