<svg xmlns="http://www.w3.org/2000/svg" viewBox="141.5 -8.4 35.9 34.3" width="400" height="300" preserveAspectRatio="xMidYMid meet">
  <rect x="141.5" y="-8.4" width="35.9" height="34.3" fill="#0e0e18"/>
  <path d="M180.0,16.3L180.0,16.8L179.4,17.0L178.7,17.3L178.6,16.9L179.1,16.7L179.4,16.6L180.0,16.3ZM178.1,17.8L178.4,17.6L178.7,17.9L178.6,18.5L177.9,18.6L177.4,18.5L177.3,18.0L177.7,17.7L178.1,17.8ZM-179.8,16.2L-179.9,16.7L-180.0,16.8L-180.0,16.3L-179.8,16.2Z" fill="#1e1e2e" stroke="#2a2a3a" stroke-width="0.3"/>
  <path d="M141.0,2.6L142.7,3.3L144.6,3.9L145.3,4.4L145.8,4.9L146.0,5.5L147.6,6.1L147.9,6.6L147.0,6.7L147.2,7.4L148.1,8.1L148.7,9.1L149.3,9.1L149.3,9.6L150.0,9.7L149.7,9.9L150.8,10.3L150.7,10.6L150.0,10.7L149.8,10.5L148.9,10.3L147.9,10.2L147.1,9.5L146.6,9.0L146.0,8.1L144.7,7.7L143.9,7.9L143.3,8.3L143.4,9.0L142.6,9.4L142.1,9.2L141.0,9.2L141.0,5.9L141.0,2.6ZM152.6,3.7L153.0,4.0L153.1,4.5L152.8,4.8L152.6,4.2L152.4,3.8L152.0,3.5L151.4,3.0L150.7,2.7L150.9,2.5L151.5,2.8L151.8,3.0L152.2,3.2L152.6,3.7ZM151.3,5.9L150.8,6.1L150.2,6.3L149.7,6.3L148.9,6.0L148.3,5.8L148.4,5.4L149.3,5.6L149.8,5.5L150.0,5.0L150.1,5.0L150.2,5.5L150.8,5.5L151.1,5.1L151.6,4.8L151.5,4.2L152.1,4.2L152.3,4.3L152.3,4.9L152.0,5.5L151.5,5.6L151.3,5.9ZM154.8,5.3L155.1,5.6L155.5,6.2L156.0,6.6L155.9,6.8L155.6,6.9L155.2,6.6L154.7,5.9L154.5,5.1L154.7,5.0L154.8,5.3Z" fill="#1e1e2e" stroke="#2a2a3a" stroke-width="0.3"/>
  <path d="M167.2,16.1L167.8,16.7L167.5,16.8L167.2,16.4L167.2,16.1ZM166.8,15.9L166.6,15.6L166.6,14.8L167.1,15.1L167.3,15.9L167.0,15.8L166.8,15.9Z" fill="#1e1e2e" stroke="#2a2a3a" stroke-width="0.3"/>
  <path d="M165.8,21.6L166.6,22.2L167.1,22.7L166.7,23.0L166.2,22.7L165.5,22.2L164.8,21.6L164.2,20.9L164.0,20.5L164.5,20.5L165.0,20.9L165.5,21.3L165.8,21.6Z" fill="#1e1e2e" stroke="#2a2a3a" stroke-width="0.3"/>
  <path d="M147.7,44.8L148.3,44.9L148.4,46.4L148.0,46.9L147.9,48.0L147.6,47.6L146.9,48.6L146.7,48.5L146.0,48.5L145.4,47.3L145.3,46.4L144.7,45.2L144.7,44.6L145.4,44.8L146.4,45.2L146.9,45.0L147.7,44.8ZM126.1,34.1L125.1,34.7L124.2,34.9L124.0,35.6L123.7,36.1L122.8,36.1L122.2,36.2L121.3,36.0L120.6,36.1L119.9,36.2L119.3,36.8L119.0,36.8L118.5,37.1L118.0,37.5L117.3,37.4L116.6,37.4L115.6,36.7L115.0,36.4L115.0,35.7L115.5,35.6L115.7,35.3L115.7,34.9L115.8,34.0L115.7,33.4L115.2,32.2L115.0,31.5L115.0,30.9L114.6,30.1L114.6,29.8L114.2,29.3L114.0,28.4L113.5,27.5L113.3,27.1L113.8,27.6L113.4,26.5L113.9,26.8L114.2,27.3L114.2,26.7L113.7,25.8L113.6,25.5L113.4,25.2L113.5,24.5L113.7,24.3L113.8,23.7L113.7,23.1L114.1,22.3L114.2,23.1L114.6,22.4L115.5,22.0L115.9,21.6L116.7,21.2L117.2,21.1L117.4,21.2L118.2,20.8L118.8,20.7L119.0,20.5L119.3,20.4L119.8,20.4L120.9,20.1L121.4,19.6L121.7,19.0L122.2,18.5L122.3,18.1L122.3,17.5L123.0,16.6L123.4,17.5L123.9,17.3L123.5,16.8L123.8,16.3L124.3,16.6L124.4,15.8L124.9,15.3L125.2,14.8L125.7,14.7L125.7,14.4L126.1,14.5L126.1,14.2L126.6,14.1L127.1,14.0L127.8,14.4L128.4,15.0L129.0,15.0L129.6,15.1L129.4,14.6L129.9,13.7L130.3,13.5L130.2,13.2L130.6,12.6L131.2,12.3L131.7,12.4L132.6,12.2L132.6,11.7L131.8,11.3L132.4,11.2L133.0,11.5L133.6,11.9L134.4,12.1L134.7,12.0L135.3,12.3L135.9,12.1L136.3,12.1L136.5,11.9L137.0,12.4L136.7,13.0L136.3,13.4L136.0,13.4L136.1,13.9L135.8,14.4L135.4,14.9L135.5,15.2L136.3,15.7L137.1,16.1L137.6,16.4L138.3,17.1L138.6,17.1L139.1,17.3L139.3,17.6L140.2,18.0L140.9,17.6L141.1,17.1L141.3,16.6L141.4,16.0L141.7,15.2L141.6,14.7L141.6,14.4L141.5,13.8L141.7,13.1L141.8,12.8L141.7,12.5L141.9,12.0L142.1,11.4L142.1,11.1L142.5,10.7L142.8,11.2L142.9,11.9L143.1,12.0L143.2,12.4L143.5,12.9L143.6,13.5L143.6,13.9L143.9,14.7L144.6,14.3L144.9,14.8L145.4,15.2L145.3,15.6L145.5,16.5L145.6,17.0L145.9,17.2L146.2,18.1L146.1,18.6L146.4,19.3L147.5,19.9L148.2,20.4L148.8,20.8L148.7,21.1L149.3,21.8L149.7,22.9L150.1,22.7L150.5,23.2L150.7,23.0L150.9,24.1L151.6,24.8L152.1,25.2L152.9,26.1L153.1,27.0L153.2,27.7L153.1,28.4L153.6,29.3L153.5,30.3L153.3,30.8L153.1,31.9L153.1,32.5L152.9,33.4L152.5,34.5L151.7,35.0L151.3,36.0L151.0,36.6L150.7,37.6L150.3,38.2L150.1,39.2L149.9,40.0L150.0,40.4L149.4,40.8L148.3,40.9L147.4,41.4L146.9,41.9L146.3,42.5L145.5,41.9L144.9,41.7L145.0,41.0L144.5,41.2L143.6,42.2L142.7,41.8L142.2,41.6L141.6,41.5L140.6,41.2L140.0,40.4L139.8,39.4L139.6,38.8L139.1,38.3L138.1,38.2L138.4,37.6L138.2,36.7L137.7,37.5L136.8,37.7L137.4,37.0L137.5,36.3L137.9,35.8L137.8,34.9L137.0,35.9L136.4,36.3L136.0,37.3L135.2,36.8L135.2,36.1L134.6,35.3L134.1,34.8L134.3,34.5L133.0,33.8L132.3,33.8L131.3,33.2L129.5,33.3L128.2,33.7L127.1,34.1L126.1,34.1Z" fill="#1e1e2e" stroke="#2a2a3a" stroke-width="0.3"/>
  <path d="M162.1,10.5L162.4,10.9L161.7,10.9L161.3,10.3L161.9,10.5L162.1,10.5ZM161.7,9.6L161.5,9.8L160.8,9.0L160.6,8.3L160.9,8.3L161.3,9.2L161.7,9.6ZM160.9,9.9L160.5,9.9L159.8,9.8L159.6,9.7L159.7,9.3L160.4,9.4L160.7,9.7L160.9,9.9ZM159.6,8.0L159.9,8.4L159.9,8.6L159.1,8.1L158.6,7.8L158.2,7.4L158.4,7.3L158.8,7.6L159.6,8.0ZM157.1,7.0L157.5,7.4L157.3,7.4L156.9,7.2L156.5,6.8L156.5,6.6L157.1,7.0Z" fill="#00e5ff" stroke="#00c4dd" stroke-width="0.4" fill-opacity="0.9"/>
</svg>