<svg xmlns="http://www.w3.org/2000/svg" viewBox="38.98 -14.02 14.15 17.70" width="300" height="300" preserveAspectRatio="xMidYMid meet">
  <path d="M41.59,1.68L40.99,0.86L40.98,-2.78L41.86,-3.92L42.13,-4.23L42.77,-4.25L43.66,-4.96L44.96,-5.00L47.79,-8.00L48.49,-8.84L48.94,-9.45L48.94,-9.97L48.94,-10.98L48.94,-11.39L48.95,-11.41L48.95,-11.41L49.27,-11.43L49.73,-11.58L50.26,-11.68L50.73,-12.02L51.11,-12.02L51.13,-11.75L51.04,-11.17L51.05,-10.64L50.83,-10.28L50.55,-9.20L50.07,-8.08L49.45,-6.80L48.59,-5.34L47.74,-4.22L46.56,-2.86L45.56,-2.05L44.07,-1.05L43.14,-0.29L42.04,0.92L41.81,1.45L41.59,1.68Z" fill="#00e5ff" stroke="#00e5ff" stroke-width="0.5" fill-opacity="0.8"/>
</svg>