<svg xmlns="http://www.w3.org/2000/svg" viewBox="14.34 20.09 20.49 16.73" width="300" height="300" preserveAspectRatio="xMidYMid meet">
  <path d="M16.34,28.58L16.82,28.08L17.22,28.36L17.39,28.78L17.84,28.86L18.46,29.05L19.00,28.97L19.89,28.46L19.90,24.77L20.17,24.92L20.76,25.87L20.67,26.48L20.89,26.83L21.61,26.73L22.11,26.28L22.58,25.98L22.82,25.50L23.31,25.27L23.73,25.39L24.21,25.67L25.03,25.72L25.66,25.49L25.77,25.17L25.94,24.70L26.49,24.62L26.79,24.24L27.12,23.57L28.02,22.83L29.43,22.09L29.84,22.10L30.32,22.27L30.66,22.15L31.19,22.25L31.67,23.66L31.93,24.37L31.75,25.48L31.84,25.84L31.33,25.66L31.04,25.73L30.95,26.02L30.68,26.40L30.69,26.74L31.28,27.29L31.87,27.18L32.07,26.73L32.83,26.74L32.58,27.47L32.46,28.30L32.20,28.75L31.52,29.26L31.33,29.40L30.90,29.91L30.62,30.42L30.06,31.14L28.93,32.17L28.22,32.77L27.46,33.23L26.42,33.61L25.91,33.67L25.78,33.94L25.17,33.80L24.68,33.99L23.59,33.79L22.99,33.92L22.57,33.86L21.54,34.26L20.69,34.42L20.07,34.80L19.62,34.82L19.19,34.46L18.86,34.44L18.42,34.00L18.38,34.14L18.24,33.87L18.25,33.28L17.93,32.61L18.25,32.43L18.22,31.66L17.57,30.73L17.06,29.88L17.06,29.88L16.34,28.58ZM28.98,28.96L28.54,28.65L28.07,28.85L27.53,29.24L27.00,29.88L27.75,30.65L28.11,30.55L28.29,30.23L28.85,30.07L29.02,29.74L29.33,29.26L28.98,28.96Z" fill="#00e5ff" stroke="#00e5ff" stroke-width="0.5" fill-opacity="0.8"/>
</svg>