<svg xmlns="http://www.w3.org/2000/svg" viewBox="111.1 -56.9 33.4 35.3" width="400" height="300" preserveAspectRatio="xMidYMid meet">
  <rect x="111.1" y="-56.9" width="33.4" height="35.3" fill="#0e0e18"/>
  <path d="M178.7,-102.7L180.0,-104.0L180.0,-101.9L178.9,-101.8L178.7,-102.7ZM49.1,-52.5L48.6,-51.6L47.7,-51.4L46.7,-49.9L47.6,-48.6L47.5,-47.7L48.6,-46.1L48.6,-46.1L48.0,-45.6L47.8,-45.2L47.4,-45.3L46.7,-46.1L46.4,-46.2L45.8,-46.5L45.5,-47.0L44.5,-47.3L43.9,-47.1L43.8,-47.4L42.4,-48.0L40.9,-48.2L40.1,-48.5L40.0,-48.3L38.7,-49.5L37.5,-50.0L36.7,-50.8L37.4,-51.1L38.2,-52.3L37.7,-52.8L39.1,-53.4L39.1,-53.8L38.2,-53.5L38.3,-54.2L38.8,-54.6L39.7,-54.7L39.9,-55.2L39.7,-56.0L40.1,-56.8L40.1,-57.3L38.6,-57.8L38.0,-57.8L37.4,-58.5L36.6,-58.3L35.4,-58.8L35.4,-59.1L35.0,-59.8L34.2,-59.9L34.1,-60.4L34.4,-60.7L33.8,-61.6L32.7,-61.5L32.4,-61.6L32.2,-61.2L31.8,-61.3L31.8,-61.3L31.5,-62.3L31.3,-62.9L31.5,-63.0L32.3,-63.0L32.7,-63.3L32.4,-63.8L31.7,-64.1L31.8,-64.4L31.4,-64.7L30.8,-65.8L31.0,-66.3L30.9,-67.1L29.9,-67.5L29.4,-67.3L29.2,-67.8L28.2,-68.2L27.9,-69.3L27.8,-70.2L27.3,-70.6L27.7,-71.2L27.4,-73.0L28.1,-74.1L28.0,-74.4L28.0,-74.4L29.1,-75.5L28.1,-76.5L28.1,-76.5L30.2,-79.1L31.1,-80.3L31.5,-81.5L30.0,-83.0L30.4,-84.5L29.5,-86.2L30.2,-88.3L29.1,-91.1L30.0,-93.0L28.4,-94.8L28.6,-96.8L29.4,-97.0L31.1,-98.2L31.1,-98.2L32.1,-99.2L33.8,-97.4L36.5,-96.8L40.3,-93.7L41.1,-92.4L41.1,-90.7L40.0,-89.4L38.4,-88.7L33.9,-90.6L33.2,-90.3L34.8,-88.5L34.9,-87.4L34.9,-84.9L36.2,-84.2L37.0,-83.6L37.1,-84.8L36.5,-85.8L37.2,-86.7L39.6,-85.2L40.4,-85.8L39.8,-87.5L42.1,-89.9L43.0,-89.8L43.9,-88.9L44.5,-90.6L43.7,-92.1L44.2,-93.7L43.5,-95.4L46.3,-94.5L46.8,-93.0L45.6,-92.7L45.6,-91.3L46.3,-90.4L47.9,-90.9L48.1,-92.6L50.2,-93.8L53.7,-96.2L54.5,-96.0L53.5,-94.4L54.7,-94.1L55.4,-95.0L57.3,-95.1L58.8,-96.2L59.9,-94.6L61.1,-96.4L60.0,-98.0L60.5,-99.0L63.5,-98.1L64.9,-97.2L68.5,-94.1L69.2,-95.5L68.2,-97.0L68.1,-97.6L66.9,-97.9L67.3,-99.2L66.7,-101.5L66.7,-102.5L68.5,-105.4L69.2,-108.4L69.9,-109.0L72.6,-108.1L72.8,-106.3L71.8,-103.7L72.5,-102.7L72.8,-100.6L72.6,-96.6L73.7,-94.9L73.2,-93.2L71.3,-89.5L72.4,-89.2L72.8,-90.0L73.9,-90.7L74.2,-92.0L75.1,-93.2L74.5,-94.7L74.9,-96.5L73.8,-96.8L73.6,-98.4L74.4,-101.3L73.1,-103.8L74.9,-106.0L74.7,-108.3L75.2,-108.4L75.7,-106.6L75.3,-103.5L76.4,-102.9L75.9,-105.2L77.6,-106.5L79.7,-106.6L81.5,-104.8L80.6,-107.5L80.5,-111.2L82.3,-111.9L84.7,-111.7L86.8,-112.2L86.0,-114.1L87.2,-116.6L88.3,-116.7L90.3,-118.7L92.9,-119.2L93.2,-120.4L95.9,-120.7L96.7,-119.8L98.9,-122.0L100.8,-122.0L101.0,-123.8L102.0,-125.7L104.4,-127.6L106.1,-126.1L104.7,-125.0L107.0,-124.3L107.2,-122.2L108.2,-123.2L111.1,-123.2L113.3,-121.1L114.1,-119.5L113.9,-117.5L112.8,-116.3L110.2,-114.2L109.4,-113.1L110.6,-112.6L112.1,-111.7L113.0,-112.3L113.5,-110.1L114.0,-111.0L115.6,-111.5L118.8,-111.0L119.0,-109.3L123.2,-108.8L123.3,-111.5L125.4,-110.9L127.0,-110.9L128.6,-109.0L129.1,-106.9L128.5,-105.5L129.7,-103.0L131.3,-101.8L132.3,-105.1L133.9,-103.6L135.6,-104.5L137.5,-103.5L138.2,-104.4L139.9,-103.9L139.1,-106.9L140.5,-108.4L149.5,-106.2L150.4,-104.3L153.0,-101.9L157.0,-102.5L159.0,-102.0L159.8,-100.8L159.7,-98.6L160.9,-97.8L162.3,-98.4L164.1,-98.5L165.9,-97.9L167.8,-98.2L169.6,-95.7L170.8,-96.6L170.0,-98.4L170.5,-99.7L173.6,-98.9L175.7,-99.1L178.6,-97.7L180.0,-96.5L180.0,-86.3L180.0,-86.3L178.7,-85.2L177.4,-85.4L178.3,-84.2L178.9,-82.3L179.4,-81.7L179.5,-80.8L179.2,-80.2L177.4,-80.7L174.6,-79.1L173.7,-78.8L172.2,-77.4L170.7,-76.1L170.3,-75.2L168.9,-76.6L166.3,-75.0L165.8,-75.8L164.9,-74.9L163.5,-75.2L163.2,-73.9L162.0,-72.0L162.1,-71.3L163.2,-70.8L163.1,-68.2L162.1,-68.1L161.7,-66.6L162.1,-65.9L160.4,-65.0L160.0,-63.1L158.5,-62.7L158.2,-61.0L156.8,-59.5L156.4,-60.6L156.0,-63.0L155.4,-66.8L155.9,-69.3L156.8,-70.4L156.8,-71.3L158.4,-71.7L160.2,-74.1L161.9,-76.1L163.7,-77.8L164.5,-80.8L163.3,-80.6L162.7,-78.8L160.1,-76.6L159.3,-79.1L156.7,-78.4L154.2,-75.0L155.0,-73.8L152.8,-73.3L151.3,-73.1L151.3,-74.5L149.8,-74.8L148.5,-73.8L145.5,-74.1L142.2,-73.6L139.0,-69.9L135.1,-65.7L136.7,-65.4L137.2,-64.4L138.2,-64.0L138.8,-64.8L139.9,-64.7L141.3,-62.9L141.4,-61.5L140.6,-59.9L140.5,-58.0L140.1,-55.5L138.6,-53.4L138.2,-52.4L136.9,-50.7L135.5,-49.1L134.9,-48.3L133.5,-47.5L132.9,-47.4L132.3,-48.1L130.9,-47.1L130.8,-46.7L130.8,-46.7L130.8,-46.7L130.8,-46.7L130.6,-46.9L130.6,-46.9L130.6,-47.6L131.1,-47.6L131.3,-49.3L131.0,-50.5L131.9,-51.0L133.1,-50.7L133.8,-52.1L134.1,-53.7L134.5,-54.2L135.0,-55.6L133.4,-55.1L132.5,-54.5L131.0,-54.5L130.6,-56.0L129.4,-57.0L127.7,-57.5L127.3,-59.1L126.9,-60.0L126.6,-60.7L125.9,-62.4L125.1,-63.0L123.6,-63.5L122.2,-63.5L121.0,-63.1L120.2,-62.3L120.7,-61.9L120.7,-61.0L120.2,-60.5L119.3,-58.8L119.3,-58.1L117.9,-57.2L116.7,-57.7L115.5,-57.6L115.0,-58.1L114.4,-58.3L112.9,-57.2L111.6,-56.9L110.7,-56.6L109.4,-56.8L108.5,-56.8L107.9,-57.6L106.9,-58.3L105.9,-58.5L104.6,-58.3L103.7,-58.0L102.3,-58.7L102.1,-59.9L100.9,-60.3L100.0,-60.5L98.9,-61.2L97.8,-59.5L98.2,-58.6L97.3,-57.5L95.8,-57.9L94.8,-57.9L94.1,-58.7L93.1,-58.7L92.2,-59.2L90.7,-58.4L88.8,-57.1L87.8,-56.8L87.4,-56.7L86.8,-57.6L85.5,-57.4L85.1,-58.1L84.4,-58.4L83.9,-59.3L83.4,-59.6L81.9,-59.2L80.6,-60.1L80.0,-59.3L77.8,-63.4L76.5,-64.7L76.9,-65.3L74.4,-63.6L73.4,-63.5L73.5,-64.5L72.2,-65.1L71.2,-64.6L70.9,-66.4L69.1,-66.8L68.2,-66.1L65.7,-65.4L65.2,-65.0L61.4,-64.4L61.0,-63.8L61.7,-62.7L60.7,-62.3L60.9,-61.8L60.0,-61.0L61.6,-59.9L61.3,-59.2L59.9,-59.2L59.6,-58.8L58.4,-59.6L56.8,-59.5L55.7,-58.9L54.5,-59.5L52.3,-60.6L50.8,-60.6L48.7,-58.9L48.6,-57.7L47.5,-58.6L46.8,-56.9L47.0,-56.6L46.5,-55.5L47.3,-54.4L48.1,-54.5L48.7,-53.5L48.6,-52.7L49.1,-52.5ZM93.8,-145.8L95.9,-147.3L97.9,-144.1L100.2,-138.3L99.9,-133.5L97.8,-132.8L95.0,-134.3L93.3,-136.4L92.5,-140.4L91.2,-141.6L93.8,-145.8ZM102.8,-135.6L105.4,-132.6L105.1,-130.6L99.4,-128.7L101.3,-135.3L102.1,-135.9L102.8,-135.6ZM138.8,-120.7L141.5,-120.6L145.1,-118.4L144.3,-115.5L140.6,-115.6L139.0,-114.7L137.0,-117.2L137.5,-120.0L138.8,-120.7ZM148.2,-117.5L150.7,-116.5L149.6,-115.0L148.0,-115.3L146.1,-116.8L146.4,-118.1L148.2,-117.5ZM139.9,-110.2L140.8,-111.6L142.1,-111.9L143.5,-110.6L143.6,-109.6L142.1,-109.6L140.0,-110.0L139.9,-110.2ZM44.8,-143.1L46.8,-144.2L48.3,-144.3L48.5,-142.6L49.1,-144.1L50.0,-145.1L51.5,-143.8L51.1,-142.8L49.8,-142.0L48.9,-141.6L48.8,-140.6L47.6,-139.6L46.5,-141.0L47.1,-142.9L44.8,-143.1ZM22.7,-65.0L20.9,-64.9L19.7,-65.1L19.9,-65.9L21.3,-66.5L22.3,-66.2L22.8,-65.9L22.7,-65.4L22.7,-65.0ZM53.5,-111.5L55.9,-114.8L55.6,-116.5L57.9,-118.6L61.2,-121.2L64.5,-122.0L66.2,-123.6L68.2,-124.2L68.9,-122.5L68.2,-121.1L64.6,-119.1L61.6,-117.2L58.5,-113.6L57.0,-110.1L55.4,-106.8L55.6,-104.1L57.5,-101.6L56.9,-101.3L53.7,-101.7L53.4,-103.1L51.6,-103.9L51.5,-105.6L52.5,-106.3L52.4,-108.1L54.4,-111.1L53.5,-111.5ZM142.9,-63.9L143.3,-62.3L143.2,-60.7L143.6,-59.1L144.7,-56.3L143.2,-56.8L142.6,-54.7L143.5,-53.1L143.5,-52.1L142.7,-53.0L142.1,-51.9L141.9,-53.1L142.0,-54.5L141.9,-56.2L142.1,-57.3L142.2,-59.4L141.6,-61.0L141.7,-63.2L142.6,-64.0L142.2,-64.8L142.7,-65.0L142.9,-63.9ZM-174.9,-91.8L-175.0,-90.2L-174.3,-89.6L-174.6,-91.4L-171.9,-91.0L-169.9,-88.7L-170.9,-87.6L-172.5,-87.4L-172.6,-85.1L-173.0,-84.6L-173.9,-84.6L-174.7,-85.4L-176.0,-86.1L-176.2,-87.2L-177.2,-87.6L-178.4,-87.2L-178.9,-88.1L-178.7,-89.0L-179.9,-88.4L-179.4,-87.3L-180.0,-86.3L-180.0,-96.5L-177.6,-94.4L-174.9,-91.8ZM-178.7,-102.1L-180.0,-101.9L-180.0,-104.0L-179.9,-104.2L-179.0,-104.2L-177.6,-103.3L-177.7,-102.8L-178.7,-102.1ZM33.4,-51.9L33.7,-52.2L34.4,-51.9L34.7,-51.9L34.9,-51.6L35.0,-51.5L35.0,-51.4L35.5,-51.1L36.5,-51.2L36.3,-50.7L35.2,-50.4L33.9,-49.6L33.3,-49.9L33.5,-50.5L32.5,-51.0L32.6,-51.2L33.6,-51.7L33.4,-51.9Z" fill="#1e1e2e" stroke="#2a2a3a" stroke-width="0.3"/>
  <path d="M130.8,-46.7L130.8,-46.7L130.8,-46.7L130.8,-46.7ZM130.6,-46.9L130.6,-46.9L130.8,-46.7L130.4,-46.7L130.0,-46.3L129.7,-45.8L129.7,-44.9L129.2,-44.6L129.0,-44.3L128.6,-44.0L128.0,-43.7L127.5,-43.4L127.5,-42.8L127.4,-42.7L127.8,-42.5L128.3,-41.9L128.2,-41.6L127.8,-41.5L127.1,-41.5L126.7,-40.9L126.2,-40.9L126.2,-40.8L125.7,-41.1L125.6,-40.8L125.3,-40.7L125.2,-41.0L125.0,-41.1L124.7,-41.3L125.0,-41.8L125.2,-42.0L125.1,-42.2L125.4,-42.9L125.3,-43.1L124.7,-43.3L124.3,-43.6L125.1,-44.5L126.2,-45.2L126.9,-46.1L127.3,-45.7L128.2,-45.6L128.1,-46.4L129.6,-46.9L130.0,-47.7L130.6,-46.9Z" fill="#1e1e2e" stroke="#2a2a3a" stroke-width="0.3"/>
  <path d="M87.8,-56.8L88.8,-57.1L90.7,-58.4L92.2,-59.2L93.1,-58.7L94.1,-58.7L94.8,-57.9L95.8,-57.9L97.3,-57.5L98.2,-58.6L97.8,-59.5L98.9,-61.2L100.0,-60.5L100.9,-60.3L102.1,-59.9L102.3,-58.7L103.7,-58.0L104.6,-58.3L105.9,-58.5L106.9,-58.3L107.9,-57.6L108.5,-56.8L109.4,-56.8L110.7,-56.6L111.6,-56.9L112.9,-57.2L114.4,-58.3L115.0,-58.1L115.5,-57.6L116.7,-57.7L116.2,-56.6L115.5,-55.1L115.7,-54.5L116.3,-54.6L117.3,-54.4L118.1,-55.0L118.9,-54.5L119.8,-53.4L119.7,-52.9L118.9,-53.1L117.4,-52.9L116.7,-52.5L116.0,-51.5L114.5,-51.0L113.5,-50.2L112.4,-50.5L111.9,-50.6L111.3,-49.7L111.7,-49.2L111.8,-48.7L111.1,-48.3L110.4,-47.5L109.2,-47.1L107.7,-47.0L106.1,-46.5L105.0,-45.8L104.5,-46.2L103.3,-46.2L101.8,-47.1L100.8,-47.3L99.5,-47.1L97.5,-47.4L96.3,-47.3L95.8,-48.2L95.3,-49.4L94.7,-49.6L93.5,-50.5L92.1,-50.7L90.9,-50.9L90.6,-51.5L91.0,-53.2L90.3,-54.4L88.9,-55.0L88.0,-55.8L87.8,-56.8Z" fill="#1e1e2e" stroke="#2a2a3a" stroke-width="0.3"/>
  <path d="M109.5,-18.5L108.7,-18.8L108.6,-19.7L109.1,-20.2L110.2,-20.5L110.8,-20.5L111.0,-20.1L110.6,-19.6L110.3,-19.0L109.5,-18.5ZM80.3,-46.8L80.2,-47.6L80.9,-48.0L80.0,-50.4L81.9,-50.9L82.5,-51.3L83.2,-53.9L85.2,-53.4L85.7,-54.0L85.8,-55.5L86.6,-55.7L87.4,-56.7L87.8,-56.8L88.0,-55.8L88.9,-55.0L90.3,-54.4L91.0,-53.2L90.6,-51.5L90.9,-50.9L92.1,-50.7L93.5,-50.5L94.7,-49.6L95.3,-49.4L95.8,-48.2L96.3,-47.3L97.5,-47.4L99.5,-47.1L100.8,-47.3L101.8,-47.1L103.3,-46.2L104.5,-46.2L105.0,-45.8L106.1,-46.5L107.7,-47.0L109.2,-47.1L110.4,-47.5L111.1,-48.3L111.8,-48.7L111.7,-49.2L111.3,-49.7L111.9,-50.6L112.4,-50.5L113.5,-50.2L114.5,-51.0L116.0,-51.5L116.7,-52.5L117.4,-52.9L118.9,-53.1L119.7,-52.9L119.8,-53.4L118.9,-54.5L118.1,-55.0L117.3,-54.4L116.3,-54.6L115.7,-54.5L115.5,-55.1L116.2,-56.6L116.7,-57.7L117.9,-57.2L119.3,-58.1L119.3,-58.8L120.2,-60.5L120.7,-61.0L120.7,-61.9L120.2,-62.3L121.0,-63.1L122.2,-63.5L123.6,-63.5L125.1,-63.0L125.9,-62.4L126.6,-60.7L126.9,-60.0L127.3,-59.1L127.7,-57.5L129.4,-57.0L130.6,-56.0L131.0,-54.5L132.5,-54.5L133.4,-55.1L135.0,-55.6L134.5,-54.2L134.1,-53.7L133.8,-52.1L133.1,-50.7L131.9,-51.0L131.0,-50.5L131.3,-49.3L131.1,-47.6L130.6,-47.6L130.6,-46.9L130.0,-47.7L129.6,-46.9L128.1,-46.4L128.2,-45.6L127.3,-45.7L126.9,-46.1L126.2,-45.2L125.1,-44.5L124.3,-43.6L122.9,-43.2L122.1,-42.6L121.1,-42.3L121.6,-42.9L121.4,-43.4L122.2,-44.3L121.6,-45.0L120.8,-44.5L119.6,-43.6L119.0,-42.7L118.0,-42.7L117.5,-42.1L118.1,-41.2L118.9,-41.0L118.9,-40.4L119.7,-40.1L120.8,-41.0L121.7,-40.5L122.4,-40.4L122.5,-39.8L121.1,-39.4L120.6,-38.8L119.7,-38.2L119.2,-37.3L120.2,-36.6L120.6,-35.4L121.2,-34.4L121.9,-33.4L121.9,-32.6L121.3,-32.3L121.5,-31.6L122.1,-31.3L121.9,-30.3L121.7,-29.4L121.1,-29.3L120.4,-28.1L119.6,-26.7L118.7,-25.3L117.3,-24.3L115.9,-23.4L114.8,-23.3L114.2,-22.8L113.8,-23.2L113.2,-22.6L111.8,-22.1L110.8,-21.9L110.4,-20.8L109.9,-20.7L109.6,-21.5L109.9,-21.9L108.5,-22.3L108.1,-22.1L107.0,-22.4L106.6,-22.8L106.7,-23.4L105.8,-23.6L105.3,-24.0L104.5,-23.4L103.5,-23.3L102.7,-23.3L102.2,-23.1L101.7,-22.9L101.8,-21.7L101.3,-21.7L101.2,-22.0L101.2,-22.4L100.4,-22.1L100.0,-22.3L99.2,-22.7L99.5,-23.6L98.9,-23.8L98.7,-24.8L97.6,-24.6L97.7,-25.9L98.7,-26.9L98.7,-27.8L98.7,-28.6L98.2,-28.9L97.9,-29.6L97.3,-29.5L96.2,-29.7L96.6,-30.1L96.1,-30.8L95.4,-30.4L94.6,-30.6L93.4,-29.9L92.5,-29.1L91.7,-28.9L91.3,-29.2L90.7,-29.3L90.0,-29.5L89.5,-29.2L88.8,-28.4L88.7,-29.3L88.1,-29.0L87.0,-29.2L85.8,-29.4L85.0,-29.9L84.2,-30.1L83.9,-30.7L83.3,-30.9L82.3,-31.6L81.5,-32.0L81.1,-31.7L79.7,-32.5L78.7,-33.2L78.5,-34.5L79.2,-34.4L79.2,-35.0L78.8,-35.6L78.9,-36.6L77.8,-38.0L76.2,-38.5L75.9,-39.5L75.2,-40.0L75.0,-40.4L74.8,-41.1L74.9,-41.6L74.3,-41.9L73.9,-41.8L73.7,-43.0L74.0,-43.3L73.8,-43.6L74.8,-44.2L75.5,-44.4L76.5,-44.3L76.9,-45.1L78.2,-45.3L78.5,-45.8L80.1,-46.5L80.3,-46.8Z" fill="#1e1e2e" stroke="#2a2a3a" stroke-width="0.3"/>
  <path d="M121.8,-25.2L121.2,-23.4L120.7,-22.5L120.2,-23.4L120.1,-24.2L120.7,-25.3L121.5,-26.2L122.0,-25.8L121.8,-25.2Z" fill="#1e1e2e" stroke="#2a2a3a" stroke-width="0.3"/>
  <path d="M141.9,-42.6L141.0,-41.4L141.0,-40.1L140.6,-39.1L140.8,-38.4L140.3,-37.6L139.0,-37.0L137.2,-36.9L135.8,-35.5L135.1,-36.0L135.1,-36.9L133.3,-36.6L132.2,-36.1L131.0,-36.1L132.0,-35.2L131.3,-33.2L130.7,-32.7L130.2,-33.1L130.4,-34.2L129.8,-34.5L129.4,-35.3L130.4,-35.7L130.9,-36.5L131.9,-37.1L132.6,-37.9L134.6,-38.3L135.7,-38.1L136.7,-40.3L137.4,-39.7L138.9,-40.9L139.4,-41.4L140.1,-43.0L139.9,-44.4L140.3,-45.3L141.4,-45.5L141.9,-43.7L141.9,-42.6ZM144.6,-49.0L145.3,-49.6L145.5,-48.1L144.1,-47.7L143.2,-46.4L141.6,-47.3L141.1,-45.8L140.0,-45.8L139.8,-47.1L140.3,-48.2L141.4,-48.3L141.7,-50.2L142.0,-51.3L143.1,-49.8L143.9,-49.3L144.6,-49.0ZM132.4,-35.5L132.9,-36.3L133.5,-36.1L133.9,-36.6L134.6,-36.4L134.8,-36.0L134.2,-35.2L133.8,-35.6L133.3,-35.3L133.0,-34.6L132.4,-35.0L132.4,-35.5Z" fill="#1e1e2e" stroke="#2a2a3a" stroke-width="0.3"/>
  <path d="M126.2,-40.8L126.2,-40.9L126.7,-40.9L127.1,-41.5L127.8,-41.5L128.2,-41.6L128.3,-41.9L129.2,-40.4L129.5,-39.6L129.5,-38.2L129.1,-37.5L128.2,-37.3L127.4,-36.8L126.5,-36.7L126.4,-37.3L126.6,-38.2L126.1,-39.5L126.9,-39.7L126.2,-40.8Z" fill="#00e5ff" stroke="#00c4dd" stroke-width="0.4" fill-opacity="0.9"/>
</svg>