<svg xmlns="http://www.w3.org/2000/svg" viewBox="21.89 -14.25 15.41 12.74" width="300" height="300" preserveAspectRatio="xMidYMid meet">
  <path d="M30.83,-3.51L29.95,-4.17L29.72,-4.60L29.16,-4.39L28.70,-4.46L28.43,-4.29L27.98,-4.41L27.37,-5.23L27.21,-5.55L26.47,-5.95L26.21,-6.55L25.80,-6.98L25.12,-7.50L25.11,-7.83L24.57,-8.23L23.89,-8.62L24.19,-8.73L24.54,-8.92L24.79,-9.81L25.07,-10.27L25.79,-10.41L25.96,-10.14L26.48,-9.55L26.75,-9.47L27.11,-9.64L27.83,-9.60L27.97,-9.40L28.97,-9.40L29.00,-9.60L29.52,-9.79L29.62,-10.08L30.00,-10.29L30.84,-9.71L31.35,-9.81L31.85,-10.53L32.40,-11.08L32.31,-11.68L32.07,-11.97L32.67,-12.02L32.74,-12.25L33.21,-12.18L33.09,-11.44L33.21,-10.72L33.72,-10.33L33.84,-9.98L33.82,-9.48L33.96,-9.46L33.97,-8.68L33.83,-8.38L33.29,-8.35L32.95,-7.78L33.57,-7.71L34.08,-7.23L34.25,-6.83L34.71,-6.59L35.30,-5.51L34.62,-4.85L34.01,-4.25L33.39,-3.79L32.69,-3.79L31.88,-3.56L31.25,-3.78L30.83,-3.51Z" fill="#00e5ff" stroke="#00e5ff" stroke-width="0.5" fill-opacity="0.8"/>
</svg>