<svg xmlns="http://www.w3.org/2000/svg" viewBox="1.3 7.7 46.5 44.5" width="400" height="300" preserveAspectRatio="xMidYMid meet">
  <rect x="1.3" y="7.7" width="46.5" height="44.5" fill="#0e0e18"/>
  <path d="M180.0,16.3L180.0,16.8L179.4,17.0L178.7,17.3L178.6,16.9L179.1,16.7L179.4,16.6L180.0,16.3ZM178.1,17.8L178.4,17.6L178.7,17.9L178.6,18.5L177.9,18.6L177.4,18.5L177.3,18.0L177.7,17.7L178.1,17.8ZM-179.8,16.2L-179.9,16.7L-180.0,16.8L-180.0,16.3L-179.8,16.2Z" fill="#1e1e2e" stroke="#2a2a3a" stroke-width="0.3"/>
  <path d="M33.9,1.0L34.1,1.1L37.7,3.1L37.8,3.7L39.2,4.7L38.7,5.9L38.8,6.5L39.4,6.9L39.5,7.1L39.2,7.7L39.3,8.0L39.2,8.5L39.5,9.2L39.9,10.2L40.3,10.4L40.3,10.4L39.5,11.0L38.4,11.4L37.8,11.3L37.5,11.6L36.8,11.7L36.5,11.8L35.3,11.5L34.6,11.6L34.3,10.2L33.9,9.7L33.7,9.5L32.8,9.3L32.2,9.0L31.6,8.8L31.2,8.6L30.7,8.4L30.7,8.4L30.2,7.1L29.6,6.5L29.4,6.0L29.5,5.4L29.3,4.5L29.8,4.5L30.1,4.1L30.5,3.6L30.8,3.4L30.7,3.0L30.5,2.8L30.5,2.4L30.5,2.4L30.8,2.3L30.8,1.7L30.4,1.1L30.8,1.0L31.9,1.0L33.9,1.0Z" fill="#1e1e2e" stroke="#2a2a3a" stroke-width="0.3"/>
  <path d="M29.3,4.5L29.5,5.4L29.4,6.0L29.6,6.5L30.2,7.1L30.7,8.4L30.7,8.4L30.3,8.3L29.0,8.4L28.7,8.6L28.4,9.2L28.7,9.7L28.5,10.9L28.4,11.9L28.6,12.1L29.3,12.5L29.6,12.3L29.7,13.4L28.9,13.4L28.5,12.8L28.2,12.4L27.4,12.2L27.2,11.7L26.6,12.0L25.8,11.9L25.4,11.4L24.8,11.3L24.3,11.3L24.3,11.0L23.9,11.0L23.5,10.9L22.8,11.1L22.4,11.1L22.2,11.2L22.2,9.9L21.9,9.6L21.8,8.9L21.9,8.3L21.7,7.9L21.7,7.3L20.5,7.3L20.6,7.0L20.1,7.0L20.0,7.1L19.4,7.2L19.2,7.8L19.0,8.0L18.5,7.9L18.1,8.0L17.5,8.1L17.1,7.6L16.9,7.2L16.6,6.6L16.3,5.9L13.4,5.9L13.0,6.0L12.7,6.0L12.3,6.1L12.2,5.8L12.4,5.7L12.5,5.3L12.6,5.0L13.0,4.8L13.3,4.9L13.6,4.5L14.1,4.5L14.2,4.8L14.6,5.0L15.2,4.3L15.8,3.9L16.0,3.5L16.0,2.7L16.4,1.7L16.9,1.2L17.5,0.7L17.6,0.4L17.7,0.1L17.8,-0.3L17.8,-0.9L17.9,-1.7L18.1,-2.4L18.4,-2.9L18.5,-3.5L18.5,-4.2L18.9,-4.7L19.5,-5.0L20.3,-4.7L20.9,-4.3L21.7,-4.2L22.4,-4.0L22.7,-4.6L22.8,-4.7L23.3,-4.6L24.4,-5.1L24.8,-4.9L25.1,-4.9L25.3,-5.2L25.7,-5.3L26.4,-5.2L27.0,-5.1L27.4,-5.2L28.0,-4.4L28.4,-4.3L28.7,-4.5L29.2,-4.4L29.7,-4.6L30.0,-4.2L30.8,-3.5L30.8,-3.5L30.8,-2.3L31.2,-2.2L30.9,-1.8L30.5,-1.6L30.1,-1.1L29.9,-0.6L29.8,0.2L29.6,0.6L29.6,1.3L29.3,1.6L29.3,2.2L29.1,2.3L29.0,2.8L29.3,3.3L29.3,4.5Z" fill="#1e1e2e" stroke="#2a2a3a" stroke-width="0.3"/>
  <path d="M29.0,30.3L29.3,30.6L29.0,31.2L28.8,31.6L28.3,31.7L28.1,32.1L27.7,32.2L27.0,31.3L27.5,30.6L28.1,30.2L28.5,29.9L29.0,30.3Z" fill="#1e1e2e" stroke="#2a2a3a" stroke-width="0.3"/>
  <path d="M31.2,22.8L30.7,22.7L30.3,22.9L29.8,22.7L29.4,22.7L28.8,22.2L28.0,22.0L27.7,21.3L27.7,21.0L27.3,20.8L26.2,19.7L25.9,19.1L25.6,18.9L25.3,18.0L26.4,18.1L26.7,18.3L27.0,18.2L27.6,17.6L28.5,16.7L28.8,16.6L28.9,16.3L29.5,15.8L30.3,15.7L30.3,16.1L31.2,16.1L31.6,16.3L31.9,16.5L32.3,16.6L32.8,17.0L32.8,18.3L32.7,19.0L32.6,19.8L32.8,20.1L32.7,20.7L32.5,20.8L32.2,21.6L31.2,22.8Z" fill="#1e1e2e" stroke="#2a2a3a" stroke-width="0.3"/>
  <path d="M29.4,22.7L28.0,23.5L27.1,24.3L26.8,25.0L26.5,25.4L25.9,25.5L25.8,26.0L25.7,26.4L25.0,26.6L24.2,26.6L23.7,26.3L23.3,26.1L22.8,26.4L22.6,26.9L22.1,27.3L21.6,27.8L20.9,27.9L20.7,27.5L20.8,26.8L20.2,25.7L19.9,25.6L19.9,22.4L20.9,22.4L20.9,18.6L21.7,18.5L23.2,18.2L23.6,18.6L24.2,18.2L24.5,18.2L25.1,17.9L25.3,18.0L25.6,18.9L25.9,19.1L26.2,19.7L27.3,20.8L27.7,21.0L27.7,21.3L28.0,22.0L28.8,22.2L29.4,22.7Z" fill="#1e1e2e" stroke="#2a2a3a" stroke-width="0.3"/>
  <path d="M19.9,25.6L19.9,29.7L19.0,30.3L18.5,30.4L17.8,30.2L17.4,30.1L17.2,29.6L16.8,29.3L16.3,29.8L15.6,29.0L15.2,28.2L15.0,27.1L14.7,26.3L14.4,24.6L14.4,23.3L14.3,22.7L13.9,22.2L13.4,21.4L12.8,20.1L12.6,19.4L11.8,18.4L11.7,17.6L12.2,17.4L12.8,17.2L13.5,17.2L14.1,17.7L14.2,17.6L18.3,17.6L19.0,18.1L21.4,18.2L23.2,17.8L24.0,17.6L24.7,17.6L25.1,17.9L25.1,17.9L24.5,18.2L24.2,18.2L23.6,18.6L23.2,18.2L21.7,18.5L20.9,18.6L20.9,22.4L19.9,22.4L19.9,25.6Z" fill="#1e1e2e" stroke="#2a2a3a" stroke-width="0.3"/>
  <path d="M30.7,8.4L31.2,8.6L31.6,8.8L32.2,9.0L32.8,9.3L33.2,9.7L33.5,10.6L33.3,10.9L33.1,11.7L33.3,12.5L33.0,12.9L32.7,13.8L33.2,14.1L30.2,15.0L30.3,15.7L29.5,15.8L28.9,16.3L28.8,16.6L28.5,16.7L27.6,17.6L27.0,18.2L26.7,18.3L26.4,18.1L25.3,18.0L25.1,17.9L25.1,17.9L24.7,17.6L24.0,17.6L23.2,17.8L22.6,17.1L21.9,16.3L21.9,13.0L24.0,13.0L23.9,12.7L24.1,12.3L23.9,11.8L24.0,11.3L23.9,11.0L24.3,11.0L24.3,11.3L24.8,11.3L25.4,11.4L25.8,11.9L26.6,12.0L27.2,11.7L27.4,12.2L28.2,12.4L28.5,12.8L28.9,13.4L29.7,13.4L29.6,12.3L29.3,12.5L28.6,12.1L28.4,11.9L28.5,10.9L28.7,9.7L28.4,9.2L28.7,8.6L29.0,8.4L30.3,8.3L30.7,8.4Z" fill="#1e1e2e" stroke="#2a2a3a" stroke-width="0.3"/>
  <path d="M32.8,9.3L33.7,9.5L33.9,9.7L34.3,10.2L34.6,11.6L34.3,12.4L34.6,13.7L34.9,13.7L35.3,14.0L35.7,14.8L35.8,16.1L35.3,16.3L35.0,17.0L34.4,16.4L34.3,15.7L34.5,15.2L34.5,14.8L34.1,14.5L33.8,14.6L33.2,14.1L32.7,13.8L33.0,12.9L33.3,12.5L33.1,11.7L33.3,10.9L33.5,10.6L33.2,9.7L32.8,9.3Z" fill="#1e1e2e" stroke="#2a2a3a" stroke-width="0.3"/>
  <path d="M34.6,11.6L35.3,11.5L36.5,11.8L36.8,11.7L37.5,11.6L37.8,11.3L38.4,11.4L39.5,11.0L40.3,10.4L40.3,10.4L40.3,10.4L40.5,10.8L40.4,11.8L40.6,12.7L40.6,14.3L40.8,14.9L40.5,15.6L40.1,16.3L39.5,17.0L38.5,17.4L37.4,17.9L36.3,19.0L35.9,19.2L35.2,19.9L34.8,20.2L34.7,20.9L35.2,21.8L35.4,22.4L35.4,22.7L35.6,22.7L35.5,23.7L35.4,24.2L35.6,24.4L35.5,24.9L35.0,25.3L34.2,25.6L33.0,26.2L32.6,26.6L32.7,27.1L32.9,27.2L32.8,27.8L32.1,27.8L32.0,27.3L31.8,26.8L31.8,26.4L31.9,25.1L31.7,24.4L31.2,22.8L32.2,21.6L32.5,20.8L32.7,20.7L32.8,20.1L32.6,19.8L32.7,19.0L32.8,18.3L32.8,17.0L32.3,16.6L31.9,16.5L31.6,16.3L31.2,16.1L30.3,16.1L30.3,15.7L30.2,15.0L33.2,14.1L33.8,14.6L34.1,14.5L34.5,14.8L34.5,15.2L34.3,15.7L34.4,16.4L35.0,17.0L35.3,16.3L35.8,16.1L35.7,14.8L35.3,14.0L34.9,13.7L34.6,13.7L34.3,12.4L34.6,11.6Z" fill="#1e1e2e" stroke="#2a2a3a" stroke-width="0.3"/>
  <path d="M32.1,27.8L31.9,28.3L31.3,28.4L30.7,27.8L30.7,27.4L30.9,27.0L31.0,26.6L31.3,26.6L31.8,26.8L32.0,27.3L32.1,27.8Z" fill="#1e1e2e" stroke="#2a2a3a" stroke-width="0.3"/>
  <path d="M13.0,4.8L12.6,5.0L12.5,5.3L12.4,5.7L12.2,5.8L11.9,5.0L12.3,4.6L12.6,4.4L13.0,4.8ZM12.3,6.1L12.7,6.0L13.0,6.0L13.4,5.9L16.3,5.9L16.6,6.6L16.9,7.2L17.1,7.6L17.5,8.1L18.1,8.0L18.5,7.9L19.0,8.0L19.2,7.8L19.4,7.2L20.0,7.1L20.1,7.0L20.6,7.0L20.5,7.3L21.7,7.3L21.7,7.9L21.9,8.3L21.8,8.9L21.9,9.6L22.2,9.9L22.2,11.2L22.4,11.1L22.8,11.1L23.5,10.9L23.9,11.0L24.0,11.3L23.9,11.8L24.1,12.3L23.9,12.7L24.0,13.0L21.9,13.0L21.9,16.3L22.6,17.1L23.2,17.8L21.4,18.2L19.0,18.1L18.3,17.6L14.2,17.6L14.1,17.7L13.5,17.2L12.8,17.2L12.2,17.4L11.7,17.6L11.6,16.9L11.8,16.0L12.1,15.0L12.2,14.6L12.5,13.7L12.7,13.3L13.3,12.6L13.6,12.1L13.7,11.4L13.7,10.8L13.4,10.4L13.1,9.8L12.9,9.2L12.9,9.0L13.2,8.6L12.9,7.6L12.7,6.9L12.2,6.3L12.3,6.1Z" fill="#1e1e2e" stroke="#2a2a3a" stroke-width="0.3"/>
  <path d="M49.5,12.6L49.8,13.0L50.1,13.7L50.2,14.9L50.5,15.4L50.4,15.9L50.2,16.2L49.9,15.6L49.7,15.9L49.9,16.7L49.8,17.1L49.5,17.4L49.4,18.3L49.0,19.5L48.5,20.9L47.9,23.0L47.5,24.5L47.1,25.8L46.3,26.0L45.4,26.5L44.8,26.2L44.0,25.8L43.8,25.2L43.7,24.3L43.3,23.4L43.3,22.6L43.4,21.8L43.9,21.7L43.9,21.3L44.4,20.5L44.5,19.8L44.2,19.3L44.0,18.7L44.0,17.7L44.3,17.1L44.4,16.4L44.9,16.4L45.5,16.2L45.9,16.0L46.3,16.0L46.9,15.4L47.7,14.8L48.0,14.2L47.9,13.8L48.3,13.9L48.8,13.2L48.9,12.6L49.2,12.1L49.5,12.6Z" fill="#1e1e2e" stroke="#2a2a3a" stroke-width="0.3"/>
  <path d="M16.3,29.8L16.8,29.3L17.2,29.6L17.4,30.1L17.8,30.2L18.5,30.4L19.0,30.3L19.9,29.7L19.9,25.6L20.2,25.7L20.8,26.8L20.7,27.5L20.9,27.9L21.6,27.8L22.1,27.3L22.6,26.9L22.8,26.4L23.3,26.1L23.7,26.3L24.2,26.6L25.0,26.6L25.7,26.4L25.8,26.0L25.9,25.5L26.5,25.4L26.8,25.0L27.1,24.3L28.0,23.5L29.4,22.7L29.8,22.7L30.3,22.9L30.7,22.7L31.2,22.8L31.7,24.4L31.9,25.1L31.8,26.4L31.8,26.8L31.3,26.6L31.0,26.6L30.9,27.0L30.7,27.4L30.7,27.8L31.3,28.4L31.9,28.3L32.1,27.8L32.8,27.8L32.6,28.6L32.5,29.5L32.2,30.0L31.5,30.6L31.3,30.8L30.9,31.4L30.6,32.0L30.1,32.8L28.9,34.0L28.2,34.7L27.5,35.3L26.4,35.7L25.9,35.8L25.8,36.1L25.2,35.9L24.7,36.2L23.6,35.9L23.0,36.1L22.6,36.0L21.5,36.5L20.7,36.7L20.1,37.2L19.6,37.2L19.2,36.8L18.9,36.7L18.4,36.2L18.4,36.4L18.2,36.0L18.3,35.3L17.9,34.5L18.2,34.3L18.2,33.4L17.6,32.3L17.1,31.3L17.1,31.3L16.3,29.8ZM29.0,30.3L28.5,29.9L28.1,30.2L27.5,30.6L27.0,31.3L27.7,32.2L28.1,32.1L28.3,31.7L28.8,31.6L29.0,31.2L29.3,30.6L29.0,30.3Z" fill="#00e5ff" stroke="#00c4dd" stroke-width="0.4" fill-opacity="0.9"/>
</svg>