<svg xmlns="http://www.w3.org/2000/svg" viewBox="-11.39 -45.75 16.43 11.80" width="300" height="300" preserveAspectRatio="xMidYMid meet">
  <path d="M-7.45,-37.10L-7.54,-37.43L-7.17,-37.80L-7.03,-38.08L-7.37,-38.37L-7.10,-39.03L-7.50,-39.63L-7.07,-39.71L-7.03,-40.18L-6.86,-40.33L-6.85,-41.11L-6.39,-41.38L-6.67,-41.88L-7.25,-41.92L-7.42,-41.79L-8.01,-41.79L-8.26,-42.28L-8.67,-42.13L-9.03,-41.88L-8.98,-42.59L-9.39,-43.03L-7.98,-43.75L-6.75,-43.57L-5.41,-43.57L-4.35,-43.40L-3.52,-43.46L-1.90,-43.42L-1.50,-43.03L0.34,-42.58L0.70,-42.80L1.83,-42.34L2.99,-42.47L3.04,-41.89L2.09,-41.23L0.81,-41.01L0.72,-40.68L0.11,-40.12L-0.28,-39.31L0.11,-38.74L-0.47,-38.29L-0.68,-37.64L-1.44,-37.44L-2.15,-36.67L-3.42,-36.66L-4.37,-36.68L-5.00,-36.32L-5.38,-35.95L-5.87,-36.03L-6.24,-36.37L-6.52,-36.94L-7.45,-37.10Z" fill="#00e5ff" stroke="#00e5ff" stroke-width="0.5" fill-opacity="0.8"/>
</svg>