<svg xmlns="http://www.w3.org/2000/svg" viewBox="19.94 -24.00 20.47 17.77" width="300" height="300" preserveAspectRatio="xMidYMid meet">
  <path d="M24.57,-8.23L23.81,-8.67L23.46,-8.95L23.39,-9.27L23.56,-9.68L23.55,-10.09L22.98,-10.71L22.86,-11.14L22.88,-11.38L22.51,-11.68L22.50,-12.26L22.29,-12.65L21.94,-12.59L22.04,-12.96L22.30,-13.37L22.18,-13.79L22.51,-14.09L22.30,-14.33L22.57,-14.94L23.02,-15.68L23.89,-15.61L23.84,-19.58L23.85,-20.00L25.00,-20.00L25.00,-22.00L29.02,-22.00L32.90,-22.00L36.87,-22.00L37.19,-21.02L36.97,-20.84L37.11,-19.81L37.48,-18.61L37.86,-18.37L38.41,-18.00L37.90,-17.43L37.17,-17.26L36.85,-16.96L36.75,-16.29L36.32,-14.82L36.43,-14.42L36.27,-13.56L35.86,-12.58L35.26,-12.08L34.83,-11.32L34.73,-10.91L34.26,-10.63L33.96,-9.58L33.97,-8.68L33.96,-9.46L33.82,-9.48L33.84,-9.98L33.72,-10.33L33.21,-10.72L33.09,-11.44L33.21,-12.18L32.74,-12.25L32.67,-12.02L32.07,-11.97L32.31,-11.68L32.40,-11.08L31.85,-10.53L31.35,-9.81L30.84,-9.71L30.00,-10.29L29.62,-10.08L29.52,-9.79L29.00,-9.60L28.97,-9.40L27.97,-9.40L27.83,-9.60L27.11,-9.64L26.75,-9.47L26.48,-9.55L25.96,-10.14L25.79,-10.41L25.07,-10.27L24.79,-9.81L24.54,-8.92L24.19,-8.73L23.89,-8.62L24.57,-8.23Z" fill="#00e5ff" stroke="#00e5ff" stroke-width="0.5" fill-opacity="0.8"/>
</svg>