<svg xmlns="http://www.w3.org/2000/svg" viewBox="9.03 -71.11 16.87 17.75" width="300" height="300" preserveAspectRatio="xMidYMid meet">
  <path d="M11.03,-58.86L11.47,-59.43L12.30,-60.12L12.63,-61.29L11.99,-61.80L11.93,-63.13L12.58,-64.07L13.57,-64.05L13.92,-64.45L13.56,-64.79L15.11,-66.19L16.11,-67.30L16.77,-68.01L17.73,-68.01L17.99,-68.57L19.88,-68.41L20.03,-69.07L20.65,-69.11L21.98,-68.62L23.54,-67.94L23.57,-66.40L23.90,-66.01L22.18,-65.72L21.21,-65.03L21.37,-64.41L19.78,-63.61L17.85,-62.75L17.12,-61.34L17.83,-60.64L18.79,-60.08L17.87,-58.95L16.83,-58.72L16.45,-57.04L15.88,-56.10L14.67,-56.20L14.10,-55.41L12.94,-55.36L12.63,-56.31L11.79,-57.44L11.03,-58.86Z" fill="#00e5ff" stroke="#00e5ff" stroke-width="0.5" fill-opacity="0.8"/>
</svg>