<svg xmlns="http://www.w3.org/2000/svg" viewBox="105.1 -41.2 31.8 33.6" width="400" height="300" preserveAspectRatio="xMidYMid meet">
  <rect x="105.1" y="-41.2" width="31.8" height="33.6" fill="#0e0e18"/>
  <path d="M102.6,-12.3L102.3,-13.5L103.0,-14.4L104.3,-14.6L105.2,-14.4L106.0,-14.0L106.5,-14.7L107.4,-14.4L107.6,-13.7L107.5,-12.4L105.8,-11.6L106.2,-11.0L105.2,-11.0L104.3,-10.5L103.5,-10.7L103.1,-11.2L102.6,-12.3Z" fill="#1e1e2e" stroke="#2a2a3a" stroke-width="0.3"/>
  <path d="M105.2,-14.4L104.3,-14.6L103.0,-14.4L102.3,-13.5L102.6,-12.3L101.7,-12.7L100.8,-12.7L101.0,-13.5L100.1,-13.5L100.0,-12.4L99.5,-10.9L99.2,-10.0L99.2,-9.3L99.9,-9.2L100.3,-8.3L100.5,-7.5L101.0,-6.9L101.6,-6.8L102.1,-6.2L101.8,-5.8L101.2,-5.7L101.1,-6.2L100.3,-6.7L100.1,-6.5L99.7,-6.9L99.5,-7.4L99.0,-7.9L98.5,-8.4L98.3,-7.8L98.2,-8.4L98.3,-9.0L98.6,-10.0L99.0,-11.0L99.6,-12.0L99.2,-12.9L99.2,-13.4L99.1,-14.0L98.4,-14.8L98.2,-15.3L98.5,-15.5L98.9,-16.4L98.5,-17.1L97.9,-17.8L97.4,-18.8L97.8,-19.0L98.3,-20.1L99.0,-20.2L99.5,-20.6L100.1,-20.9L100.5,-20.5L100.6,-19.9L101.3,-19.8L101.0,-18.7L101.1,-17.8L102.1,-18.4L102.4,-18.2L103.0,-18.3L103.2,-18.6L104.0,-18.6L104.7,-17.7L104.8,-16.7L105.6,-15.8L105.5,-14.9L105.2,-14.4Z" fill="#1e1e2e" stroke="#2a2a3a" stroke-width="0.3"/>
  <path d="M107.4,-14.4L106.5,-14.7L106.0,-14.0L105.2,-14.4L105.5,-14.9L105.6,-15.8L104.8,-16.7L104.7,-17.7L104.0,-18.6L103.2,-18.6L103.0,-18.3L102.4,-18.2L102.1,-18.4L101.1,-17.8L101.0,-18.7L101.3,-19.8L100.6,-19.9L100.5,-20.5L100.1,-20.9L100.3,-21.3L101.2,-22.0L101.3,-21.7L101.8,-21.7L101.7,-22.9L102.2,-23.1L102.8,-22.2L103.2,-21.2L104.4,-21.2L104.8,-20.3L104.2,-20.0L103.9,-19.6L105.1,-19.0L105.9,-17.8L106.6,-16.8L107.3,-16.1L107.6,-15.4L107.4,-14.4Z" fill="#1e1e2e" stroke="#2a2a3a" stroke-width="0.3"/>
  <path d="M104.3,-10.5L105.2,-11.0L106.2,-11.0L105.8,-11.6L107.5,-12.4L107.6,-13.7L107.4,-14.4L107.6,-15.4L107.3,-16.1L106.6,-16.8L105.9,-17.8L105.1,-19.0L103.9,-19.6L104.2,-20.0L104.8,-20.3L104.4,-21.2L103.2,-21.2L102.8,-22.2L102.2,-23.1L102.7,-23.3L103.5,-23.3L104.5,-23.4L105.3,-24.0L105.8,-23.6L106.7,-23.4L106.6,-22.8L107.0,-22.4L108.1,-22.1L106.7,-21.2L105.9,-20.2L105.7,-19.4L106.4,-18.3L107.4,-16.9L108.3,-16.3L108.9,-15.5L109.3,-13.6L109.2,-11.7L108.4,-11.1L107.2,-10.4L106.4,-9.6L105.2,-8.6L104.8,-9.3L105.1,-10.0L104.3,-10.5Z" fill="#1e1e2e" stroke="#2a2a3a" stroke-width="0.3"/>
  <path d="M130.8,-46.7L130.8,-46.7L130.8,-46.7L130.8,-46.7ZM130.6,-46.9L130.6,-46.9L130.8,-46.7L130.4,-46.7L130.0,-46.3L129.7,-45.8L129.7,-44.9L129.2,-44.6L129.0,-44.3L128.6,-44.0L128.0,-43.7L127.5,-43.4L127.5,-42.8L127.4,-42.7L127.8,-42.5L128.3,-41.9L128.2,-41.6L127.8,-41.5L127.1,-41.5L126.7,-40.9L126.2,-40.9L126.2,-40.8L125.7,-41.1L125.6,-40.8L125.3,-40.7L125.2,-41.0L125.0,-41.1L124.7,-41.3L125.0,-41.8L125.2,-42.0L125.1,-42.2L125.4,-42.9L125.3,-43.1L124.7,-43.3L124.3,-43.6L125.1,-44.5L126.2,-45.2L126.9,-46.1L127.3,-45.7L128.2,-45.6L128.1,-46.4L129.6,-46.9L130.0,-47.7L130.6,-46.9Z" fill="#1e1e2e" stroke="#2a2a3a" stroke-width="0.3"/>
  <path d="M126.2,-40.8L126.2,-40.9L126.7,-40.9L127.1,-41.5L127.8,-41.5L128.2,-41.6L128.3,-41.9L129.2,-40.4L129.5,-39.6L129.5,-38.2L129.1,-37.5L128.2,-37.3L127.4,-36.8L126.5,-36.7L126.4,-37.3L126.6,-38.2L126.1,-39.5L126.9,-39.7L126.2,-40.8Z" fill="#1e1e2e" stroke="#2a2a3a" stroke-width="0.3"/>
  <path d="M109.5,-18.5L108.7,-18.8L108.6,-19.7L109.1,-20.2L110.2,-20.5L110.8,-20.5L111.0,-20.1L110.6,-19.6L110.3,-19.0L109.5,-18.5ZM80.3,-46.8L80.2,-47.6L80.9,-48.0L80.0,-50.4L81.9,-50.9L82.5,-51.3L83.2,-53.9L85.2,-53.4L85.7,-54.0L85.8,-55.5L86.6,-55.7L87.4,-56.7L87.8,-56.8L88.0,-55.8L88.9,-55.0L90.3,-54.4L91.0,-53.2L90.6,-51.5L90.9,-50.9L92.1,-50.7L93.5,-50.5L94.7,-49.6L95.3,-49.4L95.8,-48.2L96.3,-47.3L97.5,-47.4L99.5,-47.1L100.8,-47.3L101.8,-47.1L103.3,-46.2L104.5,-46.2L105.0,-45.8L106.1,-46.5L107.7,-47.0L109.2,-47.1L110.4,-47.5L111.1,-48.3L111.8,-48.7L111.7,-49.2L111.3,-49.7L111.9,-50.6L112.4,-50.5L113.5,-50.2L114.5,-51.0L116.0,-51.5L116.7,-52.5L117.4,-52.9L118.9,-53.1L119.7,-52.9L119.8,-53.4L118.9,-54.5L118.1,-55.0L117.3,-54.4L116.3,-54.6L115.7,-54.5L115.5,-55.1L116.2,-56.6L116.7,-57.7L117.9,-57.2L119.3,-58.1L119.3,-58.8L120.2,-60.5L120.7,-61.0L120.7,-61.9L120.2,-62.3L121.0,-63.1L122.2,-63.5L123.6,-63.5L125.1,-63.0L125.9,-62.4L126.6,-60.7L126.9,-60.0L127.3,-59.1L127.7,-57.5L129.4,-57.0L130.6,-56.0L131.0,-54.5L132.5,-54.5L133.4,-55.1L135.0,-55.6L134.5,-54.2L134.1,-53.7L133.8,-52.1L133.1,-50.7L131.9,-51.0L131.0,-50.5L131.3,-49.3L131.1,-47.6L130.6,-47.6L130.6,-46.9L130.0,-47.7L129.6,-46.9L128.1,-46.4L128.2,-45.6L127.3,-45.7L126.9,-46.1L126.2,-45.2L125.1,-44.5L124.3,-43.6L122.9,-43.2L122.1,-42.6L121.1,-42.3L121.6,-42.9L121.4,-43.4L122.2,-44.3L121.6,-45.0L120.8,-44.5L119.6,-43.6L119.0,-42.7L118.0,-42.7L117.5,-42.1L118.1,-41.2L118.9,-41.0L118.9,-40.4L119.7,-40.1L120.8,-41.0L121.7,-40.5L122.4,-40.4L122.5,-39.8L121.1,-39.4L120.6,-38.8L119.7,-38.2L119.2,-37.3L120.2,-36.6L120.6,-35.4L121.2,-34.4L121.9,-33.4L121.9,-32.6L121.3,-32.3L121.5,-31.6L122.1,-31.3L121.9,-30.3L121.7,-29.4L121.1,-29.3L120.4,-28.1L119.6,-26.7L118.7,-25.3L117.3,-24.3L115.9,-23.4L114.8,-23.3L114.2,-22.8L113.8,-23.2L113.2,-22.6L111.8,-22.1L110.8,-21.9L110.4,-20.8L109.9,-20.7L109.6,-21.5L109.9,-21.9L108.5,-22.3L108.1,-22.1L107.0,-22.4L106.6,-22.8L106.7,-23.4L105.8,-23.6L105.3,-24.0L104.5,-23.4L103.5,-23.3L102.7,-23.3L102.2,-23.1L101.7,-22.9L101.8,-21.7L101.3,-21.7L101.2,-22.0L101.2,-22.4L100.4,-22.1L100.0,-22.3L99.2,-22.7L99.5,-23.6L98.9,-23.8L98.7,-24.8L97.6,-24.6L97.7,-25.9L98.7,-26.9L98.7,-27.8L98.7,-28.6L98.2,-28.9L97.9,-29.6L97.3,-29.5L96.2,-29.7L96.6,-30.1L96.1,-30.8L95.4,-30.4L94.6,-30.6L93.4,-29.9L92.5,-29.1L91.7,-28.9L91.3,-29.2L90.7,-29.3L90.0,-29.5L89.5,-29.2L88.8,-28.4L88.7,-29.3L88.1,-29.0L87.0,-29.2L85.8,-29.4L85.0,-29.9L84.2,-30.1L83.9,-30.7L83.3,-30.9L82.3,-31.6L81.5,-32.0L81.1,-31.7L79.7,-32.5L78.7,-33.2L78.5,-34.5L79.2,-34.4L79.2,-35.0L78.8,-35.6L78.9,-36.6L77.8,-38.0L76.2,-38.5L75.9,-39.5L75.2,-40.0L75.0,-40.4L74.8,-41.1L74.9,-41.6L74.3,-41.9L73.9,-41.8L73.7,-43.0L74.0,-43.3L73.8,-43.6L74.8,-44.2L75.5,-44.4L76.5,-44.3L76.9,-45.1L78.2,-45.3L78.5,-45.8L80.1,-46.5L80.3,-46.8Z" fill="#1e1e2e" stroke="#2a2a3a" stroke-width="0.3"/>
  <path d="M120.8,-12.8L120.3,-13.6L121.2,-13.6L121.5,-13.2L121.3,-12.3L120.8,-12.8ZM122.6,-10.0L122.8,-10.3L122.9,-10.9L123.5,-11.0L123.3,-10.3L124.1,-11.3L124.0,-10.3L123.6,-10.0L123.3,-9.4L123.0,-9.1L122.4,-9.8L122.6,-10.0ZM126.4,-8.4L126.5,-7.8L126.5,-7.2L126.2,-6.3L125.8,-7.3L125.4,-6.8L125.7,-6.1L125.4,-5.6L124.2,-6.2L123.9,-6.9L124.2,-7.4L123.6,-7.9L123.3,-7.4L122.8,-7.5L122.1,-6.9L121.9,-7.2L122.3,-8.1L122.9,-8.3L123.5,-8.7L123.8,-8.3L124.6,-8.5L124.8,-9.0L125.5,-9.0L125.4,-9.8L126.2,-9.3L126.3,-8.8L126.4,-8.4ZM118.5,-9.4L117.2,-8.4L117.7,-9.1L118.4,-9.7L119.0,-10.4L119.5,-11.4L119.7,-10.6L119.0,-10.1L118.5,-9.4ZM122.3,-18.5L122.2,-18.1L122.5,-17.4L122.3,-16.5L121.7,-16.1L121.5,-15.3L121.7,-14.5L122.3,-14.4L122.7,-14.5L124.0,-13.9L123.9,-13.4L124.2,-13.1L124.1,-12.6L123.3,-13.1L122.9,-13.7L122.7,-13.3L122.0,-13.9L121.1,-13.8L120.6,-14.0L120.7,-14.4L121.0,-14.7L120.7,-14.9L120.6,-14.6L120.1,-15.1L119.9,-15.6L119.9,-16.6L120.3,-16.2L120.4,-17.9L120.7,-18.8L121.3,-18.8L121.9,-18.5L122.2,-18.8L122.3,-18.5ZM122.0,-11.5L121.9,-12.0L122.5,-11.7L123.1,-11.7L123.1,-11.2L122.6,-10.8L122.0,-10.5L122.0,-11.0L122.0,-11.5ZM125.5,-12.3L125.8,-11.1L125.0,-11.4L125.0,-11.0L125.3,-10.4L124.8,-10.2L124.8,-10.9L124.5,-11.0L124.3,-11.6L124.9,-11.5L124.9,-11.9L124.3,-12.7L125.2,-12.6L125.5,-12.3Z" fill="#1e1e2e" stroke="#2a2a3a" stroke-width="0.3"/>
  <path d="M141.9,-42.6L141.0,-41.4L141.0,-40.1L140.6,-39.1L140.8,-38.4L140.3,-37.6L139.0,-37.0L137.2,-36.9L135.8,-35.5L135.1,-36.0L135.1,-36.9L133.3,-36.6L132.2,-36.1L131.0,-36.1L132.0,-35.2L131.3,-33.2L130.7,-32.7L130.2,-33.1L130.4,-34.2L129.8,-34.5L129.4,-35.3L130.4,-35.7L130.9,-36.5L131.9,-37.1L132.6,-37.9L134.6,-38.3L135.7,-38.1L136.7,-40.3L137.4,-39.7L138.9,-40.9L139.4,-41.4L140.1,-43.0L139.9,-44.4L140.3,-45.3L141.4,-45.5L141.9,-43.7L141.9,-42.6ZM144.6,-49.0L145.3,-49.6L145.5,-48.1L144.1,-47.7L143.2,-46.4L141.6,-47.3L141.1,-45.8L140.0,-45.8L139.8,-47.1L140.3,-48.2L141.4,-48.3L141.7,-50.2L142.0,-51.3L143.1,-49.8L143.9,-49.3L144.6,-49.0ZM132.4,-35.5L132.9,-36.3L133.5,-36.1L133.9,-36.6L134.6,-36.4L134.8,-36.0L134.2,-35.2L133.8,-35.6L133.3,-35.3L133.0,-34.6L132.4,-35.0L132.4,-35.5Z" fill="#1e1e2e" stroke="#2a2a3a" stroke-width="0.3"/>
  <path d="M121.8,-25.2L121.2,-23.4L120.7,-22.5L120.2,-23.4L120.1,-24.2L120.7,-25.3L121.5,-26.2L122.0,-25.8L121.8,-25.2Z" fill="#00e5ff" stroke="#00c4dd" stroke-width="0.4" fill-opacity="0.9"/>
</svg>