<svg xmlns="http://www.w3.org/2000/svg" viewBox="65.44 -42.96 11.54 8.22" width="300" height="300" preserveAspectRatio="xMidYMid meet">
  <path d="M67.83,-37.14L68.39,-38.16L68.18,-38.90L67.44,-39.14L67.70,-39.58L68.54,-39.53L69.01,-40.09L69.33,-40.73L70.67,-40.96L70.46,-40.50L70.60,-40.22L71.01,-40.24L70.65,-39.94L69.56,-40.10L69.46,-39.53L70.55,-39.60L71.78,-39.28L73.68,-39.43L73.93,-38.51L74.26,-38.61L74.86,-38.38L74.83,-37.99L74.98,-37.42L73.95,-37.42L73.26,-37.50L72.64,-37.05L72.19,-36.95L71.84,-36.74L71.45,-37.07L71.54,-37.91L71.24,-37.95L71.35,-38.26L70.81,-38.49L70.38,-38.14L70.27,-37.74L70.12,-37.59L69.52,-37.61L69.20,-37.15L68.86,-37.34L68.14,-37.02L67.83,-37.14Z" fill="#00e5ff" stroke="#00e5ff" stroke-width="0.5" fill-opacity="0.8"/>
</svg>