<svg xmlns="http://www.w3.org/2000/svg" viewBox="27.34 -1.05 14.98 14.77" width="300" height="300" preserveAspectRatio="xMidYMid meet">
  <path d="M33.90,0.95L34.07,1.06L37.70,3.10L37.77,3.68L39.20,4.68L38.74,5.91L38.80,6.48L39.44,6.84L39.47,7.10L39.19,7.70L39.25,8.01L39.19,8.49L39.54,9.11L39.95,10.10L40.32,10.32L40.32,10.32L39.52,10.90L38.43,11.29L37.83,11.27L37.47,11.57L36.78,11.59L36.51,11.72L35.31,11.44L34.56,11.52L34.28,10.16L33.94,9.69L33.74,9.42L32.76,9.23L32.19,8.93L31.56,8.76L31.16,8.59L30.74,8.34L30.74,8.34L30.20,7.08L29.62,6.52L29.42,5.94L29.52,5.42L29.34,4.50L29.75,4.45L30.12,4.09L30.51,3.57L30.75,3.36L30.74,3.03L30.53,2.81L30.47,2.41L30.47,2.41L30.76,2.29L30.82,1.70L30.42,1.13L30.77,1.01L31.87,1.03L33.90,0.95Z" fill="#00e5ff" stroke="#00e5ff" stroke-width="0.5" fill-opacity="0.8"/>
</svg>