<svg xmlns="http://www.w3.org/2000/svg" viewBox="95.38 -22.42 12.21 18.73" width="300" height="300" preserveAspectRatio="xMidYMid meet">
  <path d="M105.22,-14.27L104.28,-14.42L102.99,-14.23L102.35,-13.39L102.58,-12.19L101.69,-12.65L100.83,-12.63L100.98,-13.41L100.10,-13.41L100.02,-12.31L99.48,-10.85L99.15,-9.96L99.22,-9.24L99.87,-9.21L100.28,-8.30L100.46,-7.43L101.02,-6.86L101.62,-6.74L102.14,-6.22L101.81,-5.81L101.15,-5.69L101.08,-6.20L100.26,-6.64L100.09,-6.46L99.69,-6.85L99.52,-7.34L98.99,-7.91L98.50,-8.38L98.34,-7.79L98.15,-8.35L98.26,-8.97L98.55,-9.93L99.04,-10.96L99.59,-11.89L99.20,-12.80L99.21,-13.27L99.10,-13.83L98.43,-14.62L98.19,-15.12L98.54,-15.31L98.90,-16.18L98.49,-16.84L97.86,-17.57L97.38,-18.45L97.80,-18.63L98.25,-19.71L98.96,-19.75L99.54,-20.19L100.12,-20.42L100.55,-20.11L100.61,-19.51L101.28,-19.46L101.04,-18.41L101.06,-17.51L102.11,-18.11L102.41,-17.93L103.00,-17.96L103.20,-18.31L103.96,-18.24L104.72,-17.43L104.78,-16.44L105.59,-15.57L105.54,-14.72L105.22,-14.27Z" fill="#00e5ff" stroke="#00e5ff" stroke-width="0.5" fill-opacity="0.8"/>
</svg>