<svg xmlns="http://www.w3.org/2000/svg" viewBox="5.52 -39.35 7.97 11.04" width="300" height="300" preserveAspectRatio="xMidYMid meet">
  <path d="M9.48,-30.31L9.06,-32.10L8.44,-32.51L8.43,-32.75L7.61,-33.34L7.52,-34.10L8.14,-34.66L8.38,-35.48L8.22,-36.43L8.42,-36.95L9.51,-37.35L10.21,-37.23L10.18,-36.72L11.03,-37.09L11.10,-36.90L10.60,-36.41L10.59,-35.95L10.94,-35.70L10.81,-34.83L10.15,-34.33L10.34,-33.79L10.86,-33.77L11.11,-33.29L11.49,-33.14L11.43,-32.37L10.94,-32.08L10.64,-31.76L9.95,-31.38L10.06,-30.96L9.97,-30.54L9.48,-30.31Z" fill="#00e5ff" stroke="#00e5ff" stroke-width="0.5" fill-opacity="0.8"/>
</svg>