<svg xmlns="http://www.w3.org/2000/svg" viewBox="50.50 -44.75 18.05 11.48" width="300" height="300" preserveAspectRatio="xMidYMid meet">
  <path d="M52.50,-41.78L52.94,-42.12L54.08,-42.32L54.76,-42.04L55.46,-41.26L55.97,-41.31L57.10,-41.32L56.93,-41.83L57.79,-42.17L58.63,-42.75L59.98,-42.22L60.08,-41.43L60.47,-41.22L61.55,-41.27L61.88,-41.08L62.37,-40.05L63.52,-39.36L64.17,-38.89L65.22,-38.40L66.55,-37.97L66.52,-37.36L66.22,-37.39L65.75,-37.66L65.59,-37.31L64.75,-37.11L64.55,-36.31L63.98,-36.01L63.19,-35.86L62.98,-35.40L62.23,-35.27L61.21,-35.65L61.12,-36.49L60.38,-36.53L59.23,-37.41L58.44,-37.52L57.33,-38.03L56.62,-38.12L56.18,-37.94L55.51,-37.96L54.80,-37.39L53.92,-37.20L53.74,-37.91L53.88,-38.95L53.10,-39.29L53.36,-39.98L52.69,-40.03L52.92,-40.88L53.86,-40.63L54.74,-40.95L54.01,-41.55L53.72,-42.12L52.92,-41.87L52.81,-41.14L52.50,-41.78Z" fill="#00e5ff" stroke="#00e5ff" stroke-width="0.5" fill-opacity="0.8"/>
</svg>