<svg xmlns="http://www.w3.org/2000/svg" viewBox="24.04 -44.14 22.75 10.32" width="300" height="300" preserveAspectRatio="xMidYMid meet">
  <path d="M44.77,-37.17L44.29,-37.00L43.94,-37.26L42.78,-37.39L42.35,-37.23L41.21,-37.07L40.67,-37.09L39.52,-36.72L38.70,-36.71L38.17,-36.90L37.07,-36.62L36.74,-36.82L36.69,-36.26L36.42,-36.04L36.15,-35.82L35.78,-36.27L36.16,-36.65L35.55,-36.57L34.71,-36.80L34.03,-36.22L32.51,-36.11L31.70,-36.64L30.62,-36.68L30.39,-36.26L29.70,-36.14L28.73,-36.68L27.64,-36.66L27.05,-37.65L26.32,-38.21L26.80,-38.99L26.17,-39.46L27.28,-40.42L28.82,-40.46L29.24,-41.22L31.15,-41.09L32.35,-41.74L33.51,-42.02L35.17,-42.04L36.91,-41.34L38.35,-40.95L39.51,-41.10L40.37,-41.01L41.55,-41.54L42.62,-41.58L43.58,-41.09L43.75,-40.74L43.66,-40.25L44.40,-40.01L44.79,-39.71L44.11,-39.43L44.42,-38.28L44.23,-37.97L44.77,-37.17L44.77,-37.17ZM26.12,-41.83L27.14,-42.14L28.00,-42.01L28.12,-41.62L28.99,-41.30L28.81,-41.05L27.62,-41.00L27.19,-40.69L26.36,-40.15L26.04,-40.62L26.06,-40.82L26.29,-40.94L26.60,-41.56L26.12,-41.83Z" fill="#00e5ff" stroke="#00e5ff" stroke-width="0.5" fill-opacity="0.8"/>
</svg>