<svg xmlns="http://www.w3.org/2000/svg" viewBox="14.6 -19.3 35.5 35.7" width="400" height="300" preserveAspectRatio="xMidYMid meet">
  <rect x="14.6" y="-19.3" width="35.5" height="35.7" fill="#0e0e18"/>
  <path d="M180.0,16.3L180.0,16.8L179.4,17.0L178.7,17.3L178.6,16.9L179.1,16.7L179.4,16.6L180.0,16.3ZM178.1,17.8L178.4,17.6L178.7,17.9L178.6,18.5L177.9,18.6L177.4,18.5L177.3,18.0L177.7,17.7L178.1,17.8ZM-179.8,16.2L-179.9,16.7L-180.0,16.8L-180.0,16.3L-179.8,16.2Z" fill="#1e1e2e" stroke="#2a2a3a" stroke-width="0.3"/>
  <path d="M33.9,1.0L34.1,1.1L37.7,3.1L37.8,3.7L39.2,4.7L38.7,5.9L38.8,6.5L39.4,6.9L39.5,7.1L39.2,7.7L39.3,8.0L39.2,8.5L39.5,9.2L39.9,10.2L40.3,10.4L40.3,10.4L39.5,11.0L38.4,11.4L37.8,11.3L37.5,11.6L36.8,11.7L36.5,11.8L35.3,11.5L34.6,11.6L34.3,10.2L33.9,9.7L33.7,9.5L32.8,9.3L32.2,9.0L31.6,8.8L31.2,8.6L30.7,8.4L30.7,8.4L30.2,7.1L29.6,6.5L29.4,6.0L29.5,5.4L29.3,4.5L29.8,4.5L30.1,4.1L30.5,3.6L30.8,3.4L30.7,3.0L30.5,2.8L30.5,2.4L30.5,2.4L30.8,2.3L30.8,1.7L30.4,1.1L30.8,1.0L31.9,1.0L33.9,1.0Z" fill="#1e1e2e" stroke="#2a2a3a" stroke-width="0.3"/>
  <path d="M29.3,4.5L29.5,5.4L29.4,6.0L29.6,6.5L30.2,7.1L30.7,8.4L30.7,8.4L30.3,8.3L29.0,8.4L28.7,8.6L28.4,9.2L28.7,9.7L28.5,10.9L28.4,11.9L28.6,12.1L29.3,12.5L29.6,12.3L29.7,13.4L28.9,13.4L28.5,12.8L28.2,12.4L27.4,12.2L27.2,11.7L26.6,12.0L25.8,11.9L25.4,11.4L24.8,11.3L24.3,11.3L24.3,11.0L23.9,11.0L23.5,10.9L22.8,11.1L22.4,11.1L22.2,11.2L22.2,9.9L21.9,9.6L21.8,8.9L21.9,8.3L21.7,7.9L21.7,7.3L20.5,7.3L20.6,7.0L20.1,7.0L20.0,7.1L19.4,7.2L19.2,7.8L19.0,8.0L18.5,7.9L18.1,8.0L17.5,8.1L17.1,7.6L16.9,7.2L16.6,6.6L16.3,5.9L13.4,5.9L13.0,6.0L12.7,6.0L12.3,6.1L12.2,5.8L12.4,5.7L12.5,5.3L12.6,5.0L13.0,4.8L13.3,4.9L13.6,4.5L14.1,4.5L14.2,4.8L14.6,5.0L15.2,4.3L15.8,3.9L16.0,3.5L16.0,2.7L16.4,1.7L16.9,1.2L17.5,0.7L17.6,0.4L17.7,0.1L17.8,-0.3L17.8,-0.9L17.9,-1.7L18.1,-2.4L18.4,-2.9L18.5,-3.5L18.5,-4.2L18.9,-4.7L19.5,-5.0L20.3,-4.7L20.9,-4.3L21.7,-4.2L22.4,-4.0L22.7,-4.6L22.8,-4.7L23.3,-4.6L24.4,-5.1L24.8,-4.9L25.1,-4.9L25.3,-5.2L25.7,-5.3L26.4,-5.2L27.0,-5.1L27.4,-5.2L28.0,-4.4L28.4,-4.3L28.7,-4.5L29.2,-4.4L29.7,-4.6L30.0,-4.2L30.8,-3.5L30.8,-3.5L30.8,-2.3L31.2,-2.2L30.9,-1.8L30.5,-1.6L30.1,-1.1L29.9,-0.6L29.8,0.2L29.6,0.6L29.6,1.3L29.3,1.6L29.3,2.2L29.1,2.3L29.0,2.8L29.3,3.3L29.3,4.5Z" fill="#1e1e2e" stroke="#2a2a3a" stroke-width="0.3"/>
  <path d="M41.6,1.7L41.0,0.9L41.0,-2.8L41.9,-3.9L42.1,-4.2L42.8,-4.3L43.7,-5.0L45.0,-5.0L47.8,-8.0L48.5,-8.9L48.9,-9.5L48.9,-10.0L48.9,-11.1L48.9,-11.5L48.9,-11.5L48.9,-11.5L49.3,-11.5L49.7,-11.7L50.3,-11.8L50.7,-12.1L51.1,-12.1L51.1,-11.8L51.0,-11.2L51.0,-10.7L50.8,-10.3L50.6,-9.2L50.1,-8.1L49.5,-6.8L48.6,-5.3L47.7,-4.2L46.6,-2.9L45.6,-2.0L44.1,-1.1L43.1,-0.3L42.0,0.9L41.8,1.4L41.6,1.7Z" fill="#1e1e2e" stroke="#2a2a3a" stroke-width="0.3"/>
  <path d="M39.2,4.7L37.8,3.7L37.7,3.1L34.1,1.1L33.9,1.0L33.9,-0.1L34.2,-0.5L34.7,-1.2L35.0,-1.9L34.6,-3.1L34.5,-3.6L34.0,-4.3L34.6,-4.9L35.3,-5.5L35.8,-5.3L35.8,-4.8L36.2,-4.5L36.9,-4.5L38.1,-3.6L38.4,-3.6L38.7,-3.6L38.9,-3.5L39.6,-3.4L39.9,-3.8L40.8,-4.3L41.2,-3.9L41.9,-3.9L41.0,-2.8L41.0,0.9L41.6,1.7L40.9,2.1L40.6,2.5L40.3,2.6L40.1,3.3L39.8,3.7L39.6,4.4L39.2,4.7Z" fill="#1e1e2e" stroke="#2a2a3a" stroke-width="0.3"/>
  <path d="M24.6,-8.3L23.8,-8.7L23.5,-9.0L23.4,-9.3L23.6,-9.7L23.6,-10.1L23.0,-10.8L22.9,-11.2L22.9,-11.5L22.5,-11.8L22.5,-12.4L22.3,-12.7L21.9,-12.7L22.0,-13.1L22.3,-13.5L22.2,-13.9L22.5,-14.2L22.3,-14.5L22.6,-15.1L23.0,-15.9L23.9,-15.8L23.8,-20.0L23.9,-20.4L25.0,-20.4L25.0,-22.6L29.0,-22.6L32.9,-22.6L36.9,-22.6L37.2,-21.5L37.0,-21.3L37.1,-20.2L37.5,-19.0L37.9,-18.7L38.4,-18.3L37.9,-17.7L37.2,-17.5L36.9,-17.2L36.8,-16.5L36.3,-15.0L36.4,-14.6L36.3,-13.7L35.9,-12.7L35.3,-12.2L34.8,-11.4L34.7,-11.0L34.3,-10.7L34.0,-9.6L34.0,-8.7L34.0,-9.5L33.8,-9.5L33.8,-10.0L33.7,-10.4L33.2,-10.8L33.1,-11.5L33.2,-12.3L32.7,-12.3L32.7,-12.1L32.1,-12.1L32.3,-11.8L32.4,-11.2L31.9,-10.6L31.4,-9.9L30.8,-9.8L30.0,-10.3L29.6,-10.1L29.5,-9.8L29.0,-9.6L29.0,-9.4L28.0,-9.4L27.8,-9.6L27.1,-9.7L26.8,-9.5L26.5,-9.6L26.0,-10.2L25.8,-10.5L25.1,-10.3L24.8,-9.9L24.5,-9.0L24.2,-8.8L23.9,-8.7L24.6,-8.3Z" fill="#1e1e2e" stroke="#2a2a3a" stroke-width="0.3"/>
  <path d="M23.8,-20.0L23.9,-15.8L23.0,-15.9L22.6,-15.1L22.3,-14.5L22.5,-14.2L22.2,-13.9L22.3,-13.5L22.0,-13.1L21.9,-12.7L22.3,-12.7L22.5,-12.4L22.5,-11.8L22.9,-11.5L22.9,-11.2L22.2,-11.0L21.7,-10.6L21.0,-9.5L20.1,-9.1L19.1,-9.1L18.8,-9.0L18.9,-8.7L18.4,-8.3L18.0,-7.9L16.7,-7.5L16.5,-7.8L16.3,-7.8L16.1,-7.5L15.3,-7.4L15.4,-7.7L15.1,-8.4L15.0,-8.8L14.5,-9.0L14.0,-9.6L14.2,-10.1L14.6,-10.0L14.9,-10.0L15.5,-10.0L14.9,-11.0L15.0,-11.6L14.9,-12.3L14.5,-13.0L14.6,-13.5L14.0,-13.5L14.0,-14.1L13.5,-14.5L14.0,-15.9L15.2,-16.9L15.3,-18.2L15.7,-20.4L15.9,-20.8L15.5,-21.2L15.5,-21.5L15.1,-21.8L14.9,-23.5L15.9,-24.1L19.8,-22.0L23.8,-20.0Z" fill="#1e1e2e" stroke="#2a2a3a" stroke-width="0.3"/>
  <path d="M31.2,22.8L30.7,22.7L30.3,22.9L29.8,22.7L29.4,22.7L28.8,22.2L28.0,22.0L27.7,21.3L27.7,21.0L27.3,20.8L26.2,19.7L25.9,19.1L25.6,18.9L25.3,18.0L26.4,18.1L26.7,18.3L27.0,18.2L27.6,17.6L28.5,16.7L28.8,16.6L28.9,16.3L29.5,15.8L30.3,15.7L30.3,16.1L31.2,16.1L31.6,16.3L31.9,16.5L32.3,16.6L32.8,17.0L32.8,18.3L32.7,19.0L32.6,19.8L32.8,20.1L32.7,20.7L32.5,20.8L32.2,21.6L31.2,22.8Z" fill="#1e1e2e" stroke="#2a2a3a" stroke-width="0.3"/>
  <path d="M14.9,-23.5L15.1,-21.8L15.5,-21.5L15.5,-21.2L15.9,-20.8L15.7,-20.4L15.3,-18.2L15.2,-16.9L14.0,-15.9L13.5,-14.5L14.0,-14.1L14.0,-13.5L14.6,-13.5L14.5,-13.0L14.2,-12.9L14.2,-12.6L14.0,-12.6L13.3,-13.7L13.1,-13.7L12.3,-13.2L11.5,-13.5L11.0,-13.5L10.7,-13.4L10.1,-13.4L9.5,-13.0L9.0,-12.9L7.8,-13.5L7.3,-13.2L6.8,-13.2L6.4,-13.6L5.4,-14.0L4.4,-13.9L4.1,-13.7L4.0,-13.1L3.7,-12.7L3.6,-11.7L2.8,-12.3L2.5,-12.3L2.2,-12.0L2.2,-12.7L1.0,-13.0L1.0,-13.5L0.4,-14.1L0.3,-14.6L0.4,-15.1L1.0,-15.1L1.4,-15.5L2.7,-15.6L3.6,-15.8L3.7,-16.4L4.3,-17.1L4.3,-19.5L5.7,-20.0L8.6,-22.1L12.0,-24.2L13.6,-23.7L14.1,-23.1L14.9,-23.5Z" fill="#1e1e2e" stroke="#2a2a3a" stroke-width="0.3"/>
  <path d="M14.5,-13.0L14.9,-12.3L15.0,-11.6L14.9,-11.0L15.5,-10.0L14.9,-10.0L14.6,-10.0L14.2,-10.1L14.0,-9.6L14.5,-9.0L15.0,-8.8L15.1,-8.4L15.4,-7.7L15.3,-7.4L14.8,-6.4L14.5,-6.2L14.5,-5.5L14.6,-5.0L14.5,-4.7L15.0,-4.2L15.0,-3.9L15.4,-3.3L15.9,-3.0L15.9,-2.6L16.0,-2.3L15.9,-1.7L15.1,-2.0L14.3,-2.2L13.1,-2.3L13.0,-2.3L12.4,-2.2L11.8,-2.3L11.3,-2.3L9.6,-2.3L9.8,-3.1L9.4,-3.7L8.9,-3.9L8.7,-4.4L8.5,-4.5L8.5,-4.8L8.8,-5.5L9.2,-6.5L9.5,-6.5L10.1,-7.1L10.5,-7.1L11.1,-6.7L11.7,-7.0L11.8,-7.4L12.1,-7.8L12.2,-8.3L12.8,-8.8L13.0,-9.5L13.2,-9.7L13.3,-10.2L13.6,-10.9L14.4,-11.7L14.5,-12.0L14.6,-12.2L14.2,-12.6L14.2,-12.9L14.5,-13.0Z" fill="#1e1e2e" stroke="#2a2a3a" stroke-width="0.3"/>
  <path d="M27.4,-5.2L27.0,-5.1L26.4,-5.2L25.7,-5.3L25.3,-5.2L25.1,-4.9L24.8,-4.9L24.4,-5.1L23.3,-4.6L22.8,-4.7L22.7,-4.6L22.4,-4.0L21.7,-4.2L20.9,-4.3L20.3,-4.7L19.5,-5.0L18.9,-4.7L18.5,-4.2L18.5,-3.5L17.8,-3.6L17.1,-3.7L16.5,-3.2L16.0,-2.3L15.9,-2.6L15.9,-3.0L15.4,-3.3L15.0,-3.9L15.0,-4.2L14.5,-4.7L14.6,-5.0L14.5,-5.5L14.5,-6.2L14.8,-6.4L15.3,-7.4L16.1,-7.5L16.3,-7.8L16.5,-7.8L16.7,-7.5L18.0,-7.9L18.4,-8.3L18.9,-8.7L18.8,-9.0L19.1,-9.1L20.1,-9.1L21.0,-9.5L21.7,-10.6L22.2,-11.0L22.9,-11.2L23.0,-10.8L23.6,-10.1L23.6,-9.7L23.4,-9.3L23.5,-9.0L23.8,-8.7L24.6,-8.3L25.1,-7.8L25.1,-7.5L25.8,-7.0L26.2,-6.6L26.5,-6.0L27.2,-5.6L27.4,-5.2Z" fill="#1e1e2e" stroke="#2a2a3a" stroke-width="0.3"/>
  <path d="M18.5,-3.5L18.4,-2.9L18.1,-2.4L17.9,-1.7L17.8,-0.9L17.8,-0.3L17.7,0.1L17.6,0.4L17.5,0.7L16.9,1.2L16.4,1.7L16.0,2.7L16.0,3.5L15.8,3.9L15.2,4.3L14.6,5.0L14.2,4.8L14.1,4.5L13.6,4.5L13.3,4.9L13.0,4.8L12.6,4.4L12.3,4.6L11.9,5.0L11.1,4.0L11.9,3.4L11.5,2.8L11.8,2.5L12.5,2.4L12.6,1.9L13.1,2.4L14.0,2.5L14.3,2.0L14.4,1.3L14.3,0.6L13.8,-0.0L14.3,-1.2L14.0,-1.4L13.3,-1.3L13.0,-1.8L13.1,-2.3L14.3,-2.2L15.1,-2.0L15.9,-1.7L16.0,-2.3L16.5,-3.2L17.1,-3.7L17.8,-3.6L18.5,-3.5Z" fill="#1e1e2e" stroke="#2a2a3a" stroke-width="0.3"/>
  <path d="M30.7,8.4L31.2,8.6L31.6,8.8L32.2,9.0L32.8,9.3L33.2,9.7L33.5,10.6L33.3,10.9L33.1,11.7L33.3,12.5L33.0,12.9L32.7,13.8L33.2,14.1L30.2,15.0L30.3,15.7L29.5,15.8L28.9,16.3L28.8,16.6L28.5,16.7L27.6,17.6L27.0,18.2L26.7,18.3L26.4,18.1L25.3,18.0L25.1,17.9L25.1,17.9L24.7,17.6L24.0,17.6L23.2,17.8L22.6,17.1L21.9,16.3L21.9,13.0L24.0,13.0L23.9,12.7L24.1,12.3L23.9,11.8L24.0,11.3L23.9,11.0L24.3,11.0L24.3,11.3L24.8,11.3L25.4,11.4L25.8,11.9L26.6,12.0L27.2,11.7L27.4,12.2L28.2,12.4L28.5,12.8L28.9,13.4L29.7,13.4L29.6,12.3L29.3,12.5L28.6,12.1L28.4,11.9L28.5,10.9L28.7,9.7L28.4,9.2L28.7,8.6L29.0,8.4L30.3,8.3L30.7,8.4Z" fill="#1e1e2e" stroke="#2a2a3a" stroke-width="0.3"/>
  <path d="M32.8,9.3L33.7,9.5L33.9,9.7L34.3,10.2L34.6,11.6L34.3,12.4L34.6,13.7L34.9,13.7L35.3,14.0L35.7,14.8L35.8,16.1L35.3,16.3L35.0,17.0L34.4,16.4L34.3,15.7L34.5,15.2L34.5,14.8L34.1,14.5L33.8,14.6L33.2,14.1L32.7,13.8L33.0,12.9L33.3,12.5L33.1,11.7L33.3,10.9L33.5,10.6L33.2,9.7L32.8,9.3Z" fill="#1e1e2e" stroke="#2a2a3a" stroke-width="0.3"/>
  <path d="M34.6,11.6L35.3,11.5L36.5,11.8L36.8,11.7L37.5,11.6L37.8,11.3L38.4,11.4L39.5,11.0L40.3,10.4L40.3,10.4L40.3,10.4L40.5,10.8L40.4,11.8L40.6,12.7L40.6,14.3L40.8,14.9L40.5,15.6L40.1,16.3L39.5,17.0L38.5,17.4L37.4,17.9L36.3,19.0L35.9,19.2L35.2,19.9L34.8,20.2L34.7,20.9L35.2,21.8L35.4,22.4L35.4,22.7L35.6,22.7L35.5,23.7L35.4,24.2L35.6,24.4L35.5,24.9L35.0,25.3L34.2,25.6L33.0,26.2L32.6,26.6L32.7,27.1L32.9,27.2L32.8,27.8L32.1,27.8L32.0,27.3L31.8,26.8L31.8,26.4L31.9,25.1L31.7,24.4L31.2,22.8L32.2,21.6L32.5,20.8L32.7,20.7L32.8,20.1L32.6,19.8L32.7,19.0L32.8,18.3L32.8,17.0L32.3,16.6L31.9,16.5L31.6,16.3L31.2,16.1L30.3,16.1L30.3,15.7L30.2,15.0L33.2,14.1L33.8,14.6L34.1,14.5L34.5,14.8L34.5,15.2L34.3,15.7L34.4,16.4L35.0,17.0L35.3,16.3L35.8,16.1L35.7,14.8L35.3,14.0L34.9,13.7L34.6,13.7L34.3,12.4L34.6,11.6Z" fill="#1e1e2e" stroke="#2a2a3a" stroke-width="0.3"/>
  <path d="M13.0,4.8L12.6,5.0L12.5,5.3L12.4,5.7L12.2,5.8L11.9,5.0L12.3,4.6L12.6,4.4L13.0,4.8ZM12.3,6.1L12.7,6.0L13.0,6.0L13.4,5.9L16.3,5.9L16.6,6.6L16.9,7.2L17.1,7.6L17.5,8.1L18.1,8.0L18.5,7.9L19.0,8.0L19.2,7.8L19.4,7.2L20.0,7.1L20.1,7.0L20.6,7.0L20.5,7.3L21.7,7.3L21.7,7.9L21.9,8.3L21.8,8.9L21.9,9.6L22.2,9.9L22.2,11.2L22.4,11.1L22.8,11.1L23.5,10.9L23.9,11.0L24.0,11.3L23.9,11.8L24.1,12.3L23.9,12.7L24.0,13.0L21.9,13.0L21.9,16.3L22.6,17.1L23.2,17.8L21.4,18.2L19.0,18.1L18.3,17.6L14.2,17.6L14.1,17.7L13.5,17.2L12.8,17.2L12.2,17.4L11.7,17.6L11.6,16.9L11.8,16.0L12.1,15.0L12.2,14.6L12.5,13.7L12.7,13.3L13.3,12.6L13.6,12.1L13.7,11.4L13.7,10.8L13.4,10.4L13.1,9.8L12.9,9.2L12.9,9.0L13.2,8.6L12.9,7.6L12.7,6.9L12.2,6.3L12.3,6.1Z" fill="#1e1e2e" stroke="#2a2a3a" stroke-width="0.3"/>
  <path d="M30.5,2.4L30.5,2.8L30.7,3.0L30.8,3.4L30.5,3.6L30.1,4.1L29.8,4.5L29.3,4.5L29.3,3.3L29.0,2.8L29.6,2.9L29.9,2.3L30.5,2.4Z" fill="#1e1e2e" stroke="#2a2a3a" stroke-width="0.3"/>
  <path d="M49.5,12.6L49.8,13.0L50.1,13.7L50.2,14.9L50.5,15.4L50.4,15.9L50.2,16.2L49.9,15.6L49.7,15.9L49.9,16.7L49.8,17.1L49.5,17.4L49.4,18.3L49.0,19.5L48.5,20.9L47.9,23.0L47.5,24.5L47.1,25.8L46.3,26.0L45.4,26.5L44.8,26.2L44.0,25.8L43.8,25.2L43.7,24.3L43.3,23.4L43.3,22.6L43.4,21.8L43.9,21.7L43.9,21.3L44.4,20.5L44.5,19.8L44.2,19.3L44.0,18.7L44.0,17.7L44.3,17.1L44.4,16.4L44.9,16.4L45.5,16.2L45.9,16.0L46.3,16.0L46.9,15.4L47.7,14.8L48.0,14.2L47.9,13.8L48.3,13.9L48.8,13.2L48.9,12.6L49.2,12.1L49.5,12.6Z" fill="#1e1e2e" stroke="#2a2a3a" stroke-width="0.3"/>
  <path d="M36.4,-14.6L36.3,-15.0L36.8,-16.5L36.9,-17.2L37.2,-17.5L37.9,-17.7L38.4,-18.3L39.0,-17.1L39.3,-16.1L39.8,-15.6L41.2,-14.6L41.7,-14.1L42.3,-13.5L42.6,-13.1L43.1,-12.8L42.8,-12.6L42.4,-12.6L42.0,-13.0L41.6,-13.6L41.2,-13.9L40.9,-14.3L40.0,-14.7L39.3,-14.7L39.1,-14.9L38.5,-14.7L37.9,-15.1L37.6,-14.4L36.4,-14.6Z" fill="#1e1e2e" stroke="#2a2a3a" stroke-width="0.3"/>
  <path d="M52.0,-19.4L52.8,-17.6L53.1,-16.9L52.4,-16.6L52.2,-16.1L52.2,-15.8L51.2,-15.4L49.6,-14.9L48.7,-14.1L48.2,-14.1L47.9,-14.1L47.4,-13.7L46.7,-13.5L45.9,-13.5L45.6,-13.4L45.4,-13.1L45.1,-13.1L45.0,-12.8L44.5,-12.8L44.2,-12.7L43.5,-12.7L43.2,-13.3L43.3,-13.9L43.1,-14.2L42.9,-15.0L42.6,-15.4L42.8,-15.4L42.7,-15.9L42.8,-16.1L42.8,-16.6L43.2,-16.9L43.1,-17.3L43.4,-17.9L43.8,-17.6L44.1,-17.7L45.2,-17.7L45.4,-17.6L46.4,-17.5L46.7,-17.6L47.0,-17.2L47.5,-17.4L48.2,-18.5L49.1,-19.0L52.0,-19.4Z" fill="#1e1e2e" stroke="#2a2a3a" stroke-width="0.3"/>
  <path d="M35.0,-30.7L36.1,-30.5L36.5,-30.9L36.7,-31.3L37.5,-31.5L37.7,-31.9L38.0,-32.1L37.0,-33.2L39.0,-33.8L39.2,-34.0L40.4,-33.7L41.9,-32.9L44.7,-30.5L46.6,-30.4L47.5,-30.3L47.7,-29.8L48.4,-29.8L48.8,-28.8L49.3,-28.6L49.5,-28.2L50.2,-27.7L50.2,-27.2L50.1,-26.9L50.2,-26.5L50.5,-26.2L50.7,-25.8L50.8,-25.6L51.1,-25.3L51.4,-25.4L51.6,-25.0L51.6,-24.7L52.0,-23.6L55.0,-23.1L55.2,-23.3L55.7,-22.6L55.0,-20.4L52.0,-19.4L49.1,-19.0L48.2,-18.5L47.5,-17.4L47.0,-17.2L46.7,-17.6L46.4,-17.5L45.4,-17.6L45.2,-17.7L44.1,-17.7L43.8,-17.6L43.4,-17.9L43.1,-17.3L43.2,-16.9L42.8,-16.6L42.6,-17.0L42.3,-17.3L42.3,-17.8L41.8,-18.1L41.2,-19.0L40.9,-19.9L40.2,-20.6L39.8,-20.8L39.1,-21.8L39.0,-22.5L39.1,-23.2L38.5,-24.4L38.0,-24.8L37.5,-25.0L37.2,-25.7L37.2,-25.9L36.9,-26.5L36.6,-26.7L36.2,-27.6L35.6,-28.5L35.1,-29.3L34.6,-29.3L34.8,-29.9L34.8,-30.3L35.0,-30.7Z" fill="#1e1e2e" stroke="#2a2a3a" stroke-width="0.3"/>
  <path d="M47.8,-8.0L45.0,-5.0L43.7,-5.0L42.8,-4.3L42.1,-4.2L41.9,-3.9L41.2,-3.9L40.8,-4.3L39.9,-3.8L39.6,-3.4L38.9,-3.5L38.7,-3.6L38.4,-3.6L38.1,-3.6L36.9,-4.5L36.2,-4.5L35.8,-4.8L35.8,-5.3L35.3,-5.5L34.7,-6.6L34.3,-6.8L34.1,-7.2L33.6,-7.7L33.0,-7.8L33.3,-8.4L33.8,-8.4L34.0,-8.7L34.0,-9.6L34.3,-10.7L34.7,-11.0L34.8,-11.4L35.3,-12.2L35.9,-12.7L36.3,-13.7L36.4,-14.6L37.6,-14.4L37.9,-15.1L38.5,-14.7L39.1,-14.9L39.3,-14.7L40.0,-14.7L40.9,-14.3L41.2,-13.9L41.6,-13.6L42.0,-13.0L42.4,-12.6L42.0,-12.2L41.7,-11.7L41.7,-11.4L41.8,-11.1L42.3,-11.1L42.6,-11.2L42.8,-11.0L42.6,-10.6L42.9,-10.1L43.3,-9.6L43.7,-9.2L46.9,-8.0L47.8,-8.0Z" fill="#1e1e2e" stroke="#2a2a3a" stroke-width="0.3"/>
  <path d="M42.4,-12.6L42.8,-12.6L43.1,-12.8L43.3,-12.5L43.3,-12.1L42.7,-11.8L43.1,-11.5L42.8,-11.0L42.6,-11.2L42.3,-11.1L41.8,-11.1L41.7,-11.4L41.7,-11.7L42.0,-12.2L42.4,-12.6Z" fill="#1e1e2e" stroke="#2a2a3a" stroke-width="0.3"/>
  <path d="M48.9,-11.5L48.9,-11.5L48.9,-11.5L48.9,-11.1L48.9,-10.0L48.9,-9.5L48.5,-8.9L47.8,-8.0L46.9,-8.0L43.7,-9.2L43.3,-9.6L42.9,-10.1L42.6,-10.6L42.8,-11.0L43.1,-11.5L43.5,-11.4L43.7,-10.9L44.1,-10.5L44.6,-10.5L45.6,-10.8L46.6,-10.9L47.5,-11.2L48.0,-11.3L48.4,-11.5L48.9,-11.5L48.9,-11.5Z" fill="#1e1e2e" stroke="#2a2a3a" stroke-width="0.3"/>
  <path d="M30.4,1.1L30.8,1.7L30.8,2.3L30.5,2.4L30.5,2.4L29.9,2.3L29.6,2.9L29.0,2.8L29.1,2.3L29.3,2.2L29.3,1.6L29.6,1.3L29.8,1.4L30.4,1.1Z" fill="#1e1e2e" stroke="#2a2a3a" stroke-width="0.3"/>
  <path d="M30.8,-3.5L30.0,-4.2L29.7,-4.6L29.2,-4.4L28.7,-4.5L28.4,-4.3L28.0,-4.4L27.4,-5.2L27.2,-5.6L26.5,-6.0L26.2,-6.6L25.8,-7.0L25.1,-7.5L25.1,-7.8L24.6,-8.3L23.9,-8.7L24.2,-8.8L24.5,-9.0L24.8,-9.9L25.1,-10.3L25.8,-10.5L26.0,-10.2L26.5,-9.6L26.8,-9.5L27.1,-9.7L27.8,-9.6L28.0,-9.4L29.0,-9.4L29.0,-9.6L29.5,-9.8L29.6,-10.1L30.0,-10.3L30.8,-9.8L31.4,-9.9L31.9,-10.6L32.4,-11.2L32.3,-11.8L32.1,-12.1L32.7,-12.1L32.7,-12.3L33.2,-12.3L33.1,-11.5L33.2,-10.8L33.7,-10.4L33.8,-10.0L33.8,-9.5L34.0,-9.5L34.0,-8.7L33.8,-8.4L33.3,-8.4L33.0,-7.8L33.6,-7.7L34.1,-7.2L34.3,-6.8L34.7,-6.6L35.3,-5.5L34.6,-4.9L34.0,-4.3L33.4,-3.8L32.7,-3.8L31.9,-3.6L31.2,-3.8L30.8,-3.5Z" fill="#1e1e2e" stroke="#2a2a3a" stroke-width="0.3"/>
  <path d="M33.9,1.0L31.9,1.0L30.8,1.0L30.4,1.1L29.8,1.4L29.6,1.3L29.6,0.6L29.8,0.2L29.9,-0.6L30.1,-1.1L30.5,-1.6L30.9,-1.8L31.2,-2.2L30.8,-2.3L30.8,-3.5L30.8,-3.5L31.2,-3.8L31.9,-3.6L32.7,-3.8L33.4,-3.8L34.0,-4.3L34.5,-3.6L34.6,-3.1L35.0,-1.9L34.7,-1.2L34.2,-0.5L33.9,-0.1L33.9,1.0Z" fill="#00e5ff" stroke="#00c4dd" stroke-width="0.4" fill-opacity="0.9"/>
</svg>