<svg xmlns="http://www.w3.org/2000/svg" viewBox="20.09 -54.34 21.99 11.05" width="300" height="300" preserveAspectRatio="xMidYMid meet">
  <path d="M31.79,-52.10L32.16,-52.06L32.41,-52.29L32.72,-52.24L33.75,-52.34L34.39,-51.77L34.14,-51.57L34.22,-51.26L35.02,-51.21L35.38,-50.77L35.36,-50.58L36.63,-50.23L37.39,-50.38L38.01,-49.92L38.59,-49.93L40.07,-49.60L40.08,-49.31L39.67,-48.78L39.90,-48.23L39.74,-47.90L38.77,-47.83L38.26,-47.55L38.22,-47.10L37.43,-47.02L36.76,-46.70L35.82,-46.65L34.96,-46.27L35.01,-45.74L34.86,-45.77L34.73,-45.97L34.41,-46.01L33.70,-46.22L33.44,-45.97L33.30,-46.08L31.74,-46.33L31.68,-46.71L30.75,-46.58L30.38,-46.03L29.60,-45.29L29.15,-45.46L28.68,-45.30L28.23,-45.49L28.49,-45.60L28.66,-45.94L28.93,-46.26L28.86,-46.44L29.07,-46.52L29.17,-46.38L29.76,-46.35L30.02,-46.42L29.84,-46.53L29.91,-46.67L29.56,-46.93L29.42,-47.35L29.05,-47.51L29.12,-47.85L28.67,-48.12L28.26,-48.16L27.52,-48.47L26.86,-48.37L26.62,-48.22L26.20,-48.22L25.95,-47.99L25.21,-47.89L24.87,-47.74L24.40,-47.98L23.76,-47.99L23.14,-48.10L22.71,-47.88L22.64,-48.15L22.09,-48.42L22.28,-48.83L22.56,-49.09L22.78,-49.03L22.52,-49.48L23.43,-50.31L23.92,-50.42L24.03,-50.71L23.53,-51.58L24.01,-51.62L24.55,-51.89L25.33,-51.91L26.34,-51.83L27.45,-51.59L28.24,-51.57L28.62,-51.43L28.99,-51.60L29.25,-51.37L30.16,-51.42L30.56,-51.32L30.62,-51.82L30.93,-52.04L31.79,-52.10Z" fill="#00e5ff" stroke="#00e5ff" stroke-width="0.5" fill-opacity="0.8"/>
</svg>