<svg xmlns="http://www.w3.org/2000/svg" viewBox="-76.2 44.6 33.5 31.9" width="400" height="300" preserveAspectRatio="xMidYMid meet">
  <rect x="-76.2" y="44.6" width="33.5" height="31.9" fill="#0e0e18"/>
  <path d="M-68.6,62.1L-68.3,62.9L-67.8,64.2L-66.5,65.2L-65.0,65.6L-65.5,66.5L-66.5,66.6L-67.0,66.0L-67.6,65.9L-68.6,65.9L-68.6,62.1ZM-57.6,31.7L-57.9,32.7L-58.1,33.9L-58.1,35.0L-58.3,35.3L-58.4,36.1L-58.5,36.7L-57.2,37.8L-57.4,38.6L-56.7,39.1L-56.8,39.8L-57.7,41.4L-59.2,42.1L-61.2,42.3L-62.3,42.2L-62.1,43.0L-62.3,43.9L-62.1,44.6L-62.7,45.1L-63.8,45.2L-64.7,44.8L-65.1,45.1L-65.0,46.4L-64.3,46.8L-63.8,46.4L-63.5,47.1L-64.4,47.5L-65.2,48.4L-65.3,49.8L-65.6,50.6L-66.5,50.6L-67.3,51.3L-67.6,52.4L-66.6,53.4L-65.6,53.7L-66.0,55.1L-67.2,55.9L-67.8,57.7L-68.7,58.3L-69.1,59.1L-68.8,60.7L-68.1,61.7L-68.6,61.6L-69.5,61.3L-71.9,61.1L-72.3,60.2L-72.3,59.0L-73.0,59.1L-73.3,58.5L-73.4,56.9L-72.6,56.2L-72.3,55.2L-72.4,54.5L-71.9,53.2L-71.6,51.3L-71.7,50.5L-71.2,50.2L-71.3,49.7L-71.8,49.4L-71.5,48.8L-71.9,48.3L-72.1,46.7L-71.7,46.4L-71.9,44.8L-71.7,43.5L-71.4,42.3L-70.8,41.8L-71.1,40.6L-71.1,39.5L-70.4,38.6L-70.4,37.6L-69.8,36.4L-69.8,35.3L-70.1,35.1L-70.5,33.1L-69.9,31.9L-70.0,30.7L-69.7,29.7L-69.0,28.6L-68.3,27.9L-68.6,27.5L-68.4,27.1L-68.4,25.3L-67.3,24.8L-67.0,23.6L-67.1,23.4L-66.3,22.4L-65.0,22.6L-64.4,23.4L-64.0,22.6L-62.8,22.6L-62.7,22.8L-60.8,24.6L-60.0,24.8L-58.8,25.6L-57.8,26.0L-57.6,26.5L-58.6,28.2L-57.6,28.5L-56.5,28.7L-55.7,28.5L-54.8,27.6L-54.6,26.7L-54.1,26.4L-53.6,27.1L-53.6,28.0L-54.5,28.6L-55.2,29.1L-56.3,30.2L-57.6,31.7Z" fill="#1e1e2e" stroke="#2a2a3a" stroke-width="0.3"/>
  <path d="M-68.6,62.1L-68.6,65.9L-67.6,65.9L-67.0,66.0L-67.3,66.7L-68.1,67.2L-68.6,67.2L-69.2,67.0L-70.0,66.5L-71.0,66.2L-72.3,65.3L-73.3,64.3L-74.7,62.5L-73.8,62.8L-72.4,63.9L-71.1,64.5L-70.6,63.8L-70.3,62.6L-69.3,61.9L-68.6,62.1ZM-69.6,17.9L-69.1,18.6L-69.0,19.3L-68.4,19.8L-68.8,20.8L-68.2,22.0L-67.8,23.5L-67.1,23.4L-67.0,23.6L-67.3,24.8L-68.4,25.3L-68.4,27.1L-68.6,27.5L-68.3,27.9L-69.0,28.6L-69.7,29.7L-70.0,30.7L-69.9,31.9L-70.5,33.1L-70.1,35.1L-69.8,35.3L-69.8,36.4L-70.4,37.6L-70.4,38.6L-71.1,39.5L-71.1,40.6L-70.8,41.8L-71.4,42.3L-71.7,43.5L-71.9,44.8L-71.7,46.4L-72.1,46.7L-71.9,48.3L-71.5,48.8L-71.8,49.4L-71.3,49.7L-71.2,50.2L-71.7,50.5L-71.6,51.3L-71.9,53.2L-72.4,54.5L-72.3,55.2L-72.6,56.2L-73.4,56.9L-73.3,58.5L-73.0,59.1L-72.3,59.0L-72.3,60.2L-71.9,61.1L-69.5,61.3L-68.6,61.6L-69.5,61.6L-69.9,62.0L-70.8,62.6L-71.0,64.1L-71.4,64.2L-72.6,63.6L-73.7,62.5L-73.7,62.5L-74.9,61.5L-75.3,60.5L-75.0,59.5L-75.5,58.5L-75.6,55.9L-75.2,54.4L-74.1,53.3L-75.6,52.9L-74.7,51.6L-74.4,49.2L-73.2,49.7L-72.7,46.9L-73.4,46.5L-73.7,48.2L-74.3,48.0L-74.0,46.1L-73.7,43.6L-73.2,42.7L-73.5,41.5L-73.6,40.1L-73.2,40.0L-72.6,38.0L-71.9,36.1L-71.4,34.3L-71.7,32.5L-71.4,31.6L-71.5,30.2L-70.9,28.8L-70.7,26.6L-70.4,24.3L-70.1,21.9L-70.2,20.2L-70.4,18.7L-69.9,18.4L-69.6,17.9Z" fill="#1e1e2e" stroke="#2a2a3a" stroke-width="0.3"/>
  <path d="M-61.2,60.8L-60.0,59.9L-59.1,60.3L-58.5,59.6L-57.8,60.4L-58.0,60.9L-59.4,61.4L-59.9,60.8L-60.7,61.6L-61.2,60.8Z" fill="#00e5ff" stroke="#00c4dd" stroke-width="0.4" fill-opacity="0.9"/>
</svg>