<svg xmlns="http://www.w3.org/2000/svg" viewBox="-245.2 -162.5 251.6 202.2" width="400" height="300" preserveAspectRatio="xMidYMid meet">
  <rect x="-245.2" y="-162.5" width="251.6" height="202.2" fill="#0e0e18"/>
  <path d="M180.0,16.3L180.0,16.8L179.4,17.0L178.7,17.3L178.6,16.9L179.1,16.7L179.4,16.6L180.0,16.3ZM178.1,17.8L178.4,17.6L178.7,17.9L178.6,18.5L177.9,18.6L177.4,18.5L177.3,18.0L177.7,17.7L178.1,17.8ZM-179.8,16.2L-179.9,16.7L-180.0,16.8L-180.0,16.3L-179.8,16.2Z" fill="#1e1e2e" stroke="#2a2a3a" stroke-width="0.3"/>
  <path d="M-8.7,-28.8L-8.7,-28.7L-8.7,-28.5L-8.7,-26.8L-12.0,-26.9L-11.9,-24.1L-12.9,-24.0L-13.1,-23.4L-12.9,-21.8L-16.8,-21.8L-17.1,-21.5L-17.0,-21.9L-17.0,-21.9L-14.8,-22.0L-14.6,-22.4L-14.2,-22.9L-13.9,-24.4L-12.5,-25.6L-12.0,-27.0L-11.7,-27.1L-11.4,-27.9L-10.6,-28.0L-10.2,-27.9L-9.7,-27.9L-9.4,-28.2L-8.8,-28.2L-8.8,-28.8L-8.7,-28.8Z" fill="#1e1e2e" stroke="#2a2a3a" stroke-width="0.3"/>
  <path d="M-122.8,-56.4L-123.0,-56.4L-124.9,-57.9L-125.6,-58.6L-127.4,-59.2L-128.0,-60.6L-127.9,-61.6L-129.1,-62.3L-129.3,-63.7L-130.5,-64.9L-130.5,-65.8L-130.5,-65.8L-130.0,-66.6L-130.0,-67.7L-131.7,-68.9L-132.7,-71.0L-133.4,-72.4L-134.3,-73.2L-134.9,-74.0L-135.5,-75.0L-136.5,-74.4L-137.5,-73.3L-138.3,-74.6L-139.0,-75.5L-140.0,-76.0L-141.0,-76.1L-141.0,-88.7L-141.0,-98.6L-141.0,-98.6L-139.1,-97.9L-137.5,-96.5L-136.5,-96.3L-135.6,-97.5L-134.4,-98.4L-132.9,-98.0L-131.4,-99.3L-129.8,-100.0L-129.1,-98.8L-128.4,-99.5L-128.1,-100.9L-127.4,-100.5L-125.8,-97.9L-124.4,-99.9L-124.3,-97.7L-123.1,-98.2L-122.7,-99.0L-121.5,-98.8L-119.9,-97.6L-117.6,-96.6L-116.2,-96.1L-115.2,-96.3L-113.9,-94.9L-115.3,-93.6L-113.5,-93.0L-110.8,-93.3L-109.9,-93.8L-108.9,-92.2L-107.8,-93.5L-108.8,-94.7L-108.2,-95.6L-107.0,-95.7L-106.2,-96.0L-105.3,-95.4L-104.3,-93.9L-103.2,-94.1L-101.5,-92.9L-99.9,-93.3L-98.4,-93.3L-98.6,-94.9L-97.7,-95.4L-96.1,-94.5L-96.1,-92.0L-95.5,-94.1L-94.7,-94.0L-94.2,-96.8L-95.3,-98.5L-96.5,-99.7L-96.4,-103.0L-95.2,-105.3L-93.9,-104.8L-92.9,-103.4L-91.5,-100.0L-92.4,-98.6L-90.5,-98.0L-90.6,-95.1L-89.2,-97.3L-88.0,-95.5L-88.3,-93.5L-87.4,-91.7L-86.3,-93.6L-85.6,-96.0L-85.5,-99.1L-84.1,-98.9L-82.6,-98.4L-81.3,-97.0L-81.2,-95.7L-82.0,-94.2L-81.3,-92.8L-81.4,-91.5L-83.3,-89.7L-84.7,-89.4L-85.8,-90.1L-86.1,-88.9L-87.0,-86.8L-87.3,-85.8L-88.5,-84.2L-89.9,-84.1L-90.7,-83.1L-90.8,-81.7L-91.9,-81.4L-93.2,-79.6L-94.2,-77.3L-94.6,-75.7L-94.7,-73.4L-93.2,-73.1L-92.8,-71.3L-92.3,-69.9L-90.9,-70.2L-89.0,-69.4L-88.0,-68.7L-87.3,-67.9L-86.1,-67.4L-85.0,-66.7L-83.4,-66.6L-82.3,-66.4L-82.4,-64.9L-82.1,-63.2L-81.4,-61.3L-79.9,-59.8L-79.1,-60.3L-78.6,-62.0L-79.1,-64.7L-79.8,-65.6L-78.2,-66.4L-77.1,-67.6L-76.5,-68.9L-76.6,-70.1L-77.3,-71.7L-78.5,-73.1L-77.3,-75.2L-77.8,-77.0L-78.1,-80.3L-77.4,-80.8L-75.7,-80.2L-74.7,-80.0L-73.8,-80.5L-72.9,-79.8L-71.7,-78.6L-71.4,-77.8L-69.6,-77.6L-69.6,-75.9L-69.3,-73.4L-68.4,-73.1L-67.6,-72.0L-66.2,-73.0L-65.2,-75.2L-64.6,-76.1L-63.8,-74.4L-62.5,-71.9L-61.4,-69.7L-61.8,-68.5L-60.5,-67.5L-59.6,-66.5L-58.0,-66.0L-57.3,-65.5L-56.9,-64.0L-56.2,-63.8L-55.8,-63.2L-55.7,-61.3L-56.4,-60.7L-57.1,-60.2L-58.8,-59.6L-60.0,-58.3L-61.7,-58.0L-63.9,-58.4L-65.4,-58.4L-66.4,-58.3L-67.2,-57.2L-68.5,-56.5L-70.0,-54.5L-71.1,-53.1L-70.3,-53.4L-68.7,-55.3L-66.6,-56.6L-65.1,-56.7L-64.2,-56.0L-65.1,-55.0L-64.8,-53.4L-64.5,-52.3L-63.2,-51.6L-61.5,-51.8L-60.5,-53.4L-60.4,-52.3L-59.8,-51.8L-61.0,-50.9L-63.3,-50.0L-64.2,-49.5L-65.4,-48.5L-66.1,-48.6L-66.2,-49.7L-64.4,-50.9L-66.0,-50.9L-67.1,-50.7L-67.8,-51.5L-67.8,-53.5L-68.2,-53.9L-68.9,-53.7L-69.2,-54.0L-70.0,-52.9L-70.3,-51.8L-70.7,-51.2L-71.1,-50.9L-71.4,-50.9L-71.5,-50.5L-73.3,-50.5L-74.9,-50.5L-75.3,-50.2L-76.4,-49.2L-76.5,-49.1L-76.8,-48.6L-77.7,-48.6L-78.7,-48.6L-79.2,-48.4L-79.0,-48.1L-78.9,-47.7L-78.9,-47.5L-80.2,-46.9L-81.3,-46.6L-82.4,-45.9L-82.7,-45.9L-83.0,-46.1L-83.1,-46.3L-83.1,-46.5L-82.9,-46.9L-82.4,-47.7L-82.1,-48.5L-82.3,-49.7L-82.6,-51.0L-83.6,-51.7L-83.5,-51.9L-83.6,-52.1L-83.9,-52.1L-84.1,-52.3L-84.1,-52.7L-84.3,-52.5L-84.6,-52.6L-84.5,-52.7L-84.8,-52.8L-84.9,-53.2L-85.7,-53.7L-86.5,-54.2L-87.4,-54.8L-88.4,-55.3L-89.3,-54.9L-89.6,-54.9L-90.8,-55.3L-91.6,-55.1L-92.6,-55.5L-93.6,-55.8L-94.3,-55.9L-94.6,-56.1L-94.8,-57.0L-95.2,-57.0L-95.2,-56.4L-97.2,-56.4L-100.7,-56.4L-104.0,-56.4L-107.0,-56.4L-110.0,-56.4L-113.0,-56.4L-116.0,-56.4L-117.0,-56.4L-120.0,-56.4L-122.8,-56.4ZM-84.0,-80.6L-83.3,-81.6L-81.9,-81.5L-81.9,-81.1L-83.1,-79.9L-83.8,-80.0L-84.0,-80.6ZM-79.8,-108.2L-80.9,-110.1L-80.8,-111.3L-80.4,-111.6L-78.1,-111.2L-76.3,-109.3L-76.3,-108.3L-77.3,-108.4L-78.4,-108.5L-79.5,-108.0L-79.8,-108.2ZM-80.3,-79.8L-79.9,-80.4L-79.5,-80.4L-79.3,-79.9L-79.7,-78.8L-80.1,-79.0L-80.4,-79.6L-80.3,-79.8ZM-93.6,-116.1L-94.2,-114.6L-95.6,-114.9L-96.8,-115.9L-96.3,-117.7L-94.9,-118.7L-94.0,-117.3L-93.6,-116.1ZM-93.8,-126.8L-94.3,-126.7L-96.2,-127.0L-96.4,-128.3L-94.4,-128.2L-93.7,-127.3L-93.8,-126.8ZM-96.8,-132.9L-95.6,-131.1L-95.8,-129.4L-97.3,-128.4L-98.1,-129.5L-98.6,-131.3L-98.6,-133.4L-97.3,-133.2L-96.8,-132.9ZM-88.2,-113.9L-89.8,-114.3L-92.4,-115.5L-92.8,-117.7L-92.9,-119.7L-93.9,-121.5L-96.0,-122.0L-97.1,-123.4L-96.7,-125.2L-94.7,-124.9L-93.6,-123.5L-91.6,-123.5L-90.7,-122.1L-91.0,-120.5L-89.8,-119.5L-89.2,-118.6L-87.8,-118.4L-86.4,-118.1L-84.8,-118.9L-82.8,-119.3L-81.1,-119.0L-80.1,-117.5L-79.8,-115.9L-80.5,-114.9L-81.9,-114.1L-83.2,-114.5L-86.1,-113.9L-88.2,-113.9ZM-111.3,-129.8L-109.9,-129.1L-110.2,-127.6L-112.1,-126.3L-113.5,-127.8L-112.7,-129.3L-111.3,-129.8ZM-111.0,-133.1L-109.7,-132.0L-110.9,-131.1L-112.5,-131.1L-112.5,-131.8L-111.5,-133.3L-111.0,-133.1ZM-55.6,-60.0L-56.1,-59.0L-56.8,-57.6L-56.1,-58.1L-55.5,-57.8L-55.8,-57.3L-54.9,-56.8L-54.5,-57.2L-53.5,-56.7L-53.8,-55.6L-53.1,-55.9L-53.0,-55.1L-52.6,-54.2L-53.1,-52.9L-53.5,-52.8L-54.2,-53.1L-54.0,-54.3L-54.2,-54.5L-55.4,-53.2L-56.0,-53.3L-55.3,-54.0L-56.3,-54.3L-57.3,-54.2L-59.3,-54.3L-59.4,-54.7L-58.8,-55.2L-59.2,-55.6L-58.4,-56.6L-57.4,-59.0L-56.7,-59.9L-55.9,-60.5L-55.4,-60.4L-55.6,-60.0ZM-83.9,-86.6L-82.8,-85.8L-81.6,-85.0L-81.6,-83.9L-80.8,-84.1L-80.1,-83.4L-81.0,-82.7L-82.5,-83.2L-83.1,-84.2L-84.1,-83.0L-85.5,-81.9L-85.9,-83.2L-87.2,-83.0L-86.4,-84.1L-86.2,-85.9L-85.9,-88.1L-85.2,-87.9L-85.0,-86.8L-84.5,-87.2L-83.9,-86.6ZM-78.8,-106.7L-77.8,-108.1L-75.6,-106.4L-74.2,-104.8L-74.1,-103.5L-72.2,-104.2L-71.2,-102.2L-68.8,-101.0L-67.9,-99.8L-67.0,-97.1L-68.8,-95.8L-66.4,-94.0L-64.9,-93.4L-63.4,-91.1L-61.9,-90.9L-62.2,-89.1L-63.9,-86.3L-65.1,-87.3L-66.7,-89.7L-68.0,-89.4L-68.1,-88.0L-67.1,-86.6L-65.7,-85.5L-65.3,-84.9L-64.7,-82.6L-65.0,-81.0L-66.3,-81.6L-68.8,-83.4L-67.4,-81.5L-66.3,-80.2L-66.2,-79.4L-68.9,-80.3L-71.0,-81.6L-72.2,-82.6L-71.9,-83.3L-73.4,-84.4L-74.8,-85.6L-74.8,-84.9L-77.7,-84.5L-78.6,-85.3L-77.9,-87.0L-76.0,-87.1L-74.0,-87.4L-74.3,-88.3L-73.9,-89.5L-72.7,-92.0L-72.9,-93.1L-73.3,-94.0L-74.8,-95.3L-76.9,-96.3L-76.2,-97.0L-77.3,-98.8L-78.2,-98.9L-79.0,-99.9L-79.5,-99.1L-81.3,-98.7L-84.9,-99.3L-87.1,-100.2L-88.7,-100.6L-89.5,-101.7L-88.5,-103.1L-89.9,-103.1L-90.2,-106.3L-89.4,-109.4L-88.4,-110.8L-85.8,-111.7L-86.6,-109.4L-85.8,-107.3L-84.9,-110.1L-82.3,-111.5L-80.6,-107.9L-80.7,-105.8L-78.8,-106.7ZM-94.5,-112.9L-92.4,-112.8L-90.5,-111.9L-92.0,-108.8L-93.2,-108.1L-94.3,-105.7L-95.4,-105.8L-96.0,-108.7L-96.0,-110.4L-95.5,-111.9L-94.5,-112.9ZM-122.9,-120.7L-122.9,-120.7L-121.2,-123.9L-119.1,-126.8L-117.6,-126.7L-116.2,-127.4L-116.3,-123.9L-117.1,-122.4L-118.0,-122.2L-119.9,-120.4L-121.5,-119.8L-122.9,-120.7ZM-132.7,-64.5L-131.7,-64.6L-132.0,-62.7L-131.2,-61.4L-131.6,-61.4L-132.2,-62.1L-132.5,-62.9L-133.1,-63.4L-133.2,-64.2L-133.2,-64.7L-132.7,-64.5ZM-105.5,-135.7L-103.5,-135.0L-100.8,-133.1L-100.1,-130.7L-99.7,-128.6L-101.3,-129.2L-102.9,-130.8L-105.2,-130.9L-104.2,-132.4L-105.4,-133.7L-105.5,-135.7ZM-123.5,-55.6L-124.0,-55.4L-125.7,-56.1L-126.0,-56.6L-126.9,-57.2L-127.0,-57.6L-128.1,-57.9L-128.4,-58.8L-128.4,-59.1L-127.3,-58.8L-126.7,-58.5L-125.8,-58.4L-125.4,-57.8L-124.9,-57.1L-123.9,-56.5L-123.5,-55.6ZM-121.5,-114.1L-120.1,-113.3L-117.6,-113.1L-116.6,-112.1L-115.5,-110.6L-116.8,-109.7L-119.2,-107.3L-120.5,-105.0L-120.5,-103.6L-123.1,-102.1L-123.6,-103.5L-125.9,-105.2L-125.5,-106.5L-124.8,-109.0L-123.9,-111.3L-124.9,-113.5L-121.5,-114.1ZM-107.8,-119.5L-106.9,-120.2L-105.9,-120.0L-105.7,-118.1L-106.3,-116.2L-109.7,-115.6L-112.2,-114.0L-113.7,-113.9L-113.9,-115.1L-111.8,-116.8L-116.3,-116.3L-117.7,-117.0L-116.3,-121.0L-115.4,-122.2L-112.6,-120.8L-110.8,-118.3L-109.1,-118.0L-110.5,-122.0L-109.6,-123.5L-108.5,-123.0L-108.2,-121.0L-107.8,-119.5ZM-106.5,-109.2L-105.4,-107.8L-104.8,-104.6L-104.5,-102.4L-102.8,-100.9L-101.0,-99.5L-101.1,-98.2L-102.7,-98.0L-102.1,-96.9L-102.4,-95.9L-104.2,-96.3L-106.0,-97.1L-107.1,-96.9L-109.0,-96.0L-111.5,-95.6L-113.3,-95.3L-113.9,-96.6L-115.2,-97.4L-116.1,-97.0L-117.3,-99.3L-116.7,-99.6L-115.1,-100.1L-113.7,-100.0L-112.4,-100.5L-114.3,-101.2L-116.5,-101.0L-117.9,-101.0L-118.4,-102.2L-116.1,-103.4L-117.7,-103.3L-119.4,-104.2L-118.6,-106.6L-117.9,-107.9L-115.2,-110.0L-114.2,-109.3L-114.7,-107.7L-112.4,-108.8L-111.1,-107.1L-109.9,-108.8L-109.0,-107.7L-108.2,-104.5L-107.7,-105.8L-108.4,-109.2L-107.5,-109.7L-106.5,-109.2ZM-100.4,-107.9L-101.5,-110.2L-100.4,-111.9L-99.2,-111.1L-97.4,-111.6L-97.1,-110.5L-98.1,-108.9L-96.5,-107.4L-96.7,-104.5L-98.4,-103.3L-99.3,-103.5L-100.0,-104.7L-102.5,-107.3L-102.5,-108.3L-100.4,-107.9ZM-106.6,-111.0L-105.3,-111.1L-104.5,-110.4L-105.4,-108.1L-106.9,-110.5L-106.6,-111.0ZM-98.5,-123.2L-97.7,-121.2L-97.7,-119.1L-98.2,-116.2L-99.8,-115.8L-100.9,-116.4L-100.9,-118.7L-102.5,-118.4L-102.6,-121.6L-101.5,-121.4L-100.0,-122.9L-98.6,-122.7L-98.5,-123.2ZM-96.0,-143.2L-95.3,-145.1L-94.3,-145.5L-94.7,-147.0L-92.4,-147.3L-91.1,-143.9L-89.5,-142.6L-87.8,-141.5L-87.0,-137.7L-85.8,-135.9L-87.2,-134.3L-89.0,-130.5L-90.8,-130.1L-92.9,-130.8L-94.0,-132.8L-93.9,-134.7L-93.1,-136.1L-95.0,-136.1L-96.1,-137.9L-96.7,-140.5L-96.0,-143.2ZM-91.6,-151.7L-90.1,-153.0L-88.9,-153.3L-87.0,-154.5L-85.5,-157.3L-84.3,-156.9L-83.2,-154.8L-82.4,-159.0L-81.1,-160.3L-79.3,-161.2L-76.3,-161.5L-75.7,-160.6L-72.8,-162.0L-70.7,-161.5L-68.5,-161.0L-65.8,-160.3L-63.7,-159.3L-61.9,-157.1L-61.9,-155.1L-64.3,-151.9L-66.8,-150.5L-67.7,-148.9L-65.5,-149.0L-67.8,-145.0L-69.5,-143.3L-71.2,-138.4L-73.2,-137.5L-73.9,-136.4L-76.9,-135.8L-75.5,-135.1L-76.2,-134.2L-75.4,-131.7L-76.3,-130.0L-77.9,-128.6L-78.4,-126.8L-79.8,-125.4L-79.6,-124.4L-77.9,-124.6L-77.9,-123.5L-80.6,-120.9L-83.2,-122.1L-86.1,-121.4L-87.6,-121.9L-89.5,-122.2L-89.6,-124.2L-87.8,-125.3L-88.3,-128.6L-87.7,-128.9L-85.0,-126.9L-86.3,-129.9L-88.0,-130.9L-87.2,-132.8L-85.4,-134.1L-85.1,-135.9L-86.5,-138.1L-86.9,-141.1L-84.2,-140.8L-83.4,-140.2L-81.8,-142.3L-84.1,-143.0L-87.6,-142.6L-89.4,-144.7L-90.2,-147.3L-91.4,-149.3L-91.6,-151.7ZM-75.2,-92.4L-75.9,-91.6L-77.0,-91.5L-77.2,-92.8L-76.8,-94.2L-75.9,-94.6L-75.1,-93.9L-75.1,-92.7L-75.2,-92.4ZM-96.3,-98.0L-95.6,-96.9L-96.3,-95.9L-97.6,-96.7L-98.4,-96.4L-99.8,-97.7L-98.9,-98.6L-98.2,-99.9L-97.2,-99.0L-96.6,-98.5L-96.3,-98.0ZM-64.5,-57.7L-64.2,-57.8L-62.9,-57.5L-61.8,-56.8L-61.8,-56.5L-62.3,-56.5L-63.6,-57.0L-64.5,-57.7ZM-64.0,-53.4L-63.7,-52.7L-62.9,-52.5L-62.0,-52.6L-62.5,-52.0L-62.9,-51.9L-64.1,-52.5L-64.4,-53.0L-64.0,-53.4Z" fill="#1e1e2e" stroke="#2a2a3a" stroke-width="0.3"/>
  <path d="M-68.6,62.1L-68.3,62.9L-67.8,64.2L-66.5,65.2L-65.0,65.6L-65.5,66.5L-66.5,66.6L-67.0,66.0L-67.6,65.9L-68.6,65.9L-68.6,62.1ZM-57.6,31.7L-57.9,32.7L-58.1,33.9L-58.1,35.0L-58.3,35.3L-58.4,36.1L-58.5,36.7L-57.2,37.8L-57.4,38.6L-56.7,39.1L-56.8,39.8L-57.7,41.4L-59.2,42.1L-61.2,42.3L-62.3,42.2L-62.1,43.0L-62.3,43.9L-62.1,44.6L-62.7,45.1L-63.8,45.2L-64.7,44.8L-65.1,45.1L-65.0,46.4L-64.3,46.8L-63.8,46.4L-63.5,47.1L-64.4,47.5L-65.2,48.4L-65.3,49.8L-65.6,50.6L-66.5,50.6L-67.3,51.3L-67.6,52.4L-66.6,53.4L-65.6,53.7L-66.0,55.1L-67.2,55.9L-67.8,57.7L-68.7,58.3L-69.1,59.1L-68.8,60.7L-68.1,61.7L-68.6,61.6L-69.5,61.3L-71.9,61.1L-72.3,60.2L-72.3,59.0L-73.0,59.1L-73.3,58.5L-73.4,56.9L-72.6,56.2L-72.3,55.2L-72.4,54.5L-71.9,53.2L-71.6,51.3L-71.7,50.5L-71.2,50.2L-71.3,49.7L-71.8,49.4L-71.5,48.8L-71.9,48.3L-72.1,46.7L-71.7,46.4L-71.9,44.8L-71.7,43.5L-71.4,42.3L-70.8,41.8L-71.1,40.6L-71.1,39.5L-70.4,38.6L-70.4,37.6L-69.8,36.4L-69.8,35.3L-70.1,35.1L-70.5,33.1L-69.9,31.9L-70.0,30.7L-69.7,29.7L-69.0,28.6L-68.3,27.9L-68.6,27.5L-68.4,27.1L-68.4,25.3L-67.3,24.8L-67.0,23.6L-67.1,23.4L-66.3,22.4L-65.0,22.6L-64.4,23.4L-64.0,22.6L-62.8,22.6L-62.7,22.8L-60.8,24.6L-60.0,24.8L-58.8,25.6L-57.8,26.0L-57.6,26.5L-58.6,28.2L-57.6,28.5L-56.5,28.7L-55.7,28.5L-54.8,27.6L-54.6,26.7L-54.1,26.4L-53.6,27.1L-53.6,28.0L-54.5,28.6L-55.2,29.1L-56.3,30.2L-57.6,31.7Z" fill="#1e1e2e" stroke="#2a2a3a" stroke-width="0.3"/>
  <path d="M-68.6,62.1L-68.6,65.9L-67.6,65.9L-67.0,66.0L-67.3,66.7L-68.1,67.2L-68.6,67.2L-69.2,67.0L-70.0,66.5L-71.0,66.2L-72.3,65.3L-73.3,64.3L-74.7,62.5L-73.8,62.8L-72.4,63.9L-71.1,64.5L-70.6,63.8L-70.3,62.6L-69.3,61.9L-68.6,62.1ZM-69.6,17.9L-69.1,18.6L-69.0,19.3L-68.4,19.8L-68.8,20.8L-68.2,22.0L-67.8,23.5L-67.1,23.4L-67.0,23.6L-67.3,24.8L-68.4,25.3L-68.4,27.1L-68.6,27.5L-68.3,27.9L-69.0,28.6L-69.7,29.7L-70.0,30.7L-69.9,31.9L-70.5,33.1L-70.1,35.1L-69.8,35.3L-69.8,36.4L-70.4,37.6L-70.4,38.6L-71.1,39.5L-71.1,40.6L-70.8,41.8L-71.4,42.3L-71.7,43.5L-71.9,44.8L-71.7,46.4L-72.1,46.7L-71.9,48.3L-71.5,48.8L-71.8,49.4L-71.3,49.7L-71.2,50.2L-71.7,50.5L-71.6,51.3L-71.9,53.2L-72.4,54.5L-72.3,55.2L-72.6,56.2L-73.4,56.9L-73.3,58.5L-73.0,59.1L-72.3,59.0L-72.3,60.2L-71.9,61.1L-69.5,61.3L-68.6,61.6L-69.5,61.6L-69.9,62.0L-70.8,62.6L-71.0,64.1L-71.4,64.2L-72.6,63.6L-73.7,62.5L-73.7,62.5L-74.9,61.5L-75.3,60.5L-75.0,59.5L-75.5,58.5L-75.6,55.9L-75.2,54.4L-74.1,53.3L-75.6,52.9L-74.7,51.6L-74.4,49.2L-73.2,49.7L-72.7,46.9L-73.4,46.5L-73.7,48.2L-74.3,48.0L-74.0,46.1L-73.7,43.6L-73.2,42.7L-73.5,41.5L-73.6,40.1L-73.2,40.0L-72.6,38.0L-71.9,36.1L-71.4,34.3L-71.7,32.5L-71.4,31.6L-71.5,30.2L-70.9,28.8L-70.7,26.6L-70.4,24.3L-70.1,21.9L-70.2,20.2L-70.4,18.7L-69.9,18.4L-69.6,17.9Z" fill="#1e1e2e" stroke="#2a2a3a" stroke-width="0.3"/>
  <path d="M-71.7,-20.1L-71.6,-19.5L-71.7,-19.1L-71.9,-19.0L-71.7,-18.6L-71.7,-18.4L-72.4,-18.5L-72.8,-18.5L-73.5,-18.5L-73.9,-18.3L-74.5,-18.7L-74.4,-19.0L-73.4,-18.9L-72.7,-18.8L-72.3,-19.0L-72.8,-19.5L-72.8,-19.9L-73.4,-20.0L-73.2,-20.3L-72.6,-20.3L-71.7,-20.1Z" fill="#1e1e2e" stroke="#2a2a3a" stroke-width="0.3"/>
  <path d="M-71.7,-18.4L-71.7,-18.6L-71.9,-19.0L-71.7,-19.1L-71.6,-19.5L-71.7,-20.1L-71.6,-20.3L-70.8,-20.3L-70.2,-20.0L-70.0,-20.0L-69.8,-19.7L-69.2,-19.7L-69.3,-19.4L-68.8,-19.3L-68.3,-18.9L-68.7,-18.5L-69.2,-18.7L-69.6,-18.7L-70.0,-18.8L-70.1,-18.6L-70.5,-18.5L-70.7,-18.8L-71.0,-18.6L-71.4,-17.9L-71.7,-18.0L-71.7,-18.4Z" fill="#1e1e2e" stroke="#2a2a3a" stroke-width="0.3"/>
  <path d="M178.7,-102.7L180.0,-104.0L180.0,-101.9L178.9,-101.8L178.7,-102.7ZM49.1,-52.5L48.6,-51.6L47.7,-51.4L46.7,-49.9L47.6,-48.6L47.5,-47.7L48.6,-46.1L48.6,-46.1L48.0,-45.6L47.8,-45.2L47.4,-45.3L46.7,-46.1L46.4,-46.2L45.8,-46.5L45.5,-47.0L44.5,-47.3L43.9,-47.1L43.8,-47.4L42.4,-48.0L40.9,-48.2L40.1,-48.5L40.0,-48.3L38.7,-49.5L37.5,-50.0L36.7,-50.8L37.4,-51.1L38.2,-52.3L37.7,-52.8L39.1,-53.4L39.1,-53.8L38.2,-53.5L38.3,-54.2L38.8,-54.6L39.7,-54.7L39.9,-55.2L39.7,-56.0L40.1,-56.8L40.1,-57.3L38.6,-57.8L38.0,-57.8L37.4,-58.5L36.6,-58.3L35.4,-58.8L35.4,-59.1L35.0,-59.8L34.2,-59.9L34.1,-60.4L34.4,-60.7L33.8,-61.6L32.7,-61.5L32.4,-61.6L32.2,-61.2L31.8,-61.3L31.8,-61.3L31.5,-62.3L31.3,-62.9L31.5,-63.0L32.3,-63.0L32.7,-63.3L32.4,-63.8L31.7,-64.1L31.8,-64.4L31.4,-64.7L30.8,-65.8L31.0,-66.3L30.9,-67.1L29.9,-67.5L29.4,-67.3L29.2,-67.8L28.2,-68.2L27.9,-69.3L27.8,-70.2L27.3,-70.6L27.7,-71.2L27.4,-73.0L28.1,-74.1L28.0,-74.4L28.0,-74.4L29.1,-75.5L28.1,-76.5L28.1,-76.5L30.2,-79.1L31.1,-80.3L31.5,-81.5L30.0,-83.0L30.4,-84.5L29.5,-86.2L30.2,-88.3L29.1,-91.1L30.0,-93.0L28.4,-94.8L28.6,-96.8L29.4,-97.0L31.1,-98.2L31.1,-98.2L32.1,-99.2L33.8,-97.4L36.5,-96.8L40.3,-93.7L41.1,-92.4L41.1,-90.7L40.0,-89.4L38.4,-88.7L33.9,-90.6L33.2,-90.3L34.8,-88.5L34.9,-87.4L34.9,-84.9L36.2,-84.2L37.0,-83.6L37.1,-84.8L36.5,-85.8L37.2,-86.7L39.6,-85.2L40.4,-85.8L39.8,-87.5L42.1,-89.9L43.0,-89.8L43.9,-88.9L44.5,-90.6L43.7,-92.1L44.2,-93.7L43.5,-95.4L46.3,-94.5L46.8,-93.0L45.6,-92.7L45.6,-91.3L46.3,-90.4L47.9,-90.9L48.1,-92.6L50.2,-93.8L53.7,-96.2L54.5,-96.0L53.5,-94.4L54.7,-94.1L55.4,-95.0L57.3,-95.1L58.8,-96.2L59.9,-94.6L61.1,-96.4L60.0,-98.0L60.5,-99.0L63.5,-98.1L64.9,-97.2L68.5,-94.1L69.2,-95.5L68.2,-97.0L68.1,-97.6L66.9,-97.9L67.3,-99.2L66.7,-101.5L66.7,-102.5L68.5,-105.4L69.2,-108.4L69.9,-109.0L72.6,-108.1L72.8,-106.3L71.8,-103.7L72.5,-102.7L72.8,-100.6L72.6,-96.6L73.7,-94.9L73.2,-93.2L71.3,-89.5L72.4,-89.2L72.8,-90.0L73.9,-90.7L74.2,-92.0L75.1,-93.2L74.5,-94.7L74.9,-96.5L73.8,-96.8L73.6,-98.4L74.4,-101.3L73.1,-103.8L74.9,-106.0L74.7,-108.3L75.2,-108.4L75.7,-106.6L75.3,-103.5L76.4,-102.9L75.9,-105.2L77.6,-106.5L79.7,-106.6L81.5,-104.8L80.6,-107.5L80.5,-111.2L82.3,-111.9L84.7,-111.7L86.8,-112.2L86.0,-114.1L87.2,-116.6L88.3,-116.7L90.3,-118.7L92.9,-119.2L93.2,-120.4L95.9,-120.7L96.7,-119.8L98.9,-122.0L100.8,-122.0L101.0,-123.8L102.0,-125.7L104.4,-127.6L106.1,-126.1L104.7,-125.0L107.0,-124.3L107.2,-122.2L108.2,-123.2L111.1,-123.2L113.3,-121.1L114.1,-119.5L113.9,-117.5L112.8,-116.3L110.2,-114.2L109.4,-113.1L110.6,-112.6L112.1,-111.7L113.0,-112.3L113.5,-110.1L114.0,-111.0L115.6,-111.5L118.8,-111.0L119.0,-109.3L123.2,-108.8L123.3,-111.5L125.4,-110.9L127.0,-110.9L128.6,-109.0L129.1,-106.9L128.5,-105.5L129.7,-103.0L131.3,-101.8L132.3,-105.1L133.9,-103.6L135.6,-104.5L137.5,-103.5L138.2,-104.4L139.9,-103.9L139.1,-106.9L140.5,-108.4L149.5,-106.2L150.4,-104.3L153.0,-101.9L157.0,-102.5L159.0,-102.0L159.8,-100.8L159.7,-98.6L160.9,-97.8L162.3,-98.4L164.1,-98.5L165.9,-97.9L167.8,-98.2L169.6,-95.7L170.8,-96.6L170.0,-98.4L170.5,-99.7L173.6,-98.9L175.7,-99.1L178.6,-97.7L180.0,-96.5L180.0,-86.3L180.0,-86.3L178.7,-85.2L177.4,-85.4L178.3,-84.2L178.9,-82.3L179.4,-81.7L179.5,-80.8L179.2,-80.2L177.4,-80.7L174.6,-79.1L173.7,-78.8L172.2,-77.4L170.7,-76.1L170.3,-75.2L168.9,-76.6L166.3,-75.0L165.8,-75.8L164.9,-74.9L163.5,-75.2L163.2,-73.9L162.0,-72.0L162.1,-71.3L163.2,-70.8L163.1,-68.2L162.1,-68.1L161.7,-66.6L162.1,-65.9L160.4,-65.0L160.0,-63.1L158.5,-62.7L158.2,-61.0L156.8,-59.5L156.4,-60.6L156.0,-63.0L155.4,-66.8L155.9,-69.3L156.8,-70.4L156.8,-71.3L158.4,-71.7L160.2,-74.1L161.9,-76.1L163.7,-77.8L164.5,-80.8L163.3,-80.6L162.7,-78.8L160.1,-76.6L159.3,-79.1L156.7,-78.4L154.2,-75.0L155.0,-73.8L152.8,-73.3L151.3,-73.1L151.3,-74.5L149.8,-74.8L148.5,-73.8L145.5,-74.1L142.2,-73.6L139.0,-69.9L135.1,-65.7L136.7,-65.4L137.2,-64.4L138.2,-64.0L138.8,-64.8L139.9,-64.7L141.3,-62.9L141.4,-61.5L140.6,-59.9L140.5,-58.0L140.1,-55.5L138.6,-53.4L138.2,-52.4L136.9,-50.7L135.5,-49.1L134.9,-48.3L133.5,-47.5L132.9,-47.4L132.3,-48.1L130.9,-47.1L130.8,-46.7L130.8,-46.7L130.8,-46.7L130.8,-46.7L130.6,-46.9L130.6,-46.9L130.6,-47.6L131.1,-47.6L131.3,-49.3L131.0,-50.5L131.9,-51.0L133.1,-50.7L133.8,-52.1L134.1,-53.7L134.5,-54.2L135.0,-55.6L133.4,-55.1L132.5,-54.5L131.0,-54.5L130.6,-56.0L129.4,-57.0L127.7,-57.5L127.3,-59.1L126.9,-60.0L126.6,-60.7L125.9,-62.4L125.1,-63.0L123.6,-63.5L122.2,-63.5L121.0,-63.1L120.2,-62.3L120.7,-61.9L120.7,-61.0L120.2,-60.5L119.3,-58.8L119.3,-58.1L117.9,-57.2L116.7,-57.7L115.5,-57.6L115.0,-58.1L114.4,-58.3L112.9,-57.2L111.6,-56.9L110.7,-56.6L109.4,-56.8L108.5,-56.8L107.9,-57.6L106.9,-58.3L105.9,-58.5L104.6,-58.3L103.7,-58.0L102.3,-58.7L102.1,-59.9L100.9,-60.3L100.0,-60.5L98.9,-61.2L97.8,-59.5L98.2,-58.6L97.3,-57.5L95.8,-57.9L94.8,-57.9L94.1,-58.7L93.1,-58.7L92.2,-59.2L90.7,-58.4L88.8,-57.1L87.8,-56.8L87.4,-56.7L86.8,-57.6L85.5,-57.4L85.1,-58.1L84.4,-58.4L83.9,-59.3L83.4,-59.6L81.9,-59.2L80.6,-60.1L80.0,-59.3L77.8,-63.4L76.5,-64.7L76.9,-65.3L74.4,-63.6L73.4,-63.5L73.5,-64.5L72.2,-65.1L71.2,-64.6L70.9,-66.4L69.1,-66.8L68.2,-66.1L65.7,-65.4L65.2,-65.0L61.4,-64.4L61.0,-63.8L61.7,-62.7L60.7,-62.3L60.9,-61.8L60.0,-61.0L61.6,-59.9L61.3,-59.2L59.9,-59.2L59.6,-58.8L58.4,-59.6L56.8,-59.5L55.7,-58.9L54.5,-59.5L52.3,-60.6L50.8,-60.6L48.7,-58.9L48.6,-57.7L47.5,-58.6L46.8,-56.9L47.0,-56.6L46.5,-55.5L47.3,-54.4L48.1,-54.5L48.7,-53.5L48.6,-52.7L49.1,-52.5ZM93.8,-145.8L95.9,-147.3L97.9,-144.1L100.2,-138.3L99.9,-133.5L97.8,-132.8L95.0,-134.3L93.3,-136.4L92.5,-140.4L91.2,-141.6L93.8,-145.8ZM102.8,-135.6L105.4,-132.6L105.1,-130.6L99.4,-128.7L101.3,-135.3L102.1,-135.9L102.8,-135.6ZM138.8,-120.7L141.5,-120.6L145.1,-118.4L144.3,-115.5L140.6,-115.6L139.0,-114.7L137.0,-117.2L137.5,-120.0L138.8,-120.7ZM148.2,-117.5L150.7,-116.5L149.6,-115.0L148.0,-115.3L146.1,-116.8L146.4,-118.1L148.2,-117.5ZM139.9,-110.2L140.8,-111.6L142.1,-111.9L143.5,-110.6L143.6,-109.6L142.1,-109.6L140.0,-110.0L139.9,-110.2ZM44.8,-143.1L46.8,-144.2L48.3,-144.3L48.5,-142.6L49.1,-144.1L50.0,-145.1L51.5,-143.8L51.1,-142.8L49.8,-142.0L48.9,-141.6L48.8,-140.6L47.6,-139.6L46.5,-141.0L47.1,-142.9L44.8,-143.1ZM22.7,-65.0L20.9,-64.9L19.7,-65.1L19.9,-65.9L21.3,-66.5L22.3,-66.2L22.8,-65.9L22.7,-65.4L22.7,-65.0ZM53.5,-111.5L55.9,-114.8L55.6,-116.5L57.9,-118.6L61.2,-121.2L64.5,-122.0L66.2,-123.6L68.2,-124.2L68.9,-122.5L68.2,-121.1L64.6,-119.1L61.6,-117.2L58.5,-113.6L57.0,-110.1L55.4,-106.8L55.6,-104.1L57.5,-101.6L56.9,-101.3L53.7,-101.7L53.4,-103.1L51.6,-103.9L51.5,-105.6L52.5,-106.3L52.4,-108.1L54.4,-111.1L53.5,-111.5ZM142.9,-63.9L143.3,-62.3L143.2,-60.7L143.6,-59.1L144.7,-56.3L143.2,-56.8L142.6,-54.7L143.5,-53.1L143.5,-52.1L142.7,-53.0L142.1,-51.9L141.9,-53.1L142.0,-54.5L141.9,-56.2L142.1,-57.3L142.2,-59.4L141.6,-61.0L141.7,-63.2L142.6,-64.0L142.2,-64.8L142.7,-65.0L142.9,-63.9ZM-174.9,-91.8L-175.0,-90.2L-174.3,-89.6L-174.6,-91.4L-171.9,-91.0L-169.9,-88.7L-170.9,-87.6L-172.5,-87.4L-172.6,-85.1L-173.0,-84.6L-173.9,-84.6L-174.7,-85.4L-176.0,-86.1L-176.2,-87.2L-177.2,-87.6L-178.4,-87.2L-178.9,-88.1L-178.7,-89.0L-179.9,-88.4L-179.4,-87.3L-180.0,-86.3L-180.0,-96.5L-177.6,-94.4L-174.9,-91.8ZM-178.7,-102.1L-180.0,-101.9L-180.0,-104.0L-179.9,-104.2L-179.0,-104.2L-177.6,-103.3L-177.7,-102.8L-178.7,-102.1ZM33.4,-51.9L33.7,-52.2L34.4,-51.9L34.7,-51.9L34.9,-51.6L35.0,-51.5L35.0,-51.4L35.5,-51.1L36.5,-51.2L36.3,-50.7L35.2,-50.4L33.9,-49.6L33.3,-49.9L33.5,-50.5L32.5,-51.0L32.6,-51.2L33.6,-51.7L33.4,-51.9Z" fill="#1e1e2e" stroke="#2a2a3a" stroke-width="0.3"/>
  <path d="M-79.0,-27.8L-78.5,-27.9L-77.8,-27.9L-77.8,-27.6L-78.9,-27.4L-79.0,-27.8ZM-77.8,-28.1L-77.0,-27.6L-77.2,-26.8L-77.4,-26.9L-77.3,-27.5L-77.8,-28.0L-77.8,-28.1ZM-78.2,-26.1L-77.9,-26.0L-77.5,-25.1L-77.5,-24.5L-77.8,-24.4L-78.0,-25.0L-78.4,-25.4L-78.2,-26.1Z" fill="#1e1e2e" stroke="#2a2a3a" stroke-width="0.3"/>
  <path d="M15.1,-137.7L15.5,-139.7L17.0,-139.9L18.3,-137.9L21.5,-133.9L19.0,-131.8L18.5,-128.2L17.6,-127.4L17.1,-123.6L15.9,-123.4L13.8,-126.2L14.7,-127.8L13.2,-129.2L11.2,-133.4L10.4,-137.6L13.2,-139.6L13.7,-137.7L15.1,-137.7ZM31.1,-98.2L29.4,-97.0L28.6,-96.8L29.0,-98.8L27.7,-99.9L26.2,-98.9L25.7,-96.8L24.7,-95.6L23.7,-96.3L22.4,-96.1L21.2,-97.6L20.6,-96.9L20.0,-96.8L19.9,-94.9L18.0,-95.4L17.7,-93.9L16.8,-93.9L16.1,-92.0L15.1,-89.2L13.6,-85.8L13.9,-85.0L13.6,-84.1L12.6,-84.1L11.9,-82.0L12.0,-79.2L12.6,-78.1L12.3,-75.7L11.5,-74.3L11.0,-73.2L10.4,-74.4L8.4,-72.2L7.0,-71.7L5.7,-72.7L5.3,-74.8L5.0,-79.5L5.9,-80.9L8.6,-82.8L10.5,-85.1L12.4,-88.4L14.8,-93.3L16.4,-95.4L19.2,-98.9L21.4,-100.2L23.0,-100.0L24.5,-102.5L26.4,-102.4L28.2,-103.0L31.3,-100.8L30.0,-100.0L31.1,-98.2ZM27.4,-139.9L25.9,-136.9L23.0,-136.2L20.1,-137.1L19.9,-138.7L18.5,-138.8L17.4,-141.5L20.5,-143.1L21.9,-141.7L22.9,-143.5L25.4,-142.0L27.4,-139.9ZM24.7,-128.4L22.5,-126.5L20.7,-127.5L21.4,-128.8L20.8,-130.3L22.9,-131.3L23.3,-129.5L24.7,-128.4Z" fill="#1e1e2e" stroke="#2a2a3a" stroke-width="0.3"/>
  <path d="M-46.8,-157.1L-43.4,-162.0L-39.9,-161.6L-38.6,-164.8L-35.1,-165.6L-27.1,-164.5L-20.8,-157.9L-22.7,-154.9L-26.5,-154.6L-31.9,-153.9L-31.4,-152.6L-27.9,-153.4L-24.8,-150.9L-22.9,-153.1L-22.1,-150.5L-23.2,-146.6L-20.6,-149.1L-15.8,-151.8L-12.8,-150.4L-12.2,-147.5L-16.3,-143.0L-16.9,-141.6L-20.0,-140.6L-17.7,-140.3L-18.9,-136.2L-19.7,-132.8L-19.7,-127.4L-18.5,-124.4L-20.0,-124.2L-21.7,-122.8L-19.8,-120.6L-19.6,-117.1L-20.7,-116.8L-19.4,-113.5L-21.6,-113.2L-20.4,-111.8L-20.8,-110.5L-22.2,-110.0L-23.6,-110.0L-22.3,-107.7L-22.3,-106.2L-24.3,-107.5L-24.8,-106.7L-23.4,-105.8L-22.1,-103.9L-21.8,-101.4L-23.5,-100.8L-24.3,-102.0L-25.5,-103.8L-25.2,-101.7L-26.4,-100.1L-23.7,-100.0L-22.3,-99.8L-25.0,-97.3L-27.7,-95.1L-30.7,-94.2L-31.8,-94.2L-32.8,-93.1L-34.2,-90.4L-36.4,-88.7L-37.0,-88.6L-38.4,-88.0L-39.8,-87.4L-40.7,-85.9L-40.7,-84.3L-41.2,-82.8L-42.8,-81.1L-42.4,-79.4L-42.9,-77.6L-43.4,-75.7L-44.8,-75.5L-46.3,-77.2L-48.3,-77.2L-49.2,-78.3L-49.9,-80.4L-51.6,-83.1L-52.1,-84.6L-52.3,-86.7L-53.7,-89.0L-53.3,-90.8L-54.0,-91.7L-53.0,-94.8L-51.5,-95.8L-51.1,-97.0L-50.9,-99.2L-52.0,-98.2L-52.6,-97.8L-53.5,-97.4L-54.7,-98.3L-54.8,-100.3L-54.4,-101.9L-53.4,-101.9L-51.4,-101.1L-53.1,-103.1L-54.0,-104.1L-55.0,-103.7L-55.8,-104.5L-54.7,-107.5L-55.3,-108.8L-56.1,-111.2L-57.3,-115.1L-58.6,-116.6L-58.6,-118.2L-61.3,-120.6L-63.4,-120.9L-66.1,-120.7L-68.5,-120.4L-69.7,-121.8L-71.4,-124.5L-68.8,-125.9L-66.8,-126.1L-71.0,-127.4L-73.3,-129.3L-73.2,-131.2L-69.4,-133.6L-65.7,-136.2L-65.3,-138.2L-68.0,-140.3L-67.2,-142.6L-63.7,-147.0L-62.2,-147.7L-62.7,-150.8L-60.3,-152.7L-57.2,-153.8L-54.1,-153.9L-53.0,-151.6L-50.4,-155.7L-48.0,-152.9L-46.6,-152.3L-44.5,-150.0L-46.9,-153.9L-46.8,-157.1Z" fill="#1e1e2e" stroke="#2a2a3a" stroke-width="0.3"/>
  <path d="M-117.1,-34.4L-116.0,-34.5L-114.7,-34.7L-114.8,-34.4L-113.3,-33.9L-111.0,-33.0L-109.0,-33.0L-108.2,-33.0L-108.2,-33.5L-106.5,-33.5L-106.1,-33.1L-105.6,-32.7L-105.0,-32.2L-104.7,-31.6L-104.5,-31.0L-103.9,-30.6L-103.1,-30.3L-102.5,-31.2L-101.7,-31.2L-101.0,-30.8L-100.5,-30.0L-100.1,-29.3L-99.5,-28.7L-99.3,-27.9L-99.0,-27.4L-98.2,-27.0L-97.5,-26.8L-97.1,-26.8L-97.5,-25.8L-97.7,-25.0L-97.8,-23.6L-97.9,-23.0L-97.7,-22.5L-97.4,-21.9L-97.2,-21.1L-96.5,-20.3L-96.3,-19.7L-95.9,-19.2L-94.8,-18.9L-94.4,-18.5L-93.5,-18.7L-92.8,-18.9L-92.0,-19.0L-91.4,-19.2L-90.8,-19.7L-90.5,-20.3L-90.5,-21.2L-90.3,-21.5L-89.6,-21.8L-88.5,-22.0L-87.7,-22.0L-87.1,-22.1L-86.8,-21.8L-86.8,-21.3L-87.4,-20.7L-87.6,-20.0L-87.4,-19.9L-87.6,-19.4L-87.8,-18.6L-88.1,-18.8L-88.3,-18.8L-88.5,-18.8L-88.8,-18.2L-89.0,-18.3L-89.2,-18.3L-89.1,-18.1L-90.1,-18.1L-91.0,-18.1L-91.0,-17.5L-91.5,-17.5L-91.1,-17.2L-90.7,-16.9L-90.6,-16.7L-90.4,-16.6L-90.5,-16.3L-91.7,-16.3L-92.2,-15.4L-92.1,-15.2L-92.2,-15.0L-92.2,-14.7L-93.4,-15.8L-93.9,-16.1L-94.7,-16.4L-95.3,-16.3L-96.1,-16.0L-96.6,-15.9L-97.3,-16.1L-98.0,-16.3L-98.9,-16.8L-99.7,-16.9L-100.8,-17.4L-101.7,-17.9L-101.9,-18.2L-102.5,-18.3L-103.5,-18.6L-103.9,-19.1L-105.0,-19.7L-105.5,-20.4L-105.7,-20.9L-105.4,-21.0L-105.5,-21.3L-105.3,-21.6L-105.3,-21.9L-105.6,-22.4L-105.7,-22.9L-106.0,-23.4L-106.9,-24.5L-107.9,-25.3L-108.4,-26.0L-109.3,-26.5L-109.4,-26.7L-109.3,-27.4L-109.8,-27.7L-110.4,-28.2L-110.6,-29.0L-111.2,-29.1L-111.8,-29.7L-112.2,-30.3L-112.3,-30.6L-112.8,-31.5L-113.2,-32.4L-113.1,-32.8L-113.9,-33.3L-114.2,-33.2L-114.8,-33.6L-114.9,-33.1L-114.8,-32.5L-114.7,-31.7L-114.3,-31.2L-113.6,-30.4L-113.4,-30.1L-113.3,-30.0L-113.1,-29.7L-113.0,-29.7L-112.8,-28.9L-112.5,-28.7L-112.2,-28.3L-111.6,-27.7L-111.3,-26.6L-111.0,-26.2L-110.7,-25.6L-110.7,-25.1L-110.2,-25.0L-109.8,-24.5L-109.4,-24.0L-109.4,-23.8L-109.9,-23.4L-110.0,-23.5L-110.3,-24.1L-110.9,-24.7L-111.7,-25.3L-112.2,-25.5L-112.1,-26.4L-112.3,-27.0L-112.8,-27.3L-113.5,-27.8L-113.6,-27.7L-113.8,-27.9L-114.5,-28.2L-115.1,-28.9L-115.0,-29.0L-114.6,-28.9L-114.2,-29.3L-114.2,-29.8L-114.9,-30.6L-115.5,-31.0L-115.9,-31.7L-116.3,-32.4L-116.7,-33.4L-117.1,-34.4Z" fill="#1e1e2e" stroke="#2a2a3a" stroke-width="0.3"/>
  <path d="M-57.6,31.7L-57.0,31.6L-56.0,32.5L-55.6,32.5L-54.6,33.2L-53.8,33.9L-53.2,34.7L-53.7,35.2L-53.4,35.9L-53.8,36.7L-54.9,37.3L-55.7,37.1L-56.2,37.2L-57.1,36.7L-57.8,36.8L-58.4,36.1L-58.3,35.3L-58.1,35.0L-58.1,33.9L-57.9,32.7L-57.6,31.7Z" fill="#1e1e2e" stroke="#2a2a3a" stroke-width="0.3"/>
  <path d="M-53.4,35.9L-53.7,35.2L-53.2,34.7L-53.8,33.9L-54.6,33.2L-55.6,32.5L-56.0,32.5L-57.0,31.6L-57.6,31.7L-56.3,30.2L-55.2,29.1L-54.5,28.6L-53.6,28.0L-53.6,27.1L-54.1,26.4L-54.6,26.7L-54.4,26.0L-54.3,25.4L-54.3,24.8L-54.7,24.6L-55.0,24.7L-55.4,24.7L-55.5,24.3L-55.6,23.3L-55.8,22.9L-56.5,22.7L-56.9,22.9L-57.9,22.7L-57.9,21.2L-58.2,20.6L-57.9,20.4L-57.9,19.8L-57.7,19.3L-57.5,18.5L-57.7,17.8L-58.3,17.5L-58.4,17.1L-58.2,16.5L-60.2,16.5L-60.5,15.3L-60.3,15.3L-60.3,14.8L-60.5,14.5L-60.5,13.9L-61.1,13.6L-61.7,13.6L-62.1,13.3L-62.8,13.1L-63.2,12.7L-64.3,12.6L-65.4,11.6L-65.3,11.0L-65.4,10.6L-65.3,9.8L-66.6,10.0L-67.2,10.4L-68.0,10.8L-68.3,11.1L-68.8,11.1L-69.5,11.0L-70.1,11.2L-70.5,11.1L-70.5,9.5L-71.3,10.1L-72.2,10.1L-72.6,9.6L-73.2,9.5L-73.0,9.1L-73.6,8.5L-74.0,7.5L-73.7,7.4L-73.7,6.9L-73.1,6.6L-73.2,6.1L-73.0,5.8L-72.9,5.3L-71.7,4.6L-70.9,4.4L-70.8,4.3L-69.9,4.3L-69.4,1.6L-69.4,1.1L-69.6,0.6L-70.0,0.2L-70.0,-0.5L-69.5,-0.7L-69.3,-0.6L-69.2,-1.0L-69.8,-1.1L-69.8,-1.7L-67.9,-1.7L-67.5,-2.0L-67.3,-1.7L-67.1,-1.1L-66.9,-1.3L-66.3,-0.7L-65.5,-0.8L-65.4,-1.1L-64.6,-1.3L-64.2,-1.5L-64.1,-1.9L-63.4,-2.2L-63.4,-2.4L-64.3,-2.5L-64.4,-3.1L-64.4,-3.8L-64.8,-4.1L-64.6,-4.2L-63.9,-4.0L-63.1,-3.8L-62.8,-4.0L-62.1,-4.2L-61.0,-4.5L-60.6,-4.9L-60.7,-5.2L-60.2,-5.3L-60.0,-5.0L-60.1,-4.6L-59.8,-4.4L-59.5,-4.0L-59.8,-3.6L-60.0,-2.8L-59.7,-2.3L-59.6,-1.8L-59.0,-1.3L-58.5,-1.3L-58.4,-1.5L-58.1,-1.5L-57.7,-1.7L-57.3,-1.9L-56.8,-1.9L-56.5,-1.9L-56.0,-1.8L-55.9,-2.0L-56.1,-2.2L-56.0,-2.5L-55.6,-2.4L-55.1,-2.5L-54.5,-2.3L-54.1,-2.1L-53.8,-2.4L-53.6,-2.3L-53.4,-2.1L-52.9,-2.1L-52.6,-2.5L-52.2,-3.2L-51.7,-4.2L-51.3,-4.2L-51.1,-3.7L-50.5,-1.9L-50.0,-1.7L-49.9,-1.0L-50.7,-0.2L-50.4,0.1L-48.6,0.2L-48.6,1.2L-47.8,0.6L-46.6,0.9L-44.9,1.6L-44.4,2.1L-44.6,2.7L-43.4,2.4L-41.5,2.9L-40.0,2.9L-38.5,3.7L-37.2,4.8L-36.5,5.1L-35.6,5.2L-35.2,5.5L-34.9,6.8L-34.7,7.4L-35.1,9.0L-35.6,9.7L-37.0,11.1L-37.7,12.3L-38.4,13.2L-38.7,13.2L-39.0,13.9L-38.9,15.9L-39.2,17.5L-39.3,18.2L-39.6,18.6L-39.8,20.0L-40.8,21.4L-40.9,22.5L-41.8,23.0L-42.0,23.6L-43.1,23.6L-44.6,24.0L-45.4,24.5L-46.5,24.8L-47.6,25.7L-48.5,26.8L-48.6,27.6L-48.5,28.3L-48.7,29.4L-48.9,30.0L-49.6,30.6L-50.7,32.6L-51.6,33.5L-52.3,34.1L-52.7,35.2L-53.4,35.9Z" fill="#1e1e2e" stroke="#2a2a3a" stroke-width="0.3"/>
  <path d="M-69.5,11.0L-68.8,11.1L-68.3,11.1L-68.0,10.8L-67.2,10.4L-66.6,10.0L-65.3,9.8L-65.4,10.6L-65.3,11.0L-65.4,11.6L-64.3,12.6L-63.2,12.7L-62.8,13.1L-62.1,13.3L-61.7,13.6L-61.1,13.6L-60.5,13.9L-60.5,14.5L-60.3,14.8L-60.3,15.3L-60.5,15.3L-60.2,16.5L-58.2,16.5L-58.4,17.1L-58.3,17.5L-57.7,17.8L-57.5,18.5L-57.7,19.3L-57.9,19.8L-57.9,20.4L-58.2,20.6L-58.2,20.3L-59.1,19.7L-60.0,19.7L-61.8,20.0L-62.3,21.0L-62.3,21.5L-62.7,22.8L-62.8,22.6L-64.0,22.6L-64.4,23.4L-65.0,22.6L-66.3,22.4L-67.1,23.4L-67.8,23.5L-68.2,22.0L-68.8,20.8L-68.4,19.8L-69.0,19.3L-69.1,18.6L-69.6,17.9L-69.0,16.7L-69.4,15.9L-69.2,15.5L-69.3,15.1L-68.9,14.6L-68.9,13.7L-68.9,13.0L-68.7,12.7L-69.5,11.0Z" fill="#1e1e2e" stroke="#2a2a3a" stroke-width="0.3"/>
  <path d="M-69.9,4.3L-70.8,4.3L-70.9,4.4L-71.7,4.6L-72.9,5.3L-73.0,5.8L-73.2,6.1L-73.1,6.6L-73.7,6.9L-73.7,7.4L-74.0,7.5L-73.6,8.5L-73.0,9.1L-73.2,9.5L-72.6,9.6L-72.2,10.1L-71.3,10.1L-70.5,9.5L-70.5,11.1L-70.1,11.2L-69.5,11.0L-68.7,12.7L-68.9,13.0L-68.9,13.7L-68.9,14.6L-69.3,15.1L-69.2,15.5L-69.4,15.9L-69.0,16.7L-69.6,17.9L-69.9,18.4L-70.4,18.7L-71.4,18.1L-71.5,17.6L-73.4,16.6L-75.2,15.4L-76.0,14.8L-76.4,14.0L-76.3,13.7L-77.1,12.3L-78.1,10.4L-79.0,8.4L-79.4,8.0L-79.8,7.2L-80.5,6.6L-81.2,6.1L-80.9,5.7L-81.4,4.7L-81.1,4.0L-80.3,3.4L-80.2,3.8L-80.5,4.1L-80.4,4.4L-80.0,4.4L-79.6,4.5L-79.2,5.0L-78.6,4.6L-78.5,3.9L-77.8,3.0L-76.6,2.6L-75.5,1.6L-75.2,0.9L-75.4,0.2L-75.1,0.1L-74.4,0.5L-74.1,1.0L-73.7,1.3L-73.1,2.3L-72.3,2.4L-71.8,2.2L-71.4,2.3L-70.8,2.3L-70.0,2.7L-70.7,3.7L-70.4,3.8L-69.9,4.3Z" fill="#1e1e2e" stroke="#2a2a3a" stroke-width="0.3"/>
  <path d="M-66.9,-1.3L-67.1,-1.1L-67.3,-1.7L-67.5,-2.0L-67.9,-1.7L-69.8,-1.7L-69.8,-1.1L-69.2,-1.0L-69.3,-0.6L-69.5,-0.7L-70.0,-0.5L-70.0,0.2L-69.6,0.6L-69.4,1.1L-69.4,1.6L-69.9,4.3L-70.4,3.8L-70.7,3.7L-70.0,2.7L-70.8,2.3L-71.4,2.3L-71.8,2.2L-72.3,2.4L-73.1,2.3L-73.7,1.3L-74.1,1.0L-74.4,0.5L-75.1,0.1L-75.4,0.2L-75.8,-0.1L-76.3,-0.4L-76.6,-0.3L-77.4,-0.4L-77.7,-0.8L-77.9,-0.8L-78.9,-1.4L-79.0,-1.7L-78.6,-1.8L-78.7,-2.3L-78.4,-2.6L-77.9,-2.7L-77.5,-3.3L-77.1,-3.9L-77.5,-4.1L-77.3,-4.7L-77.5,-5.6L-77.3,-5.9L-77.5,-6.7L-77.9,-7.2L-77.8,-7.7L-77.4,-7.7L-77.2,-8.0L-77.5,-8.6L-77.4,-8.7L-76.8,-8.7L-76.1,-9.4L-75.7,-9.5L-75.7,-9.8L-75.5,-10.7L-74.9,-11.2L-74.3,-11.2L-74.2,-11.4L-73.4,-11.3L-72.6,-11.8L-72.2,-12.0L-71.8,-12.5L-71.4,-12.5L-71.1,-12.2L-71.3,-11.9L-72.0,-11.7L-72.2,-11.2L-72.6,-10.9L-72.9,-10.5L-73.0,-9.8L-73.3,-9.2L-72.8,-9.1L-72.7,-8.7L-72.4,-8.4L-72.4,-8.0L-72.5,-7.7L-72.4,-7.4L-72.2,-7.4L-72.0,-7.0L-70.7,-7.1L-70.1,-7.0L-69.4,-6.1L-69.0,-6.2L-68.3,-6.2L-67.7,-6.3L-67.3,-6.1L-67.5,-5.6L-67.7,-5.2L-67.8,-4.5L-67.6,-3.8L-67.3,-3.5L-67.3,-3.3L-67.8,-2.8L-67.4,-2.6L-67.2,-2.3L-66.9,-1.3Z" fill="#1e1e2e" stroke="#2a2a3a" stroke-width="0.3"/>
  <path d="M-77.4,-8.7L-77.5,-8.6L-77.2,-8.0L-77.4,-7.7L-77.8,-7.7L-77.9,-7.2L-78.2,-7.5L-78.4,-8.1L-78.2,-8.3L-78.4,-8.4L-78.6,-8.8L-79.1,-9.0L-79.6,-9.0L-79.8,-8.6L-80.2,-8.4L-80.4,-8.3L-80.5,-8.1L-80.0,-7.6L-80.3,-7.4L-80.4,-7.3L-80.9,-7.2L-81.1,-7.8L-81.2,-7.7L-81.5,-7.7L-81.7,-8.1L-82.1,-8.2L-82.4,-8.3L-82.8,-8.3L-82.9,-8.1L-83.0,-8.3L-82.9,-8.5L-82.8,-8.7L-82.9,-8.8L-82.7,-9.0L-82.9,-9.1L-82.9,-9.5L-82.5,-9.6L-82.2,-9.2L-82.2,-9.0L-81.8,-9.0L-81.7,-9.1L-81.4,-8.8L-80.9,-8.9L-80.5,-9.1L-79.9,-9.4L-79.6,-9.7L-79.0,-9.6L-79.1,-9.5L-78.5,-9.5L-78.1,-9.3L-77.7,-9.0L-77.4,-8.7Z" fill="#1e1e2e" stroke="#2a2a3a" stroke-width="0.3"/>
  <path d="M-82.5,-9.6L-82.9,-9.5L-82.9,-9.1L-82.7,-9.0L-82.9,-8.8L-82.8,-8.7L-82.9,-8.5L-83.0,-8.3L-83.5,-8.5L-83.7,-8.7L-83.6,-8.9L-83.6,-9.1L-83.9,-9.3L-84.3,-9.5L-84.6,-9.7L-84.7,-10.0L-85.0,-10.1L-84.9,-9.8L-85.1,-9.6L-85.3,-9.9L-85.7,-10.0L-85.8,-10.2L-85.8,-10.5L-85.7,-10.8L-85.9,-11.0L-85.7,-11.2L-85.6,-11.3L-84.9,-11.0L-84.7,-11.2L-84.4,-11.1L-84.2,-10.9L-83.9,-10.8L-83.7,-11.0L-83.4,-10.5L-83.0,-10.0L-82.5,-9.6Z" fill="#1e1e2e" stroke="#2a2a3a" stroke-width="0.3"/>
  <path d="M-83.7,-11.0L-83.9,-10.8L-84.2,-10.9L-84.4,-11.1L-84.7,-11.2L-84.9,-11.0L-85.6,-11.3L-85.7,-11.2L-86.1,-11.5L-86.5,-11.9L-86.7,-12.2L-87.2,-12.6L-87.7,-13.0L-87.6,-13.2L-87.4,-13.0L-87.3,-13.1L-87.0,-13.1L-86.9,-13.4L-86.7,-13.4L-86.8,-13.9L-86.5,-13.9L-86.3,-13.9L-86.1,-14.2L-85.8,-14.0L-85.7,-14.1L-85.5,-14.2L-85.2,-14.5L-85.1,-14.7L-85.1,-14.7L-84.9,-15.0L-84.8,-15.0L-84.6,-14.8L-84.4,-14.8L-84.2,-14.9L-84.0,-14.9L-83.6,-15.1L-83.5,-15.2L-83.1,-15.2L-83.2,-15.1L-83.3,-14.8L-83.2,-14.5L-83.4,-14.1L-83.5,-13.7L-83.6,-13.2L-83.5,-13.0L-83.5,-12.5L-83.6,-12.4L-83.7,-12.0L-83.7,-11.7L-83.9,-11.4L-83.8,-11.2L-83.7,-11.0Z" fill="#1e1e2e" stroke="#2a2a3a" stroke-width="0.3"/>
  <path d="M-83.1,-15.2L-83.5,-15.2L-83.6,-15.1L-84.0,-14.9L-84.2,-14.9L-84.4,-14.8L-84.6,-14.8L-84.8,-15.0L-84.9,-15.0L-85.1,-14.7L-85.1,-14.7L-85.2,-14.5L-85.5,-14.2L-85.7,-14.1L-85.8,-14.0L-86.1,-14.2L-86.3,-13.9L-86.5,-13.9L-86.8,-13.9L-86.7,-13.4L-86.9,-13.4L-87.0,-13.1L-87.3,-13.1L-87.5,-13.4L-87.8,-13.5L-87.7,-13.9L-87.9,-14.0L-88.1,-14.1L-88.5,-14.0L-88.5,-14.1L-88.8,-14.3L-89.1,-14.5L-89.4,-14.6L-89.1,-14.8L-89.2,-15.0L-89.2,-15.2L-88.7,-15.5L-88.2,-15.9L-88.1,-15.9L-87.9,-16.1L-87.6,-16.1L-87.5,-16.0L-87.4,-16.1L-86.9,-16.0L-86.4,-16.0L-86.1,-16.1L-86.0,-16.2L-85.7,-16.2L-85.4,-16.1L-85.2,-16.1L-85.0,-16.2L-84.5,-16.1L-84.4,-16.0L-84.1,-15.8L-83.8,-15.6L-83.4,-15.5L-83.1,-15.2Z" fill="#1e1e2e" stroke="#2a2a3a" stroke-width="0.3"/>
  <path d="M-89.4,-14.6L-89.1,-14.5L-88.8,-14.3L-88.5,-14.1L-88.5,-14.0L-88.1,-14.1L-87.9,-14.0L-87.7,-13.9L-87.8,-13.5L-87.9,-13.3L-88.5,-13.3L-88.8,-13.4L-89.3,-13.6L-89.8,-13.6L-90.1,-13.9L-90.1,-14.0L-89.7,-14.3L-89.5,-14.4L-89.6,-14.5L-89.4,-14.6Z" fill="#1e1e2e" stroke="#2a2a3a" stroke-width="0.3"/>
  <path d="M-92.2,-14.7L-92.2,-15.0L-92.1,-15.2L-92.2,-15.4L-91.7,-16.3L-90.5,-16.3L-90.4,-16.6L-90.6,-16.7L-90.7,-16.9L-91.1,-17.2L-91.5,-17.5L-91.0,-17.5L-91.0,-18.1L-90.1,-18.1L-89.1,-18.1L-89.2,-17.3L-89.2,-16.1L-88.9,-16.1L-88.6,-15.9L-88.5,-16.1L-88.2,-15.9L-88.7,-15.5L-89.2,-15.2L-89.2,-15.0L-89.1,-14.8L-89.4,-14.6L-89.6,-14.5L-89.5,-14.4L-89.7,-14.3L-90.1,-14.0L-90.1,-13.9L-90.6,-14.0L-91.2,-14.1L-91.7,-14.3L-92.2,-14.7Z" fill="#1e1e2e" stroke="#2a2a3a" stroke-width="0.3"/>
  <path d="M-89.1,-18.1L-89.2,-18.3L-89.0,-18.3L-88.8,-18.2L-88.5,-18.8L-88.3,-18.8L-88.3,-18.7L-88.1,-18.7L-88.1,-18.4L-88.3,-17.9L-88.2,-17.8L-88.3,-17.4L-88.2,-17.3L-88.4,-16.8L-88.6,-16.5L-88.7,-16.5L-88.9,-16.1L-89.2,-16.1L-89.2,-17.3L-89.1,-18.1Z" fill="#1e1e2e" stroke="#2a2a3a" stroke-width="0.3"/>
  <path d="M-60.7,-5.2L-60.6,-4.9L-61.0,-4.5L-62.1,-4.2L-62.8,-4.0L-63.1,-3.8L-63.9,-4.0L-64.6,-4.2L-64.8,-4.1L-64.4,-3.8L-64.4,-3.1L-64.3,-2.5L-63.4,-2.4L-63.4,-2.2L-64.1,-1.9L-64.2,-1.5L-64.6,-1.3L-65.4,-1.1L-65.5,-0.8L-66.3,-0.7L-66.9,-1.3L-67.2,-2.3L-67.4,-2.6L-67.8,-2.8L-67.3,-3.3L-67.3,-3.5L-67.6,-3.8L-67.8,-4.5L-67.7,-5.2L-67.5,-5.6L-67.3,-6.1L-67.7,-6.3L-68.3,-6.2L-69.0,-6.2L-69.4,-6.1L-70.1,-7.0L-70.7,-7.1L-72.0,-7.0L-72.2,-7.4L-72.4,-7.4L-72.5,-7.7L-72.4,-8.0L-72.4,-8.4L-72.7,-8.7L-72.8,-9.1L-73.3,-9.2L-73.0,-9.8L-72.9,-10.5L-72.6,-10.9L-72.2,-11.2L-72.0,-11.7L-71.3,-11.9L-71.4,-11.6L-71.9,-11.5L-71.6,-11.0L-71.6,-10.5L-72.1,-9.9L-71.7,-9.1L-71.3,-9.2L-71.0,-9.9L-71.4,-10.3L-71.4,-11.0L-70.2,-11.5L-70.3,-11.9L-69.9,-12.3L-69.6,-11.5L-68.9,-11.5L-68.2,-11.0L-68.2,-10.6L-67.3,-10.6L-66.2,-10.7L-65.7,-10.3L-64.9,-10.1L-64.3,-10.4L-64.3,-10.7L-63.1,-10.8L-61.9,-10.8L-62.7,-10.5L-62.4,-10.0L-61.6,-9.9L-60.8,-9.4L-60.7,-8.6L-60.2,-8.6L-59.8,-8.4L-60.6,-7.8L-60.6,-7.4L-60.3,-7.1L-60.5,-6.9L-61.2,-6.7L-61.1,-6.2L-61.4,-6.0L-60.7,-5.2Z" fill="#1e1e2e" stroke="#2a2a3a" stroke-width="0.3"/>
  <path d="M-56.5,-1.9L-56.8,-1.9L-57.3,-1.9L-57.7,-1.7L-58.1,-1.5L-58.4,-1.5L-58.5,-1.3L-59.0,-1.3L-59.6,-1.8L-59.7,-2.3L-60.0,-2.8L-59.8,-3.6L-59.5,-4.0L-59.8,-4.4L-60.1,-4.6L-60.0,-5.0L-60.2,-5.3L-60.7,-5.2L-61.4,-6.0L-61.1,-6.2L-61.2,-6.7L-60.5,-6.9L-60.3,-7.1L-60.6,-7.4L-60.6,-7.8L-59.8,-8.4L-59.1,-8.0L-58.5,-7.4L-58.5,-6.8L-58.1,-6.8L-57.5,-6.3L-57.1,-6.0L-57.3,-5.1L-57.9,-4.8L-57.9,-4.6L-58.0,-4.1L-57.6,-3.3L-57.3,-3.3L-57.2,-2.8L-56.5,-1.9Z" fill="#1e1e2e" stroke="#2a2a3a" stroke-width="0.3"/>
  <path d="M-54.5,-2.3L-55.1,-2.5L-55.6,-2.4L-56.0,-2.5L-56.1,-2.2L-55.9,-2.0L-56.0,-1.8L-56.5,-1.9L-57.2,-2.8L-57.3,-3.3L-57.6,-3.3L-58.0,-4.1L-57.9,-4.6L-57.9,-4.8L-57.3,-5.1L-57.1,-6.0L-55.9,-5.8L-55.8,-6.0L-55.0,-6.0L-54.0,-5.8L-54.5,-4.9L-54.4,-4.2L-54.0,-3.6L-54.2,-3.2L-54.3,-2.7L-54.5,-2.3Z" fill="#1e1e2e" stroke="#2a2a3a" stroke-width="0.3"/>
  <path d="M-51.7,-4.2L-52.2,-3.2L-52.6,-2.5L-52.9,-2.1L-53.4,-2.1L-53.6,-2.3L-53.8,-2.4L-54.1,-2.1L-54.5,-2.3L-54.3,-2.7L-54.2,-3.2L-54.0,-3.6L-54.4,-4.2L-54.5,-4.9L-54.0,-5.8L-53.6,-5.7L-52.9,-5.4L-51.8,-4.6L-51.7,-4.2ZM6.2,-57.1L6.7,-56.7L8.1,-56.4L7.6,-55.4L7.5,-54.3L7.2,-54.0L6.7,-54.2L6.8,-53.8L6.0,-53.0L6.0,-52.3L6.5,-52.5L6.8,-51.9L6.8,-51.5L7.1,-51.0L6.7,-50.5L7.0,-49.5L7.5,-49.3L7.4,-48.7L6.5,-47.9L4.6,-48.3L3.1,-47.8L3.0,-47.0L1.8,-46.8L0.7,-47.4L0.3,-47.1L-1.5,-47.8L-1.9,-48.3L-1.4,-49.1L-1.2,-51.9L-2.2,-53.5L-3.0,-54.2L-4.5,-54.8L-4.6,-55.9L-3.3,-56.2L-1.6,-55.8L-1.9,-57.6L-1.0,-56.9L1.3,-58.1L1.6,-59.4L2.5,-59.7L2.7,-59.2L3.1,-59.1L3.6,-58.5L4.3,-57.8L4.8,-57.9L5.7,-57.2L5.9,-57.0L6.2,-57.1ZM8.7,-47.2L9.4,-47.7L9.6,-46.6L9.2,-45.5L8.8,-45.8L8.5,-46.7L8.7,-47.2Z" fill="#1e1e2e" stroke="#2a2a3a" stroke-width="0.3"/>
  <path d="M-75.4,0.2L-75.2,0.9L-75.5,1.6L-76.6,2.6L-77.8,3.0L-78.5,3.9L-78.6,4.6L-79.2,5.0L-79.6,4.5L-80.0,4.4L-80.4,4.4L-80.5,4.1L-80.2,3.8L-80.3,3.4L-79.8,2.7L-80.0,2.2L-80.4,2.7L-81.0,2.2L-80.8,2.0L-80.9,1.1L-80.6,0.9L-80.4,0.3L-80.0,-0.4L-80.1,-0.8L-79.5,-1.0L-78.9,-1.4L-77.9,-0.8L-77.7,-0.8L-77.4,-0.4L-76.6,-0.3L-76.3,-0.4L-75.8,-0.1L-75.4,0.2Z" fill="#1e1e2e" stroke="#2a2a3a" stroke-width="0.3"/>
  <path d="M-66.3,-18.8L-65.8,-18.8L-65.6,-18.5L-65.8,-18.3L-66.6,-18.3L-67.2,-18.2L-67.2,-18.7L-67.1,-18.9L-66.3,-18.8Z" fill="#1e1e2e" stroke="#2a2a3a" stroke-width="0.3"/>
  <path d="M-77.6,-18.8L-76.9,-18.7L-76.4,-18.5L-76.2,-18.2L-76.9,-18.2L-77.2,-18.0L-77.8,-18.2L-78.3,-18.5L-78.2,-18.8L-77.8,-18.9L-77.6,-18.8Z" fill="#1e1e2e" stroke="#2a2a3a" stroke-width="0.3"/>
  <path d="M-82.3,-23.8L-81.4,-23.8L-80.6,-23.8L-79.7,-23.4L-79.3,-23.0L-78.3,-23.1L-78.0,-22.9L-77.1,-22.2L-76.5,-21.7L-76.2,-21.7L-75.6,-21.5L-75.7,-21.2L-74.9,-21.2L-74.2,-20.7L-74.3,-20.5L-75.0,-20.3L-75.6,-20.3L-76.3,-20.4L-77.8,-20.3L-77.1,-20.9L-77.5,-21.1L-78.1,-21.2L-78.5,-21.5L-78.7,-22.1L-79.3,-22.1L-80.2,-22.4L-80.5,-22.6L-81.8,-22.8L-82.2,-23.0L-81.8,-23.2L-82.8,-23.3L-83.5,-22.7L-83.9,-22.7L-84.1,-22.5L-84.5,-22.3L-85.0,-22.4L-84.4,-22.8L-84.2,-23.2L-83.8,-23.4L-83.3,-23.6L-82.5,-23.7L-82.3,-23.8Z" fill="#1e1e2e" stroke="#2a2a3a" stroke-width="0.3"/>
  <path d="M-16.7,-13.7L-17.1,-14.5L-17.6,-14.9L-17.2,-15.1L-16.7,-15.8L-16.5,-16.4L-16.1,-16.7L-15.6,-16.6L-15.1,-16.8L-14.6,-16.8L-14.1,-16.5L-13.4,-16.3L-12.8,-15.5L-12.2,-14.8L-12.1,-14.1L-11.9,-13.5L-11.6,-13.3L-11.5,-12.9L-11.5,-12.5L-11.7,-12.5L-12.2,-12.6L-12.3,-12.5L-12.5,-12.4L-13.2,-12.7L-13.7,-12.7L-15.5,-12.7L-15.8,-12.6L-16.1,-12.6L-16.7,-12.5L-16.8,-13.3L-15.9,-13.2L-15.7,-13.4L-15.5,-13.4L-15.1,-13.6L-14.7,-13.4L-14.3,-13.4L-13.8,-13.6L-14.0,-13.9L-14.4,-13.8L-14.7,-13.8L-15.1,-14.0L-15.4,-14.0L-15.6,-13.8L-16.7,-13.7Z" fill="#1e1e2e" stroke="#2a2a3a" stroke-width="0.3"/>
  <path d="M-11.5,-12.5L-11.5,-12.9L-11.6,-13.3L-11.9,-13.5L-12.1,-14.1L-12.2,-14.8L-11.8,-15.0L-11.7,-15.6L-11.3,-15.6L-10.7,-15.3L-10.1,-15.5L-9.7,-15.4L-9.6,-15.7L-5.5,-15.7L-5.3,-16.4L-5.5,-16.6L-6.0,-21.1L-6.5,-25.8L-4.9,-25.8L-1.6,-23.4L1.8,-21.1L2.1,-20.6L2.7,-20.3L3.1,-20.1L3.2,-19.4L4.3,-19.5L4.3,-17.1L3.7,-16.4L3.6,-15.8L2.7,-15.6L1.4,-15.5L1.0,-15.1L0.4,-15.1L-0.3,-15.1L-0.5,-15.3L-1.1,-15.1L-2.0,-14.7L-2.2,-14.4L-3.0,-13.9L-3.1,-13.7L-3.5,-13.5L-4.0,-13.6L-4.3,-13.3L-4.4,-12.6L-5.2,-11.8L-5.2,-11.5L-5.5,-11.0L-5.4,-10.4L-5.8,-10.3L-6.1,-10.1L-6.2,-10.6L-6.5,-10.5L-6.7,-10.5L-6.9,-10.2L-7.6,-10.2L-7.9,-10.4L-8.0,-10.3L-8.3,-10.6L-8.3,-10.9L-8.4,-11.0L-8.6,-10.9L-8.6,-11.2L-8.4,-11.5L-8.8,-11.9L-8.9,-12.2L-9.1,-12.4L-9.3,-12.4L-9.6,-12.3L-9.9,-12.2L-10.2,-11.9L-10.6,-12.0L-10.9,-12.3L-11.0,-12.3L-11.3,-12.2L-11.5,-12.2L-11.5,-12.5Z" fill="#1e1e2e" stroke="#2a2a3a" stroke-width="0.3"/>
  <path d="M-17.1,-21.5L-16.8,-21.8L-12.9,-21.8L-13.1,-23.4L-12.9,-24.0L-11.9,-24.1L-12.0,-26.9L-8.7,-26.8L-8.7,-28.5L-4.9,-25.8L-6.5,-25.8L-6.0,-21.1L-5.5,-16.6L-5.3,-16.4L-5.5,-15.7L-9.6,-15.7L-9.7,-15.4L-10.1,-15.5L-10.7,-15.3L-11.3,-15.6L-11.7,-15.6L-11.8,-15.0L-12.2,-14.8L-12.8,-15.5L-13.4,-16.3L-14.1,-16.5L-14.6,-16.8L-15.1,-16.8L-15.6,-16.6L-16.1,-16.7L-16.5,-16.4L-16.5,-16.9L-16.3,-17.4L-16.1,-18.4L-16.3,-19.5L-16.4,-20.0L-16.3,-20.5L-16.5,-21.0L-17.1,-21.5Z" fill="#1e1e2e" stroke="#2a2a3a" stroke-width="0.3"/>
  <path d="M2.7,-6.3L1.9,-6.2L1.6,-6.8L1.7,-9.2L1.5,-9.4L1.4,-9.9L1.1,-10.2L0.8,-10.5L0.9,-11.1L1.2,-11.2L1.4,-11.6L1.9,-11.7L2.2,-12.0L2.5,-12.3L2.8,-12.3L3.6,-11.7L3.6,-11.4L3.8,-10.8L3.6,-10.4L3.7,-10.1L3.2,-9.5L2.9,-9.2L2.7,-8.5L2.7,-7.9L2.7,-6.3Z" fill="#1e1e2e" stroke="#2a2a3a" stroke-width="0.3"/>
  <path d="M14.9,-23.5L15.1,-21.8L15.5,-21.5L15.5,-21.2L15.9,-20.8L15.7,-20.4L15.3,-18.2L15.2,-16.9L14.0,-15.9L13.5,-14.5L14.0,-14.1L14.0,-13.5L14.6,-13.5L14.5,-13.0L14.2,-12.9L14.2,-12.6L14.0,-12.6L13.3,-13.7L13.1,-13.7L12.3,-13.2L11.5,-13.5L11.0,-13.5L10.7,-13.4L10.1,-13.4L9.5,-13.0L9.0,-12.9L7.8,-13.5L7.3,-13.2L6.8,-13.2L6.4,-13.6L5.4,-14.0L4.4,-13.9L4.1,-13.7L4.0,-13.1L3.7,-12.7L3.6,-11.7L2.8,-12.3L2.5,-12.3L2.2,-12.0L2.2,-12.7L1.0,-13.0L1.0,-13.5L0.4,-14.1L0.3,-14.6L0.4,-15.1L1.0,-15.1L1.4,-15.5L2.7,-15.6L3.6,-15.8L3.7,-16.4L4.3,-17.1L4.3,-19.5L5.7,-20.0L8.6,-22.1L12.0,-24.2L13.6,-23.7L14.1,-23.1L14.9,-23.5Z" fill="#1e1e2e" stroke="#2a2a3a" stroke-width="0.3"/>
  <path d="M2.7,-6.3L2.7,-7.9L2.7,-8.5L2.9,-9.2L3.2,-9.5L3.7,-10.1L3.6,-10.4L3.8,-10.8L3.6,-11.4L3.6,-11.7L3.7,-12.7L4.0,-13.1L4.1,-13.7L4.4,-13.9L5.4,-14.0L6.4,-13.6L6.8,-13.2L7.3,-13.2L7.8,-13.5L9.0,-12.9L9.5,-13.0L10.1,-13.4L10.7,-13.4L11.0,-13.5L11.5,-13.5L12.3,-13.2L13.1,-13.7L13.3,-13.7L14.0,-12.6L14.2,-12.6L14.6,-12.2L14.5,-12.0L14.4,-11.7L13.6,-10.9L13.3,-10.2L13.2,-9.7L13.0,-9.5L12.8,-8.8L12.2,-8.3L12.1,-7.8L11.8,-7.4L11.7,-7.0L11.1,-6.7L10.5,-7.1L10.1,-7.1L9.5,-6.5L9.2,-6.5L8.8,-5.5L8.5,-4.8L7.5,-4.4L7.1,-4.5L6.7,-4.2L5.9,-4.3L5.4,-4.9L5.0,-5.6L4.3,-6.3L3.6,-6.3L2.7,-6.3Z" fill="#1e1e2e" stroke="#2a2a3a" stroke-width="0.3"/>
  <path d="M0.9,-11.1L0.8,-10.5L1.1,-10.2L1.4,-9.9L1.5,-9.4L1.7,-9.2L1.6,-6.8L1.9,-6.2L1.1,-5.9L0.8,-6.3L0.6,-6.9L0.5,-7.4L0.7,-8.3L0.5,-8.7L0.4,-9.5L0.4,-10.2L-0.0,-10.8L0.0,-11.1L0.9,-11.1Z" fill="#1e1e2e" stroke="#2a2a3a" stroke-width="0.3"/>
  <path d="M0.0,-11.1L-0.0,-10.8L0.4,-10.2L0.4,-9.5L0.5,-8.7L0.7,-8.3L0.5,-7.4L0.6,-6.9L0.8,-6.3L1.1,-5.9L-0.5,-5.4L-1.1,-5.0L-2.0,-4.7L-2.9,-5.0L-2.8,-5.4L-3.2,-6.3L-3.0,-7.4L-2.6,-8.2L-2.8,-9.7L-3.0,-10.5L-2.9,-11.0L-1.2,-11.1L-0.8,-11.0L-0.4,-11.2L0.0,-11.1Z" fill="#1e1e2e" stroke="#2a2a3a" stroke-width="0.3"/>
  <path d="M-8.0,-10.3L-7.9,-10.4L-7.6,-10.2L-6.9,-10.2L-6.7,-10.5L-6.5,-10.5L-6.2,-10.6L-6.1,-10.1L-5.8,-10.3L-5.4,-10.4L-5.0,-10.2L-4.8,-9.9L-4.3,-9.7L-4.0,-9.9L-3.5,-9.9L-2.8,-9.7L-2.6,-8.2L-3.0,-7.4L-3.2,-6.3L-2.8,-5.4L-2.9,-5.0L-3.3,-5.0L-4.0,-5.2L-4.6,-5.2L-5.8,-5.0L-6.5,-4.7L-7.5,-4.3L-7.7,-4.4L-7.6,-5.2L-7.5,-5.3L-7.6,-5.7L-8.0,-6.1L-8.3,-6.2L-8.6,-6.5L-8.4,-6.9L-8.5,-7.4L-8.4,-7.7L-8.3,-7.7L-8.2,-8.2L-8.3,-8.3L-8.2,-8.5L-7.8,-8.6L-8.1,-9.4L-8.3,-9.8L-8.2,-10.2L-8.0,-10.3Z" fill="#1e1e2e" stroke="#2a2a3a" stroke-width="0.3"/>
  <path d="M-13.7,-12.7L-13.2,-12.7L-12.5,-12.4L-12.3,-12.5L-12.2,-12.6L-11.7,-12.5L-11.5,-12.5L-11.5,-12.2L-11.3,-12.2L-11.0,-12.3L-10.9,-12.3L-10.6,-12.0L-10.2,-11.9L-9.9,-12.2L-9.6,-12.3L-9.3,-12.4L-9.1,-12.4L-8.9,-12.2L-8.8,-11.9L-8.4,-11.5L-8.6,-11.2L-8.6,-10.9L-8.4,-11.0L-8.3,-10.9L-8.3,-10.6L-8.0,-10.3L-8.2,-10.2L-8.3,-9.8L-8.1,-9.4L-7.8,-8.6L-8.2,-8.5L-8.3,-8.3L-8.2,-8.2L-8.3,-7.7L-8.4,-7.7L-8.7,-7.7L-8.9,-7.3L-9.2,-7.3L-9.4,-7.5L-9.3,-8.0L-9.8,-8.6L-10.0,-8.5L-10.2,-8.4L-10.5,-8.4L-10.5,-8.7L-10.7,-9.0L-10.6,-9.3L-10.8,-9.7L-11.1,-10.1L-11.9,-10.1L-12.2,-9.9L-12.4,-9.9L-12.6,-9.7L-12.7,-9.4L-13.2,-8.9L-13.7,-9.5L-14.1,-9.9L-14.3,-10.1L-14.6,-10.3L-14.7,-10.7L-14.8,-10.9L-15.1,-11.1L-14.7,-11.6L-14.4,-11.6L-14.1,-11.8L-13.9,-11.8L-13.7,-11.9L-13.8,-12.2L-13.7,-12.3L-13.7,-12.7Z" fill="#1e1e2e" stroke="#2a2a3a" stroke-width="0.3"/>
  <path d="M-16.7,-12.5L-16.1,-12.6L-15.8,-12.6L-15.5,-12.7L-13.7,-12.7L-13.7,-12.3L-13.8,-12.2L-13.7,-11.9L-13.9,-11.8L-14.1,-11.8L-14.4,-11.6L-14.7,-11.6L-15.1,-11.1L-15.7,-11.5L-16.1,-11.6L-16.3,-11.9L-16.3,-12.0L-16.6,-12.3L-16.7,-12.5Z" fill="#1e1e2e" stroke="#2a2a3a" stroke-width="0.3"/>
  <path d="M-8.4,-7.7L-8.5,-7.4L-8.4,-6.9L-8.6,-6.5L-8.3,-6.2L-8.0,-6.1L-7.6,-5.7L-7.5,-5.3L-7.6,-5.2L-7.7,-4.4L-8.0,-4.4L-9.0,-4.8L-9.9,-5.6L-10.8,-6.2L-11.4,-6.8L-11.2,-7.1L-11.1,-7.4L-10.7,-8.0L-10.2,-8.4L-10.0,-8.5L-9.8,-8.6L-9.3,-8.0L-9.4,-7.5L-9.2,-7.3L-8.9,-7.3L-8.7,-7.7L-8.4,-7.7Z" fill="#1e1e2e" stroke="#2a2a3a" stroke-width="0.3"/>
  <path d="M-13.2,-8.9L-12.7,-9.4L-12.6,-9.7L-12.4,-9.9L-12.2,-9.9L-11.9,-10.1L-11.1,-10.1L-10.8,-9.7L-10.6,-9.3L-10.7,-9.0L-10.5,-8.7L-10.5,-8.4L-10.2,-8.4L-10.7,-8.0L-11.1,-7.4L-11.2,-7.1L-11.4,-6.8L-11.7,-6.9L-12.4,-7.3L-12.9,-7.8L-13.1,-8.2L-13.2,-8.9Z" fill="#1e1e2e" stroke="#2a2a3a" stroke-width="0.3"/>
  <path d="M-5.4,-10.4L-5.5,-11.0L-5.2,-11.5L-5.2,-11.8L-4.4,-12.6L-4.3,-13.3L-4.0,-13.6L-3.5,-13.5L-3.1,-13.7L-3.0,-13.9L-2.2,-14.4L-2.0,-14.7L-1.1,-15.1L-0.5,-15.3L-0.3,-15.1L0.4,-15.1L0.3,-14.6L0.4,-14.1L1.0,-13.5L1.0,-13.0L2.2,-12.7L2.2,-12.0L1.9,-11.7L1.4,-11.6L1.2,-11.2L0.9,-11.1L0.0,-11.1L-0.4,-11.2L-0.8,-11.0L-1.2,-11.1L-2.9,-11.0L-3.0,-10.5L-2.8,-9.7L-3.5,-9.9L-4.0,-9.9L-4.3,-9.7L-4.8,-9.9L-5.0,-10.2L-5.4,-10.4Z" fill="#1e1e2e" stroke="#2a2a3a" stroke-width="0.3"/>
  <path d="M-16.7,-13.7L-15.6,-13.8L-15.4,-14.0L-15.1,-14.0L-14.7,-13.8L-14.4,-13.8L-14.0,-13.9L-13.8,-13.6L-14.3,-13.4L-14.7,-13.4L-15.1,-13.6L-15.5,-13.4L-15.7,-13.4L-15.9,-13.2L-16.8,-13.3L-16.7,-13.7Z" fill="#1e1e2e" stroke="#2a2a3a" stroke-width="0.3"/>
  <path d="M-8.7,-28.5L-8.7,-28.7L-8.7,-28.8L-8.7,-30.1L-7.1,-31.0L-6.1,-31.2L-5.2,-31.5L-4.9,-32.1L-3.7,-32.5L-3.6,-33.4L-3.1,-33.5L-2.6,-33.9L-1.3,-34.1L-1.1,-34.6L-1.4,-34.8L-1.7,-36.1L-1.8,-36.8L-2.2,-37.6L-1.2,-38.3L-0.1,-38.5L0.5,-39.0L1.5,-39.4L3.2,-39.6L4.8,-39.7L5.3,-39.5L6.3,-40.0L7.3,-40.0L7.7,-39.7L8.4,-39.8L8.2,-39.2L8.4,-38.0L8.1,-37.0L7.5,-36.3L7.6,-35.4L8.4,-34.7L8.4,-34.4L9.1,-33.9L9.5,-31.8L9.8,-30.8L9.9,-30.3L9.7,-29.3L9.8,-28.8L9.6,-28.2L9.7,-27.5L9.3,-27.0L9.9,-26.2L9.9,-25.8L10.3,-25.2L10.8,-25.4L11.6,-24.8L12.0,-24.2L8.6,-22.1L5.7,-20.0L4.3,-19.5L3.2,-19.4L3.1,-20.1L2.7,-20.3L2.1,-20.6L1.8,-21.1L-1.6,-23.4L-4.9,-25.8L-8.7,-28.5Z" fill="#1e1e2e" stroke="#2a2a3a" stroke-width="0.3"/>
  <path d="M14.1,-64.0L14.4,-63.1L14.1,-62.7L14.4,-62.1L14.7,-61.2L14.6,-60.7L15.0,-59.6L14.6,-59.5L14.3,-59.7L14.1,-59.4L13.3,-59.1L13.0,-58.7L12.2,-58.3L12.4,-57.9L12.5,-57.2L13.0,-56.8L13.6,-56.2L13.2,-55.5L12.9,-55.3L13.0,-54.3L12.9,-54.1L12.6,-54.4L12.1,-54.4L11.4,-54.2L10.5,-54.2L10.4,-53.8L9.9,-54.2L9.6,-54.2L8.5,-54.6L8.3,-54.3L7.5,-54.3L7.6,-55.4L8.1,-56.4L6.7,-56.7L6.2,-57.1L6.2,-57.8L6.0,-58.1L6.2,-59.2L6.0,-60.8L6.6,-60.8L6.8,-61.5L7.1,-63.0L6.9,-63.5L7.1,-63.9L7.9,-64.0L8.1,-63.6L8.8,-64.4L8.6,-65.1L8.5,-66.1L9.3,-65.8L9.9,-66.1L9.9,-65.4L11.0,-65.0L10.9,-64.4L12.0,-64.7L12.5,-65.2L13.6,-64.5L14.1,-64.0Z" fill="#1e1e2e" stroke="#2a2a3a" stroke-width="0.3"/>
  <path d="M9.6,-54.2L9.6,-53.9L9.5,-53.5L9.9,-53.3L10.4,-53.2L10.4,-52.6L9.9,-52.4L9.2,-52.6L9.0,-52.0L8.5,-51.9L8.3,-52.2L7.8,-51.7L7.3,-51.6L6.8,-51.9L6.5,-52.5L6.0,-52.3L6.0,-53.0L6.8,-53.8L6.7,-54.2L7.2,-54.0L7.5,-54.3L8.3,-54.3L8.5,-54.6L9.6,-54.2Z" fill="#1e1e2e" stroke="#2a2a3a" stroke-width="0.3"/>
  <path d="M6.0,-58.1L6.2,-57.8L6.2,-57.1L5.9,-57.0L5.7,-57.2L5.8,-58.0L6.0,-58.1Z" fill="#1e1e2e" stroke="#2a2a3a" stroke-width="0.3"/>
  <path d="M6.2,-59.2L6.0,-58.1L5.8,-58.0L5.7,-57.2L4.8,-57.9L4.3,-57.8L3.6,-58.5L3.1,-59.1L2.7,-59.2L2.5,-59.7L3.3,-60.0L3.3,-60.0L3.3,-60.0L4.0,-59.9L5.0,-60.2L5.6,-59.5L6.2,-59.2Z" fill="#1e1e2e" stroke="#2a2a3a" stroke-width="0.3"/>
  <path d="M6.9,-63.5L7.1,-63.0L6.8,-61.5L6.6,-60.8L6.0,-60.8L6.2,-59.2L5.6,-59.5L5.0,-60.2L4.0,-59.9L3.3,-60.0L3.3,-60.0L3.8,-60.5L4.7,-62.9L6.1,-63.6L6.9,-63.5Z" fill="#1e1e2e" stroke="#2a2a3a" stroke-width="0.3"/>
  <path d="M-9.0,-46.2L-8.7,-46.5L-8.3,-46.7L-8.0,-46.1L-7.4,-46.1L-7.3,-46.3L-6.7,-46.2L-6.4,-45.5L-6.9,-45.2L-6.9,-44.1L-7.0,-44.0L-7.1,-43.3L-7.5,-43.2L-7.1,-42.5L-7.4,-41.6L-7.0,-41.2L-7.2,-40.9L-7.5,-40.4L-7.5,-40.0L-7.9,-39.7L-8.4,-39.9L-8.9,-39.7L-8.7,-40.7L-8.8,-41.5L-9.3,-41.6L-9.5,-42.1L-9.4,-42.9L-9.0,-43.4L-9.0,-43.9L-8.8,-44.7L-8.8,-45.3L-9.0,-45.7L-9.0,-46.2Z" fill="#1e1e2e" stroke="#2a2a3a" stroke-width="0.3"/>
  <path d="M-7.5,-40.0L-7.5,-40.4L-7.2,-40.9L-7.0,-41.2L-7.4,-41.6L-7.1,-42.5L-7.5,-43.2L-7.1,-43.3L-7.0,-44.0L-6.9,-44.1L-6.9,-45.2L-6.4,-45.5L-6.7,-46.2L-7.3,-46.3L-7.4,-46.1L-8.0,-46.1L-8.3,-46.7L-8.7,-46.5L-9.0,-46.2L-9.0,-47.2L-9.4,-47.8L-8.0,-48.7L-6.8,-48.5L-5.4,-48.5L-4.3,-48.3L-3.5,-48.3L-1.9,-48.3L-1.5,-47.8L0.3,-47.1L0.7,-47.4L1.8,-46.8L3.0,-47.0L3.0,-46.2L2.1,-45.3L0.8,-45.0L0.7,-44.6L0.1,-43.9L-0.3,-42.8L0.1,-42.1L-0.5,-41.5L-0.7,-40.7L-1.4,-40.4L-2.1,-39.5L-3.4,-39.5L-4.4,-39.5L-5.0,-39.0L-5.4,-38.6L-5.9,-38.7L-6.2,-39.1L-6.5,-39.8L-7.5,-40.0Z" fill="#1e1e2e" stroke="#2a2a3a" stroke-width="0.3"/>
  <path d="M-6.2,-64.2L-6.0,-63.0L-6.8,-61.5L-8.6,-60.6L-10.0,-60.8L-9.2,-62.5L-9.7,-64.2L-8.3,-65.6L-7.6,-66.4L-7.4,-65.4L-7.6,-64.5L-7.0,-64.5L-6.2,-64.2Z" fill="#1e1e2e" stroke="#2a2a3a" stroke-width="0.3"/>
  <path d="M-6.2,-64.2L-7.0,-64.5L-7.6,-64.5L-7.4,-65.4L-7.6,-66.4L-6.7,-66.4L-5.7,-65.4L-6.2,-64.2ZM-3.1,-63.4L-3.1,-63.4L-2.9,-64.4L-3.6,-65.4L-3.6,-65.5L-4.8,-65.8L-5.1,-66.2L-4.7,-67.0L-5.0,-67.5L-5.6,-66.7L-5.6,-68.4L-6.1,-69.3L-5.8,-71.2L-5.0,-72.8L-4.2,-72.6L-3.0,-72.8L-4.1,-70.7L-3.1,-71.0L-2.0,-71.0L-2.2,-69.5L-3.1,-67.9L-2.1,-67.7L-2.0,-67.6L-1.1,-65.5L-0.4,-65.2L0.2,-63.3L0.5,-62.6L1.7,-62.3L1.6,-61.2L1.1,-60.8L1.4,-59.9L0.6,-59.1L-0.8,-59.1L-2.5,-58.7L-3.0,-59.0L-3.6,-58.3L-4.5,-58.4L-5.2,-57.8L-5.8,-58.2L-4.3,-59.8L-3.4,-60.2L-3.4,-60.2L-5.0,-60.4L-5.3,-61.1L-4.2,-61.6L-4.8,-62.5L-4.6,-63.6L-3.1,-63.4Z" fill="#1e1e2e" stroke="#2a2a3a" stroke-width="0.3"/>
  <path d="M-14.5,-89.9L-14.7,-88.3L-13.6,-86.6L-14.9,-84.8L-17.8,-83.3L-18.7,-82.9L-20.0,-83.2L-22.8,-83.9L-21.8,-84.9L-24.0,-86.1L-22.2,-86.5L-22.2,-87.2L-24.3,-87.8L-23.7,-89.4L-22.1,-89.7L-20.6,-88.1L-19.1,-89.4L-17.8,-88.7L-16.2,-90.0L-14.5,-89.9Z" fill="#1e1e2e" stroke="#2a2a3a" stroke-width="0.3"/>
  <path d="M-58.2,20.6L-57.9,21.2L-57.9,22.7L-56.9,22.9L-56.5,22.7L-55.8,22.9L-55.6,23.3L-55.5,24.3L-55.4,24.7L-55.0,24.7L-54.7,24.6L-54.3,24.8L-54.3,25.4L-54.4,26.0L-54.6,26.7L-54.8,27.6L-55.7,28.5L-56.5,28.7L-57.6,28.5L-58.6,28.2L-57.6,26.5L-57.8,26.0L-58.8,25.6L-60.0,24.8L-60.8,24.6L-62.7,22.8L-62.3,21.5L-62.3,21.0L-61.8,20.0L-60.0,19.7L-59.1,19.7L-58.2,20.3L-58.2,20.6Z" fill="#1e1e2e" stroke="#2a2a3a" stroke-width="0.3"/>
  <path d="M-2.2,-37.6L-1.8,-36.8L-1.7,-36.1L-1.4,-34.8L-1.1,-34.6L-1.3,-34.1L-2.6,-33.9L-3.1,-33.5L-3.6,-33.4L-3.7,-32.5L-4.9,-32.1L-5.2,-31.5L-6.1,-31.2L-7.1,-31.0L-8.7,-30.1L-8.7,-28.8L-8.8,-28.8L-8.8,-28.2L-9.4,-28.2L-9.7,-27.9L-10.2,-27.9L-10.6,-28.0L-11.4,-27.9L-11.7,-27.1L-12.0,-27.0L-12.5,-25.6L-13.9,-24.4L-14.2,-22.9L-14.6,-22.4L-14.8,-22.0L-17.0,-21.9L-17.0,-21.9L-17.0,-22.4L-16.6,-22.7L-16.3,-23.3L-16.3,-23.7L-16.0,-24.4L-15.4,-25.1L-15.1,-25.3L-14.8,-25.9L-14.8,-26.5L-14.4,-27.2L-13.8,-27.6L-13.1,-28.8L-13.1,-28.8L-12.6,-29.2L-11.7,-29.4L-10.9,-30.1L-10.4,-30.4L-9.6,-31.4L-9.8,-32.8L-9.4,-33.9L-9.3,-34.5L-8.7,-35.3L-7.7,-35.8L-6.9,-36.3L-6.2,-37.6L-5.9,-38.3L-5.2,-38.3L-4.6,-37.8L-3.6,-37.9L-2.6,-37.6L-2.2,-37.6Z" fill="#1e1e2e" stroke="#2a2a3a" stroke-width="0.3"/>
  <path d="M-61.7,-10.8L-61.1,-11.0L-60.9,-10.9L-60.9,-10.2L-61.8,-10.1L-62.0,-10.1L-61.7,-10.4L-61.7,-10.8Z" fill="#1e1e2e" stroke="#2a2a3a" stroke-width="0.3"/>
  <path d="M-122.8,-56.4L-120.0,-56.4L-117.0,-56.4L-116.0,-56.4L-113.0,-56.4L-110.0,-56.4L-107.0,-56.4L-104.0,-56.4L-100.7,-56.4L-97.2,-56.4L-95.2,-56.4L-95.2,-57.0L-94.8,-57.0L-94.6,-56.1L-94.3,-55.9L-93.6,-55.8L-92.6,-55.5L-91.6,-55.1L-90.8,-55.3L-89.6,-54.9L-89.3,-54.9L-88.4,-55.3L-87.4,-54.8L-86.5,-54.2L-85.7,-53.7L-84.9,-53.2L-84.8,-52.8L-84.5,-52.7L-84.6,-52.6L-84.3,-52.5L-84.1,-52.7L-84.1,-52.3L-83.9,-52.1L-83.6,-52.1L-83.5,-51.9L-83.6,-51.7L-82.6,-51.0L-82.3,-49.7L-82.1,-48.5L-82.4,-47.7L-82.9,-46.9L-83.1,-46.5L-83.1,-46.3L-83.0,-46.1L-82.7,-45.9L-82.4,-45.9L-81.3,-46.6L-80.2,-46.9L-78.9,-47.5L-78.9,-47.7L-79.0,-48.1L-79.2,-48.4L-78.7,-48.6L-77.7,-48.6L-76.8,-48.6L-76.5,-49.1L-76.4,-49.2L-75.3,-50.2L-74.9,-50.5L-73.3,-50.5L-71.5,-50.5L-71.4,-50.9L-71.1,-50.9L-70.7,-51.2L-70.3,-51.8L-70.0,-52.9L-69.2,-54.0L-68.9,-53.7L-68.2,-53.9L-67.8,-53.5L-67.8,-51.5L-67.1,-50.7L-67.0,-50.2L-68.0,-49.6L-69.1,-49.1L-70.1,-48.7L-70.6,-47.8L-70.8,-47.5L-70.8,-46.8L-70.5,-46.1L-70.1,-46.1L-70.2,-46.6L-69.9,-46.3L-70.0,-45.9L-70.6,-45.7L-71.1,-45.7L-71.9,-45.5L-72.3,-45.4L-72.9,-45.3L-73.7,-44.9L-72.2,-45.2L-71.9,-44.9L-73.3,-44.5L-74.0,-44.5L-74.0,-44.7L-74.3,-44.3L-74.0,-44.3L-74.2,-43.3L-74.9,-42.3L-75.0,-42.7L-75.2,-42.7L-75.5,-43.1L-75.3,-42.4L-75.1,-42.1L-75.1,-41.7L-75.4,-41.2L-75.9,-40.1L-76.0,-40.2L-75.7,-41.1L-76.2,-41.5L-76.3,-42.6L-76.5,-42.1L-76.3,-41.2L-77.0,-41.4L-76.3,-41.0L-76.3,-39.8L-76.0,-39.7L-75.9,-39.3L-75.7,-38.1L-76.4,-37.2L-77.4,-36.8L-78.1,-36.1L-78.6,-36.0L-79.1,-35.6L-79.2,-35.2L-80.3,-34.4L-80.9,-33.8L-81.3,-33.1L-81.5,-32.3L-81.3,-31.5L-81.0,-30.5L-80.5,-29.7L-80.5,-29.2L-80.1,-27.9L-80.1,-27.2L-80.1,-26.7L-80.4,-26.1L-80.7,-25.9L-81.2,-26.1L-81.3,-26.5L-81.7,-26.8L-82.2,-27.8L-82.7,-28.6L-82.9,-29.1L-82.7,-29.8L-82.9,-30.4L-83.7,-31.4L-84.1,-31.6L-85.1,-31.1L-85.3,-31.1L-85.8,-31.6L-86.4,-31.9L-87.5,-31.8L-88.4,-31.9L-89.2,-31.8L-89.6,-31.7L-89.4,-31.4L-89.4,-30.9L-89.2,-30.7L-89.4,-30.5L-89.8,-30.7L-90.2,-30.5L-90.9,-30.5L-91.6,-31.1L-92.5,-31.0L-93.2,-31.2L-93.8,-31.1L-94.7,-30.9L-95.6,-30.0L-96.6,-29.5L-97.1,-29.0L-97.4,-28.5L-97.4,-27.7L-97.3,-27.2L-97.1,-26.8L-97.5,-26.8L-98.2,-27.0L-99.0,-27.4L-99.3,-27.9L-99.5,-28.7L-100.1,-29.3L-100.5,-30.0L-101.0,-30.8L-101.7,-31.2L-102.5,-31.2L-103.1,-30.3L-103.9,-30.6L-104.5,-31.0L-104.7,-31.6L-105.0,-32.2L-105.6,-32.7L-106.1,-33.1L-106.5,-33.5L-108.2,-33.5L-108.2,-33.0L-109.0,-33.0L-111.0,-33.0L-113.3,-33.9L-114.8,-34.4L-114.7,-34.7L-116.0,-34.5L-117.1,-34.4L-117.3,-35.0L-117.9,-35.7L-118.4,-35.9L-118.5,-36.2L-119.1,-36.3L-119.4,-36.6L-120.4,-36.7L-120.6,-36.9L-120.7,-37.6L-121.7,-38.8L-122.5,-40.6L-122.5,-40.9L-123.0,-41.3L-123.7,-42.4L-123.9,-43.4L-124.4,-44.1L-124.2,-45.2L-124.2,-46.4L-124.5,-47.4L-124.1,-48.7L-124.0,-50.0L-123.9,-51.2L-124.1,-53.2L-124.4,-54.4L-124.7,-55.1L-124.6,-55.4L-123.1,-54.9L-122.6,-53.5L-122.3,-53.9L-122.5,-55.1L-122.8,-56.4ZM-155.4,-20.5L-155.2,-20.4L-155.1,-20.3L-154.8,-19.9L-154.8,-19.8L-155.2,-19.6L-155.5,-19.4L-155.7,-19.3L-155.9,-19.4L-155.9,-19.7L-156.1,-20.1L-156.0,-20.2L-155.9,-20.4L-155.9,-20.6L-155.9,-20.7L-155.8,-20.7L-155.4,-20.5ZM-156.0,-21.2L-156.1,-21.1L-156.4,-21.0L-156.6,-21.3L-156.7,-21.3L-156.7,-21.4L-156.6,-21.5L-156.3,-21.4L-156.0,-21.2ZM-156.8,-21.7L-156.8,-21.6L-157.3,-21.6L-157.3,-21.7L-156.8,-21.7ZM-158.0,-22.3L-157.9,-22.2L-157.7,-21.8L-157.7,-21.8L-157.8,-21.8L-158.1,-21.8L-158.3,-22.1L-158.3,-22.1L-158.0,-22.3ZM-159.4,-22.8L-159.3,-22.5L-159.5,-22.4L-159.8,-22.6L-159.7,-22.7L-159.6,-22.8L-159.4,-22.8ZM-166.5,-76.2L-165.7,-76.0L-165.6,-75.3L-166.2,-75.0L-166.8,-75.3L-167.5,-75.9L-166.5,-76.2ZM-153.2,-71.5L-152.6,-71.4L-152.1,-70.8L-153.0,-69.9L-154.0,-69.2L-154.5,-69.7L-154.7,-70.6L-153.8,-71.2L-153.2,-71.5ZM-141.0,-98.6L-141.0,-98.6L-141.0,-88.7L-141.0,-76.1L-140.0,-76.0L-139.0,-75.5L-138.3,-74.6L-137.5,-73.3L-136.5,-74.4L-135.5,-75.0L-134.9,-74.0L-134.3,-73.2L-133.4,-72.4L-132.7,-71.0L-131.7,-68.9L-130.0,-67.7L-130.0,-66.6L-130.5,-65.8L-130.5,-65.8L-130.5,-65.8L-131.1,-66.4L-132.0,-67.0L-132.3,-68.6L-133.5,-70.0L-134.1,-71.8L-135.0,-71.9L-136.6,-72.0L-137.8,-72.5L-139.9,-74.5L-140.8,-74.9L-142.6,-75.6L-144.0,-75.5L-145.9,-76.4L-147.1,-77.2L-148.2,-76.8L-148.0,-75.4L-148.6,-75.3L-149.7,-74.9L-150.6,-74.2L-151.7,-73.8L-151.9,-74.9L-151.4,-76.9L-150.3,-77.6L-150.6,-78.1L-151.9,-76.9L-152.6,-75.6L-154.0,-74.2L-153.3,-73.2L-154.2,-71.8L-155.3,-71.1L-156.3,-70.5L-156.6,-69.7L-158.1,-68.7L-158.4,-67.9L-159.6,-67.1L-160.3,-67.3L-161.2,-66.8L-162.2,-66.2L-163.1,-65.6L-164.8,-65.1L-164.9,-65.4L-163.8,-66.2L-162.9,-66.7L-161.8,-67.7L-160.6,-67.9L-160.1,-68.7L-158.7,-69.7L-158.5,-70.1L-157.7,-70.8L-157.6,-72.2L-157.0,-73.3L-158.2,-72.7L-158.5,-73.1L-159.1,-72.4L-159.7,-73.4L-160.0,-72.7L-160.4,-73.6L-161.4,-72.8L-162.0,-72.9L-162.1,-74.0L-161.9,-74.7L-162.5,-75.4L-163.8,-75.1L-164.7,-76.0L-165.3,-76.5L-165.4,-77.6L-166.1,-78.5L-165.7,-79.7L-164.9,-80.9L-164.6,-82.1L-163.8,-82.2L-163.1,-81.9L-162.3,-83.0L-161.5,-82.8L-160.8,-83.5L-161.0,-84.5L-161.5,-84.9L-160.8,-85.8L-161.4,-85.8L-162.5,-85.3L-162.8,-84.8L-163.5,-85.3L-165.0,-85.0L-166.4,-85.6L-166.8,-86.5L-168.1,-87.9L-166.7,-88.9L-164.5,-90.2L-163.7,-90.2L-163.8,-88.9L-161.7,-89.0L-162.5,-90.6L-163.7,-91.5L-164.4,-92.8L-165.4,-94.0L-166.8,-94.8L-166.2,-96.3L-164.4,-96.3L-163.2,-97.6L-162.9,-99.0L-161.9,-100.4L-160.9,-100.8L-159.0,-102.1L-158.1,-101.9L-156.6,-103.5L-155.1,-102.9L-154.3,-101.5L-153.9,-102.1L-152.2,-101.9L-152.3,-101.2L-150.7,-100.7L-149.7,-101.0L-147.6,-100.1L-145.7,-99.8L-144.9,-99.4L-143.6,-99.9L-142.1,-99.0L-141.0,-98.6L-141.0,-98.6ZM-171.7,-83.5L-171.1,-83.1L-170.5,-83.3L-169.7,-82.7L-168.7,-82.4L-168.8,-82.2L-169.5,-81.7L-170.3,-82.2L-170.7,-82.6L-171.6,-82.5L-171.8,-82.6L-171.7,-83.5Z" fill="#00e5ff" stroke="#00c4dd" stroke-width="0.4" fill-opacity="0.9"/>
</svg>