<svg xmlns="http://www.w3.org/2000/svg" viewBox="-173.79 -73.36 108.83 56.44" width="300" height="300" preserveAspectRatio="xMidYMid meet">
  <path d="M-122.84,-49.00L-120.00,-49.00L-117.03,-49.00L-116.05,-49.00L-113.00,-49.00L-110.05,-49.00L-107.05,-49.00L-104.05,-49.00L-100.65,-49.00L-97.23,-49.00L-95.16,-49.00L-95.16,-49.38L-94.82,-49.39L-94.64,-48.84L-94.33,-48.67L-93.63,-48.61L-92.61,-48.45L-91.64,-48.14L-90.83,-48.27L-89.60,-48.01L-89.27,-48.02L-88.38,-48.30L-87.44,-47.94L-86.46,-47.55L-85.65,-47.22L-84.88,-46.90L-84.78,-46.64L-84.54,-46.54L-84.60,-46.44L-84.34,-46.41L-84.14,-46.51L-84.09,-46.28L-83.89,-46.12L-83.62,-46.12L-83.47,-45.99L-83.59,-45.82L-82.55,-45.35L-82.34,-44.44L-82.14,-43.57L-82.43,-42.98L-82.90,-42.43L-83.12,-42.08L-83.14,-41.98L-83.03,-41.83L-82.69,-41.68L-82.44,-41.68L-81.28,-42.21L-80.25,-42.37L-78.94,-42.86L-78.92,-42.97L-79.01,-43.27L-79.17,-43.47L-78.72,-43.63L-77.74,-43.63L-76.82,-43.63L-76.50,-44.02L-76.38,-44.10L-75.32,-44.82L-74.87,-45.00L-73.35,-45.01L-71.51,-45.01L-71.41,-45.26L-71.08,-45.31L-70.66,-45.46L-70.31,-45.91L-70.00,-46.69L-69.24,-47.45L-68.91,-47.19L-68.23,-47.35L-67.79,-47.07L-67.79,-45.70L-67.14,-45.14L-66.96,-44.81L-68.03,-44.33L-69.06,-43.98L-70.12,-43.68L-70.65,-43.09L-70.81,-42.87L-70.83,-42.34L-70.50,-41.80L-70.08,-41.78L-70.19,-42.15L-69.88,-41.92L-69.97,-41.64L-70.64,-41.48L-71.12,-41.49L-71.86,-41.32L-72.30,-41.27L-72.88,-41.22L-73.71,-40.93L-72.24,-41.12L-71.94,-40.93L-73.34,-40.63L-73.98,-40.63L-73.95,-40.75L-74.26,-40.47L-73.96,-40.43L-74.18,-39.71L-74.91,-38.94L-74.98,-39.20L-75.20,-39.25L-75.53,-39.50L-75.32,-38.96L-75.07,-38.78L-75.06,-38.40L-75.38,-38.02L-75.94,-37.22L-76.03,-37.26L-75.72,-37.94L-76.23,-38.32L-76.35,-39.15L-76.54,-38.72L-76.33,-38.08L-76.99,-38.24L-76.30,-37.92L-76.26,-36.97L-75.97,-36.90L-75.87,-36.55L-75.73,-35.55L-76.36,-34.81L-77.40,-34.51L-78.05,-33.93L-78.55,-33.86L-79.06,-33.49L-79.20,-33.16L-80.30,-32.51L-80.86,-32.03L-81.34,-31.44L-81.49,-30.73L-81.31,-30.04L-80.98,-29.18L-80.54,-28.47L-80.53,-28.04L-80.06,-26.88L-80.09,-26.21L-80.13,-25.82L-80.38,-25.21L-80.68,-25.08L-81.17,-25.20L-81.33,-25.64L-81.71,-25.87L-82.24,-26.73L-82.71,-27.50L-82.86,-27.89L-82.65,-28.55L-82.93,-29.10L-83.71,-29.94L-84.10,-30.09L-85.11,-29.64L-85.29,-29.69L-85.77,-30.15L-86.40,-30.40L-87.53,-30.27L-88.42,-30.38L-89.18,-30.32L-89.59,-30.16L-89.41,-29.89L-89.43,-29.49L-89.22,-29.29L-89.41,-29.16L-89.78,-29.31L-90.15,-29.12L-90.88,-29.15L-91.63,-29.68L-92.50,-29.55L-93.23,-29.78L-93.85,-29.71L-94.69,-29.48L-95.60,-28.74L-96.59,-28.31L-97.14,-27.83L-97.37,-27.38L-97.38,-26.69L-97.33,-26.21L-97.14,-25.87L-97.53,-25.84L-98.24,-26.06L-99.02,-26.37L-99.30,-26.84L-99.52,-27.54L-100.11,-28.11L-100.46,-28.70L-100.96,-29.38L-101.66,-29.78L-102.48,-29.76L-103.11,-28.97L-103.94,-29.27L-104.46,-29.57L-104.71,-30.12L-105.04,-30.64L-105.63,-31.08L-106.14,-31.40L-106.51,-31.75L-108.24,-31.75L-108.24,-31.34L-109.03,-31.34L-111.02,-31.33L-113.30,-32.04L-114.81,-32.53L-114.72,-32.72L-115.99,-32.61L-117.13,-32.54L-117.30,-33.05L-117.94,-33.62L-118.41,-33.74L-118.52,-34.03L-119.08,-34.08L-119.44,-34.35L-120.37,-34.45L-120.62,-34.61L-120.74,-35.16L-121.71,-36.16L-122.55,-37.55L-122.51,-37.78L-122.95,-38.11L-123.73,-38.95L-123.87,-39.77L-124.40,-40.31L-124.18,-41.14L-124.21,-42.00L-124.53,-42.77L-124.14,-43.71L-124.02,-44.62L-123.90,-45.52L-124.08,-46.86L-124.40,-47.72L-124.69,-48.18L-124.57,-48.38L-123.12,-48.04L-122.59,-47.10L-122.34,-47.36L-122.50,-48.18L-122.84,-49.00ZM-155.40,-20.08L-155.22,-19.99L-155.06,-19.86L-154.81,-19.51L-154.83,-19.45L-155.22,-19.24L-155.54,-19.08L-155.69,-18.92L-155.94,-19.06L-155.91,-19.34L-156.07,-19.70L-156.02,-19.81L-155.85,-19.98L-155.92,-20.17L-155.86,-20.27L-155.79,-20.25L-155.40,-20.08ZM-156.00,-20.76L-156.08,-20.64L-156.41,-20.57L-156.59,-20.78L-156.70,-20.86L-156.71,-20.93L-156.61,-21.01L-156.26,-20.92L-156.00,-20.76ZM-156.76,-21.18L-156.79,-21.07L-157.33,-21.10L-157.25,-21.22L-156.76,-21.18ZM-158.03,-21.72L-157.94,-21.65L-157.65,-21.32L-157.71,-21.26L-157.78,-21.28L-158.13,-21.31L-158.25,-21.54L-158.29,-21.58L-158.03,-21.72ZM-159.37,-22.21L-159.35,-21.98L-159.46,-21.88L-159.80,-22.07L-159.75,-22.14L-159.60,-22.24L-159.37,-22.21ZM-166.47,-60.38L-165.67,-60.29L-165.58,-59.91L-166.19,-59.75L-166.85,-59.94L-167.46,-60.21L-166.47,-60.38ZM-153.23,-57.97L-152.56,-57.90L-152.14,-57.59L-153.01,-57.12L-154.01,-56.73L-154.52,-56.99L-154.67,-57.46L-153.76,-57.82L-153.23,-57.97ZM-140.99,-69.71L-140.99,-69.71L-140.99,-66.00L-141.00,-60.31L-140.01,-60.28L-139.04,-60.00L-138.34,-59.56L-137.45,-58.91L-136.48,-59.46L-135.48,-59.79L-134.94,-59.27L-134.27,-58.86L-133.36,-58.41L-132.73,-57.69L-131.71,-56.55L-130.01,-55.92L-129.98,-55.28L-130.54,-54.80L-130.54,-54.80L-130.54,-54.80L-131.09,-55.18L-131.97,-55.50L-132.25,-56.37L-133.54,-57.18L-134.08,-58.12L-135.04,-58.19L-136.63,-58.21L-137.80,-58.50L-139.87,-59.54L-140.83,-59.73L-142.57,-60.08L-143.96,-60.00L-145.93,-60.46L-147.11,-60.88L-148.22,-60.67L-148.02,-59.98L-148.57,-59.91L-149.73,-59.71L-150.61,-59.37L-151.72,-59.16L-151.86,-59.74L-151.41,-60.73L-150.35,-61.03L-150.62,-61.28L-151.90,-60.73L-152.58,-60.06L-154.02,-59.35L-153.29,-58.86L-154.23,-58.15L-155.31,-57.73L-156.31,-57.42L-156.56,-56.98L-158.12,-56.46L-158.43,-55.99L-159.60,-55.57L-160.29,-55.64L-161.22,-55.36L-162.24,-55.02L-163.07,-54.69L-164.79,-54.40L-164.94,-54.57L-163.85,-55.04L-162.87,-55.35L-161.80,-55.89L-160.56,-56.01L-160.07,-56.42L-158.68,-57.02L-158.46,-57.22L-157.72,-57.57L-157.55,-58.33L-157.04,-58.92L-158.19,-58.62L-158.52,-58.79L-159.06,-58.42L-159.71,-58.93L-159.98,-58.57L-160.36,-59.07L-161.36,-58.67L-161.97,-58.67L-162.05,-59.27L-161.87,-59.63L-162.52,-59.99L-163.82,-59.80L-164.66,-60.27L-165.35,-60.51L-165.35,-61.07L-166.12,-61.50L-165.73,-62.07L-164.92,-62.63L-164.56,-63.15L-163.75,-63.22L-163.07,-63.06L-162.26,-63.54L-161.53,-63.46L-160.77,-63.77L-160.96,-64.22L-161.52,-64.40L-160.78,-64.79L-161.39,-64.78L-162.45,-64.56L-162.76,-64.34L-163.55,-64.56L-164.96,-64.45L-166.43,-64.69L-166.85,-65.09L-168.11,-65.67L-166.71,-66.09L-164.47,-66.58L-163.65,-66.58L-163.79,-66.08L-161.68,-66.12L-162.49,-66.74L-163.72,-67.12L-164.43,-67.62L-165.39,-68.04L-166.76,-68.36L-166.20,-68.88L-164.43,-68.92L-163.17,-69.37L-162.93,-69.86L-161.91,-70.33L-160.93,-70.45L-159.04,-70.89L-158.12,-70.82L-156.58,-71.36L-155.07,-71.15L-154.34,-70.70L-153.90,-70.89L-152.21,-70.83L-152.27,-70.60L-150.74,-70.43L-149.72,-70.53L-147.61,-70.21L-145.69,-70.12L-144.92,-69.99L-143.59,-70.15L-142.07,-69.85L-140.99,-69.71L-140.99,-69.71ZM-171.73,-63.78L-171.11,-63.59L-170.49,-63.69L-169.68,-63.43L-168.69,-63.30L-168.77,-63.19L-169.53,-62.98L-170.29,-63.19L-170.67,-63.38L-171.55,-63.32L-171.79,-63.41L-171.73,-63.78Z" fill="#00e5ff" stroke="#00e5ff" stroke-width="0.5" fill-opacity="0.8"/>
</svg>