<svg xmlns="http://www.w3.org/2000/svg" viewBox="53.93 -47.59 21.13 12.45" width="300" height="300" preserveAspectRatio="xMidYMid meet">
  <path d="M55.97,-41.31L55.93,-45.00L58.50,-45.59L58.69,-45.50L60.24,-44.78L61.06,-44.41L62.01,-43.50L63.19,-43.65L64.90,-43.73L66.10,-43.00L66.02,-41.99L66.51,-41.99L66.71,-41.17L67.99,-41.14L68.26,-40.66L68.63,-40.67L69.07,-41.38L70.39,-42.08L70.96,-42.27L71.26,-42.17L70.42,-41.52L71.16,-41.14L71.87,-41.39L73.06,-40.87L71.77,-40.15L71.01,-40.24L70.60,-40.22L70.46,-40.50L70.67,-40.96L69.33,-40.73L69.01,-40.09L68.54,-39.53L67.70,-39.58L67.44,-39.14L68.18,-38.90L68.39,-38.16L67.83,-37.14L67.08,-37.36L66.52,-37.36L66.55,-37.97L65.22,-38.40L64.17,-38.89L63.52,-39.36L62.37,-40.05L61.88,-41.08L61.55,-41.27L60.47,-41.22L60.08,-41.43L59.98,-42.22L58.63,-42.75L57.79,-42.17L56.93,-41.83L57.10,-41.32L55.97,-41.31Z" fill="#00e5ff" stroke="#00e5ff" stroke-width="0.5" fill-opacity="0.8"/>
</svg>