<svg xmlns="http://www.w3.org/2000/svg" viewBox="-75.30 -14.16 17.54 15.44" width="300" height="300" preserveAspectRatio="xMidYMid meet">
  <path d="M-60.73,-5.20L-60.60,-4.92L-60.97,-4.54L-62.09,-4.16L-62.80,-4.01L-63.09,-3.77L-63.89,-4.02L-64.63,-4.15L-64.82,-4.06L-64.37,-3.80L-64.41,-3.13L-64.27,-2.50L-63.42,-2.41L-63.37,-2.20L-64.08,-1.92L-64.20,-1.49L-64.61,-1.33L-65.35,-1.10L-65.55,-0.79L-66.33,-0.72L-66.88,-1.25L-67.18,-2.25L-67.45,-2.60L-67.81,-2.82L-67.30,-3.32L-67.34,-3.54L-67.62,-3.84L-67.82,-4.50L-67.74,-5.22L-67.52,-5.56L-67.34,-6.10L-67.70,-6.27L-68.27,-6.15L-68.99,-6.21L-69.39,-6.10L-70.09,-6.96L-70.67,-7.09L-71.96,-6.99L-72.20,-7.34L-72.44,-7.42L-72.48,-7.63L-72.36,-8.00L-72.44,-8.41L-72.66,-8.63L-72.79,-9.09L-73.30,-9.15L-73.03,-9.74L-72.91,-10.45L-72.61,-10.82L-72.23,-11.11L-71.97,-11.61L-71.33,-11.78L-71.36,-11.54L-71.95,-11.42L-71.62,-10.97L-71.63,-10.45L-72.07,-9.87L-71.70,-9.07L-71.26,-9.14L-71.04,-9.86L-71.35,-10.21L-71.40,-10.97L-70.16,-11.38L-70.29,-11.85L-69.94,-12.16L-69.58,-11.46L-68.88,-11.44L-68.23,-10.89L-68.19,-10.55L-67.30,-10.55L-66.23,-10.65L-65.66,-10.20L-64.89,-10.08L-64.33,-10.39L-64.32,-10.64L-63.08,-10.70L-61.88,-10.72L-62.73,-10.42L-62.39,-9.95L-61.59,-9.87L-60.83,-9.38L-60.67,-8.58L-60.15,-8.60L-59.76,-8.37L-60.55,-7.78L-60.64,-7.42L-60.30,-7.04L-60.54,-6.86L-61.16,-6.70L-61.14,-6.23L-61.41,-5.96L-60.73,-5.20Z" fill="#00e5ff" stroke="#00e5ff" stroke-width="0.5" fill-opacity="0.8"/>
</svg>