<svg xmlns="http://www.w3.org/2000/svg" viewBox="100.17 -25.35 11.17 18.75" width="300" height="300" preserveAspectRatio="xMidYMid meet">
  <path d="M104.33,-10.49L105.20,-10.89L106.25,-10.96L105.81,-11.57L107.49,-12.34L107.61,-13.54L107.38,-14.20L107.56,-15.20L107.31,-15.91L106.56,-16.60L105.93,-17.49L105.09,-18.67L103.90,-19.27L104.18,-19.62L104.82,-19.89L104.44,-20.76L103.20,-20.77L102.75,-21.68L102.17,-22.46L102.71,-22.71L103.50,-22.70L104.48,-22.82L105.33,-23.35L105.81,-22.98L106.73,-22.79L106.57,-22.22L107.04,-21.81L108.05,-21.55L106.72,-20.70L105.88,-19.75L105.66,-19.06L106.43,-18.00L107.36,-16.70L108.27,-16.08L108.88,-15.28L109.34,-13.43L109.20,-11.67L108.37,-11.01L107.22,-10.36L106.41,-9.53L105.16,-8.60L104.80,-9.24L105.08,-9.92L104.33,-10.49Z" fill="#00e5ff" stroke="#00e5ff" stroke-width="0.5" fill-opacity="0.8"/>
</svg>