<svg xmlns="http://www.w3.org/2000/svg" viewBox="27.6 -34.4 40.5 36.7" width="400" height="300" preserveAspectRatio="xMidYMid meet">
  <rect x="27.6" y="-34.4" width="40.5" height="36.7" fill="#0e0e18"/>
  <path d="M33.9,1.0L34.1,1.1L37.7,3.1L37.8,3.7L39.2,4.7L38.7,5.9L38.8,6.5L39.4,6.9L39.5,7.1L39.2,7.7L39.3,8.0L39.2,8.5L39.5,9.2L39.9,10.2L40.3,10.4L40.3,10.4L39.5,11.0L38.4,11.4L37.8,11.3L37.5,11.6L36.8,11.7L36.5,11.8L35.3,11.5L34.6,11.6L34.3,10.2L33.9,9.7L33.7,9.5L32.8,9.3L32.2,9.0L31.6,8.8L31.2,8.6L30.7,8.4L30.7,8.4L30.2,7.1L29.6,6.5L29.4,6.0L29.5,5.4L29.3,4.5L29.8,4.5L30.1,4.1L30.5,3.6L30.8,3.4L30.7,3.0L30.5,2.8L30.5,2.4L30.5,2.4L30.8,2.3L30.8,1.7L30.4,1.1L30.8,1.0L31.9,1.0L33.9,1.0Z" fill="#1e1e2e" stroke="#2a2a3a" stroke-width="0.3"/>
  <path d="M29.3,4.5L29.5,5.4L29.4,6.0L29.6,6.5L30.2,7.1L30.7,8.4L30.7,8.4L30.3,8.3L29.0,8.4L28.7,8.6L28.4,9.2L28.7,9.7L28.5,10.9L28.4,11.9L28.6,12.1L29.3,12.5L29.6,12.3L29.7,13.4L28.9,13.4L28.5,12.8L28.2,12.4L27.4,12.2L27.2,11.7L26.6,12.0L25.8,11.9L25.4,11.4L24.8,11.3L24.3,11.3L24.3,11.0L23.9,11.0L23.5,10.9L22.8,11.1L22.4,11.1L22.2,11.2L22.2,9.9L21.9,9.6L21.8,8.9L21.9,8.3L21.7,7.9L21.7,7.3L20.5,7.3L20.6,7.0L20.1,7.0L20.0,7.1L19.4,7.2L19.2,7.8L19.0,8.0L18.5,7.9L18.1,8.0L17.5,8.1L17.1,7.6L16.9,7.2L16.6,6.6L16.3,5.9L13.4,5.9L13.0,6.0L12.7,6.0L12.3,6.1L12.2,5.8L12.4,5.7L12.5,5.3L12.6,5.0L13.0,4.8L13.3,4.9L13.6,4.5L14.1,4.5L14.2,4.8L14.6,5.0L15.2,4.3L15.8,3.9L16.0,3.5L16.0,2.7L16.4,1.7L16.9,1.2L17.5,0.7L17.6,0.4L17.7,0.1L17.8,-0.3L17.8,-0.9L17.9,-1.7L18.1,-2.4L18.4,-2.9L18.5,-3.5L18.5,-4.2L18.9,-4.7L19.5,-5.0L20.3,-4.7L20.9,-4.3L21.7,-4.2L22.4,-4.0L22.7,-4.6L22.8,-4.7L23.3,-4.6L24.4,-5.1L24.8,-4.9L25.1,-4.9L25.3,-5.2L25.7,-5.3L26.4,-5.2L27.0,-5.1L27.4,-5.2L28.0,-4.4L28.4,-4.3L28.7,-4.5L29.2,-4.4L29.7,-4.6L30.0,-4.2L30.8,-3.5L30.8,-3.5L30.8,-2.3L31.2,-2.2L30.9,-1.8L30.5,-1.6L30.1,-1.1L29.9,-0.6L29.8,0.2L29.6,0.6L29.6,1.3L29.3,1.6L29.3,2.2L29.1,2.3L29.0,2.8L29.3,3.3L29.3,4.5Z" fill="#1e1e2e" stroke="#2a2a3a" stroke-width="0.3"/>
  <path d="M41.6,1.7L41.0,0.9L41.0,-2.8L41.9,-3.9L42.1,-4.2L42.8,-4.3L43.7,-5.0L45.0,-5.0L47.8,-8.0L48.5,-8.9L48.9,-9.5L48.9,-10.0L48.9,-11.1L48.9,-11.5L48.9,-11.5L48.9,-11.5L49.3,-11.5L49.7,-11.7L50.3,-11.8L50.7,-12.1L51.1,-12.1L51.1,-11.8L51.0,-11.2L51.0,-10.7L50.8,-10.3L50.6,-9.2L50.1,-8.1L49.5,-6.8L48.6,-5.3L47.7,-4.2L46.6,-2.9L45.6,-2.0L44.1,-1.1L43.1,-0.3L42.0,0.9L41.8,1.4L41.6,1.7Z" fill="#1e1e2e" stroke="#2a2a3a" stroke-width="0.3"/>
  <path d="M39.2,4.7L37.8,3.7L37.7,3.1L34.1,1.1L33.9,1.0L33.9,-0.1L34.2,-0.5L34.7,-1.2L35.0,-1.9L34.6,-3.1L34.5,-3.6L34.0,-4.3L34.6,-4.9L35.3,-5.5L35.8,-5.3L35.8,-4.8L36.2,-4.5L36.9,-4.5L38.1,-3.6L38.4,-3.6L38.7,-3.6L38.9,-3.5L39.6,-3.4L39.9,-3.8L40.8,-4.3L41.2,-3.9L41.9,-3.9L41.0,-2.8L41.0,0.9L41.6,1.7L40.9,2.1L40.6,2.5L40.3,2.6L40.1,3.3L39.8,3.7L39.6,4.4L39.2,4.7Z" fill="#1e1e2e" stroke="#2a2a3a" stroke-width="0.3"/>
  <path d="M24.6,-8.3L23.8,-8.7L23.5,-9.0L23.4,-9.3L23.6,-9.7L23.6,-10.1L23.0,-10.8L22.9,-11.2L22.9,-11.5L22.5,-11.8L22.5,-12.4L22.3,-12.7L21.9,-12.7L22.0,-13.1L22.3,-13.5L22.2,-13.9L22.5,-14.2L22.3,-14.5L22.6,-15.1L23.0,-15.9L23.9,-15.8L23.8,-20.0L23.9,-20.4L25.0,-20.4L25.0,-22.6L29.0,-22.6L32.9,-22.6L36.9,-22.6L37.2,-21.5L37.0,-21.3L37.1,-20.2L37.5,-19.0L37.9,-18.7L38.4,-18.3L37.9,-17.7L37.2,-17.5L36.9,-17.2L36.8,-16.5L36.3,-15.0L36.4,-14.6L36.3,-13.7L35.9,-12.7L35.3,-12.2L34.8,-11.4L34.7,-11.0L34.3,-10.7L34.0,-9.6L34.0,-8.7L34.0,-9.5L33.8,-9.5L33.8,-10.0L33.7,-10.4L33.2,-10.8L33.1,-11.5L33.2,-12.3L32.7,-12.3L32.7,-12.1L32.1,-12.1L32.3,-11.8L32.4,-11.2L31.9,-10.6L31.4,-9.9L30.8,-9.8L30.0,-10.3L29.6,-10.1L29.5,-9.8L29.0,-9.6L29.0,-9.4L28.0,-9.4L27.8,-9.6L27.1,-9.7L26.8,-9.5L26.5,-9.6L26.0,-10.2L25.8,-10.5L25.1,-10.3L24.8,-9.9L24.5,-9.0L24.2,-8.8L23.9,-8.7L24.6,-8.3Z" fill="#1e1e2e" stroke="#2a2a3a" stroke-width="0.3"/>
  <path d="M35.7,-34.6L35.5,-34.3L35.2,-34.4L35.0,-33.6L35.2,-33.5L35.0,-33.4L34.9,-33.0L35.4,-33.2L35.4,-32.8L34.9,-30.9L34.8,-31.2L34.3,-32.9L34.3,-32.9L34.3,-32.9L34.6,-33.3L34.5,-33.3L34.8,-33.9L35.0,-34.8L35.1,-35.1L35.1,-35.1L35.5,-35.1L35.6,-35.3L35.8,-35.3L35.8,-34.8L35.7,-34.7L35.7,-34.6Z" fill="#1e1e2e" stroke="#2a2a3a" stroke-width="0.3"/>
  <path d="M35.4,-33.2L34.9,-33.0L35.0,-33.4L35.2,-33.5L35.0,-33.6L35.2,-34.4L35.5,-34.3L35.5,-33.6L35.4,-33.2Z" fill="#1e1e2e" stroke="#2a2a3a" stroke-width="0.3"/>
  <path d="M35.5,-34.3L35.7,-34.6L36.8,-34.2L38.8,-35.4L39.2,-34.0L39.0,-33.8L37.0,-33.2L38.0,-32.1L37.7,-31.9L37.5,-31.5L36.7,-31.3L36.5,-30.9L36.1,-30.5L35.0,-30.7L34.9,-30.9L35.4,-32.8L35.4,-33.2L35.5,-33.6L35.5,-34.3Z" fill="#1e1e2e" stroke="#2a2a3a" stroke-width="0.3"/>
  <path d="M51.6,-25.0L51.8,-25.1L51.8,-24.8L52.6,-24.9L53.4,-24.9L54.0,-24.9L54.7,-25.6L55.4,-26.3L56.1,-27.0L56.3,-26.6L56.4,-25.8L55.9,-25.7L55.8,-25.0L56.0,-24.9L55.5,-24.7L55.5,-24.2L55.2,-23.8L55.2,-23.3L55.0,-23.1L52.0,-23.6L51.6,-24.7L51.6,-25.0Z" fill="#1e1e2e" stroke="#2a2a3a" stroke-width="0.3"/>
  <path d="M50.8,-25.6L50.7,-26.4L51.0,-26.9L51.3,-27.1L51.6,-26.7L51.6,-26.1L51.4,-25.4L51.1,-25.3L50.8,-25.6Z" fill="#1e1e2e" stroke="#2a2a3a" stroke-width="0.3"/>
  <path d="M48.0,-31.4L48.2,-30.9L48.1,-30.7L48.4,-29.8L47.7,-29.8L47.5,-30.3L46.6,-30.4L47.3,-31.5L48.0,-31.4Z" fill="#1e1e2e" stroke="#2a2a3a" stroke-width="0.3"/>
  <path d="M39.2,-34.0L38.8,-35.4L41.0,-36.7L41.4,-38.2L41.3,-39.1L41.8,-39.4L42.3,-40.2L42.8,-40.4L43.9,-40.2L44.3,-39.9L44.8,-40.1L45.4,-38.6L46.1,-38.2L46.2,-37.5L45.6,-37.1L45.4,-36.2L46.1,-35.0L47.3,-34.4L47.8,-33.5L47.7,-32.6L48.0,-32.6L48.0,-32.0L48.6,-31.4L48.0,-31.4L47.3,-31.5L46.6,-30.4L44.7,-30.5L41.9,-32.9L40.4,-33.7L39.2,-34.0Z" fill="#1e1e2e" stroke="#2a2a3a" stroke-width="0.3"/>
  <path d="M55.2,-23.3L55.2,-23.8L55.5,-24.2L55.5,-24.7L56.0,-24.9L55.8,-25.0L55.9,-25.7L56.4,-25.8L56.8,-25.0L57.4,-24.6L58.1,-24.5L58.7,-24.3L59.2,-23.6L59.5,-23.3L59.8,-23.1L59.8,-22.9L59.4,-22.3L59.3,-22.0L58.9,-21.6L58.5,-20.9L58.0,-20.9L57.8,-20.7L57.7,-20.1L57.8,-19.4L57.7,-19.3L57.2,-19.3L56.6,-18.9L56.5,-18.4L56.3,-18.2L55.7,-18.2L55.3,-17.9L55.3,-17.5L54.8,-17.2L54.2,-17.3L53.6,-16.9L53.1,-16.9L52.8,-17.6L52.0,-19.4L55.0,-20.4L55.7,-22.6L55.2,-23.3ZM56.3,-26.6L56.1,-27.0L56.4,-27.4L56.5,-27.3L56.4,-26.8L56.3,-26.6Z" fill="#1e1e2e" stroke="#2a2a3a" stroke-width="0.3"/>
  <path d="M77.8,-38.0L76.9,-37.0L75.8,-36.8L74.2,-37.1L73.7,-36.6L74.1,-35.5L74.5,-34.7L75.3,-34.1L74.4,-33.4L74.4,-32.6L73.5,-31.4L72.8,-30.3L71.8,-29.1L70.6,-29.2L69.5,-28.0L70.2,-27.5L70.3,-26.6L70.8,-26.1L71.0,-25.1L68.8,-25.1L68.2,-24.4L67.4,-24.7L67.1,-25.5L66.4,-26.3L64.5,-26.1L62.9,-26.1L61.5,-25.9L61.9,-27.2L63.3,-27.8L63.2,-28.3L62.8,-28.5L62.7,-29.5L61.8,-30.0L61.4,-30.7L60.9,-31.3L62.5,-30.7L63.6,-30.9L64.1,-30.7L64.4,-31.0L65.0,-30.9L66.3,-31.3L66.4,-32.3L66.9,-33.0L67.7,-33.0L67.8,-33.3L68.6,-33.5L68.9,-33.4L69.3,-33.7L69.3,-34.4L69.7,-35.1L70.3,-35.4L69.9,-36.2L70.9,-36.2L71.2,-36.6L71.1,-37.1L71.6,-37.6L71.5,-38.2L71.3,-38.7L71.8,-39.3L72.9,-39.5L74.1,-39.7L74.6,-39.9L75.2,-40.0L75.9,-39.5L76.2,-38.5L77.8,-38.0Z" fill="#1e1e2e" stroke="#2a2a3a" stroke-width="0.3"/>
  <path d="M66.5,-40.3L67.1,-40.3L67.8,-40.1L68.1,-39.9L68.9,-40.3L69.2,-40.1L69.5,-40.6L70.1,-40.6L70.3,-40.8L70.4,-41.3L70.8,-41.8L71.3,-41.5L71.2,-41.1L71.5,-41.0L71.4,-40.0L71.8,-39.5L72.2,-39.8L72.6,-39.9L73.3,-40.5L73.9,-40.4L75.0,-40.4L75.2,-40.0L74.6,-39.9L74.1,-39.7L72.9,-39.5L71.8,-39.3L71.3,-38.7L71.5,-38.2L71.6,-37.6L71.1,-37.1L71.2,-36.6L70.9,-36.2L69.9,-36.2L70.3,-35.4L69.7,-35.1L69.3,-34.4L69.3,-33.7L68.9,-33.4L68.6,-33.5L67.8,-33.3L67.7,-33.0L66.9,-33.0L66.4,-32.3L66.3,-31.3L65.0,-30.9L64.4,-31.0L64.1,-30.7L63.6,-30.9L62.5,-30.7L60.9,-31.3L61.8,-32.3L61.7,-33.1L60.9,-33.3L60.9,-34.0L60.5,-35.0L61.0,-35.6L60.5,-35.8L60.8,-36.7L61.2,-38.2L62.2,-37.7L63.0,-37.9L63.2,-38.5L64.0,-38.6L64.5,-39.0L64.7,-40.0L65.6,-40.3L65.7,-40.7L66.2,-40.4L66.5,-40.3Z" fill="#1e1e2e" stroke="#2a2a3a" stroke-width="0.3"/>
  <path d="M48.6,-31.4L48.0,-32.0L48.0,-32.6L47.7,-32.6L47.8,-33.5L47.3,-34.4L46.1,-35.0L45.4,-36.2L45.6,-37.1L46.2,-37.5L46.1,-38.2L45.4,-38.6L44.8,-40.1L44.8,-40.1L44.2,-41.1L44.4,-41.5L44.1,-43.0L44.8,-43.3L45.0,-42.8L45.5,-42.3L46.1,-42.1L46.5,-42.1L47.7,-43.1L48.1,-43.2L48.4,-42.8L48.0,-42.2L48.6,-41.5L48.9,-41.5L49.2,-40.6L50.1,-40.3L50.8,-39.7L52.3,-39.5L53.8,-39.8L53.9,-40.1L54.8,-40.4L55.5,-41.1L56.2,-41.1L56.6,-41.3L57.3,-41.2L58.4,-40.5L59.2,-40.4L60.4,-39.3L61.1,-39.2L61.2,-38.2L60.8,-36.7L60.5,-35.8L61.0,-35.6L60.5,-35.0L60.9,-34.0L60.9,-33.3L61.7,-33.1L61.8,-32.3L60.9,-31.3L61.4,-30.7L61.8,-30.0L62.7,-29.5L62.8,-28.5L63.2,-28.3L63.3,-27.8L61.9,-27.2L61.5,-25.9L59.6,-26.3L58.5,-26.5L57.4,-26.7L57.0,-28.0L56.5,-28.2L55.7,-28.0L54.7,-27.5L53.5,-27.8L52.5,-28.7L51.5,-29.0L50.9,-30.1L50.1,-31.6L49.6,-31.5L48.9,-31.8L48.6,-31.4Z" fill="#1e1e2e" stroke="#2a2a3a" stroke-width="0.3"/>
  <path d="M35.7,-34.6L35.7,-34.7L35.8,-34.8L35.8,-35.3L36.1,-36.0L36.6,-36.4L36.4,-36.9L36.0,-37.0L35.9,-37.9L36.1,-38.4L36.4,-38.7L36.7,-39.0L36.7,-39.6L37.1,-39.4L38.2,-39.8L38.7,-39.5L39.5,-39.5L40.7,-40.0L41.2,-40.0L42.3,-40.2L41.8,-39.4L41.3,-39.1L41.4,-38.2L41.0,-36.7L38.8,-35.4L36.8,-34.2L35.7,-34.6Z" fill="#1e1e2e" stroke="#2a2a3a" stroke-width="0.3"/>
  <path d="M36.4,-14.6L36.3,-15.0L36.8,-16.5L36.9,-17.2L37.2,-17.5L37.9,-17.7L38.4,-18.3L39.0,-17.1L39.3,-16.1L39.8,-15.6L41.2,-14.6L41.7,-14.1L42.3,-13.5L42.6,-13.1L43.1,-12.8L42.8,-12.6L42.4,-12.6L42.0,-13.0L41.6,-13.6L41.2,-13.9L40.9,-14.3L40.0,-14.7L39.3,-14.7L39.1,-14.9L38.5,-14.7L37.9,-15.1L37.6,-14.4L36.4,-14.6Z" fill="#1e1e2e" stroke="#2a2a3a" stroke-width="0.3"/>
  <path d="M35.0,-30.7L36.1,-30.5L36.5,-30.9L36.7,-31.3L37.5,-31.5L37.7,-31.9L38.0,-32.1L37.0,-33.2L39.0,-33.8L39.2,-34.0L40.4,-33.7L41.9,-32.9L44.7,-30.5L46.6,-30.4L47.5,-30.3L47.7,-29.8L48.4,-29.8L48.8,-28.8L49.3,-28.6L49.5,-28.2L50.2,-27.7L50.2,-27.2L50.1,-26.9L50.2,-26.5L50.5,-26.2L50.7,-25.8L50.8,-25.6L51.1,-25.3L51.4,-25.4L51.6,-25.0L51.6,-24.7L52.0,-23.6L55.0,-23.1L55.2,-23.3L55.7,-22.6L55.0,-20.4L52.0,-19.4L49.1,-19.0L48.2,-18.5L47.5,-17.4L47.0,-17.2L46.7,-17.6L46.4,-17.5L45.4,-17.6L45.2,-17.7L44.1,-17.7L43.8,-17.6L43.4,-17.9L43.1,-17.3L43.2,-16.9L42.8,-16.6L42.6,-17.0L42.3,-17.3L42.3,-17.8L41.8,-18.1L41.2,-19.0L40.9,-19.9L40.2,-20.6L39.8,-20.8L39.1,-21.8L39.0,-22.5L39.1,-23.2L38.5,-24.4L38.0,-24.8L37.5,-25.0L37.2,-25.7L37.2,-25.9L36.9,-26.5L36.6,-26.7L36.2,-27.6L35.6,-28.5L35.1,-29.3L34.6,-29.3L34.8,-29.9L34.8,-30.3L35.0,-30.7Z" fill="#1e1e2e" stroke="#2a2a3a" stroke-width="0.3"/>
  <path d="M36.9,-22.6L32.9,-22.6L29.0,-22.6L25.0,-22.6L25.0,-26.6L25.0,-30.6L24.7,-31.5L25.0,-32.2L24.8,-32.7L25.2,-33.3L26.5,-33.3L27.5,-33.0L28.5,-32.7L28.9,-32.5L29.7,-32.9L30.1,-33.2L31.0,-33.3L31.7,-33.1L32.0,-32.6L32.2,-32.9L33.0,-32.7L33.8,-32.6L34.3,-32.9L34.3,-32.9L34.8,-31.2L34.9,-30.9L34.6,-30.4L34.4,-29.6L34.2,-29.0L33.9,-28.8L33.6,-29.2L33.1,-29.7L32.4,-31.3L32.3,-31.2L32.7,-30.0L33.3,-28.8L34.1,-27.1L34.5,-26.5L34.8,-25.9L35.7,-24.7L35.5,-24.5L35.5,-23.8L36.7,-22.8L36.9,-22.6Z" fill="#1e1e2e" stroke="#2a2a3a" stroke-width="0.3"/>
  <path d="M47.8,-8.0L45.0,-5.0L43.7,-5.0L42.8,-4.3L42.1,-4.2L41.9,-3.9L41.2,-3.9L40.8,-4.3L39.9,-3.8L39.6,-3.4L38.9,-3.5L38.7,-3.6L38.4,-3.6L38.1,-3.6L36.9,-4.5L36.2,-4.5L35.8,-4.8L35.8,-5.3L35.3,-5.5L34.7,-6.6L34.3,-6.8L34.1,-7.2L33.6,-7.7L33.0,-7.8L33.3,-8.4L33.8,-8.4L34.0,-8.7L34.0,-9.6L34.3,-10.7L34.7,-11.0L34.8,-11.4L35.3,-12.2L35.9,-12.7L36.3,-13.7L36.4,-14.6L37.6,-14.4L37.9,-15.1L38.5,-14.7L39.1,-14.9L39.3,-14.7L40.0,-14.7L40.9,-14.3L41.2,-13.9L41.6,-13.6L42.0,-13.0L42.4,-12.6L42.0,-12.2L41.7,-11.7L41.7,-11.4L41.8,-11.1L42.3,-11.1L42.6,-11.2L42.8,-11.0L42.6,-10.6L42.9,-10.1L43.3,-9.6L43.7,-9.2L46.9,-8.0L47.8,-8.0Z" fill="#1e1e2e" stroke="#2a2a3a" stroke-width="0.3"/>
  <path d="M42.4,-12.6L42.8,-12.6L43.1,-12.8L43.3,-12.5L43.3,-12.1L42.7,-11.8L43.1,-11.5L42.8,-11.0L42.6,-11.2L42.3,-11.1L41.8,-11.1L41.7,-11.4L41.7,-11.7L42.0,-12.2L42.4,-12.6Z" fill="#1e1e2e" stroke="#2a2a3a" stroke-width="0.3"/>
  <path d="M48.9,-11.5L48.9,-11.5L48.9,-11.5L48.9,-11.1L48.9,-10.0L48.9,-9.5L48.5,-8.9L47.8,-8.0L46.9,-8.0L43.7,-9.2L43.3,-9.6L42.9,-10.1L42.6,-10.6L42.8,-11.0L43.1,-11.5L43.5,-11.4L43.7,-10.9L44.1,-10.5L44.6,-10.5L45.6,-10.8L46.6,-10.9L47.5,-11.2L48.0,-11.3L48.4,-11.5L48.9,-11.5L48.9,-11.5Z" fill="#1e1e2e" stroke="#2a2a3a" stroke-width="0.3"/>
  <path d="M33.9,1.0L31.9,1.0L30.8,1.0L30.4,1.1L29.8,1.4L29.6,1.3L29.6,0.6L29.8,0.2L29.9,-0.6L30.1,-1.1L30.5,-1.6L30.9,-1.8L31.2,-2.2L30.8,-2.3L30.8,-3.5L30.8,-3.5L31.2,-3.8L31.9,-3.6L32.7,-3.8L33.4,-3.8L34.0,-4.3L34.5,-3.6L34.6,-3.1L35.0,-1.9L34.7,-1.2L34.2,-0.5L33.9,-0.1L33.9,1.0Z" fill="#1e1e2e" stroke="#2a2a3a" stroke-width="0.3"/>
  <path d="M30.4,1.1L30.8,1.7L30.8,2.3L30.5,2.4L30.5,2.4L29.9,2.3L29.6,2.9L29.0,2.8L29.1,2.3L29.3,2.2L29.3,1.6L29.6,1.3L29.8,1.4L30.4,1.1Z" fill="#1e1e2e" stroke="#2a2a3a" stroke-width="0.3"/>
  <path d="M30.8,-3.5L30.0,-4.2L29.7,-4.6L29.2,-4.4L28.7,-4.5L28.4,-4.3L28.0,-4.4L27.4,-5.2L27.2,-5.6L26.5,-6.0L26.2,-6.6L25.8,-7.0L25.1,-7.5L25.1,-7.8L24.6,-8.3L23.9,-8.7L24.2,-8.8L24.5,-9.0L24.8,-9.9L25.1,-10.3L25.8,-10.5L26.0,-10.2L26.5,-9.6L26.8,-9.5L27.1,-9.7L27.8,-9.6L28.0,-9.4L29.0,-9.4L29.0,-9.6L29.5,-9.8L29.6,-10.1L30.0,-10.3L30.8,-9.8L31.4,-9.9L31.9,-10.6L32.4,-11.2L32.3,-11.8L32.1,-12.1L32.7,-12.1L32.7,-12.3L33.2,-12.3L33.1,-11.5L33.2,-10.8L33.7,-10.4L33.8,-10.0L33.8,-9.5L34.0,-9.5L34.0,-8.7L33.8,-8.4L33.3,-8.4L33.0,-7.8L33.6,-7.7L34.1,-7.2L34.3,-6.8L34.7,-6.6L35.3,-5.5L34.6,-4.9L34.0,-4.3L33.4,-3.8L32.7,-3.8L31.9,-3.6L31.2,-3.8L30.8,-3.5Z" fill="#1e1e2e" stroke="#2a2a3a" stroke-width="0.3"/>
  <path d="M52.0,-19.4L52.8,-17.6L53.1,-16.9L52.4,-16.6L52.2,-16.1L52.2,-15.8L51.2,-15.4L49.6,-14.9L48.7,-14.1L48.2,-14.1L47.9,-14.1L47.4,-13.7L46.7,-13.5L45.9,-13.5L45.6,-13.4L45.4,-13.1L45.1,-13.1L45.0,-12.8L44.5,-12.8L44.2,-12.7L43.5,-12.7L43.2,-13.3L43.3,-13.9L43.1,-14.2L42.9,-15.0L42.6,-15.4L42.8,-15.4L42.7,-15.9L42.8,-16.1L42.8,-16.6L43.2,-16.9L43.1,-17.3L43.4,-17.9L43.8,-17.6L44.1,-17.7L45.2,-17.7L45.4,-17.6L46.4,-17.5L46.7,-17.6L47.0,-17.2L47.5,-17.4L48.2,-18.5L49.1,-19.0L52.0,-19.4Z" fill="#00e5ff" stroke="#00c4dd" stroke-width="0.4" fill-opacity="0.9"/>
</svg>