<svg xmlns="http://www.w3.org/2000/svg" viewBox="40.60 -21.00 14.51 10.41" width="300" height="300" preserveAspectRatio="xMidYMid meet">
  <path d="M52.00,-19.00L52.78,-17.35L53.11,-16.65L52.39,-16.38L52.19,-15.94L52.17,-15.60L51.17,-15.18L49.57,-14.71L48.68,-14.00L48.24,-13.95L47.94,-14.01L47.35,-13.59L46.72,-13.40L45.88,-13.35L45.63,-13.29L45.41,-13.03L45.14,-12.95L44.99,-12.70L44.49,-12.72L44.18,-12.59L43.48,-12.64L43.22,-13.22L43.25,-13.77L43.09,-14.06L42.89,-14.80L42.60,-15.21L42.81,-15.26L42.70,-15.72L42.82,-15.91L42.78,-16.35L43.22,-16.67L43.12,-17.09L43.38,-17.58L43.79,-17.32L44.06,-17.41L45.22,-17.43L45.40,-17.33L46.37,-17.23L46.75,-17.28L47.00,-16.95L47.47,-17.12L48.18,-18.17L49.12,-18.62L52.00,-19.00Z" fill="#00e5ff" stroke="#00e5ff" stroke-width="0.5" fill-opacity="0.8"/>
</svg>