<svg xmlns="http://www.w3.org/2000/svg" viewBox="19.89 6.24 15.60 13.72" width="300" height="300" preserveAspectRatio="xMidYMid meet">
  <path d="M30.74,8.34L31.16,8.59L31.56,8.76L32.19,8.93L32.76,9.23L33.23,9.68L33.49,10.53L33.32,10.80L33.11,11.61L33.31,12.44L32.99,12.78L32.69,13.71L33.21,13.97L30.18,14.80L30.27,15.51L29.52,15.64L28.95,16.04L28.83,16.39L28.47,16.47L27.60,17.29L27.04,17.94L26.71,17.96L26.38,17.85L25.26,17.74L25.08,17.66L25.08,17.58L24.68,17.35L24.03,17.30L23.22,17.52L22.56,16.90L21.89,16.08L21.93,12.90L24.02,12.91L23.93,12.57L24.08,12.19L23.90,11.72L24.02,11.24L23.91,10.93L24.26,10.95L24.31,11.26L24.78,11.24L25.42,11.33L25.75,11.78L26.55,11.92L27.16,11.61L27.39,12.13L28.16,12.27L28.52,12.70L28.93,13.25L29.70,13.26L29.62,12.18L29.34,12.36L28.64,11.97L28.37,11.79L28.50,10.79L28.67,9.61L28.45,9.16L28.73,8.53L29.00,8.41L30.35,8.24L30.74,8.34Z" fill="#00e5ff" stroke="#00e5ff" stroke-width="0.5" fill-opacity="0.8"/>
</svg>