<svg xmlns="http://www.w3.org/2000/svg" viewBox="23.26 13.51 11.59 10.76" width="300" height="300" preserveAspectRatio="xMidYMid meet">
  <path d="M31.19,22.25L30.66,22.15L30.32,22.27L29.84,22.10L29.43,22.09L28.79,21.64L28.02,21.49L27.73,20.85L27.72,20.50L27.30,20.39L26.16,19.29L25.85,18.71L25.65,18.54L25.26,17.74L26.38,17.85L26.71,17.96L27.04,17.94L27.60,17.29L28.47,16.47L28.83,16.39L28.95,16.04L29.52,15.64L30.27,15.51L30.34,15.88L31.17,15.86L31.64,16.07L31.85,16.32L32.33,16.39L32.85,16.71L32.85,17.98L32.65,18.67L32.61,19.42L32.77,19.72L32.66,20.30L32.51,20.40L32.24,21.12L31.19,22.25Z" fill="#00e5ff" stroke="#00e5ff" stroke-width="0.5" fill-opacity="0.8"/>
</svg>